<?xml version="1.0" encoding="UTF-8" standalone="no"?>
<!-- Created with Inkscape (http://www.inkscape.org/) -->

<svg
   xmlns:dc="http://purl.org/dc/elements/1.1/"
   xmlns:cc="http://creativecommons.org/ns#"
   xmlns:rdf="http://www.w3.org/1999/02/22-rdf-syntax-ns#"
   xmlns:svg="http://www.w3.org/2000/svg"
   xmlns="http://www.w3.org/2000/svg"
   xmlns:sodipodi="http://sodipodi.sourceforge.net/DTD/sodipodi-0.dtd"
   xmlns:inkscape="http://www.inkscape.org/namespaces/inkscape"
   width="120"
   height="120"
   viewBox="0 0 31.749999 31.750001"
   version="1.1"
   id="svg8"
   inkscape:version="0.91 r13725"
   sodipodi:docname="template_sign.svg">
  <defs
     id="defs2" />
  <sodipodi:namedview
     id="base"
     pagecolor="#ffffff"
     bordercolor="#ff6666"
     borderopacity="1"
     inkscape:pageopacity="0.0"
     inkscape:pageshadow="2"
     inkscape:zoom="1"
     inkscape:cx="57.320547"
     inkscape:cy="124.382"
     inkscape:document-units="mm"
     inkscape:current-layer="layer3"
     showgrid="false"
     units="px"
     inkscape:window-width="1280"
     inkscape:window-height="940"
     inkscape:window-x="-8"
     inkscape:window-y="-8"
     inkscape:window-maximized="1"
     showguides="true" />
  <metadata
     id="metadata5">
    <rdf:RDF>
      <cc:Work
         rdf:about="">
        <dc:format>image/svg+xml</dc:format>
        <dc:type
           rdf:resource="http://purl.org/dc/dcmitype/StillImage" />
        <dc:title></dc:title>
      </cc:Work>
    </rdf:RDF>
  </metadata>
  <g
     inkscape:label="Layer 1"
     inkscape:groupmode="layer"
     id="layer1"
     transform="translate(0,-265.24998)"
     style="display:inline">
    <rect
       style="fill:#ffffff;fill-opacity:1;stroke:none;stroke-width:0.26678821"
       id="rect4485"
       width="32.072342"
       height="32.473248"
       x="0"
       y="265.06128" />
  </g>
  <g
     inkscape:groupmode="layer"
     id="layer3"
     inkscape:label="Layer 3">
    <rect
       style="display:inline;fill:none;stroke:#000000;stroke-width:0.69164503;stroke-linejoin:round;stroke-miterlimit:4;stroke-dasharray:none;stroke-opacity:1"
       id="rect3339"
       width="30.345327"
       height="30.551216"
       x="1.6283766"
       y="1.3269963" />
  </g>
  <g
     inkscape:groupmode="layer"
     id="layer2"
     inkscape:label="Layer 2"
     style="display:inline">
    <path
       inkscape:connector-curvature="0"
       d="m 8.8299398,-16.758577 m 33.1390622,0 -33.1390622,0 0,-33.141707 33.1390622,0 z"
       id="path3067"
       style="fill:#ffffff;stroke-width:0.26458332" />
    <path
       inkscape:connector-curvature="0"
       d="m 21.352404,4.5702787 c 0.388673,0 0.363802,0.316178 0.363802,0.316178 0,0 -0.02381,2.1209 0,2.1209 0,0.268816 -0.2667,0.268816 -0.2667,0.268816 l -2.241814,0 0,1.094581 c 0,0 2.119841,0.02434 2.094971,0 0.461962,0 0.413543,0.414867 0.413543,0.414867 0,0 0,1.2665613 0,1.2422193 0,0.461433 -0.43815,0.437092 -0.43815,0.437092 0,0 -0.535252,0.04974 -0.535252,0 -1.705239,0 -1.534848,1.631949 -1.534848,1.631949 l 0,3.386932 0.779198,0.779727 c 0,0 0,10.910358 0,10.886281 0,0.390789 -0.682096,0.390789 -0.682096,0.390789 -0.510645,0 -0.754591,0.317236 -0.72972,0.317236 0,0.363802 -0.705909,0.437092 -0.705909,0.437092 0,0 -0.706966,-0.07329 -0.706966,-0.437092 0.02381,0 -0.219075,-0.317236 -0.731838,-0.317236 0,0 -0.681037,0 -0.681037,-0.390789 0,0.02434 0,-10.886281 0,-10.886281 l 0.779198,-0.779727 0,-3.386667 c 0,0 -0.121973,-1.63195 -1.997869,-1.63195 l -3.237971,0 c 0,0 -0.196321,0 -0.196321,-0.267758 0,0 0,-1.6319503 0,-1.6054923 0,-0.246592 0.220133,-0.221192 0.220133,-0.221192 -0.02381,0.02434 5.212028,0 5.212028,0 l 0,-1.094581 -5.260711,0 c 0,0 -0.195262,0 -0.195262,-0.195262 -0.02487,-0.02487 0,-1.436688 0,-1.436688 0,0 0,-0.220133 0.220133,-0.220133 l 2.776008,0 0.852752,-0.853811 c 0,0 6.405827,-0.02302 6.430698,0"
       id="path3069"
       style="fill:#000000;stroke-width:0.26458332" />
  </g>
</svg>
