# Blender v2.78 (sub 0) OBJ File: ''
# www.blender.org
mtllib s200Sign.mtl
o Cube.001
v 4.014663 14.338423 -1.680696
v 4.014663 14.338423 -1.877136
v 4.014663 -2.003540 -1.877148
v 4.014663 -2.003540 -1.680708
v 4.211103 14.338423 -1.877136
v 4.211103 -2.003540 -1.877148
v 4.211103 14.338423 -1.680696
v 4.211103 -2.003540 -1.680708
vt 0.0000 0.0000
vt 0.0000 0.0000
vt 0.0000 0.0000
vt 0.0000 0.0000
vt 0.0000 0.0000
vt 0.0000 0.0000
vt 0.0000 0.0000
vt 0.0000 0.0000
vn -1.0000 0.0000 0.0000
vn 0.0000 0.0000 -1.0000
vn 1.0000 0.0000 0.0000
vn 0.0000 -0.0000 1.0000
vn 0.0000 -1.0000 0.0000
vn 0.0000 1.0000 0.0000
usemtl None_NONE
s off
f 1/1/1 2/2/1 3/3/1 4/4/1
f 2/2/2 5/5/2 6/6/2 3/3/2
f 5/5/3 7/7/3 8/8/3 6/6/3
f 7/7/4 1/1/4 4/4/4 8/8/4
f 4/4/5 3/3/5 6/6/5 8/8/5
f 2/2/6 1/1/6 7/7/6 5/5/6
o Cube.002
v 2.224640 12.631297 -0.470256
v 2.304437 12.332782 0.073940
v 2.217859 31.114517 0.210117
v 2.138066 31.413029 -0.334077
v 35.886063 13.323767 -0.701773
v 35.799484 32.105503 -0.565596
v 35.879276 31.806992 -0.021403
v 35.965855 13.025252 -0.157580
vt 0.0000 0.0000
vt 0.0000 0.0000
vt 0.0000 0.0000
vt 0.0000 0.0000
vt 0.0000 0.0000
vt 0.0000 0.0000
vt 0.0000 0.0000
vt 0.0000 0.0000
vt 1.0000 0.0000
vt 1.0000 1.0000
vt 0.0000 1.0000
vn -0.9898 -0.0056 0.1421
vn 0.9898 0.0056 -0.1421
vn 0.0147 -0.8758 -0.4825
vn -0.0147 0.8758 0.4825
vn -0.0070 0.0072 -0.9999
vn 0.0070 -0.0072 0.9999
usemtl mat_sign
s off
f 9/9/7 10/10/7 11/11/7 12/12/7
f 13/13/8 14/14/8 15/15/8 16/16/8
f 9/9/9 13/13/9 16/16/9 10/10/9
f 11/11/10 15/15/10 14/14/10 12/12/10
f 13/13/11 9/9/11 12/12/11 14/14/11
f 10/10/12 16/17/12 15/18/12 11/19/12
o Cube.000_Cube.004
v 30.741013 15.794252 -3.204521
v 30.741013 15.794252 -3.400961
v 30.741013 -0.547710 -3.400972
v 30.741013 -0.547710 -3.204532
v 30.937454 15.794252 -3.400961
v 30.937454 -0.547710 -3.400972
v 30.937454 15.794252 -3.204521
v 30.937454 -0.547710 -3.204532
vt 0.0000 0.0000
vt 0.0000 0.0000
vt 0.0000 0.0000
vt 0.0000 0.0000
vt 0.0000 0.0000
vt 0.0000 0.0000
vt 0.0000 0.0000
vt 0.0000 0.0000
vn -1.0000 0.0000 0.0000
vn 0.0000 0.0000 -1.0000
vn 1.0000 0.0000 0.0000
vn 0.0000 -0.0000 1.0000
vn 0.0000 -1.0000 0.0000
vn 0.0000 1.0000 0.0000
usemtl None_NONE
s off
f 17/20/13 18/21/13 19/22/13 20/23/13
f 18/21/14 21/24/14 22/25/14 19/22/14
f 21/24/15 23/26/15 24/27/15 22/25/15
f 23/26/16 17/20/16 20/23/16 24/27/16
f 20/23/17 19/22/17 22/25/17 24/27/17
f 18/21/18 17/20/18 23/26/18 21/24/18
o Plane
v 3.378355 31.453682 -1.653378
v 34.531437 31.870720 -1.903695
v 34.588181 14.312624 -1.793778
v 3.435103 13.895594 -1.543462
vt 0.0001 0.0001
vt 0.9999 0.0001
vt 0.9999 0.9999
vt 0.0001 0.9999
vn -0.0080 -0.0063 -0.9999
usemtl None
s off
f 25/28/19 26/29/19 27/30/19 28/31/19
o Cube
v 1.000000 -3.000000 -3.000000
v 1.000000 -3.000000 -1.000000
v -1.000000 -3.000000 -1.000000
v -1.000000 -3.000000 -3.000000
v 1.000000 -1.000000 -3.000000
v 0.999999 -1.000000 -0.999999
v -1.000000 -1.000000 -1.000000
v -1.000000 -1.000000 -3.000000
vn 0.0000 -1.0000 0.0000
vn 0.0000 1.0000 0.0000
vn 1.0000 0.0000 0.0000
vn -0.0000 -0.0000 1.0000
vn -1.0000 -0.0000 -0.0000
vn 0.0000 0.0000 -1.0000
usemtl Material
s off
f 29//20 30//20 31//20 32//20
f 33//21 36//21 35//21 34//21
f 29//22 33//22 34//22 30//22
f 30//23 34//23 35//23 31//23
f 31//24 35//24 36//24 32//24
f 33//25 29//25 32//25 36//25
