<?xml version="1.0" encoding="UTF-8" standalone="no"?>
<svg
   xmlns:dc="http://purl.org/dc/elements/1.1/"
   xmlns:cc="http://creativecommons.org/ns#"
   xmlns:rdf="http://www.w3.org/1999/02/22-rdf-syntax-ns#"
   xmlns:svg="http://www.w3.org/2000/svg"
   xmlns="http://www.w3.org/2000/svg"
   xmlns:sodipodi="http://sodipodi.sourceforge.net/DTD/sodipodi-0.dtd"
   xmlns:inkscape="http://www.inkscape.org/namespaces/inkscape"
   width="300mm"
   height="640mm"
   viewBox="0 0 300 640"
   version="1.1"
   id="svg8"
   inkscape:version="1.0.1 (3bc2e813f5, 2020-09-07)"
   sodipodi:docname="ES_.svg">
  <defs
     id="defs2" />
  <sodipodi:namedview
     id="base"
     pagecolor="#ffffff"
     bordercolor="#666666"
     borderopacity="1.0"
     inkscape:pageopacity="0.0"
     inkscape:pageshadow="2"
     inkscape:zoom="0.24748737"
     inkscape:cx="256.80045"
     inkscape:cy="1316.0495"
     inkscape:document-units="mm"
     inkscape:current-layer="layer3"
     inkscape:document-rotation="0"
     showgrid="false"
     showborder="true"
     inkscape:showpageshadow="false"
     inkscape:window-width="1920"
     inkscape:window-height="1027"
     inkscape:window-x="-8"
     inkscape:window-y="-8"
     inkscape:window-maximized="1" />
  <metadata
     id="metadata5">
    <rdf:RDF>
      <cc:Work
         rdf:about="">
        <dc:format>image/svg+xml</dc:format>
        <dc:type
           rdf:resource="http://purl.org/dc/dcmitype/StillImage" />
        <dc:title />
      </cc:Work>
    </rdf:RDF>
  </metadata>
  <g
     inkscape:label="Capa 1"
     inkscape:groupmode="layer"
     id="layer1">
    <rect
       style="fill:#000080;stroke-width:3.92301;stroke-linejoin:round"
       id="rect833"
       width="301.16083"
       height="638.81641"
       x="-0.74990273"
       y="0.49233198" />
  </g>
  <g
     inkscape:groupmode="layer"
     id="layer2"
     inkscape:label="Capa 2">
    <path
       id="path16"
       style="fill:#fff200;fill-opacity:1;fill-rule:nonzero;stroke:none;stroke-width:0.82795"
       d="m 154.14878,15.901046 4.47928,13.890479 14.56363,-0.06434 -11.82311,8.528785 4.56196,13.86812 -11.78176,-8.63559 -11.73207,8.63559 4.56212,-13.86812 -11.84803,-8.528785 14.56362,0.06434 4.45436,-13.890479" />
    <path
       id="path18"
       style="fill:#fff200;fill-opacity:1;fill-rule:nonzero;stroke:none;stroke-width:0.82795"
       d="m 154.14878,224.78371 4.47928,13.85156 14.56363,-0.0643 -11.82311,8.55436 4.56196,13.8649 -11.78176,-8.61902 -11.73207,8.61902 4.56212,-13.8649 -11.84803,-8.55436 14.56362,0.0643 4.45436,-13.85156" />
    <path
       id="path20"
       style="fill:#fff200;fill-opacity:1;fill-rule:nonzero;stroke:none;stroke-width:0.82795"
       d="m 102.195,29.791525 4.46255,13.883885 14.57199,-0.0483 -11.79833,8.48986 4.55376,13.84818 -11.78997,-8.61564 -11.74043,8.61564 4.55376,-13.84818 -11.79834,-8.48986 14.57199,0.0483 4.41302,-13.883885" />
    <path
       id="path22"
       style="fill:#fff200;fill-opacity:1;fill-rule:nonzero;stroke:none;stroke-width:0.82795"
       d="m 63.9768,68.13213 4.42942,13.88147 14.59692,-0.0965 -11.8646,8.54455 4.55376,13.84576 -11.7155,-8.62899 -11.7652,8.62899 4.57032,-13.84576 -11.8728,-8.54455 14.61333,0.0965 4.45435,-13.88147" />
    <path
       id="path24"
       style="fill:#fff200;fill-opacity:1;fill-rule:nonzero;stroke:none;stroke-width:0.82795"
       d="m 49.86033,120.23839 4.41285,13.85252 14.61333,-0.0643 -11.83147,8.53844 4.51242,13.82597 -11.70713,-8.62883 -11.757,8.62883 4.5951,-13.82597 -11.88101,-8.5386 14.59676,0.0643 4.44615,-13.85236" />
    <path
       id="path26"
       style="fill:#fff200;fill-opacity:1;fill-rule:nonzero;stroke:none;stroke-width:0.82795"
       d="m 63.79472,172.30911 4.47092,13.93921 14.53869,-0.11259 -11.8149,8.53779 4.5869,13.84255 -11.78161,-8.65779 -11.757,8.65779 4.5869,-13.84255 -11.84804,-8.51205 14.56363,0.0804 4.45451,-13.93938" />
    <path
       id="path28"
       style="fill:#fff200;fill-opacity:1;fill-rule:nonzero;stroke:none;stroke-width:0.82795"
       d="m 102.195,210.63395 4.46255,13.89385 14.57199,-0.0804 -11.79833,8.51222 4.55376,13.85911 -11.78997,-8.61001 -11.74043,8.61001 4.55376,-13.85911 -11.79834,-8.51222 14.57199,0.0804 4.41302,-13.89385" />
    <path
       id="path30"
       style="fill:#fff200;fill-opacity:1;fill-rule:nonzero;stroke:none;stroke-width:0.82795"
       d="m 206.17719,29.791525 -4.44615,13.883885 -14.61317,-0.0483 11.85624,8.48986 -4.57032,13.84818 11.7734,-8.61564 11.74043,8.61564 -4.54555,-13.84818 11.8149,-8.48986 -14.53886,0.0483 -4.47092,-13.883885" />
    <path
       id="path32"
       style="fill:#fff200;fill-opacity:1;fill-rule:nonzero;stroke:none;stroke-width:0.82795"
       d="m 244.42016,68.13213 -4.45435,13.88147 -14.5884,-0.0965 11.83967,8.54455 -4.57032,13.84576 11.7734,-8.62899 11.78177,8.62899 -4.5951,-13.84576 11.82311,-8.54455 -14.5802,0.0965 -4.42958,-13.88147" />
    <path
       id="path34"
       style="fill:#fff200;fill-opacity:1;fill-rule:nonzero;stroke:none;stroke-width:0.82795"
       d="m 258.52859,120.23839 -4.44615,13.85252 -14.62169,-0.0643 11.8646,8.5386 -4.57033,13.82598 11.77357,-8.629 11.76504,8.629 -4.55376,-13.82598 11.79833,-8.5386 -14.57199,0.0643 -4.43762,-13.85252" />
    <path
       id="path36"
       style="fill:#fff200;fill-opacity:1;fill-rule:nonzero;stroke:none;stroke-width:0.82795"
       d="m 244.51956,172.30911 -4.39644,13.93921 -14.5884,-0.11259 11.84787,8.53779 -4.57852,13.84255 11.71549,-8.65779 11.80654,8.65779 -4.56196,-13.84255 11.83147,-8.51205 -14.58019,0.0804 -4.49586,-13.93938" />
    <path
       id="path38"
       style="fill:#fff200;fill-opacity:1;fill-rule:nonzero;stroke:none;stroke-width:0.82795"
       d="m 206.17719,210.63395 -4.44615,13.89385 -14.61317,-0.0804 11.85624,8.51222 -4.57032,13.85911 11.7734,-8.61001 11.74043,8.61001 -4.54555,-13.85911 11.8149,-8.51222 -14.53886,0.0804 -4.47092,-13.89385" />
  </g>
  <g
     inkscape:groupmode="layer"
     id="layer3"
     inkscape:label="Capa 3">
    <text
       xml:space="preserve"
       style="font-weight:bold;font-size:342.894px;line-height:200.914px;font-family:Arial;-inkscape-font-specification:'Arial Bold';letter-spacing:0px;word-spacing:0px;fill:#ffffff;stroke:#000000;stroke-width:1.78591px;stroke-linecap:butt;stroke-linejoin:miter;stroke-opacity:1"
       x="32.037106"
       y="591.50861"
       id="text1703"><tspan
         sodipodi:role="line"
         id="tspan1701"
         x="32.037106"
         y="591.50861"
         style="font-size:342.894px;fill:#ffffff;stroke-width:1.78591px">E</tspan></text>
  </g>
</svg>
