<?xml version="1.0" encoding="UTF-8" standalone="no"?>
<svg
   xmlns:dc="http://purl.org/dc/elements/1.1/"
   xmlns:cc="http://creativecommons.org/ns#"
   xmlns:rdf="http://www.w3.org/1999/02/22-rdf-syntax-ns#"
   xmlns:svg="http://www.w3.org/2000/svg"
   xmlns="http://www.w3.org/2000/svg"
   xmlns:sodipodi="http://sodipodi.sourceforge.net/DTD/sodipodi-0.dtd"
   xmlns:inkscape="http://www.inkscape.org/namespaces/inkscape"
   version="1.2"
   width="48.03125"
   height="48.03125"
   id="svg2"
   sodipodi:docname="ES_B1a.svg"
   inkscape:version="1.0.1 (3bc2e813f5, 2020-09-07)">
  <sodipodi:namedview
     pagecolor="#ffffff"
     bordercolor="#666666"
     borderopacity="1"
     objecttolerance="10"
     gridtolerance="10"
     guidetolerance="10"
     inkscape:pageopacity="0"
     inkscape:pageshadow="2"
     inkscape:window-width="1920"
     inkscape:window-height="1027"
     id="namedview906"
     showgrid="false"
     inkscape:zoom="11.313708"
     inkscape:cx="45.894498"
     inkscape:cy="30.500629"
     inkscape:window-x="-8"
     inkscape:window-y="-8"
     inkscape:window-maximized="1"
     inkscape:current-layer="layer4" />
  <metadata
     id="metadata3103">
    <rdf:RDF>
      <cc:Work
         rdf:about="">
        <dc:format>image/svg+xml</dc:format>
        <dc:type
           rdf:resource="http://purl.org/dc/dcmitype/StillImage" />
        <dc:title></dc:title>
      </cc:Work>
    </rdf:RDF>
  </metadata>
  <defs
     id="defs3101" />
  <g
     id="Capa_1">
    <path
       d="m 0.099,3.288 c 0,-1.761 1.427,-3.189 3.188,-3.189 H 44.74 c 1.762,0 3.188,1.428 3.188,3.189 V 44.74 c 0,1.761 -1.426,3.189 -3.188,3.189 H 3.287 C 1.526,47.929 0.099,46.5 0.099,44.74 V 3.288 z"
       id="path3089"
       style="fill:#ffffff" />
    <path
       d="m 0.099,3.288 c 0,-1.761 1.427,-3.189 3.188,-3.189 H 44.74 c 1.762,0 3.188,1.428 3.188,3.189 V 44.74 c 0,1.761 -1.426,3.189 -3.188,3.189 H 3.287 C 1.526,47.929 0.099,46.5 0.099,44.74 V 3.288 z"
       id="path3091"
       style="fill:none;stroke:#1c1d20;stroke-width:0.198;stroke-miterlimit:3.86400008" />
    <path
       d="m 46.748,44.749 c 0,1.114 -0.902,2.017 -2.015,2.017 H 3.294 c -1.113,0 -2.016,-0.902 -2.016,-2.017 V 3.277 c 0,-1.112 0.903,-2.014 2.016,-2.014 h 41.439 c 1.112,0 2.015,0.902 2.015,2.014 v 41.472"
       id="path3093"
       style="fill:#19408b" />
    <path
       style="fill:#ffffff;fill-opacity:1;stroke-width:50;stroke-linecap:round;stroke-linejoin:round"
       d="M 152.20126,30.18867 537.10693,477.98741 105.66038,974.84277 558.49059,977.35849 978.61634,500.62892 559.74844,30.18867 Z"
       id="path875"
       sodipodi:nodetypes="ccccccc" />
  </g>
  <g
     inkscape:groupmode="layer"
     id="layer3"
     inkscape:label="Layer 1" />
  <g
     inkscape:groupmode="layer"
     id="layer4"
     inkscape:label="Layer 2">
    <path
       style="fill:#ffffff;fill-opacity:1;stroke-width:50;stroke-linecap:round;stroke-linejoin:round"
       d="M 152.20126,30.18867 537.10693,477.98741 105.66038,974.84277 558.49059,977.35849 978.61634,500.62892 559.74844,30.18867 Z"
       id="path875-8"
       sodipodi:nodetypes="ccccccc" />
    <path
       style="fill:#ffffff;fill-opacity:1;stroke-width:50;stroke-linecap:round;stroke-linejoin:round"
       d="M 6.1300161,0.42482669 25.026397,22.408852 3.8451582,46.801241 26.076194,46.924747 46.701655,23.520408 26.137952,0.42482669 Z"
       id="path875-6"
       sodipodi:nodetypes="ccccccc" />
  </g>
</svg>
