<?xml version="1.0" encoding="UTF-8" standalone="no"?>
<svg
   xmlns:dc="http://purl.org/dc/elements/1.1/"
   xmlns:cc="http://creativecommons.org/ns#"
   xmlns:rdf="http://www.w3.org/1999/02/22-rdf-syntax-ns#"
   xmlns:svg="http://www.w3.org/2000/svg"
   xmlns="http://www.w3.org/2000/svg"
   xmlns:sodipodi="http://sodipodi.sourceforge.net/DTD/sodipodi-0.dtd"
   xmlns:inkscape="http://www.inkscape.org/namespaces/inkscape"
   version="1.2"
   width="474.43301"
   height="154.78897"
   id="svg2"
   sodipodi:docname="ES_CAT_LOC530.svg"
   inkscape:version="1.0.1 (3bc2e813f5, 2020-09-07)">
  <sodipodi:namedview
     pagecolor="#ffffff"
     bordercolor="#666666"
     borderopacity="1"
     objecttolerance="10"
     gridtolerance="10"
     guidetolerance="10"
     inkscape:pageopacity="0"
     inkscape:pageshadow="2"
     inkscape:window-width="1920"
     inkscape:window-height="1027"
     id="namedview906"
     showgrid="false"
     inkscape:zoom="2.280617"
     inkscape:cx="257.56966"
     inkscape:cy="74.109363"
     inkscape:window-x="-8"
     inkscape:window-y="-8"
     inkscape:window-maximized="1"
     inkscape:current-layer="layer3"
     fit-margin-top="0"
     fit-margin-left="0"
     fit-margin-right="0"
     fit-margin-bottom="0"
     inkscape:document-rotation="0"
     inkscape:showpageshadow="false"
     inkscape:pagecheckerboard="true" />
  <metadata
     id="metadata3197">
    <rdf:RDF>
      <cc:Work
         rdf:about="">
        <dc:format>image/svg+xml</dc:format>
        <dc:type
           rdf:resource="http://purl.org/dc/dcmitype/StillImage" />
        <dc:title></dc:title>
      </cc:Work>
    </rdf:RDF>
  </metadata>
  <defs
     id="defs3195" />
  <g
     inkscape:groupmode="layer"
     id="layer8"
     inkscape:label="Layer 4"
     transform="translate(167.22381,43.18159)">
    <path
       d="m 307.20919,80.06918 c 0,17.41595 4.18988,31.07672 -17.68911,31.09972 l -417.13089,0.43848 c -21.87899,0.023 -40.23278,2.53896 -40.05148,-14.876042 l 1.31544,-126.35391 c 0.18139,-17.422971 16.85704,-13.559018 38.73604,-13.559018 h 395.207 c 21.879,0 39.613,-2.987145 39.613,14.435974 V 80.06918"
       id="path3113"
       style="display:inline;fill:#a1522c;fill-opacity:1;stroke-width:1"
       sodipodi:nodetypes="csssssssc" />
    <path
       d="m 299.08371,82.56043 c -0.0952,18.39575 -14.57852,17.08932 -33.10152,17.08932 H -127.5222 c -18.525,0 -30.8355,4.37487 -30.91113,-14.019975 l -0.43848,-106.639912 c -0.0757,-18.399844 7.56292,-13.544474 26.08788,-13.583497 L 283.5213,-35.47059 c 18.52296,-0.03902 16.09612,14.915246 16.00089,33.315 z"
       id="path3115"
       style="display:inline;fill:#a1522c;fill-opacity:1;stroke:#ffffff;stroke-width:7.0629;stroke-miterlimit:3.864"
       sodipodi:nodetypes="sssssssss" />
  </g>
  <g
     inkscape:groupmode="layer"
     id="layer3"
     inkscape:label="Layer 1"
     style="display:inline">
    <text
       xml:space="preserve"
       style="font-style:normal;font-variant:normal;font-weight:normal;font-stretch:normal;font-size:26.5011px;line-height:15.528px;font-family:Ccrige;-inkscape-font-specification:Ccrige;letter-spacing:0.552106px;word-spacing:0px;fill:#ffffff;stroke:none;stroke-width:1px;stroke-linecap:butt;stroke-linejoin:miter;stroke-opacity:1"
       x="165.89876"
       y="61.705864"
       id="text1502"><tspan
         sodipodi:role="line"
         id="tspan1500"
         x="165.89876"
         y="61.705864"
         style="stroke-width:1px"> </tspan></text>
    <text
       xml:space="preserve"
       style="font-style:normal;font-variant:normal;font-weight:normal;font-stretch:normal;font-size:65.0793px;line-height:38.1328px;font-family:Ccrige;-inkscape-font-specification:Ccrige;letter-spacing:2.6148px;word-spacing:0px;fill:#000000;stroke:#000000;stroke-width:0.999999px;stroke-linecap:butt;stroke-linejoin:miter;stroke-opacity:1"
       x="186.91444"
       y="95.915268"
       id="text1502-7"
       transform="scale(0.99241145,1.0076466)"><tspan
         sodipodi:role="line"
         id="tspan1500-8"
         x="186.91444"
         y="95.915268"
         style="font-size:65.0793px;fill:#ffffff;stroke:none;stroke-width:0.999999px">El Foix</tspan></text>
  </g>
  <g
     inkscape:groupmode="layer"
     id="layer5"
     inkscape:label="Layer 3"
     style="display:inline">
    <text
       xml:space="preserve"
       style="font-size:42.6667px;line-height:25px;font-family:'Andale Mono IPA';-inkscape-font-specification:'Andale Mono IPA';letter-spacing:0px;word-spacing:0px;fill:none;stroke:#000000;stroke-width:1px;stroke-linecap:butt;stroke-linejoin:miter;stroke-opacity:1"
       x="133.73573"
       y="169.69092"
       id="text1522"><tspan
         sodipodi:role="line"
         id="tspan1520"
         x="133.73573"
         y="169.69092" /></text>
  </g>
  <g
     inkscape:groupmode="layer"
     id="layer4"
     inkscape:label="Layer 5">
    <rect
       style="fill:#ffffff;stroke:none;stroke-width:0.999999;stroke-linecap:round;stroke-linejoin:round"
       id="rect1542"
       width="67.328629"
       height="67.328629"
       x="50.523445"
       y="40.876934" />
    <path
       d="m 109.59569,58.464845 c -1.83577,1.29041 -7.81644,5.15449 -10.970971,5.15449 -3.15396,0 -4.6039,-1.01921 -6.43908,-2.30962 -2.08983,-1.47003 -4.45914,-3.13564 -9.04943,-3.13564 -4.58972,0 -6.95902,1.66561 -9.04885,3.13564 -1.83518,1.29041 -3.28513,2.30962 -6.43908,2.30962 -3.15395,0 -4.60389,-1.01921 -6.43907,-2.30962 -2.15317,-1.53948 -2.0186,-1.59125 -3.14896,-3.24101 l -3.58243,2.43041 c 1.6294,1.52515 2.03041,3.48733 4.12102,4.52231 2.09043,1.47003 4.45914,3.13563 9.04944,3.13563 4.58972,0 6.95902,-1.6656 9.04885,-3.13563 1.83518,-1.29042 3.28513,-2.30963 6.43908,-2.30963 3.15453,0 4.60389,1.01921 6.43966,2.30963 2.08982,1.47003 4.45913,3.13563 9.04885,3.13563 4.590301,0 12.333251,-5.56413 14.423671,-7.03416 -0.0569,0.18558 -0.49378,-0.43173 -3.4527,-2.65805 z"
       id="path887"
       sodipodi:nodetypes="cscscsccccscscscc"
       style="stroke-width:1.33333" />
    <path
       d="m 109.28595,69.731345 c -1.83577,1.29041 -7.81644,5.1545 -10.970981,5.1545 -3.15395,0 -4.60389,-1.01921 -6.43907,-2.30963 -2.08983,-1.47003 -4.45914,-3.13563 -9.04943,-3.13563 -4.58972,0 -6.95902,1.6656 -9.04886,3.13563 -1.83518,1.29042 -3.28512,2.30963 -6.43907,2.30963 -3.15395,0 -4.60389,-1.01921 -6.43907,-2.30963 -2.15318,-1.53947 -2.01861,-1.59124 -3.14897,-3.241 l -3.58243,2.43041 c 1.6294,1.52514 2.03042,3.48733 4.12103,4.5223 2.09042,1.47004 4.45914,3.13564 9.04944,3.13564 4.58972,0 6.95902,-1.6656 9.04885,-3.13564 1.83518,-1.29041 3.28512,-2.30962 6.43908,-2.30962 3.15453,0 4.60389,1.01921 6.43966,2.30962 2.08982,1.47004 4.45913,3.13564 9.04884,3.13564 4.590311,0 12.333261,-5.56413 14.423681,-7.03416 -0.0569,0.18557 -0.49378,-0.43174 -3.4527,-2.65806 z"
       id="path887-1"
       sodipodi:nodetypes="cscscsccccscscscc"
       style="stroke-width:1.33333" />
    <path
       d="m 108.65375,82.269855 c -1.83577,1.29041 -7.81643,5.1545 -10.970971,5.1545 -3.15396,0 -4.6039,-1.01922 -6.43907,-2.30963 -2.08983,-1.47003 -4.45914,-3.13564 -9.04944,-3.13564 -4.58972,0 -6.95902,1.66561 -9.04885,3.13564 -1.83518,1.29041 -3.28512,2.30963 -6.43907,2.30963 -3.15395,0 -4.60389,-1.01922 -6.43907,-2.30963 -2.15318,-1.53948 -2.01861,-1.59125 -3.14897,-3.241 l -3.58243,2.43041 c 1.6294,1.52514 2.03042,3.48732 4.12103,4.5223 2.09042,1.47004 4.45913,3.13564 9.04944,3.13564 4.58971,0 6.95901,-1.6656 9.04885,-3.13564 1.83517,-1.29041 3.28512,-2.30962 6.43907,-2.30962 3.15454,0 4.60389,1.01921 6.43966,2.30962 2.08983,1.47004 4.45913,3.13564 9.04885,3.13564 4.590301,0 12.333251,-5.56413 14.423681,-7.03416 -0.0569,0.18557 -0.49379,-0.43174 -3.45271,-2.65806 z"
       id="path887-3"
       sodipodi:nodetypes="cscscsccccscscscc"
       style="stroke-width:1.33333" />
  </g>
</svg>
