<?xml version="1.0" encoding="UTF-8" standalone="no"?>
<svg
   xmlns:dc="http://purl.org/dc/elements/1.1/"
   xmlns:cc="http://creativecommons.org/ns#"
   xmlns:rdf="http://www.w3.org/1999/02/22-rdf-syntax-ns#"
   xmlns:svg="http://www.w3.org/2000/svg"
   xmlns="http://www.w3.org/2000/svg"
   xmlns:sodipodi="http://sodipodi.sourceforge.net/DTD/sodipodi-0.dtd"
   xmlns:inkscape="http://www.inkscape.org/namespaces/inkscape"
   version="1.2"
   width="290.75006"
   height="166.08519"
   id="svg2"
   sodipodi:docname="ES_CAT_OR44c.svg"
   inkscape:version="1.0.1 (3bc2e813f5, 2020-09-07)">
  <sodipodi:namedview
     pagecolor="#ffffff"
     bordercolor="#666666"
     borderopacity="1"
     objecttolerance="10"
     gridtolerance="10"
     guidetolerance="10"
     inkscape:pageopacity="0"
     inkscape:pageshadow="2"
     inkscape:window-width="1920"
     inkscape:window-height="1027"
     id="namedview6659"
     showgrid="false"
     inkscape:zoom="2"
     inkscape:cx="190.52305"
     inkscape:cy="-24.824659"
     inkscape:window-x="-8"
     inkscape:window-y="-8"
     inkscape:window-maximized="1"
     inkscape:current-layer="layer11"
     fit-margin-top="0"
     fit-margin-left="0"
     fit-margin-right="0"
     fit-margin-bottom="0"
     inkscape:document-rotation="0"
     inkscape:showpageshadow="false"
     inkscape:pagecheckerboard="true" />
  <metadata
     id="metadata4010">
    <rdf:RDF>
      <cc:Work
         rdf:about="">
        <dc:format>image/svg+xml</dc:format>
        <dc:type
           rdf:resource="http://purl.org/dc/dcmitype/StillImage" />
        <dc:title></dc:title>
      </cc:Work>
    </rdf:RDF>
  </metadata>
  <defs
     id="defs4008" />
  <g
     inkscape:groupmode="layer"
     id="layer11"
     inkscape:label="Layer 1"
     style="display:inline"
     transform="translate(-3.6451487,-11.319951)">
    <path
       d="m 294.28649,164.25296 c 0.34023,3.78664 -0.062,7.63133 -2.00947,10.56364 -0.32361,0.201 -0.33662,0.51165 -1.994,1.10397 l -3.76478,1.34548 c 6.75792,0.22776 -107.41668,-0.12768 -194.107333,0.0615 -21.662089,0.0473 -43.199414,-0.13864 -59.929292,0.0398 -4.918851,0.0525 -9.30894,0.0456 -13.375464,0.008 -2.857475,-0.0261 -5.713385,0.0277 -7.797074,-0.33358 -7.1943343,-1.24731 -6.8135271,-5.45662 -6.8294367,-8.88412 L 3.95942,56.08345 C 3.8769781,38.322495 0.30006,40.567368 19.51187,40.567368 h 259.41995 c 10.13712,0 13.30972,-0.514541 14.43956,1.430214 1.01172,1.741448 0.87916,5.355066 0.91195,13.745841 0.14946,38.241617 -0.15031,38.316319 -0.0413,76.575477 0.0539,18.9121 0.007,-19.37763 -0.0157,-0.56247 -0.0113,9.43886 0.32673,23.01339 0.0602,32.49653 z"
       id="path3217"
       style="fill:#ffffff;fill-opacity:1;stroke-width:0.999997"
       sodipodi:nodetypes="ccscsssssssssssscc" />
    <path
       d="m 289.76093,164.09696 c 0,10.76106 1.16348,8.93465 -9.59873,8.89385 L 16.67497,171.99195 C 5.91277,171.95115 8.49073,172.4475 8.49073,161.6855 V 55.935851 c 0,-10.764824 -0.45905,-8.93697 10.30314,-8.895729 l 260.66203,0.998862 c 10.76221,0.04124 10.30503,0.955173 10.30503,11.720937 z"
       id="path3243"
       style="fill:none;stroke:#000000;stroke-width:4;stroke-miterlimit:3.864;stroke-opacity:1"
       sodipodi:nodetypes="sssssssss" />
    <path
       d="m 149.61669,141.87337 -0.1784,9.20626 12.58036,-2.58202 -15.89901,15.30017 -15.29688,-15.89189 12.47649,3.0573 0.0496,-15.45945 6.13907,0.11644"
       id="polyline3245"
       style="fill:#000000;fill-opacity:1;stroke-width:0.999997"
       sodipodi:nodetypes="cccccccc" />
    <text
       xml:space="preserve"
       style="font-size:38.6689px;line-height:22.6576px;font-family:'Andale Mono IPA';-inkscape-font-specification:'Andale Mono IPA';letter-spacing:0px;word-spacing:0px;fill:#ffffff;fill-opacity:1;stroke:none;stroke-width:0.999997px;stroke-linecap:butt;stroke-linejoin:miter;stroke-opacity:1"
       x="307.61365"
       y="178.6953"
       id="text4113"
       transform="scale(1.067666,0.9366225)"><tspan
         sodipodi:role="line"
         id="tspan4111"
         x="307.61365"
         y="178.6953"
         style="font-style:normal;font-variant:normal;font-weight:normal;font-stretch:normal;font-size:38.6689px;font-family:'Highway Gothic Wide';-inkscape-font-specification:'Highway Gothic Wide';fill:#ffffff;fill-opacity:1;stroke:none;stroke-width:0.999997px" /></text>
    <text
       xml:space="preserve"
       style="font-size:30.6003px;line-height:17.9298px;font-family:Haettenschweiler;-inkscape-font-specification:Haettenschweiler;letter-spacing:0px;word-spacing:0px;fill:none;stroke:#000000;stroke-width:0.999997px;stroke-linecap:butt;stroke-linejoin:miter;stroke-opacity:1"
       x="26.838673"
       y="88.298416"
       id="text5780"
       transform="scale(1.0059643,0.99407107)"><tspan
         sodipodi:role="line"
         id="tspan5778"
         x="26.838673"
         y="88.298416"
         style="font-style:normal;font-variant:normal;font-weight:normal;font-stretch:normal;font-family:TrafficTypeW01-SpainD;-inkscape-font-specification:TrafficTypeW01-SpainD;fill:#000000;fill-opacity:1;stroke:none;stroke-width:0.999997px">DESTINACIONS</tspan></text>
    <rect
       style="display:inline;fill:#ff2121;fill-opacity:1;stroke:#ffffff;stroke-width:1.99999;stroke-linecap:round;stroke-linejoin:round;stroke-miterlimit:2.613;stroke-dasharray:none;stroke-opacity:1"
       id="rect5280"
       width="72.300583"
       height="28.312031"
       x="121.50461"
       y="12.319946" />
    <text
       xml:space="preserve"
       style="font-size:28.1783px;line-height:16.5108px;font-family:'Highway Gothic Wide';-inkscape-font-specification:'Highway Gothic Wide';letter-spacing:0px;word-spacing:0px;display:inline;fill:none;stroke:#000000;stroke-width:0.999997px;stroke-linecap:butt;stroke-linejoin:miter;stroke-opacity:1"
       x="127.9025"
       y="35.440151"
       id="text5284"
       transform="scale(0.99551619,1.004504)"><tspan
         sodipodi:role="line"
         id="tspan5282"
         x="127.9025"
         y="35.440151"
         style="font-style:normal;font-variant:normal;font-weight:normal;font-stretch:normal;font-family:TrafficTypeW01-SpainD;-inkscape-font-specification:TrafficTypeW01-SpainD;fill:#ffffff;fill-opacity:1;stroke:none;stroke-width:0.999997px">C-15</tspan></text>
  </g>
</svg>
