<?xml version="1.0" encoding="UTF-8" standalone="no"?>
<svg
   xmlns:dc="http://purl.org/dc/elements/1.1/"
   xmlns:cc="http://creativecommons.org/ns#"
   xmlns:rdf="http://www.w3.org/1999/02/22-rdf-syntax-ns#"
   xmlns:svg="http://www.w3.org/2000/svg"
   xmlns="http://www.w3.org/2000/svg"
   xmlns:sodipodi="http://sodipodi.sourceforge.net/DTD/sodipodi-0.dtd"
   xmlns:inkscape="http://www.inkscape.org/namespaces/inkscape"
   version="1.2"
   width="294.24561"
   height="184.08519"
   id="svg2"
   sodipodi:docname="ES_CAT_OR43c.svg"
   inkscape:version="1.0.1 (3bc2e813f5, 2020-09-07)">
  <sodipodi:namedview
     pagecolor="#ffffff"
     bordercolor="#666666"
     borderopacity="1"
     objecttolerance="10"
     gridtolerance="10"
     guidetolerance="10"
     inkscape:pageopacity="0"
     inkscape:pageshadow="2"
     inkscape:window-width="1920"
     inkscape:window-height="1027"
     id="namedview6659"
     showgrid="false"
     inkscape:zoom="1"
     inkscape:cx="280.79218"
     inkscape:cy="-174.85409"
     inkscape:window-x="-8"
     inkscape:window-y="-8"
     inkscape:window-maximized="1"
     inkscape:current-layer="layer11"
     fit-margin-top="0"
     fit-margin-left="0"
     fit-margin-right="0"
     fit-margin-bottom="0"
     inkscape:document-rotation="0"
     inkscape:showpageshadow="false"
     inkscape:pagecheckerboard="true" />
  <metadata
     id="metadata4010">
    <rdf:RDF>
      <cc:Work
         rdf:about="">
        <dc:format>image/svg+xml</dc:format>
        <dc:type
           rdf:resource="http://purl.org/dc/dcmitype/StillImage" />
        <dc:title></dc:title>
      </cc:Work>
    </rdf:RDF>
  </metadata>
  <defs
     id="defs4008" />
  <g
     inkscape:groupmode="layer"
     id="layer11"
     inkscape:label="Layer 1"
     style="display:inline"
     transform="translate(-3.649623,3.1800487)">
    <path
       d="m 297.78649,167.75296 c 0.34023,3.78664 -0.062,7.63133 -2.00947,10.56364 -0.32361,0.201 -0.33662,0.51165 -1.994,1.10397 l -3.76478,1.34548 c 6.75792,0.22776 -110.91668,-0.12768 -197.607333,0.0615 -21.662089,0.0473 -43.199414,-0.13864 -59.929292,0.0398 -4.918851,0.0525 -9.30894,0.0456 -13.375464,0.008 -2.857475,-0.0261 -5.713385,0.0277 -7.797074,-0.33358 -7.1943343,-1.24731 -6.8155146,-5.45662 -6.8294367,-8.88412 L 3.95942,43.58345 C 3.8872772,25.822451 0.30006,28.067368 19.51187,28.067368 h 262.91995 c 10.13712,0 13.30972,-0.514541 14.43956,1.430214 1.01172,1.741448 0.87916,5.355066 0.91195,13.745841 0.14946,38.241615 -0.15031,50.816319 -0.0413,89.075477 0.0539,18.9121 0.007,-19.37763 -0.0157,-0.56247 -0.0113,9.43886 0.32673,26.51339 0.0602,35.99653 z"
       id="path3217"
       style="fill:#000080;stroke-width:0.999997"
       sodipodi:nodetypes="ccscsssssssssssscc" />
    <path
       d="m 289.76093,164.09696 c 0,10.76106 1.16348,8.93465 -9.59873,8.89385 L 16.67497,171.99195 C 5.91277,171.95115 8.49073,172.4475 8.49073,161.6855 V 43.435851 c 0,-10.764824 -0.45905,-8.93697 10.30314,-8.895729 l 260.66203,0.998862 c 10.76221,0.04124 10.30503,0.955173 10.30503,11.720937 z"
       id="path3243"
       style="fill:none;stroke:#ffffff;stroke-width:4;stroke-miterlimit:3.864"
       sodipodi:nodetypes="sssssssss" />
    <path
       d="m 159.87074,112.04376 -0.32921,16.98831 23.21453,-4.7646 -29.33843,28.23341 -28.22733,-29.32531 23.02286,5.64163 0.0915,-28.52733 11.32841,0.21488"
       id="polyline3245"
       style="fill:#ffffff;stroke-width:0.999998"
       sodipodi:nodetypes="cccccccc" />
    <text
       xml:space="preserve"
       style="font-size:38.6689px;line-height:22.6576px;font-family:'Andale Mono IPA';-inkscape-font-specification:'Andale Mono IPA';letter-spacing:0px;word-spacing:0px;fill:#ffffff;fill-opacity:1;stroke:none;stroke-width:0.999997px;stroke-linecap:butt;stroke-linejoin:miter;stroke-opacity:1"
       x="307.61365"
       y="178.6953"
       id="text4113"
       transform="scale(1.067666,0.9366225)"><tspan
         sodipodi:role="line"
         id="tspan4111"
         x="307.61365"
         y="178.6953"
         style="font-style:normal;font-variant:normal;font-weight:normal;font-stretch:normal;font-size:38.6689px;font-family:'Highway Gothic Wide';-inkscape-font-specification:'Highway Gothic Wide';fill:#ffffff;fill-opacity:1;stroke:none;stroke-width:0.999997px" /></text>
    <text
       xml:space="preserve"
       style="font-size:39.8218px;line-height:23.333px;font-family:Haettenschweiler;-inkscape-font-specification:Haettenschweiler;letter-spacing:0px;word-spacing:0px;fill:none;stroke:#000000;stroke-width:0.999998px;stroke-linecap:butt;stroke-linejoin:miter;stroke-opacity:1"
       x="42.498398"
       y="85.68969"
       id="text5780"
       transform="scale(1.0010324,0.99896865)"><tspan
         sodipodi:role="line"
         id="tspan5778"
         x="42.498398"
         y="85.68969"
         style="font-style:normal;font-variant:normal;font-weight:normal;font-stretch:normal;font-family:'Highway Gothic Wide';-inkscape-font-specification:'Highway Gothic Wide';fill:#ffffff;stroke:none;stroke-width:0.999998px">Destinacions</tspan></text>
    <rect
       style="display:inline;fill:#000080;stroke:#ffffff;stroke-width:1.99999;stroke-linecap:round;stroke-linejoin:round;stroke-miterlimit:2.613;stroke-dasharray:none;stroke-opacity:1"
       id="rect5280"
       width="72.300583"
       height="28.312031"
       x="121.50461"
       y="-2.1800537" />
    <text
       xml:space="preserve"
       style="font-size:28.1783px;line-height:16.5108px;font-family:'Highway Gothic Wide';-inkscape-font-specification:'Highway Gothic Wide';letter-spacing:0px;word-spacing:0px;display:inline;fill:none;stroke:#000000;stroke-width:0.999997px;stroke-linecap:butt;stroke-linejoin:miter;stroke-opacity:1"
       x="127.9025"
       y="21.005167"
       id="text5284"
       transform="scale(0.99551619,1.004504)"><tspan
         sodipodi:role="line"
         id="tspan5282"
         x="127.9025"
         y="21.005167"
         style="font-style:normal;font-variant:normal;font-weight:normal;font-stretch:normal;font-family:'Highway Gothic Wide';-inkscape-font-specification:'Highway Gothic Wide';fill:#ffffff;fill-opacity:1;stroke:none;stroke-width:0.999997px">C-32</tspan></text>
  </g>
</svg>
