<?xml version="1.0" encoding="UTF-8" standalone="no"?>
<svg
   xmlns:dc="http://purl.org/dc/elements/1.1/"
   xmlns:cc="http://creativecommons.org/ns#"
   xmlns:rdf="http://www.w3.org/1999/02/22-rdf-syntax-ns#"
   xmlns:svg="http://www.w3.org/2000/svg"
   xmlns="http://www.w3.org/2000/svg"
   xmlns:sodipodi="http://sodipodi.sourceforge.net/DTD/sodipodi-0.dtd"
   xmlns:inkscape="http://www.inkscape.org/namespaces/inkscape"
   version="1.2"
   width="465.25"
   height="225.71875"
   id="svg2"
   sodipodi:docname="ES_CAT_OR21.svg"
   inkscape:version="1.0.1 (3bc2e813f5, 2020-09-07)">
  <sodipodi:namedview
     pagecolor="#ffffff"
     bordercolor="#666666"
     borderopacity="1"
     objecttolerance="10"
     gridtolerance="10"
     guidetolerance="10"
     inkscape:pageopacity="0"
     inkscape:pageshadow="2"
     inkscape:window-width="1920"
     inkscape:window-height="1027"
     id="namedview4065"
     showgrid="true"
     inkscape:zoom="2.3256314"
     inkscape:cx="235.27059"
     inkscape:cy="112.85937"
     inkscape:window-x="-8"
     inkscape:window-y="-8"
     inkscape:window-maximized="1"
     inkscape:current-layer="g3222">
    <inkscape:grid
       type="xygrid"
       id="grid4685" />
  </sodipodi:namedview>
  <metadata
     id="metadata3181">
    <rdf:RDF>
      <cc:Work
         rdf:about="">
        <dc:format>image/svg+xml</dc:format>
        <dc:type
           rdf:resource="http://purl.org/dc/dcmitype/StillImage" />
        <dc:title></dc:title>
      </cc:Work>
    </rdf:RDF>
  </metadata>
  <defs
     id="defs3179" />
  <g
     id="g3222">
    <path
       d="m 0.11625,199.807 c 0,14.121 -2.523695,25.793 11.595305,25.793 h 420.859145 8.16983 5.15989 4.60859 c 14.11999,0 14.08682,2.51738 14.18025,-11.60331 L 465.97923,19.039148 C 466.07267,4.917457 467.63895,0.129 453.51895,0.129 H 17.731426 C 3.6124256,0.129 1.5158622,-0.2423156 1.4062223,13.879259 L 0,195"
       id="path3105"
       style="fill:#19408b;fill-rule:evenodd"
       sodipodi:nodetypes="cscccssssssc" />
    <path
       d="M 10.419771,51.707 V 25.919 c 0,-9.824 -3.3777505,-18.052 6.44725,-18.052 H 449.64903 c 9.945,0 7.73222,-2.0917782 7.73222,7.732222 V 63.31675 c 0,9.825 3.50375,6.44025 -6.44225,6.44025 H 15.147058 c -9.8240005,0 -4.727287,-8.225 -4.727287,-18.05 H 5.2677713 10.419771 m -5.1519997,0 c 0,12.648 -2.7707138,23.212 9.8792867,23.212 H 450.939 c 12.649,0 11.59825,1.04575 11.59825,-11.60225 V 15.599222 C 462.53725,2.9472218 462.29803,2.705 449.64903,2.705 H 16.867021 C 4.2170205,2.705 5.2677713,13.267 5.2677713,25.919 Z"
       id="path3111"
       style="fill:#ffffff;fill-rule:evenodd"
       sodipodi:nodetypes="cssssssscccsssssssss" />
    <path
       d="m 22.453956,59.445 h 16.945 l 1.597,-41.263 h -4.913 l -13.629,41.263"
       id="polyline3121"
       style="fill:#ffffff;fill-rule:evenodd" />
    <path
       d="m 45.172956,59.445 h 16.817 l -6.135,-19.401 12.4,-14.002 4.055,9.824 V 18.182 h -17.685 l 9.952,4.052 -12.038,7.493 -3.684,-11.545 h -4.912 l 1.23,41.263"
       id="polyline3123"
       style="fill:#ffffff;fill-rule:evenodd" />
    <path
       d="M 7.85425,210 V 94.688185 c 0,-9.824 -1.7847874,-9.455185 8.157213,-9.455185 H 448.35906 c 9.945,0 9.02219,-3.37975 9.02219,6.44525 v 117.15856 c 0,9.824 2.64377,9.02719 -7.30223,9.02719 H 15 C 5.058,217.863 7.85425,219.824 7.85425,210 h -5.162 5.162 m -5.162,0 c 0,12.654 -0.7671854,11.69458 11.877759,11.73203 L 450.07902,223.022 c 12.64894,0.0375 12.45823,-1.53119 12.45823,-14.18519 V 91.67825 c 0,-12.652 -1.52919,-11.60425 -14.17819,-11.60425 H 16.011463 C 3.3664626,80.074 2.69225,82.036185 2.69225,94.688185 Z"
       id="path3125"
       style="fill:#ffffff;fill-rule:evenodd"
       sodipodi:nodetypes="cssssssccccsssssssss" />
    <path
       d="m 432.124,126.682 -7.612,37.95 -9.699,-14.613 -23.826,26.768 -9.088,-9.085 26.894,-23.831 -14.738,-9.574 38.069,-7.615"
       id="polyline3127"
       style="fill:#ffffff;fill-rule:evenodd"
       transform="translate(-0.46875,-0.25)" />
    <path
       d="m 88.942858,49.354 c 0.04,-0.493 0.081,-0.928 0.124,-1.309 0.037,-0.38 0.088,-0.74 0.135,-1.08 0.055,-0.339 0.126,-0.662 0.217,-0.971 0.093,-0.308 0.202,-0.635 0.328,-0.984 0.432,-1.275 1.044,-2.44 1.846,-3.499 0.8,-1.057 1.757,-1.946 2.868,-2.664 0.388,-0.288 0.823,-0.544 1.309,-0.771 0.48,-0.226 0.979,-0.451 1.493,-0.677 l 0.799,-0.37 0.741,-0.216 0.71,-0.278 c 0.594002,-0.267 1.058002,-0.569 1.388002,-0.909 0.327,-0.338 0.49,-0.693 0.49,-1.062 0,-0.616 -0.374,-1.119 -1.123,-1.51 -0.750002,-0.391 -1.723002,-0.585 -2.911002,-0.585 -0.534,0 -1.028,0.036 -1.48,0.108 -0.451,0.073 -0.896,0.19 -1.325,0.354 -0.431,0.165 -0.864,0.38 -1.296,0.647 -0.43,0.267 -0.902,0.596 -1.416,0.986 l -2.896,-3.02 c 0.35,-0.248 0.658,-0.467 0.924,-0.662 0.267,-0.196 0.514,-0.366 0.739,-0.51 0.225,-0.142 0.443,-0.271 0.648,-0.384 0.204,-0.113 0.419,-0.221 0.647,-0.323 1.642,-0.882 3.5,-1.325 5.575,-1.325 1.315,0 2.522,0.175 3.622002,0.523 1.098,0.35 1.994,0.852 2.696,1.509 0.534,0.515 0.943,1.1 1.232,1.757 0.287,0.659 0.43,1.429 0.43,2.311 0,1.521 -0.478,2.815 -1.431,3.883 -0.957,1.069 -2.44,1.941 -4.456002,2.619 -0.574,0.226 -1.058,0.421 -1.445,0.586 -0.393,0.163 -0.728,0.322 -1.004,0.477 -0.274,0.154 -0.534,0.324 -0.771,0.508 -0.235,0.186 -0.487,0.412 -0.753,0.678 -0.33,0.33 -0.605,0.647 -0.834,0.956 -0.226,0.307 -0.45,0.667 -0.676,1.079 h 11.584002 v 4.128 z"
       id="path3173"
       style="fill:#ffffff" />
    <path
       d="m 129.68486,43.407 c 0,0.945 -0.194,1.803 -0.585,2.572 -0.39,0.77 -0.939,1.432 -1.646,1.987 -0.71,0.554 -1.563,0.986 -2.56,1.293 -0.997,0.308 -2.101,0.463 -3.311,0.463 -1.293,0 -2.519,-0.201 -3.669,-0.6 -1.149,-0.401 -2.056,-0.951 -2.711,-1.649 -0.72,-0.718 -1.273,-1.649 -1.664,-2.789 -0.39,-1.141 -0.586,-2.388 -0.586,-3.744 0,-2.075 0.479,-4.016 1.433,-5.823 0.955,-1.809 2.287,-3.317 3.993,-4.53 2.176,-1.5 4.691,-2.249 7.545,-2.249 h 0.556 v 4.128 h -0.492 c -3.882,0 -6.634,1.716 -8.257,5.146 0.657,-0.186 1.31,-0.328 1.957,-0.433 0.645,-0.101 1.277,-0.152 1.896,-0.152 0.942,0 1.882,0.113 2.818,0.338 0.935,0.226 1.701,0.504 2.294,0.831 0.925,0.537 1.654,1.264 2.189,2.188 0.536,0.928 0.8,1.935 0.8,3.023 z m -4.067,-0.061 c 0,-0.657 -0.328,-1.187 -0.985,-1.587 -0.656,-0.4 -1.603,-0.601 -2.833,-0.601 -0.598,0 -1.156,0.037 -1.681,0.108 -0.523,0.071 -0.929,0.18 -1.214,0.323 -0.477,0.185 -0.834,0.432 -1.08,0.741 -0.247,0.307 -0.371,0.646 -0.371,1.017 0,0.698 0.392,1.248 1.171,1.646 0.782,0.402 1.809,0.602 3.082,0.602 1.211,0 2.166,-0.2 2.868,-0.602 0.695,-0.4 1.043,-0.95 1.043,-1.647 z"
       id="path3175"
       style="fill:#ffffff" />
    <text
       xml:space="preserve"
       style="font-size:42.6667px;line-height:25px;font-family:Haettenschweiler;-inkscape-font-specification:Haettenschweiler;letter-spacing:0px;word-spacing:0px;fill:none;stroke:#000000;stroke-width:1px;stroke-linecap:butt;stroke-linejoin:miter;stroke-opacity:1"
       x="328.51291"
       y="52.458874"
       id="text4675"><tspan
         sodipodi:role="line"
         id="tspan4673"
         x="328.51291"
         y="52.458874"
         style="font-style:normal;font-variant:normal;font-weight:normal;font-stretch:normal;font-family:'Caracteres L4';-inkscape-font-specification:'Caracteres L4';fill:#ffffff;stroke:none">500 m</tspan></text>
    <text
       xml:space="preserve"
       style="font-size:42.6667px;line-height:25px;font-family:Haettenschweiler;-inkscape-font-specification:Haettenschweiler;letter-spacing:0px;word-spacing:0px;fill:none;stroke:#000000;stroke-width:1px;stroke-linecap:butt;stroke-linejoin:miter;stroke-opacity:1"
       x="55.038815"
       y="139.74699"
       id="text4679"><tspan
         sodipodi:role="line"
         id="tspan4677"
         x="55.038815"
         y="139.74699"
         style="font-style:normal;font-variant:normal;font-weight:normal;font-stretch:normal;font-family:'Highway Gothic Wide';-inkscape-font-specification:'Highway Gothic Wide';fill:#ffffff;stroke:none">Destinació 1</tspan><tspan
         sodipodi:role="line"
         x="55.038815"
         y="167.20824"
         style="font-style:normal;font-variant:normal;font-weight:normal;font-stretch:normal;font-family:'Highway Gothic Wide';-inkscape-font-specification:'Highway Gothic Wide';fill:#ffffff;stroke:none"
         id="tspan4683" /><tspan
         sodipodi:role="line"
         x="55.038815"
         y="194.66948"
         id="tspan4681"
         style="font-style:normal;font-variant:normal;font-weight:normal;font-stretch:normal;font-family:'Highway Gothic Wide';-inkscape-font-specification:'Highway Gothic Wide';fill:#ffffff;stroke:none">Destinació 2</tspan></text>
  </g>
</svg>
