<?xml version="1.0" encoding="UTF-8" standalone="no"?>
<svg
   xmlns:dc="http://purl.org/dc/elements/1.1/"
   xmlns:cc="http://creativecommons.org/ns#"
   xmlns:rdf="http://www.w3.org/1999/02/22-rdf-syntax-ns#"
   xmlns:svg="http://www.w3.org/2000/svg"
   xmlns="http://www.w3.org/2000/svg"
   xmlns:sodipodi="http://sodipodi.sourceforge.net/DTD/sodipodi-0.dtd"
   xmlns:inkscape="http://www.inkscape.org/namespaces/inkscape"
   version="1.2"
   width="280.18329"
   height="225.42574"
   id="svg2"
   sodipodi:docname="ES_CAT_OR25b.svg"
   inkscape:version="1.0.1 (3bc2e813f5, 2020-09-07)">
  <sodipodi:namedview
     pagecolor="#ffffff"
     bordercolor="#666666"
     borderopacity="1"
     objecttolerance="10"
     gridtolerance="10"
     guidetolerance="10"
     inkscape:pageopacity="0"
     inkscape:pageshadow="2"
     inkscape:window-width="1920"
     inkscape:window-height="1027"
     id="namedview6959"
     showgrid="false"
     inkscape:showpageshadow="false"
     inkscape:pagecheckerboard="true"
     fit-margin-top="0"
     fit-margin-left="0"
     fit-margin-right="0"
     fit-margin-bottom="0"
     inkscape:zoom="1.4142136"
     inkscape:cx="247.35548"
     inkscape:cy="177.62853"
     inkscape:window-x="-8"
     inkscape:window-y="-8"
     inkscape:window-maximized="1"
     inkscape:current-layer="layer11" />
  <metadata
     id="metadata4176">
    <rdf:RDF>
      <cc:Work
         rdf:about="">
        <dc:format>image/svg+xml</dc:format>
        <dc:type
           rdf:resource="http://purl.org/dc/dcmitype/StillImage" />
        <dc:title></dc:title>
      </cc:Work>
    </rdf:RDF>
  </metadata>
  <defs
     id="defs4174" />
  <g
     inkscape:groupmode="layer"
     id="layer11"
     inkscape:label="Layer 2"
     style="display:inline"
     transform="translate(-0.34581736,-0.58423565)">
    <g
       id="g4288"
       transform="translate(0.34581736,0.81577574)">
      <path
         d="m 280.61654,206.39556 c -0.32105,11.33972 -0.12913,18.55519 -13.53841,18.54044 L 8.528642,224.65162 C -0.1906312,224.64203 0.099,222.67799 0.099,204.12055 V 29.791 C 0.099,13.391 -1.6190762,0.1 14.784924,0.1 H 261.10522 c 21.43268,0 19.33839,13.047897 19.3397,15.130926 L 280.55866,195.248 Z"
         id="path4058"
         style="fill:#ffffff"
         sodipodi:nodetypes="cssssssscc" />
      <path
         d="m 279.85255,195.248 c 0,12.03902 1.66756,22.4089 -3.94604,27.06682 -2.02925,1.6838 -0.0602,2.62118 -4.41513,2.62118 H 19.789949 C 3.3859491,224.936 0.099,227.56408 0.099,211.17308 V 13.410917 C 0.099,-2.9890832 13.396,0.1 29.8,0.1 h 225.3103 c 16.402,0 24.74125,-0.81407161 24.74125,15.585928 V 195.248 Z"
         id="path4060"
         style="fill:none;stroke:#1c1d20;stroke-width:0.198;stroke-miterlimit:3.864"
         sodipodi:nodetypes="csssssssscc" />
      <path
         d="m 196.17591,97.069017 -7.98894,15.975383 5.32595,-1.0647 v 13.31555 h 5.32282 V 111.9797 l 5.32597,1.0647 -7.9858,-15.975383"
         id="polyline4064"
         style="fill:#1c1d20;stroke-width:1" />
      <path
         d="m 145.51095,147.73461 15.97222,7.98453 -1.06406,-5.32218 h 13.31239 v -5.32722 h -13.31239 l 1.06406,-5.32471 -15.97222,7.98958"
         id="polyline4066"
         style="fill:#1c1d20;stroke-width:1" />
      <path
         d="m 198.83574,187.7508 h -5.32343 v -62.45555 h 5.32343 z"
         id="path4068"
         style="fill:#1c1d20;stroke-width:1"
         sodipodi:nodetypes="ccccc" />
      <path
         d="m 183.418,169.9097 c 3.74538,2.19071 8.10401,3.45013 12.75855,3.45013 13.96739,0 25.29328,-11.32337 25.29328,-25.29456 0,-13.96739 -11.32589,-25.28948 -25.29328,-25.28948 -13.96992,0 -25.29202,11.32209 -25.29202,25.28948 0,4.58626 1.21642,8.88863 3.34768,12.59291 l 8.78559,-5.01871 c -1.28409,-2.2299 -2.01747,-4.81575 -2.01747,-7.5742 0,-8.37968 6.79274,-15.17369 15.17622,-15.17369 8.38094,0 15.17369,6.79401 15.17369,15.17369 0,8.38473 -6.79275,15.17875 -15.17369,15.17875 -2.8046,0 -5.42966,-0.76058 -7.68295,-2.08701 l -5.0756,8.75269"
         id="path4070"
         style="fill:#1c1d20;stroke-width:1" />
      <path
         d="m 272.32356,193.593 c 0,13.766 1.01306,24.937 -12.89694,24.937 H 31.864 c -13.91,0 -25.185,2.93407 -25.185,-10.83193 V 19.159937 C 6.679,5.3809376 17.954,6.51 31.864,6.51 h 215.27756 c 13.909,0 25.182,-2.9500716 25.182,10.829928 z"
         id="path4072"
         style="fill:none;stroke:#1c1d20;stroke-width:5;stroke-miterlimit:3.864"
         sodipodi:nodetypes="sssssssss" />
      <g
         id="g4168" />
      <g
         id="E-80"
         transform="matrix(0.04676273,0,0,0.06166455,214.03401,35.72616)"
         inkscape:label="E-80"
         style="display:inline;stroke-width:18.6223">
        <path
           style="fill:#ffffff;fill-opacity:1;stroke-width:18.6223"
           d="m -877.11397,119.96468 v -229 H 208.88608 v 229 229 H -877.11397 Z"
           id="path2390-0"
           sodipodi:nodetypes="ccccccc"
           inkscape:connector-curvature="0" />
      </g>
      <text
         xml:space="preserve"
         style="font-style:normal;font-variant:normal;font-weight:normal;font-stretch:normal;font-size:31.0528px;line-height:18.195px;font-family:TrafficTypeW01-SpainD;-inkscape-font-specification:TrafficTypeW01-SpainD;letter-spacing:0px;word-spacing:0px;fill:#000000;stroke:none;stroke-width:1px;stroke-linecap:butt;stroke-linejoin:miter;stroke-opacity:1"
         x="125.59895"
         y="59.959873"
         id="text8415"><tspan
           sodipodi:role="line"
           id="tspan8413"
           x="125.59895"
           y="59.959873"
           style="stroke-width:1px">ESTERRI</tspan></text>
      <text
         xml:space="preserve"
         style="font-style:normal;font-variant:normal;font-weight:normal;font-stretch:normal;font-size:25.0878px;line-height:14.6999px;font-family:TrafficTypeW01-SpainD;-inkscape-font-specification:TrafficTypeW01-SpainD;letter-spacing:0px;word-spacing:0px;display:inline;fill:#000000;stroke:none;stroke-width:1px;stroke-linecap:butt;stroke-linejoin:miter;stroke-opacity:1"
         x="129.71614"
         y="87.702736"
         id="text8415-6-1"><tspan
           sodipodi:role="line"
           id="tspan8413-0-6"
           x="129.71614"
           y="87.702736"
           style="stroke-width:1px">D'ÀNEU </tspan><tspan
           sodipodi:role="line"
           x="129.71614"
           y="102.40263"
           style="stroke-width:1px"
           id="tspan8457" /></text>
      <text
         xml:space="preserve"
         style="font-style:normal;font-variant:normal;font-weight:normal;font-stretch:normal;font-size:31.0528px;line-height:18.195px;font-family:TrafficTypeW01-SpainD;-inkscape-font-specification:TrafficTypeW01-SpainD;letter-spacing:0px;word-spacing:0px;display:inline;fill:#000000;stroke:none;stroke-width:1px;stroke-linecap:butt;stroke-linejoin:miter;stroke-opacity:1"
         x="28.735447"
         y="159.92252"
         id="text8415-5"><tspan
           sodipodi:role="line"
           id="tspan8413-5"
           x="28.735447"
           y="159.92252"
           style="stroke-width:1px">ESPOT</tspan></text>
    </g>
  </g>
</svg>
