<?xml version="1.0" encoding="UTF-8" standalone="no"?>
<!-- Created with Inkscape (http://www.inkscape.org/) -->

<svg
   xmlns:dc="http://purl.org/dc/elements/1.1/"
   xmlns:cc="http://creativecommons.org/ns#"
   xmlns:rdf="http://www.w3.org/1999/02/22-rdf-syntax-ns#"
   xmlns:svg="http://www.w3.org/2000/svg"
   xmlns="http://www.w3.org/2000/svg"
   version="1.2"
   width="217.834"
   height="192.418"
   id="svg2">
  <metadata
     id="metadata3107">
    <rdf:RDF>
      <cc:Work
         rdf:about="">
        <dc:format>image/svg+xml</dc:format>
        <dc:type
           rdf:resource="http://purl.org/dc/dcmitype/StillImage" />
        <dc:title></dc:title>
      </cc:Work>
    </rdf:RDF>
  </metadata>
  <defs
     id="defs3105" />
  <g
     id="Capa_1">
    <path
       d="M 14.121,192.418 C 6.324,192.418 0,186.09 0,178.293 c 0,-2.539 0.668,-4.922 1.846,-6.98 L 96.664,7.084 C 99.105,2.855 103.678,0 108.916,0 c 5.238,0 9.813,2.855 12.246,7.084 l 94.828,164.229 c 1.172,2.059 1.844,4.441 1.844,6.98 0,7.797 -6.324,14.125 -14.121,14.125 H 14.121"
       id="path3087"
       style="fill:#e41408" />
    <path
       d="m 21.881,173.879 87.035,-150.707 87.035,150.707 -174.07,0"
       id="polyline3089"
       style="fill:#ffffff" />
    <path
       d="m 60.373,164.168 m 96.211,0 H 60.377 v -4.406 h 96.207 v 4.406 z"
       id="path3091"
       style="fill:#1c1d20" />
    <path
       d="m 70.08,152.691 c 0,-4.875 3.953,-8.828 8.828,-8.828 4.873,0 8.824,3.953 8.824,8.828 0,4.875 -3.951,8.828 -8.824,8.828 -4.875,0.001 -8.828,-3.953 -8.828,-8.828"
       id="path3093"
       style="fill:#1c1d20" />
    <path
       d="m 96.561,152.691 c 0,-4.875 3.953,-8.828 8.824,-8.828 4.879,0 8.828,3.953 8.828,8.828 0,4.875 -3.949,8.828 -8.828,8.828 -4.871,0.001 -8.824,-3.953 -8.824,-8.828"
       id="path3095"
       style="fill:#1c1d20" />
    <path
       d="m 123.041,152.691 c 0,-4.875 3.949,-8.828 8.828,-8.828 4.867,0 8.824,3.953 8.824,8.828 0,4.875 -3.957,8.828 -8.824,8.828 -4.879,0.001 -8.828,-3.953 -8.828,-8.828"
       id="path3097"
       style="fill:#1c1d20" />
    <path
       d="m 68.316,142.98 h -7.943 v 5.305 h 96.207 v -5.305 h -7.941 V 128.863 H 136.28 v -13.234 h 12.359 v -4.422 H 123.92 v 15.004 h -15.004 v -7.059 c 0,0 -0.883,-4.406 -7.059,-4.406 -6.176,0 -7.061,4.406 -7.061,4.406 v 7.059 H 83.32 V 112.09 h -7.064 v 14.121 h -7.939 v 16.769"
       id="path3099"
       style="fill:#1c1d20" />
    <path
       d="m 81.557,112.977 1.764,-5.293 1.764,-0.883 c 0,0 9.713,3.531 15.008,-6.18 0,0 9.703,0.879 12.352,-2.648 0,0 11.477,5.289 18.539,-4.422 0,0 7.063,-10.582 -1.766,-16.768 0,0 0.883,-7.059 -7.945,-9.707 0,0 -7.059,-11.473 -19.414,-7.943 0,0 -12.361,1.768 -14.125,19.42 0,0 -9.707,0 -8.824,16.771 0,0 -7.063,5.297 -2.652,16.766 l 0.885,0.887 h 4.414"
       id="path3101"
       style="fill:#1c1d20" />
  </g>
</svg>
