<?xml version="1.0" encoding="UTF-8" standalone="no"?>
<!-- Created with Inkscape (http://www.inkscape.org/) -->

<svg
   xmlns:dc="http://purl.org/dc/elements/1.1/"
   xmlns:cc="http://creativecommons.org/ns#"
   xmlns:rdf="http://www.w3.org/1999/02/22-rdf-syntax-ns#"
   xmlns:svg="http://www.w3.org/2000/svg"
   xmlns="http://www.w3.org/2000/svg"
   xmlns:xlink="http://www.w3.org/1999/xlink"
   version="1.2"
   width="41.0625"
   height="192.03125"
   id="svg2">
  <metadata
     id="metadata3274">
    <rdf:RDF>
      <cc:Work
         rdf:about="">
        <dc:format>image/svg+xml</dc:format>
        <dc:type
           rdf:resource="http://purl.org/dc/dcmitype/StillImage" />
        <dc:title></dc:title>
      </cc:Work>
    </rdf:RDF>
  </metadata>
  <defs
     id="defs3272" />
  <g
     id="g3308">
    <path
       d="M 40.662,191.63 H 0.4 V 5.431 C 0.4,2.656 2.654,0.4 5.435,0.4 H 35.63 c 2.777,0 5.031,2.256 5.031,5.031 V 191.63"
       id="path3252"
       style="fill:#ffffff" />
    <g
       id="g3254">
      <defs
         id="defs3256">
        <path
           d="M 40.662,191.63 H 0.4 V 5.431 C 0.4,2.656 2.654,0.4 5.435,0.4 H 35.63 c 2.777,0 5.031,2.256 5.031,5.031 V 191.63"
           id="XMLID_1_" />
      </defs>
      <clipPath
         id="XMLID_3_">
        <use
           id="use3260"
           x="0"
           y="0"
           width="450"
           height="450"
           xlink:href="#XMLID_1_" />
      </clipPath>
      <path
         d="m 0.4,55.755 40.262,-23.144 0,-16.104 -40.262,23.149 0,16.099"
         clip-path="url(#XMLID_3_)"
         id="polyline3262"
         style="fill:#e41408" />
      <path
         d="m 0.4,87.957 40.262,-23.141 0,-16.1 -40.262,23.135 0,16.106"
         clip-path="url(#XMLID_3_)"
         id="polyline3264"
         style="fill:#e41408" />
      <path
         d="m 0.4,120.169 40.262,-23.156 0,-16.101 -40.262,23.152 0,16.105"
         clip-path="url(#XMLID_3_)"
         id="polyline3266"
         style="fill:#e41408" />
    </g>
    <path
       d="M 40.662,191.63 H 0.4 V 5.431 C 0.4,2.656 2.654,0.4 5.435,0.4 H 35.63 c 2.777,0 5.031,2.256 5.031,5.031 V 191.63 z"
       id="path3268"
       style="fill:none;stroke:#1c1d20;stroke-width:0.80000001;stroke-miterlimit:3.86400008" />
  </g>
</svg>
