<?xml version="1.0" encoding="UTF-8" standalone="no"?>
<!-- Created with Inkscape (http://www.inkscape.org/) -->

<svg
   xmlns:dc="http://purl.org/dc/elements/1.1/"
   xmlns:cc="http://creativecommons.org/ns#"
   xmlns:rdf="http://www.w3.org/1999/02/22-rdf-syntax-ns#"
   xmlns:svg="http://www.w3.org/2000/svg"
   xmlns="http://www.w3.org/2000/svg"
   version="1.2"
   width="217.832"
   height="192.41901"
   id="svg2">
  <metadata
     id="metadata3087">
    <rdf:RDF>
      <cc:Work
         rdf:about="">
        <dc:format>image/svg+xml</dc:format>
        <dc:type
           rdf:resource="http://purl.org/dc/dcmitype/StillImage" />
        <dc:title></dc:title>
      </cc:Work>
    </rdf:RDF>
  </metadata>
  <defs
     id="defs3085" />
  <g
     id="Capa_1">
    <path
       d="M 14.121,192.418 C 6.32,192.418 0,186.098 0,178.297 0,175.754 0.668,173.379 1.84,171.32 L 96.664,7.096 C 99.105,2.859 103.676,0 108.918,0 c 5.234,0 9.813,2.859 12.246,7.096 l 94.828,164.225 c 1.168,2.059 1.84,4.434 1.84,6.977 0,7.801 -6.324,14.121 -14.121,14.121 H 14.121"
       id="path3077"
       style="fill:#e41408" />
    <path
       d="m 21.879,173.879 87.039,-150.699 87.035,150.699 -174.074,0"
       id="polyline3079"
       style="fill:#ffffff" />
    <path
       d="m 108.918,63.557 17.211,17.207 0,83.412 -17.211,-17.211 -17.211,17.211 0,-37.711 -13.461,13.394 -10.273,-10.277 23.734,-23.672 0,-25.146 17.211,-17.207"
       id="polyline3081"
       style="fill:#1c1d20;fill-rule:evenodd" />
  </g>
</svg>
