<?xml version="1.0" encoding="UTF-8" standalone="no"?>
<!-- Created with Inkscape (http://www.inkscape.org/) -->

<svg
   xmlns:dc="http://purl.org/dc/elements/1.1/"
   xmlns:cc="http://creativecommons.org/ns#"
   xmlns:rdf="http://www.w3.org/1999/02/22-rdf-syntax-ns#"
   xmlns:svg="http://www.w3.org/2000/svg"
   xmlns="http://www.w3.org/2000/svg"
   version="1.2"
   width="217.832"
   height="192.414"
   id="svg2">
  <metadata
     id="metadata3147">
    <rdf:RDF>
      <cc:Work
         rdf:about="">
        <dc:format>image/svg+xml</dc:format>
        <dc:type
           rdf:resource="http://purl.org/dc/dcmitype/StillImage" />
        <dc:title></dc:title>
      </cc:Work>
    </rdf:RDF>
  </metadata>
  <defs
     id="defs3145" />
  <g
     id="Capa_1">
    <path
       d="M 14.121,192.414 C 6.32,192.414 0,186.086 0,178.293 c 0,-2.551 0.668,-4.93 1.84,-6.988 L 96.664,7.088 C 99.105,2.848 103.676,0 108.914,0 c 5.238,0 9.813,2.848 12.25,7.088 l 94.828,164.217 c 1.168,2.059 1.84,4.438 1.84,6.988 0,7.793 -6.324,14.121 -14.125,14.121 H 14.121"
       id="path3107"
       style="fill:#e41408" />
    <path
       d="m 21.875,173.875 87.039,-150.707 87.035,150.707 -174.074,0"
       id="polyline3109"
       style="fill:#ffffff" />
    <path
       d="m 46.25,158.871 m 123.566,0 H 46.25 v -3.535 h 123.566 v 3.535 z"
       id="path3111"
       style="fill:#1c1d20" />
    <path
       d="m 70.961,150.93 c 0,-2.93 2.371,-5.293 5.297,-5.293 2.926,0 5.297,2.363 5.297,5.293 0,2.918 -2.371,5.289 -5.297,5.289 -2.926,0 -5.297,-2.371 -5.297,-5.289"
       id="path3113"
       style="fill:#1c1d20" />
    <path
       d="m 82.438,150.93 c 0,-2.93 2.371,-5.293 5.297,-5.293 2.922,0 5.289,2.363 5.289,5.293 0,2.918 -2.367,5.289 -5.289,5.289 -2.926,0 -5.297,-2.371 -5.297,-5.289"
       id="path3115"
       style="fill:#1c1d20" />
    <path
       d="m 136.277,150.93 c 0,-2.93 2.371,-5.293 5.297,-5.293 2.922,0 5.289,2.363 5.289,5.293 0,2.918 -2.367,5.289 -5.289,5.289 -2.926,0 -5.297,-2.371 -5.297,-5.289"
       id="path3117"
       style="fill:#1c1d20" />
    <path
       d="m 124.801,150.93 c 0,-2.93 2.371,-5.293 5.297,-5.293 2.926,0 5.301,2.363 5.301,5.293 0,2.918 -2.375,5.289 -5.301,5.289 -2.926,0 -5.297,-2.371 -5.297,-5.289"
       id="path3119"
       style="fill:#1c1d20" />
    <path
       d="m 63.02,150.93 0,-4.422 5.293,0 0,-24.711 2.648,-2.641 4.41,0 1.77,-1.765 64.433,0 1.762,1.765 3.527,0 2.653,2.641 0,24.711 5.297,0 0,4.422 -91.793,0"
       id="polyline3121"
       style="fill:#1c1d20" />
    <path
       d="m 85.969,118.273 v -1.77 l -10.598,-7.059 c 0,0 -0.879,-0.883 0,-1.766 l 12.363,-7.059 v -3.535 h 7.938 v 2.648 h -0.879 v 0.887 l 12.355,7.059 c 0.883,0.883 0,1.766 0,1.766 l -10.59,7.059 v 1.77 H 85.969"
       id="path3123"
       style="fill:#1c1d20" />
    <path
       d="m 73.164001,135.922 0,-12.359"
       id="line3125"
       style="fill:none;stroke:#ffffff;stroke-width:4.41200018;stroke-miterlimit:3.86400008" />
    <path
       d="m 80.671997,146.51199 0,-25.58999"
       id="line3127"
       style="fill:none;stroke:#ffffff;stroke-width:5.296;stroke-miterlimit:3.86400008" />
    <path
       d="m 90.82,135.92999 0,-15.00799"
       id="line3129"
       style="fill:none;stroke:#ffffff;stroke-width:7.94000006;stroke-miterlimit:3.86400008" />
    <path
       d="m 103.621,135.92999 0,-15.00799"
       id="line3131"
       style="fill:none;stroke:#ffffff;stroke-width:10.59200001;stroke-miterlimit:3.86400008" />
    <path
       d="m 143.78101,135.922 0,-12.359"
       id="line3133"
       style="fill:none;stroke:#ffffff;stroke-width:4.41200018;stroke-miterlimit:3.86400008" />
    <path
       d="m 136.27699,146.51199 0,-25.58999"
       id="line3135"
       style="fill:none;stroke:#ffffff;stroke-width:3.52800012;stroke-miterlimit:3.86400008" />
    <path
       d="m 117.738,135.92999 0,-15.00799"
       id="line3137"
       style="fill:none;stroke:#ffffff;stroke-width:10.59200001;stroke-miterlimit:3.86400008" />
    <path
       d="m 129.211,146.51199 0,-25.58999"
       id="line3139"
       style="fill:none;stroke:#ffffff;stroke-width:3.52800012;stroke-miterlimit:3.86400008" />
    <path
       d="m 89.496,114.742 -9.707,-6.179 11.473,-6.188 11.476,6.188 -9.715,6.179 -3.527,0"
       id="polyline3141"
       style="fill:#ffffff" />
  </g>
</svg>
