<?xml version="1.0" encoding="utf-8"?>
<!-- Generator: Adobe Illustrator 21.0.0, SVG Export Plug-In . SVG Version: 6.00 Build 0)  -->
<svg version="1.1"
	 id="svg2" inkscape:version="0.48.0 r9654" sodipodi:docname="señal luces obligatorias r-413.svg" xmlns:cc="http://creativecommons.org/ns#" xmlns:dc="http://purl.org/dc/elements/1.1/" xmlns:inkscape="http://www.inkscape.org/namespaces/inkscape" xmlns:rdf="http://www.w3.org/1999/02/22-rdf-syntax-ns#" xmlns:sodipodi="http://sodipodi.sourceforge.net/DTD/sodipodi-0.dtd" xmlns:svg="http://www.w3.org/2000/svg"
	 xmlns="http://www.w3.org/2000/svg" xmlns:xlink="http://www.w3.org/1999/xlink" x="0px" y="0px" viewBox="0 0 680.3 680.3"
	 style="enable-background:new 0 0 680.3 680.3;" xml:space="preserve">
<style type="text/css">
	.st0{fill:#FFFFFF;}
	.st1{fill:#092D78;}
</style>
<sodipodi:namedview  bordercolor="#666666" borderopacity="1.0" fit-margin-bottom="0" fit-margin-left="0" fit-margin-right="0" fit-margin-top="0" id="base" inkscape:current-layer="layer1" inkscape:cx="588.84154" inkscape:cy="355.21732" inkscape:document-units="px" inkscape:pageopacity="0.0" inkscape:pageshadow="2" inkscape:window-height="750" inkscape:window-maximized="1" inkscape:window-width="1280" inkscape:window-x="-8" inkscape:window-y="-8" inkscape:zoom="0.7" pagecolor="#ffffff" showgrid="false">
	</sodipodi:namedview>
<g id="layer1" transform="translate(-24.684594,-76.980789)" inkscape:groupmode="layer" inkscape:label="Capa 1">
	
		<path id="path3004" sodipodi:cx="395" sodipodi:cy="363.07333" sodipodi:rx="310.71429" sodipodi:ry="310.71429" sodipodi:type="arc" class="st0" d="
		M702.9,418.3c0,184.6-149.6,334.3-334.2,334.3C184.1,752.6,34.5,603,34.4,418.4c0,0,0-0.1,0-0.1C34.4,233.7,184,84,368.6,84
		c184.6,0,334.3,149.6,334.3,334.2C702.9,418.2,702.9,418.3,702.9,418.3z"/>
	
		<path id="path2998" inkscape:connector-curvature="0" sodipodi:nodetypes="sscsssssssssssssssssssssssssscsssscsssssssccssssscsssssscscsssssssccscscscssssscssscscsssss" class="st1" d="
		M20,751.4c0.8-0.7,2.7-0.8,4.3-0.2c1.8,0.7,1.3,1.2-1.4,1.4C20.6,752.7,19.3,752.2,20,751.4z M336.7,726.7
		c-96.1-11.4-176.6-58-228.8-132.4c-13.3-19-33.6-58.9-40.7-80.1c-17.6-52.2-20.1-112.6-7-168.1C98,185.4,258.9,81.3,422.2,111.9
		C549.4,135.7,647.9,234,673.4,362.5c5.3,26.7,5.3,79.4,0,108.3C649,604.2,540.6,707.1,405.8,724.9
		C383.6,727.8,352.9,728.6,336.7,726.7L336.7,726.7z M414,577.9c13.9-6.5,20.9-11,20.9-13.5c0.1-5.6-8.5-24.2-11.2-24.2
		c-3.2,0-99.4,47.8-99.4,49.4c0,0.7,6.2,4.9,13.8,9.4l13.8,8.1l20.7-9.7C383.8,592,402.5,583.3,414,577.9L414,577.9z M357.6,546.7
		c31.9-16.1,58.9-30.1,60-31.1c2.8-2.7-3.2-27-6.7-27c-3.7,0-140.9,67.5-140.8,69.2c0.1,1.6,25.3,18,27.6,18
		C298.8,576,325.7,562.8,357.6,546.7z M508.4,559.1c41.9-9.6,74.9-36.1,95.5-76.5c9.8-19.3,13.9-36.4,14.2-58.8
		c0.7-55.7-33.9-108.5-84.5-129.4c-30.8-12.7-65.4-14.7-72.3-4.1c-6.2,9.4-19.4,47.6-24.5,71c-6.8,31.2-7.4,95.4-1.1,126.4
		c6.2,30.9,18.8,67.5,24.6,71.6C466.8,563.6,488.8,563.6,508.4,559.1L508.4,559.1z M327.6,501.4l81.3-40.7l-0.7-14.5
		c-0.4-8-1-14.8-1.3-15.1c-1.3-1.3-190.9,92.3-190.4,93.9c0.9,2.9,23,17.1,26.5,17.1C244.8,542.2,282.9,523.8,327.6,501.4z
		 M297.2,457.5c59.9-29.4,109.7-54.4,110.7-55.4c2.8-3,5.3-32.1,2.7-32.1c-5.3,0-249,121.6-248.3,123.9c0.6,1.8,23.4,17,25.6,17.1
		C188.1,511,237.3,487,297.2,457.5L297.2,457.5z M192.6,449.9c30.8-15.2,94.8-46.5,142.1-69.7l86.1-42.1l4.9-16.5
		c2.7-9.1,4.6-17.4,4.2-18.5c-0.4-1.1-18,6.5-39.1,16.8c-76,37.1-228.6,111-256.8,124.4c-15.8,7.5-28.8,14.4-28.8,15.2
		c0,2.1,25.3,17.8,28.6,17.8C135.3,477.5,161.8,465.1,192.6,449.9L192.6,449.9z"/>
</g>
<path class="st1" d="M340.2,0C152.3,0,0,152.3,0,340.2s152.3,340.2,340.2,340.2S680.3,528,680.3,340.2S528,0,340.2,0z M340.2,667.3
	C159.5,667.3,13,520.8,13,340.2S159.5,13,340.2,13s327.2,146.5,327.2,327.2S520.8,667.3,340.2,667.3z"/>
</svg>
