<?xml version="1.0" encoding="UTF-8" standalone="no"?>
<!-- Created with Inkscape (http://www.inkscape.org/) -->

<svg
   xmlns:dc="http://purl.org/dc/elements/1.1/"
   xmlns:cc="http://creativecommons.org/ns#"
   xmlns:rdf="http://www.w3.org/1999/02/22-rdf-syntax-ns#"
   xmlns:svg="http://www.w3.org/2000/svg"
   xmlns="http://www.w3.org/2000/svg"
   version="1.2"
   width="48.104"
   height="48.104"
   id="svg2">
  <metadata
     id="metadata3166">
    <rdf:RDF>
      <cc:Work
         rdf:about="">
        <dc:format>image/svg+xml</dc:format>
        <dc:type
           rdf:resource="http://purl.org/dc/dcmitype/StillImage" />
        <dc:title></dc:title>
      </cc:Work>
    </rdf:RDF>
  </metadata>
  <defs
     id="defs3164" />
  <g
     id="Capa_1">
    <path
       d="M 0,24.052 C 0,10.769 10.768,0 24.051,0 37.335,0 48.104,10.769 48.104,24.052 48.104,37.336 37.335,48.104 24.051,48.104 10.768,48.104 0,37.336 0,24.052"
       id="path3150"
       style="fill:#e41408" />
    <path
       d="m 6.414,24.052 c 0,-9.742 7.896,-17.638 17.637,-17.638 9.742,0 17.638,7.896 17.638,17.638 0,9.74 -7.896,17.639 -17.638,17.639 C 14.31,41.69 6.414,33.792 6.414,24.052"
       id="path3152"
       style="fill:#ffffff" />
    <path
       d="m 17.331,12.837 c 0,0 -0.753,-0.07 -0.871,0.801 0,0.071 -0.943,13.647 -0.943,13.647 0,0 -0.118,0.495 0.495,0.495 h 16.027 c 0.613,0 0.495,-0.495 0.495,-0.495 0,0 -0.943,-13.576 -0.943,-13.647 C 31.473,12.767 30.72,12.837 30.72,12.837 H 17.331"
       id="path3154"
       style="fill:#1c1d20" />
    <path
       d="m 15.21,28.25 c 0,0 -0.235,-0.047 -0.235,0.236 0,0.023 0,0.896 0,0.896 0,0 -0.047,0.188 0.188,0.188 0,0 17.678,0.048 17.725,0 0.235,0 0.188,-0.188 0.188,-0.188 0,0 0,-0.873 0,-0.896 0,-0.283 -0.235,-0.236 -0.235,-0.236 H 15.21"
       id="path3156"
       style="fill:#1c1d20" />
    <path
       d="m 24.077,33.979 c 0.777,0 0.991,-0.261 1.014,-0.237 0.117,-0.164 0.188,-0.117 0.188,-0.117 0,0 3.96,0.024 3.936,0 0.331,0 0.26,0.212 0.26,0.188 0.165,0.801 0.377,0.967 0.4,0.989 0.353,0.521 0.73,0.472 0.73,0.472 h 1.627 c 0.565,-0.047 0.519,-0.542 0.519,-0.542 v -4.054 c -0.024,-0.659 -0.66,-0.708 -0.66,-0.708 h -1.272 c -0.378,0 -0.943,0.543 -0.943,0.543 -0.494,0.59 -0.542,1.297 -0.565,1.344 -0.023,0.211 -0.213,0.211 -0.213,0.211 0,0 -3.439,0 -3.416,0 -0.473,0 -0.66,-0.282 -0.684,-0.258 -0.283,-0.308 -0.948,-0.261 -0.948,-0.261 0,0 -0.659,-0.047 -0.943,0.261 -0.023,-0.024 -0.211,0.258 -0.684,0.258 0.024,0 -3.417,0 -3.417,0 0,0 -0.188,0 -0.212,-0.211 -0.023,-0.047 -0.07,-0.754 -0.565,-1.344 0,0 -0.565,-0.543 -0.943,-0.543 h -1.272 c 0,0 -0.636,0.049 -0.66,0.708 v 4.054 c 0,0 -0.047,0.495 0.52,0.542 H 17.5 c 0,0 0.376,0.049 0.73,-0.472 0.023,-0.022 0.235,-0.188 0.4,-0.989 0,0.023 -0.071,-0.188 0.26,-0.188 -0.023,0.024 3.937,0 3.937,0 0,0 0.07,-0.047 0.188,0.117 0.023,-0.023 0.236,0.237 1.013,0.237 -0.004,0.023 0.049,0.023 0.049,0"
       id="path3158"
       style="fill:#1c1d20;fill-rule:evenodd" />
    <path
       d="m 29.344,14.697 c 0.296,0 0.535,0.24 0.535,0.536 v 10.153 c 0,0.298 -0.239,0.535 -0.535,0.535 H 18.707 c -0.295,0 -0.535,-0.237 -0.535,-0.535 V 15.233 c 0,-0.296 0.24,-0.536 0.535,-0.536 h 10.637"
       id="path3160"
       style="fill:#e96310" />
  </g>
</svg>
