<svg xmlns="http://www.w3.org/2000/svg" width="48.246" height="48.246" viewBox="0 0 48.246 48.246" overflow="visible" enable-background="new 0 0 48.246 48.246">
   <path fill="#FFFFFF" d="M1.056,25.814c-0.936-0.936-0.936-2.449,0-3.384L22.432,1.055
   c0.934-0.934,2.449-0.934,3.384,0L47.19,22.431c0.936,0.935,0.936,2.448,0,3.384L25.815,47.191
   c-0.935,0.934-2.45,0.934-3.384,0L1.056,25.814z"/>
   <path fill="none" stroke="#1C1D20" stroke-width="0.708" stroke-miterlimit="3.864" d="M1.056,25.814
   c-0.936-0.936-0.936-2.449,0-3.384L22.432,1.055c0.934-0.934,2.449-0.934,3.384,0L47.19,22.431
   c0.936,0.935,0.936,2.448,0,3.384L25.815,47.191c-0.935,0.934-2.45,0.934-3.384,0L1.056,25.814z"/>
   <rect x="13.64" y="13.669" transform="matrix(-0.7071 0.7071 -0.7071 -0.7071 58.221 24.1589)" fill="#F4B70D" width="20.933" height="20.938"/> 
   <rect x="13.64" y="13.669" transform="matrix(-0.7071 0.7071 -0.7071 -0.7071 58.221 24.1589)" fill="none" stroke="#1C1D20" stroke-width="0.198" stroke-miterlimit="3.864" width="20.933" height="20.938"/> 
   <polyline fill="#1C1D20" points="9.375,34.217 34.186,9.407 38.84,14.06 14.028,38.869 9.375,34.217 "/>
</svg>