<?xml version="1.0" encoding="UTF-8" standalone="no"?>
<!-- Created with Inkscape (http://www.inkscape.org/) -->

<svg
   xmlns:dc="http://purl.org/dc/elements/1.1/"
   xmlns:cc="http://creativecommons.org/ns#"
   xmlns:rdf="http://www.w3.org/1999/02/22-rdf-syntax-ns#"
   xmlns:svg="http://www.w3.org/2000/svg"
   xmlns="http://www.w3.org/2000/svg"
   version="1.2"
   width="48.104"
   height="48.104"
   id="svg2">
  <metadata
     id="metadata3077">
    <rdf:RDF>
      <cc:Work
         rdf:about="">
        <dc:format>image/svg+xml</dc:format>
        <dc:type
           rdf:resource="http://purl.org/dc/dcmitype/StillImage" />
        <dc:title></dc:title>
      </cc:Work>
    </rdf:RDF>
  </metadata>
  <defs
     id="defs3075" />
  <g
     id="g3108">
    <path
       d="M 0,24.052 C 0,10.768 10.769,0 24.052,0 37.336,0 48.104,10.768 48.104,24.052 48.104,37.336 37.336,48.104 24.052,48.104 10.769,48.104 0,37.336 0,24.052"
       id="path3053"
       style="fill:#e41408" />
    <path
       d="m 6.414,24.052 c 0,-9.74 7.897,-17.637 17.638,-17.637 9.741,0 17.638,7.897 17.638,17.637 0,9.742 -7.896,17.638 -17.638,17.638 -9.742,0 -17.638,-7.896 -17.638,-17.638"
       id="path3055"
       style="fill:#ffffff" />
    <path
       d="m 10.686,28.158 c 0,-1.927 1.561,-3.488 3.488,-3.488 1.927,0 3.489,1.562 3.489,3.488 0,1.926 -1.562,3.488 -3.489,3.488 -1.927,0 -3.488,-1.561 -3.488,-3.488"
       id="path3057"
       style="fill:#1c1d20" />
    <path
       d="m 28.716,13.003 c 0,-0.769 0.622,-1.389 1.391,-1.389 0.769,0 1.39,0.62 1.39,1.389 0,0.769 -0.621,1.391 -1.39,1.391 -0.769,0 -1.391,-0.623 -1.391,-1.391"
       id="path3059"
       style="fill:#1c1d20" />
    <path
       d="m 26.288,26.413 c 0,-3.07 2.492,-5.563 5.564,-5.563 3.071,0 5.563,2.492 5.563,5.563 0,3.074 -2.491,5.563 -5.563,5.563 -3.072,0 -5.564,-2.489 -5.564,-5.563"
       id="path3061"
       style="fill:#1c1d20" />
    <path
       d="m 11.417,18.519 h 10.229 c 0,0 0.306,-0.024 0.424,0.235 0.024,0 0.118,0.4 0.118,0.4 0,0 0.094,0.213 0.306,0.024 0,-0.024 0.212,-0.189 0.212,-0.189 0,0 0.189,-0.141 0,-0.282 -0.023,0 -0.354,-0.307 -0.354,-0.307 0,0 -0.282,-0.047 0.024,-0.494 0.023,-0.048 0.283,-0.378 0.283,-0.378 0,0 0.071,-0.236 0.377,0.07 0.024,-0.022 1.673,1.745 1.673,1.745 0,0 0.307,0.21 0.048,0.612 l -0.283,0.258 c 0,0 -0.165,0.237 -0.377,0.025 L 23.72,19.79 c 0,0 -0.283,-0.377 -0.471,-0.189 -0.024,-0.022 -0.59,0.638 -0.59,0.638 0,0 -0.212,0.117 -0.165,0.306 -0.024,0 0.943,3.725 0.943,3.725 0,0 0.07,0.236 -0.212,0.236 h -10.63 c 0,0 -0.189,0.023 -0.259,-0.213 0.023,0.022 -1.296,-5.256 -1.296,-5.256 0,0 -0.26,-0.518 0.377,-0.518"
       id="path3063"
       style="fill:#1c1d20" />
    <path
       d="m 16.531,24.811 h 6.859 c 0,0 0.212,-0.046 0.282,0.19 0.024,-0.048 0.213,0.989 0.213,0.989 0,0 0.188,0.328 -0.331,0.328 -0.023,-0.023 -5.75,0 -5.75,0 0,0 -0.141,0.049 -0.283,-0.163 -0.024,-0.024 -1.06,-1.154 -1.06,-1.154 0,0 -0.119,-0.19 0.07,-0.19"
       id="path3065"
       style="fill:#1c1d20" />
    <path
       d="m 30.625,14.795 c -0.023,-0.024 1.227,-0.118 1.227,1.226 -0.023,0 0,3.652 0,3.652 0,0 0.046,0.613 -0.826,0.754 0.024,-0.022 -3.865,0.849 -3.865,0.849 0,0 -0.283,0.024 -0.377,0.308 0,0.022 -1.084,3.982 -1.084,3.982 0,0 -0.117,0.638 -0.896,0.447 0.071,0 -0.801,-0.047 -0.589,-0.989 0.023,0.024 1.06,-4.338 1.06,-4.338 0,0 0.118,-0.823 1.084,-1.013 0.024,0 2.617,-0.519 2.617,-0.519 0,0 0.235,-0.07 0.164,-0.259 0,-0.023 -0.399,-1.107 -0.399,-1.107 0,0 -0.119,-0.189 -0.377,-0.047 0.023,0 -2.594,1.271 -2.594,1.271 0,0 -0.684,0.308 -0.966,-0.329 0.022,0 -0.448,-0.707 0.282,-1.155 0.025,-0.024 4.619,-2.545 4.619,-2.545 0,0 0.355,-0.212 0.92,-0.188"
       id="path3067"
       style="fill:#1c1d20" />
    <path
       d="m 12.761,28.158 c 0,-0.782 0.632,-1.414 1.413,-1.414 0.782,0 1.415,0.632 1.415,1.414 0,0.781 -0.633,1.414 -1.415,1.414 -0.781,0 -1.413,-0.633 -1.413,-1.414"
       id="path3069"
       style="fill:#ffffff" />
    <path
       d="m 29.706,26.413 c 0,-1.185 0.961,-2.144 2.146,-2.144 1.184,0 2.145,0.959 2.145,2.144 0,1.185 -0.961,2.145 -2.145,2.145 -1.185,0 -2.146,-0.96 -2.146,-2.145"
       id="path3071"
       style="fill:#ffffff" />
  </g>
</svg>
