<?xml version="1.0" encoding="UTF-8" standalone="no"?><svg xmlns="http://www.w3.org/2000/svg" height="48" width="48" version="1.0"><path d="m47.961 24.019c0.002 13.244-10.735 23.981-23.98 23.981-13.246 0-23.983-10.737-23.981-23.981-0.002-13.243 10.735-23.98 23.981-23.98 13.245-0.00025 23.983 10.737 23.98 23.98z" fill-rule="evenodd"/><path d="m47.722 24.015c0 13.112-10.63 23.741-23.741 23.741-13.112 0-23.741-10.629-23.741-23.741-0.00019-13.111 10.629-23.74 23.741-23.74 13.111-0.00046 23.741 10.629 23.741 23.74z" fill-rule="evenodd" fill="#fff"/><path d="m23.969 0.75c-12.847 0-23.25 10.403-23.25 23.25-0.00025 12.847 10.403 23.281 23.25 23.281s23.281-10.434 23.281-23.281-10.434-23.25-23.281-23.25zm1.812 12.469c0.204 0 0.371 0.086 0.531 0.187l16.969 10.625-16.969 10.594c-0.16 0.101-0.327 0.187-0.531 0.187-0.574 0-1.062-0.487-1.062-1.062 0-0.102 0.035-0.188 0.062-0.281l1.938-5.719c0.015-0.041 0.031-0.078 0.031-0.125 0-0.202-0.173-0.375-0.375-0.375h-21.688l0.0005-6.438h21.688c0.201 0 0.374-0.143 0.374-0.343 0-0.048-0.016-0.116-0.031-0.157l-1.938-5.75c-0.026-0.094-0.062-0.179-0.062-0.281 0-0.574 0.488-1.062 1.062-1.062z" fill-rule="evenodd" fill="#092d78"/></svg>
