<?xml version="1.0" encoding="UTF-8" standalone="no"?><svg xmlns="http://www.w3.org/2000/svg" xml:space="preserve" height="48.104" width="48.103" version="1.0" viewBox="0 0 48.103 48.104"><path fill="#e41408" d="m0 24.053c0-13.283 10.768-24.053 24.051-24.053s24.052 10.77 24.052 24.053c0 13.284-10.769 24.052-24.052 24.052s-24.051-10.768-24.051-24.052"/><path fill="#fff" d="m6.413 24.053c0-9.74 7.897-17.637 17.638-17.637 9.742 0 17.639 7.896 17.639 17.637 0 9.742-7.896 17.638-17.639 17.638-9.741-0.001-17.638-7.896-17.638-17.638"/><path fill="#1c1d20" d="m29 19.781c-0.342 0-0.5 0.344-0.5 0.344l-1.188 3.063c-0.34 0.172-0.343 0.343-0.343 0.343-0.344 0.683-0.344 1.375-0.344 1.375 0 0.854 0.344 1.031 0.344 1.032-0.344 0.514 0.156 0.843 0.156 0.843v1.188c0 0.19 0.154 0.344 0.344 0.343h1.375c0.19 0 0.343-0.154 0.344-0.343v-1.375h6.843v1.375c0 0.19 0.155 0.344 0.344 0.343h1.344c0.189 0 0.343-0.154 0.343-0.343v-1.188s0.528-0.33 0.188-0.843c0 0 0.344-0.178 0.344-1.032 0 0-0.002-0.691-0.344-1.375 0 0-0.002-0.171-0.344-0.343l-1.187-3.063s-0.189-0.344-0.531-0.344h-7.188zm0.344 0.844h6.5c0.342 0 0.344 0.156 0.344 0.156l0.874 2.063c0.173 0.515-0.343 0.344-0.343 0.344-1.196-0.342-4.125-0.344-4.125-0.344s-2.897 0.002-4.094 0.344c0 0-0.517 0.171-0.344-0.344l0.844-2.063s0.001-0.156 0.344-0.156zm1.531 3.813h3.406v0.843h-3.406v-0.843z"/><path fill="#e41408" d="m11.906 19.781c-0.343 0-0.5 0.344-0.5 0.344l-1.218 3.063c-0.3435 0.172-0.3442 0.343-0.3442 0.343-0.342 0.684-0.3438 1.375-0.3438 1.375 0 0.854 0.3438 1.032 0.3438 1.032-0.342 0.513 0.1872 0.843 0.1872 0.843v1.188c0 0.189 0.156 0.343 0.344 0.343h1.375c0.19 0.001 0.344-0.153 0.344-0.343v-1.375h6.812v1.375c0 0.189 0.155 0.343 0.344 0.343h1.375c0.189 0.001 0.344-0.153 0.344-0.343v-1.188s0.529-0.329 0.187-0.843c0-0.001 0.343-0.178 0.344-1.032 0 0-0.001-0.692-0.344-1.375 0 0-0.002-0.171-0.344-0.343l-1.218-3.063s-0.158-0.344-0.5-0.344h-7.188zm0.344 0.844h6.5c0.343 0 0.344 0.156 0.344 0.156l0.844 2.063c0.17 0.515-0.344 0.344-0.344 0.344-1.197-0.342-4.094-0.344-4.094-0.344s-2.898 0.002-4.094 0.344c0 0-0.514 0.171-0.344-0.344l0.844-2.063s0.003-0.156 0.344-0.156zm1.531 3.813h3.438v0.843h-3.438v-0.843z"/></svg>
