<?xml version="1.0" encoding="UTF-8" standalone="no"?>
<!-- Created with Inkscape (http://www.inkscape.org/) -->

<svg
   xmlns:dc="http://purl.org/dc/elements/1.1/"
   xmlns:cc="http://creativecommons.org/ns#"
   xmlns:rdf="http://www.w3.org/1999/02/22-rdf-syntax-ns#"
   xmlns:svg="http://www.w3.org/2000/svg"
   xmlns="http://www.w3.org/2000/svg"
   version="1.2"
   width="48.103001"
   height="48.104"
   id="svg2">
  <metadata
     id="metadata3073">
    <rdf:RDF>
      <cc:Work
         rdf:about="">
        <dc:format>image/svg+xml</dc:format>
        <dc:type
           rdf:resource="http://purl.org/dc/dcmitype/StillImage" />
        <dc:title></dc:title>
      </cc:Work>
    </rdf:RDF>
  </metadata>
  <defs
     id="defs3071" />
  <g
     id="g3084">
    <path
       d="M 0,24.052 C 0,10.768 10.768,0 24.052,0 37.335,0 48.103,10.768 48.103,24.052 48.103,37.336 37.335,48.104 24.052,48.104 10.768,48.104 0,37.336 0,24.052"
       id="path3051"
       style="fill:#e41408" />
    <path
       d="m 6.413,24.052 c 0,-9.74 7.896,-17.637 17.639,-17.637 9.741,0 17.638,7.896 17.638,17.637 0,9.742 -7.896,17.638 -17.638,17.638 C 14.31,41.689 6.413,33.794 6.413,24.052"
       id="path3053"
       style="fill:#ffffff" />
    <path
       d="m 27.781,25.692 c 0,-2.394 1.94,-4.335 4.335,-4.335 2.393,0 4.334,1.941 4.334,4.335 0,2.394 -1.941,4.335 -4.334,4.335 -2.394,0 -4.335,-1.941 -4.335,-4.335"
       id="path3055"
       style="fill:#1c1d20" />
    <path
       d="m 11.62,25.659 c 0,-2.394 1.94,-4.335 4.334,-4.335 2.394,0 4.335,1.941 4.335,4.335 0,2.394 -1.941,4.334 -4.335,4.334 -2.394,0 -4.334,-1.94 -4.334,-4.334"
       id="path3057"
       style="fill:#1c1d20" />
    <path
       d="m 12.488,25.659 c 0,-1.914 1.552,-3.469 3.466,-3.469 1.916,0 3.468,1.555 3.468,3.469 0,1.915 -1.552,3.467 -3.468,3.467 -1.914,0 -3.466,-1.552 -3.466,-3.467"
       id="path3059"
       style="fill:#ffffff" />
    <path
       d="m 15.274,25.518 c 0,-0.421 0.342,-0.763 0.763,-0.763 0.422,0 0.764,0.342 0.764,0.763 0,0.422 -0.342,0.765 -0.764,0.765 -0.421,-0.001 -0.763,-0.344 -0.763,-0.765"
       id="path3061"
       style="fill:#1c1d20" />
    <path
       d="m 28.649,25.692 c 0,-1.915 1.552,-3.467 3.467,-3.467 1.915,0 3.467,1.552 3.467,3.467 0,1.915 -1.552,3.467 -3.467,3.467 -1.915,0 -3.467,-1.552 -3.467,-3.467"
       id="path3063"
       style="fill:#ffffff" />
    <path
       d="m 24.747,26.696 c -1.176,0 -1.156,-1.115 -1.114,-1.157 0,-1.321 1.135,-1.279 1.135,-1.279 l 7.409,0.391 c 0.422,0 0.785,0.479 0.785,0.901 0,0.422 -0.322,0.875 -0.744,0.875 0,0 -7.491,0.269 -7.471,0.269"
       id="path3065"
       style="fill:#1c1d20" />
    <path
       d="m 26.359,24.788 2.452,-3.728 2.106,3.674 1.341,0.021 -2.766,-5.036 0.599,-1.033 h 0.765 c 0,0 0.289,0.084 0.289,-0.308 -0.021,0 0,-0.889 0,-0.889 0,0 0.144,-0.618 -0.743,-0.268 -0.021,0 -2.188,0.909 -2.188,0.909 0,0 -0.598,0.432 0.082,0.515 0.021,0 0.497,0.021 0.497,0.021 l -0.331,0.764 h -8.05 c 0,0 0.455,-0.352 0.145,-0.868 0,0.021 -0.33,-0.557 -0.33,-0.557 0,0 -0.31,-0.392 0.165,-0.392 h 2.58 v -1.198 h -2.621 c 0,0 -1.857,0.166 -0.908,2.104 0,0.042 0.228,0.165 -0.082,0.661 -0.042,0.022 -3.592,5.904 -3.592,5.904 l 0.867,0.474 2.683,-4.354 4.52,3.941 0.847,-0.763 -4.437,-3.756 h 7.491 l -2.559,3.831 1.178,0.331"
       id="path3067"
       style="fill:#1c1d20" />
  </g>
</svg>
