<?xml version="1.0" encoding="UTF-8" standalone="no"?>
<!-- Created with Inkscape (http://www.inkscape.org/) -->

<svg
   xmlns:dc="http://purl.org/dc/elements/1.1/"
   xmlns:cc="http://creativecommons.org/ns#"
   xmlns:rdf="http://www.w3.org/1999/02/22-rdf-syntax-ns#"
   xmlns:svg="http://www.w3.org/2000/svg"
   xmlns="http://www.w3.org/2000/svg"
   version="1.2"
   width="48.104"
   height="48.104"
   id="svg2">
  <metadata
     id="metadata3073">
    <rdf:RDF>
      <cc:Work
         rdf:about="">
        <dc:format>image/svg+xml</dc:format>
        <dc:type
           rdf:resource="http://purl.org/dc/dcmitype/StillImage" />
        <dc:title></dc:title>
      </cc:Work>
    </rdf:RDF>
  </metadata>
  <defs
     id="defs3071" />
  <g
     transform="translate(-45.379845,-633.26693)"
     id="layer1">
    <g
       id="g3075">
      <path
         d="m 45.379845,657.31893 c 0,-13.283 10.769,-24.052 24.052,-24.052 13.284,0 24.052,10.769 24.052,24.052 0,13.284 -10.768,24.052 -24.052,24.052 -13.283,0 -24.052,-10.768 -24.052,-24.052"
         id="path2827"
         style="fill:#e41408" />
      <path
         d="m 51.793845,657.31893 c 0,-9.742 7.897,-17.638 17.638,-17.638 9.741,0 17.638,7.896 17.638,17.638 0,9.74 -7.896,17.639 -17.638,17.639 -9.742,0 -17.638,-7.899 -17.638,-17.639"
         id="path2829"
         style="fill:#ffffff" />
      <path
         d="m 63.018845,651.97193 c 0,0.024 1.39,0 1.39,0 0,0 0.213,0 0.213,0.213 v 2.051 c 0,0 0.047,0.211 -0.213,0.211 -0.023,0 -2.003,0 -2.003,0 0,0 -0.189,0 -0.189,-0.188 0.024,-0.023 0.59,-2.146 0.59,-2.146 0,0 0,-0.141 0.212,-0.141"
         id="path2835"
         style="fill:#ffffff" />
      <path
         d="m 52.047461,659.90697 0.04132,0.25735 0.04325,0.25744 0.04727,0.25525 0.05168,0.25544 0.05543,0.25334 0.05762,0.25111 0.06386,0.24931 0.06606,0.247 0.06788,0.24709 0.07421,0.24519 0.07613,0.24489 0.08016,0.24106 0.08237,0.24086 0.08668,0.24106 0.09051,0.23673 0,0 4.312158,0 0,0 -0.203852,-0.1791 -0.183236,-0.1916 -0.166841,-0.20384 -0.148431,-0.21421 -0.127431,-0.22638 -0.10931,-0.23895 -0.09051,-0.24711 -0.07009,-0.25543 -0.04948,-0.26559 0,0 -0.03912,-0.28834 -0.01851,-0.28842 0.0041,-0.28401 0.02877,-0.28429 0.05983,-0.28 0.09263,-0.27585 0,0 -4.275147,0 z m 33.239157,5.17482 -31.608049,0.0125 0,0 -0.107104,-0.21421 -0.102982,-0.21219 -0.100871,-0.21422 -0.09896,-0.2142 -0.09454,-0.21603 -0.0908,-0.21642 -0.08639,-0.21602 -0.08428,-0.21642 -0.08045,-0.21824 -0.07834,-0.22015 -0.07412,-0.22044 -0.07211,-0.22043 -0.06578,-0.22227 -0.06597,-0.22236 -0.06176,-0.22456 -0.05762,-0.22668 -0.0535,-0.22638 -0.05168,-0.22859 -0.04919,-0.22859 -0.04536,-0.23071 -0.04133,-0.2327 -0.03912,-0.23262 -0.03481,-0.23464 -0.03318,-0.23692 -0.02877,-0.23896 -0.02666,-0.23895 -0.02263,-0.24296 -0.02062,-0.24298 -0.01659,-0.24489 -0.01438,-0.2471 -0.01036,-0.24729 -0.0081,-0.25122 -0.0041,-0.25323 -0.0022,-0.25333 0,0 0.0022,-0.2471 0.0062,-0.24296 0.0081,-0.2449 0.01218,-0.24326 0.01448,-0.24297 0.0184,-0.24308 0.02282,-0.24077 0.02473,-0.24086 0.02887,-0.23885 0.03068,-0.23894 0.0351,-0.23895 0.03912,-0.23665 0.03912,-0.23702 0.04545,-0.23463 0.04727,-0.23483 0.04948,-0.23261 0.0535,-0.23272 0.05763,-0.2307 0.05762,-0.22859 0.06386,-0.2286 0.06386,-0.22639 0.06798,-0.22666 0.07201,-0.22457 0.07201,-0.22235 0.07834,-0.22227 0.07824,-0.22044 0.08237,-0.21833 0.08458,-0.21602 0.08639,-0.21633 0.09051,-0.2142 0.09272,-0.21201 0.09484,-0.21007 0.09896,-0.20799 0.09867,-0.20787 0,0 11.245731,0.0288 0,0 0.245175,0.009 0.230509,0.0537 0.177197,0.14401 0,0 0.07203,0.16685 0.01434,0.18324 -0.0038,0.18947 0,0 0,8.18583 8.346158,0 0,-4.092 0,0 0.0084,-0.16656 0.03505,-0.16502 0.08236,-0.14191 0,0 0.131846,-0.10106 0.158402,-0.0491 0.168851,-0.0145 0,0 12.106493,0.005 0,0 0.0517,0.25141 0.04511,0.25113 0.04326,0.25113 0.03912,0.2514 0.03505,0.24902 0.03099,0.25141 0.02662,0.25333 0.02286,0.25112 0.0204,0.25525 0.01434,0.25544 0.01251,0.25745 0.0081,0.26148 0.0061,0.26147 0.0023,0.26772 0,0 -0.0023,0.25333 -0.0038,0.25323 -0.0061,0.24931 -0.01035,0.2492 -0.0122,0.24709 -0.01657,0.24297 -0.01634,0.24298 -0.02294,0.24087 -0.02256,0.23885 -0.02877,0.23895 -0.02885,0.23482 -0.03321,0.23454 -0.0369,0.233 -0.03912,0.23262 -0.04326,0.22859 -0.04534,0.22859 -0.04917,0.22859 -0.05171,0.22446 -0.05539,0.22648 -0.05791,0.22227 -0.06176,0.22236 -0.06574,0.22264 -0.06788,0.22015 -0.07234,0.22044 -0.0761,0.21824 -0.07824,0.21824 -0.08236,0.21641 -0.08649,0.21823 -0.0886,0.21412 -0.09263,0.21613 -0.09675,0.2142 -0.100873,0.21411 -0.10298,0.21421 -0.1071,0.21421 z m 1.569069,-5.17482 -3.319453,0 0,0 0.150248,0.2326 0.105191,0.2471 0.06988,0.25957 0.04127,0.26752 0.01848,0.27615 0.0038,0.27988 -0.0023,0.28431 0,0 -0.01634,0.25927 -0.03912,0.25333 -0.06382,0.24709 -0.08457,0.23895 -0.107108,0.23262 -0.12551,0.22456 -0.146229,0.21412 -0.162622,0.20605 0,0 2.693614,0 0,0 0.09051,-0.23673 0.0864,-0.24106 0.08236,-0.24086 0.08045,-0.24106 0.0761,-0.24489 0.07425,-0.24519 0.06789,-0.24709 0.06582,-0.247 0.06382,-0.24931 0.0576,-0.25111 0.05585,-0.25334 0.05132,-0.25544 0.04756,-0.25525 0.04326,-0.25744 0.04104,-0.25735 z m -7.92819,3.73127 -17.695554,-0.0143 0,0 0.201935,-0.17509 0.191579,-0.18726 0.179114,-0.19781 0.16473,-0.2099 0.14814,-0.22044 0.12772,-0.22859 0.109308,-0.24105 0.08428,-0.24892 0.05976,-0.25966 0,0 0.03291,-0.29025 0.0023,-0.29656 -0.02477,-0.29457 -0.05171,-0.29436 -0.07394,-0.29035 -0.09081,-0.28209 0,0 16.523934,0 0,0 -0.166932,0.22638 -0.14402,0.24518 -0.119573,0.25927 -0.09463,0.27185 -0.06788,0.27806 -0.04134,0.28209 -0.01228,0.28219 0,0 0.01228,0.26139 0.0372,0.25745 0.06175,0.25332 0.08639,0.24298 0.107107,0.23483 0.129638,0.22638 0.152458,0.21229 0.170959,0.19762 z m -2.990091,-5.14415 2.335386,0 0,-0.68165 -1.03182,0 0.48604,-0.39955 0,0 0.100779,-0.0842 0.09674,-0.0927 0.08649,-0.099 0,0 0.07825,-0.11113 0.06796,-0.11525 0.05569,-0.12149 0,0 0.04326,-0.13405 0.02685,-0.13999 0.01228,-0.1421 0,0 -0.0038,-0.15218 -0.02063,-0.15034 -0.03912,-0.14623 0,0 -0.06574,-0.15246 -0.08668,-0.14219 -0.109017,-0.12552 0,0 -0.113337,-0.0905 -0.127719,-0.0721 -0.135966,-0.0557 0,0 -0.160612,-0.0514 -0.166649,-0.0311 -0.16684,-0.0103 0,0 -0.175087,0.004 -0.172877,0.0229 -0.170967,0.0474 0,0 -0.179115,0.0741 -0.16684,0.0987 -0.14402,0.12992 0,0 -0.09684,0.13155 -0.0741,0.14622 -0.05569,0.15467 0,0 -0.04326,0.17508 -0.01657,0.18104 0.01036,0.18122 0,0 0.766124,0 0,0 -0.0038,-0.0824 0.0038,-0.0822 0.01228,-0.0824 0,0 0.02278,-0.0804 0.02885,-0.0761 0.04104,-0.068 0,0 0.04725,-0.0494 0.05163,-0.0391 0.0576,-0.0329 0,0 0.06582,-0.0267 0.07019,-0.0165 0.07011,-0.006 0,0 0.102789,0.004 0.09886,0.0248 0.09272,0.0475 0,0 0.05761,0.0492 0.04948,0.0599 0.03514,0.0679 0,0 0.02256,0.072 0.0084,0.0742 -0.0023,0.0742 0,0 -0.01243,0.0761 -0.02454,0.0742 -0.03099,0.072 0,0 -0.03498,0.066 -0.04326,0.0636 -0.04534,0.0619 0,0 -0.0576,0.0639 -0.05983,0.0576 -0.06167,0.0576 0,0 -0.06796,0.0576 -0.06797,0.0557 -0.07203,0.0537 0,0 -0.887708,0.64655 0,0 -0.03068,0.0227 -0.02885,0.0247 -0.02278,0.0288 0,0 -0.0122,0.0307 -0.0081,0.035 -0.0023,0.035 0,0 -0.0038,0.53945 z m 4.316286,-1.76065 0.387278,0 0,1.13883 0,0 0.0061,0.0845 0.01449,0.0843 0.02462,0.0846 0,0 0.03505,0.076 0.04549,0.0721 0.05539,0.066 0,0 0.07425,0.064 0.08237,0.0493 0.0886,0.0392 0,0 0.111129,0.0266 0.115254,0.008 0.113336,0.002 0,0 0.115254,-0.004 0.113337,-0.0125 0.113337,-0.0185 0,0 0.109025,-0.0246 0.107008,-0.0289 0.1071,-0.0369 0,0 -0.139993,-0.62605 0,0 -0.04725,0.0145 -0.04948,0.0122 -0.05132,0.0103 0,0 -0.04357,0.008 -0.0451,0.007 -0.04326,0.002 0,0 -0.03728,0 -0.03498,-0.005 -0.03697,-0.006 0,0 -0.02669,-0.009 -0.02685,-0.0103 -0.0247,-0.0143 0,0 -0.01634,-0.0184 -0.01657,-0.0185 -0.01243,-0.0227 0,0 -0.0061,-0.0228 -0.0023,-0.0248 -0.0015,-0.0245 0,0 0,-0.92683 0.564189,0 0,-0.62595 -0.582983,0 0,-0.87928 -0.755577,0.22448 0,0.65883 -0.381049,0 0,0.62603 z"
         id="path3187"
         style="fill:#231f20;fill-opacity:1;fill-rule:evenodd;stroke:none" />
    </g>
  </g>
</svg>
