<?xml version="1.0" encoding="UTF-8" standalone="no"?>
<svg
   xmlns:dc="http://purl.org/dc/elements/1.1/"
   xmlns:cc="http://creativecommons.org/ns#"
   xmlns:rdf="http://www.w3.org/1999/02/22-rdf-syntax-ns#"
   xmlns:svg="http://www.w3.org/2000/svg"
   xmlns="http://www.w3.org/2000/svg"
   xmlns:sodipodi="http://sodipodi.sourceforge.net/DTD/sodipodi-0.dtd"
   xmlns:inkscape="http://www.inkscape.org/namespaces/inkscape"
   height="47.919"
   width="47.942"
   version="1.0"
   id="svg3291"
   sodipodi:docname="ES_R501-40.svg"
   inkscape:version="1.0.1 (3bc2e813f5, 2020-09-07)">
  <metadata
     id="metadata3297">
    <rdf:RDF>
      <cc:Work
         rdf:about="">
        <dc:format>image/svg+xml</dc:format>
        <dc:type
           rdf:resource="http://purl.org/dc/dcmitype/StillImage" />
        <dc:title></dc:title>
      </cc:Work>
    </rdf:RDF>
  </metadata>
  <defs
     id="defs3295" />
  <sodipodi:namedview
     pagecolor="#ffffff"
     bordercolor="#666666"
     borderopacity="1"
     objecttolerance="10"
     gridtolerance="10"
     guidetolerance="10"
     inkscape:pageopacity="0"
     inkscape:pageshadow="2"
     inkscape:window-width="1920"
     inkscape:window-height="1027"
     id="namedview3293"
     showgrid="false"
     inkscape:zoom="15.338384"
     inkscape:cx="34.893221"
     inkscape:cy="27.967958"
     inkscape:window-x="-8"
     inkscape:window-y="-8"
     inkscape:window-maximized="1"
     inkscape:current-layer="layer6" />
  <path
     d="M 47.761,21.181 C 46.462,9.252 36.212,0.119 24.24,0.051 10.436,-0.06325 -0.525,11.48 0.151,25.247 0.93933,38.966 13.142,49.33 26.813,47.67 39.864,46.236 49.367,34.203 47.761,21.181"
     fill-rule="evenodd"
     stroke="#000000"
     stroke-width="0.081827"
     fill="#ffffff"
     id="path3285"
     style="display:inline" />
  <path
     d="m 32.344,13.719 c -2.732,0.13 -5.287,1.831 -6.5,4.281 -0.756,1.449 -0.978,3.111 -1.125,4.719 -0.172,2.799 0.367,5.738 2,8.062 1.456,1.937 3.92,3.037 6.312,3.031 2.824,-0.022 5.57,-1.657 6.907,-4.156 1.064,-1.909 1.335,-4.157 1.281,-6.312 C 41.147,20.949 40.565,18.47 39,16.594 37.416,14.633 34.856,13.525 32.344,13.719 Z m -17.125,0.219 c -1.545,-0.012 -3.099,0.34 -4.407,1.187 -1.3445,0.806 -2.1888,2.185 -2.7182,3.625 -0.6715,1.716 -0.7071,3.588 -0.75,5.406 0.0162,2.106 0.4027,4.246 1.375,6.125 0.8666,1.724 2.5512,2.989 4.4372,3.375 2.124,0.441 4.573,0.166 6.25,-1.312 1.561,-1.332 2.414,-3.394 2.375,-5.438 0.012,-1.703 -0.45,-3.474 -1.625,-4.75 -1.976,-2.274 -5.611,-2.645 -8.125,-1.062 l -0.062,0.031 v -0.031 c 0.083,-1.534 1.413,-2.89 2.969,-2.938 1.053,-0.111 2.12,0.623 2.374,1.656 1.39,-0.546 2.768,-1.109 4.157,-1.656 -0.598,-2.14 -2.538,-3.766 -4.719,-4.094 -0.505,-0.078 -1.016,-0.121 -1.531,-0.124 z m 17.312,4.124 c 0.184,-0.021 0.377,-0.009 0.563,0 1.199,0.041 2.348,0.742 2.937,1.782 0.397,0.68 0.557,1.469 0.594,2.25 0.084,0.97 0.083,1.933 0.063,2.906 -0.066,0.925 -0.145,1.888 -0.594,2.719 -0.599,1.089 -1.865,1.782 -3.094,1.781 -0.845,0.046 -1.697,-0.199 -2.344,-0.75 -0.807,-0.677 -1.24,-1.723 -1.375,-2.75 -0.18,-1.148 -0.139,-2.311 -0.093,-3.469 0.052,-0.75 0.098,-1.52 0.406,-2.219 0.461,-1.225 1.648,-2.102 2.937,-2.25 z m -17.969,6.094 c 0.137,-0.017 0.271,-0.007 0.407,0 0.455,-0.008 0.906,0.11 1.281,0.375 0.306,0.207 0.584,0.469 0.781,0.781 0.281,0.454 0.405,1.001 0.407,1.532 -0.017,0.584 -0.171,1.198 -0.5,1.687 -0.249,0.368 -0.605,0.622 -1,0.813 -0.591,0.27 -1.277,0.343 -1.907,0.187 -0.257,-0.06 -0.499,-0.205 -0.719,-0.343 -0.401,-0.286 -0.716,-0.672 -0.906,-1.126 -0.185,-0.441 -0.22,-0.933 -0.187,-1.406 0.036,-0.401 0.159,-0.798 0.343,-1.156 0.213,-0.361 0.502,-0.667 0.844,-0.906 0.344,-0.219 0.748,-0.387 1.156,-0.438 z"
     fill-rule="evenodd"
     fill="#918f90"
     id="path3287"
     style="display:none" />
  <g
     inkscape:groupmode="layer"
     id="layer6"
     inkscape:label="Layer 1"
     style="opacity:1">
    <text
       xml:space="preserve"
       style="font-style:normal;font-variant:normal;font-weight:normal;font-stretch:normal;font-size:25.9711px;line-height:15.2174px;font-family:Ccrige;-inkscape-font-specification:Ccrige;letter-spacing:0px;word-spacing:0px;display:inline;fill:#918f90;fill-opacity:1;stroke:none;stroke-width:1px;stroke-linecap:butt;stroke-linejoin:miter;stroke-opacity:1"
       x="5.8241525"
       y="33.211735"
       id="text3863"><tspan
         sodipodi:role="line"
         id="tspan3861"
         x="5.8241525"
         y="33.211735"
         style="stroke-width:1px">40</tspan></text>
  </g>
  <path
     d="M 23.406,0.75 C 17.585,0.93708 11.831,3.3443 7.719,7.5312 c -5.6721,5.5538 -8.0318,14.155 -6.094,21.844 1.9193,8.235 8.734,15.05 16.969,16.969 7.732,1.951 16.386,-0.483 21.937,-6.219 5.705,-5.646 8.031,-14.386 5.938,-22.125 C 44.41,9.8002 37.454,3.0902 29.188,1.3122 27.284,0.86965 25.347,0.68784 23.406,0.7502 Z m 0.532,1.1562 C 28.215,1.8821 32.485,3.11 36.062,5.4688 25.938,15.5968 15.812,25.7468 5.688,35.8748 1.7041,29.8848 1.0237,21.8778 3.875,15.2808 6.6127,8.7352 12.721,3.7458 19.688,2.3748 21.085,2.0858 22.512,1.9141 23.938,1.906 Z M 37,6.125 37.625,6.5938 6.813,37.4058 6.3125,36.7808 37.0005,6.1248 Z M 38.469,7.2812 39.062,7.8125 8.031,38.8445 7.5,38.2505 38.469,7.2815 Z m 1.375,1.3126 0.531,0.5624 -31,31 -0.5625,-0.531 31.032,-31.031 z m 1.25,1.4062 0.468,0.625 -30.75,30.75 -0.624,-0.5 z m 1.125,1.531 c 3.988,5.762 4.92,13.453 2.437,20 -2.493,6.82 -8.592,12.188 -15.687,13.75 C 23.083,46.667 16.743,45.364 11.75,42 Z"
     fill-rule="evenodd"
     fill="#231f20"
     id="path3289"
     style="display:inline" />
</svg>
