<?xml version="1.0" encoding="UTF-8" standalone="no"?>
<!-- Created with Inkscape (http://www.inkscape.org/) -->

<svg
   xmlns:dc="http://purl.org/dc/elements/1.1/"
   xmlns:cc="http://creativecommons.org/ns#"
   xmlns:rdf="http://www.w3.org/1999/02/22-rdf-syntax-ns#"
   xmlns:svg="http://www.w3.org/2000/svg"
   xmlns="http://www.w3.org/2000/svg"
   version="1.2"
   width="48.103001"
   height="48.102001"
   id="svg2">
  <metadata
     id="metadata3099">
    <rdf:RDF>
      <cc:Work
         rdf:about="">
        <dc:format>image/svg+xml</dc:format>
        <dc:type
           rdf:resource="http://purl.org/dc/dcmitype/StillImage" />
        <dc:title></dc:title>
      </cc:Work>
    </rdf:RDF>
  </metadata>
  <defs
     id="defs3097" />
  <g
     id="Capa_1">
    <path
       d="M 0,24.051 C 0,10.768 10.768,0 24.051,0 37.335,0 48.103,10.768 48.103,24.051 48.103,37.335 37.335,48.102 24.051,48.102 10.768,48.102 0,37.335 0,24.051"
       id="path3083"
       style="fill:#e41408" />
    <path
       d="m 6.413,24.051 c 0,-9.741 7.896,-17.638 17.638,-17.638 9.742,0 17.638,7.896 17.638,17.638 0,9.742 -7.896,17.638 -17.638,17.638 C 14.31,41.688 6.413,33.792 6.413,24.051"
       id="path3085"
       style="fill:#ffffff" />
    <path
       d="m 22.8,13.215 c 0,-0.664 0.539,-1.202 1.203,-1.202 0.664,0 1.202,0.538 1.202,1.202 0,0.663 -0.538,1.201 -1.202,1.201 -0.664,0 -1.203,-0.538 -1.203,-1.201"
       id="path3087"
       style="fill:#1c1d20" />
    <path
       d="m 24.521,14.911 c 0,0 0.189,-0.282 0.778,-0.282 0.024,-0.024 0.707,-0.095 0.966,0.66 0.024,0 1.414,3.817 1.414,3.817 0,0 0.378,0.754 -0.353,1.226 -0.024,0 -3.158,1.839 -3.158,1.839 0,0 -0.472,0.259 -0.165,0.682 l 1.956,3.089 c 0,0 0.212,0.612 -0.212,0.942 0.023,0.023 -0.613,0.472 -1.062,-0.165 0.071,0.023 -2.757,-3.936 -2.757,-3.936 0,0 -0.66,-0.801 0.259,-1.366 0.047,0 2.687,-1.461 2.687,-1.461 0,0 0.496,-0.166 0.213,-0.566 -0.024,0 -0.801,-1.107 -0.801,-1.107 0,0 -0.283,-0.282 -0.496,0 l -1.768,2.238 c 0,0 -0.377,0.612 -1.085,0.117 0,0.023 -0.729,-0.448 -0.14,-1.224 10e-4,0.023 3.724,-4.503 3.724,-4.503"
       id="path3089"
       style="fill:#1c1d20" />
    <path
       d="m 24.498,22.643 1.909,-1.25 c 0,0 1.179,-0.613 2.356,-0.566 0.023,-0.023 1.084,-0.117 2.451,0.708 0,0 0.424,0.307 0.872,0.118 0,0 0.377,-0.33 1.132,-0.282 0,0 2.615,-0.096 2.992,2.567 -0.023,-0.023 0.118,0.636 0.448,1.368 -0.023,0 0.824,2.239 1.649,2.616 0.023,0 0.754,0.378 0.754,0.378 0,0 0.542,0.305 -0.022,0.47 0,0 -0.354,0.143 -0.754,0.118 0.022,0 -1.58,-0.165 -2.169,-0.588 0.023,0.022 -1.391,-0.92 -1.462,-2.477 0,0 0.189,-2.263 -1.036,-2.923 0.047,0.024 -0.778,-0.282 -1.108,-0.234 0,0 0.33,0.471 0.33,1.365 0.023,0.023 -0.118,1.745 -0.754,2.641 -0.047,0.047 -0.66,0.777 0.659,1.744 0.023,0 -0.306,1.201 0.118,2.005 0,0.022 0.59,0.564 0.401,0.966 0,-0.024 -0.071,0.33 0.282,0.236 -0.023,-0.025 0.118,0 0.306,-0.118 0.024,-0.024 0.261,-0.166 0.402,0.069 0,0.023 0.306,0.66 0.871,1.037 -0.047,-0.023 0.142,0.259 -0.143,0.306 0.049,0.024 -0.376,-0.117 -0.682,0.142 0,-0.024 -0.331,0.4 -0.613,-0.094 0,0.023 -0.142,-0.259 -0.354,-0.095 0.022,0 -0.235,0.071 -0.33,-0.094 0,-0.023 -0.071,-0.212 -0.542,-0.565 0.023,0.023 -0.565,-0.424 -0.613,-1.391 0,-0.023 -0.071,-2.051 -1.413,-2.238 0,0 -0.26,-0.473 -0.543,0.022 -0.022,-0.022 -0.4,0.542 -0.141,1.673 -0.024,0 -0.755,0.237 -1.91,2.287 0,0 -0.258,0.872 -0.824,0.918 -0.023,0 -0.331,0.19 -0.213,0.521 0,0.022 0.213,0.069 0.048,0.543 0,-0.025 -1.721,0 -1.721,0 0,0 -0.094,-0.119 0.071,-0.261 -0.024,0.023 1.461,-1.179 1.202,-1.485 0,0.024 -0.048,-0.589 0.259,-0.471 -0.024,0 0.165,0 0.307,-0.26 -0.023,0 1.531,-2.615 0.896,-3.605 0,0.022 -0.566,-0.638 -0.448,-1.91 -0.023,0.025 -0.519,0.165 -0.871,0.095 0.021,0.023 -0.166,0.046 -0.166,-0.165 0,0.023 0.188,-0.518 -0.047,-0.825 -0.021,-10e-4 -1.836,-3.016 -1.836,-3.016"
       id="path3091"
       style="fill:#1c1d20;fill-rule:evenodd" />
    <path
       d="m 21.575,27.144 c -0.024,0 1.414,0.33 2.285,0.188 -0.023,0 0.756,-0.118 0.283,-0.753 0,0.022 -2.498,-3.396 -2.498,-3.396 0,0 -0.729,-1.178 -0.095,-1.72 0,0 -1.508,-0.189 -1.39,-1.439 0.023,0 -0.071,-0.588 0.612,-1.154 -0.047,0.024 -2.263,-2.239 -2.263,-2.239 0,0 -1.744,-1.578 -3.323,-0.753 0,0.023 -0.354,0.399 -0.684,0.023 0,0.023 -0.283,-0.378 -0.754,-0.565 0,0 -0.566,-0.308 -0.377,0.353 0,-0.023 0.424,0.542 -0.023,1.368 -0.048,0 -0.33,0.871 -0.33,0.871 0,0 0.377,0.99 0.117,1.862 0.024,-0.023 -0.306,0.801 0.213,1.155 -0.023,-0.023 0.565,0.66 1.061,0.282 0,0 0.399,0.283 0.612,-0.117 0.047,0.022 -0.188,-0.212 -0.235,-0.544 0.022,0 -0.235,-0.211 0.094,-0.495 0,0.049 0.425,-0.494 0.471,-1.012 0.024,0.047 0,-0.118 0.236,0 0,-0.024 0.565,0.423 0.59,1.202 0.023,0.022 0.094,1.155 0.896,1.697 0.023,0.023 1.297,0.941 0.967,1.838 0.047,0 -0.236,0.519 0.589,1.768 0,0 -1.062,0.212 -2.64,1.484 -0.024,0 -0.164,0.26 -0.472,0.331 -0.023,-0.024 -0.4,0.047 -0.377,0.377 -0.023,-0.023 0.259,2.003 0.118,2.545 0,0.022 -0.118,0.4 0.329,0.565 0,-0.022 0.637,0.07 1.061,0.425 0.071,0.047 0.283,0.306 0.778,0.331 -0.023,0 0.708,-0.143 1.296,0.258 0.023,-0.024 0.636,0.494 1.178,-0.047 l -0.895,-1.062 c 0,0 0,-0.118 -0.329,-0.164 0.022,-0.022 -0.731,0.094 -0.637,-0.141 0.023,0 0.234,-0.119 -0.308,-0.096 -0.022,-0.023 -1.72,0.354 -1.107,-1.061 0,-0.022 0.284,-0.707 0.235,-1.106 l 2.404,-0.85 c 0,0 0.33,-0.093 0.33,0.142 0,0 0,0.447 0.354,0.825 -0.024,0 0.354,0.282 0.259,0.967 0.023,-0.024 -0.023,0.659 0.708,1.508 0,0.023 1.295,2.027 0.588,3.041 0.022,0.048 -0.471,0.66 -0.471,0.66 0,0 -0.26,0.234 0,0.306 0.047,0 1.531,0 1.531,0 0,0 0.612,-0.071 0.095,-1.131 0,0 -0.495,-0.59 0.378,-0.99 0.002,-0.023 -1.72,-1.671 -1.46,-5.537"
       id="path3093"
       style="fill:#1c1d20;fill-rule:evenodd" />
  </g>
</svg>
