<?xml version="1.0" encoding="UTF-8" standalone="no"?>
<!-- Created with Inkscape (http://www.inkscape.org/) -->

<svg
   xmlns:dc="http://purl.org/dc/elements/1.1/"
   xmlns:cc="http://creativecommons.org/ns#"
   xmlns:rdf="http://www.w3.org/1999/02/22-rdf-syntax-ns#"
   xmlns:svg="http://www.w3.org/2000/svg"
   xmlns="http://www.w3.org/2000/svg"
   version="1.2"
   width="192.412"
   height="192.416"
   id="svg2">
  <metadata
     id="metadata3139">
    <rdf:RDF>
      <cc:Work
         rdf:about="">
        <dc:format>image/svg+xml</dc:format>
        <dc:type
           rdf:resource="http://purl.org/dc/dcmitype/StillImage" />
        <dc:title></dc:title>
      </cc:Work>
    </rdf:RDF>
  </metadata>
  <defs
     id="defs3137" />
  <g
     id="g3174">
    <path
       d="M 0,96.205 C 0,43.076 43.072,0 96.205,0 c 53.133,0 96.207,43.076 96.207,96.205 0,53.141 -43.074,96.211 -96.207,96.211 C 43.072,192.416 0,149.346 0,96.205"
       id="path3107"
       style="fill:#e41408" />
    <path
       d="m 25.652,96.205 c 0,-38.965 31.588,-70.549 70.553,-70.549 38.969,0 70.555,31.584 70.555,70.549 0,38.961 -31.586,70.551 -70.555,70.551 -38.965,0 -70.553,-31.59 -70.553,-70.551"
       id="path3109"
       style="fill:#ffffff" />
    <path
       d="m 46.496,104.229 c -4.428,0 -8.016,-3.594 -8.016,-8.023 0,-4.426 3.588,-8.014 8.016,-8.014 h 99.416 c 4.426,0 8.016,3.588 8.016,8.014 0,4.43 -3.59,8.023 -8.016,8.023 H 46.496"
       id="path3111"
       style="fill:#1c1d20" />
    <g
       id="g3113">
      <path
         d="m 49.34,60.011 h 7.93 c 4.427,0 7.222,1.511 8.383,4.531 l 0.453,2.719 c 0,3.823 -2.19,6.165 -6.57,7.023 h -5.211 v 7.477 H 49.34 v -21.75 z m 4.985,4.305 v 5.438 l 0.453,0.453 h 2.492 c 2.567,0 3.852,-0.906 3.852,-2.719 v -0.227 c 0,-1.369 -0.604,-2.351 -1.813,-2.945 h -4.984 z"
         id="path3115" />
      <path
         d="m 68.683,60.011 h 14.953 v 4.305 h -9.969 v 4.078 h 8.836 v 4.305 h -8.836 v 4.305 h 10.875 v 4.758 H 68.683 V 60.011 z"
         id="path3117" />
      <path
         d="m 94.044,60.011 h 6.57 l 7.477,21.75 h -5.664 l -0.906,-3.172 h -7.93 l -0.906,3.172 h -5.438 l 6.797,-21.75 z m 3.172,6.571 -2.039,7.023 h 4.531 v -0.227 c -1.359,-4.531 -2.19,-6.796 -2.492,-6.796 z"
         id="path3119" />
      <path
         d="m 117.578,59.785 h 4.531 V 77.23 c 0,2.077 -1.284,3.512 -3.852,4.305 l -1.813,0.227 h -3.852 l -1.586,-0.227 0.68,-4.758 1.586,0.227 h 1.813 c 1.661,0 2.492,-0.68 2.492,-2.039 v -15.18 z"
         id="path3121" />
      <path
         d="m 124.588,60.011 h 14.953 v 4.305 h -9.969 v 4.078 h 8.836 v 4.305 h -8.836 v 4.305 h 10.875 v 4.758 H 124.588 V 60.011 z"
         id="path3123" />
    </g>
    <g
       id="g3125">
      <path
         d="M 59.674,111.678 H 77.12 v 4.531 h -6.344 v 17.219 h -4.758 v -17.219 h -6.344 v -4.531 z"
         id="path3127" />
      <path
         d="m 89.396,110.998 h 0.227 c 4.861,0 8.185,2.418 9.969,7.25 l 0.453,3.172 v 1.813 c 0,4.588 -2.417,7.836 -7.25,9.742 l -3.172,0.453 c -4.626,0 -7.873,-2.113 -9.742,-6.344 -0.604,-1.52 -0.906,-3.105 -0.906,-4.758 0,-5.947 2.719,-9.646 8.156,-11.102 l 2.265,-0.226 z m -5.21,11.102 c 0,3.408 1.359,5.523 4.078,6.344 l 1.813,0.227 c 2.152,0 3.738,-1.66 4.758,-4.984 v -1.813 c -0.425,-4.078 -2.162,-6.117 -5.211,-6.117 -3.249,-0.001 -5.061,2.114 -5.438,6.343 z"
         id="path3129" />
      <path
         d="m 102.41,111.678 h 4.758 v 17.219 h 9.289 v 4.531 H 102.41 v -21.75 z"
         id="path3131" />
      <path
         d="m 118.538,111.678 h 4.758 v 17.219 h 9.289 v 4.531 h -14.047 v -21.75 z"
         id="path3133" />
    </g>
  </g>
</svg>
