<?xml version="1.0" encoding="UTF-8" standalone="no"?>
<!-- Created with Inkscape (http://www.inkscape.org/) -->

<svg
   xmlns:dc="http://purl.org/dc/elements/1.1/"
   xmlns:cc="http://creativecommons.org/ns#"
   xmlns:rdf="http://www.w3.org/1999/02/22-rdf-syntax-ns#"
   xmlns:svg="http://www.w3.org/2000/svg"
   xmlns="http://www.w3.org/2000/svg"
   version="1.2"
   width="48.103001"
   height="48.105"
   id="svg2">
  <metadata
     id="metadata3057">
    <rdf:RDF>
      <cc:Work
         rdf:about="">
        <dc:format>image/svg+xml</dc:format>
        <dc:type
           rdf:resource="http://purl.org/dc/dcmitype/StillImage" />
        <dc:title></dc:title>
      </cc:Work>
    </rdf:RDF>
  </metadata>
  <defs
     id="defs3055" />
  <g
     id="g3064">
    <path
       d="M 0,24.052 C 0,10.768 10.768,0 24.051,0 37.334,0 48.103,10.768 48.103,24.052 48.103,37.336 37.333,48.105 24.051,48.105 10.769,48.105 0,37.336 0,24.052"
       id="path3043"
       style="fill:#e41408" />
    <path
       d="m 6.413,24.052 c 0,-9.74 7.896,-17.637 17.638,-17.637 9.742,0 17.637,7.896 17.637,17.637 0,9.742 -7.896,17.638 -17.637,17.638 -9.741,0 -17.638,-7.896 -17.638,-17.638"
       id="path3045"
       style="fill:#ffffff" />
    <path
       d="m 35.013,22.007 c 0.354,0 0.33,-0.33 0.33,-0.33 0,0 0.023,-1.415 0,-1.391 0,-0.33 -0.33,-0.33 -0.33,-0.33 h -2.594 c 2.545,-1.649 2.594,-4.337 2.545,-4.384 0,-5.684 -10.893,-5.704 -10.893,-5.704 0,0 -10.936,0.021 -10.936,5.704 -0.048,0.047 0,2.734 2.546,4.384 h -2.594 c 0,0 -0.329,0 -0.329,0.33 -0.024,-0.024 0,1.391 0,1.391 0,0 -0.024,0.33 0.329,0.33 h 21.926"
       id="path3047"
       style="fill:#e96310;fill-rule:evenodd" />
    <path
       d="m 24.077,26.626 c 0.731,0 1.037,-0.471 1.037,-0.471 0,0 6.388,-0.024 6.411,0 0.26,0 0.212,0.212 0.212,0.212 v 0.658 h 0.142 l 0.117,0.237 h 0.118 v 0.354 c 0.095,0.849 0.778,0.683 0.802,0.683 0.707,0 0.684,-0.73 0.684,-0.73 0,0 0.023,-1.365 0,-1.343 0,-0.165 0.143,-0.142 0.143,-0.142 h 0.187 v -1.061 c 0,0 -0.212,-0.022 -0.212,0 -0.164,0 -0.141,-0.141 -0.141,-0.141 0,0 -0.048,-1.321 0,-1.369 0,-0.776 -0.779,-0.682 -0.779,-0.659 -0.752,0 -0.683,0.519 -0.683,0.519 v 0.424 h -0.141 l -0.214,0.354 h -0.164 c 0,0 -0.023,0.638 0,0.638 0,0.213 -0.213,0.165 -0.213,0.165 0,0 -6.244,-0.023 -6.244,0 -0.095,-0.424 -1.089,-0.472 -1.089,-0.472 0,0 -0.99,0.048 -1.084,0.472 0,-0.023 -6.246,0 -6.246,0 0,0 -0.213,0.048 -0.213,-0.165 0.024,0 0,-0.638 0,-0.638 H 16.343 L 16.13,23.797 h -0.141 v -0.424 c 0,0 0.07,-0.519 -0.683,-0.519 0,-0.022 -0.778,-0.117 -0.778,0.659 v 1.369 c 0,0 0.023,0.141 -0.142,0.141 0,-0.022 -0.211,0 -0.211,0 v 1.061 h 0.187 c 0,0 0.142,-0.023 0.142,0.142 -0.024,-0.022 0,1.343 0,1.343 0,0 -0.024,0.73 0.684,0.73 0.023,0 0.706,0.166 0.801,-0.683 v -0.354 h 0.118 l 0.171,-0.237 h 0.088 v -0.658 c 0,0 -0.047,-0.212 0.212,-0.212 0.024,-0.024 6.411,0 6.411,0 0,0 0.306,0.471 1.037,0.471 0.023,0 0.027,0 0.051,0"
       id="path3049"
       style="fill:#1c1d20" />
    <path
       d="m 11.224,31.374 c 0,0 3.474,-0.267 5.612,0.803 0,0 2.137,0.534 3.741,-0.268 0,0 3.474,-1.069 5.879,-0.268 0,0 3.207,0.802 5.078,0 0,0 2.137,-0.534 5.344,-0.534 m -25.654,-1.71 c 0,0 3.474,-0.268 5.612,0.802 0,0 2.137,0.535 3.741,-0.268 0,0 3.474,-1.068 5.879,-0.268 0,0 3.207,0.802 5.078,0 0,0 2.137,-0.534 5.344,-0.534"
       id="path3051"
       style="fill:none;stroke:#1c1d20;stroke-width:0.84799999;stroke-miterlimit:3.86400008" />
  </g>
</svg>
