<?xml version="1.0" encoding="UTF-8" standalone="no"?>
<!-- Created with Inkscape (http://www.inkscape.org/) -->

<svg
   xmlns:dc="http://purl.org/dc/elements/1.1/"
   xmlns:cc="http://creativecommons.org/ns#"
   xmlns:rdf="http://www.w3.org/1999/02/22-rdf-syntax-ns#"
   xmlns:svg="http://www.w3.org/2000/svg"
   xmlns="http://www.w3.org/2000/svg"
   version="1.1"
   width="48.104"
   height="48.104"
   id="svg2">
  <defs
     id="defs4" />
  <metadata
     id="metadata7">
    <rdf:RDF>
      <cc:Work
         rdf:about="">
        <dc:format>image/svg+xml</dc:format>
        <dc:type
           rdf:resource="http://purl.org/dc/dcmitype/StillImage" />
        <dc:title></dc:title>
      </cc:Work>
    </rdf:RDF>
  </metadata>
  <g
     transform="translate(-45.379845,-633.26693)"
     id="layer1">
    <g
       id="g3085">
      <path
         d="m 45.379845,657.31893 c 0,-13.283 10.769,-24.052 24.052,-24.052 13.284,0 24.052,10.769 24.052,24.052 0,13.284 -10.768,24.052 -24.052,24.052 -13.283,0 -24.052,-10.768 -24.052,-24.052"
         id="path2827"
         style="fill:#e41408" />
      <path
         d="m 51.793845,657.31893 c 0,-9.742 7.897,-17.638 17.638,-17.638 9.741,0 17.638,7.896 17.638,17.638 0,9.74 -7.896,17.639 -17.638,17.639 -9.742,0 -17.638,-7.899 -17.638,-17.639"
         id="path2829"
         style="fill:#ffffff" />
      <path
         d="m 63.018845,651.97193 c 0,0.024 1.39,0 1.39,0 0,0 0.213,0 0.213,0.213 v 2.051 c 0,0 0.047,0.211 -0.213,0.211 -0.023,0 -2.003,0 -2.003,0 0,0 -0.189,0 -0.189,-0.188 0.024,-0.023 0.59,-2.146 0.59,-2.146 0,0 0,-0.141 0.212,-0.141"
         id="path2835"
         style="fill:#ffffff" />
      <path
         d="m 62.136889,660.25447 0.198775,-0.10845 0.180367,-0.13325 0.161672,-0.15357 0,0 0.114935,-0.13305 0.100246,-0.14355 0.09223,-0.14737 0,0 0.110547,-0.20898 0.08813,-0.22119 0.04702,-0.22949 0,0 11.8464,0 0,0 0.08384,0.28682 0.116843,0.2766 0.151656,0.2623 0.188475,0.23951 0,0 0.165964,0.15766 0.182274,0.13945 0.200588,0.11656 0,0 -14.029972,0 z m 2.251484,-6.05712 -0.02871,0.051 0,0 -0.04512,0.0453 -0.05952,0.0264 -0.06763,0.0165 0,0 -2.056715,0 0,0 -0.04893,-0.0102 -0.03892,-0.0306 -0.02051,-0.0389 0,0 0.505809,-2.09782 0,0 0.03711,-0.0551 0.05732,-0.0206 0.05322,-0.007 0,0 1.499495,0 0,0 0.06133,0.0125 0.05952,0.0264 0.04703,0.0411 0,0 0.02241,0.0654 0.0125,0.0676 0.0019,0.0739 0,0 0.0086,1.83342 z m -4.205663,6.0614 -4.512792,0.002 0,1.16556 26.322948,0 0.899258,-1.16957 -4.463574,0.002 0,0 0.170065,-0.0983 0.159764,-0.11274 0.151467,-0.12495 0,0 0.186471,-0.19248 0.155472,-0.21528 0.131149,-0.2292 0,0 0.104634,-0.2685 0.07974,-0.27231 0.02681,-0.12514 0,0 3.019306,0.002 0,0 0.135156,-0.0453 0.114935,-0.10655 0.05914,-0.12895 0,0 -0.01212,-7.83541 0,0 -0.06143,-0.13735 -0.139162,-0.10845 -0.161958,-0.0572 0,0 -17.692721,0 0,0 -0.120849,0.0245 -0.116842,0.0758 -0.124855,0.12895 0,0 -0.08413,0.17817 -0.02432,0.16196 -0.0057,0.0698 0,0 -2.884341,-0.002 0,0 -0.05112,0.009 -0.04512,0.0205 -0.04111,0.0309 0,0 -0.866256,3.25499 0,0 -0.04111,0.0655 -0.06953,0.0532 -0.07592,0.0308 0,0 -2.619943,0 0,0 -0.254192,0.0246 -0.239504,0.0757 -0.213082,0.12895 0,0 -0.219283,0.21737 -0.16377,0.26011 -0.100341,0.28071 0,0 0,2.02771 0,0 -0.0019,0.0411 -0.0076,0.0349 -0.02051,0.0349 0,0 -0.03462,0.0305 -0.03892,0.0227 -0.0433,0.008 0,0 -0.489308,0 0,0 -0.09633,0.0205 -0.07192,0.0592 -0.02642,0.0903 0,0 0.0019,0.87465 0,0 0.01431,0.0941 0.03272,0.0554 0.04712,0.0408 0,0 0.04703,0.0286 0.05732,0.009 0.06571,0 0,0 3.183362,0 0,0 0.07164,0.2601 0.09843,0.25601 0.124855,0.24179 0.155758,0.22739 0.188474,0.20488 0,0 0.133058,0.11684 0.145457,0.10025 0.153564,0.0881 z m 6.551097,-4.75877 0.04082,0.289 0.09033,0.27442 0.137063,0.25419 0.182465,0.22929 0,0 0.233399,0.19248 0.264398,0.14947 0.28252,0.11283 0,0 0.282807,0.0778 0.290914,0.0408 0.295015,0.009 0,0 0.282521,-0.0165 0.2788,-0.047 0.270312,-0.0841 0,0 0.218996,-0.0962 0.204975,-0.12086 0.184373,-0.15355 0,0 0.135251,-0.16607 0.110548,-0.18436 0.08813,-0.19659 0,0 0.06352,-0.21299 0.03892,-0.21928 0.0038,-0.219 0,0 -0.02051,-0.20497 -0.04712,-0.19658 -0.08594,-0.18437 0,0 -0.141451,-0.17227 -0.176265,-0.13295 -0.202782,-0.0922 0,0 0.190668,-0.10874 0.161672,-0.14726 0.13115,-0.17818 0,0 0.08003,-0.18656 0.04082,-0.20069 0.01431,-0.20488 0,0 -0.01221,-0.20688 -0.04292,-0.20059 -0.07192,-0.19686 0,0 -0.11255,-0.20279 -0.143549,-0.18027 -0.16978,-0.15986 0,0 -0.176265,-0.11646 -0.188474,-0.0922 -0.196582,-0.0739 0,0 -0.241697,-0.0657 -0.245989,-0.0408 -0.251998,-0.0143 0,0 -0.266115,0.0122 -0.262204,0.0429 -0.2561,0.072 0,0 -0.297114,0.11656 -0.278514,0.15165 -0.241697,0.20498 0,0 -0.172164,0.22519 -0.12495,0.25419 -0.07974,0.27032 -0.02871,0.2807 0,0 1.171573,0.13516 0,0 0.0038,-0.10034 0.0206,-0.10053 0.03481,-0.0941 0,0 0.04712,-0.084 0.05732,-0.0757 0.06753,-0.0657 0,0 0.08632,-0.0573 0.09214,-0.0429 0.09624,-0.0327 0,0 0.08794,-0.0225 0.08813,-0.0124 0.08813,-0.007 0,0 0.08403,0 0.08193,0.007 0.08193,0.0143 0,0 0.07573,0.0165 0.07164,0.0225 0.06972,0.0348 0,0 0.06352,0.0492 0.05523,0.0592 0.04292,0.0676 0,0 0.0309,0.0719 0.02051,0.0756 0.0057,0.0779 0,0 -0.0038,0.0819 -0.01841,0.0778 -0.03271,0.0739 0,0 -0.04922,0.0716 -0.06133,0.0592 -0.07382,0.0492 0,0 -0.07382,0.0308 -0.07783,0.0205 -0.07983,0.0163 0,0 -0.06753,0.0125 -0.06763,0.008 -0.06763,0.009 0,0 -0.06133,0.005 -0.05952,0.002 -0.06133,0 0,0 -0.06972,0 -0.06982,-0.002 -0.06944,-0.007 0,0 0.0076,1.05092 0,0 0.08403,-0.006 0.08603,-0.004 0.08813,0 0,0 0.07974,0.002 0.08002,0.004 0.07974,0.005 0,0 0.08813,0.004 0.08603,0.009 0.08594,0.0184 0,0 0.06982,0.0224 0.06753,0.0309 0.06352,0.0408 0,0 0.04712,0.0492 0.04101,0.0554 0.03491,0.0614 0,0 0.02242,0.0654 0.01441,0.0676 0.0019,0.0719 0,0 -0.0057,0.0694 -0.0165,0.0716 -0.02652,0.0636 0,0 -0.04292,0.0716 -0.05542,0.0635 -0.06362,0.0514 0,0 -0.05942,0.0346 -0.06143,0.0268 -0.07164,0.0246 0,0 -0.08193,0.0205 -0.100246,0.0144 -0.100628,0.009 0,0 -0.09815,-0.002 -0.09843,-0.008 -0.09834,-0.0184 0,0 -0.09812,-0.0267 -0.09223,-0.0368 -0.08594,-0.0532 0,0 -0.06982,-0.0595 -0.06133,-0.0676 -0.04922,-0.0778 0,0 -0.04922,-0.10225 -0.03491,-0.10864 -0.01622,-0.11274 0,0 -1.21478,0.17817 z m 4.62744,2.16726 0.04301,0.002 0.04512,0 0.04082,-0.004 0,0 0.06763,-0.007 0.06763,-0.0102 0.06562,-0.0122 0,0 0.09624,-0.0268 0.09223,-0.0327 0.08813,-0.043 0,0 0.08193,-0.0533 0.07573,-0.0594 0.06753,-0.0716 0,0 0.04712,-0.0698 0.03892,-0.0736 0.03271,-0.0778 0,0 0.033,-0.10034 0.02022,-0.10244 0.0103,-0.10254 0,0 0,-0.0921 -0.0057,-0.09 -0.01869,-0.0903 0,0 -0.03052,-0.0962 -0.04521,-0.09 -0.05943,-0.08 0,0 -0.06763,-0.0654 -0.07783,-0.0514 -0.08603,-0.0408 0,0 -0.09404,-0.0327 -0.100628,-0.0186 -0.100246,-0.002 0,0 -0.09843,0.0122 -0.09624,0.0246 -0.09223,0.0389 0,0 -0.09004,0.0554 -0.07974,0.0716 -0.06352,0.0841 0,0 -0.04111,0.09 -0.02461,0.094 -0.0103,0.0965 0,0 0.0019,0.0819 0.0165,0.0778 0.03272,0.0736 0,0 0.02861,0.0473 0.03491,0.043 0.04493,0.0368 0,0 0.03892,0.0245 0.04731,0.0225 0.04483,0.0165 0,0 0.0371,0.0102 0.04292,0.0144 0.03901,0.009 0,0 0.02461,0.002 0.02642,0.004 0.02461,0.008 0,0 0.01221,0.0103 0.0086,0.0124 0.0038,0.0163 0,0 -0.0019,0.0184 -0.0057,0.0143 -0.0038,0.009 0,0 -0.02032,0.0163 -0.02461,0.0143 -0.02461,0.0103 0,0 -0.02671,0.0103 -0.02871,0.0102 -0.02861,0.008 0,0 -0.0206,0.007 -0.01831,0.007 -0.02251,0.004 0,0 -0.01831,0.007 -0.0206,0.004 -0.02051,0.006 0,0 -0.01621,0.005 -0.0187,0.005 -0.01221,0.0103 0,0 -0.01212,0.0103 -0.0086,0.0124 -0.0076,0.0122 0,0 -0.0103,0.0389 -0.0019,0.0451 0.0019,0.0408 0,0 0.0019,0.043 0.0038,0.0389 0.0086,0.033 0,0 0.0102,0.0224 0.01221,0.0246 0.0165,0.0163 0,0 0.02461,0.0103 0.02862,0.002 0.02461,0.002 z m 1.564927,-1.61815 0.139543,0.33174 0.217089,0.285 0.280613,0.223 0,0 0.253905,0.11493 0.272506,0.0655 0.280708,0.0165 0,0 0.278419,-0.0308 0.268499,-0.0757 0.247706,-0.13115 0,0 0.192767,-0.15976 0.161672,-0.19248 0.124949,-0.21928 0,0 0.07783,-0.20689 0.04702,-0.21918 0.0125,-0.22119 0,0 -0.01441,-0.2315 -0.04922,-0.22328 -0.09214,-0.20899 0,0 -0.122756,-0.17416 -0.149845,-0.14736 -0.171877,-0.12295 0,0 -0.22338,-0.10654 -0.237596,-0.0614 -0.243605,-0.0227 0,0 -0.184468,0.0103 -0.180271,0.0327 -0.176075,0.0576 0,0 0.04702,-0.36073 1.612045,0 0,-0.81513 -2.374145,0 -0.251998,1.97888 0.893249,0.12895 0,0 0.05522,-0.0698 0.06352,-0.0591 0.06973,-0.0514 0,0 0.09223,-0.0511 0.09815,-0.0327 0.104634,-0.0124 0,0 0.09004,0.0103 0.08594,0.0264 0.08193,0.0411 0,0 0.08622,0.0635 0.06953,0.0798 0.05542,0.0921 0,0 0.03271,0.0881 0.01841,0.0922 0.0038,0.0943 0,0 -0.0038,0.0941 -0.01621,0.0921 -0.0309,0.0881 0,0 -0.04702,0.09 -0.06352,0.08 -0.07573,0.0676 0,0 -0.09433,0.047 -0.10244,0.0265 -0.104348,0.009 0,0 -0.13115,-0.0143 -0.123042,-0.043 -0.108449,-0.0697 0,0 -0.09624,-0.0962 -0.06972,-0.11465 -0.04082,-0.12924 0,0 -0.83602,0.2479 z m 4.420557,-1.80882 0.604338,0 0,1.78421 0,0 0.0086,0.13335 0.02461,0.13086 0.04082,0.12705 0,0 0.05541,0.12084 0.06944,0.11465 0.08632,0.10245 0,0 0.114648,0.0984 0.131055,0.0797 0.139257,0.0616 0,0 0.174167,0.0409 0.178173,0.0164 0.180271,0.002 0,0 0.178173,-0.005 0.178173,-0.0206 0.178268,-0.0286 0,0 0.170065,-0.0389 0.165965,-0.047 0.165773,-0.0555 0,0 -0.21499,-0.98109 0,0 -0.07783,0.0224 -0.07573,0.0205 -0.07783,0.0165 0,0 -0.06982,0.0103 -0.06944,0.01 -0.06982,0.005 0,0 -0.05732,-0.002 -0.05723,-0.004 -0.05551,-0.0103 0,0 -0.04292,-0.0121 -0.04301,-0.0165 -0.03673,-0.0225 0,0 -0.02871,-0.0267 -0.0227,-0.0327 -0.01841,-0.0349 0,0 -0.0103,-0.0349 -0.0057,-0.0389 0,-0.0389 0,0 0,-1.45028 0.880945,0 0,-0.98119 -0.911467,0 0,-1.37645 -1.182064,0.35014 0,1.03441 -0.596231,0 0,0.97929 z"
         id="path3061"
         style="fill:#231f20;fill-opacity:1;fill-rule:evenodd;stroke:none" />
    </g>
  </g>
</svg>
