<?xml version="1.0" encoding="UTF-8" standalone="no"?>
<!-- Created with Inkscape (http://www.inkscape.org/) -->

<svg
   xmlns:dc="http://purl.org/dc/elements/1.1/"
   xmlns:cc="http://creativecommons.org/ns#"
   xmlns:rdf="http://www.w3.org/1999/02/22-rdf-syntax-ns#"
   xmlns:svg="http://www.w3.org/2000/svg"
   xmlns="http://www.w3.org/2000/svg"
   version="1.2"
   width="48.104"
   height="48.102001"
   id="svg2">
  <metadata
     id="metadata3053">
    <rdf:RDF>
      <cc:Work
         rdf:about="">
        <dc:format>image/svg+xml</dc:format>
        <dc:type
           rdf:resource="http://purl.org/dc/dcmitype/StillImage" />
        <dc:title></dc:title>
      </cc:Work>
    </rdf:RDF>
  </metadata>
  <defs
     id="defs3051" />
  <g
     id="g3078">
    <path
       d="M 0,24.051 C 0,10.768 10.769,0 24.052,0 37.336,0 48.104,10.768 48.104,24.051 48.104,37.335 37.336,48.102 24.052,48.102 10.769,48.102 0,37.335 0,24.051"
       id="path3041"
       style="fill:#e41408" />
    <path
       d="m 6.414,24.051 c 0,-9.741 7.897,-17.638 17.638,-17.638 9.741,0 17.638,7.897 17.638,17.638 0,9.741 -7.896,17.638 -17.638,17.638 -9.742,0 -17.638,-7.897 -17.638,-17.638"
       id="path3043"
       style="fill:#ffffff" />
    <path
       d="m 21.528,12.153 c 0,-1.263 1.023,-2.286 2.286,-2.286 1.263,0 2.286,1.023 2.286,2.286 0,1.264 -1.023,2.285 -2.286,2.285 -1.263,0 -2.286,-1.021 -2.286,-2.285"
       id="path3045"
       style="fill:#1c1d20" />
    <path
       d="m 22.777,16.349 2.687,-1.32 c 0,0 0.732,-0.543 1.345,0.143 0.022,0 4.336,4.736 4.336,4.736 0,0 0.377,0.213 0.283,0.942 0.022,0.024 -0.283,2.405 -0.283,2.405 0,0 0,0.353 -0.26,0.589 -0.022,0 -0.164,0.401 -1.226,0.896 0.023,0 -0.801,0.401 -0.707,-0.353 0,-0.047 0.236,-3.064 0.236,-3.064 l -2.027,-1.979 -0.541,5.562 1.272,5.35 2.569,4.102 c 0,0 1.484,2.145 -0.566,3.276 L 26.972,33.745 25.7,31.625 23.956,27.616 c 0,0 -0.142,-0.165 -0.331,0 l -2.474,2.498 -0.92,4.125 c 0,0 -0.047,2.051 -2.899,1.791 -0.046,0.024 1.604,-7.259 1.604,-7.259 l 3.063,-4.289 0.071,-3.749 -4.125,3.514 c 0,0 -1.084,0.684 -1.932,0.095 0.023,0 -0.731,-0.118 -0.047,-0.827 0.023,-0.002 6.811,-7.166 6.811,-7.166"
       id="path3047"
       style="fill:#1c1d20" />
  </g>
</svg>
