<?xml version="1.0" encoding="UTF-8" standalone="no"?>
<!-- Created with Inkscape (http://www.inkscape.org/) -->

<svg
   xmlns:dc="http://purl.org/dc/elements/1.1/"
   xmlns:cc="http://creativecommons.org/ns#"
   xmlns:rdf="http://www.w3.org/1999/02/22-rdf-syntax-ns#"
   xmlns:svg="http://www.w3.org/2000/svg"
   xmlns="http://www.w3.org/2000/svg"
   version="1.2"
   width="48.104"
   height="48.104"
   id="svg2">
  <metadata
     id="metadata3162">
    <rdf:RDF>
      <cc:Work
         rdf:about="">
        <dc:format>image/svg+xml</dc:format>
        <dc:type
           rdf:resource="http://purl.org/dc/dcmitype/StillImage" />
        <dc:title></dc:title>
      </cc:Work>
    </rdf:RDF>
  </metadata>
  <defs
     id="defs3160" />
  <g
     id="Capa_1">
    <path
       d="M 0,24.052 C 0,10.769 10.769,0 24.052,0 37.336,0 48.104,10.769 48.104,24.052 48.104,37.336 37.336,48.104 24.052,48.104 10.769,48.104 0,37.336 0,24.052"
       id="path3148"
       style="fill:#e41408" />
    <path
       d="m 6.414,24.052 c 0,-9.742 7.897,-17.638 17.638,-17.638 9.741,0 17.638,7.896 17.638,17.638 0,9.74 -7.896,17.639 -17.638,17.639 -9.742,0 -17.638,-7.899 -17.638,-17.639"
       id="path3150"
       style="fill:#ffffff" />
    <path
       d="m 10.423,28.328 m 27.258,0 H 10.423 v -1.069 h 27.258 v 1.069 z"
       id="path3152"
       style="fill:#1c1d20" />
    <path
       d="m 37.415,17.104 c 0.267,0 0.267,0.268 0.267,0.268 v 8.645 h -3.417 c -0.225,1.016 -1.133,1.777 -2.219,1.777 -1.094,0 -2.029,-0.749 -2.245,-1.777 H 18.119 c -0.225,1.016 -1.132,1.777 -2.218,1.777 -1.127,0 -2.063,-0.822 -2.241,-1.898 h -2.998 c 0,0 -0.235,0.046 -0.235,-0.237 -0.024,0.024 0,-0.918 0,-0.918 0,0 0,-0.188 0.188,-0.188 0,-0.023 0.802,0 0.802,0 v -2.404 c 0,0 0,-1.061 1.296,-1.061 0.024,0.024 2.356,0 2.356,0 0,0 0.26,0.118 0.355,-0.188 -0.024,-0.026 0.966,-3.29 0.966,-3.29 0,0 0.047,-0.118 0.236,-0.143 0.047,0 2.616,0 2.616,0 0,0 -0.024,-0.342 0.259,-0.364 h 17.914"
       id="path3154"
       style="fill:#1c1d20" />
    <path
       d="m 17.639,18.705 c 0,0.024 1.39,0 1.39,0 0,0 0.213,0 0.213,0.213 v 2.051 c 0,0 0.047,0.211 -0.213,0.211 -0.023,0 -2.003,0 -2.003,0 0,0 -0.189,0 -0.189,-0.188 0.024,-0.023 0.59,-2.146 0.59,-2.146 0,0 0,-0.141 0.212,-0.141"
       id="path3156"
       style="fill:#ffffff" />
  </g>
</svg>
