<?xml version="1.0" encoding="UTF-8" standalone="no"?>
<!-- Created with Inkscape (http://www.inkscape.org/) -->

<svg
   xmlns:dc="http://purl.org/dc/elements/1.1/"
   xmlns:cc="http://creativecommons.org/ns#"
   xmlns:rdf="http://www.w3.org/1999/02/22-rdf-syntax-ns#"
   xmlns:svg="http://www.w3.org/2000/svg"
   xmlns="http://www.w3.org/2000/svg"
   xmlns:sodipodi="http://sodipodi.sourceforge.net/DTD/sodipodi-0.dtd"
   xmlns:inkscape="http://www.inkscape.org/namespaces/inkscape"
   width="678.02466"
   height="670.93048"
   id="svg2"
   version="1.1"
   inkscape:version="0.48.0 r9654"
   sodipodi:docname="señal r411 velocidad mínima.svg">
  <defs
     id="defs4" />
  <sodipodi:namedview
     id="base"
     pagecolor="#ffffff"
     bordercolor="#666666"
     borderopacity="1.0"
     inkscape:pageopacity="0.0"
     inkscape:pageshadow="2"
     inkscape:zoom="0.7"
     inkscape:cx="436.4235"
     inkscape:cy="305.12054"
     inkscape:document-units="px"
     inkscape:current-layer="layer1"
     showgrid="false"
     fit-margin-top="0"
     fit-margin-left="0"
     fit-margin-right="0"
     fit-margin-bottom="0"
     inkscape:window-width="1280"
     inkscape:window-height="750"
     inkscape:window-x="-8"
     inkscape:window-y="-8"
     inkscape:window-maximized="1" />
  <metadata
     id="metadata7">
    <rdf:RDF>
      <cc:Work
         rdf:about="">
        <dc:format>image/svg+xml</dc:format>
        <dc:type
           rdf:resource="http://purl.org/dc/dcmitype/StillImage" />
        <dc:title></dc:title>
      </cc:Work>
    </rdf:RDF>
  </metadata>
  <g
     inkscape:label="Capa 1"
     inkscape:groupmode="layer"
     id="layer1"
     transform="translate(-24.684594,-76.980789)">
    <path
       sodipodi:type="arc"
       style="fill:#ffffff;fill-opacity:1;fill-rule:nonzero;stroke:#0000ff;stroke-width:3;stroke-linecap:round;stroke-linejoin:round;stroke-miterlimit:4;stroke-opacity:1;stroke-dasharray:none;stroke-dashoffset:0"
       id="path3790"
       sodipodi:cx="449.28571"
       sodipodi:cy="378.78763"
       sodipodi:rx="297.85715"
       sodipodi:ry="297.85715"
       d="m 747.14285,378.78763 a 297.85715,297.85715 0 1 1 -595.71429,0 297.85715,297.85715 0 1 1 595.71429,0 z"
       transform="matrix(1.0954426,0,0,1.0954426,-125.33926,-0.60026322)" />
    <path
       inkscape:connector-curvature="0"
       id="path3784"
       d="m 28.140154,743.71919 c 0.7342,-0.73421 2.63992,-0.81269 4.23492,-0.17442 1.76261,0.70532 1.23905,1.22889 -1.33492,1.3349 -2.32921,0.0959 -3.63421,-0.42628 -2.9,-1.16048 z M 320.30363,741.83826 C 248.17881,729.65 190.22616,701.98502 141.79578,656.62361 87.946254,606.18645 54.892944,547.47784 40.818334,477.26952 c -2.44118,-12.17729 -4.4385,-25.51309 -4.4385,-29.63511 0,-12.76188 0.786235,9.92099 -1.304653,-5.79458 -1.464307,-11.00604 -1.525164,27.1477 -1.589504,-20.78094 -0.0488,-36.33122 -0.813402,-14.84109 0.678061,-24 0.797818,-4.89931 3.313962,-29.71619 1.241145,-16.12381 -1.852377,12.14685 0.325751,4.66233 1.960491,-9.84286 7.82469,-69.42917 41.90898,-137.95562 94.871116,-190.73835 38.84574,-38.71414 76.07916,-62.07048 127.88322,-80.22049 111.97533,-39.231531 241.80882,-11.436241 329.28226,70.49411 43.8317,41.05418 70.8472,82.78092 90.2943,139.464 9.2335,26.91335 15.43572,67.6825 15.89522,100.34938 0.4134,29.38748 -5.29684,18.89298 -6.41347,-6.34622 -7.11361,-160.79006 -143.98795,-303.412 -302.54948,-312.805041 -61.4699,-3.64142 -113.51641,6.82548 -165.75348,33.334161 -65.13983,33.05641 -111.74325,79.37257 -143.567886,142.68293 -21.45368,42.67889 -30.77969,76.54165 -34.05911,123.66881 -4.19056,60.22068 6.62688,114.46649 33.37689,167.37385 33.806436,66.86388 81.845526,114.44272 147.667276,146.25251 39.59165,19.13352 75.2251,28.50226 119.35139,31.37981 72.30415,4.71505 139.3964,-12.76716 200.17885,-52.16056 82.8075,-53.66798 138.53783,-149.58023 145.82643,-249.42633 1.8108,-24.80586 8.71686,-24.30493 4.94953,13.25714 l -2.96628,29.57528 -11.64448,39.38928 c -16.04475,54.27386 -41.2849,90.56385 -80.9859,130.08235 -50.8812,50.64724 -103.58676,78.67867 -174.85053,92.99424 -23.96811,4.81475 -81.07021,5.99431 -103.84761,2.14518 z m 17.67619,-22.54609 C 243.93806,708.01244 165.12279,661.98853 114.08947,588.55213 101.07587,569.82569 81.228514,530.44146 74.231724,509.46011 57.035984,457.89506 54.578474,398.34584 67.383284,343.51182 104.42529,184.88689 261.85675,82.172859 421.70579,112.33892 c 124.47398,23.49022 220.85908,120.52122 245.78448,247.4317 5.1846,26.39769 5.1923,78.36728 0.015,106.8835 -23.9149,131.74303 -129.94584,233.32173 -261.8832,250.8867 -21.66652,2.88448 -51.71054,3.66237 -67.64302,1.75135 z M 259.81129,554.06653 c 19.42202,-4.11679 38.31522,-13.92922 53.44601,-27.75792 16.75539,-15.31348 24.07369,-30.60164 25.37026,-52.99931 1.36938,-23.65519 -3.24139,-36.92384 -18.06553,-51.98802 l -11.30602,-11.4891 9.30329,-9.37799 c 14.54134,-14.6581 19.42052,-26.61467 19.42052,-47.59054 0,-14.89619 -0.97513,-19.66195 -6.20026,-30.30238 -16.36974,-33.33531 -67.92458,-56.99253 -109.98059,-50.46731 -35.49671,5.5075 -65.28515,25.18408 -78.79242,52.04588 -5.51632,10.97027 -10.17861,32.15098 -7.6366,34.69297 2.36452,2.36452 55.26655,9.02286 59.32253,7.46642 1.64042,-0.62947 2.98258,-3.2955 2.98258,-5.92448 0,-14.48033 19.13479,-28.50157 38.89609,-28.50157 13.21356,0 29.40893,7.46726 33.54485,15.46666 5.35171,10.35087 -0.70681,30.06875 -10.57428,34.41479 -1.82285,0.80288 -11.72163,1.84504 -21.99728,2.31596 -10.27564,0.47091 -19.50577,1.67897 -20.5114,2.68461 -1.00562,1.00562 -1.54685,13.67713 -1.20272,28.1589 l 0.62569,26.3305 23.71226,1.10476 c 22.27113,1.03762 24.08398,1.47709 29.82857,7.23118 8.87168,8.88633 8.65152,22.92674 -0.51226,32.6673 -22.4365,23.84867 -63.10405,13.30666 -70.8098,-18.35562 -1.76761,-7.26297 -0.4905,-7.20265 -33.304,-1.57265 -36.23672,6.21736 -34.38297,5.36698 -32.69966,15.0003 3.0981,17.72999 12.20196,33.32075 27.99504,47.94271 28.90172,26.75857 62.60299,36.54957 99.14513,28.80395 z m 263.60042,-4.41196 c 19.48676,-7.3348 29.16196,-13.94077 44.18706,-30.16958 20.7693,-22.43341 31.5392,-52.47328 33.7509,-94.13975 2.702,-50.90212 -10.2852,-93.20763 -37.2261,-121.26383 -22.0116,-22.92279 -59.09828,-36.60693 -89.3804,-32.97932 -57.09787,6.83998 -94.5508,47.56677 -104.93954,114.11257 -5.4828,35.12051 1.70361,82.60972 17.09847,112.98998 7.97664,15.74116 29.93767,37.07285 47.07021,45.72135 28.31578,14.29374 61.10438,16.39384 89.4394,5.72858 z m -52.38878,-59.57936 c -14.08174,-3.85228 -25.76886,-13.50413 -32.50978,-26.84823 -5.28417,-10.46038 -5.51809,-12.61228 -5.39179,-49.60143 0.14538,-42.57354 1.36215,-47.9783 14.05643,-62.43632 18.19185,-20.71937 57.27886,-20.71937 75.47071,0 10.8195,12.32276 13.11885,20.3635 14.57006,50.95111 1.74528,36.78576 -1.30749,55.37926 -11.36113,69.19738 -12.26398,16.85608 -34.24969,24.36881 -54.8345,18.73749 z"
       style="fill:#092d78;fill-opacity:1"
       sodipodi:nodetypes="sccsssssssssssssssssssssssssscsssscssssscsccsssscsssssscssssssscsssssssssssssssssssssssss" />
  </g>
</svg>
