<?xml version="1.0" encoding="UTF-8" standalone="no"?>
<!-- Created with Inkscape (http://www.inkscape.org/) -->

<svg
   xmlns:dc="http://purl.org/dc/elements/1.1/"
   xmlns:cc="http://creativecommons.org/ns#"
   xmlns:rdf="http://www.w3.org/1999/02/22-rdf-syntax-ns#"
   xmlns:svg="http://www.w3.org/2000/svg"
   xmlns="http://www.w3.org/2000/svg"
   version="1.2"
   width="48.103001"
   height="48.104"
   id="svg2">
  <metadata
     id="metadata3081">
    <rdf:RDF>
      <cc:Work
         rdf:about="">
        <dc:format>image/svg+xml</dc:format>
        <dc:type
           rdf:resource="http://purl.org/dc/dcmitype/StillImage" />
        <dc:title></dc:title>
      </cc:Work>
    </rdf:RDF>
  </metadata>
  <defs
     id="defs3079" />
  <g
     id="g3094">
    <path
       d="M 0,24.052 C 0,10.769 10.768,0 24.051,0 37.334,0 48.103,10.769 48.103,24.052 48.103,37.336 37.333,48.104 24.051,48.104 10.769,48.104 0,37.336 0,24.052"
       id="path3055"
       style="fill:#e41408" />
    <path
       d="m 6.413,24.052 c 0,-9.742 7.896,-17.638 17.638,-17.638 9.742,0 17.637,7.896 17.637,17.638 0,9.74 -7.896,17.639 -17.637,17.639 -9.741,0 -17.638,-7.899 -17.638,-17.639"
       id="path3057"
       style="fill:#ffffff" />
    <path
       d="m 10.119,27.238 c 0,-2.786 2.259,-5.044 5.044,-5.044 2.786,0 5.044,2.258 5.044,5.044 0,2.785 -2.258,5.044 -5.044,5.044 -2.785,0 -5.044,-2.259 -5.044,-5.044"
       id="path3059"
       style="fill:#1c1d20" />
    <path
       d="m 26.948,27.144 c 0,-2.8 2.269,-5.067 5.067,-5.067 2.798,0 5.068,2.268 5.068,5.067 0,2.799 -2.27,5.067 -5.068,5.067 -2.798,0 -5.067,-2.269 -5.067,-5.067"
       id="path3061"
       style="fill:#1c1d20" />
    <path
       d="m 11.509,27.214 c 0,-2.017 1.636,-3.652 3.654,-3.652 2.017,0 3.653,1.636 3.653,3.652 0,2.018 -1.636,3.653 -3.653,3.653 -2.018,0 -3.654,-1.636 -3.654,-3.653"
       id="path3063"
       style="fill:#ffffff" />
    <path
       d="m 19.806,26.719 -0.472,-1.25 -1.131,-1.507 -1.108,-0.896 -1.861,-0.282 -1.862,0.189 -1.744,1.154 -1.108,1.674 c 0,0 -0.401,-0.474 -0.377,-0.474 -0.142,-0.305 0.045,-0.496 0.045,-0.496 0.889,-1.852 2.783,-3.132 4.975,-3.132 3.046,0 5.515,2.469 5.515,5.515 0,0.191 -0.01,0.379 -0.028,0.565 0,0 -0.066,0.166 -0.231,0.26 -0.024,0 -0.495,0.118 -0.495,0.118 l -0.118,-1.438"
       id="path3065"
       style="fill:#1c1d20" />
    <path
       d="m 28.41,27.167 c 0,-2.017 1.635,-3.651 3.652,-3.651 2.017,0 3.652,1.635 3.652,3.651 0,2.019 -1.635,3.654 -3.652,3.654 -2.017,0 -3.652,-1.635 -3.652,-3.654"
       id="path3067"
       style="fill:#ffffff" />
    <path
       d="m 11.981,24.952 2.286,1.531 c 0,0 0.518,0.26 0.637,-0.141 l 0.778,-3.064 1.508,0.589 -0.801,2.734 c 0,0 -0.094,0.165 0.212,0.165 0.023,-0.023 2.404,0 2.404,0 v 1.154 h -2.569 c 0,0 -0.448,-0.094 -0.589,0.096 0,0 -0.354,0.306 -0.802,0.306 0,0 -0.989,-0.047 -1.037,-0.848 0.024,0.022 -2.475,-1.462 -2.475,-1.462 l 0.448,-1.06"
       id="path3069"
       style="fill:#1c1d20" />
    <path
       d="m 17.779,17.197 c -0.259,0.236 0,0.519 0,0.519 0,0 0.519,0.471 0.495,0.471 0.189,0.143 0.118,0.354 0.094,0.331 -0.165,0.542 0.872,0.542 0.896,0.542 0.896,0.4 1.414,1.462 1.414,1.462 0.495,0.636 1.108,2.097 1.108,2.121 0.448,1.013 1.603,1.742 1.603,1.742 l 1.178,0.308 c 1.062,0.212 1.556,-0.967 1.556,-0.967 0,0 2.569,-4.666 2.616,-4.689 0.142,-0.283 -0.094,-0.354 -0.094,-0.354 0,0 -1.533,-0.378 -1.556,-0.4 -0.354,-0.047 -0.213,-0.26 -0.213,-0.26 0,0 0.119,-0.541 0.119,-0.519 0.141,-0.282 0.305,-0.211 0.305,-0.211 0,0 3.419,-0.118 3.419,-0.095 0.636,0 0.636,0.707 0.636,0.707 0.07,0.519 -0.33,0.565 -0.33,0.59 -0.4,0.211 -0.236,0.447 -0.236,0.447 0,0 0.473,2.286 0.473,2.311 0.07,0.258 0.379,0.176 0.379,0.176 0.124,-0.009 0.249,-0.012 0.375,-0.012 2.703,0 4.967,1.879 5.555,4.403 0,0 0.031,0.382 0.195,0.477 0,0 0.331,0.377 0.307,1.531 0.024,0.023 -0.023,0.282 -0.328,0.282 -0.024,-0.024 -0.896,0.023 -0.896,0.023 L 36.66,26.979 36,25.304 l -1.319,-1.389 -1.249,-0.778 -1.674,-0.188 -1.933,0.543 -1.131,1.295 -0.26,0.731 2.051,0.283 c 0.401,0.046 0.424,-0.308 0.424,-0.283 0,-0.354 -0.377,-0.473 -0.377,-0.473 -0.424,-0.069 -0.424,-0.376 -0.424,-0.376 l -0.095,-0.73 1.084,-0.542 c 0,0 1.037,-0.023 1.061,-0.047 0.094,0.353 0,0.895 0,0.87 0,0.378 -0.306,0.355 -0.306,0.355 0,0 0.142,0.965 0.118,0.965 0.047,0.283 0.259,0.283 0.281,0.283 0.944,-0.022 0.92,0.637 0.873,0.613 0,0.282 0.354,0.212 0.354,0.212 h 2.334 l -0.023,1.154 c 0,0 -2.664,0.024 -2.664,0 -0.565,0.848 -1.533,0.684 -1.533,0.684 -0.069,0.896 -0.989,0.802 -0.989,0.802 l -1.744,-0.141 -1.366,-0.354 c 0,0 -3.842,0.284 -3.865,0.284 -0.472,0.047 -0.307,0.282 -0.307,0.234 -0.024,0.283 0.424,0.236 0.401,0.26 0.259,0 0.235,0.235 0.235,0.235 0,0 -0.023,0.282 0,0.26 0,0.259 -0.235,0.259 -0.235,0.259 0,0 -2.122,0.071 -2.122,0.094 -0.259,0 -0.164,-0.211 -0.164,-0.211 0,0 -0.024,-0.425 0,-0.425 -0.024,-0.282 0.188,-0.235 0.188,-0.235 h 0.378 c 0,0 0.258,-0.731 0.282,-0.731 0.189,-0.519 -0.118,-0.659 -0.118,-0.659 -0.495,-0.449 -0.377,-1.037 -0.377,-1.014 -0.024,-0.707 0.259,-1.107 0.236,-1.061 0.259,-0.425 -0.094,-0.614 -0.094,-0.614 0,0 -1.91,-1.436 -1.957,-1.483 -0.282,-0.188 -0.33,0.165 -0.33,0.165 L 19.197,23.679 18.089,22.878 16.627,22.17 c 0,0 -0.824,-0.448 -0.848,-0.424 0.306,-0.024 0.33,-0.236 0.33,-0.236 0,0 -0.024,-0.565 0,-0.565 0,-0.329 -0.213,-0.164 -0.235,-0.164 -0.779,0.424 -0.637,-0.33 -0.637,-0.33 0,0 -0.024,-1.391 0,-1.414 0,-0.378 0.33,-0.354 0.33,-0.354 0,0 0.754,-0.023 0.754,0 0.448,0 0.024,-0.282 0,-0.329 -0.778,-0.448 -0.589,-0.802 -0.566,-0.826 0,-0.612 0.543,-0.895 0.543,-0.895 0,0 2.262,-1.273 2.286,-1.273 0.211,-0.142 0.306,-0.142 0.306,-0.142 0,0 0.966,-0.047 0.966,0 0.307,0.023 0.401,0.095 0.401,0.095 0,0 0.256,0.187 0.303,0.187 0.307,0.165 0.047,0.448 0.047,0.448 0,0 -0.188,0.377 -0.212,0.377 -0.117,0.188 -0.377,0.141 -0.377,0.141 h -0.895 c 0,0 -0.118,-0.022 -0.378,0.144 0.024,-0.026 -0.99,0.587 -0.966,0.587"
       id="path3071"
       style="fill:#1c1d20" />
    <path
       d="m 29.117,20.969 c 0,0.023 -1.085,2.168 -1.085,2.168 0,0 -0.094,0.33 0.235,0.095 0,-0.024 1.061,-0.85 1.061,-0.85 0,0 0.188,-0.047 0.213,-0.26 -0.024,0.024 -0.166,-1.13 -0.166,-1.13 0,0 -0.141,-0.282 -0.258,-0.023"
       id="path3073"
       style="fill:#ffffff" />
    <path
       d="m 17.59,21.252 c 0,0 -0.07,0.211 0.26,0.376 0,0.024 1.508,1.179 1.508,1.179 0,0 0.26,0.142 0.165,-0.117 0,-0.047 -0.447,-0.638 -0.424,-1.062 -0.023,-0.023 0.118,-0.259 -0.259,-0.283 0,-0.022 -0.377,0 -0.377,0 L 17.85,20.78 c 0,0 -0.26,-0.165 -0.26,0.022 -0.023,0.024 0,0.45 0,0.45"
       id="path3075"
       style="fill:#ffffff" />
  </g>
</svg>
