<?xml version="1.0" encoding="UTF-8" standalone="no"?>
<!-- Created with Inkscape (http://www.inkscape.org/) -->

<svg
   xmlns:dc="http://purl.org/dc/elements/1.1/"
   xmlns:cc="http://creativecommons.org/ns#"
   xmlns:rdf="http://www.w3.org/1999/02/22-rdf-syntax-ns#"
   xmlns:svg="http://www.w3.org/2000/svg"
   xmlns="http://www.w3.org/2000/svg"
   version="1.2"
   width="48.103001"
   height="48.102001"
   id="svg2">
  <metadata
     id="metadata3077">
    <rdf:RDF>
      <cc:Work
         rdf:about="">
        <dc:format>image/svg+xml</dc:format>
        <dc:type
           rdf:resource="http://purl.org/dc/dcmitype/StillImage" />
        <dc:title></dc:title>
      </cc:Work>
    </rdf:RDF>
  </metadata>
  <defs
     id="defs3075" />
  <g
     id="g3091">
    <path
       d="M 0,24.051 C 0,10.768 10.768,0 24.051,0 37.334,0 48.103,10.768 48.103,24.051 48.103,37.335 37.333,48.102 24.051,48.102 10.769,48.102 0,37.335 0,24.051"
       id="path3053"
       style="fill:#e41408" />
    <path
       d="m 6.413,24.051 c 0,-9.741 7.896,-17.638 17.638,-17.638 9.742,0 17.637,7.896 17.637,17.638 0,9.742 -7.896,17.638 -17.637,17.638 -9.741,0 -17.638,-7.897 -17.638,-17.638"
       id="path3055"
       style="fill:#ffffff" />
    <path
       d="m 14.056,26.907 c 0,-1.81 1.466,-3.276 3.275,-3.276 1.81,0 3.276,1.467 3.276,3.276 0,1.809 -1.466,3.275 -3.276,3.275 -1.809,0.001 -3.275,-1.465 -3.275,-3.275"
       id="path3057"
       style="fill:#1c1d20" />
    <path
       d="m 14.88,26.907 c 0,-1.354 1.097,-2.451 2.451,-2.451 1.355,0 2.452,1.098 2.452,2.451 0,1.353 -1.097,2.451 -2.452,2.451 -1.354,0 -2.451,-1.097 -2.451,-2.451"
       id="path3059"
       style="fill:#ffffff" />
    <path
       d="m 30.082,18.587 c 0,-0.612 0.496,-1.107 1.108,-1.107 0.612,0 1.108,0.495 1.108,1.107 0,0.611 -0.496,1.107 -1.108,1.107 -0.612,0 -1.108,-0.496 -1.108,-1.107"
       id="path3061"
       style="fill:#1c1d20" />
    <path
       d="m 30.86,20.262 c 0,0 0.259,-0.33 1.062,-0.33 0,0 1.106,0.023 1.248,1.248 0,0.024 0.425,3.394 0.425,3.394 l 2.334,5.139 c 0,0 0.258,0.565 -0.284,0.896 0,-0.024 -0.613,0.4 -0.895,-0.166 l -1.91,-4.22 c 0,0 -0.188,-0.352 -0.471,-0.092 l -1.014,0.87 c 0,0 -0.26,0.33 -0.07,0.708 0,-0.023 1.014,1.956 1.014,1.956 0,0 0.283,0.471 -0.26,0.802 -0.047,0.047 -0.59,0.399 -0.896,-0.118 l -1.438,-2.735 c 0,0 -0.33,-0.683 0.071,-1.083 -0.022,0 1.838,-1.65 1.838,-1.65 0,0 0.212,-0.165 0.095,-0.424 l -0.777,-1.531 c 0,0 -0.143,-0.309 -0.354,-0.025 -0.048,0.025 -1.461,1.579 -1.461,1.579 0,0 -0.496,0.378 -0.873,-0.046 -0.023,0 -0.496,-0.331 -0.047,-0.943 l 2.663,-3.229"
       id="path3063"
       style="fill:#1c1d20" />
    <path
       d="m 10.19,26.152 c 0,0 -0.047,-0.212 0.235,-0.259 -0.023,0 16.995,-1.957 16.995,-1.957 0,0 0.142,-0.117 0.213,0.118 0,-0.023 0.021,0.802 0.021,0.802 0,0 0.047,0.211 -0.259,0.235 l -16.804,1.863 c 0,0 -0.26,0.094 -0.306,-0.119 -0.024,-0.022 -0.095,-0.683 -0.095,-0.683"
       id="path3065"
       style="fill:#1c1d20" />
    <path
       d="m 24.349,25.038 0.516,-0.062 0.536,4.356 -0.516,0.063 -0.536,-4.357"
       id="polyline3067"
       style="fill:#1c1d20" />
    <path
       d="m 22.02,25.252 0.328,-0.405 2.677,2.168 -0.328,0.405 -2.677,-2.168"
       id="polyline3069"
       style="fill:#1c1d20" />
    <path
       d="m 16.482,26.907 c 0,-0.469 0.381,-0.849 0.849,-0.849 0.469,0 0.848,0.38 0.848,0.849 0,0.468 -0.379,0.849 -0.848,0.849 -0.468,0 -0.849,-0.381 -0.849,-0.849"
       id="path3071"
       style="fill:#1c1d20" />
  </g>
</svg>
