<?xml version="1.0" encoding="UTF-8" standalone="no"?>
<!-- Created with Inkscape (http://www.inkscape.org/) -->

<svg
   xmlns:dc="http://purl.org/dc/elements/1.1/"
   xmlns:cc="http://creativecommons.org/ns#"
   xmlns:rdf="http://www.w3.org/1999/02/22-rdf-syntax-ns#"
   xmlns:svg="http://www.w3.org/2000/svg"
   xmlns="http://www.w3.org/2000/svg"
   xmlns:sodipodi="http://sodipodi.sourceforge.net/DTD/sodipodi-0.dtd"
   xmlns:inkscape="http://www.inkscape.org/namespaces/inkscape"
   width="678.02466"
   height="670.93048"
   id="svg2"
   version="1.1"
   inkscape:version="0.48.0 r9654"
   sodipodi:docname="señal r406 camiones.svg">
  <defs
     id="defs4" />
  <sodipodi:namedview
     id="base"
     pagecolor="#ffffff"
     bordercolor="#666666"
     borderopacity="1.0"
     inkscape:pageopacity="0.0"
     inkscape:pageshadow="2"
     inkscape:zoom="0.49497475"
     inkscape:cx="139.67203"
     inkscape:cy="316.76821"
     inkscape:document-units="px"
     inkscape:current-layer="layer1"
     showgrid="false"
     fit-margin-top="0"
     fit-margin-left="0"
     fit-margin-right="0"
     fit-margin-bottom="0"
     inkscape:window-width="1280"
     inkscape:window-height="750"
     inkscape:window-x="-8"
     inkscape:window-y="-8"
     inkscape:window-maximized="1" />
  <metadata
     id="metadata7">
    <rdf:RDF>
      <cc:Work
         rdf:about="">
        <dc:format>image/svg+xml</dc:format>
        <dc:type
           rdf:resource="http://purl.org/dc/dcmitype/StillImage" />
        <dc:title></dc:title>
      </cc:Work>
    </rdf:RDF>
  </metadata>
  <g
     inkscape:label="Capa 1"
     inkscape:groupmode="layer"
     id="layer1"
     transform="translate(-24.684594,-76.980789)">
    <path
       sodipodi:type="arc"
       style="fill:#ffffff;fill-opacity:1;fill-rule:nonzero;stroke:#0000ff;stroke-width:1;stroke-linecap:round;stroke-linejoin:round;stroke-miterlimit:4;stroke-opacity:1;stroke-dasharray:none;stroke-dashoffset:0"
       id="path3793"
       sodipodi:cx="433.35544"
       sodipodi:cy="381.01669"
       sodipodi:rx="302.03561"
       sodipodi:ry="302.03561"
       d="m 735.39105,381.01669 c 0,166.80967 -135.22595,302.03562 -302.03561,302.03562 -166.80967,0 -302.03562,-135.22595 -302.03562,-302.03562 0,-166.80966 135.22595,-302.035611 302.03562,-302.035611 166.80966,0 302.03561,135.225951 302.03561,302.035611 z"
       transform="matrix(1.0934907,0,0,1.0934907,-108.74385,-1.0468364)" />
    <path
       inkscape:connector-curvature="0"
       id="path3767"
       d="m 26.841504,749.07738 c 0.73549,-0.73548 2.64453,-0.81409 4.24231,-0.17472 1.76569,0.70656 1.24121,1.23103 -1.33725,1.33724 -2.33326,0.096 -3.64054,-0.42704 -2.90506,-1.16252 z M 319.51418,747.20344 C 280.07877,740.51648 254.40901,732.60157 221.98394,717.13145 120.41585,668.67288 47.197564,566.78811 35.837984,458.10552 c -0.75518,-7.2251 -2.07014,-13.13656 -2.92215,-13.13656 -0.852,0 1.62702,-17.88765 0.40103,-9.67049 -1.82462,12.22952 0.0784,33.55232 0.014,-14.45985 -0.0488,-36.39453 -0.77682,-16.75303 0.35948,-11.25953 1.0072,4.86943 0.49562,-19.94988 0.56576,-15.99346 0.21823,12.30675 0.18916,-3.25415 1.82674,-17.78463 7.15958,-63.52747 39.82774,-133.01817 85.364996,-181.58566 41.51913,-44.28201 84.74229,-72.02053 141.84258,-91.02768 141.81995,-47.208041 297.9724,9.25689 381.52405,137.95959 13.68496,21.08028 25.76756,46.96181 35.94925,77.00511 7.74338,22.84857 8.11959,25.3482 8.59294,57.0953 0.43708,29.31383 0.28055,30.99811 -1.33707,14.38693 C 678.8102,295.06512 629.67887,209.04685 554.1319,155.22639 465.75832,92.268109 347.09188,76.613592 249.7929,115.07789 146.20252,156.02931 72.183114,241.57921 48.328944,347.92521 c -23.93821,106.72071 9.59533,221.60363 87.459616,299.62884 56.01215,56.12793 126.48437,88.20292 205.94365,93.73394 60.46413,4.20879 115.73804,-6.61064 167.04234,-32.69721 46.52225,-23.65506 76.22273,-47.30917 108.67581,-86.55186 39.42317,-47.671 65.20788,-112.59631 70.55146,-177.6469 1.73908,-21.17109 1.82735,-20.25857 1.3405,13.85718 -0.49429,34.63611 -0.8975,37.66286 -7.81376,58.65442 -18.06995,54.84427 -42.77891,95.11652 -82.80161,134.9554 -49.32282,49.09628 -103.19571,78.24594 -170.05958,92.01618 -29.16225,6.00581 -83.57765,7.66502 -109.15316,3.32824 z M 337.22117,724.6078 C 261.53217,715.52937 197.58531,685.19473 147.44273,634.58213 59.313314,545.62661 33.877954,414.95065 82.125444,299.00988 108.87481,234.73004 163.04262,176.32884 224.49225,145.51664 300.71016,107.2993 380.35034,101.2048 461.18143,127.40391 c 105.76639,34.28117 186.12554,127.27812 206.25321,238.68992 4.46573,24.71894 4.92372,75.18288 0.90576,99.80223 -21.96806,134.6056 -129.39135,239.14869 -263.97727,256.89967 -22.83475,3.01174 -50.83884,3.76754 -67.14196,1.81207 z m 52.45697,-107.43831 c -1.42025,-1.42026 -3.31703,-1.8475 -4.21507,-0.94944 -0.89807,0.89804 -0.19656,2.52052 1.55903,3.60549 4.13367,2.55475 6.00026,0.68816 2.65604,-2.65605 z m -24.23644,1.23539 c 10.48815,-1.73357 10.54814,-3.87097 0.18215,-6.48911 -5.91681,-1.49446 -9.06764,-3.98729 -11.62021,-9.19362 -4.22376,-8.61493 -8.05472,-9.08773 -13.85783,-1.71029 -2.39394,3.04338 -5.91353,5.53344 -7.82136,5.53344 -3.45359,0 -9.28575,5.99541 -9.4198,9.68351 -0.0387,1.06518 2.66866,1.38898 6.01639,0.71953 3.34773,-0.66944 9.57284,-0.39789 13.83359,0.60345 10.16182,2.38818 12.79972,2.48738 22.68709,0.85309 z m 42.37065,-4.2938 c 0.73893,-1.9256 1.34349,-17.16468 1.34349,-33.86464 0,-31.96853 -1.04995,-35.67562 -10.10436,-35.67562 -6.15958,0 -16.20294,-7.89937 -18.83067,-14.8108 -1.12414,-2.95678 -2.93537,-4.82501 -4.02493,-4.15163 -2.99653,1.85195 -22.37439,51.44769 -22.37439,57.26502 0,5.95364 3.81826,10.39163 8.94052,10.39163 1.99564,0 6.80068,3.48607 10.67787,7.74682 3.87719,4.26075 8.907,7.74681 11.17732,7.74681 2.27032,0 6.47923,1.9589 9.35316,4.35311 6.35893,5.29752 12.03535,5.70732 13.84199,0.9993 z m 21.18027,-3.22899 c 4.21474,-3.6026 8.55709,-6.55017 9.64966,-6.55017 3.3625,0 28.04722,-26.83438 29.27303,-31.82226 1.09509,-4.4559 -12.52712,-42.10124 -16.86764,-46.6142 -1.20873,-1.25674 -2.55753,0.73382 -3.4203,5.04772 -1.73422,8.67116 -10.97898,16.55484 -17.49511,14.91937 -2.56796,-0.6445 -6.84416,0.35169 -9.50267,2.21378 -4.60258,3.22378 -4.83362,4.96666 -4.83362,36.46072 0,36.73147 0.31336,37.35709 13.19665,26.34504 z m -118.53548,-3.23012 c 1.99411,-3.04338 4.93208,-5.53343 6.52883,-5.53343 1.59673,0 5.56553,-2.98805 8.81954,-6.64011 3.254,-3.65208 6.96347,-6.64014 8.2433,-6.64014 1.27981,0 1.7268,-0.97102 0.99332,-2.15783 -0.7335,-1.1868 -5.52338,-1.62008 -10.64416,-0.96282 -6.8562,0.87999 -11.6219,-0.009 -18.0787,-3.3756 -5.78828,-3.01729 -12.94549,-4.57061 -21.05983,-4.57061 -8.063,0 -15.13316,-1.52294 -20.55103,-4.42675 -11.60775,-6.22137 -12.07642,-5.6139 -3.22635,4.18208 4.27766,4.73484 8.39993,10.56975 9.16062,12.96643 0.76068,2.39669 5.29015,6.11948 10.06551,8.27287 4.77535,2.15337 10.90278,6.27866 13.61652,9.16729 6.34315,6.75198 11.5839,6.66059 16.13243,-0.28138 z m 58.85796,-3.08324 c 0,-2.45479 -6.80927,-5.23222 -8.55285,-3.48863 -0.70353,0.70354 0.18614,2.20576 1.97683,3.33828 4.13869,2.61739 6.57602,2.67311 6.57602,0.15029 z m -47.58756,-26.7973 c -0.75237,-1.21736 -4.54622,-2.19813 -8.43078,-2.17949 -5.37423,0.0258 -6.26905,0.54688 -3.74277,2.17949 4.38969,2.83683 13.92682,2.83683 12.17355,0 z m 12.23954,-4.30348 c -1.26673,-2.36693 -3.29383,-4.91573 -4.50463,-5.66406 -1.21081,-0.74831 -2.21959,-4.53888 -2.24175,-8.42343 -0.0234,-4.12605 -2.77544,-11.09922 -6.61823,-16.77015 -5.4945,-8.10845 -6.35268,-11.11607 -5.21026,-18.26033 1.64789,-10.30544 -1.98362,-11.50697 -6.77494,-2.2416 -3.79552,7.33972 -12.47863,13.60893 -18.84894,13.60893 -2.7177,0 -5.80312,2.62093 -7.93214,6.738 -3.72397,7.20136 -15.15875,15.37386 -21.52978,15.38747 -2.13038,0.004 -3.87341,1.0386 -3.87341,2.29788 0,1.46514 3.95198,1.76536 10.97482,0.83376 8.99427,-1.19315 12.44102,-0.59078 19.09948,3.33779 5.86494,3.46041 12.33262,4.92144 23.25413,5.25305 11.00483,0.33412 16.18527,1.51534 19.00219,4.33276 5.1638,5.16473 8.06919,4.92461 5.20346,-0.43007 z m -52.08027,-4.55003 c -0.75237,-1.21735 -3.79922,-2.21337 -6.77075,-2.21337 -2.97155,0 -5.40281,0.99602 -5.40281,2.21337 0,1.21737 3.04684,2.21338 6.77075,2.21338 3.95021,0 6.20091,-0.92205 5.40281,-2.21338 z m 79.67477,-28.44996 c 5.75389,-14.55524 7.83714,-22.77117 7.01533,-27.66718 -1.15033,-6.85316 -8.55181,-34.90922 -9.65748,-36.60764 -1.53604,-2.35947 -30.46253,26.00474 -33.19878,32.55346 -2.96227,7.08969 -2.81242,8.02587 2.51526,15.71371 3.45822,4.99023 5.6652,11.21169 5.6652,15.97025 0,5.40918 1.65865,9.35359 5.41862,12.88589 2.98025,2.79979 6.0894,8.14451 6.9092,11.87714 l 1.4906,6.78663 2.8289,-5.40455 c 1.55589,-2.97249 6.51181,-14.72097 11.01315,-26.10771 z m 121.69333,-0.26978 c 2.03058,-2.24376 4.21455,-7.39542 4.85327,-11.44811 0.6387,-4.05269 2.60941,-10.16886 4.37933,-13.59151 1.81941,-3.51835 2.5869,-8.33933 1.76589,-11.09246 -1.8259,-6.12275 -25.4339,-30.5243 -27.99829,-28.93941 -1.0454,0.64609 -1.2682,4.54634 -0.49514,8.66725 1.04066,5.54715 0.19633,9.44926 -3.25213,15.02892 -6.17488,9.99113 -5.87397,19.86375 1.1297,37.06619 3.18312,7.81836 6.75064,16.70525 7.9278,19.74863 2.11844,5.47689 2.17027,5.44711 5.06896,-2.91324 1.61074,-4.64565 4.59002,-10.28247 6.62061,-12.52626 z m -229.21634,6.3575 c 2.79302,-3.77773 9.20544,-8.70578 14.24985,-10.95121 5.0444,-2.24542 12.46863,-7.59844 16.49828,-11.8956 4.20537,-4.48454 11.04167,-8.81337 16.04697,-10.16116 10.68741,-2.87783 11.38924,-6.60427 1.2438,-6.60427 -10.22468,0 -21.1322,-4.94299 -28.90492,-13.09895 -3.57549,-3.75177 -8.05757,-6.82698 -9.96018,-6.83377 -8.49353,-0.0303 -20.43228,-5.12759 -26.70758,-11.40289 -3.757,-3.757 -7.48225,-6.17957 -8.27832,-5.3835 -0.79608,0.79607 -0.25337,5.91177 1.20601,11.3682 1.45937,5.45646 2.6534,14.98187 2.6534,21.1676 0,7.81046 1.39401,13.20447 4.5625,17.6542 2.50937,3.52409 5.06393,10.15195 5.67681,14.7286 2.80759,20.96556 3.87893,22.00943 11.71338,11.41275 z m 15.67468,-0.87819 c 3.53159,-4.25531 -0.0714,-4.30009 -5.66374,-0.0704 -3.60948,2.73006 -3.72044,3.26093 -0.69404,3.32006 1.98129,0.0387 4.8423,-1.42364 6.35778,-3.24967 z m 159.29801,-11.48701 c 2.5757,-3.27449 7.22949,-7.50757 10.34174,-9.40684 6.67536,-4.07374 12.10935,-18.23825 10.35737,-26.9981 -0.84006,-4.20041 0.36846,-8.87911 3.76156,-14.56241 5.42671,-9.08947 7.49205,-17.9012 6.63172,-28.29399 -0.8888,-10.73661 -0.63331,-14.62463 2.08314,-31.70159 1.73502,-10.90718 1.85018,-17.08516 0.35212,-18.89021 -1.28641,-1.55006 -1.89506,-11.89079 -1.44186,-24.49743 0.66729,-18.56252 0.11775,-23.09358 -3.68502,-30.38957 -3.1304,-6.00581 -4.06077,-10.75195 -3.10563,-15.8432 0.90209,-4.80856 0.25808,-8.73066 -1.9027,-11.58799 -1.79649,-2.37558 -3.298,-6.04976 -3.33674,-8.16488 -0.0387,-2.11509 -4.01162,-6.33363 -8.8287,-9.37452 -4.8171,-3.04089 -9.83223,-7.53547 -11.14477,-9.98794 -1.83668,-3.43187 -4.62818,-4.45907 -12.11799,-4.45907 -8.28659,0 -10.43368,0.98596 -14.45979,6.64013 -2.60048,3.65206 -6.1544,6.64012 -7.89751,6.64012 -4.27017,0 -4.05514,2.69986 2.30799,28.97896 13.86502,57.26095 12.37818,126.24822 -3.85953,179.07824 l -3.06133,9.96018 8.98922,9.40684 c 7.40141,7.74527 10.43274,9.40685 17.16142,9.40685 6.23452,0 9.28258,-1.41163 12.85529,-5.95358 z m -35.34905,-1.79323 c -1.56429,-1.88486 -3.34219,-2.92902 -3.95086,-2.32035 -0.60868,0.60868 0.17308,2.64885 1.7375,4.53372 1.56429,1.88487 3.34219,2.92902 3.95087,2.32035 0.60867,-0.60868 -0.17309,-2.64885 -1.73751,-4.53372 z m 46.06586,1.24503 c 0.55334,-1.66004 -0.27667,-2.49005 -1.9367,-1.93671 -1.59779,0.53258 -3.34082,2.27561 -3.8734,3.87341 -0.55335,1.66003 0.27667,2.49004 1.93669,1.9367 1.59777,-0.53261 3.34081,-2.27563 3.87341,-3.8734 z M 297.5173,522.94282 c -0.74192,-0.74193 -3.06826,0.45115 -5.16967,2.65127 -3.65255,3.82416 -3.59318,3.88351 1.34897,1.34895 2.8433,-1.45819 4.56263,-3.25829 3.8207,-4.00022 z m 16.46344,-25.46706 c 0,-1.55519 -1.62273,-5.14435 -3.60607,-7.97596 -2.70924,-3.868 -3.30041,-8.10986 -2.37708,-17.05625 0.84309,-8.16879 0.12993,-14.70597 -2.27139,-20.819 -2.93259,-7.46564 -3.06068,-10.37881 -0.78958,-17.95903 3.41391,-11.39467 1.76008,-13.17018 -5.23604,-5.62124 -6.52175,7.03707 -14.27277,10.28455 -24.54698,10.28455 -5.65806,0 -8.48178,1.4195 -11.26087,5.66095 -4.53042,6.9143 -19.77058,15.02922 -25.44076,13.54642 -2.28157,-0.59663 -4.70609,-0.18237 -5.38783,0.92079 -0.68173,1.10308 1.28916,2.00559 4.37976,2.00559 9.25619,0 23.17098,6.71958 28.02185,13.53199 3.16669,4.4472 6.43867,6.38838 10.76803,6.38838 9.04101,0 20.20473,5.28919 27.64753,13.09894 6.9552,7.29814 10.09943,8.54152 10.09943,3.99387 z m -19.92038,-3.81257 c -4.89562,-3.82942 -15.49362,-6.14877 -15.49362,-3.39075 0,1.99122 12.21168,7.64062 16.60032,7.67968 4.04172,0.0361 3.94547,-0.33708 -1.1067,-4.28893 z m 46.544,-11.88137 c 15.87231,-15.08286 15.99511,-15.28833 15.74603,-26.34377 -0.13811,-6.12831 -0.64664,-11.538 -1.13017,-12.02153 -0.48353,-0.48354 0.0299,-4.92501 1.14093,-9.86995 2.99644,-13.33618 0.45062,-15.1381 -21.38757,-15.1381 -21.11281,0 -22.69105,1.41031 -17.20562,15.37486 2.96795,7.55571 3.10435,10.47179 0.84271,18.02039 -2.31962,7.74217 -2.17344,9.80691 1.04163,14.7137 2.92994,4.47168 3.44305,8.54723 2.36939,18.81952 -0.77391,7.40427 -0.50944,12.79282 0.60756,12.37906 1.08792,-0.40301 9.17671,-7.57339 17.97511,-15.93418 z m 119.45909,8.56132 c 0,-1.82604 -0.99602,-3.32006 -2.21337,-3.32006 -1.21735,0 -2.21338,1.49402 -2.21338,3.32006 0,1.82603 0.99603,3.32005 2.21338,3.32005 1.21735,0 2.21337,-1.49402 2.21337,-3.32005 z m 38.39745,-14.8774 c 0.76797,-7.64305 1.65589,-22.36264 1.97315,-32.71016 l 0.57683,-18.81368 -14.94028,-0.65448 c -16.36719,-0.71697 -16.77627,-0.31042 -12.25869,12.18275 2.28671,6.32377 2.09089,8.51271 -1.32976,14.86447 -2.6271,4.87821 -3.45318,9.20739 -2.39381,12.54514 1.92087,6.05214 23.02383,28.92517 25.35659,27.48346 0.89082,-0.55056 2.24799,-7.25444 3.01597,-14.8975 z m -241.88538,-0.44449 c -3.28341,-3.95628 -15.63614,-8.42832 -15.63614,-5.66072 0,2.38638 10.82545,8.59249 15.21129,8.72042 2.37663,0.0692 2.46908,-0.59658 0.42485,-3.0597 z m -1.30813,-40.88924 c 5.98711,-1.11853 12.01884,-3.58341 13.40384,-5.47751 1.38502,-1.89411 6.71749,-5.82909 11.84995,-8.74437 l 9.33174,-5.30052 -6.9169,-2.86509 c -3.80428,-1.57579 -9.99644,-6.69713 -13.76033,-11.38081 -5.26084,-6.54642 -8.42132,-8.51888 -13.66647,-8.52938 -8.58861,-0.0177 -18.12243,-4.91818 -23.93039,-12.30181 -5.85247,-7.44021 -8.63785,-4.35509 -6.13295,6.79286 1.15399,5.13589 1.17749,12.47476 0.0558,17.44803 -1.18706,5.2633 -1.09119,10.80549 0.24784,14.32742 1.20107,3.15903 2.03717,10.74573 1.85797,16.85927 -0.1792,6.11354 -0.24088,11.90951 -0.1371,12.87987 0.10379,0.97039 3.95129,-1.25936 8.55,-4.95499 4.99493,-4.01402 12.74403,-7.5381 19.24696,-8.75297 z m 213.64956,6.27956 c 0,-2.50655 -0.99602,-3.94179 -2.21337,-3.18942 -1.21735,0.75237 -2.21338,2.80319 -2.21338,4.55738 0,1.75418 0.99603,3.18943 2.21338,3.18943 1.21735,0 2.21337,-2.05083 2.21337,-4.55739 z m 33.89646,-27.26401 c 0.64319,-1.67615 0.21757,-7.28446 -0.94603,-12.46291 -1.38813,-6.17806 -1.33884,-11.78923 0.14342,-16.31948 1.68318,-5.14461 1.42696,-9.65186 -1.00537,-17.68588 -1.79532,-5.92996 -2.66956,-13.15109 -1.94274,-16.04697 2.08903,-8.3233 -1.96089,-6.26163 -15.42179,7.85071 -13.17138,13.80882 -14.10659,16.46312 -9.89972,28.09704 2.04847,5.66496 1.98894,9.1041 -0.2764,15.96821 -1.58796,4.81155 -2.20603,9.85043 -1.37347,11.19754 2.29155,3.7078 29.27141,3.1824 30.72219,-0.59826 z M 357.76304,394.06134 c 1.28442,-34.30783 2.52129,-30.52879 -15.39327,-47.03104 -15.14743,-13.95326 -21.84459,-17.42412 -19.75849,-10.24002 2.93544,10.10915 2.67486,16.64325 -0.93073,23.33842 -3.25509,6.04437 -3.51151,8.40832 -1.41189,13.01653 3.739,8.20618 3.12525,16.7028 -1.73964,24.08269 -3.19084,4.84044 -3.71765,7.53002 -2.07574,10.59791 1.92897,3.60435 4.57307,4.03263 21.44427,3.47354 l 19.24399,-0.63771 z m -52.49585,2.47489 c -3.32263,-6.2084 -2.92128,-14.87664 1.04384,-22.54437 2.8005,-5.41557 2.94123,-8.09116 0.80123,-15.23384 -2.25421,-7.52394 -2.00957,-9.84956 1.85859,-17.6678 5.04039,-10.18754 4.3285,-11.54795 -1.89965,-3.63016 -5.1767,6.58112 -17.53149,10.93767 -25.84196,9.11238 -4.85345,-1.066 -7.33973,-0.10934 -11.61254,4.46796 -7.60803,8.15025 -20.35603,14.21941 -30.24918,14.40124 l -8.38833,0.15415 10.21267,3.14517 c 5.61697,1.72982 13.8704,6.49548 18.34095,10.59035 5.72857,5.24715 9.64845,7.15463 13.27735,6.46091 7.17161,-1.37094 22.08691,6.7591 28.23159,15.38849 3.94688,5.54291 5.30778,6.35254 5.85978,3.48618 0.39546,-2.0534 -0.34,-5.71218 -1.63434,-8.13066 z m 162.73874,-6.33709 c -2.41789,-2.4179 -4.07589,1.42731 -2.33994,5.42677 1.64604,3.79233 1.76537,3.78887 2.68248,-0.0777 0.52788,-2.22566 0.37375,-4.6327 -0.34254,-5.349 z m -154.90132,-8.8186 c -0.7355,-0.73548 -1.2586,0.57181 -1.1625,2.90506 0.10623,2.57847 0.63068,3.10292 1.33723,1.33726 0.63938,-1.5978 0.56076,-3.50684 -0.17464,-4.24232 z M 496.9846,332.35831 c 0.77842,-3.08525 -0.14033,-7.74695 -2.22083,-11.26905 -1.95165,-3.30385 -4.20653,-10.12238 -5.01082,-15.15224 -0.80432,-5.02987 -3.8294,-12.35354 -6.72244,-16.27482 -2.89303,-3.92128 -5.26006,-8.92813 -5.26006,-11.12635 0,-8.69046 -4.43267,-3.14704 -10.90599,13.63887 -8.29845,21.51855 -8.44926,26.97963 -1.01438,36.72727 5.01256,6.57181 5.5867,8.91981 4.29211,17.55283 -0.82201,5.48138 -0.81691,11.06254 0.0111,12.40258 2.00134,3.23821 25.07882,-19.55368 26.83115,-26.49909 z m -250.92104,10.93623 c 3.42697,-1.2948 10.47449,-2.35419 15.66116,-2.35419 7.34587,0 10.61629,-1.28609 14.79618,-5.81869 6.48867,-7.03619 17.23174,-11.8883 26.32187,-11.8883 3.69118,0 6.71122,-1.03969 6.71122,-2.31041 0,-1.27072 -1.24503,-2.14872 -2.76672,-1.95111 -8.99222,1.16769 -14.12523,-1.08871 -23.03411,-10.12542 -6.44418,-6.53667 -11.72357,-9.96018 -15.35957,-9.96018 -7.70584,0 -17.31144,-5.37709 -22.61731,-12.66089 -2.46186,-3.37958 -5.27251,-5.34828 -6.2459,-4.37489 -1.88139,1.88139 -4.16537,17.34319 -7.09386,48.02303 -0.9877,10.34752 -2.62033,20.80571 -3.62807,23.24043 -1.50155,3.62778 -0.67204,3.35359 4.596,-1.51922 3.53554,-3.27029 9.23213,-7.00536 12.65911,-8.30016 z m 9.15209,8.46393 c 3.73307,-3.4879 -4.34542,-2.1495 -8.87313,1.47005 -4.12906,3.30085 -4.08087,3.37739 1.23698,1.96459 3.0434,-0.80852 6.47966,-2.35411 7.63615,-3.43464 z m 107.45932,-6.30942 c 0,-4.82436 1.99204,-13.82541 4.42675,-20.00231 2.43471,-6.17692 4.43552,-12.93692 4.44621,-15.02222 0.0333,-6.47721 -20.43281,-51.58359 -23.01449,-50.72302 -1.34352,0.44783 -3.01459,4.33212 -3.71347,8.63173 -0.69888,4.2996 -3.44154,10.57724 -6.09478,13.9503 -2.92516,3.71873 -4.82982,9.28256 -4.83866,14.13449 -0.009,4.4009 -1.93882,10.92065 -4.29063,14.48831 -3.40635,5.16731 -3.77821,7.41684 -1.82836,11.06016 2.69721,5.03979 30.59893,32.03804 33.24741,32.17087 0.91301,0.0458 1.66002,-3.86395 1.66002,-8.68831 z m 101.81523,-5.61538 c 0,-3.04339 -0.99602,-5.53343 -2.21337,-5.53343 -2.47271,0 -3.03387,7.29519 -0.73778,9.59128 2.43989,2.43989 2.95115,1.7369 2.95115,-4.05785 z m -169.19285,-4.35636 c 2.36304,-1.78731 3.24181,-3.28134 1.95277,-3.32007 -1.28902,-0.0387 -4.27707,1.39197 -6.64011,3.1793 -2.36304,1.7873 -3.24181,3.28132 -1.95277,3.32005 1.28901,0.0387 4.27707,-1.39197 6.64011,-3.17928 z m 23.11014,-30.71458 c 0,-6.80618 1.29387,-10.7881 4.42675,-13.6233 2.67289,-2.41893 4.42675,-6.81712 4.42675,-11.10104 0,-3.9022 2.46003,-10.71995 5.46672,-15.15058 3.00671,-4.43062 5.05568,-8.05568 4.55327,-8.05568 -0.5024,0 -4.4979,2.11485 -8.87885,4.69968 -6.39196,3.77136 -10.04394,4.42396 -18.48814,3.30379 -8.96722,-1.18954 -11.60304,-0.59887 -17.83065,3.99571 -4.01934,2.96537 -11.20791,6.0505 -15.97462,6.85584 l -8.66673,1.46422 5.59575,6.99404 c 3.07765,3.84671 6.61601,8.23904 7.86301,9.76074 1.24699,1.5217 5.87312,2.76672 10.28026,2.76672 6.50285,0 9.51063,1.64041 15.9597,8.70432 4.3707,4.78737 8.69373,8.77145 9.60674,8.85349 0.91302,0.0821 1.66004,-4.17855 1.66004,-9.46795 z m -18.81368,2.977 c -0.75238,-1.21735 -2.36396,-2.21336 -3.58131,-2.21336 -1.21736,0 -1.59782,0.99601 -0.84544,2.21336 0.75237,1.21737 2.36395,2.21339 3.5813,2.21339 1.21735,0 1.59782,-0.99602 0.84545,-2.21339 z m 85.21491,-14.11396 c 0,-5.03908 9.84571,-12.44653 16.54345,-12.44653 11.17141,0 12.23042,-2.7275 12.23042,-31.49938 0,-29.10128 -1.10416,-31.23816 -12.97056,-25.10181 -3.70148,1.91411 -9.44776,3.48021 -12.76953,3.48021 -4.07514,0 -8.34745,2.51966 -13.13533,7.7468 -3.90269,4.26075 -9.08639,7.74682 -11.51934,7.74682 -7.14578,0 -7.15723,9.13829 -0.0324,25.8416 15.57242,36.50748 14.96122,35.49106 18.47896,30.72974 1.7458,-2.36304 3.17424,-5.2869 3.17424,-6.49745 z m 77.27435,-8.20889 c 3.75864,-9.84285 6.8216,-20.55004 6.80659,-23.79376 -0.0321,-6.92793 -20.1928,-29.13812 -26.44938,-29.13812 -2.15246,0 -6.56724,-2.08736 -9.81059,-4.63858 -10.64518,-8.37349 -12.40698,-5.06034 -12.40698,23.33178 0,24.60634 0.18482,25.59333 5.4361,29.03411 2.98987,1.95904 6.50116,2.90364 7.80287,2.09913 2.97821,-1.84062 17.74827,12.68966 17.74827,17.46015 0,8.27424 4.50115,2.33185 10.87312,-14.35471 z m -21.49732,6.38656 c -1.42024,-1.42024 -3.31702,-1.84749 -4.21508,-0.94945 -0.89805,0.89805 -0.19655,2.52053 1.55904,3.6055 4.13367,2.55475 6.00026,0.68817 2.65604,-2.65605 z M 265.2865,288.05617 c 0,-1.08711 -1.57548,-2.58114 -3.50109,-3.32006 -5.41453,-2.07774 -6.12994,-1.62727 -3.13904,1.97657 3.05369,3.67946 6.64013,4.40511 6.64013,1.34349 z m -2.28994,-27.09067 c 5.83572,-4.31452 7.78284,-4.55827 31.69442,-3.9675 2.17287,0.0536 7.10608,-2.55751 10.96271,-5.80265 6.39694,-5.38266 8.11914,-5.77499 19.63228,-4.47242 l 12.62022,1.42781 -6.98262,-7.27952 c -3.84045,-4.00375 -9.72171,-8.69286 -13.06942,-10.42026 -3.34773,-1.7274 -6.08679,-3.94549 -6.08679,-4.92907 0,-0.98358 -2.50556,-3.43004 -5.56789,-5.43655 -5.31562,-3.48293 -5.94241,-3.3896 -13.8336,2.05993 -4.54614,3.13949 -11.86131,7.20338 -16.25599,9.03087 -4.99431,2.07685 -8.98832,5.73214 -10.652,9.74862 -1.46393,3.53424 -6.58346,10.25539 -11.37673,14.93589 -4.79325,4.68049 -8.71502,9.41186 -8.71502,10.51413 0,3.00757 10.67676,-0.26821 17.63043,-5.40928 z m 18.89025,4.72012 c 0.77262,-1.25013 -1.04016,-2.21337 -4.1655,-2.21337 -3.0434,0 -6.14901,0.99602 -6.90138,2.21337 -0.77261,1.25014 1.04016,2.21338 4.16551,2.21338 3.04339,0 6.149,-0.99602 6.90137,-2.21338 z m 38.73405,-8.85349 c 2.57792,-1.66598 1.93026,-2.15317 -2.89735,-2.17949 -3.58806,-0.0195 -5.63891,0.90215 -4.84947,2.17949 1.69848,2.74819 3.49429,2.74819 7.74682,0 z m 37.11628,-24.04233 c 4.25266,-5.29185 9.66403,-9.21788 14.20404,-10.3052 7.18056,-1.71974 7.07923,-1.79675 -4.83946,-3.67832 -6.69545,-1.05699 -14.6636,-1.7502 -17.70698,-1.54045 -3.0434,0.20973 -10.76444,0.40225 -17.15792,0.42781 -10.99194,0.0439 -11.43101,0.26024 -8.06901,3.9752 1.9555,2.1608 5.67681,4.23339 8.26957,4.60573 2.59277,0.37235 6.72181,3.87569 9.1757,7.78521 2.45388,3.90952 5.53993,7.14657 6.85788,7.19346 1.31793,0.0469 5.48772,-3.76165 9.26618,-8.46344 z"
       style="fill:#092d78;fill-opacity:1"
       sodipodi:nodetypes="sscsssssssssssssssssssssssssssssssssssssssccscsssscssccsssssssssssssssssssssssscscssssssscscccsssssscssssscssssssssssssssssssscsssssssssssssssssssssssssssccsccsssssssscsscssssssscssscscccssccsssssssssssssscssssssscssssssssssssssssssscsssssssscscsscsscsssssssccssssscccssssssccsssssssscssssssssscsssssscssccccsccccsssssscccsssssssssssssssssssscssscssssssssscscsssssssssscsssscsssssscssssssscccssssssssssscsssssscsscsssssssssssssssscssssssssssss" />
    <path
       inkscape:connector-curvature="0"
       id="path3765"
       d="M 329.47436,747.31069 C 267.44193,737.66297 227.40373,723.11012 183.75119,694.34408 125.31945,655.83887 82.970054,603.65878 56.805964,537.93069 c -10.17232,-25.55441 -21.67127,-75.30108 -21.74393,-94.06842 -0.0507,-13.09419 -1.94877,-28.93644 -2.20163,-16.21358 -0.10887,5.47811 2.25501,7.01261 1.28027,12.4907 -1.11643,6.2743 0.0966,8.35711 0.11622,-24.40866 0.0245,-40.91985 -1.85292,-20.62 -0.23837,-9.30175 3.72966,26.14561 -0.51603,-1.1981 2.26705,-23.43451 3.53402,-28.2362 6.8166,-43.16813 14.71037,-66.91517 C 90.293434,197.85959 189.82576,112.74094 312.87404,92.124808 c 32.93113,-5.517445 52.19944,-6.424791 76.56829,-3.605603 48.23344,5.580041 80.21904,14.192605 115.9953,31.233335 68.89112,32.8138 120.15395,83.46054 155.74248,153.87078 18.8614,37.31642 31.82757,99.13457 32.95206,127.73289 1.69163,43.02188 -4.84612,23.47061 -5.29284,20.42722 -0.44675,-3.0434 -1.87861,-47.36579 -3.18191,-56.49596 -6.69289,-46.88618 -29.72486,-100.7445 -60.7743,-142.11551 -16.48757,-21.96838 -51.5232,-56.20303 -73.06861,-71.39807 C 510.29696,122.49336 455.13791,101.59748 402.06267,95.043444 377.82728,92.050719 331.81821,93.617509 305.99112,98.315056 219.31356,114.08036 140.0661,167.16477 91.623604,241.9105 c -56.13989,86.62265 -67.52431,197.6921 -30.1522,294.17288 16.9617,43.78879 38.586446,76.35872 74.021926,111.48761 31.27345,31.00286 47.83093,43.26353 81.84604,60.6062 26.54318,13.5331 52.07822,22.36918 85.57449,29.612 25.87929,5.59582 88.77037,6.62899 115.09548,1.89078 77.40606,-13.93218 144.15775,-51.50263 193.28354,-108.78756 43.57108,-50.80761 71.23025,-127.90155 78.52499,-199.25056 1.48009,-14.47654 5.29878,-10.75488 4.87432,2.02735 -2.24553,67.62589 -55.71438,187.20878 -120.72021,240.54484 -22.39184,18.37209 -60.79761,40.8562 -89.76754,52.55311 -43.82897,17.69641 -113.53219,26.95092 -154.73008,20.54354 z m 8.8535,-118.4071 c -11.57091,-0.82861 -25.50629,-3.29656 -30.98725,-5.48787 -5.4781,-2.19015 -12.95284,-4.64093 -16.61051,-5.44616 -8.26861,-1.82034 -14.40962,-6.30176 -19.44631,-14.19098 -2.13728,-3.34773 -5.28612,-6.08679 -6.9974,-6.08679 -5.72715,0 -18.92026,-14.507 -18.92026,-20.80452 0,-3.2422 -1.41702,-6.43866 -3.14893,-7.10325 -3.7804,-1.45069 -5.25549,-4.80857 -9.13124,-20.78645 -1.62412,-6.69547 -5.97943,-23.45787 -9.67848,-37.24978 -5.84757,-21.80278 -6.73552,-28.88159 -6.80216,-54.22767 -0.11998,-45.6192 1.55904,-81.56077 4.20454,-90.00466 1.33238,-4.25272 2.42253,-11.53932 2.42253,-16.19247 0,-4.65316 0.99871,-10.32639 2.21935,-12.60719 1.22065,-2.28081 1.36817,-4.67298 0.3278,-5.31597 -4.59032,-2.83697 1.36255,-47.79384 6.32854,-47.79384 3.27009,0 4.64878,15.33104 1.83838,20.4427 -1.51532,2.7561 -2.89864,12.48125 -3.07406,21.61142 -0.17542,9.13017 -1.10462,20.08637 -2.06488,24.34712 l -1.74592,7.74681 7.63575,-7.23043 c 8.25671,-7.81844 18.23936,-11.58326 30.71378,-11.58326 5.8756,0 9.51869,-1.68884 14.21327,-6.58894 6.46466,-6.74765 19.36613,-12.43611 23.04645,-10.16156 2.62241,1.62074 9.09651,-0.80384 9.09651,-3.40668 0,-1.08709 -2.52203,-1.97655 -5.60453,-1.97655 -9.44742,0 -20.4753,-5.93048 -24.11461,-12.96812 -2.85296,-5.51701 -5.27338,-6.94973 -13.93513,-8.24865 -7.991,-1.19831 -12.54702,-3.59568 -19.16856,-10.08643 -6.73704,-6.60396 -9.35464,-7.9596 -11.66567,-6.04162 -3.87969,3.21985 -3.96502,3.66361 3.24657,-16.88286 3.41823,-9.73885 7.48048,-17.707 9.02723,-17.707 1.54673,0 3.97657,-2.04484 5.39963,-4.54409 1.42308,-2.49924 7.56748,-8.97336 13.65427,-14.38693 6.08678,-5.41357 11.56488,-10.43213 12.17356,-11.15236 0.60868,-0.72023 9.44333,-3.54041 19.63259,-6.26707 16.20621,-4.33681 21.71203,-4.7773 43.97158,-3.51792 13.99512,0.7918 27.57088,2.21899 30.16834,3.17153 2.59745,0.95254 9.17123,1.88114 14.60835,2.06354 5.43714,0.18241 11.55852,0.86259 13.60303,1.51149 3.89187,1.23523 9.06946,2.19304 27.41889,5.07226 13.64191,2.14056 29.88055,11.98635 29.88055,18.11714 0,2.9234 1.48489,4.39897 4.42675,4.39897 2.43472,0 4.42675,0.92488 4.42675,2.05528 0,1.1304 1.24502,3.40595 2.76672,5.05678 6.2866,6.82011 15.21865,27.31202 13.78344,31.622 -1.09069,3.27533 -0.90599,3.62933 0.71013,1.361 1.78092,-2.49964 2.63691,-2.21997 4.63553,1.51452 1.34822,2.51915 2.45129,6.51583 2.45129,8.8815 0,2.36569 1.55807,5.59432 3.46237,7.17475 2.19771,1.82392 2.99073,4.7525 2.17118,8.01782 -0.7185,2.86277 -0.29077,5.14433 0.96442,5.14433 1.24056,0 2.25554,2.87421 2.25554,6.38713 0,3.5129 1.47176,9.22396 3.27059,12.69121 5.73016,11.04487 8.4197,29.79802 6.94566,48.42959 -0.77049,9.73885 -1.80755,29.16121 -2.30456,43.1608 -0.49704,13.9996 -2.04352,34.91599 -3.43664,46.48086 -1.39315,11.56489 -3.35909,27.99919 -4.36878,36.52069 -1.00971,8.52148 -3.43872,19.19671 -5.39781,23.72268 -1.95908,4.52599 -3.56197,10.35157 -3.56197,12.94574 0,5.86918 -5.98021,19.04812 -12.03227,26.51609 -2.5124,3.10025 -6.56007,9.48719 -8.99477,14.19322 -5.03809,9.73805 -17.63049,23.31917 -21.65418,23.35438 -1.48112,0.0133 -6.08279,3.51222 -10.22596,7.77616 -7.22692,7.43755 -12.68818,9.1903 -6.89832,2.21395 1.91468,-2.30705 2.0144,-3.37356 0.3154,-3.37356 -4.90444,0 -2.35239,-3.94437 4.3477,-6.71963 3.75762,-1.55647 9.27217,-6.69535 12.25456,-11.41977 2.98239,-4.72441 7.82654,-9.68518 10.76478,-11.02392 7.45076,-3.3948 10.18394,-12.38737 6.65377,-21.89197 -9.60899,-25.87131 -15.15513,-37.47969 -17.90669,-37.47969 -1.70768,0 -3.10488,1.8577 -3.10488,4.12825 0,2.27055 -2.06432,6.75263 -4.58739,9.96018 -3.51984,4.47476 -6.54727,5.83195 -13.00924,5.83195 -4.632,0 -9.42988,1.24501 -10.66196,2.76671 -1.2321,1.5217 -2.96065,16.97129 -3.84124,34.33242 -1.79746,35.43677 -0.37354,41.08871 8.83207,35.05697 4.60778,-3.01912 4.8246,-2.90168 3.86925,2.09592 -0.55665,2.91185 -2.36017,6.4131 -4.00786,7.78055 -3.65136,3.03035 -55.33378,4.42813 -85.04897,2.3002 z m 27.66426,-9.54483 c 11.31228,-3.02557 11.91786,-6.47241 1.51111,-8.60084 -8.73307,-1.7861 -13.68174,-5.75561 -13.68174,-10.97461 0,-6.91171 -8.44257,-7.63766 -13.5349,-1.16382 -2.47137,3.14184 -5.60195,5.71243 -6.95683,5.71243 -2.9177,0 -12.7089,8.82337 -12.7089,11.45268 0,1.00516 5.7271,1.84282 12.7269,1.86146 6.9998,0.0177 14.22093,0.9994 16.04698,2.17948 4.24316,2.74215 4.64144,2.73095 16.59738,-0.46678 z m 27.67009,0.54465 c 0,-2.76605 -7.85052,-6.98317 -9.64995,-5.18375 -1.93414,1.93416 2.92245,7.31926 6.6009,7.31926 1.67699,0 3.04905,-0.96098 3.04905,-2.13551 z m 12.83759,-2.73392 c 1.83127,-1.83127 2.65604,-13.03432 2.65604,-36.078 0,-35.76386 -0.8318,-38.70714 -10.9562,-38.76795 -7.70343,-0.0462 -11.40641,-2.76983 -15.47176,-11.37964 -1.89892,-4.02166 -4.44399,-7.33189 -5.65572,-7.35612 -3.25999,-0.0651 -25.55715,54.37218 -24.91127,60.81961 0.4021,4.01395 2.93673,6.64763 9.24872,9.6101 4.78218,2.24445 10.52141,6.40293 12.75388,9.24105 2.23248,2.83815 6.9317,5.79119 10.44268,6.56233 3.51101,0.77114 8.13533,3.33765 10.27628,5.70338 4.47552,4.9454 7.84061,5.42196 11.61735,1.64524 z m -95.49034,-8.41082 c 3.25401,-3.65207 7.22282,-6.64013 8.81954,-6.64013 1.59675,0 4.46655,-2.38601 6.37736,-5.30225 1.91077,-2.91623 5.52001,-5.83723 8.02053,-6.49113 8.50239,-2.22343 1.67394,-5.91356 -10.96995,-5.9282 -8.84599,-0.0111 -14.57322,-1.32386 -19.23639,-4.41216 -4.72111,-3.12666 -10.39105,-4.40181 -19.61901,-4.41216 -9.2105,-0.0111 -15.4691,-1.41417 -21.55565,-4.83498 -4.7172,-2.65123 -9.23153,-4.16564 -10.03182,-3.36536 -0.80029,0.8003 2.56149,5.81255 7.47065,11.13832 4.90913,5.32578 9.57253,11.72126 10.3631,14.21217 0.79059,2.49091 3.78955,5.11928 6.66436,5.84081 2.87481,0.72152 9.40748,4.80462 14.51704,9.07354 5.10955,4.26891 10.1842,7.76165 11.27699,7.76165 1.09278,0 4.64926,-2.98805 7.90325,-6.64012 z m 9.6114,-0.42125 c 0,-2.90924 -5.03052,-1.08753 -6.1334,2.22112 -0.53913,1.61743 0.47276,2.11209 2.62838,1.28489 1.92777,-0.73976 3.50502,-2.31745 3.50502,-3.50601 z m 48.69424,-3.92764 c 0,-2.76605 -7.85052,-6.98317 -9.64996,-5.18373 -1.93413,1.93415 2.92245,7.31925 6.6009,7.31925 1.67699,0 3.04906,-0.96099 3.04906,-2.13552 z m -33.20062,-7.27133 c 0,-2.59206 -3.22433,-1.9472 -4.15008,0.83002 -0.4565,1.36953 0.29051,2.11654 1.66004,1.66002 1.36952,-0.45649 2.49004,-1.57703 2.49004,-2.49004 z m 124.81507,-5.15123 c 1.47366,-3.84036 -1.22814,-4.1149 -4.85017,-0.49287 -1.46083,1.46083 -2.65604,3.42161 -2.65604,4.3573 0,2.75553 6.18845,-0.43047 7.50621,-3.86443 z m -197.85643,-5.23167 c 0,-2.61147 -4.31685,-5.40505 -5.90233,-3.81958 -1.58547,1.58547 1.20811,5.90232 3.81959,5.90232 1.14551,0 2.08274,-0.93723 2.08274,-2.08274 z m 61.97449,-8.70746 c 0,-1.06518 -3.11255,-2.5592 -6.9168,-3.32005 -9.81427,-1.96286 -10.7902,-1.78771 -10.7902,1.9367 0,2.39782 2.4593,3.32006 8.8535,3.32006 4.86943,0 8.8535,-0.87152 8.8535,-1.93671 z m 10.245,-4.76858 c -3.10315,-3.6879 -6.32148,-10.32663 -7.15183,-14.75273 -0.83033,-4.42614 -3.85803,-11.50794 -6.7282,-15.73734 -3.50883,-5.17057 -5.21847,-10.85176 -5.21847,-17.34119 0,-11.08128 -5.27323,-13.53466 -8.85312,-4.11889 -2.28384,6.00699 -14.21799,14.36639 -20.52887,14.37967 -2.1605,0.004 -4.78525,2.24932 -5.83277,4.98838 -2.61752,6.84425 -8.63197,11.67683 -18.45958,14.83208 -12.3652,3.97001 -10.06202,6.74831 5.5943,6.74831 9.6467,0 15.56749,1.18004 19.36702,3.85995 3.80125,2.68111 9.93073,3.90167 20.07022,3.99656 11.54133,0.10801 15.89039,1.15352 20.7722,4.99357 9.43319,7.42014 13.79468,6.26339 6.9691,-1.84837 z m 23.83251,-24.20229 c 10.95492,-26.11369 12.88791,-40.45991 6.86991,-50.98728 -1.73975,-3.04338 -3.19849,-9.20972 -3.24161,-13.70295 -0.0432,-4.49325 -1.17705,-8.8485 -2.51978,-9.67835 -1.37755,-0.85138 -9.57162,5.57387 -18.80522,14.74585 -19.01404,18.88712 -21.92775,26.43958 -14.22155,36.86275 2.63584,3.56515 5.09813,10.33496 5.47176,15.04402 0.37365,4.70906 1.81855,8.94168 3.21086,9.40578 3.71822,1.2394 9.07849,12.62201 9.07849,19.2783 0,9.63352 3.48456,4.47256 14.15714,-20.96812 z m -73.91825,20.94739 c 0,-1.82603 -1.74304,-3.33365 -3.87341,-3.35026 -2.13037,-0.0177 -6.11444,-0.63082 -8.85349,-1.36486 -3.58979,-0.96202 -4.9801,-0.381 -4.9801,2.0813 0,3.49499 3.90317,5.24222 12.72691,5.69714 3.06527,0.15803 4.98009,-1.0198 4.98009,-3.06332 z m 55.33436,-2.06928 c 0,-4.00362 -4.83955,-12.32378 -6.55252,-11.2651 -2.42974,1.50164 1.68819,12.22769 4.69443,12.22769 1.02194,0 1.85809,-0.43318 1.85809,-0.96259 z m 143.91102,-26.74894 c 2.41178,-2.56724 4.42038,-7.59157 4.46351,-11.16516 0.0431,-3.57361 1.50187,-8.98752 3.24163,-12.03091 6.16984,-10.79301 4.25917,-17.1274 -9.40507,-31.18037 -6.99882,-7.19791 -13.97096,-13.08713 -15.49363,-13.08713 -1.80031,0 -2.76849,3.43897 -2.76849,9.83368 0,5.96732 -1.80101,12.88615 -4.58069,17.59736 -6.35154,10.76506 -4.97231,17.96165 10.22584,53.35713 l 3.80154,8.85351 3.06514,-8.75521 c 1.68584,-4.81538 5.03844,-10.85566 7.45022,-13.4229 z m -228.74931,5.73769 c 4.09277,-4.78146 10.83219,-9.81265 14.97649,-11.1804 4.1443,-1.36773 10.09051,-5.83713 13.2138,-9.93197 3.79641,-4.97734 9.38922,-8.67757 16.87313,-11.16335 9.18274,-3.05 10.73062,-4.27708 8.61334,-6.82823 -1.41961,-1.71054 -6.0107,-3.11006 -10.20243,-3.11006 -9.15554,0 -14.59349,-2.65406 -25.59699,-12.49299 -4.9063,-4.38703 -10.65859,-7.42739 -14.05243,-7.42739 -7.81582,0 -20.03558,-6.07442 -25.054,-12.45431 -5.75659,-7.31833 -9.95262,-6.88183 -8.01805,0.8341 0.83936,3.34774 2.01285,13.0589 2.60776,21.58041 0.718,10.28477 2.83362,18.84216 6.29287,25.4538 2.86617,5.4781 5.87984,13.94426 6.69704,18.81368 2.02086,12.0416 3.36909,16.60031 4.90952,16.60031 0.71421,0 4.64718,-3.91212 8.73995,-8.6936 z m 230.92101,4.26685 c 0,-1.21735 -0.99603,-2.21336 -2.21338,-2.21336 -1.21735,0 -2.21337,0.99601 -2.21337,2.21336 0,1.21736 0.99602,2.21338 2.21337,2.21338 1.21735,0 2.21338,-0.99602 2.21338,-2.21338 z M 270.0214,546.97471 c 2.87391,-2.32993 4.50934,-4.95488 3.63433,-5.83326 -1.90428,-1.91154 -12.79598,4.81887 -12.79598,7.90712 0,3.34909 3.43035,2.57257 9.16165,-2.07386 z m 159.721,-12.09498 c 3.89434,-4.11272 8.95517,-8.45899 11.24629,-9.65838 5.46309,-2.85988 10.62478,-17.07367 10.30967,-28.38974 -0.17242,-6.19221 1.26104,-10.92711 4.58917,-15.15811 4.1429,-5.26686 4.83224,-8.91078 4.78646,-25.30217 -0.0294,-10.53205 0.94122,-20.39669 2.15694,-21.92139 1.21574,-1.52472 1.69865,-5.5088 1.07315,-8.8535 -0.6255,-3.34472 -0.39356,-8.07333 0.51544,-10.50804 0.99653,-2.66917 0.28927,-7.29924 -1.78133,-11.6616 -2.7565,-5.8073 -2.9417,-8.64605 -0.93854,-14.38694 2.95338,-8.46416 0.61538,-35.6664 -3.41159,-39.69337 -1.45824,-1.45824 -2.65136,-7.73988 -2.65136,-13.9592 0,-6.51607 -1.37707,-13.1285 -3.24967,-15.6043 -1.7873,-2.36304 -3.28133,-6.01389 -3.32007,-8.113 -0.0387,-2.09913 -2.80943,-5.23604 -6.15717,-6.97096 -3.34772,-1.73491 -8.8335,-6.24257 -12.19061,-10.01702 -8.16624,-9.18142 -21.35453,-9.78235 -26.95929,-1.22842 -2.03043,3.09883 -5.96307,6.66915 -8.73919,7.93404 -3.93611,1.7934 -5.66217,5.392 -7.83886,16.34294 -1.53525,7.72373 -4.12925,14.55658 -5.76447,15.18407 -4.50832,1.72999 -7.1448,14.32551 -5.9683,28.51276 0.81853,9.87034 -0.0336,15.23527 -3.81617,24.02828 -2.89979,6.74072 -4.78133,15.47255 -4.65081,21.58337 0.12063,5.6445 0.45633,26.79449 0.7462,46.99998 0.41591,28.9937 1.30412,38.32447 4.21386,44.2675 2.02776,4.14162 4.89884,10.81979 6.38018,14.84037 1.76316,4.78546 5.52481,8.75462 10.89189,11.49269 4.5092,2.30043 9.82296,6.66176 11.80835,9.69184 3.1636,4.82827 6.79062,6.3159 18.75964,7.69437 1.58375,0.18239 6.06585,-3.03333 9.96019,-7.14607 z m -102.51531,2.49762 c -0.0494,-4.03482 -3.91762,-9.51318 -5.55852,-7.87229 -0.77349,0.7735 -0.29461,3.48372 1.06421,6.02268 2.79309,5.21893 4.54441,5.9397 4.49431,1.84961 z m 112.47332,0.11066 c 3.14662,-3.14661 3.52263,-8.41082 0.60077,-8.41082 -3.29808,0 -9.1709,6.80509 -7.79462,9.03193 1.70412,2.75734 4.01492,2.55783 7.19385,-0.62111 z m -42.11208,-2.16593 c -1.21302,-3.63909 -7.82265,-7.51288 -9.6688,-5.66676 -2.10572,2.10572 3.34036,8.27537 7.30485,8.27537 1.77842,0 2.84219,-1.17387 2.36395,-2.60861 z m -101.16908,-8.53613 c 4.37363,-2.34072 5.86165,-6.56226 2.31306,-6.56226 -1.08246,0 -4.31953,1.95891 -7.19346,4.35311 -5.57682,4.64596 -2.37821,6.09381 4.8804,2.20915 z m 18.35763,-25.98015 c 0.58157,-0.941 -1.02939,-6.53169 -3.57993,-12.42376 -3.99359,-9.22578 -4.29496,-11.98394 -2.17105,-19.86951 2.03064,-7.53937 1.85623,-10.09559 -0.98744,-14.47279 -2.66538,-4.10275 -3.1251,-8.52326 -2.01411,-19.36702 1.54125,-15.04356 -0.29817,-17.56601 -6.21945,-8.529 -4.36564,6.66283 -17.18736,12.39543 -26.18976,11.70949 -4.94375,-0.37671 -7.66,1.00232 -10.99684,5.58307 -5.77992,7.93453 -15.06344,12.59955 -25.07351,12.59955 -11.60869,0 -8.66296,5.24634 3.76287,6.7017 11.28159,1.32134 20.01402,6.27464 25.30925,14.35618 2.77818,4.24006 5.50759,5.50262 11.89552,5.50262 8.61317,0 22.88523,7.93936 28.40034,15.79875 3.04485,4.3391 6.09453,5.27396 7.86411,2.41072 z m -16.28977,-3.34532 c 0,-3.29974 -11.20733,-10.4374 -16.38846,-10.4374 -6.10073,0 -3.84584,5.93245 3.66155,9.63333 8.76351,4.32008 12.72691,4.57048 12.72691,0.80407 z m 42.43172,-14.31081 16.63889,-17.15366 -0.28316,-23.081 c -0.15626,-12.73527 -1.24164,-23.33003 -2.42147,-23.63656 -1.17606,-0.30554 -9.86762,-0.96507 -19.31458,-1.46565 -20.99872,-1.11264 -23.54125,0.74087 -19.50341,14.21803 1.5796,5.27217 2.12712,13.33379 1.3106,19.29678 -0.95468,6.97208 -0.32628,12.81165 1.96839,18.29197 2.31949,5.5396 2.95277,11.57968 2.03045,19.36702 -0.79676,6.72746 -0.47332,11.31672 0.79758,11.31672 1.1758,0 9.62531,-7.71914 18.77671,-17.15365 z m 119.14462,7.19347 c 0,-6.18186 -3.22889,-7.42079 -5.29662,-2.03235 -2.12536,5.53857 -1.59574,7.56578 1.97656,7.56578 2.06582,0 3.32006,-2.0904 3.32006,-5.53343 z m 38.66382,-11.62022 c 0.87152,-6.9998 1.76376,-17.70699 1.98271,-23.79378 0.2189,-6.08678 1.23614,-14.81285 2.26042,-19.39128 2.66327,-11.90466 -0.63689,-14.91602 -16.34645,-14.91602 -14.56944,0 -19.57196,3.4464 -15.64721,10.77988 2.98419,5.57599 3.07839,17.29304 0.15361,19.10067 -1.21736,0.75237 -2.21338,4.62114 -2.21338,8.59724 0,5.81995 2.42914,9.67785 12.46071,19.78973 6.85335,6.90825 13.20414,12.56047 14.11285,12.56047 0.90867,0 2.36523,-5.72712 3.23677,-12.72691 z m -182.53316,-2.10271 c 0,-4.45107 -0.63982,-5.33629 -2.50727,-3.46885 -1.37899,1.37901 -1.90828,4.06825 -1.17616,5.97612 2.02619,5.28018 3.68343,4.15212 3.68343,-2.50727 z m -56.46212,1.58345 c 1.61942,-2.62028 -11.5888,-11.08101 -17.31703,-11.09268 -6.13146,-0.0133 -3.23519,5.04123 5.32535,9.29226 9.01325,4.47584 10.2257,4.65786 11.99168,1.80042 z M 236.425,444.20477 c 5.39471,-4.8738 11.47044,-7.928 17.77763,-8.93655 5.80154,-0.92771 12.47411,-4.07157 16.91252,-7.96856 7.73093,-6.78783 21.12098,-11.66567 26.4304,-9.62825 1.73522,0.66587 3.15494,0.19566 3.15494,-1.04495 0,-1.2406 -4.23308,-2.95502 -9.40684,-3.80978 -7.20111,-1.18974 -11.70758,-3.93859 -19.21885,-11.72314 -8.03908,-8.33158 -11.29676,-10.20622 -18.02941,-10.37514 -8.09093,-0.20299 -24.17288,-9.83417 -24.17288,-14.47669 0,-1.15541 -1.3533,-2.10074 -3.00734,-2.10074 -2.41678,0 -2.80589,4.88977 -1.98147,24.90047 0.56423,13.69525 0.9344,31.12558 0.82261,38.73405 -0.11181,7.60848 0.41012,13.83359 1.15985,13.83359 0.74972,0 5.0512,-3.33194 9.55884,-7.40431 z m 14.60487,1.94126 c 2.36304,-1.7873 3.13286,-3.28133 1.71075,-3.32006 -4.20493,-0.11447 -9.58787,2.46428 -9.58787,4.59317 0,2.90078 2.99974,2.41594 7.87712,-1.27311 z m 62.95087,-3.25981 c 0,-2.36287 -0.99602,-4.9117 -2.21338,-5.66407 -1.25534,-0.77584 -2.21337,1.0837 -2.21337,4.29611 0,3.11524 0.99601,5.66407 2.21337,5.66407 1.21736,0 2.21338,-1.93325 2.21338,-4.29611 z m 155.73664,0.97605 c 1.51209,-3.94045 -0.45253,-9.96018 -3.25061,-9.96018 -1.0871,0 -1.97657,2.98805 -1.97657,6.64011 0,6.99616 3.0686,8.94518 5.22718,3.32007 z M 288.52693,427.26196 c 0.75237,-1.21735 -0.12616,-2.21337 -1.95213,-2.21337 -1.82603,0 -3.93562,0.99602 -4.68799,2.21337 -0.75237,1.21735 0.12616,2.21338 1.95213,2.21338 1.82603,0 3.93562,-0.99603 4.68799,-2.21338 z m 214.44121,-34.86065 c -0.33076,-13.08658 -1.40447,-29.65277 -2.386,-36.8138 l -1.78463,-13.01999 -11.71223,10.54113 c -6.44172,5.7976 -13.23697,13.48965 -15.10055,17.09345 -3.0509,5.89976 -3.0412,7.41994 0.0974,15.26402 3.09031,7.72344 3.11873,9.59 0.25058,16.45449 -5.14953,12.32452 -3.06574,14.27448 15.25407,14.27448 l 15.98279,0 -0.60139,-23.79378 z m -143.31302,-6.08678 0.49231,-24.34712 -16.99656,-16.02468 c -9.34813,-8.81356 -17.77483,-16.03469 -18.72607,-16.04696 -3.42802,-0.0442 -4.25306,6.83012 -1.59106,13.25677 2.33519,5.6376 2.08087,7.84517 -1.80966,15.70863 -3.41412,6.90052 -4.01996,10.48201 -2.46496,14.57197 3.10275,8.16086 2.49122,17.30774 -1.63818,24.5028 -6.86976,11.96989 -3.60334,14.07609 20.719,13.35967 l 21.52287,-0.63395 z M 309.55399,403.966 c 0,-1.71289 -1.70824,-6.69657 -3.79609,-11.07483 -3.68957,-7.73709 -3.6531,-8.23004 1.29991,-17.56655 4.05167,-7.63744 4.60282,-10.52761 2.68941,-14.10285 -3.48472,-6.51126 -2.95776,-15.34532 1.35044,-22.63853 5.41706,-9.17031 2.08168,-10.35987 -5.441,-1.94053 -5.55465,6.21674 -8.20193,7.33538 -19.52462,8.2504 -10.93321,0.88356 -14.46171,2.28169 -21.34309,8.45693 -8.44714,7.58032 -12.54937,9.19101 -26.06294,10.23327 -4.26075,0.32862 -7.74682,1.57661 -7.74682,2.77331 0,1.19671 3.48607,2.75532 7.74682,3.46361 9.68258,1.60954 15.1225,4.54775 21.96621,11.86432 4.19982,4.48999 7.48094,5.73668 15.09835,5.73668 8.75226,0 10.77533,1.08602 20.08789,10.78369 10.12481,10.54349 13.67553,12.03931 13.67553,5.76108 z m 161.23056,-11.14616 c -1.20324,-6.20681 -6.29435,-6.54532 -6.29435,-0.41853 0,2.94195 0.68062,6.02962 1.51247,6.86147 2.35016,2.35016 5.62985,-2.06878 4.78188,-6.44294 z M 315.30876,381.66645 c -1.07139,-2.79198 -2.13717,-3.17494 -3.90787,-1.40424 -1.33909,1.33909 -1.77178,4.16223 -0.96155,6.27367 1.07138,2.79196 2.13717,3.17493 3.90786,1.40422 1.3391,-1.33909 1.77179,-4.16223 0.96156,-6.27365 z m 170.25552,-32.55121 c 13.26826,-12.85135 15.1429,-19.59225 8.82011,-31.71565 -1.81853,-3.48688 -3.34027,-9.32784 -3.38164,-12.97992 -0.0436,-3.84651 -2.84292,-10.29802 -6.65375,-15.33456 -3.61821,-4.78195 -6.57855,-10.50905 -6.57855,-12.7269 0,-2.21786 -0.99603,-4.03246 -2.21338,-4.03246 -1.21735,0 -2.21678,0.249 -2.22097,0.55334 -0.004,0.30434 -2.9922,7.87768 -6.64011,16.82964 -7.93105,19.46288 -8.48181,31.2026 -1.88259,40.12854 3.91486,5.29513 4.52183,8.35089 3.45237,17.38076 -2.08601,17.61311 0.75142,17.92432 17.29851,1.89721 z m -228.82313,2.96563 c 4.90271,-4.08439 4.952,-4.35194 0.79854,-4.33398 -2.43472,0.0111 -7.91281,1.92768 -12.17356,4.26034 l -7.74681,4.2412 6.94825,0.0927 c 3.82154,0.0511 9.29964,-1.86612 12.17358,-4.26033 z m 60.46511,-2.43995 c -1.89737,-3.07005 -3.22552,-2.4976 -3.22552,1.39026 0,1.89788 1.01226,2.82506 2.24947,2.06042 1.23721,-0.76463 1.67646,-2.31743 0.97605,-3.45068 z m 46.14873,-6.3682 c 0.71312,-6.02133 2.84389,-13.94001 4.73506,-17.59708 5.71083,-11.04354 4.18495,-21.17585 -6.91171,-45.89564 -9.81333,-21.86095 -14.30456,-26.77663 -15.74318,-17.23103 -1.5807,10.48812 -2.88366,13.75134 -7.75363,19.41892 -3.74834,4.36218 -4.92271,7.92564 -4.2107,12.77677 0.67977,4.6316 -0.53953,8.7927 -3.91384,13.3567 -3.15558,4.26811 -4.4567,8.40047 -3.65313,11.60214 1.24396,4.95633 30.55321,34.5171 34.22341,34.5171 1.06211,0 2.51457,-4.92654 3.22772,-10.94788 z m 102.12448,-5.33228 c -0.80804,-3.21947 -2.38848,-5.85359 -3.51205,-5.85359 -3.53845,0 -4.56267,6.09903 -1.86935,11.13156 3.41432,6.37974 7.34076,2.52878 5.3814,-5.27797 z m -167.97222,-2.35256 c 6.43401,-4.70465 2.39142,-6.55803 -5.45456,-2.50071 -3.7652,1.94706 -6.84582,4.01253 -6.84582,4.58996 0,2.27591 8.24614,0.87529 12.30038,-2.08925 z m 80.66135,-12.61577 c 0,-1.21735 -0.99603,-1.59781 -2.21338,-0.84544 -1.21735,0.75237 -2.21338,2.36395 -2.21338,3.58131 0,1.21736 0.99603,1.5978 2.21338,0.84544 1.21735,-0.75237 2.21338,-2.36395 2.21338,-3.58131 z m -59.25613,-15.63878 c -0.41554,-5.30822 1.13681,-10.24866 5.01665,-15.96593 3.09011,-4.55353 5.07224,-9.16285 4.40471,-10.24291 -1.67183,-2.70507 4.07522,-15.87684 8.54449,-19.58329 8.51395,-7.06079 2.02924,-9.44078 -6.8,-2.4957 -4.32686,3.4035 -8.97917,4.42675 -20.12683,4.42675 -11.98815,0 -15.41816,0.86246 -19.80596,4.98009 -4.39796,4.12716 -7.78114,4.97217 -19.75395,4.93382 -10.82187,-0.0347 -13.49256,0.52075 -10.64301,2.21338 8.88912,5.28013 14.85066,10.92613 16.71532,15.83056 1.50955,3.9704 3.67119,5.24277 8.90703,5.24277 9.90824,0 20.42874,5.64722 25.02924,13.43526 5.07151,8.58538 9.29383,7.20901 8.51231,-2.7748 z m -19.40641,-1.03814 c -2.24311,-1.64021 -4.88405,-2.9822 -5.86874,-2.9822 -3.21441,0 -1.88169,4.15565 2.0358,6.348 5.4638,3.05769 8.71419,0.20341 3.83294,-3.3658 z m 84.8711,-9.33577 c 2.99224,-8.58355 11.16346,-15.81476 16.82432,-14.88887 2.54888,0.41689 6.37733,-0.14618 8.5077,-1.25123 3.38395,-1.75531 3.87341,-5.6054 3.87341,-30.46839 0,-32.22638 -0.78721,-33.65296 -14.66567,-26.57732 -4.62222,2.35656 -10.99423,4.28465 -14.15995,4.28465 -3.76645,0 -7.37369,2.18822 -10.43659,6.331 -2.63217,3.5602 -7.65781,6.92641 -11.48312,7.69147 -5.60462,1.12091 -6.80241,2.42645 -6.80241,7.41421 0,8.15383 19.78899,53.81805 23.32252,53.81805 1.5427,0 3.80161,-2.8591 5.01979,-6.35357 z m 78.62329,-10.38419 c 9.40183,-22.07927 8.59109,-29.66633 -4.58868,-42.94224 -5.78702,-5.82923 -14.24926,-11.79294 -18.80497,-13.25268 -4.55567,-1.45975 -9.16348,-4.22729 -10.23953,-6.15008 -1.1771,-2.10337 -3.41462,-2.93644 -5.61697,-2.09132 -3.18688,1.22293 -3.58031,5.05526 -3.04071,29.61929 l 0.61981,28.21462 6.64012,2.00552 c 12.84597,3.87989 17.31394,7.01734 20.35636,14.2944 1.68934,4.04066 4.21093,6.96686 5.60354,6.50266 1.39261,-0.4642 5.47456,-7.75428 9.07103,-16.20017 z m -18.43061,11.05881 c 0,-3.55329 -4.99186,-9.81467 -7.82469,-9.81467 -4.22007,0 -4.09861,2.02515 0.42092,7.01918 3.53978,3.91142 7.40377,5.37037 7.40377,2.79549 z m -47.58756,-5.38792 c 0.75237,-1.21736 -0.18482,-2.21338 -2.08275,-2.21338 -1.89788,0 -3.45068,0.99602 -3.45068,2.21338 0,1.21736 0.93723,2.21337 2.08274,2.21337 1.1455,0 2.69833,-0.99601 3.45069,-2.21337 z m -129.48241,-4.07147 c 0,-2.44656 -10.24828,-7.07621 -11.93352,-5.39096 -0.71959,0.71957 -0.19898,2.64498 1.15686,4.27868 2.70084,3.25431 10.77666,4.08782 10.77666,1.11228 z m 70.82799,-16.11015 c 0,-1.21736 -0.99602,-1.59781 -2.21338,-0.84544 -1.21735,0.75237 -2.21337,2.36396 -2.21337,3.58131 0,1.21736 0.99602,1.59781 2.21337,0.84544 1.21736,-0.75237 2.21338,-2.36396 2.21338,-3.58131 z m -56.22472,-4.24775 c 4.15233,-1.57871 5.32421,-3.00938 3.75245,-4.58113 -3.19432,-3.19434 -18.35572,-0.0531 -18.35572,3.80302 0,3.64214 6.20121,3.97256 14.60327,0.77811 z m -20.47838,-4.89785 c 5.64853,-4.02907 9.95034,-4.98009 22.52679,-4.98009 13.2101,0 16.36842,-0.77145 21.02706,-5.13611 4.51796,-4.23285 7.62297,-5.06221 17.65563,-4.71581 6.69545,0.23118 13.54666,0.30138 15.22493,0.15602 3.50231,-0.30334 -14.9779,-17.74276 -18.94763,-17.8805 -1.43879,-0.0499 -4.74368,-3.07883 -7.34418,-6.7309 -5.4024,-7.58697 -15.19683,-9.02306 -20.20271,-2.96218 -1.67074,2.02287 -8.26681,5.99439 -14.65794,8.82559 -6.83133,3.02621 -11.62021,6.56648 -11.62021,8.59043 0,1.89354 -4.48209,8.23451 -9.96019,14.09104 -5.4781,5.85653 -9.96018,11.78998 -9.96018,13.18543 0,4.19246 8.81257,2.86834 16.25863,-2.44292 z m 62.8835,-7.74681 c 0.5234,-1.59436 -0.96898,-2.76671 -3.52193,-2.76671 -6.07036,0 -11.43234,2.25307 -11.43234,4.80378 0,3.10668 13.88669,1.21504 14.95427,-2.03707 z m 32.59935,-20.4081 c 3.75033,-7.25237 9.49733,-11.13248 16.48873,-11.13248 2.52354,0 4.57226,-1.44146 4.57226,-3.217 0,-2.31073 -2.65001,-3.21409 -9.40684,-3.20669 -5.17376,0.006 -18.62,-0.28971 -29.88049,-0.6564 -11.2605,-0.3667 -20.47368,-0.23291 -20.47372,0.29731 -2.2e-4,3.32959 10.51964,11.20953 14.96495,11.20953 3.90063,0 6.01541,1.78968 7.84625,6.64012 3.40027,9.00834 11.24763,9.04075 15.88886,0.0656 z m 12.20749,-2.40961 c 0,-1.14552 -0.99602,-2.08274 -2.21338,-2.08274 -1.21734,0 -2.21337,1.5528 -2.21337,3.45068 0,1.89788 0.99603,2.83511 2.21337,2.08274 1.21736,-0.75236 2.21338,-2.30517 2.21338,-3.45068 z m 23.24043,-10.93625 c 0.75237,-1.21735 0.37191,-2.21337 -0.84544,-2.21337 -1.21736,0 -2.82894,0.99602 -3.58131,2.21337 -0.75237,1.21736 -0.37191,2.21338 0.84544,2.21338 1.21736,0 2.82894,-0.99602 3.58131,-2.21338 z"
       style="fill:#292526"
       sodipodi:nodetypes="ssssssssssssssssssssssssssssssssssssssssssssssssssscsssssssssssssssssssssssssssssssssssssssssscssssssssssssssssssssssscsssssssssscsssssssssscscsssssssssssssssssssscsscsssssssssssssscssssssssscsssssssscsssssssssssssssscssssssssssssssssssssssscssssssssssssssscsssssssccsssssssccscssssssssssssssssssssssssssssssscscssssssssssscssssssssccssssscssssssssssssssssscsssssssssssssssscscssssscccccsssssssccsssssssssssssssssssssssssssssscssssccscccccsscssssssssssssssssssssssssssssssssssssssssssssssssssssssssscsssssssssssssscsssssssssssssssssssssssssssscsscssssccssscssssss" />
  </g>
</svg>
