<?xml version="1.0" encoding="UTF-8" standalone="no"?><svg xmlns:rdf="http://www.w3.org/1999/02/22-rdf-syntax-ns#" xmlns="http://www.w3.org/2000/svg" xml:space="preserve" height="48.103" viewBox="0 0 48.104 48.103" width="48.104" enable-background="new 0 0 48.104 48.103" xmlns:cc="http://creativecommons.org/ns#" xmlns:dc="http://purl.org/dc/elements/1.1/" overflow="visible"><path d="m0.779 21.617c0 4.623-3.7516 8.374-8.3742 8.374-4.6228 0-8.3738-3.751-8.3738-8.374 0-4.622 3.751-8.374 8.3738-8.374 4.6226 0 8.3742 3.752 8.3742 8.374z" transform="matrix(2.1163 0 0 2.1163 40.126 -21.696)" fill="#fff"/><path d="m21.112 20.043c-0.295 0-0.535 0.239-0.535 0.534v18.44l-2.404-2.406-2.406 2.406v-18.44c0-2.951 2.393-5.345 5.345-5.345h15.233l2.405 2.405-2.405 2.406h-15.233" fill="#1c1d20"/><path d="m24.062 0c-13.284-4.0668e-15 -24.062 10.78-24.062 24.062 0 13.284 10.778 24.032 24.062 24.032s24.032-10.748 24.032-24.032c0-13.282-10.748-24.062-24.032-24.062zm0 6.4062c4.31 0 8.252 1.5544 11.313 4.1248l-25.219 24.344c-2.3343-2.987-3.7498-6.727-3.7498-10.813 0-9.74 7.9138-17.656 17.656-17.656zm13.907 6.8438c2.321 2.991 3.719 6.735 3.719 10.812 0 9.742-7.884 17.626-17.626 17.626-4.31 0-8.245-1.561-11.312-4.126l25.219-24.312z" fill="#e41408"/></svg>
