<?xml version="1.0" encoding="UTF-8" standalone="no"?><svg xmlns="http://www.w3.org/2000/svg" height="48.387" width="48.213" version="1.0"><path d="m5.8432 0.62506h36.527c2.87 0 5.218 2.3566 5.218 5.2372v36.662c0 2.881-2.348 5.238-5.218 5.238h-36.527c-2.8698 0-5.2179-2.357-5.2179-5.238l-0.00004-36.662c0-2.8803 2.3481-5.2369 5.2181-5.2369v-0.00004z" fill-rule="evenodd" stroke="#231f20" stroke-miterlimit="22.926" stroke-width="1.2501" fill="#fff"/><path d="m24.125 6.4062c-0.231-0.0004-0.486 0.0193-0.719 0.0313-6.171 0.1765-12.027 3.8945-14.906 9.3435-3.1242 5.676-2.7807 13.055 0.875 18.407 3.259 4.958 9.131 8.041 15.063 7.874 6.063-0.047 11.93-3.481 14.968-8.718 3.384-5.607 3.261-13.085-0.281-18.594-3.152-5.0986-8.998-8.4008-15-8.3438zm-0.375 4.7818c1.701-0.052 3.409 0.22 5 0.843 4.312 1.615 7.598 5.661 8.25 10.219 0.1 0.657 0.128 1.335 0.125 2 0.016 2.966-1.006 5.916-2.875 8.219-6.105-6.128-12.207-12.247-18.312-18.375 2.192-1.82 4.978-2.82 7.812-2.906zm-9.75 4.843c6.105 6.128 12.215 12.247 18.312 18.375-2.828 2.319-6.638 3.34-10.25 2.75-4.528-0.679-8.532-3.963-10.124-8.25-1.656-4.259-0.848-9.344 2.062-12.875z" fill-rule="evenodd" fill="#918f90"/><path d="m0.55961 43.792l43.362-43.355 3.821 3.8529-43.362 43.355-3.8214-3.853h0.00001z" fill-rule="evenodd" stroke="#231f20" stroke-miterlimit="22.926" stroke-width=".26937" fill="#231f20"/></svg>
