<?xml version="1.0" encoding="UTF-8" standalone="no"?>
<svg
   xmlns:dc="http://purl.org/dc/elements/1.1/"
   xmlns:cc="http://creativecommons.org/ns#"
   xmlns:rdf="http://www.w3.org/1999/02/22-rdf-syntax-ns#"
   xmlns:svg="http://www.w3.org/2000/svg"
   xmlns="http://www.w3.org/2000/svg"
   xmlns:sodipodi="http://sodipodi.sourceforge.net/DTD/sodipodi-0.dtd"
   xmlns:inkscape="http://www.inkscape.org/namespaces/inkscape"
   version="1.1"
   width="48.104"
   height="48.104"
   id="svg2"
   sodipodi:docname="ES_R300-100.svg"
   inkscape:version="1.0.1 (3bc2e813f5, 2020-09-07)">
  <sodipodi:namedview
     pagecolor="#ffffff"
     bordercolor="#666666"
     borderopacity="1"
     objecttolerance="10"
     gridtolerance="10"
     guidetolerance="10"
     inkscape:pageopacity="0"
     inkscape:pageshadow="2"
     inkscape:window-width="1920"
     inkscape:window-height="1027"
     id="namedview7531"
     showgrid="false"
     inkscape:zoom="15.279395"
     inkscape:cx="32.008513"
     inkscape:cy="19.09822"
     inkscape:window-x="-8"
     inkscape:window-y="-8"
     inkscape:window-maximized="1"
     inkscape:current-layer="layer30" />
  <defs
     id="defs4" />
  <metadata
     id="metadata7">
    <rdf:RDF>
      <cc:Work
         rdf:about="">
        <dc:format>image/svg+xml</dc:format>
        <dc:type
           rdf:resource="http://purl.org/dc/dcmitype/StillImage" />
        <dc:title></dc:title>
      </cc:Work>
    </rdf:RDF>
  </metadata>
  <g
     inkscape:groupmode="layer"
     id="layer29"
     inkscape:label="Layer 1">
    <path
       d="M 0,24.052 C 0,10.769 10.769,0 24.052,0 37.336,0 48.104,10.769 48.104,24.052 48.104,37.336 37.336,48.104 24.052,48.104 10.769,48.104 0,37.336 0,24.052"
       id="path2827"
       style="fill:#e41408" />
    <path
       d="m 6.414,24.052 c 0,-9.742 7.897,-17.638 17.638,-17.638 9.741,0 17.638,7.896 17.638,17.638 0,9.74 -7.896,17.639 -17.638,17.639 -9.742,0 -17.638,-7.899 -17.638,-17.639"
       id="path2829"
       style="fill:#ffffff" />
    <path
       d="m 39.978426,24.70864 0.150798,-0.0389 h 1.482972 v 1.44344 h -2.846013 v 0 l 0.154837,-0.22302 0.14445,-0.23745 0.144735,-0.23957 0.154837,-0.22715 0.173402,-0.20253 0.202537,-0.16302 0.237445,-0.11175 z m -12.03114,-4.75254 1.352947,-0.004 v -2.52193 0 -0.0681 l 0.0061,-0.0681 0.01231,-0.066 v 0 l 0.02485,-0.0703 0.033,-0.0641 0.04147,-0.0579 v 0 l 0.05554,-0.0558 0.06193,-0.0474 0.06839,-0.0371 v 0 l 0.07416,-0.0288 0.07663,-0.0145 0.08039,-0.006 v 0 l 0.08068,0.009 0.07819,0.0185 0.07448,0.0311 v 0 l 0.06624,0.0392 0.06194,0.0475 0.05147,0.0558 v 0 l 0.0437,0.0619 0.03493,0.0681 0.02485,0.0722 v 0 l 0.0144,0.0601 0.0085,0.06 0.0015,0.0597 v 0 2.52413 h 1.336305 v -2.50125 0 l 0.0023,-0.0601 0.0039,-0.06 0.0081,-0.0578 v 0 l 0.02077,-0.0744 0.03109,-0.0699 0.04117,-0.0642 v 0 l 0.05155,-0.0558 0.05585,-0.0432 0.06602,-0.0371 v 0 l 0.07656,-0.0311 0.08039,-0.0204 0.08078,-0.009 v 0 l 0.08039,0.002 0.07656,0.0105 0.0764,0.0249 v 0 l 0.06594,0.0349 0.06409,0.0414 0.05586,0.0516 v 0 l 0.04962,0.0601 0.04117,0.0662 0.03109,0.0741 v 0 l 0.02078,0.0807 0.0081,0.0888 0.0015,0.0846 v 0 l 0.0023,2.46413 h 1.359009 v -2.6583 0 l -0.0061,-0.1633 -0.01885,-0.16704 -0.03493,-0.15926 v 0 l -0.05362,-0.15264 -0.07039,-0.15511 -0.07848,-0.14235 v 0 l -0.09925,-0.14252 -0.109251,-0.12185 -0.130124,-0.1156 v 0 l -0.163216,-0.11367 -0.175517,-0.0908 -0.183782,-0.0681 v 0 l -0.177724,-0.0436 -0.17965,-0.0245 -0.181765,-0.0105 v 0 l -0.177533,0.002 -0.17965,0.0185 -0.175517,0.0374 v 0 l -0.130309,0.0474 -0.123777,0.0601 -0.121847,0.0699 v 0 l -0.109636,0.0785 -0.103289,0.0889 -0.09492,0.0971 v 0 l -0.09098,-0.0867 -0.09714,-0.0807 -0.101071,-0.0722 v 0 l -0.115599,-0.0722 -0.11993,-0.0641 -0.125985,-0.0537 v 0 l -0.157045,-0.0474 -0.163015,-0.0288 -0.165223,-0.0105 v 0 l -0.17965,0.0123 -0.173587,0.0374 -0.171478,0.0556 v 0 l -0.140411,0.0621 -0.132232,0.0763 -0.125986,0.0866 v 0 l -0.07848,-0.24773 -1.200034,-0.005 v 4.2734 z m -19.795265,6.27888 -0.02894,-0.0908 0.0042,-0.23331 0.03107,-0.31814 0.0474,-0.34708 0.06001,-0.31785 0.05991,-0.23362 0.05376,-0.0908 v 0 h 2.50528 v 0 l 0.188111,0.0888 0.140412,0.14444 0.09895,0.19004 0.06405,0.22109 0.03731,0.2437 0.01453,0.25408 v 0.25189 l -0.01261,0.23745 v 0 H 8.152062 Z M 7.50561,24.58264 7.391935,26.25382 H 6.710365 6.444064 l -0.03923,-1.25379 v 0 l 0.01028,-0.12406 0.01857,-0.16733 0.01039,-0.126 v 0 H 7.50562 Z m 33.435428,4.95315 0.06601,-0.22736 0.06417,-0.22926 0.05994,-0.23121 0.05554,-0.23138 0.05378,-0.23563 0.05178,-0.23523 0.04747,-0.23774 0.04332,-0.23744 0.04147,-0.23957 0.03924,-0.23966 0.03493,-0.2437 0.03109,-0.24158 0.02892,-0.24371 0.02485,-0.2459 0.02262,-0.2437 0.01884,-0.24784 0.01439,-0.24581 0.0123,-0.24785 0.0081,-0.24782 0.0061,-0.24785 0.0023,-0.24994 v 0.002 l -0.0039,-0.29332 -0.0061,-0.28929 -0.01261,-0.28899 v 0 l -2.220134,0.0349 -2.614915,2.35265 v 0 l -0.254086,0.0249 -0.254087,0.0207 -0.25591,0.0204 -0.254086,0.0189 -0.254085,0.0185 -0.256302,0.0185 -0.254087,0.0167 -0.254087,0.0204 -0.251871,0.0185 -0.251878,0.0229 -0.252161,0.0225 -0.251871,0.027 -0.247839,0.0308 -0.247831,0.0333 -0.247739,0.037 -0.2437,0.0434 -0.2438,0.0474 -0.241775,0.0538 v 0 l -0.609247,1.5552 0.568085,1.48114 h 1.633768 v 0 0.0369 l 0.02885,0.10112 0.0597,0.14888 0.09109,0.17743 0.123769,0.19436 0.161091,0.19197 0.198499,0.17551 0.241484,0.14261 0.283038,0.093 0.328424,0.0267 v 0 l 0.355259,-0.0349 0.289285,-0.0785 0.237453,-0.11589 0.18782,-0.1403 0.148782,-0.15899 0.115598,-0.16742 0.09299,-0.16928 0.07632,-0.16109 0.06617,-0.14261 0.06602,-0.11965 v 0 h 3.903812 v 0 z m -33.813576,-10e-4 h 2.848324 v 0 l 0.04953,0.0558 0.136372,0.14666 0.200326,0.20638 0.2437,0.23775 0.268607,0.23522 0.270629,0.20861 0.25197,0.14474 0.210712,0.0555 v 0 l 0.274476,-0.0226 0.245911,-0.0659 0.221099,-0.10133 0.200327,-0.13637 0.183783,-0.16108 0.171475,-0.18158 0.163013,-0.19849 0.161087,-0.20851 0.163299,-0.21485 v 0 h 0.757932 L 14.910273,28.20882 14.49106,25.9305 12.365468,23.6523 H 6.408866 v 0 l -0.02703,0.28514 -0.01028,0.26639 -0.0019,0.28515 v 0 l 0.0019,0.2437 0.0062,0.24563 0.01039,0.24591 0.01443,0.2459 0.01664,0.24775 0.02068,0.24562 0.02453,0.24591 0.02894,0.24784 0.03107,0.24369 0.0352,0.24592 0.03923,0.2437 0.03924,0.24369 0.04549,0.24159 0.0453,0.23956 0.04962,0.23746 0.05366,0.23774 0.05376,0.23339 0.0578,0.23112 0.05991,0.22926 0.06193,0.22745 0.06184,0.22292 z"
       id="path3700"
       style="fill:#000000;fill-opacity:1;fill-rule:evenodd;stroke:none"
       sodipodi:nodetypes="cccccccccccccccccccccccccccccccccccccccccccccccccccccccccccccccccccccccccccccccccccccccccccccccccccccccccccccccccccccccccccccccccccccccccccccccccccccccccccccccccccccccccccccccccccccccccccccccccccccccccccccccccccccccccccccccccccccccccccccccccccccccccccccccccccccccccccccccccccccccccccccccccccccccccccccccccccccccc" />
  </g>
  <g
     inkscape:groupmode="layer"
     id="layer31"
     inkscape:label="Layer 3"
     style="display:inline">
    <path
       style="fill:#ffffff;stroke:none;stroke-linecap:round;stroke-linejoin:round"
       d="m 13.285867,20.35421 11.780571,-0.196343 -0.06545,-7.264686 -12.565943,0.196343 z"
       id="path8125" />
  </g>
  <g
     inkscape:groupmode="layer"
     id="layer30"
     inkscape:label="Layer 2"
     style="display:inline">
    <text
       xml:space="preserve"
       style="font-style:normal;font-variant:normal;font-weight:normal;font-stretch:normal;font-size:8.22502px;line-height:4.81933px;font-family:Ccrige;-inkscape-font-specification:Ccrige;letter-spacing:0px;word-spacing:0px;fill:#000000;stroke:none;stroke-width:0.999998px;stroke-linecap:butt;stroke-linejoin:miter;stroke-opacity:1"
       x="10.67709"
       y="20.136812"
       id="text8122"><tspan
         sodipodi:role="line"
         id="tspan8120"
         x="10.67709"
         y="20.136812"
         style="fill:#000000;stroke-width:0.999998px">100</tspan></text>
  </g>
</svg>
