<?xml version="1.0" encoding="UTF-8" standalone="no"?>
<!-- Created with Inkscape (http://www.inkscape.org/) -->

<svg
   xmlns:dc="http://purl.org/dc/elements/1.1/"
   xmlns:cc="http://creativecommons.org/ns#"
   xmlns:rdf="http://www.w3.org/1999/02/22-rdf-syntax-ns#"
   xmlns:svg="http://www.w3.org/2000/svg"
   xmlns="http://www.w3.org/2000/svg"
   xmlns:sodipodi="http://sodipodi.sourceforge.net/DTD/sodipodi-0.dtd"
   xmlns:inkscape="http://www.inkscape.org/namespaces/inkscape"
   width="617.63678"
   height="613.92725"
   id="svg2"
   version="1.1"
   inkscape:version="0.48.0 r9654"
   sodipodi:docname="señal r-410.svg">
  <defs
     id="defs4" />
  <sodipodi:namedview
     id="base"
     pagecolor="#ffffff"
     bordercolor="#666666"
     borderopacity="1.0"
     inkscape:pageopacity="0.0"
     inkscape:pageshadow="2"
     inkscape:zoom="0.53317828"
     inkscape:cx="180.64045"
     inkscape:cy="416.78378"
     inkscape:document-units="px"
     inkscape:current-layer="layer1"
     showgrid="false"
     fit-margin-top="0"
     fit-margin-left="0"
     fit-margin-right="0"
     fit-margin-bottom="0"
     inkscape:window-width="1280"
     inkscape:window-height="750"
     inkscape:window-x="-8"
     inkscape:window-y="-8"
     inkscape:window-maximized="1" />
  <metadata
     id="metadata7">
    <rdf:RDF>
      <cc:Work
         rdf:about="">
        <dc:format>image/svg+xml</dc:format>
        <dc:type
           rdf:resource="http://purl.org/dc/dcmitype/StillImage" />
        <dc:title></dc:title>
      </cc:Work>
    </rdf:RDF>
  </metadata>
  <g
     inkscape:label="Capa 1"
     inkscape:groupmode="layer"
     id="layer1"
     transform="translate(-6.6938286,-251.62091)">
    <path
       sodipodi:type="arc"
       style="fill:#ffffff;fill-opacity:1;fill-rule:nonzero;stroke:#0000ff;stroke-width:1;stroke-linecap:round;stroke-linejoin:round;stroke-miterlimit:4;stroke-opacity:1;stroke-dasharray:none;stroke-dashoffset:0"
       id="path3014"
       sodipodi:cx="455.55341"
       sodipodi:cy="338.73849"
       sodipodi:rx="295.08191"
       sodipodi:ry="295.08191"
       d="m 750.63531,338.73849 a 295.08191,295.08191 0 1 1 -590.16381,0 295.08191,295.08191 0 1 1 590.16381,0 z"
       transform="matrix(1.0201905,0,0,1.0201905,-150.14899,214.71432)" />
    <path
       inkscape:connector-curvature="0"
       id="path3834"
       d="m 5.4071115,862.3023 c 0.6770456,-0.67707 2.4343889,-0.74939 3.9052099,-0.16084 1.6253746,0.65038 1.1425766,1.13319 -1.230991,1.23097 -2.1478657,0.0886 -3.3512635,-0.39307 -2.6742189,-1.07013 z M 274.82422,860.56782 C 251.73381,856.66586 240.4683,853.97308 221.84919,847.90547 112.48279,812.26497 29.791521,713.95853 14.720847,601.66361 13.295842,591.0456 11.554561,582.35812 10.851348,582.35812 c -0.703223,0 0.499799,-25.55681 -0.628763,-17.99258 -1.6796336,11.25776 -0.03881,32.66275 -0.09809,-11.53442 -0.04502,-33.50265 0.904988,-1.59359 0.937838,-5.31733 0.04044,-4.57721 -0.287715,-10.82198 -0.223125,-7.17994 0.200878,11.32887 1.567446,-8.27176 3.074906,-21.64765 7.215496,-64.02376 38.646161,-127.2151 87.484936,-175.88842 36.9683,-36.84307 72.26069,-58.6166 121.6689,-75.06326 130.14795,-43.32274 274.44133,8.59063 350.64747,126.15472 13.75713,21.22326 22.88891,40.47059 32.52092,68.54544 8.51469,24.81801 14.7239,64.11867 15.14768,94.24228 0.38121,27.09953 -5.84014,11.0387 -7.33557,-13.77388 C 608.78649,455.59463 560.34344,365.18221 490.79938,315.63828 399.9507,250.91672 281.33419,241.57439 183.13667,291.40654 123.0683,321.88935 80.093185,364.59955 50.746245,422.98089 30.962843,462.33702 22.362913,493.5634 19.338804,537.02148 c -3.864304,55.5322 6.110944,105.55471 30.778332,154.34296 31.174445,61.65819 75.473454,105.53277 136.170654,134.86608 36.73908,17.75495 68.94778,26.2557 109.49991,28.9002 67.26645,4.38651 128.91947,-11.61767 185.15331,-48.06307 76.84602,-49.80437 127.09904,-145.41426 133.8322,-238.57284 1.50721,-20.85323 9.38394,-14.27447 5.27086,18.64729 l -5.1298,41.0598 -8.4092,24.67879 c -16.83301,49.40039 -38.07065,83.51301 -74.68077,119.95478 -45.34711,45.13866 -94.75149,71.87922 -156.52013,84.7182 -26.65054,5.53946 -76.65931,7.03956 -100.47995,3.01415 z m 16.30002,-20.79081 C 204.4041,829.37555 131.72499,786.93477 84.664857,719.21579 72.664414,701.94729 54.362274,665.62932 47.910221,646.28147 32.053257,598.73102 29.78708,543.81799 41.594976,493.25306 65.245218,391.97565 143.92802,311.15938 244.4353,284.91274 c 28.89769,-7.54639 61.5707,-11.0779 86.42022,-9.34088 133.78354,9.3517 238.35706,101.47301 264.12519,232.67418 4.73175,24.09218 4.78635,72.28649 0.11104,97.99885 -22.26086,122.42605 -119.68819,215.71075 -242.1606,231.86407 -21.02031,2.77243 -46.79923,3.46823 -61.80691,1.66805 z M 407.08129,739.0887 c 12.23801,-14.54405 10.28003,-23.94643 -13.05321,-62.68245 l -18.82886,-31.25822 -8.75288,-38.17021 -8.75289,-38.17022 3.8425,-32.21954 c 2.11335,-17.72077 4.34939,-32.72645 4.96895,-33.34602 0.61954,-0.61954 6.19195,3.86264 12.38309,9.96041 l 11.25666,11.08688 -1.39398,22.88054 c -1.22577,20.11985 -0.99155,23.03494 1.94127,24.16038 5.76419,2.21193 13.98263,-1.18672 21.81889,-9.02297 7.09651,-7.09651 7.64501,-8.56077 8.91869,-23.80852 0.74642,-8.9358 1.82332,-18.72152 2.39313,-21.74598 0.90536,-4.80568 -3.17021,-10.20098 -32.32134,-42.78753 -24.28298,-27.14472 -34.75664,-37.45466 -38.50119,-37.89937 -3.0142,-0.35798 -13.97982,3.61974 -26.48557,9.60753 -18.338,8.78026 -23.31898,12.30742 -35.39051,25.06091 -7.72684,8.16337 -29.45451,30.53443 -48.28372,49.71344 -18.82918,19.17905 -34.2349,35.76992 -34.2349,36.86864 0,4.18871 8.33416,9.26303 16.77672,10.21462 8.69512,0.98008 9.10514,0.73024 37.18089,-22.65347 15.61384,-13.00445 29.11526,-23.64447 30.00314,-23.64447 1.96941,0 1.86739,23.65305 -0.16341,37.86552 -1.24668,8.72508 -4.47608,14.50008 -20.47201,36.60913 -10.44554,14.43745 -19.79767,28.1133 -20.78254,30.39078 -1.79923,4.16086 -22.16777,91.40569 -22.16777,94.95185 0,2.86511 15.53349,2.27032 23.08247,-0.88385 12.67804,-5.29722 16.31239,-12.32622 23.73019,-45.89514 l 6.83818,-30.94582 16.06378,-15.71183 c 8.83507,-8.64152 17.22624,-15.97609 18.64701,-16.29907 1.60437,-0.36474 6.35077,8.90003 12.52587,24.45001 11.30743,28.47404 20.73204,45.37147 40.70474,72.97971 7.6773,10.61232 16.72814,23.19182 20.11301,27.95448 3.38488,4.76266 7.27161,8.65941 8.63722,8.65941 1.3656,0 4.85688,-2.82132 7.75838,-6.26956 z M 339.9405,426.69129 c 10.1126,-7.71325 13.98452,-16.07913 12.8597,-27.7854 -2.62154,-27.2828 -33.86861,-39.41591 -52.7874,-20.49711 -16.20071,16.20069 -13.60059,38.58237 5.88866,50.68935 10.19596,6.33387 23.84467,5.36879 34.03904,-2.40684 z"
       style="fill:#092d78;fill-opacity:1"
       sodipodi:nodetypes="sscsssssssssssssssssssssssssscsssssssssssssssscccssscsssssssssssssssscssscssssssssssss" />
    <rect
       style="fill:#ffffff;fill-opacity:1;fill-rule:nonzero;stroke:none"
       id="rect3895"
       width="264.45187"
       height="448.25531"
       x="172.55017"
       y="85.023476"
       transform="translate(6.6938286,251.62091)" />
    <path
       inkscape:connector-curvature="0"
       id="path3886"
       d="M 284.77053,826.22509 C 118.95286,799.83659 17.879546,631.03653 71.347236,469.79205 99.856286,383.81623 163.96842,321.1779 251.63356,293.65011 c 20.8512,-6.5475 30.51631,-7.54288 72.41558,-7.45785 45.80169,0.0929 49.90858,0.63662 77.84127,10.30474 34.07759,11.795 69.19148,31.7237 92.35697,52.41668 22.33012,19.94675 47.9403,51.33944 45.32929,55.56416 -1.18781,1.9219 -0.69896,2.5916 1.08632,1.48823 4.5371,-2.80407 28.15824,46.12694 36.2976,75.19013 8.41216,30.0373 11.59367,85.11704 6.72796,116.47727 -9.36238,60.34204 -33.13548,106.66274 -77.51573,151.03557 -39.8874,39.88076 -72.69209,59.00083 -124.29859,72.44697 -23.24918,6.0576 -74.27381,8.74224 -97.1037,5.10908 z m -69.51515,-96.6661 c 10.48031,-11.54825 15.31879,-17.80156 13.83552,-17.88118 -0.8119,-0.0435 5.71573,-12.8091 14.50585,-28.36786 l 15.98201,-28.2886 53.02005,0.38002 c 52.69373,0.37767 53.08552,0.32777 63.6645,-8.1134 9.70572,-7.74438 10.64444,-10.04481 10.64444,-26.08533 l 0,-17.59193 14.50584,0 14.50583,0 0,-12.11144 -0.11722,-11.17363 -15.32638,-0.25296 -13.68529,0.21592 0.11722,-35.1112 0,-36.51786 24.26514,-24.4083 24.26516,-24.40829 -7.67694,-7.2121 -7.67693,-7.21211 -17.16237,15.86209 -17.16237,15.8621 -6.75131,-10.01827 c -6.36268,-9.44158 -22.26395,-19.0464 -41.33254,-20.17376 -8.28887,-0.49004 -9.33907,-4.5795 -0.0293,-3.53742 3.44325,0.38542 6.91327,0.54576 11.93114,-0.86802 4.78339,-2.82044 11.60778,-5.86482 18.44751,-12.70452 12.20517,-12.20518 14.16626,-18.32144 12.49922,-38.98245 -1.95671,-24.25083 -30.45706,-43.15182 -54.2973,-36.00911 -34.99008,10.48328 -46.21371,58.32695 -16.2654,79.38377 11.59412,8.15189 11.56528,13.51328 1.12923,21.72228 -16.18522,12.7313 -18.57607,22.49647 -21.07372,86.07333 -1.28128,32.61499 -1.98256,61.62666 -1.55838,64.47038 0.6411,4.29792 -3.8706,5.44233 -26.73792,6.78212 l -27.50919,1.61176 -9.52691,16.11759 c -19.25734,32.57946 -44.08198,81.29595 -44.08198,86.50757 0,7.99443 11.77788,18.25679 20.95287,18.25679 4.43234,0 10.59732,-2.79721 13.69996,-6.21598 z m 54.88501,-83.18347 c 7.58185,-0.68094 19.18652,-0.67137 25.78815,0.0226 6.60164,0.69264 0.39833,1.24979 -13.78515,1.23809 -14.18348,-0.0129 -19.58484,-0.57843 -12.003,-1.2594 z m 49.07347,-71.9109 c 0,-0.88646 20.67465,-3.47047 36.63107,-19.35295 15.95641,-15.88249 14.4762,-19.71201 14.4762,-18.82554 0,0.88646 -3.20865,-2.50783 -19.16506,13.37465 -15.95642,15.88249 -31.94221,25.69031 -31.94221,24.80384 z m -10.72541,-40.72729 c 0,-0.88647 0.41015,20.3867 7.50189,13.4618 7.09174,-6.9249 12.89407,-11.86543 12.89407,-10.97897 0,0.88647 -3.4579,-12.41564 -10.54964,-5.49074 -7.09174,6.9249 -9.84632,3.89438 -9.84632,3.00791 z m 33.29004,-12.32634 c 6.01438,-6.20528 6.15112,-13.62675 7.03759,-13.62675 0.88647,0 -3.30911,2.49816 -9.32348,8.70344 -6.01438,6.20527 -7.79222,9.0551 -8.67869,9.0551 -0.88647,0 4.9502,2.07348 10.96458,-4.13179 z m -30.1255,-67.54718 c 0,-1.77293 -6.28928,-19.63857 11.58994,-13.07013 2.51037,0.92225 11.52826,5.2515 9.59767,6.03684 -3.20573,1.30405 -5.70166,2.0513 -7.36996,2.0513 -1.6683,0 -13.81765,6.75493 -13.81765,4.98199 z m 120.62357,147.75758 c 2.65941,-1.71865 1.54367,-1.21924 2.68606,-2.26239 1.9345,-1.76645 0.83846,-0.57452 3.60432,-2.64666 3.35277,-2.51183 4.63521,-2.76307 3.7931,-3.92351 -0.44803,-0.61739 -2.26262,-2.00389 -2.98932,-2.81903 -1.16907,-1.31136 -2.35088,-2.19831 -3.30431,-3.09112 -1.57441,-1.47429 -6.86218,-6.34868 -9.75055,-6.98593 -3.80675,-0.83989 -2.96982,2.68133 -3.3049,10.47377 -0.66362,15.4328 -0.65387,17.66532 9.2656,11.25487 z m 13.11947,-163.7462 c -0.0751,-5.9054 -2.05489,-3.43924 -9.11633,-3.94087 -5.23464,-0.37187 -10.68972,-0.33483 -10.68972,0.36883 0,0.70366 12.58511,12.31646 17.30462,17.5334 3.75304,4.14861 2.65434,-1.94418 2.50143,-13.96136 z"
       style="fill:#092d78;fill-opacity:1"
       sodipodi:nodetypes="sssssssssssssccscssscccccccccccccccssscsssssssscsssscscccsssssssssssssssssssssssssssssssssss" />
    <path
       inkscape:connector-curvature="0"
       id="path3884"
       d="m 192.11512,724.2624 c -2.78604,-2.78603 -5.0519,-6.77513 -5.03523,-8.86468 0.0168,-2.08952 11.2788,-24.10731 25.02696,-48.9284 l 24.99667,-45.12926 31.38459,-0.9226 c 30.95526,-0.91 31.38463,-1.03127 31.38463,-8.86468 l 0,-7.94207 40.29399,0 40.29398,0 0,13.88972 c 0,25.62539 -1.32992,26.18519 -66.5604,28.01602 l -57.42496,1.61176 -21.45703,37.07046 c -11.80137,20.38876 -23.12761,38.88369 -25.16942,41.09986 -5.02516,5.45426 -11.62924,5.0684 -17.73378,-1.03613 z M 299.87274,577.92178 c 0,-1.82751 4.68713,-3.32274 10.41587,-3.32274 8.82712,0 14.98933,-4.5481 40.39965,-29.81755 l 29.98379,-29.81754 -0.91155,32.23518 -0.91154,32.23519 -39.48811,0.9051 c -25.54784,0.58558 -39.48811,-0.26788 -39.48811,-2.41764 z m 0.006,-53.42199 c 0.006,-44.7267 4.322,-57.53042 22.55964,-66.92209 21.11521,-10.8735 44.18999,-2.78528 53.36052,18.70403 4.08755,9.5784 3.88463,9.90094 -21.29628,33.84694 -13.98275,13.29701 -30.82223,29.70562 -38.85379,37.60974 l -15.77654,15.30888 0.006,-38.5475 z m 49.22081,-80.78903 c 1.07115,-1.07115 -0.017,0.0771 0.21047,-0.0887 0.19103,-0.13924 -0.39807,-0.002 -0.28979,0.124 0.12491,0.14502 0.0793,-0.0353 0.0793,-0.0353 z m -29.05799,-11.03945 c -9.6212,-3.86812 -20.14035,-21.65627 -20.15531,-34.0832 -0.029,-22.84055 25.00387,-42.50972 46.31907,-36.3966 28.88959,8.28542 36.87799,42.65935 14.99861,64.53873 -9.77548,9.77547 -25.85314,12.09601 -41.16237,5.94107 z"
       style="fill:#22313b"
       sodipodi:nodetypes="scscsscccsscsssssscccsscssscccccssccscsss" />
    <path
       style="fill:#092d78;fill-opacity:1;stroke:none"
       d="m 312.48667,436.18742 2.90109,1.74065 2.8182,1.16044 4.72462,1.32621 6.46528,1.98932 6.21661,0.82888 6.54817,0.41444 -0.0829,3.81286 -8.70326,-0.49733 -6.21661,1.74065 -3.4813,0.82888 -7.0455,2.98397 -3.39841,1.49199 z"
       id="path3893"
       inkscape:connector-curvature="0" />
  </g>
</svg>
