<?xml version="1.0" encoding="UTF-8" standalone="no"?>
<!-- Created with Inkscape (http://www.inkscape.org/) -->

<svg
   xmlns:dc="http://purl.org/dc/elements/1.1/"
   xmlns:cc="http://creativecommons.org/ns#"
   xmlns:rdf="http://www.w3.org/1999/02/22-rdf-syntax-ns#"
   xmlns:svg="http://www.w3.org/2000/svg"
   xmlns="http://www.w3.org/2000/svg"
   xmlns:sodipodi="http://sodipodi.sourceforge.net/DTD/sodipodi-0.dtd"
   xmlns:inkscape="http://www.inkscape.org/namespaces/inkscape"
   width="617.63678"
   height="613.92725"
   id="svg2"
   version="1.1"
   inkscape:version="0.48.0 r9654"
   sodipodi:docname="Señal_r-410.svg">
  <defs
     id="defs4" />
  <sodipodi:namedview
     id="base"
     pagecolor="#ffffff"
     bordercolor="#666666"
     borderopacity="1.0"
     inkscape:pageopacity="0.0"
     inkscape:pageshadow="2"
     inkscape:zoom="0.53317828"
     inkscape:cx="455.54949"
     inkscape:cy="195.78333"
     inkscape:document-units="px"
     inkscape:current-layer="layer1"
     showgrid="false"
     fit-margin-top="0"
     fit-margin-left="0"
     fit-margin-right="0"
     fit-margin-bottom="0"
     inkscape:window-width="1280"
     inkscape:window-height="750"
     inkscape:window-x="-8"
     inkscape:window-y="-8"
     inkscape:window-maximized="1" />
  <metadata
     id="metadata7">
    <rdf:RDF>
      <cc:Work
         rdf:about="">
        <dc:format>image/svg+xml</dc:format>
        <dc:type
           rdf:resource="http://purl.org/dc/dcmitype/StillImage" />
        <dc:title></dc:title>
      </cc:Work>
    </rdf:RDF>
  </metadata>
  <g
     inkscape:label="Capa 1"
     inkscape:groupmode="layer"
     id="layer1"
     transform="translate(-6.6938286,-251.62091)">
    <path
       sodipodi:type="arc"
       style="fill:#ffffff;fill-opacity:1;fill-rule:nonzero;stroke:#0000ff;stroke-width:1;stroke-linecap:round;stroke-linejoin:round;stroke-miterlimit:4;stroke-opacity:1;stroke-dasharray:none;stroke-dashoffset:0"
       id="path3014"
       sodipodi:cx="455.55341"
       sodipodi:cy="338.73849"
       sodipodi:rx="295.08191"
       sodipodi:ry="295.08191"
       d="m 750.63531,338.73849 c 0,162.96924 -132.11267,295.08191 -295.0819,295.08191 -162.96924,0 -295.08191,-132.11267 -295.08191,-295.08191 0,-162.96923 132.11267,-295.081904 295.08191,-295.081904 162.96923,0 295.0819,132.112674 295.0819,295.081904 z"
       transform="matrix(1.0201905,0,0,1.0201905,-150.14899,214.71432)" />
    <path
       inkscape:connector-curvature="0"
       id="path3015"
       d="m 5.4092911,864.28132 c 0.6729919,-0.67299 2.4198159,-0.74492 3.8818389,-0.15987 1.615658,0.64652 1.135754,1.12643 -1.2236255,1.22361 -2.1350149,0.0879 -3.3312155,-0.39075 -2.6582134,-1.06374 z M 285.54769,863.2773 C 234.52781,857.8991 185.12921,839.72061 142.11721,810.49542 118.0658,794.15332 82.591623,758.6539 65.986714,734.31077 36.73781,691.43127 17.170436,638.01058 13.68068,591.51052 c -1.489478,-19.84684 2.346204,-43.62008 2.113875,-26.9801 -0.08256,5.91384 0.995664,-2.964 0.103745,2.04865 -1.007919,5.66451 -2.090584,27.07824 -2.090584,-5.02064 0,-32.09888 1.082665,-10.21627 2.090584,-4.55175 0.891919,5.01264 -0.172347,-0.86463 -0.07273,4.70498 0.265662,14.85198 -2.934083,-6.00121 -2.894571,-20.49761 0.03481,-12.78888 4.633043,-41.67884 9.309882,-58.49302 C 69.103737,314.23957 243.73703,220.37678 409.92312,274.34764 c 95.65734,31.06582 171.94643,112.19845 197.57052,210.11411 4.70902,17.99437 4.96065,21.90729 4.96065,77.14418 0,51.29145 -0.47357,60.04003 -3.99553,73.81073 -32.20534,125.92168 -137.51183,215.38516 -268.4089,228.02766 -23.11347,2.23241 -31.99863,2.20516 -54.50217,-0.16708 z m 92.23285,-11.65685 C 493.9617,824.6302 580.17429,737.16099 605.63757,620.44224 c 5.38142,-24.66741 5.38142,-92.80068 0,-117.46809 -5.88866,-26.99257 -14.82203,-51.67896 -27.89214,-77.07698 -40.8409,-79.3626 -114.7809,-135.47341 -204.38442,-155.10108 -24.51672,-5.37039 -92.73838,-5.37039 -117.2551,0 -27.42027,6.00641 -45.92238,12.65157 -74.03036,26.58849 -81.14223,40.23317 -138.40079,114.62208 -158.246204,205.58957 -5.381428,24.66741 -5.381428,92.80068 0,117.46809 19.675287,90.18765 76.133868,164.08705 156.782444,205.21464 30.44633,15.52646 60.74765,25.08147 96.65341,30.47807 3.34175,0.50226 23.39234,0.60553 44.55686,0.22947 29.44993,-0.52326 42.58268,-1.63661 55.95848,-4.74397 z m -86.91153,-8.68692 C 226.7041,838.44291 162.49659,808.60113 115.16856,761.27309 56.155952,702.26047 26.673745,622.28563 33.391026,539.43939 42.330912,429.18096 114.059,334.39263 217.20109,296.5353 c 72.16346,-26.48692 156.1849,-21.69712 224.70658,12.80985 65.95367,33.21375 118.19435,93.95274 141.19321,164.16199 8.27652,25.26599 10.82985,38.36052 13.09465,67.15497 6.40719,81.46016 -23.59929,162.27549 -81.84552,220.43144 -59.63785,59.54543 -137.0379,87.88975 -223.481,81.83998 z M 271.31414,694.95244 c 22.82927,-6.35702 61.82864,-6.35948 85.27565,-0.006 21.24058,5.75617 30.59264,5.64326 54.82699,-0.66191 10.87465,-2.82932 28.20247,-5.70098 38.50624,-6.38142 l 18.73414,-1.23718 0,-8.80843 0,-8.80844 -12.89924,0 c -14.57667,0 -44.52524,4.7923 -57.55113,9.20917 -11.84044,4.01492 -21.20259,3.69873 -37.91026,-1.28034 -19.58197,-5.83565 -57.72962,-7.40555 -76.9554,-3.16698 -7.79745,1.71905 -19.41952,4.27357 -25.82683,5.67674 -9.50475,2.08148 -13.42017,2.05628 -21.26578,-0.1367 -21.31812,-5.95902 -34.88842,-8.34044 -54.67931,-9.59559 l -20.75944,-1.31588 0,9.41905 0,9.41906 9.62023,0.0142 c 12.50495,0.0182 43.56928,4.99871 55.18975,8.84778 13.03929,4.31902 27.2461,3.94991 45.69439,-1.18718 z m 4.40947,-24.3548 c 21.63572,-6.23245 55.55104,-6.18016 78.01971,0.1203 20.29962,5.69222 32.84395,5.5584 58.54931,-0.6247 11.50687,-2.76781 28.66839,-5.72984 38.13672,-6.58226 l 17.21515,-1.54986 0.63807,-8.92064 0.63808,-8.92065 -19.87853,1.34924 c -10.93321,0.74208 -25.80258,2.65827 -33.04306,4.25821 -39.21685,8.66567 -34.65066,8.41992 -56.15925,3.02265 -27.56308,-6.91654 -62.48895,-6.99194 -89.11623,-0.19241 -20.40508,5.21064 -24.37693,5.10125 -52.19242,-1.43715 -10.0253,-2.35661 -27.17316,-4.89577 -38.10635,-5.64263 l -19.87854,-1.35789 0.63808,8.86153 0.63807,8.86155 22.27843,2.53321 c 12.25314,1.39328 28.65817,4.25839 36.45561,6.36694 19.74803,5.34018 36.27542,5.29662 55.16715,-0.14542 z m -64.1479,-27.94823 c 2.1546,-1.15311 3.91748,-3.77568 3.91748,-5.82795 0,-2.05225 1.36708,-4.86595 3.03797,-6.25266 1.67088,-1.38671 3.03796,-4.68818 3.03796,-7.33658 l 0,-4.8153 36.69012,0 c 29.49413,0 38.60659,0.68067 46.46166,3.47056 9.22713,3.27718 10.17702,3.27718 17.04937,0 6.05998,-2.88982 13.54666,-3.47056 44.74092,-3.47056 33.8839,0 37.57473,0.33861 38.63134,3.5443 3.29022,9.98225 9.14207,20.78705 11.37321,20.9994 9.31615,0.88669 11.56231,-1.97883 11.60417,-14.80394 0.0161,-5.22538 0.9424,-10.06397 2.05632,-10.75241 2.57932,-1.5941 2.66815,-13.16453 0.10107,-13.16453 -1.05833,0 -2.19757,-5.14616 -2.53165,-11.4359 -0.6771,-12.74837 -4.74805,-17.74459 -11.16188,-13.69886 -4.29728,2.71065 -10.14164,12.9389 -11.04619,19.33196 l -0.67775,4.79014 -38.07423,0.5514 c -31.45391,0.45549 -38.83957,0.0163 -42.47586,-2.53164 -5.59354,-3.91788 -17.74792,-3.97609 -22.86004,-0.10957 -3.12434,2.36313 -11.72683,2.98677 -41.90599,3.03797 -35.31061,0.06 -37.97459,-0.19261 -37.97459,-3.59913 0,-2.01494 -1.3381,-5.43266 -2.97356,-7.59491 -1.63544,-2.16226 -3.00252,-5.5557 -3.03797,-7.54095 -0.0803,-4.49808 -7.93274,-7.7037 -12.7226,-5.19377 -2.63187,1.37914 -3.5443,4.38199 -3.5443,11.66456 0,6.24683 -1.10291,10.72265 -3.03796,12.32859 -1.67088,1.38672 -3.03797,4.57658 -3.03797,7.0886 0,2.51202 1.36709,5.70188 3.03797,7.08859 1.93274,1.60405 3.03796,6.07851 3.03796,12.29921 0,7.1757 0.94326,10.32735 3.5443,11.84231 4.44678,2.59 4.07839,2.58618 8.74072,0.0909 z"
       style="fill:#e0751a"
       sodipodi:nodetypes="sscscsssssssssssssssccssssssssssssssssssssssccsscccsssssccccccscccssscccsssssscccsscccssscsssssscssssscscsssssssssssscc" />
    <path
       inkscape:connector-curvature="0"
       id="path3012"
       d="M 292.45504,863.24084 C 238.63261,859.5378 184.2746,840.07702 139.54796,808.4984 116.9797,792.56439 84.648828,760.46231 69.039398,738.48877 36.97407,693.35014 16.458834,636.81194 13.505016,585.44092 c -1.318739,-22.93477 -1.709584,-35.0082 -1.930437,-14.7205 -0.08255,7.58471 2.871208,-11.6482 1.979289,-6.63556 -1.015913,5.70945 -2.090583,34.18493 -2.090583,3.1002 0,-31.08473 -0.800875,-4.48479 0.215038,1.22464 0.891919,5.01265 0.282577,-8.19171 0.365142,-0.11578 0.08256,8.07593 -1.884334,-0.32085 -0.932389,-0.32085 0.951945,0 1.772939,-19.20155 2.397511,-30.06229 2.952103,-51.33432 23.575353,-108.12299 55.530811,-152.91097 15.24769,-21.37077 47.902702,-54.08654 68.755942,-68.88388 58.19885,-41.29754 126.73587,-60.63184 198.2039,-55.91335 55.03027,3.63323 109.66402,23.24033 155.5148,55.81156 21.18281,15.04772 53.82103,47.66716 68.81169,68.77209 21.60186,30.41271 37.34488,64.06666 47.23409,100.97277 4.6215,17.24722 8.19979,21.33304 8.19979,75.9492 0,54.61615 -3.57829,58.70197 -8.19979,75.94919 -9.88921,36.90612 -25.63223,70.56007 -47.23409,100.97277 -14.99066,21.10492 -47.62888,53.72437 -68.81169,68.77209 -43.84205,31.14427 -100.94403,52.27214 -149.28606,55.23622 -8.99542,0.55154 -19.08947,1.2419 -22.43124,1.53416 -3.34177,0.29223 -15.64553,-0.12699 -27.3417,-0.93179 z m 83.03777,-10.8511 c 117.01954,-26.03109 205.2437,-114.90723 230.246,-231.9475 2.87371,-13.45241 3.67751,-26.29003 3.67751,-58.73404 0,-32.44402 -0.8038,-45.28165 -3.67751,-58.73405 C 587.76248,418.82371 536.21052,347.56355 461.81637,304.0305 441.0057,291.85279 407.7278,278.85912 381.25608,272.57502 c -21.09664,-5.00812 -26.46149,-5.45872 -65.50996,-5.50226 -33.56067,-0.0374 -46.16263,0.72824 -59.7467,3.63009 C 124.05174,298.88967 28.026119,408.32103 19.303916,540.44242 9.146322,694.30671 113.96828,827.77622 265.96644,854.5171 c 21.38394,3.76205 88.95089,2.44969 109.52637,-2.12736 z m -84.6238,-9.45621 C 226.7041,838.44291 162.49659,808.60113 115.16856,761.27309 56.155952,702.26047 26.673745,622.28563 33.391026,539.43939 42.330912,429.18096 114.059,334.39263 217.20109,296.5353 c 72.16346,-26.48692 156.1849,-21.69712 224.70658,12.80985 65.95367,33.21375 118.19435,93.95274 141.19321,164.16199 8.27652,25.26599 10.82985,38.36052 13.09465,67.15497 6.40719,81.46016 -23.59929,162.27549 -81.84552,220.43144 -59.63785,59.54543 -137.0379,87.88975 -223.481,81.83998 z M 271.31414,694.95244 c 22.82927,-6.35702 61.82864,-6.35948 85.27565,-0.006 21.24058,5.75617 30.59264,5.64326 54.82699,-0.66191 10.87465,-2.82932 28.20247,-5.70098 38.50624,-6.38142 l 18.73414,-1.23718 0,-8.80843 0,-8.80844 -12.89924,0 c -14.57667,0 -44.52524,4.7923 -57.55113,9.20917 -11.84044,4.01492 -21.20259,3.69873 -37.91026,-1.28034 -19.58197,-5.83565 -57.72962,-7.40555 -76.9554,-3.16698 -7.79745,1.71905 -19.41952,4.27357 -25.82683,5.67674 -9.50475,2.08148 -13.42017,2.05628 -21.26578,-0.1367 -21.31812,-5.95902 -34.88842,-8.34044 -54.67931,-9.59559 l -20.75944,-1.31588 0,9.41905 0,9.41906 9.62023,0.0142 c 12.50495,0.0182 43.56928,4.99871 55.18975,8.84778 13.03929,4.31902 27.2461,3.94991 45.69439,-1.18718 z m 4.40947,-24.3548 c 21.63572,-6.23245 55.55104,-6.18016 78.01971,0.1203 20.29962,5.69222 32.84395,5.5584 58.54931,-0.6247 11.50687,-2.76781 28.66839,-5.72984 38.13672,-6.58226 l 17.21515,-1.54986 0.63807,-8.92064 0.63808,-8.92065 -19.87853,1.34924 c -10.93321,0.74208 -25.80258,2.65827 -33.04306,4.25821 -39.21685,8.66567 -34.65066,8.41992 -56.15925,3.02265 -27.56308,-6.91654 -62.48895,-6.99194 -89.11623,-0.19241 -20.40508,5.21064 -24.37693,5.10125 -52.19242,-1.43715 -10.0253,-2.35661 -27.17316,-4.89577 -38.10635,-5.64263 l -19.87854,-1.35789 0.63808,8.86153 0.63807,8.86155 22.27843,2.53321 c 12.25314,1.39328 28.65817,4.25839 36.45561,6.36694 19.74803,5.34018 36.27542,5.29662 55.16715,-0.14542 z m -64.1479,-27.94823 c 2.1546,-1.15311 3.91748,-3.77568 3.91748,-5.82795 0,-2.05225 1.36708,-4.86595 3.03797,-6.25266 1.67088,-1.38671 3.03796,-4.68818 3.03796,-7.33658 l 0,-4.8153 36.69012,0 c 29.49413,0 38.60659,0.68067 46.46166,3.47056 9.22713,3.27718 10.17702,3.27718 17.04937,0 6.05998,-2.88982 13.54666,-3.47056 44.74092,-3.47056 33.8839,0 37.57473,0.33861 38.63134,3.5443 3.29022,9.98225 9.14207,20.78705 11.37321,20.9994 9.31615,0.88669 11.56231,-1.97883 11.60417,-14.80394 0.0161,-5.22538 0.9424,-10.06397 2.05632,-10.75241 2.57932,-1.5941 2.66815,-13.16453 0.10107,-13.16453 -1.05833,0 -2.19757,-5.14616 -2.53165,-11.4359 -0.6771,-12.74837 -4.74805,-17.74459 -11.16188,-13.69886 -4.29728,2.71065 -10.14164,12.9389 -11.04619,19.33196 l -0.67775,4.79014 -38.07423,0.5514 c -31.45391,0.45549 -38.83957,0.0163 -42.47586,-2.53164 -5.59354,-3.91788 -17.74792,-3.97609 -22.86004,-0.10957 -3.12434,2.36313 -11.72683,2.98677 -41.90599,3.03797 -35.31061,0.06 -37.97459,-0.19261 -37.97459,-3.59913 0,-2.01494 -1.3381,-5.43266 -2.97356,-7.59491 -1.63544,-2.16226 -3.00252,-5.5557 -3.03797,-7.54095 -0.0803,-4.49808 -7.93274,-7.7037 -12.7226,-5.19377 -2.63187,1.37914 -3.5443,4.38199 -3.5443,11.66456 0,6.24683 -1.10291,10.72265 -3.03796,12.32859 -1.67088,1.38672 -3.03797,4.57658 -3.03797,7.0886 0,2.51202 1.36709,5.70188 3.03797,7.08859 1.93274,1.60405 3.03796,6.07851 3.03796,12.29921 0,7.1757 0.94326,10.32735 3.5443,11.84231 4.44678,2.59 4.07839,2.58618 8.74072,0.0909 z M 445.20042,568.5801 c 4.56552,-1.75196 4.56552,-22.11841 0,-23.87037 -1.76198,-0.67615 -10.16289,-1.22934 -18.66869,-1.22934 l -15.4651,0 9.76198,-9.62023 c 13.7289,-13.52955 16.31967,-19.21458 16.38277,-35.94929 0.0662,-17.57709 -3.67032,-24.64612 -19.96994,-37.77998 -50.30686,-40.53616 -118.98775,-47.2397 -178.45717,-17.41818 -38.74748,19.4303 -53.77111,40.54764 -47.49941,66.76555 2.10696,8.80782 4.66022,12.76637 14.36938,22.27815 l 11.80715,11.56711 -17.69293,0.58475 -17.69291,0.58477 -0.62747,9.86922 c -0.34511,5.42809 -0.14587,11.12428 0.44276,12.6582 0.89341,2.32821 22.46855,2.78898 130.5881,2.78898 71.23484,0 130.9595,-0.55319 132.72148,-1.22934 z"
       style="fill:#092d78;fill-opacity:1"
       sodipodi:nodetypes="ssssssssssssssssssssssssssssssssssssssssssssccsscccsssssccccccscccssscccsssssscccsscccssscsssssscssssscscssssssssssssccssscsssssscccssss" />
  </g>
</svg>
