<?xml version="1.0" encoding="UTF-8" standalone="no"?>
<!-- Created with Inkscape (http://www.inkscape.org/) -->

<svg
   xmlns:dc="http://purl.org/dc/elements/1.1/"
   xmlns:cc="http://creativecommons.org/ns#"
   xmlns:rdf="http://www.w3.org/1999/02/22-rdf-syntax-ns#"
   xmlns:svg="http://www.w3.org/2000/svg"
   xmlns="http://www.w3.org/2000/svg"
   xmlns:sodipodi="http://sodipodi.sourceforge.net/DTD/sodipodi-0.dtd"
   xmlns:inkscape="http://www.inkscape.org/namespaces/inkscape"
   width="617.63678"
   height="613.92725"
   id="svg2"
   version="1.1"
   inkscape:version="0.48.0 r9654"
   sodipodi:docname="señal r-408.svg">
  <defs
     id="defs4" />
  <sodipodi:namedview
     id="base"
     pagecolor="#ffffff"
     bordercolor="#666666"
     borderopacity="1.0"
     inkscape:pageopacity="0.0"
     inkscape:pageshadow="2"
     inkscape:zoom="0.53317828"
     inkscape:cx="72.097626"
     inkscape:cy="283.70582"
     inkscape:document-units="px"
     inkscape:current-layer="layer1"
     showgrid="false"
     fit-margin-top="0"
     fit-margin-left="0"
     fit-margin-right="0"
     fit-margin-bottom="0"
     inkscape:window-width="1280"
     inkscape:window-height="750"
     inkscape:window-x="-8"
     inkscape:window-y="-8"
     inkscape:window-maximized="1" />
  <metadata
     id="metadata7">
    <rdf:RDF>
      <cc:Work
         rdf:about="">
        <dc:format>image/svg+xml</dc:format>
        <dc:type
           rdf:resource="http://purl.org/dc/dcmitype/StillImage" />
        <dc:title></dc:title>
      </cc:Work>
    </rdf:RDF>
  </metadata>
  <g
     inkscape:label="Capa 1"
     inkscape:groupmode="layer"
     id="layer1"
     transform="translate(-6.6938286,-251.62091)">
    <path
       sodipodi:type="arc"
       style="fill:#ffffff;fill-opacity:1;fill-rule:nonzero;stroke:#0000ff;stroke-width:1;stroke-linecap:round;stroke-linejoin:round;stroke-miterlimit:4;stroke-opacity:1;stroke-dasharray:none;stroke-dashoffset:0"
       id="path3014"
       sodipodi:cx="455.55341"
       sodipodi:cy="338.73849"
       sodipodi:rx="295.08191"
       sodipodi:ry="295.08191"
       d="m 750.63531,338.73849 a 295.08191,295.08191 0 1 1 -590.16381,0 295.08191,295.08191 0 1 1 590.16381,0 z"
       transform="matrix(1.0201905,0,0,1.0201905,-150.14899,214.71432)" />
    <path
       inkscape:connector-curvature="0"
       id="path3834"
       d="m 5.4071115,862.3023 c 0.6770456,-0.67707 2.4343889,-0.74939 3.9052099,-0.16084 1.6253746,0.65038 1.1425766,1.13319 -1.230991,1.23097 -2.1478657,0.0886 -3.3512635,-0.39307 -2.6742189,-1.07013 z M 274.82422,860.56782 C 251.73381,856.66586 240.4683,853.97308 221.84919,847.90547 112.48279,812.26497 29.791521,713.95853 14.720847,601.66361 13.295842,591.0456 11.554561,582.35812 10.851348,582.35812 c -0.703223,0 0.499799,-25.55681 -0.628763,-17.99258 -1.6796336,11.25776 -0.03881,32.66275 -0.09809,-11.53442 -0.04502,-33.50265 0.904988,-1.59359 0.937838,-5.31733 0.04044,-4.57721 -0.287715,-10.82198 -0.223125,-7.17994 0.200878,11.32887 1.567446,-8.27176 3.074906,-21.64765 7.215496,-64.02376 38.646161,-127.2151 87.484936,-175.88842 36.9683,-36.84307 72.26069,-58.6166 121.6689,-75.06326 130.14795,-43.32274 274.44133,8.59063 350.64747,126.15472 13.75713,21.22326 22.88891,40.47059 32.52092,68.54544 8.51469,24.81801 14.7239,64.11867 15.14768,94.24228 0.38121,27.09953 -5.84014,11.0387 -7.33557,-13.77388 C 608.78649,455.59463 560.34344,365.18221 490.79938,315.63828 399.9507,250.91672 281.33419,241.57439 183.13667,291.40654 123.0683,321.88935 80.093185,364.59955 50.746245,422.98089 30.962843,462.33702 22.362913,493.5634 19.338804,537.02148 c -3.864304,55.5322 6.110944,105.55471 30.778332,154.34296 31.174445,61.65819 75.473454,105.53277 136.170654,134.86608 36.73908,17.75495 68.94778,26.2557 109.49991,28.9002 67.26645,4.38651 128.91947,-11.61767 185.15331,-48.06307 76.84602,-49.80437 127.09904,-145.41426 133.8322,-238.57284 1.50721,-20.85323 9.38394,-14.27447 5.27086,18.64729 l -5.1298,41.0598 -8.4092,24.67879 c -16.83301,49.40039 -38.07065,83.51301 -74.68077,119.95478 -45.34711,45.13866 -94.75149,71.87922 -156.52013,84.7182 -26.65054,5.53946 -76.65931,7.03956 -100.47995,3.01415 z m 16.30002,-20.79081 C 204.4041,829.37555 131.72499,786.93477 84.664857,719.21579 72.664414,701.94729 54.362274,665.62932 47.910221,646.28147 32.053257,598.73102 29.78708,543.81799 41.594976,493.25306 65.245218,391.97565 143.92802,311.15938 244.4353,284.91274 c 28.89769,-7.54639 61.5707,-11.0779 86.42022,-9.34088 133.78354,9.3517 238.35706,101.47301 264.12519,232.67418 4.73175,24.09218 4.78635,72.28649 0.11104,97.99885 -22.26086,122.42605 -119.68819,215.71075 -242.1606,231.86407 -21.02031,2.77243 -46.79923,3.46823 -61.80691,1.66805 z M 407.08129,739.0887 c 12.23801,-14.54405 10.28003,-23.94643 -13.05321,-62.68245 l -18.82886,-31.25822 -8.75288,-38.17021 -8.75289,-38.17022 3.8425,-32.21954 c 2.11335,-17.72077 4.34939,-32.72645 4.96895,-33.34602 0.61954,-0.61954 6.19195,3.86264 12.38309,9.96041 l 11.25666,11.08688 -1.39398,22.88054 c -1.22577,20.11985 -0.99155,23.03494 1.94127,24.16038 5.76419,2.21193 13.98263,-1.18672 21.81889,-9.02297 7.09651,-7.09651 7.64501,-8.56077 8.91869,-23.80852 0.74642,-8.9358 1.82332,-18.72152 2.39313,-21.74598 0.90536,-4.80568 -3.17021,-10.20098 -32.32134,-42.78753 -24.28298,-27.14472 -34.75664,-37.45466 -38.50119,-37.89937 -3.0142,-0.35798 -13.97982,3.61974 -26.48557,9.60753 -18.338,8.78026 -23.31898,12.30742 -35.39051,25.06091 -7.72684,8.16337 -29.45451,30.53443 -48.28372,49.71344 -18.82918,19.17905 -34.2349,35.76992 -34.2349,36.86864 0,4.18871 8.33416,9.26303 16.77672,10.21462 8.69512,0.98008 9.10514,0.73024 37.18089,-22.65347 15.61384,-13.00445 29.11526,-23.64447 30.00314,-23.64447 1.96941,0 1.86739,23.65305 -0.16341,37.86552 -1.24668,8.72508 -4.47608,14.50008 -20.47201,36.60913 -10.44554,14.43745 -19.79767,28.1133 -20.78254,30.39078 -1.79923,4.16086 -22.16777,91.40569 -22.16777,94.95185 0,2.86511 15.53349,2.27032 23.08247,-0.88385 12.67804,-5.29722 16.31239,-12.32622 23.73019,-45.89514 l 6.83818,-30.94582 16.06378,-15.71183 c 8.83507,-8.64152 17.22624,-15.97609 18.64701,-16.29907 1.60437,-0.36474 6.35077,8.90003 12.52587,24.45001 11.30743,28.47404 20.73204,45.37147 40.70474,72.97971 7.6773,10.61232 16.72814,23.19182 20.11301,27.95448 3.38488,4.76266 7.27161,8.65941 8.63722,8.65941 1.3656,0 4.85688,-2.82132 7.75838,-6.26956 z M 339.9405,426.69129 c 10.1126,-7.71325 13.98452,-16.07913 12.8597,-27.7854 -2.62154,-27.2828 -33.86861,-39.41591 -52.7874,-20.49711 -16.20071,16.20069 -13.60059,38.58237 5.88866,50.68935 10.19596,6.33387 23.84467,5.36879 34.03904,-2.40684 z"
       style="fill:#092d78;fill-opacity:1"
       sodipodi:nodetypes="sscsssssssssssssssssssssssssscsssssssssssssssscccssscsssssssssssssssscssscssssssssssss" />
  </g>
</svg>
