<?xml version="1.0" encoding="utf-8"?>
<!-- Generator: Adobe Illustrator 11.0, SVG Export Plug-In . SVG Version: 6.0.0 Build 78)  -->
<svg xmlns="http://www.w3.org/2000/svg" width="48" height="48">
<path fill="#E41408" d="M0,24.053C0,10.77,10.769,0,24.053,0c13.282,0,24.052,10.77,24.052,24.053
	c0,13.284-10.77,24.052-24.052,24.052C10.769,48.104,0,37.337,0,24.053"/>
<path fill="#FFF" d="M6.415,24.053c0-9.74,7.896-17.637,17.638-17.637c9.741,0,17.637,7.896,17.637,17.637
	c0,9.742-7.896,17.638-17.637,17.638C14.311,41.69,6.415,33.795,6.415,24.053"/>
<path fill="#1C1D20" d="M37.798,19.767c0.341,0,0.513,0.343,0.513,0.343l1.197,3.077
	c0.341,0.173,0.341,0.342,0.341,0.342c0.343,0.684,0.343,1.369,0.343,1.369c0,0.854-0.343,1.024-0.343,1.024
	c0.343,0.514-0.17,0.855-0.17,0.855v1.197c0,0.189-0.152,0.343-0.342,0.343h-1.368c-0.188,0-0.343-0.153-0.343-0.343v-1.366
	h-6.84v1.366c0,0.189-0.153,0.343-0.342,0.343h-1.367c-0.19,0-0.344-0.153-0.344-0.343v-1.197c0,0-0.513-0.341-0.171-0.855
	c0,0-0.342-0.17-0.342-1.024c0,0,0-0.686,0.342-1.369c0,0,0-0.169,0.343-0.342l1.196-3.077c0,0,0.171-0.343,0.513-0.343H37.798
	"/>
<polyline fill="#FFF" points="32.472,24.433 35.891,24.434 35.892,25.287 32.472,25.285 32.472,24.433 "/>
<path fill="#FFF" d="M37.457,20.621c0.342,0,0.342,0.171,0.342,0.171l0.854,2.053
	c0.172,0.515-0.341,0.342-0.341,0.342c-1.198-0.342-4.104-0.342-4.104-0.342s-2.906,0-4.104,0.342c0,0-0.513,0.173-0.343-0.342
	l0.854-2.053c0,0,0-0.171,0.342-0.171H37.457"/>
<path fill="#E41408" d="M22.81,16.044c0.495,0,0.424,0.425,0.424,0.425v4.783H9.281v-4.783
	c0,0-0.071-0.425,0.424-0.425H22.81"/>
<path fill="#E41408" d="M9.281,21.535v5.043h0.801v1.533c0,0-0.024,0.189,0.189,0.189h1.461
	c0,0,0.189,0.023,0.189-0.189v-1.533h0.165v1.533c0,0-0.024,0.213,0.211,0.213c-0.022,0,1.486,0,1.486,0
	s0.188,0.023,0.188-0.188c0.023,0,0-0.755,0-0.755h4.572c0,0-0.023,0.755,0,0.755c0,0.212,0.189,0.188,0.189,0.188
	s1.508,0,1.485,0c0.236,0,0.212-0.213,0.212-0.213v-1.533h0.165v1.533c0,0.213,0.188,0.189,0.188,0.189h1.462
	c0.212,0,0.188-0.189,0.188-0.189v-1.533h0.802v-5.043H9.281"/>
	<line fill="none" stroke="#FFF" stroke-width="1.933" stroke-miterlimit="3.864" x1="11.85" y1="25.308" x2="11.85" y2="24.931"/>
	<line fill="none" stroke="#FFF" stroke-width="0.377" stroke-miterlimit="3.864" x1="14.584" y1="26.532" x2="17.907" y2="26.532"/>
</svg>