<?xml version="1.0" encoding="UTF-8" standalone="no"?>
<svg
   xmlns:dc="http://purl.org/dc/elements/1.1/"
   xmlns:cc="http://creativecommons.org/ns#"
   xmlns:rdf="http://www.w3.org/1999/02/22-rdf-syntax-ns#"
   xmlns:svg="http://www.w3.org/2000/svg"
   xmlns="http://www.w3.org/2000/svg"
   xmlns:sodipodi="http://sodipodi.sourceforge.net/DTD/sodipodi-0.dtd"
   xmlns:inkscape="http://www.inkscape.org/namespaces/inkscape"
   version="1.1"
   width="48.104"
   height="48.104"
   id="svg2"
   sodipodi:docname="ES_R201-20.svg"
   inkscape:version="1.0.1 (3bc2e813f5, 2020-09-07)">
  <sodipodi:namedview
     pagecolor="#ffffff"
     bordercolor="#666666"
     borderopacity="1"
     objecttolerance="10"
     gridtolerance="10"
     guidetolerance="10"
     inkscape:pageopacity="0"
     inkscape:pageshadow="2"
     inkscape:window-width="1150"
     inkscape:window-height="644"
     id="namedview4207"
     showgrid="false"
     inkscape:zoom="15.279395"
     inkscape:cx="24.964945"
     inkscape:cy="25.984552"
     inkscape:window-x="377"
     inkscape:window-y="12"
     inkscape:window-maximized="0"
     inkscape:current-layer="layer14" />
  <defs
     id="defs4" />
  <metadata
     id="metadata7">
    <rdf:RDF>
      <cc:Work
         rdf:about="">
        <dc:format>image/svg+xml</dc:format>
        <dc:type
           rdf:resource="http://purl.org/dc/dcmitype/StillImage" />
        <dc:title></dc:title>
      </cc:Work>
    </rdf:RDF>
  </metadata>
  <g
     id="g3372"
     transform="translate(-45.379845,-633.26693)">
    <path
       d="m 45.379845,657.31893 c 0,-13.283 10.769,-24.052 24.052,-24.052 13.284,0 24.052,10.769 24.052,24.052 0,13.284 -10.768,24.052 -24.052,24.052 -13.283,0 -24.052,-10.768 -24.052,-24.052"
       id="path2827"
       style="fill:#e41408" />
    <path
       d="m 51.793845,657.31893 c 0,-9.742 7.897,-17.638 17.638,-17.638 9.741,0 17.638,7.896 17.638,17.638 0,9.74 -7.896,17.639 -17.638,17.639 -9.742,0 -17.638,-7.899 -17.638,-17.639"
       id="path2829"
       style="fill:#ffffff" />
    <path
       d="m 63.018845,651.97193 c 0,0.024 1.39,0 1.39,0 0,0 0.213,0 0.213,0.213 v 2.051 c 0,0 0.047,0.211 -0.213,0.211 -0.023,0 -2.003,0 -2.003,0 0,0 -0.189,0 -0.189,-0.188 0.024,-0.023 0.59,-2.146 0.59,-2.146 0,0 0,-0.141 0.212,-0.141"
       id="path2835"
       style="fill:#ffffff" />
    <path
       d="m 56.681447,659.49872 0.06387,0.21196 0.07306,0.20634 0.08225,0.20472 0.09135,0.19911 0.09866,0.19359 0.107763,0.19001 0.116865,0.18448 0.124178,0.17717 0.131409,0.17359 0.138893,0.16611 0.147994,0.16084 0.153353,0.15335 0.160837,0.148 0.168067,0.14059 0.173595,0.13158 0.180825,0.12613 0.188055,0.11695 v 0 l 0.195454,0.11134 0.199197,0.0987 0.202769,0.0894 0.206341,0.0806 0.211955,0.0692 0.211954,0.0622 0.215527,0.0511 0.2191,0.0419 0.219184,0.033 0.221141,0.0237 0.222756,0.0167 0.222757,0.007 0.224713,-10e-4 v 0 l 0.223012,-0.009 0.2208,-0.0164 0.223012,-0.0273 0.219184,-0.033 0.217483,-0.0439 0.215527,-0.0528 0.213656,-0.0602 0.209999,-0.0714 0.206341,-0.0803 0.202769,-0.0897 0.199111,-0.10028 0.193668,-0.10972 0.18831,-0.12051 v 0 l 0.193583,-0.1389 0.184398,-0.14774 0.177252,-0.15727 0.168066,-0.1644 0.158881,-0.1736 0.151655,-0.18083 0.142462,-0.18992 0.133283,-0.19367 0.124179,-0.20277 0.115245,-0.20634 0.105896,-0.21366 v 0 l 0.09135,-0.21016 0.08224,-0.21562 0.07298,-0.21722 0.06199,-0.22106 0.05137,-0.22471 0.04192,-0.22471 0.0311,-0.22829 0.02354,-0.22837 0.01116,-0.23024 0.0034,-0.22999 v 0 l -0.0054,-0.23747 -0.0147,-0.23747 -0.02552,-0.2356 -0.0328,-0.23577 -0.04559,-0.23194 -0.05661,-0.23024 -0.0694,-0.22471 -0.08224,-0.22276 -0.09688,-0.21553 -0.111421,-0.21 v 0 l -0.127751,-0.2083 -0.140849,-0.19919 -0.151648,-0.18805 -0.162454,-0.18083 -0.173592,-0.16994 -0.180825,-0.16058 -0.191711,-0.15165 -0.197159,-0.14076 -0.206681,-0.12971 v 0 l -0.200813,-0.11508 -0.206341,-0.10215 -0.211955,-0.0914 -0.215527,-0.0803 -0.219184,-0.0694 -0.221055,-0.0586 -0.226414,-0.0491 -0.226669,-0.0367 -0.228286,-0.0275 -0.230241,-0.0164 -0.231942,-0.007 v 0 l -0.237471,0.003 -0.237471,0.0164 -0.2356,0.0256 -0.233814,0.0382 -0.231942,0.0495 -0.22837,0.0602 -0.226585,0.0695 -0.222756,0.0822 v 0 l 0.15718,-1.2366 h 5.540166 v -2.80951 h -8.168847 l -0.865851,6.81343 3.076236,0.43471 v 0 l 0.189926,-0.23552 0.217228,-0.20642 0.244785,-0.17529 v 0 l 0.23577,-0.13328 0.246657,-0.10607 0.25916,-0.0695 0.268601,-0.0237 v 0 l 0.310532,0.0348 0.297774,0.0931 0.279403,0.14051 v 0 l 0.224713,0.16084 0.19741,0.19188 0.169768,0.21723 0.136937,0.23942 v 0 l 0.113292,0.30501 0.06031,0.31776 0.02024,0.32329 v 0 l -0.01667,0.32168 -0.05665,0.31606 -0.103851,0.305 v 0 l -0.120606,0.23551 -0.146293,0.21919 -0.175297,0.19749 -0.20447,0.16441 v 0 l -0.239427,0.13141 -0.255758,0.0878 -0.268345,0.0474 -0.272258,0.0164 v 0 l -0.270472,-0.0201 -0.263073,-0.053 -0.253801,-0.0878 -0.239172,-0.12222 -0.223097,-0.15361 v 0 l -0.204385,-0.19001 -0.175551,-0.21357 -0.144167,-0.23747 -0.10972,-0.25389 -0.0711,-0.27047 v 0 l -2.884269,0.84935 z"
       id="path4782"
       style="fill:#231f20;fill-opacity:1;fill-rule:evenodd;stroke:none" />
    <path
       d="m 66.693335,664.46367 0.10776,0.007 0.111339,-0.004 0.10776,-0.007 v 0 l 0.171898,-0.0163 0.169768,-0.0256 0.17002,-0.0347 v 0 l 0.23909,-0.0659 0.235851,-0.0839 0.220801,-0.10972 v 0 l 0.210254,-0.13336 0.191711,-0.15336 0.169938,-0.18099 v 0 l 0.122227,-0.1753 0.09883,-0.18805 0.08394,-0.1975 v 0 l 0.08055,-0.25192 0.0511,-0.25942 0.02552,-0.26308 v 0 l 0.0014,-0.23194 -0.0164,-0.23197 -0.04559,-0.22829 v 0 l -0.08216,-0.24129 -0.111421,-0.22838 -0.147994,-0.20447 v 0 l -0.1753,-0.16245 -0.197495,-0.13167 -0.213568,-0.1041 v 0 l -0.243003,-0.0822 -0.25031,-0.0456 -0.257463,-0.007 v 0 l -0.248357,0.0309 -0.246657,0.0641 -0.230238,0.0967 v 0 l -0.231946,0.14246 -0.201068,0.1753 -0.162453,0.22105 v 0 l -0.100534,0.22115 -0.06396,0.24299 -0.02552,0.24275 v 0 l 0.0061,0.20999 0.04192,0.19197 0.0842,0.18806 v 0 l 0.0711,0.12247 0.08778,0.10964 0.111339,0.0931 v 0 l 0.104188,0.0639 0.114993,0.0567 0.114993,0.0419 v 0 l 0.09501,0.0275 0.10972,0.0328 0.09857,0.022 v 0 l 0.06029,0.003 0.0694,0.0112 0.05859,0.022 v 0 l 0.03273,0.0255 0.02198,0.0329 0.0068,0.0382 v 0 l -0.0014,0.0476 -0.01286,0.0347 -0.0166,0.0255 v 0 l -0.04756,0.0403 -0.06389,0.0347 -0.05838,0.0275 v 0 l -0.0694,0.0272 -0.07136,0.0239 -0.07306,0.0219 v 0 l -0.0528,0.0181 -0.05137,0.0147 -0.05471,0.0111 v 0 l -0.04913,0.0109 -0.04947,0.0108 -0.04743,0.0127 v 0 l -0.04389,0.0147 -0.04559,0.0164 -0.03668,0.0239 v 0 l -0.02722,0.0292 -0.02381,0.0275 -0.01837,0.0327 v 0 l -0.02552,0.10053 -0.0054,0.10947 0.0034,0.10418 v 0 l 0.0048,0.10777 0.01272,0.10054 0.02035,0.0858 v 0 l 0.02184,0.0583 0.0311,0.0603 0.04559,0.0439 v 0 l 0.06219,0.0202 0.0711,0.009 0.06396,0.005 z"
       id="path4784"
       style="fill:#000000;fill-opacity:1;fill-rule:evenodd;stroke:none" />
    <path
       d="m 69.747538,660.46698 0.06587,0.20999 0.07859,0.20277 0.0911,0.19912 0.102487,0.19196 0.114993,0.1844 0.126139,0.1753 0.136937,0.16806 0.146123,0.16075 0.15718,0.14978 0.168067,0.14077 0.175211,0.12945 0.186438,0.11891 v 0 l 0.199109,0.10776 0.20447,0.095 0.211873,0.0803 0.215608,0.0659 0.2191,0.053 0.22114,0.0384 0.226584,0.0255 0.224713,0.0129 h 0.228285 v 0 l 0.226414,-0.0109 0.224713,-0.0239 0.22276,-0.0364 0.221141,-0.0474 0.21748,-0.0641 0.211614,-0.0748 0.206682,-0.0897 0.198856,-0.10589 0.193842,-0.11856 v 0 l 0.184478,-0.13719 0.1753,-0.14783 0.162454,-0.15913 0.151648,-0.17164 0.140849,-0.17888 0.127751,-0.19 0.116953,-0.19724 0.104106,-0.20464 v 0 l 0.09143,-0.21366 0.07468,-0.21748 0.06226,-0.22276 0.04743,-0.22471 0.0328,-0.22829 0.0183,-0.23023 0.0034,-0.23195 v 0 l -0.0068,-0.23943 -0.02034,-0.23747 -0.03443,-0.23747 -0.05137,-0.23194 -0.06743,-0.22642 -0.08778,-0.22106 -0.109461,-0.21364 v 0 l -0.138896,-0.21554 -0.15718,-0.20277 -0.175293,-0.18831 -0.190011,-0.17164 -0.202769,-0.1553 -0.215527,-0.14051 v 0 l -0.224706,-0.12443 -0.231946,-0.10223 -0.239342,-0.0839 -0.246399,-0.0659 -0.250317,-0.0459 -0.253883,-0.0272 -0.25406,-0.0111 v 0 l -0.268342,0.008 -0.265029,0.0292 -0.262987,0.0493 -0.257544,0.0694 -0.252188,0.0878 v 0 l 0.111421,-0.8713 h 3.898286 v -1.97657 H 70.46185 l -0.608048,4.79331 2.162666,0.30858 v 0 l 0.133284,-0.16612 0.155308,-0.14611 0.171639,-0.12249 v 0 l 0.223012,-0.12222 0.237471,-0.0822 0.250311,-0.0293 v 0 l 0.217228,0.0238 0.210002,0.0639 0.197407,0.0987 v 0 l 0.20643,0.15718 0.171639,0.19163 0.135236,0.2231 v 0 l 0.07842,0.21357 0.04382,0.22471 0.01286,0.22641 v 0 l -0.01089,0.22659 -0.04021,0.22276 -0.07306,0.2139 v 0 l -0.116946,0.2191 -0.149695,0.19554 -0.190011,0.16058 v 0 l -0.226414,0.11525 -0.246656,0.0639 -0.253802,0.0184 v 0 l -0.314448,-0.0347 -0.297771,-0.10249 -0.266648,-0.16977 v 0 l -0.229986,-0.23212 -0.168067,-0.27583 -0.100534,-0.31053 v 0 l -2.0276,0.59742 z"
       id="path4786"
       style="fill:#000000;fill-opacity:1;fill-rule:evenodd;stroke:none" />
    <path
       d="m 78.685531,658.10323 h 1.021077 v 3.01594 0 l 0.0147,0.22633 0.04192,0.22114 0.06743,0.21357 v 0 l 0.0933,0.20472 0.118654,0.19359 0.144422,0.17359 v 0 l 0.195284,0.16807 0.221052,0.13141 0.2356,0.10411 v 0 l 0.294117,0.0731 0.301431,0.0256 0.303303,0.004 v 0 l 0.303221,-0.013 0.301432,-0.0345 0.297771,-0.0494 v 0 l 0.288592,-0.0639 0.28306,-0.0786 0.279399,-0.095 v 0 l -0.366923,-1.65489 v 0 l -0.128092,0.0384 -0.129704,0.0311 -0.131412,0.0272 v 0 l -0.116864,0.0203 -0.116946,0.0145 -0.120525,0.008 v 0 l -0.095,-10e-4 -0.09501,-0.007 -0.095,-0.0183 v 0 l -0.07306,-0.02 -0.07136,-0.0276 -0.06389,-0.0402 v 0 l -0.04756,-0.0439 -0.04001,-0.0528 -0.02946,-0.0585 v 0 l -0.0181,-0.062 -0.0091,-0.0659 -0.0014,-0.0639 v 0 -2.45152 h 1.490739 v -1.65676 h -1.54186 v -2.32708 l -1.99843,0.59359 v 1.74625 h -1.00636 v 1.65319 z"
       id="path4788"
       style="fill:#000000;fill-opacity:1;fill-rule:evenodd;stroke:none" />
  </g>
  <g
     inkscape:groupmode="layer"
     id="layer12"
     inkscape:label="Layer 1" />
  <g
     inkscape:groupmode="layer"
     id="layer13"
     inkscape:label="Layer 2"
     style="display:inline">
    <path
       style="fill:#ffffff;stroke-linecap:round;stroke-linejoin:round"
       d="M 32.592915,16.296458 31.676648,28.666057 22.121296,37.37059 8.9663238,26.375391 11.25699,14.922057 Z"
       id="path4773"
       sodipodi:nodetypes="cccccc" />
  </g>
  <g
     inkscape:groupmode="layer"
     id="layer14"
     inkscape:label="Layer 3"
     style="display:inline">
    <text
       xml:space="preserve"
       style="font-size:16.6353px;line-height:9.74721px;font-family:Haettenschweiler;-inkscape-font-specification:Haettenschweiler;letter-spacing:0px;word-spacing:0px;fill:#000000;stroke:#000000;stroke-width:0.999999px;stroke-linecap:butt;stroke-linejoin:miter;stroke-opacity:1"
       x="8.4152994"
       y="30.402517"
       id="text4777"
       transform="scale(0.99593997,1.0040766)"><tspan
         sodipodi:role="line"
         id="tspan4775"
         x="8.4152994"
         y="30.402517"
         style="font-style:normal;font-variant:normal;font-weight:normal;font-stretch:normal;font-family:Ccrige;-inkscape-font-specification:Ccrige;fill:#000000;stroke:none;stroke-width:0.999999px">20</tspan></text>
  </g>
</svg>
