<?xml version="1.0" encoding="UTF-8" standalone="no"?>
<!-- Created with Inkscape (http://www.inkscape.org/) -->

<svg
   xmlns:dc="http://purl.org/dc/elements/1.1/"
   xmlns:cc="http://creativecommons.org/ns#"
   xmlns:rdf="http://www.w3.org/1999/02/22-rdf-syntax-ns#"
   xmlns:svg="http://www.w3.org/2000/svg"
   xmlns="http://www.w3.org/2000/svg"
   xmlns:sodipodi="http://sodipodi.sourceforge.net/DTD/sodipodi-0.dtd"
   xmlns:inkscape="http://www.inkscape.org/namespaces/inkscape"
   width="678.02466"
   height="670.93048"
   id="svg2"
   version="1.1"
   inkscape:version="0.48.0 r9654"
   sodipodi:docname="señal r404 automoviles.svg">
  <defs
     id="defs4" />
  <sodipodi:namedview
     id="base"
     pagecolor="#ffffff"
     bordercolor="#666666"
     borderopacity="1.0"
     inkscape:pageopacity="0.0"
     inkscape:pageshadow="2"
     inkscape:zoom="0.49497475"
     inkscape:cx="646.05022"
     inkscape:cy="379.18341"
     inkscape:document-units="px"
     inkscape:current-layer="layer1"
     showgrid="false"
     fit-margin-top="0"
     fit-margin-left="0"
     fit-margin-right="0"
     fit-margin-bottom="0"
     inkscape:window-width="1280"
     inkscape:window-height="750"
     inkscape:window-x="-8"
     inkscape:window-y="-8"
     inkscape:window-maximized="1" />
  <metadata
     id="metadata7">
    <rdf:RDF>
      <cc:Work
         rdf:about="">
        <dc:format>image/svg+xml</dc:format>
        <dc:type
           rdf:resource="http://purl.org/dc/dcmitype/StillImage" />
        <dc:title></dc:title>
      </cc:Work>
    </rdf:RDF>
  </metadata>
  <g
     inkscape:label="Capa 1"
     inkscape:groupmode="layer"
     id="layer1"
     transform="translate(-24.684594,-76.980789)">
    <path
       sodipodi:type="arc"
       style="fill:#ffffff;fill-opacity:1;fill-rule:nonzero;stroke:#0000ff;stroke-width:1;stroke-linecap:round;stroke-linejoin:round;stroke-miterlimit:4;stroke-opacity:1;stroke-dasharray:none;stroke-dashoffset:0"
       id="path3793"
       sodipodi:cx="433.35544"
       sodipodi:cy="381.01669"
       sodipodi:rx="302.03561"
       sodipodi:ry="302.03561"
       d="m 735.39105,381.01669 a 302.03561,302.03561 0 1 1 -604.07123,0 302.03561,302.03561 0 1 1 604.07123,0 z"
       transform="matrix(1.0934907,0,0,1.0934907,-108.74385,-1.0468364)" />
    <path
       inkscape:connector-curvature="0"
       id="path3787"
       d="m 23.04569,748.00795 c 0.7437,-0.74369 2.674057,-0.82319 4.289682,-0.17667 1.785402,0.71444 1.255071,1.24478 -1.352182,1.35217 -2.359326,0.0971 -3.681201,-0.4318 -2.9375,-1.1755 z m 295.94148,-1.90524 c -25.36369,-4.28618 -37.73829,-7.24402 -58.19048,-13.909 C 140.66307,693.04436 49.830775,585.05958 33.276376,461.70913 c -1.565297,-11.66337 -3.478003,-21.20614 -4.250458,-21.20614 -0.772456,0 -0.04672,-22.22222 -0.08699,-13.82142 -0.05928,12.3661 0.2316,-33.15398 -0.190721,-16.34525 -0.924338,36.78944 0.404563,-16.02926 0.343538,-10.35714 -0.05297,4.92381 0.124063,-15.63154 0.195003,-11.63095 0.220663,12.44421 1.447583,-3.09295 3.103461,-17.78571 7.92587,-70.32697 42.450908,-139.73955 96.097911,-193.20481 40.60786,-40.4703 79.37482,-64.38746 133.64731,-82.4533 142.96114,-47.587906 301.46034,9.43638 385.16904,138.57477 15.11153,23.31271 25.14234,44.45496 35.72264,75.2938 9.35296,27.26136 15.92459,62.42642 16.39009,95.51572 0.41875,29.7675 -6.16622,-2.86983 -7.80887,-19.73809 C 682.29608,288.9249 632.61601,201.94592 556.22527,147.52434 456.43245,76.430878 326.13804,66.168793 218.27288,120.90696 152.29072,154.39083 105.08467,201.3059 72.848495,265.43493 51.117396,308.66571 41.670796,342.96635 38.348963,390.70291 c -4.244751,60.9994 6.712574,115.94668 33.808489,169.53818 34.243598,67.7285 82.903888,115.9226 149.576788,148.14372 40.35607,19.50296 75.73575,28.8407 120.28027,31.7455 73.8889,4.81841 141.61172,-12.76144 203.38183,-52.79497 84.41157,-54.70758 141.41672,-157.47384 148.40903,-259.83235 2.36987,-34.69197 10.77391,-31.44489 4.90957,17.76191 l -4.36985,36.66667 -11.0228,36.037 c -16.7682,54.8205 -41.81874,91.73494 -82.03315,131.76446 -49.81159,49.58254 -104.07987,78.95584 -171.9297,93.05875 -29.27431,6.0848 -84.20647,7.73267 -110.37227,3.31093 z m 17.90476,-22.83764 C 241.63411,711.83948 161.79967,665.22043 110.10644,590.83442 96.92454,571.86583 76.820544,531.97231 69.733275,510.71965 52.315177,458.48781 49.825894,398.16855 62.796285,342.62547 88.77492,231.37719 175.20411,142.60448 285.60643,113.77384 c 31.7427,-8.28934 67.63239,-12.16854 94.92836,-10.2605 146.95466,10.27238 261.82353,111.46312 290.12857,255.58118 5.19759,26.46406 5.25758,79.40314 0.12197,107.64692 -24.45246,134.479 -131.4716,236.94773 -266.00154,254.69133 -23.08978,3.04537 -51.40665,3.80962 -67.89186,1.8323 z M 281.6868,515.92716 c 1.32791,-1.60003 2.71016,-11.41968 3.07166,-21.82143 l 0.65728,-18.91226 79.45238,0 79.45239,0 0.65728,18.91226 c 0.3615,10.40175 1.74374,20.2214 3.07165,21.82143 3.25216,3.91862 34.45933,4.01273 36.98421,0.11146 0.99587,-1.53869 2.31424,-11.29851 2.92971,-21.68851 l 1.11905,-18.89089 7.24539,-1.86811 c 8.31076,-2.14282 11.59217,-10.06277 8.07708,-19.49482 -1.18064,-3.16802 -1.4348,-8.27791 -0.56478,-11.35529 2.56134,-9.0599 2.24031,-43.48498 -0.47824,-51.28343 -1.45118,-4.16288 -5.92654,-9.3639 -10.63095,-12.35468 -7.48571,-4.75898 -8.79977,-7.32314 -16.70834,-32.6037 -5.47203,-17.49186 -10.50591,-29.36075 -13.88636,-32.74119 l -5.30271,-5.30263 -91.96538,0 -91.96537,0 -5.16465,5.16465 c -3.09021,3.09023 -8.9732,16.59308 -14.6467,33.6178 -8.32462,24.97999 -10.29866,28.87544 -16.17184,31.91258 -9.61805,4.97367 -13.07882,15.26415 -12.89414,38.34023 0.0865,10.81038 0.95176,21.66951 1.92276,24.13141 1.01317,2.56884 0.59709,7.81406 -0.97645,12.30953 -3.72017,10.62813 -0.92106,17.24566 8.30234,19.62805 l 7.37976,1.90618 0.65728,18.77612 c 0.3615,10.32684 1.74375,20.08521 3.07166,21.68524 1.5749,1.89764 8.06025,2.90917 18.65202,2.90917 10.59176,0 17.07711,-1.01153 18.65201,-2.90917 z m -39.52379,-89.55651 c -7.09757,-7.55502 -6.60463,-19.98493 1.03075,-25.99093 3.24338,-2.55125 7.22457,-4.63863 8.84708,-4.63863 6.24849,0 14.15564,5.31538 16.56692,11.13672 7.31091,17.65008 -13.65639,33.10541 -26.44475,19.49284 z m 222.19863,-0.31355 c -8.53578,-8.53576 -5.99995,-22.85109 4.93001,-27.83112 7.66904,-3.49423 10.52368,-3.13783 17.25084,2.15374 4.5823,3.60443 5.89706,6.59837 5.89706,13.42857 0,16.61587 -16.50895,23.81779 -28.07791,12.24881 z m -200.5512,-53.7864 c -1.20257,-1.20258 10.04766,-43.93328 12.69435,-48.21569 0.8297,-1.3425 34.57308,-2.17107 88.41667,-2.17107 80.67787,0 87.22117,0.28775 89.06605,3.91667 2.92177,5.74714 12.7404,44.94841 11.51881,45.98923 -0.57363,0.48874 -16.65367,-0.045 -35.73343,-1.18588 -33.13091,-1.98122 -155.4673,-0.66052 -161.73885,1.7461 -1.64724,0.63211 -3.54785,0.59639 -4.2236,-0.0795 z"
       style="fill:#092d78;fill-opacity:1"
       sodipodi:nodetypes="sscsssssssssssssssssssssssssscsssssssssssssssscccsscscssssssscccssssssscsssssssssssssscsssssscc" />
  </g>
</svg>
