<?xml version="1.0" encoding="UTF-8" standalone="no"?>
<!-- Created with Inkscape (http://www.inkscape.org/) -->

<svg
   xmlns:dc="http://purl.org/dc/elements/1.1/"
   xmlns:cc="http://creativecommons.org/ns#"
   xmlns:rdf="http://www.w3.org/1999/02/22-rdf-syntax-ns#"
   xmlns:svg="http://www.w3.org/2000/svg"
   xmlns="http://www.w3.org/2000/svg"
   version="1.2"
   width="48.104"
   height="48.104"
   id="svg2">
  <metadata
     id="metadata3175">
    <rdf:RDF>
      <cc:Work
         rdf:about="">
        <dc:format>image/svg+xml</dc:format>
        <dc:type
           rdf:resource="http://purl.org/dc/dcmitype/StillImage" />
        <dc:title></dc:title>
      </cc:Work>
    </rdf:RDF>
  </metadata>
  <defs
     id="defs3173" />
  <g
     id="g3200">
    <path
       d="M 0,24.051 C 0,10.769 10.768,0 24.052,0 37.335,0 48.104,10.769 48.104,24.051 48.104,37.336 37.335,48.104 24.052,48.104 10.768,48.104 0,37.336 0,24.051"
       id="path3125"
       style="fill:#e41408" />
    <path
       d="m 6.413,24.051 c 0,-9.741 7.897,-17.637 17.639,-17.637 9.741,0 17.638,7.896 17.638,17.637 0,9.74 -7.896,17.638 -17.638,17.638 -9.742,0 -17.639,-7.897 -17.639,-17.638"
       id="path3127"
       style="fill:#ffffff" />
    <g
       id="g3129">
      <path
         d="m 18.054,9.643 h 0.142 c 1.363,0 2.211,0.613 2.544,1.838 V 12.4 c 0,0.71 -0.707,1.628 -2.121,2.756 h 2.121 v 1.414 h -4.806 v -1.061 c 0,-0.253 0.283,-0.536 0.848,-0.848 1.602,-1.202 2.403,-2.003 2.403,-2.403 l 0.071,-0.354 c 0,-0.471 -0.377,-0.754 -1.131,-0.848 -0.66,0.115 -0.99,0.539 -0.99,1.272 V 12.4 h -1.484 v -0.707 c 0,-0.818 0.471,-1.431 1.414,-1.838 0.311,-0.141 0.641,-0.212 0.989,-0.212 z"
         id="path3131"
         style="fill:#1c1d20" />
    </g>
    <g
       id="g3133">
      <path
         d="m 21.282,15.483 h 1.074 l -0.543,1.896 h -0.637 l 0.106,-1.896 z"
         id="path3135"
         style="fill:#1c1d20" />
      <path
         d="m 25.26,11.478 h 1.379 v 3.235 h 0.583 v 1.061 h -0.583 v 0.796 h -1.167 v -0.69 l -0.106,-0.106 h -2.599 v -1.061 l 2.493,-3.235 z m -1.167,3.235 h 1.379 V 12.91 l -1.379,1.803 z"
         id="path3137"
         style="fill:#1c1d20" />
    </g>
    <g
       id="g3139">
      <path
         d="m 30.797,10.217 v 1.686 l 0.13,0.13 h 0.972 V 13.2 h -1.102 v 1.621 c 0,0.232 0.086,0.384 0.26,0.454 h 0.389 l 0.389,-0.129 0.194,1.231 h -0.064 l -1.167,0.194 C 29.89,16.447 29.437,16.123 29.437,15.598 V 13.2 H 28.66 v -1.167 h 0.647 l 0.13,-0.13 v -1.361 l 1.36,-0.325 z"
         id="path3141"
         style="fill:#1c1d20" />
    </g>
    <path
       d="m 25.326,18.023 c 0.377,0 0.33,0.33 0.33,0.33 v 3.369 c 0,0 0.85,-0.046 0.85,0 0.682,0 0.281,0.754 0.281,0.754 l -2.45,4.126 c -0.165,0.258 -0.288,0.236 -0.288,0.236 0,0 -0.118,0.021 -0.282,-0.236 l -2.452,-4.126 c 0,0 -0.4,-0.754 0.283,-0.754 0,-0.046 0.849,0 0.849,0 v -3.369 c 0,0 -0.048,-0.33 0.329,-0.33 0,-0.024 2.55,-0.024 2.55,0"
       id="path3143"
       style="fill:#1c1d20" />
    <path
       d="m 21.379,30.733 c 0,-1.477 1.197,-2.672 2.673,-2.672 1.476,0 2.672,1.195 2.672,2.672 0,1.477 -1.196,2.672 -2.672,2.672 -1.476,0 -2.673,-1.196 -2.673,-2.672"
       id="path3145"
       style="fill:#1c1d20" />
    <path
       d="m 14.431,31.803 m 9.086,0 h -9.085 v -2.14 h 9.085 v 2.14 z"
       id="path3147"
       style="fill:#1c1d20" />
    <path
       d="m 11.759,30.733 c 0,-1.33 1.076,-2.406 2.405,-2.406 1.328,0 2.405,1.076 2.405,2.406 0,1.328 -1.077,2.404 -2.405,2.404 -1.329,0 -2.405,-1.076 -2.405,-2.404"
       id="path3149"
       style="fill:#1c1d20" />
    <path
       d="m 12.561,27.793 c 0,-0.887 0.717,-1.604 1.603,-1.604 0.885,0 1.603,0.717 1.603,1.604 0,0.886 -0.718,1.603 -1.603,1.603 -0.886,0 -1.603,-0.717 -1.603,-1.603"
       id="path3151"
       style="fill:#1c1d20" />
    <path
       d="m 12.561,33.672 c 0,-0.885 0.717,-1.604 1.603,-1.604 0.885,0 1.603,0.72 1.603,1.604 0,0.886 -0.718,1.604 -1.603,1.604 -0.886,10e-4 -1.603,-0.718 -1.603,-1.604"
       id="path3153"
       style="fill:#1c1d20" />
    <path
       d="m 12.561,33.672 m 3.207,0 h -3.207 v -5.879 h 3.207 v 5.879 z"
       id="path3155"
       style="fill:#1c1d20" />
    <path
       d="m 15.5,30.733 v -2.139 h 0.267 c 0,0 0,0.269 0.267,0.269 0,0 0.268,0 0.268,0.265 v 3.209 c 0,0.268 -0.268,0.268 -0.268,0.268 -0.267,0 -0.267,0.266 -0.267,0.266 H 15.5 v -2.138"
       id="path3157"
       style="fill:#1c1d20;fill-rule:evenodd" />
    <path
       d="m 24.586,31.803 m 9.086,0 h -9.086 v -2.14 h 9.086 v 2.14 z"
       id="path3159"
       style="fill:#1c1d20" />
    <path
       d="m 31.535,30.733 c 0,-1.33 1.076,-2.406 2.404,-2.406 1.328,0 2.405,1.076 2.405,2.406 0,1.328 -1.077,2.404 -2.405,2.404 -1.328,0 -2.404,-1.076 -2.404,-2.404"
       id="path3161"
       style="fill:#1c1d20" />
    <path
       d="m 32.336,27.793 c 0,-0.887 0.718,-1.604 1.604,-1.604 0.885,0 1.604,0.717 1.604,1.604 0,0.886 -0.719,1.603 -1.604,1.603 -0.886,0 -1.604,-0.717 -1.604,-1.603"
       id="path3163"
       style="fill:#1c1d20" />
    <path
       d="m 32.336,33.672 c 0,-0.885 0.718,-1.604 1.604,-1.604 0.885,0 1.604,0.72 1.604,1.604 0,0.886 -0.719,1.604 -1.604,1.604 -0.886,10e-4 -1.604,-0.718 -1.604,-1.604"
       id="path3165"
       style="fill:#1c1d20" />
    <path
       d="m 32.336,33.672 m 3.208,0 h -3.208 v -5.879 h 3.208 v 5.879 z"
       id="path3167"
       style="fill:#1c1d20" />
    <path
       d="m 32.604,30.733 v -2.139 h -0.268 c 0,0 0,0.269 -0.268,0.269 0,0 -0.268,0 -0.268,0.265 v 3.209 c 0,0.268 0.268,0.268 0.268,0.268 0.268,0 0.268,0.266 0.268,0.266 h 0.268 v -2.138"
       id="path3169"
       style="fill:#1c1d20;fill-rule:evenodd" />
  </g>
</svg>
