<?xml version="1.0" encoding="UTF-8" standalone="no"?><svg xmlns="http://www.w3.org/2000/svg" xml:space="preserve" height="48.103" width="48.104" version="1.0" viewBox="0 0 48.104 48.103"><path fill="#fff" d="m6.414 24.052c0-9.741 7.896-17.638 17.637-17.638 9.742 0 17.639 7.897 17.639 17.638 0 9.742-7.896 17.637-17.639 17.637-9.741 0-17.637-7.895-17.637-17.637"/><path fill="#1c1d20" d="m20.043 20.577c0-2.214 1.795-4.009 4.009-4.009s4.01 1.795 4.01 4.009v15.768l2.404-2.405 2.405 2.405v-15.768c0-4.869-3.949-8.819-8.819-8.819s-8.818 3.95-8.818 8.819v13.362l2.404 2.405 2.405-2.405v-13.362"/><path fill="#e41408" d="m24.062 0c-13.282-4.0668e-15 -24.062 10.78-24.062 24.062 0 13.284 10.78 24.032 24.062 24.032 13.284 0 24.032-10.748 24.032-24.032 0-13.282-10.748-24.062-24.032-24.062zm0 6.4062c9.742 0 17.626 7.9158 17.626 17.656-0.001 4.097-1.411 7.853-3.75 10.844l-25.219-24.375c3.07-2.5792 7.026-4.1248 11.343-4.1248zm-13.937 6.8438l25.219 24.344c-3.056 2.547-6.987 4.094-11.282 4.094-9.74 0-17.656-7.884-17.656-17.626 0.0002-4.075 1.394-7.822 3.719-10.812z"/></svg>
