<?xml version="1.0" encoding="UTF-8" standalone="no"?>
<!-- Created with Inkscape (http://www.inkscape.org/) -->

<svg
   xmlns:dc="http://purl.org/dc/elements/1.1/"
   xmlns:cc="http://creativecommons.org/ns#"
   xmlns:rdf="http://www.w3.org/1999/02/22-rdf-syntax-ns#"
   xmlns:svg="http://www.w3.org/2000/svg"
   xmlns="http://www.w3.org/2000/svg"
   xmlns:sodipodi="http://sodipodi.sourceforge.net/DTD/sodipodi-0.dtd"
   xmlns:inkscape="http://www.inkscape.org/namespaces/inkscape"
   width="678.02466"
   height="670.93048"
   id="svg2"
   version="1.1"
   inkscape:version="0.48.0 r9654"
   sodipodi:docname="señal r404 automoviles.svg">
  <defs
     id="defs4" />
  <sodipodi:namedview
     id="base"
     pagecolor="#ffffff"
     bordercolor="#666666"
     borderopacity="1.0"
     inkscape:pageopacity="0.0"
     inkscape:pageshadow="2"
     inkscape:zoom="0.49497475"
     inkscape:cx="530.62825"
     inkscape:cy="338.34905"
     inkscape:document-units="px"
     inkscape:current-layer="layer1"
     showgrid="false"
     fit-margin-top="0"
     fit-margin-left="0"
     fit-margin-right="0"
     fit-margin-bottom="0"
     inkscape:window-width="1280"
     inkscape:window-height="750"
     inkscape:window-x="-8"
     inkscape:window-y="-8"
     inkscape:window-maximized="1" />
  <metadata
     id="metadata7">
    <rdf:RDF>
      <cc:Work
         rdf:about="">
        <dc:format>image/svg+xml</dc:format>
        <dc:type
           rdf:resource="http://purl.org/dc/dcmitype/StillImage" />
        <dc:title></dc:title>
      </cc:Work>
    </rdf:RDF>
  </metadata>
  <g
     inkscape:label="Capa 1"
     inkscape:groupmode="layer"
     id="layer1"
     transform="translate(-24.684594,-76.980789)">
    <path
       sodipodi:type="arc"
       style="fill:#ffffff;fill-opacity:1;fill-rule:nonzero;stroke:#0000ff;stroke-width:1;stroke-linecap:round;stroke-linejoin:round;stroke-miterlimit:4;stroke-opacity:1;stroke-dasharray:none;stroke-dashoffset:0"
       id="path3793"
       sodipodi:cx="433.35544"
       sodipodi:cy="381.01669"
       sodipodi:rx="302.03561"
       sodipodi:ry="302.03561"
       d="m 735.39105,381.01669 a 302.03561,302.03561 0 1 1 -604.07123,0 302.03561,302.03561 0 1 1 604.07123,0 z"
       transform="matrix(1.0934907,0,0,1.0934907,-108.74385,-1.0468364)" />
    <path
       inkscape:connector-curvature="0"
       id="path3808"
       d="m 22.769638,747.06405 c 0.73957,-0.73956 2.65919,-0.81862 4.26583,-0.17569 1.77548,0.71047 1.2481,1.23786 -1.34466,1.34465 -2.34621,0.0966 -3.66073,-0.4294 -2.92117,-1.16896 z M 317.06577,745.1694 c -25.2227,-4.26235 -37.5285,-7.20375 -57.86701,-13.83167 C 139.73308,692.40605 49.405808,585.02164 32.943448,462.35699 c -1.5566,-11.59851 -3.45867,-21.08822 -4.22683,-21.08822 -0.76816,0 1.63531,-21.52386 0.40253,-13.26112 -1.83474,12.29735 0.77467,32.60613 0.70986,-15.67236 -0.0491,-36.59641 -1.86942,-36.29013 -0.25805,-30.88427 8.08386,27.11979 1.89916,4.07641 1.9697,8.05476 0.21944,12.37503 -1.12513,-3.17756 0.52155,-17.78864 7.8818,-69.93595 42.21489,-138.96261 95.563612,-192.13061 40.38214,-40.2453 78.93354,-64.02948 132.90424,-81.994891 142.16631,-47.32332 299.78431,9.383921 383.02761,137.804331 15.0275,23.1831 25.0025,44.2078 35.524,74.87518 9.301,27.10979 15.5041,48.1873 15.967,81.09263 0.4165,29.60199 -3.7797,40.33258 -5.4132,5.37537 -4.4598,-95.43975 -60.6846,-192.70113 -136.6506,-246.82013 -99.238,-70.698201 -228.808,-80.903231 -336.07351,-26.46939 -65.6153,33.2977 -112.55887,79.95193 -144.615812,143.72442 -21.61028,42.99042 -31.00436,77.10036 -34.30772,124.57151 -4.22115,60.66026 6.67525,115.30203 33.62052,168.59558 34.053212,67.35194 82.442912,115.27808 148.745112,147.32006 40.1318,19.39453 75.31471,28.68035 119.61161,31.569 73.4781,4.79163 140.8244,-12.69049 202.251,-52.50143 83.9423,-54.40342 140.1184,-155.11851 147.4733,-256.8797 1.6464,-22.7789 12.0785,-42.30797 6.3815,3.35505 l -5.4896,43.99967 -11.206,41.09986 c -14.9962,55.0012 -41.5863,91.22491 -81.5771,131.03187 -49.5346,49.30687 -103.5012,78.51686 -170.9738,92.54136 -29.1116,6.05097 -83.7383,7.68967 -109.7586,3.29252 z m 17.8052,-22.71066 C 240.14276,711.09667 160.75216,664.73681 109.34634,590.76438 96.237738,571.90124 76.245518,532.22953 69.197648,511.09503 51.876388,459.15359 49.400948,399.16969 62.299228,343.93542 88.133428,233.30566 174.08206,145.02652 283.87057,116.35617 c 31.5662,-8.24325 67.2564,-12.10089 94.4006,-10.20346 146.1376,10.21528 260.3678,110.84342 288.5155,254.16019 5.1687,26.31694 5.2283,78.96168 0.1213,107.04843 -24.3165,133.73132 -130.7406,235.63034 -264.5226,253.27529 -22.9614,3.02844 -51.1209,3.78843 -67.5144,1.82212 z M 248.43656,556.95786 c 15.9035,-7.79372 25.76691,-18.1102 33.90651,-35.46407 4.8558,-10.35271 5.772,-15.3927 5.6825,-31.26068 -0.09,-15.95203 -1.019,-20.66276 -5.9259,-30.0463 -35.73651,-68.33949 -134.99281,-48.58906 -139.24632,27.7078 -0.7389,13.25403 0.0402,19.39195 3.68703,29.04632 15.67638,41.50079 61.85888,59.6377 101.89618,40.01693 z m -43.2614,-18.01549 c -28.0826,-5.18526 -44.6351,-35.28763 -35.1336,-63.894 9.2019,-27.7044 42.5136,-39.94813 69.0556,-25.38142 48.68421,26.71877 21.0572,99.42693 -33.922,89.27542 z m 335.63781,20.86813 c 34.0152,-16.7262 50.8732,-57.81171 37.865,-92.28267 -6.2582,-16.58407 -20.8525,-32.58005 -37.1662,-40.73597 -11.3164,-5.65757 -15.4706,-6.5038 -31.9271,-6.5038 -16.4173,0 -20.6217,0.85189 -31.8057,6.44431 -15.0314,7.51629 -28.9265,21.68586 -35.6969,36.40193 -7.2675,15.7965 -6.831,43.99774 0.9361,60.48358 7.2079,15.29911 19.2711,27.14243 36.5202,35.85468 12.2777,6.20131 14.8784,6.6865 32.2719,6.02085 13.9698,-0.53462 21.5558,-2.02104 29.0027,-5.68291 z m -47.9207,-21.33879 c -16.5573,-6.47899 -28.0741,-20.3474 -31.2298,-37.60662 -4.3707,-23.90437 13.4834,-50.07476 37.5741,-55.07598 22.2641,-4.62199 43.6801,5.3792 54.3701,25.39066 2.2673,4.24432 3.6749,12.32759 3.7343,21.44344 0.081,12.44242 -0.9053,16.27134 -6.5926,25.595 -11.5998,19.01644 -37.6832,28.14733 -57.8561,20.2535 z m -99.2123,-2.81058 c 10.8063,-9.09292 9.4254,-14.76542 -12.5192,-51.42591 -17.5756,-29.36162 -19.0157,-32.61112 -15.5691,-35.13134 2.0889,-1.52739 20.2472,-9.66827 40.3519,-18.09083 54.8057,-22.95996 55.0346,-24.28702 13.3982,-77.65753 -15.2795,-19.58574 -29.8806,-37.36313 -32.4467,-39.50532 -3.0694,-2.56229 -8.5792,-3.92585 -16.1038,-3.98535 l -11.4381,-0.0904 7.2333,-6.19218 c 6.5144,-5.57671 7.2326,-7.39275 7.2251,-18.27117 -0.025,-35.80276 -44.2129,-53.15593 -72.3804,-28.42454 -8.2718,7.26279 -13.3007,19.34305 -11.0301,26.49679 1.3861,4.3673 2.5037,4.56089 17.9662,3.11193 l 16.4883,-1.54516 0,12.1801 0,12.1801 -13.2772,9.31337 c -7.3024,5.12234 -13.861,10.25814 -14.5747,11.41288 -1.8548,3.00113 1.2347,17.75478 3.7179,17.75478 1.1431,0 9.7605,-5.25811 19.1496,-11.68468 20.9183,-14.31795 22.7896,-15.49158 22.7896,-14.29318 0,0.52314 -11.7682,9.83006 -26.1514,20.68203 l -26.1515,19.73087 -25.47441,1.41133 c -24.0418,1.33196 -25.7628,1.74663 -30.6027,7.37334 -7.0676,8.21657 -6.5212,15.27429 1.7194,22.20831 6.6426,5.5893 7.7676,5.76197 37.54171,5.76197 l 30.694,0 18.394,-12.24109 c 10.1167,-6.73259 18.9758,-12.24108 19.6867,-12.24108 3.8557,0 33.5324,21.60482 33.113,24.10641 -0.2733,1.62949 -12.5154,7.89933 -27.2047,13.93296 -30.0773,12.35426 -40.3543,20.60188 -37.8927,30.41 2.1822,8.69459 52.2084,91.43935 57.541,95.17443 7.2928,5.1081 18.0274,4.08405 25.8068,-2.46188 z"
       style="fill:#092d78;fill-opacity:1"
       sodipodi:nodetypes="sccsssssssssssssssssssssssssscsssssssssssssssssssssssssssssssssssssssssscscsssscssscscccscsssscsssscsscssscc" />
  </g>
</svg>
