<?xml version="1.0" encoding="UTF-8" standalone="no"?>
<!-- Created with Inkscape (http://www.inkscape.org/) -->

<svg
   xmlns:dc="http://purl.org/dc/elements/1.1/"
   xmlns:cc="http://creativecommons.org/ns#"
   xmlns:rdf="http://www.w3.org/1999/02/22-rdf-syntax-ns#"
   xmlns:svg="http://www.w3.org/2000/svg"
   xmlns="http://www.w3.org/2000/svg"
   version="1.2"
   width="48.104"
   height="48.104"
   id="svg2">
  <metadata
     id="metadata3073">
    <rdf:RDF>
      <cc:Work
         rdf:about="">
        <dc:format>image/svg+xml</dc:format>
        <dc:type
           rdf:resource="http://purl.org/dc/dcmitype/StillImage" />
        <dc:title></dc:title>
      </cc:Work>
    </rdf:RDF>
  </metadata>
  <defs
     id="defs3071" />
  <g
     id="g3084">
    <path
       d="M 0,24.052 C 0,10.768 10.768,0 24.051,0 37.335,0 48.104,10.768 48.104,24.052 48.104,37.336 37.335,48.104 24.051,48.104 10.768,48.104 0,37.336 0,24.052"
       id="path3051"
       style="fill:#e41408" />
    <path
       d="m 6.414,24.052 c 0,-9.74 7.896,-17.637 17.637,-17.637 9.742,0 17.638,7.896 17.638,17.637 0,9.742 -7.896,17.638 -17.638,17.638 C 14.31,41.689 6.414,33.794 6.414,24.052"
       id="path3053"
       style="fill:#ffffff" />
    <path
       d="m 27.513,27.546 c 0,-1.759 1.426,-3.182 3.184,-3.182 1.756,0 3.181,1.423 3.181,3.182 0,1.757 -1.425,3.182 -3.181,3.182 -1.759,0 -3.184,-1.425 -3.184,-3.182"
       id="path3055"
       style="fill:#1c1d20" />
    <path
       d="m 26.642,16.586 c 0,-0.417 0.337,-0.755 0.753,-0.755 0.418,0 0.755,0.338 0.755,0.755 0,0.416 -0.337,0.753 -0.755,0.753 -0.416,0 -0.753,-0.337 -0.753,-0.753"
       id="path3057"
       style="fill:#1c1d20" />
    <path
       d="m 27.208,17.741 c 0,0 0.164,-0.118 0.541,-0.118 0,-0.024 0.661,-0.095 0.661,0.471 0.022,0 0,2.971 0,2.971 0,0 0,0.329 -0.331,0.329 0,0.024 -2.616,0 -2.616,0 0,0 -0.189,0 -0.189,0.189 v 2.214 c 0,0 -0.047,0.473 -0.611,0.473 0,-0.047 -0.543,0.071 -0.543,-0.401 0,0.023 0,-3.183 0,-3.183 0,0 -0.023,-0.472 0.473,-0.472 -0.024,-0.023 1.672,0 1.672,0 0,0 0.165,0.025 0.165,-0.164 -0.022,0 0,-0.588 0,-0.588 0,0 0,-0.237 -0.234,-0.118 -0.048,0.023 -1.367,0.565 -1.367,0.565 0,0 -0.424,0.188 -0.638,-0.261 -0.047,0 -0.258,-0.589 0.284,-0.8 0.022,0.001 2.733,-1.107 2.733,-1.107"
       id="path3059"
       style="fill:#1c1d20" />
    <path
       d="m 28.079,27.521 c 0,-1.444 1.172,-2.615 2.617,-2.615 1.443,0 2.615,1.171 2.615,2.615 0,1.445 -1.172,2.616 -2.615,2.616 -1.445,0.001 -2.617,-1.17 -2.617,-2.616"
       id="path3061"
       style="fill:#ffffff" />
    <path
       d="m 24.332,26.257 c 0,-0.031 1.697,0 1.697,0 0,0 0.234,0 0.142,-0.212 l -0.637,-2.271 c 0,0 -0.118,-0.165 -0.118,-0.519 v -1.343 c 0,0 -0.024,-0.307 0.306,-0.307 0,0.024 10.677,0 10.677,0 0,0 0.33,-0.07 0.213,0.212 -0.023,0.024 -1.202,4.338 -1.202,4.338 0,0 -0.071,0.188 0.188,0.188 0,-0.024 1.438,0 1.438,0 v 0.778 H 24.638 c 0,0 0.024,0.212 0.33,0.4 0.024,0.024 0.377,0.261 0.33,0.731 0,0 0.094,0.541 -0.377,0.282 0,-0.046 -1.06,-0.377 -1.202,-1.391 -0.023,-0.023 -0.802,0 -0.802,0 0,0 0.165,0.377 0.496,0.66 0,-0.022 0.448,0.119 0.306,0.896 0,0 -0.094,0.635 0.213,1.225 0,-0.023 0.07,0.236 0.07,0.236 0,0 0.07,0.281 -0.118,0.353 -0.022,-0.023 -0.118,0.19 0.048,0.566 0,0.023 -1.107,0 -1.107,0 0,0 -0.024,-0.354 0.281,-0.566 -0.023,0 0.261,-0.188 0.189,-0.542 -0.024,0 -0.071,-1.861 -1.367,-2.049 -0.023,-0.025 -0.472,-0.237 -0.519,0.234 0,-0.024 -0.095,0.213 -0.024,0.543 0,0 -0.683,0.141 -0.989,0.965 -0.023,0 -0.306,0.707 -0.612,0.825 -0.024,0 0.188,0.188 0.047,0.354 -0.023,0.024 -0.636,-0.047 -0.849,0.165 -0.022,0 -0.329,0.143 -0.307,-0.141 0,-0.024 -0.094,-0.212 0.284,-0.614 -0.024,0 0.471,-0.753 0.471,-0.753 0,0 0.071,-0.331 0.565,-0.731 0,-0.022 0.141,-0.777 0.425,-1.154 -0.024,0 0.424,-0.825 -0.708,-0.591 0.047,-0.022 -1.366,0.614 -2.404,0.261 -0.023,0 -0.353,-0.236 -0.306,0.118 0,0.047 -0.071,1.555 0.73,2.874 0,0 -0.142,0.142 -0.188,0.355 0.024,0 -0.213,0.164 0.024,0.329 0.022,0 0.212,0.189 -0.071,0.236 -0.048,0 -1.108,0.353 -0.943,-0.07 -0.022,0 -0.071,-0.213 0.283,-0.542 -0.048,-0.024 0.236,-0.119 0.07,-0.614 -0.023,0 -0.376,-1.697 -1.036,-2.168 -0.024,-0.022 -0.307,-0.472 -1.368,0.164 0,0 -0.706,0.33 -0.235,1.179 -0.023,-0.023 0.024,0.165 0.26,0.401 0,-0.023 0.141,0.047 0.188,0.282 0.023,0 0.683,0.165 0.376,0.424 -0.022,0 -0.376,0.379 -0.518,0.826 0,0 -0.164,0.213 -0.282,0.048 0.022,0 -0.26,-0.142 -0.166,-0.779 -0.023,0.023 -0.447,-0.306 -0.589,-1.226 0,0.047 0.094,-0.258 -0.118,-0.589 0.024,-0.024 -0.306,-0.142 0.094,-0.802 -0.022,0 0.213,-0.519 1.203,-1.154 -0.023,0 0.306,-0.095 0.094,-0.401 -0.023,0 -0.282,-0.188 -0.165,-1.037 0,-0.022 -0.424,-0.376 -0.637,-0.848 -0.022,0 -0.117,-0.378 -0.495,-0.755 0.024,0 -0.424,-0.424 -0.707,0 -0.021,0.023 -0.259,0.449 -0.093,0.803 0.023,0 0.211,0.589 -0.708,0.589 -0.023,0 -0.942,-0.188 -0.636,-0.92 -0.024,0.023 0.26,-1.438 0.141,-2.05 -0.022,0 -0.283,-0.495 0.259,-0.66 0,-0.024 0.331,-0.094 0.118,-0.496 0,0 -0.282,-0.59 0.143,-0.399 -0.024,0 0.211,0.188 0.424,0.377 0,0 0.165,0.234 0.495,0.117 0,-0.024 1.178,-0.142 2.64,1.414 -0.023,0.024 0.919,1.272 1.626,1.133 0.024,0.021 0.659,-0.355 2.145,0.068 0.024,-0.022 0.448,0.071 0.872,-0.022 0.023,0 0.896,-0.377 1.649,0.188 0,0.023 0.449,0.212 1.015,0.354 -0.025,0.001 0.941,0.017 1.436,2.225"
       id="path3063"
       style="fill:#1c1d20;fill-rule:evenodd" />
    <path
       d="m 22.94,26.226 c 0,-0.022 0.354,0 0.354,0 0,0 0.047,-0.26 -0.094,-0.519 0,0 -0.33,-0.259 -0.284,0.235 0.001,-0.023 0.049,0.142 0.024,0.284"
       id="path3065"
       style="fill:#ffffff;fill-rule:evenodd" />
    <path
       d="m 29.682,27.546 c 0,-0.56 0.454,-1.015 1.015,-1.015 0.56,0 1.013,0.455 1.013,1.015 0,0.558 -0.453,1.012 -1.013,1.012 -0.561,0 -1.015,-0.454 -1.015,-1.012"
       id="path3067"
       style="fill:#1c1d20" />
  </g>
</svg>
