<?xml version="1.0" encoding="UTF-8" standalone="no"?>
<svg xmlns="http://www.w3.org/2000/svg" width="48" height="48" viewBox="-240 -240 480 480">
<circle style="fill:#000000" r="239.815"/>
<circle style="fill:#ffffff" r="237.41025"/>
<circle style="fill:#092d78" r="232.613"/>
<path style="fill:#ffffff" d="M-153.817,2.26871C-153.663,49.6894-128.012,101.809-80.3513,131.189C-84.2611,143.799-85.0547,145.804-85.2797,147.421C-85.2936,147.523-85.3002,147.623-85.3002,147.722C-85.2808,148.946-84.4341,150.322-83.2269,150.287C-79.4125,150.194-16.3444,137.014-12.8333,135.963C-11.4425,135.313-10.7769,134.2-10.7769,133.256C-10.7769,132.528-11.061,131.664-11.7835,130.756L-59.609,78.0316C-60.2409,77.3711-60.8903,77.184-61.4058,77.184C-62.8668,77.184-63.8878,78.5479-64.2321,79.7428L-69.0387,95.543C-98.3489,74.0561-117.292,42.6138-117.833,2.13143C-117.794-8.17795-116.571-16.8127-114.922-24.4821L-149.871-31.9967C-152.665-19.6694-153.784-9.62346-153.817,2.26871Z
M-111.332-79.0425C-111.623-77.2379-109.795-75.1313-107.346-75.583L-37.7728-90.639C-36.8199-90.8801-35.8293-91.6583-35.8293-92.9912C-35.8293-93.9222-36.3077-94.8487-36.943-95.4981L-48.2233-107.561C-33.0582-114.226-17.5504-118.261,0.686124-118.261C25.9045-118.261,54.5634-109.138,78.6631-87.2845L102.645-113.794C74.8572-139.616,38.7096-154.145,0.587885-154.251C-26.414-154.251-51.4155-147.136-73.4375-135.181C-82.6647-145.156-83.834-146.692-85.1445-147.641C-85.6257-147.958-86.2036-148.129-86.7602-148.129C-87.452-148.129-88.1095-147.865-88.4932-147.288C-89.6268-145.527-110.672-82.7629-111.332-79.0425Z
M36.2591,111.767L47.2256,145.79C86.6693,133.588,114.304,108.477,131.246,80.9818C146.205,56.4867,153.093,29.4732,153.789,3.99154C167.04,0.988033,168.956,0.743854,170.433,0.0826837C171.333-0.363397,171.992-1.30554,171.992-2.23133C171.992-2.4901,171.934-2.74773,171.802-2.99284C170.51-5.50538,126.846-54.3372,124.163-56.8672C123.577-57.3587,122.696-57.5743,122.061-57.5743C121.123-57.5743,119.978-57.0838,119.13-55.1729L97.3821,12.6071C97.2935,12.9049,97.2526,13.1845,97.2526,13.4447C97.2526,15.0537,98.6732,15.8955,100.17,15.8955C100.502,15.8955,100.843,15.8496,101.175,15.7552L117.262,12.0179C115.437,28.653,111.085,44.8049,100.979,61.5274C85.6171,86.9643,61.7894,103.537,36.2591,111.767Z"/>
</svg>