<?xml version="1.0" encoding="UTF-8" standalone="no"?>
<!-- Created with Inkscape (http://www.inkscape.org/) -->

<svg
   xmlns:dc="http://purl.org/dc/elements/1.1/"
   xmlns:cc="http://creativecommons.org/ns#"
   xmlns:rdf="http://www.w3.org/1999/02/22-rdf-syntax-ns#"
   xmlns:svg="http://www.w3.org/2000/svg"
   xmlns="http://www.w3.org/2000/svg"
   version="1.2"
   width="26.6875"
   height="48.34375"
   id="svg2">
  <metadata
     id="metadata3375">
    <rdf:RDF>
      <cc:Work
         rdf:about="">
        <dc:format>image/svg+xml</dc:format>
        <dc:type
           rdf:resource="http://purl.org/dc/dcmitype/StillImage" />
        <dc:title></dc:title>
      </cc:Work>
    </rdf:RDF>
  </metadata>
  <defs
     id="defs3373" />
  <g
     id="g3505">
    <path
       d="m 0.12,40.080002 26.455999,0 0,8.142 -26.455999,0 z"
       id="rect3255"
       style="fill:#f7da15" />
    <path
       d="m 0.12,40.080002 26.455999,0 0,8.142 -26.455999,0 z"
       id="rect3257"
       style="fill:none;stroke:#28201d;stroke-width:0.241;stroke-miterlimit:10" />
    <path
       d="m 0.12,0.12 26.455999,0 0,48.102001 -26.455999,0 z"
       id="rect3259"
       style="fill:none;stroke:#1c1d20;stroke-width:0.241;stroke-miterlimit:10" />
    <path
       d="m 24.172,21.146 c 0,1.89 -0.506,3.776 -1.45,5.411 -0.945,1.638 -2.326,3.019 -3.962,3.962 -1.636,0.944 -3.523,1.449 -5.412,1.449 -1.889,0 -3.777,-0.505 -5.413,-1.449 C 7.118,30.046 6.362,29.467 5.694,28.8 4.358,27.463 3.381,25.771 2.892,23.948 c -0.489,-1.825 -0.489,-3.78 0,-5.604 0.489,-1.824 1.466,-3.516 2.802,-4.852 1.336,-1.336 3.028,-2.314 4.854,-2.802 0.912,-0.244 1.855,-0.368 2.801,-0.368 1.889,0 3.776,0.505 5.412,1.449 1.636,0.945 3.018,2.325 3.962,3.963 0.943,1.636 1.449,3.523 1.449,5.412"
       id="path3261"
       style="fill:#e41408;fill-rule:evenodd" />
    <path
       d="M 19.343,26.122 C 25.387,18.62 15.885,9.116 8.429,15.107"
       id="path3263"
       style="fill:#19408b" />
    <path
       d="m 7.313,16.247 c -5.998,7.411 3.642,16.905 11.023,10.968"
       id="path3265"
       style="fill:#19408b" />
    <path
       d="M 2.78,2.145 H 3.097 L 3.736,3.826 H 3.363 L 3.213,3.46 H 2.615 L 2.498,3.825 H 2.132 L 2.78,2.145 z M 2.727,3.139 3.114,3.143 2.916,2.577 2.727,3.139 z"
       id="path3269"
       style="fill:#28201d" />
    <path
       d="M 3.741,2.145 H 4.134 L 4.562,2.856 4.983,2.145 H 5.362 L 4.732,3.177 V 3.825 H 4.384 V 3.16 L 3.741,2.145 z"
       id="path3271"
       style="fill:#28201d" />
    <path
       d="M 5.529,2.145 H 5.862 V 3.143 C 5.86,3.229 5.892,3.314 5.958,3.397 6.024,3.48 6.11,3.523 6.217,3.527 6.32,3.527 6.403,3.489 6.465,3.415 6.528,3.341 6.561,3.256 6.561,3.16 V 2.145 H 6.895 V 3.21 C 6.887,3.382 6.821,3.531 6.699,3.658 6.576,3.786 6.419,3.851 6.226,3.855 6.031,3.861 5.865,3.79 5.729,3.642 5.593,3.493 5.527,3.349 5.529,3.21 V 2.145 z"
       id="path3273"
       style="fill:#28201d" />
    <path
       d="M 7.256,2.145 H 7.589 L 8.31,3.159 V 2.145 H 8.643 V 3.826 H 8.31 L 7.589,2.722 V 3.826 H 7.256 V 2.145 z"
       id="path3275"
       style="fill:#28201d" />
    <path
       d="m 8.906,2.145 h 1.298 V 2.478 H 9.722 V 3.826 H 9.372 V 2.478 H 8.906 V 2.145 z"
       id="path3277"
       style="fill:#28201d" />
    <path
       d="m 10.969,2.145 h 0.316 l 0.64,1.681 H 11.552 L 11.402,3.461 H 10.804 L 10.687,3.826 H 10.32 l 0.649,-1.681 z m -0.054,0.994 0.387,0.004 -0.197,-0.565 -0.19,0.561 z"
       id="path3279"
       style="fill:#28201d" />
    <path
       d="m 12.14,2.145 h 0.315 l 0.459,1.029 0.462,-1.029 h 0.327 V 3.826 H 13.37 V 2.877 L 12.909,3.85 12.456,2.896 v 0.93 H 12.14 V 2.145 z"
       id="path3281"
       style="fill:#28201d" />
    <path
       d="M 14.068,2.145 H 14.4 V 3.826 H 14.068 V 2.145 z"
       id="path3283"
       style="fill:#28201d" />
    <path
       d="m 14.765,2.145 h 1.147 v 0.333 h -0.815 v 0.3 H 15.58 V 3.093 H 15.097 V 3.51 h 0.865 v 0.315 h -1.198 l 0.001,-1.68 z"
       id="path3285"
       style="fill:#28201d" />
    <path
       d="m 16.31,2.145 h 0.333 L 17.364,3.16 V 2.145 h 0.333 V 3.826 H 17.364 L 16.643,2.722 V 3.826 H 16.31 V 2.145 z"
       id="path3287"
       style="fill:#28201d" />
    <path
       d="m 17.96,2.145 h 1.298 v 0.333 h -0.482 v 1.348 h -0.35 V 2.478 H 17.96 V 2.145 z"
       id="path3289"
       style="fill:#28201d" />
    <path
       d="m 20.163,2.115 c 0.195,0.003 0.364,0.075 0.507,0.216 0.143,0.141 0.216,0.357 0.219,0.649 0.003,0.291 -0.072,0.513 -0.227,0.663 C 20.509,3.794 20.32,3.864 20.099,3.852 19.876,3.84 19.705,3.755 19.584,3.596 19.463,3.437 19.404,3.224 19.409,2.957 19.414,2.689 19.491,2.482 19.64,2.335 c 0.149,-0.147 0.324,-0.22 0.523,-0.22 z m -0.408,0.87 c 0,0.148 0.036,0.274 0.107,0.378 0.071,0.103 0.169,0.154 0.293,0.156 0.124,0.002 0.221,-0.047 0.288,-0.146 0.068,-0.1 0.103,-0.227 0.103,-0.381 0,-0.154 -0.036,-0.281 -0.107,-0.383 -0.071,-0.101 -0.169,-0.151 -0.293,-0.151 -0.124,0 -0.221,0.051 -0.288,0.151 -0.069,0.102 -0.103,0.227 -0.103,0.376 z"
       id="path3291"
       style="fill:#28201d" />
    <path
       d="m 21.789,2.145 h 0.506 c 0.219,-0.003 0.412,0.053 0.579,0.167 0.167,0.114 0.253,0.331 0.256,0.651 0.004,0.319 -0.085,0.543 -0.266,0.671 -0.181,0.128 -0.354,0.191 -0.52,0.191 h -0.556 v -1.68 z m 0.332,0.333 v 1.02 h 0.269 c 0.086,0 0.174,-0.041 0.263,-0.122 0.09,-0.081 0.137,-0.213 0.14,-0.395 C 22.796,2.798 22.752,2.668 22.661,2.592 22.57,2.516 22.49,2.478 22.421,2.478 h -0.3 z"
       id="path3293"
       style="fill:#28201d" />
    <path
       d="m 23.425,2.145 h 1.147 v 0.333 h -0.815 v 0.3 H 24.24 V 3.093 H 23.757 V 3.51 h 0.865 v 0.315 h -1.198 l 0.001,-1.68 z"
       id="path3295"
       style="fill:#28201d" />
    <path
       d="m 4.367,4.66 c 0.119,0 0.232,0.027 0.34,0.082 0.108,0.055 0.197,0.151 0.267,0.291 L 4.665,5.187 C 4.612,5.075 4.525,5.014 4.404,5.006 4.283,4.997 4.182,5.033 4.099,5.112 4.016,5.191 3.97,5.318 3.962,5.492 3.953,5.667 3.988,5.805 4.066,5.908 4.143,6.011 4.245,6.061 4.369,6.061 4.493,6.061 4.6,5.993 4.688,5.854 L 4.97,6.02 C 4.892,6.164 4.803,6.263 4.701,6.32 4.602,6.377 4.464,6.402 4.29,6.397 4.115,6.393 3.961,6.319 3.825,6.179 3.689,6.039 3.619,5.823 3.616,5.535 3.613,5.246 3.69,5.028 3.85,4.881 4.01,4.734 4.182,4.66 4.367,4.66 z"
       id="path3299"
       style="fill:#28201d" />
    <path
       d="M 5.723,4.689 H 6.039 L 6.679,6.37 H 6.306 L 6.156,6.005 H 5.558 L 5.44,6.37 H 5.074 L 5.723,4.689 z M 5.669,5.684 6.056,5.688 5.858,5.122 5.669,5.684 z"
       id="path3301"
       style="fill:#28201d" />
    <path
       d="M 6.894,4.689 H 7.209 L 7.668,5.718 8.13,4.689 H 8.457 V 6.37 H 8.124 V 5.422 L 7.663,6.395 7.21,5.44 V 6.37 H 6.894 V 4.689 z"
       id="path3303"
       style="fill:#28201d" />
    <path
       d="M 9.288,4.689 H 9.605 L 10.244,6.37 H 9.871 L 9.721,6.005 H 9.123 L 9.006,6.37 H 8.64 L 9.288,4.689 z M 9.234,5.684 9.621,5.688 9.424,5.122 9.234,5.684 z"
       id="path3305"
       style="fill:#28201d" />
    <path
       d="m 10.69,5.878 c 0.122,0.116 0.254,0.181 0.393,0.194 0.14,0.013 0.234,-0.011 0.286,-0.07 C 11.42,5.942 11.432,5.882 11.403,5.82 11.376,5.759 11.243,5.705 11.006,5.656 10.77,5.608 10.619,5.512 10.556,5.368 10.493,5.224 10.507,5.072 10.596,4.913 10.686,4.754 10.85,4.672 11.088,4.665 11.327,4.658 11.54,4.743 11.73,4.918 L 11.492,5.157 C 11.359,5.051 11.226,4.997 11.094,4.995 10.962,4.994 10.888,5.038 10.873,5.127 c -0.016,0.09 0.056,0.151 0.214,0.185 0.157,0.033 0.306,0.083 0.444,0.148 0.14,0.066 0.217,0.185 0.231,0.354 0.014,0.169 -0.03,0.307 -0.137,0.412 C 11.519,6.332 11.373,6.389 11.187,6.395 11.001,6.402 10.845,6.375 10.719,6.316 10.593,6.257 10.506,6.186 10.457,6.105 L 10.69,5.878 z"
       id="path3307"
       style="fill:#28201d" />
    <path
       d="M 12.879,6.37 C 12.69,6.121 12.595,5.842 12.595,5.53 c 0,-0.312 0.095,-0.592 0.284,-0.841 h 0.348 c -0.206,0.249 -0.309,0.529 -0.309,0.841 0,0.312 0.103,0.591 0.309,0.84 h -0.348 z"
       id="path3309"
       style="fill:#28201d" />
    <path
       d="m 13.733,5.878 c 0.122,0.116 0.254,0.181 0.393,0.194 0.14,0.013 0.234,-0.011 0.286,-0.07 0.051,-0.06 0.063,-0.12 0.034,-0.182 C 14.419,5.759 14.286,5.705 14.049,5.656 13.813,5.608 13.662,5.512 13.599,5.368 13.536,5.224 13.55,5.072 13.639,4.913 13.729,4.754 13.893,4.672 14.131,4.665 14.37,4.658 14.583,4.743 14.773,4.918 L 14.535,5.157 C 14.402,5.051 14.269,4.997 14.137,4.995 14.005,4.994 13.931,5.038 13.916,5.127 c -0.016,0.09 0.056,0.151 0.214,0.185 0.157,0.033 0.306,0.083 0.444,0.148 0.14,0.066 0.217,0.185 0.231,0.354 0.014,0.169 -0.03,0.307 -0.137,0.412 C 14.562,6.332 14.416,6.389 14.23,6.395 14.044,6.402 13.888,6.375 13.762,6.316 13.636,6.257 13.549,6.186 13.5,6.105 l 0.233,-0.227 z"
       id="path3311"
       style="fill:#28201d" />
    <path
       d="m 15.127,4.689 h 1.147 v 0.333 h -0.815 v 0.3 h 0.483 v 0.315 h -0.483 v 0.417 h 0.865 V 6.37 h -1.198 l 0.001,-1.681 z"
       id="path3313"
       style="fill:#28201d" />
    <path
       d="m 16.522,4.689 h 0.438 l 0.353,1.084 0.413,-1.084 h 0.383 L 17.482,6.37 H 17.153 L 16.522,4.689 z"
       id="path3315"
       style="fill:#28201d" />
    <path
       d="m 18.313,4.689 h 0.332 V 6.37 H 18.313 V 4.689 z"
       id="path3317"
       style="fill:#28201d" />
    <path
       d="m 19.009,4.689 h 0.333 v 1.365 h 0.79 V 6.37 H 19.009 V 4.689 z"
       id="path3319"
       style="fill:#28201d" />
    <path
       d="m 20.431,4.689 h 0.333 v 1.365 h 0.79 V 6.37 H 20.431 V 4.689 z"
       id="path3321"
       style="fill:#28201d" />
    <path
       d="m 22.318,4.689 h 0.316 l 0.64,1.681 H 22.901 L 22.751,6.005 H 22.153 L 22.036,6.37 H 21.67 l 0.648,-1.681 z m -0.053,0.995 0.387,0.004 -0.197,-0.565 -0.19,0.561 z"
       id="path3323"
       style="fill:#28201d" />
    <path
       d="m 23.712,6.37 h -0.349 c 0.206,-0.249 0.309,-0.528 0.309,-0.84 0,-0.312 -0.103,-0.592 -0.309,-0.841 h 0.349 c 0.188,0.249 0.283,0.529 0.283,0.841 0,0.312 -0.095,0.591 -0.283,0.84 z"
       id="path3325"
       style="fill:#28201d" />
    <path
       d="m 2.051,43.689 h 0.333 v 1.365 h 0.79 v 0.315 H 2.051 v -1.68 z"
       id="path3329"
       style="fill:#28201d" />
    <path
       d="M 3.474,43.689 H 3.806 V 45.37 H 3.474 v -1.681 z"
       id="path3331"
       style="fill:#28201d" />
    <path
       d="m 4.88,43.66 c 0.119,0 0.232,0.027 0.34,0.082 0.108,0.055 0.196,0.151 0.267,0.291 L 5.178,44.186 C 5.125,44.074 5.038,44.013 4.917,44.005 4.796,43.996 4.694,44.032 4.611,44.111 c -0.083,0.079 -0.129,0.206 -0.137,0.38 -0.009,0.175 0.026,0.313 0.104,0.416 0.077,0.103 0.179,0.153 0.303,0.153 0.124,0 0.231,-0.068 0.319,-0.207 l 0.282,0.166 C 5.404,45.163 5.315,45.262 5.213,45.319 5.112,45.376 4.975,45.401 4.801,45.396 4.627,45.391 4.472,45.318 4.336,45.177 4.2,45.036 4.13,44.822 4.127,44.533 4.123,44.244 4.201,44.026 4.36,43.879 4.519,43.732 4.694,43.66 4.88,43.66 z"
       id="path3333"
       style="fill:#28201d" />
    <path
       d="m 5.771,43.689 h 1.147 v 0.333 H 6.103 v 0.3 h 0.483 v 0.315 H 6.103 v 0.417 h 0.865 v 0.315 H 5.77 l 0.001,-1.68 z"
       id="path3335"
       style="fill:#28201d" />
    <path
       d="m 7.315,43.689 h 0.333 l 0.721,1.015 V 43.689 H 8.702 V 45.37 H 8.369 L 7.648,44.266 V 45.37 H 7.315 v -1.681 z"
       id="path3337"
       style="fill:#28201d" />
    <path
       d="m 9.776,43.66 c 0.119,0 0.232,0.027 0.34,0.082 0.108,0.055 0.196,0.151 0.267,0.291 l -0.309,0.153 C 10.021,44.074 9.934,44.013 9.813,44.005 9.692,43.996 9.59,44.032 9.507,44.111 9.424,44.19 9.378,44.317 9.37,44.491 c -0.009,0.175 0.026,0.313 0.104,0.416 0.077,0.103 0.179,0.153 0.303,0.153 0.124,0 0.231,-0.068 0.319,-0.207 l 0.282,0.166 c -0.078,0.144 -0.167,0.243 -0.269,0.3 -0.101,0.057 -0.238,0.082 -0.412,0.077 C 9.523,45.391 9.368,45.318 9.232,45.177 9.096,45.036 9.026,44.822 9.023,44.533 9.019,44.244 9.097,44.026 9.256,43.879 9.415,43.732 9.591,43.66 9.776,43.66 z"
       id="path3339"
       style="fill:#28201d" />
    <path
       d="M 10.668,43.689 H 11 v 1.681 h -0.332 v -1.681 z"
       id="path3341"
       style="fill:#28201d" />
    <path
       d="m 11.828,43.689 h 0.316 l 0.64,1.681 h -0.373 l -0.15,-0.365 H 11.663 L 11.546,45.37 H 11.18 l 0.648,-1.681 z m -0.054,0.995 0.387,0.004 -0.197,-0.565 -0.19,0.561 z"
       id="path3343"
       style="fill:#28201d" />
    <path
       d="m 13.635,43.689 h 0.333 l 0.721,1.015 v -1.015 h 0.333 v 1.681 h -0.333 l -0.721,-1.104 v 1.104 h -0.333 v -1.681 z"
       id="path3345"
       style="fill:#28201d" />
    <path
       d="m 16.384,44.738 c 0,0.223 -0.057,0.388 -0.169,0.495 -0.113,0.107 -0.247,0.16 -0.403,0.156 -0.155,-0.003 -0.286,-0.064 -0.393,-0.184 -0.105,-0.119 -0.159,-0.281 -0.161,-0.484 -0.002,-0.204 0.052,-0.362 0.161,-0.476 0.109,-0.112 0.239,-0.17 0.388,-0.171 0.149,-0.002 0.283,0.051 0.4,0.156 0.118,0.108 0.177,0.277 0.177,0.508 z m -0.333,0 c 0,-0.105 -0.021,-0.188 -0.06,-0.246 -0.04,-0.058 -0.096,-0.087 -0.167,-0.089 -0.071,-0.002 -0.128,0.025 -0.171,0.082 -0.044,0.057 -0.065,0.137 -0.065,0.241 0,0.104 0.021,0.188 0.06,0.248 0.04,0.062 0.096,0.093 0.167,0.095 0.071,0.002 0.129,-0.03 0.172,-0.097 0.043,-0.067 0.064,-0.144 0.064,-0.234 z"
       id="path3347"
       style="fill:#28201d" />
    <path
       d="m 16.828,44.987 c 0.055,0 0.103,0.02 0.142,0.06 0.04,0.04 0.06,0.087 0.06,0.142 0,0.055 -0.02,0.103 -0.06,0.142 -0.039,0.04 -0.087,0.06 -0.142,0.06 -0.055,0 -0.102,-0.02 -0.142,-0.06 -0.04,-0.039 -0.06,-0.087 -0.06,-0.142 0,-0.055 0.02,-0.102 0.06,-0.142 0.04,-0.04 0.087,-0.06 0.142,-0.06 z"
       id="path3349"
       style="fill:#28201d" />
    <path
       d="m 18.576,43.66 c 0.176,0 0.337,0.063 0.484,0.191 0.147,0.127 0.222,0.352 0.222,0.674 0,0.321 -0.074,0.547 -0.222,0.678 -0.147,0.132 -0.309,0.197 -0.484,0.199 -0.175,0.002 -0.34,-0.068 -0.492,-0.209 -0.152,-0.141 -0.229,-0.361 -0.229,-0.663 0,-0.302 0.077,-0.522 0.229,-0.661 0.152,-0.14 0.316,-0.209 0.492,-0.209 z m 0,0.338 c -0.126,0.007 -0.22,0.057 -0.281,0.151 -0.061,0.094 -0.092,0.222 -0.092,0.381 0,0.159 0.035,0.286 0.106,0.383 0.071,0.096 0.163,0.143 0.276,0.142 0.112,-0.002 0.198,-0.051 0.259,-0.146 0.06,-0.097 0.09,-0.224 0.092,-0.381 0.001,-0.157 -0.026,-0.283 -0.082,-0.378 -0.056,-0.095 -0.149,-0.145 -0.278,-0.152 z"
       id="path3351"
       style="fill:#28201d" />
    <path
       d="m 20.053,43.66 c 0.176,0 0.337,0.063 0.484,0.191 0.147,0.127 0.222,0.352 0.222,0.674 0,0.321 -0.074,0.547 -0.222,0.678 -0.147,0.132 -0.309,0.197 -0.484,0.199 -0.175,0.002 -0.34,-0.068 -0.492,-0.209 -0.152,-0.141 -0.229,-0.361 -0.229,-0.663 0,-0.302 0.077,-0.522 0.229,-0.661 0.152,-0.14 0.316,-0.209 0.492,-0.209 z m 0,0.338 c -0.126,0.007 -0.22,0.057 -0.281,0.151 -0.061,0.094 -0.092,0.222 -0.092,0.381 0,0.159 0.035,0.286 0.106,0.383 0.071,0.096 0.163,0.143 0.276,0.142 0.112,-0.002 0.198,-0.051 0.259,-0.146 0.06,-0.097 0.09,-0.224 0.092,-0.381 0.001,-0.157 -0.026,-0.283 -0.082,-0.378 -0.057,-0.095 -0.149,-0.145 -0.278,-0.152 z"
       id="path3353"
       style="fill:#28201d" />
    <path
       d="m 21.529,43.66 c 0.176,0 0.337,0.063 0.484,0.191 0.147,0.127 0.222,0.352 0.222,0.674 0,0.321 -0.074,0.547 -0.222,0.678 -0.147,0.132 -0.309,0.197 -0.484,0.199 -0.175,0.002 -0.34,-0.068 -0.492,-0.209 -0.152,-0.141 -0.229,-0.361 -0.229,-0.663 0,-0.302 0.077,-0.522 0.229,-0.661 0.152,-0.14 0.317,-0.209 0.492,-0.209 z m 0,0.338 c -0.126,0.007 -0.22,0.057 -0.281,0.151 -0.061,0.094 -0.092,0.222 -0.092,0.381 0,0.159 0.035,0.286 0.106,0.383 0.071,0.096 0.163,0.143 0.276,0.142 0.112,-0.002 0.198,-0.051 0.259,-0.146 0.06,-0.097 0.09,-0.224 0.092,-0.381 0.001,-0.157 -0.026,-0.283 -0.082,-0.378 -0.056,-0.095 -0.149,-0.145 -0.278,-0.152 z"
       id="path3355"
       style="fill:#28201d" />
    <path
       d="m 23.006,43.66 c 0.176,0 0.337,0.063 0.484,0.191 0.147,0.127 0.222,0.352 0.222,0.674 0,0.321 -0.074,0.547 -0.222,0.678 -0.147,0.132 -0.309,0.197 -0.484,0.199 -0.175,0.002 -0.34,-0.068 -0.492,-0.209 -0.152,-0.141 -0.229,-0.361 -0.229,-0.663 0,-0.302 0.077,-0.522 0.229,-0.661 0.152,-0.14 0.316,-0.209 0.492,-0.209 z m 0,0.338 c -0.126,0.007 -0.22,0.057 -0.281,0.151 -0.061,0.094 -0.092,0.222 -0.092,0.381 0,0.159 0.035,0.286 0.106,0.383 0.071,0.096 0.163,0.143 0.276,0.142 0.112,-0.002 0.198,-0.051 0.259,-0.146 0.06,-0.097 0.09,-0.224 0.092,-0.381 0.001,-0.157 -0.026,-0.283 -0.082,-0.378 -0.056,-0.095 -0.149,-0.145 -0.278,-0.152 z"
       id="path3357"
       style="fill:#28201d" />
    <path
       d="m 24.482,43.66 c 0.176,0 0.337,0.063 0.484,0.191 0.147,0.127 0.222,0.352 0.222,0.674 0,0.321 -0.074,0.547 -0.222,0.678 -0.147,0.132 -0.309,0.197 -0.484,0.199 -0.175,0.002 -0.34,-0.068 -0.492,-0.209 -0.152,-0.141 -0.229,-0.361 -0.229,-0.663 0,-0.302 0.077,-0.522 0.229,-0.661 0.153,-0.14 0.317,-0.209 0.492,-0.209 z m 0,0.338 c -0.126,0.007 -0.22,0.057 -0.281,0.151 -0.061,0.094 -0.092,0.222 -0.092,0.381 0,0.159 0.035,0.286 0.106,0.383 0.071,0.096 0.163,0.143 0.276,0.142 0.112,-0.002 0.198,-0.051 0.259,-0.146 0.06,-0.097 0.09,-0.224 0.092,-0.381 0.001,-0.157 -0.026,-0.283 -0.082,-0.378 -0.056,-0.095 -0.149,-0.145 -0.278,-0.152 z"
       id="path3359"
       style="fill:#28201d" />
    <path
       d="m 3.417,34.128 h 0.875 l 0.706,2.167 0.825,-2.167 h 0.766 l -1.253,3.36 H 4.68 l -1.263,-3.36 z"
       id="path3363"
       style="fill:#da3727" />
    <path
       d="m 10.474,34.128 h 0.634 l 1.277,3.36 H 11.64 l -0.301,-0.73 H 10.143 L 9.91,37.488 H 9.176 l 1.298,-3.36 z m -0.108,1.988 0.773,0.008 -0.396,-1.132 -0.377,1.124 z"
       id="path3365"
       style="fill:#da3727" />
    <path
       d="m 15.361,34.128 h 1.012 c 0.438,-0.007 0.823,0.104 1.158,0.333 0.335,0.229 0.506,0.662 0.512,1.303 0.007,0.639 -0.17,1.087 -0.531,1.342 -0.361,0.255 -0.708,0.383 -1.039,0.383 h -1.111 v -3.361 z m 0.663,0.666 v 2.038 h 0.537 c 0.173,0 0.349,-0.081 0.527,-0.243 0.179,-0.163 0.271,-0.427 0.278,-0.791 0.007,-0.364 -0.081,-0.623 -0.264,-0.775 -0.183,-0.152 -0.342,-0.229 -0.479,-0.229 h -0.599 z"
       id="path3367"
       style="fill:#da3727" />
    <path
       d="m 22.388,34.068 c 0.392,0.006 0.729,0.15 1.015,0.432 0.285,0.282 0.431,0.715 0.438,1.298 0.007,0.583 -0.145,1.026 -0.452,1.327 -0.309,0.302 -0.685,0.441 -1.129,0.418 -0.444,-0.023 -0.787,-0.193 -1.029,-0.512 -0.241,-0.318 -0.357,-0.744 -0.348,-1.278 0.01,-0.533 0.164,-0.947 0.462,-1.242 0.298,-0.295 0.645,-0.443 1.043,-0.443 z m -0.816,1.74 c 0,0.299 0.071,0.551 0.214,0.756 0.143,0.206 0.339,0.31 0.587,0.313 0.249,0.003 0.441,-0.095 0.577,-0.293 0.136,-0.199 0.203,-0.453 0.203,-0.761 0,-0.309 -0.071,-0.563 -0.214,-0.766 -0.143,-0.203 -0.338,-0.304 -0.586,-0.304 -0.249,0 -0.441,0.102 -0.577,0.304 -0.136,0.202 -0.204,0.453 -0.204,0.751 z"
       id="path3369"
       style="fill:#da3727" />
  </g>
</svg>
