<?xml version="1.0" encoding="UTF-8" standalone="no"?>
<!-- Created with Inkscape (http://www.inkscape.org/) -->

<svg
   xmlns:dc="http://purl.org/dc/elements/1.1/"
   xmlns:cc="http://creativecommons.org/ns#"
   xmlns:rdf="http://www.w3.org/1999/02/22-rdf-syntax-ns#"
   xmlns:svg="http://www.w3.org/2000/svg"
   xmlns="http://www.w3.org/2000/svg"
   version="1.2"
   width="48.0625"
   height="48.15625"
   id="svg2">
  <metadata
     id="metadata3059">
    <rdf:RDF>
      <cc:Work
         rdf:about="">
        <dc:format>image/svg+xml</dc:format>
        <dc:type
           rdf:resource="http://purl.org/dc/dcmitype/StillImage" />
        <dc:title></dc:title>
      </cc:Work>
    </rdf:RDF>
  </metadata>
  <defs
     id="defs3057" />
  <g
     id="g3061">
    <path
       d="m 6.3592028,24.033566 c 0,-9.705571 7.8680892,-17.5746568 17.5766502,-17.5746568 9.706567,0 17.575653,7.8680898 17.575653,17.5746568 0,9.707564 -7.868089,17.575654 -17.575653,17.575654 C 14.228289,41.608223 6.3592028,33.74113 6.3592028,24.033566"
       id="path15"
       style="fill:#ffffff" />
    <path
       d="m 18.690894,6.1312969 5.020907,8.6802111 4.935806,-8.8504113 -9.956713,0.1702002 z"
       id="path2852"
       style="fill:#000000;fill-opacity:1;stroke:#000000;stroke-width:0.99646521px;stroke-linecap:butt;stroke-linejoin:miter;stroke-opacity:1" />
    <path
       d="m 18.775994,42.469042 5.020907,-8.680212 4.935806,8.850412 -9.956713,-0.1702 z"
       id="path3626"
       style="fill:#000000;fill-opacity:1;stroke:#000000;stroke-width:0.99646521px;stroke-linecap:butt;stroke-linejoin:miter;stroke-opacity:1" />
    <path
       d="m 44.819552,24.079886 c 0,11.499262 -9.304125,20.821255 -20.781344,20.821255 -11.47722,0 -20.7813444,-9.321993 -20.7813444,-20.821255 0,-11.499262 9.3041244,-20.8212549 20.7813444,-20.8212549 11.477219,0 20.781344,9.3219929 20.781344,20.8212549 z"
       id="path3684"
       style="fill:none;stroke:#e31409;stroke-width:6.50759268;stroke-linecap:square;stroke-linejoin:miter;stroke-miterlimit:4;stroke-opacity:1" />
    <g
       transform="translate(-0.03125,0)"
       id="text3781"
       style="font-size:18.52453232px;font-style:normal;font-variant:normal;font-weight:normal;font-stretch:normal;text-align:start;line-height:100%;writing-mode:lr-tb;text-anchor:start;fill:#000000;fill-opacity:1;stroke:none;font-family:Transport Heavy;-inkscape-font-specification:'Transport Heavy,'">
      <path
         d="m 14.955297,16.76064 0.108542,0 0.723615,0 0.144723,0 0.108542,0 0.651253,0 0.47035,0 0.144722,0 0.615073,0 0.108542,0 0.434169,0 0,8.864279 0.470349,0 0.144723,0 0.615072,0 0.108543,0 0.434168,0 0,2.53265 c -0.02413,0.04222 -0.06031,0.06634 -0.108542,0.07236 l -0.397988,0 -0.180903,0 -0.108543,0 -0.144723,0 -0.108542,0 -0.723614,0 0,2.351747 -0.47035,0 -0.144723,0 -0.651253,0 -0.144723,0 -0.144723,0 -0.144722,0 -0.615073,0 -0.108542,0 -0.434169,0 0,-0.397988 0,-0.180903 0,-0.47035 0,-0.144723 0,-0.615072 0,-0.108542 0,-0.434169 -0.289446,0 -0.50653,0 -0.108542,0 -0.180904,0 -0.108542,0 -0.144723,0 -0.108542,0 -0.723614,0 -0.615073,0 -0.108542,0 -0.434169,0 -0.470349,0 -0.144723,0 -0.615072,0 -0.108543,0 -0.434168,0 -0.397988,0 -0.1809039,0 -0.4703494,0 -0.1447229,0 -0.1085422,0 -0.1447229,0 -0.1085422,0 -0.1447229,0 -0.6512531,0 0,-0.07236 0,-0.07236 0,-0.07236 0,-0.07236 0,-0.07236 0,-0.07236 0,-0.07236 0,-0.07236 0,-0.07236 0,-0.07236 0,-0.07236 0,-0.07236 0,-0.07236 0,-0.108542 0,0.03618 0,-0.07236 0,0.03618 0,-0.07236 0,0.03618 0,-0.07236 0,0.03618 0,-0.07236 0,0.03618 0,-0.07236 0,0.03618 0,-0.07236 0,0.03618 0,-0.07236 0,0.03618 0,-0.07236 0,0.03618 0,-0.07236 0,0.03618 0,-0.07236 0,0.03618 0,-0.07236 0,0.03618 0,-0.07236 0,0.03618 0,-0.07236 0,0.03618 0,-0.07236 0,0.03618 0,-0.07236 0,0.03618 0,-0.07236 0,0.03618 0,-0.07236 0,0.03618 0,-0.07236 0,0.03618 0,-0.07236 0,0.03618 0,-0.07236 0,0.03618 0,-0.07236 0,0.03618 0,-0.07236 0,0.03618 0,-0.07236 0,0.03618 0,-0.07236 0,0.03618 0,-0.07236 0,0.03618 0,-0.07236 0,0.03618 0,-0.07236 0,0.03618 0,-0.07236 0,0.03618 0,-0.07236 0,0.03618 0,-0.07236 0,0.03618 0,-0.07236 0,0.03618 0,-0.07236 0,0.03618 0,-0.07236 0,0.03618 0,-0.07236 0,0.03618 0,-0.07236 0,0.03618 0,-0.07236 0,0.03618 0,-0.07236 0,0.03618 0,-0.07236 0,0.03618 0,-0.07236 0,0.03618 0,-0.07236 0,0.03618 0,-0.07236 0,0.03618 0,-0.07236 0,0.03618 0,-0.07236 0,0.03618 0,-0.07236 0,0.03618 0,-0.03618 0.1447229,-0.180904 0.5065302,-0.651253 0.1447229,-0.217084 0.072361,-0.108542 0.1085422,-0.144723 0.1085422,-0.07236 0.072361,-0.144723 0.072361,-0.108542 0.1085422,-0.108542 c 0.024119,-0.0422 0.048239,-0.06632 0.072361,-0.07236 l 0.072361,-0.108542 0.036181,-0.108542 0.1085422,-0.07236 C 9.9985354,23.110367 10.21562,22.820922 10.432706,22.621918 l 0.144723,-0.253265 0.180904,-0.180904 0.03618,-0.108542 0.07236,-0.07236 0.361807,-0.50653 0.108542,-0.07236 c 0.217081,-0.379886 0.434165,-0.669331 0.651254,-0.868337 0.144718,-0.259283 0.289441,-0.464307 0.434168,-0.615073 l 0.108542,-0.144723 0.07236,-0.108542 0.03618,-0.07236 c 0.132657,-0.13868 0.229139,-0.259282 0.289445,-0.361807 l 0.325627,-0.397988 0.07236,-0.108543 0.325627,-0.470349 0.07236,-0.108542 c 0.156778,-0.168829 0.27738,-0.313552 0.361808,-0.434169 0.02411,-0.0422 0.04823,-0.06632 0.07236,-0.07236 l 0.03618,-0.108543 0.108542,-0.07236 0.144723,-0.253265 0.361807,-0.47035 z m 0.615073,3.220085 -0.144723,0.253265 -0.217085,0.217085 -0.144723,0.253265 c -0.08443,0.0784 -0.14473,0.150764 -0.180903,0.217084 l -0.144723,0.217084 c -0.08443,0.0784 -0.14473,0.150765 -0.180904,0.217085 l -0.144723,0.180903 c -0.0784,0.114584 -0.150759,0.211065 -0.217084,0.289446 -0.02413,0.04222 -0.04825,0.06634 -0.07236,0.07236 l -0.03618,0.07236 -0.07236,0.108542 -0.03618,0.07236 -0.07236,0.03618 -0.03618,0.07236 c -0.02413,0.04222 -0.04825,0.06634 -0.07236,0.07236 l -0.03618,0.07236 -0.03618,0.07236 -0.07236,0.03618 -0.253265,0.397988 -0.07236,0.07236 -0.253265,0.325627 -0.108542,0.108542 -0.108542,0.180904 -0.108542,0.108542 c -0.120607,0.211063 -0.229149,0.379906 -0.325627,0.50653 l -0.217084,0.217085 -0.03618,0.108542 -0.108542,0.108542 c -0.02412,0.04222 -0.04824,0.06634 -0.07236,0.07236 l -0.03618,0.108543 -0.108542,0.07236 -0.144723,0.253265 -0.361808,0.47035 0.253266,0 0.217084,0 0.253265,0 0.217084,0 0.180904,0 0.217084,0 0.144723,0 0.651253,0 0.397988,0 0.144723,0 0.144723,0 0.144723,0 0.144723,0 0.615072,0 0.108543,0 0.434168,0 0,-0.253266 0,-0.723614 0,-0.217084 0,-0.108543 0,-0.144723 0,-0.108542 0,-0.180903 0,-0.108543 0,-0.144722 0,-0.108543 0,-0.723614 0,-0.144723 0,-0.144723 0,-0.108542 0,-0.651253 0,-0.47035 0,-0.144723 0,-0.615072 0,-0.108542 0,-0.434169 -0.03618,0 0.03618,0 z"
         id="path3810" />
    </g>
    <g
       transform="translate(-0.03125,0)"
       id="text3785"
       style="font-size:12px;font-style:normal;font-variant:normal;font-weight:normal;font-stretch:normal;text-align:start;line-height:100%;writing-mode:lr-tb;text-anchor:start;fill:#000000;fill-opacity:1;stroke:none;font-family:Transport Heavy;-inkscape-font-specification:'Transport Heavy,'">
      <path
         d="m 22.423485,28.736862 c 0.527342,-0.0078 0.878904,0.210941 1.054687,0.65625 0.04297,1.171877 -0.488283,1.882813 -1.59375,2.132813 l -0.02344,-0.04687 -0.140625,-0.375 0.140625,-0.04687 0.140625,-0.04687 0.04687,-0.04687 c 0.261717,-0.08984 0.472654,-0.214843 0.632812,-0.375 l 0,-0.117188 -0.09375,-0.07031 c -0.734376,0.05078 -1.078125,-0.285155 -1.03125,-1.007813 0.179687,-0.394528 0.468749,-0.613278 0.867188,-0.65625 z"
         id="path3813" />
    </g>
    <g
       transform="translate(-0.03125,0)"
       id="text3789"
       style="font-size:13.30443668px;font-style:normal;font-variant:normal;font-weight:normal;font-stretch:normal;text-align:start;line-height:100%;writing-mode:lr-tb;text-anchor:start;fill:#000000;fill-opacity:1;stroke:none;font-family:Transport Heavy;-inkscape-font-specification:'Transport Heavy,'">
      <path
         d="m 27.662821,20.326061 c 2.373312,-0.229525 3.767851,0.671295 4.183622,2.702463 0.181889,1.372894 -0.138595,2.524905 -0.961453,3.456036 -0.03032,0.05631 -0.06497,0.09962 -0.103941,0.129926 l -0.02598,0.05197 c -0.151588,0.194894 -0.290175,0.342144 -0.415764,0.441749 -0.138594,0.181901 -0.294505,0.311827 -0.467734,0.389778 l -0.02599,0.05197 c -0.203557,0.151585 -0.376792,0.264187 -0.519705,0.337808 l -0.07796,0.07796 -0.103941,0.05197 -0.07796,0.05197 -0.07796,0.05197 -0.05197,0.05197 -0.07796,0.02599 c -0.01733,0.03032 -0.03465,0.04764 -0.05197,0.05197 l -0.05197,0.05197 -0.181897,0.10394 c -0.103945,0.04764 -0.190562,0.09961 -0.259852,0.155912 l 0.181897,0 0.07795,0 0.103941,0 0.07796,0 0.129926,0 0.07796,0 0.103941,0 0.07796,0 0.519705,0 0.103941,0 0.103941,0 0.07795,0 0.467735,0 0.337808,0 0.10394,0 0.441749,0 0.07796,0 0.311823,0 0,1.585099 c 0.0043,0.09961 -0.013,0.19489 -0.05197,0.285837 l -0.07795,0 -0.07796,0 -0.805542,0 -0.103941,0 -0.129926,0 -0.103941,0 -0.129926,0 -0.337808,0 -0.103941,0 -0.441749,0 -0.07796,0 -0.311822,0 -0.181897,0 -0.181897,0 -0.155911,0 -0.181897,0 -0.155911,0 -0.181897,0 -0.155911,0 -0.441749,0 -0.155911,0 -0.129926,0 -0.155912,0 -0.103941,0 -0.467734,0 -0.285837,0 -0.103941,0 -0.103941,0 -0.103941,0 -0.103941,0 -0.441749,0 -0.07796,0 -0.311823,0 0,-0.129926 0,-0.103941 0,-0.129926 0,-0.103941 0,-0.129926 0,-0.337808 0,-0.103941 0,-0.441749 0,-0.07795 0,-0.311823 0.311823,-0.207882 0.103941,-0.05197 0.129926,-0.05197 0.129926,-0.103941 0.05197,-0.02599 c 0.07795,-0.06063 0.147248,-0.103937 0.207882,-0.129926 l 0.103941,-0.07796 0.285837,-0.155911 0.07796,-0.07796 0.05197,-0.05197 0.05197,-0.02599 c 0.08661,-0.0563 0.155909,-0.108267 0.207882,-0.155911 l 0.07796,-0.02599 c 0.02165,-0.02598 0.04764,-0.0433 0.07795,-0.05197 0.168902,-0.151576 0.316151,-0.264178 0.441749,-0.337808 l 0.103941,-0.07796 0.103941,-0.05197 0.05197,-0.05197 c 0.09528,-0.06063 0.173232,-0.12126 0.233867,-0.181897 l 0.07796,-0.05197 0.07796,-0.05197 0.07796,-0.02599 0.07795,-0.07796 0.07796,-0.02598 0.05197,-0.07796 0.07796,-0.02598 0.05197,-0.05197 0.181897,-0.103941 c 0.147245,-0.151575 0.285833,-0.264177 0.415764,-0.337808 l 0.05197,-0.07796 0.103941,-0.103941 0.493719,-0.467734 0.02599,-0.07795 0.129926,-0.207882 0.181896,-0.311823 C 29.862903,24.098242 29.89755,23.63917 29.8196,23.210406 l -0.259852,-0.467734 c -0.03032,-0.01731 -0.04764,-0.03464 -0.05197,-0.05197 l -0.05197,-0.02598 -0.05197,-0.07796 c -0.03032,-0.01731 -0.04765,-0.03464 -0.05197,-0.05197 -0.151585,-0.06495 -0.27285,-0.142909 -0.363793,-0.233867 -1.658727,-0.337798 -2.481592,0.329155 -2.468597,2.000862 l -0.103941,0 -0.467734,0 -0.103941,0 -0.10394,0 -0.103941,0 -0.07796,0 -0.103941,0 -0.07796,0 -0.103941,0 -0.467734,0 -0.337808,0 c -0.0563,-2.399292 1.009092,-3.724538 3.196183,-3.975739 z"
         id="path3816" />
    </g>
    <g
       transform="translate(-0.03125,0)"
       id="text3793"
       style="font-size:8.67062283px;font-style:normal;font-variant:normal;font-weight:normal;font-stretch:normal;text-align:start;line-height:100%;writing-mode:lr-tb;text-anchor:start;fill:#000000;fill-opacity:1;stroke:none;font-family:Transport Heavy;-inkscape-font-specification:'Transport Heavy,'">
      <path
         d="m 35.059516,25.829574 c 0.615295,-0.05362 1.06689,0.149597 1.354785,0.609654 0.581424,-0.615293 1.236236,-0.767706 1.964438,-0.45724 0.445944,0.2004 0.77335,0.499582 0.982219,0.897545 l 0,0.0508 c 0.01411,0.01129 0.01975,0.02258 0.01694,0.03387 0.01411,0.01129 0.01975,0.02258 0.01693,0.03387 l 0.101609,0.321762 0,0.0508 c 0.02257,0.129838 0.03386,0.242736 0.03387,0.338696 l 0,2.861983 -0.287892,0 -0.06774,0 -0.08467,0 -0.220152,0 -0.06774,0 -0.287891,0 -0.0508,0 -0.203218,0 0,-0.08467 0,-0.220152 0,-0.06774 0,-0.06774 0,-0.06774 0,-0.287892 0,-0.0508 0,-0.203218 0,-0.237087 0,-0.118544 0,-0.237087 0,-0.05081 0,-0.304826 0,-0.220153 0,-0.06774 0,-0.287892 0,-0.0508 0,-0.203218 c -0.02259,-0.08185 -0.03388,-0.149587 -0.03387,-0.203218 -0.01694,-0.03386 -0.02823,-0.06773 -0.03387,-0.101609 -0.04234,-0.0508 -0.07057,-0.101604 -0.08467,-0.152413 l -0.03387,-0.01694 -0.01693,-0.03387 c -0.08186,-0.08185 -0.155242,-0.143942 -0.220153,-0.186283 -0.460067,-0.06209 -0.787473,0.118548 -0.982219,0.541914 l -0.01693,0.118543 -0.01693,0.118544 0,2.743439 -0.06774,0 -0.0508,0 -0.304827,0 -0.220152,0 -0.06774,0 -0.287892,0 -0.0508,0 -0.203217,0 0,-0.08467 0,-0.0508 0,-0.220153 0,-0.06774 0,-0.06774 0,-0.06774 0,-0.05081 0,-0.06774 0,-0.304827 0,-0.06774 0,-0.06774 0,-0.05081 0,-0.06774 0,-0.304826 0,-0.06774 0,-0.06774 0,-0.06774 0,-0.06774 0,-0.05081 0,-0.220152 0,-0.169348 0,-0.220153 0,-0.169348 0,-0.05081 -0.01693,-0.118543 -0.05081,-0.304827 c -0.121369,-0.217326 -0.285072,-0.364094 -0.491109,-0.440305 -0.375391,0.03105 -0.651992,0.2004 -0.829806,0.508044 -0.03387,0.124193 -0.05081,0.231447 -0.0508,0.321762 l 0,2.726504 -0.287892,0 -0.06774,0 -0.08467,0 -0.220153,0 -0.06774,0 -0.287892,0 -0.0508,0 -0.203218,0 0,-0.0508 0,-0.08467 0,-0.0508 0,-0.06774 0,-0.0508 0,-0.338697 0,-0.118543 0,-0.06774 0,-0.08467 0,-0.06774 0,-0.08467 0,-0.220152 0,-0.06774 0,-0.287891 0,-0.05081 0,-0.203217 0,-0.118544 0,-0.118544 0,-0.101609 0,-0.118543 0,-0.101609 0,-0.118544 0,-0.101609 0,-0.287892 0,-0.101608 0,-0.08467 0,-0.101609 0,-0.06774 0,-0.304826 0,-0.186283 0,-0.06774 0,-0.06774 0,-0.06774 0,-0.06774 0,-0.287892 0,-0.0508 0,-0.203218 0.287892,0 0.06774,0 0.08467,0 0.220153,0 0.06774,0 0.287892,0 0.135478,0 0.118544,0 0,0.304827 c 0.290712,-0.231437 0.601183,-0.372561 0.931414,-0.423371 z"
         id="path3819" />
    </g>
  </g>
</svg>
