<?xml version="1.0" encoding="UTF-8" standalone="no"?>
<!-- Created with Inkscape (http://www.inkscape.org/) -->

<svg
   xmlns:dc="http://purl.org/dc/elements/1.1/"
   xmlns:cc="http://creativecommons.org/ns#"
   xmlns:rdf="http://www.w3.org/1999/02/22-rdf-syntax-ns#"
   xmlns:svg="http://www.w3.org/2000/svg"
   xmlns="http://www.w3.org/2000/svg"
   version="1.2"
   width="48.103001"
   height="48.102001"
   id="svg2">
  <metadata
     id="metadata3296">
    <rdf:RDF>
      <cc:Work
         rdf:about="">
        <dc:format>image/svg+xml</dc:format>
        <dc:type
           rdf:resource="http://purl.org/dc/dcmitype/StillImage" />
        <dc:title></dc:title>
      </cc:Work>
    </rdf:RDF>
  </metadata>
  <defs
     id="defs3294" />
  <g
     id="g3304">
    <path
       d="M 0,24.05 C 0,10.768 10.768,0 24.051,0 37.335,0 48.103,10.768 48.103,24.05 48.103,37.333 37.335,48.102 24.051,48.102 10.768,48.102 0,37.333 0,24.05"
       id="path3280"
       style="fill:#e41408" />
    <path
       d="m 6.414,24.05 c 0,-9.74 7.896,-17.638 17.637,-17.638 9.741,0 17.637,7.898 17.637,17.638 0,9.742 -7.896,17.638 -17.638,17.638 -9.742,0 -17.636,-7.896 -17.636,-17.638"
       id="path3282"
       style="fill:#ffffff" />
    <path
       d="m 30.554,16.561 c 0.966,0 1.084,0.706 1.084,0.706 0,0 1.508,4.196 1.485,4.196 1.697,0.07 1.555,1.107 1.555,1.107 0,0 0.024,2.264 0,2.264 0.143,1.014 -0.188,1.178 -0.188,1.201 -0.308,0.379 0.188,0.896 0.188,0.896 0.449,0.801 -0.188,1.131 -0.188,1.131 0,0 -0.66,0.212 -0.66,0.236 -0.448,0.117 -0.4,0.4 -0.4,0.4 0,0 0,2.428 0,2.451 0,0.4 -0.354,0.354 -0.354,0.354 0,0 -2.31,0.024 -2.332,0 -0.425,0 -0.378,-0.377 -0.378,-0.377 0,0 0,-2.545 0,-2.569 0,-0.377 -0.377,-0.377 -0.377,-0.377 H 18.062 c 0,0 -0.376,0 -0.376,0.377 0,0.024 0,2.569 0,2.569 0,0 0.047,0.377 -0.378,0.377 -0.023,0.024 -2.333,0 -2.333,0 0,0 -0.354,0.047 -0.354,-0.354 0,-0.023 0,-2.451 0,-2.451 0,0 0.047,-0.283 -0.4,-0.4 0,-0.024 -0.661,-0.236 -0.661,-0.236 0,0 -0.636,-0.33 -0.187,-1.131 0,0 0.495,-0.518 0.187,-0.896 0,-0.023 -0.329,-0.188 -0.187,-1.201 -0.024,0 0,-2.264 0,-2.264 0,0 -0.143,-1.037 1.555,-1.107 -0.023,0 1.484,-4.196 1.484,-4.196 0,0 0.119,-0.706 1.085,-0.706 0,-0.024 13.057,-0.024 13.057,0"
       id="path3284"
       style="fill:#1c1d20" />
    <path
       d="m 15.494,24.833 c 0,-0.625 0.506,-1.133 1.131,-1.133 0.625,0 1.131,0.508 1.131,1.133 0,0.623 -0.506,1.131 -1.131,1.131 -0.625,0 -1.131,-0.507 -1.131,-1.131"
       id="path3286"
       style="fill:#ffffff" />
    <path
       d="m 30.294,24.833 c 0,-0.625 0.507,-1.133 1.132,-1.133 0.625,0 1.131,0.508 1.131,1.133 0,0.623 -0.506,1.131 -1.131,1.131 -0.625,0 -1.132,-0.507 -1.132,-1.131"
       id="path3288"
       style="fill:#ffffff" />
    <path
       d="m 17.662,17.409 c 0,0 -0.448,-0.095 -0.66,0.448 0,-0.047 -0.99,3.489 -0.99,3.489 0,0 3.087,-0.354 8.036,-0.354 4.951,0 7.991,0.354 7.991,0.354 0,0 -0.99,-3.536 -0.99,-3.489 -0.213,-0.543 -0.66,-0.448 -0.66,-0.448 H 17.662"
       id="path3290"
       style="fill:#ffffff" />
  </g>
</svg>
