<?xml version="1.0" encoding="UTF-8" standalone="no"?>
<svg
   xmlns:dc="http://purl.org/dc/elements/1.1/"
   xmlns:cc="http://creativecommons.org/ns#"
   xmlns:rdf="http://www.w3.org/1999/02/22-rdf-syntax-ns#"
   xmlns:svg="http://www.w3.org/2000/svg"
   xmlns="http://www.w3.org/2000/svg"
   xmlns:sodipodi="http://sodipodi.sourceforge.net/DTD/sodipodi-0.dtd"
   xmlns:inkscape="http://www.inkscape.org/namespaces/inkscape"
   xml:space="preserve"
   height="800"
   width="800"
   version="1.0"
   viewBox="0 0 800 799.99999"
   id="svg2"
   inkscape:version="0.91 r13725"
   sodipodi:docname="Spain_traffic_signal_r303.svg"><metadata
     id="metadata14"><rdf:RDF><cc:Work
         rdf:about=""><dc:format>image/svg+xml</dc:format><dc:type
           rdf:resource="http://purl.org/dc/dcmitype/StillImage" /><dc:title></dc:title></cc:Work></rdf:RDF></metadata><defs
     id="defs12" /><sodipodi:namedview
     pagecolor="#ffffff"
     bordercolor="#666666"
     borderopacity="1"
     objecttolerance="10"
     gridtolerance="10"
     guidetolerance="10"
     inkscape:pageopacity="0"
     inkscape:pageshadow="2"
     inkscape:window-width="1360"
     inkscape:window-height="705"
     id="namedview10"
     showgrid="false"
     inkscape:zoom="0.335"
     inkscape:cx="53.465486"
     inkscape:cy="286.33388"
     inkscape:window-x="-8"
     inkscape:window-y="-8"
     inkscape:window-maximized="1"
     inkscape:current-layer="svg2" /><circle
     style="fill:#ffffff;fill-opacity:1;stroke:none;stroke-width:1;stroke-miterlimit:4;stroke-dasharray:none;stroke-opacity:1"
     id="path4160"
     cx="400"
     cy="400"
     r="350" /><path
     inkscape:connector-curvature="0"
     style="fill:#1c1d20"
     d="m 448.97077,333.39709 c 4.92368,0 8.89923,3.97555 8.89923,8.88262 l 0,306.73263 39.98837,-40.02162 40.00499,40.02162 0,-306.73263 c 0,-49.08723 -39.80539,-88.90923 -88.90923,-88.90923 l -253.37048,0 -39.98836,40.00499 39.98836,40.02162 253.38712,0"
     id="path6" /><path
     inkscape:connector-curvature="0"
     style="fill:#e41408"
     d="M 400.24952,-6.4086919e-7 C 179.28224,-6.4086919e-7 0,179.31552 0,400.24952 0,621.21678 179.28224,800 400.24952,800 621.21677,800 800,621.21678 800,400.24952 800,179.31552 621.21677,-6.4086919e-7 400.24952,-6.4086919e-7 Z M 400.24952,106.56131 c 162.04931,0 293.19248,131.67216 293.19248,293.69152 0,68.14988 -23.47069,130.62753 -62.37784,180.3801 l -419.49515,-405.456 c 51.06666,-42.8993 116.87112,-68.60896 188.68051,-68.60896 l 0,-0.003 z m -231.82934,113.8404 419.49515,404.94033 c -50.83378,42.36703 -116.2224,68.09997 -187.66581,68.09997 -162.04933,0 -293.69153,-131.14318 -293.69153,-293.19249 0.003,-67.78392 23.18959,-130.11187 61.86219,-179.84781 z"
     id="path8" /></svg>