<?xml version="1.0" encoding="UTF-8" standalone="no"?>
<svg
   xmlns:dc="http://purl.org/dc/elements/1.1/"
   xmlns:cc="http://creativecommons.org/ns#"
   xmlns:rdf="http://www.w3.org/1999/02/22-rdf-syntax-ns#"
   xmlns:svg="http://www.w3.org/2000/svg"
   xmlns="http://www.w3.org/2000/svg"
   xmlns:sodipodi="http://sodipodi.sourceforge.net/DTD/sodipodi-0.dtd"
   xmlns:inkscape="http://www.inkscape.org/namespaces/inkscape"
   width="678.02466"
   height="670.93048"
   id="svg2"
   version="1.1"
   inkscape:version="1.0.1 (3bc2e813f5, 2020-09-07)"
   sodipodi:docname="ES_R407b.svg">
  <defs
     id="defs4" />
  <sodipodi:namedview
     id="base"
     pagecolor="#ffffff"
     bordercolor="#666666"
     borderopacity="1.0"
     inkscape:pageopacity="0.0"
     inkscape:pageshadow="2"
     inkscape:zoom="0.49497475"
     inkscape:cx="382.40041"
     inkscape:cy="379.18341"
     inkscape:document-units="px"
     inkscape:current-layer="layer2"
     showgrid="false"
     fit-margin-top="0"
     fit-margin-left="0"
     fit-margin-right="0"
     fit-margin-bottom="0"
     inkscape:window-width="1920"
     inkscape:window-height="1027"
     inkscape:window-x="-8"
     inkscape:window-y="-8"
     inkscape:window-maximized="1"
     inkscape:document-rotation="0" />
  <metadata
     id="metadata7">
    <rdf:RDF>
      <cc:Work
         rdf:about="">
        <dc:format>image/svg+xml</dc:format>
        <dc:type
           rdf:resource="http://purl.org/dc/dcmitype/StillImage" />
        <dc:title></dc:title>
      </cc:Work>
    </rdf:RDF>
  </metadata>
  <g
     inkscape:label="Capa 1"
     inkscape:groupmode="layer"
     id="layer1"
     transform="translate(-24.684594,-76.980789)"
     sodipodi:insensitive="true">
    <path
       inkscape:connector-curvature="0"
       id="path3787"
       d="m 23.04569,748.00795 c 0.7437,-0.74369 2.674057,-0.82319 4.289682,-0.17667 1.785402,0.71444 1.255071,1.24478 -1.352182,1.35217 -2.359326,0.0971 -3.681201,-0.4318 -2.9375,-1.1755 z m 295.94148,-1.90524 c -25.36369,-4.28618 -37.73829,-7.24402 -58.19048,-13.909 C 140.66307,693.04436 49.830775,585.05958 33.276376,461.70913 c -1.565297,-11.66337 -3.478003,-21.20614 -4.250458,-21.20614 -0.772456,0 -0.04672,-22.22222 -0.08699,-13.82142 -0.05928,12.3661 0.2316,-33.15398 -0.190721,-16.34525 -0.924338,36.78944 0.404563,-16.02926 0.343538,-10.35714 -0.05297,4.92381 0.124063,-15.63154 0.195003,-11.63095 0.220663,12.44421 1.447583,-3.09295 3.103461,-17.78571 7.92587,-70.32697 42.450908,-139.73955 96.097911,-193.20481 40.60786,-40.4703 79.37482,-64.38746 133.64731,-82.4533 142.96114,-47.587906 301.46034,9.43638 385.16904,138.57477 15.11153,23.31271 25.14234,44.45496 35.72264,75.2938 9.35296,27.26136 15.92459,62.42642 16.39009,95.51572 0.41875,29.7675 -6.16622,-2.86983 -7.80887,-19.73809 C 682.29608,288.9249 632.61601,201.94592 556.22527,147.52434 456.43245,76.430878 326.13804,66.168793 218.27288,120.90696 152.29072,154.39083 105.08467,201.3059 72.848495,265.43493 51.117396,308.66571 41.670796,342.96635 38.348963,390.70291 c -4.244751,60.9994 6.712574,115.94668 33.808489,169.53818 34.243598,67.7285 82.903888,115.9226 149.576788,148.14372 40.35607,19.50296 75.73575,28.8407 120.28027,31.7455 73.8889,4.81841 141.61172,-12.76144 203.38183,-52.79497 84.41157,-54.70758 141.41672,-157.47384 148.40903,-259.83235 2.36987,-34.69197 10.77391,-31.44489 4.90957,17.76191 l -4.36985,36.66667 -11.0228,36.037 c -16.7682,54.8205 -41.81874,91.73494 -82.03315,131.76446 -49.81159,49.58254 -104.07987,78.95584 -171.9297,93.05875 -29.27431,6.0848 -84.20647,7.73267 -110.37227,3.31093 z m 17.90476,-22.83764 C 241.63411,711.83948 161.79967,665.22043 110.10644,590.83442 96.92454,571.86583 76.820544,531.97231 69.733275,510.71965 52.315177,458.48781 49.825894,398.16855 62.796285,342.62547 88.77492,231.37719 175.20411,142.60448 285.60643,113.77384 c 31.7427,-8.28934 67.63239,-12.16854 94.92836,-10.2605 146.95466,10.27238 261.82353,111.46312 290.12857,255.58118 5.19759,26.46406 5.25758,79.40314 0.12197,107.64692 -24.45246,134.479 -131.4716,236.94773 -266.00154,254.69133 -23.08978,3.04537 -51.40665,3.80962 -67.89186,1.8323 z M 281.6868,515.92716 c 1.32791,-1.60003 2.71016,-11.41968 3.07166,-21.82143 l 0.65728,-18.91226 h 79.45238 79.45239 l 0.65728,18.91226 c 0.3615,10.40175 1.74374,20.2214 3.07165,21.82143 3.25216,3.91862 34.45933,4.01273 36.98421,0.11146 0.99587,-1.53869 2.31424,-11.29851 2.92971,-21.68851 l 1.11905,-18.89089 7.24539,-1.86811 c 8.31076,-2.14282 11.59217,-10.06277 8.07708,-19.49482 -1.18064,-3.16802 -1.4348,-8.27791 -0.56478,-11.35529 2.56134,-9.0599 2.24031,-43.48498 -0.47824,-51.28343 -1.45118,-4.16288 -5.92654,-9.3639 -10.63095,-12.35468 -7.48571,-4.75898 -8.79977,-7.32314 -16.70834,-32.6037 -5.47203,-17.49186 -10.50591,-29.36075 -13.88636,-32.74119 l -5.30271,-5.30263 h -91.96538 -91.96537 l -5.16465,5.16465 c -3.09021,3.09023 -8.9732,16.59308 -14.6467,33.6178 -8.32462,24.97999 -10.29866,28.87544 -16.17184,31.91258 -9.61805,4.97367 -13.07882,15.26415 -12.89414,38.34023 0.0865,10.81038 0.95176,21.66951 1.92276,24.13141 1.01317,2.56884 0.59709,7.81406 -0.97645,12.30953 -3.72017,10.62813 -0.92106,17.24566 8.30234,19.62805 l 7.37976,1.90618 0.65728,18.77612 c 0.3615,10.32684 1.74375,20.08521 3.07166,21.68524 1.5749,1.89764 8.06025,2.90917 18.65202,2.90917 10.59176,0 17.07711,-1.01153 18.65201,-2.90917 z m -39.52379,-89.55651 c -7.09757,-7.55502 -6.60463,-19.98493 1.03075,-25.99093 3.24338,-2.55125 7.22457,-4.63863 8.84708,-4.63863 6.24849,0 14.15564,5.31538 16.56692,11.13672 7.31091,17.65008 -13.65639,33.10541 -26.44475,19.49284 z m 222.19863,-0.31355 c -8.53578,-8.53576 -5.99995,-22.85109 4.93001,-27.83112 7.66904,-3.49423 10.52368,-3.13783 17.25084,2.15374 4.5823,3.60443 5.89706,6.59837 5.89706,13.42857 0,16.61587 -16.50895,23.81779 -28.07791,12.24881 z m -200.5512,-53.7864 c -1.20257,-1.20258 10.04766,-43.93328 12.69435,-48.21569 0.8297,-1.3425 34.57308,-2.17107 88.41667,-2.17107 80.67787,0 87.22117,0.28775 89.06605,3.91667 2.92177,5.74714 12.7404,44.94841 11.51881,45.98923 -0.57363,0.48874 -16.65367,-0.045 -35.73343,-1.18588 -33.13091,-1.98122 -155.4673,-0.66052 -161.73885,1.7461 -1.64724,0.63211 -3.54785,0.59639 -4.2236,-0.0795 z"
       style="display:inline;fill:#000080;fill-opacity:1"
       sodipodi:nodetypes="sscsssssssssssssssssssssssssscsssssssssssssssscccsscscssssssscccssssssscsssssssssssssscsssssscc" />
  </g>
  <g
     inkscape:groupmode="layer"
     id="layer2"
     inkscape:label="Capa 2"
     style="display:inline">
    <path
       style="display:inline;fill:#000080;stroke-width:1;stroke-linecap:round;stroke-linejoin:round"
       d="m 179.51044,297.10759 4.99461,98.89317 C -4.7726382,682.84302 401.41011,473.46825 509.86264,512.202 L 489.56973,204.48804 220.85861,170.3001 l -45.34385,122.81181 7.99136,5.99352 0.99893,3.99569 z"
       id="path1443"
       sodipodi:nodetypes="ccccccccc" />
  </g>
  <g
     inkscape:groupmode="layer"
     id="layer3"
     inkscape:label="Capa 3"
     style="display:inline">
    <g
       id="g1528">
      <path
         d="m 110.06317,366.67723 c 0,-46.02293 37.31723,-83.32364 83.32364,-83.32364 46.02293,0 83.32364,37.30071 83.32364,83.32364 0,46.0064 -37.30071,83.32363 -83.32364,83.32363 -46.00641,0 -83.32364,-37.31723 -83.32364,-83.32363"
         id="path3059"
         style="display:inline;fill:#ffffff;stroke-width:1" />
      <path
         d="m 388.06743,365.12441 c 0,-46.2542 37.48242,-83.70358 83.70358,-83.70358 46.22116,0 83.7201,37.4659 83.7201,83.70358 0,46.23768 -37.49894,83.70358 -83.7201,83.70358 -46.22116,0 -83.70358,-37.48242 -83.70358,-83.70358"
         id="path3061"
         style="fill:#ffffff;stroke-width:1" />
      <path
         d="m 133.02508,366.28077 c 0,-33.31955 27.02566,-60.3287 60.36173,-60.3287 33.31954,0 60.34521,27.02567 60.34521,60.3287 0,33.33605 -27.02567,60.3452 -60.34521,60.3452 -33.33607,0 -60.36173,-27.02567 -60.36173,-60.3452"
         id="path3063"
         style="fill:#000080;stroke-width:1" />
      <path
         d="m 270.08618,358.10368 -7.79713,-20.64919 -18.6834,-24.89468 -18.30344,-14.80134 -30.74253,-4.65846 -30.75904,3.12216 -28.80976,19.06334 -18.30345,27.6534 c 0,0 -6.62426,-7.83017 -6.22779,-7.83017 -2.34575,-5.03841 0.74337,-8.1936 0.74337,-8.1936 14.68571,-30.59385 45.97337,-51.73863 82.1838,-51.73863 50.31796,0 91.10425,40.78629 91.10425,91.10426 0,3.15519 -0.16519,6.26083 -0.46254,9.33343 0,0 -1.09028,2.74222 -3.81597,4.29503 -0.39646,0 -8.17708,1.94929 -8.17708,1.94929 l -1.94929,-23.75484"
         id="path3065"
         style="fill:#ffffff;stroke-width:1" />
      <path
         d="m 412.21873,365.50436 c 0,-33.31955 27.00915,-60.31218 60.32869,-60.31218 33.31954,0 60.32869,27.00915 60.32869,60.31218 0,33.35257 -27.00915,60.36172 -60.32869,60.36172 -33.31954,0 -60.32869,-27.00915 -60.32869,-60.36172"
         id="path3067"
         style="fill:#000080;stroke-width:1" />
      <path
         d="m 140.82221,328.91398 37.76325,25.29113 c 0,0 8.55703,4.29503 10.52283,-2.32922 l 12.85207,-50.61531 24.91119,9.72989 -13.23201,45.16393 c 0,0 -1.55282,2.72569 3.50211,2.72569 0.37994,-0.37995 39.71253,0 39.71253,0 v 19.06334 h -42.43823 c 0,0 -7.40067,-1.55282 -9.7299,1.58586 0,0 -5.84786,5.05492 -13.24853,5.05492 0,0 -16.33764,-0.77641 -17.13057,-14.00841 0.39646,0.36342 -40.88541,-24.15131 -40.88541,-24.15131 l 7.40067,-17.51051"
         id="path3069"
         style="fill:#ffffff;stroke-width:1" />
      <path
         d="m 236.60145,200.80637 c -4.27852,3.89856 0,8.57354 0,8.57354 0,0 8.57354,7.78062 8.17708,7.78062 3.12216,2.36227 1.94928,5.84785 1.55282,5.46791 -2.7257,8.95349 14.40488,8.95349 14.80134,8.95349 14.80135,6.60774 23.35837,24.1513 23.35837,24.1513 8.17709,10.50631 18.30345,34.64109 18.30345,35.03755 7.40067,16.73411 26.48053,28.77672 26.48053,28.77672 l 19.4598,5.08796 c 17.54356,3.50211 25.70412,-15.97421 25.70412,-15.97421 0,0 42.43823,-77.07932 43.21464,-77.45926 2.34575,-4.67499 -1.55282,-5.84786 -1.55282,-5.84786 0,0 -25.32417,-6.24432 -25.70412,-6.60774 -5.84785,-0.77641 -3.51862,-4.29503 -3.51862,-4.29503 0,0 1.9658,-8.93698 1.9658,-8.57355 2.32923,-4.65846 5.0384,-3.48559 5.0384,-3.48559 0,0 56.47969,-1.94928 56.47969,-1.56933 10.50631,0 10.50631,11.67918 10.50631,11.67918 1.15635,8.57355 -5.45139,9.33344 -5.45139,9.74642 -6.60775,3.48559 -3.89857,7.38416 -3.89857,7.38416 0,0 7.81365,37.76325 7.81365,38.17623 1.15636,4.26199 6.26084,2.9074 6.26084,2.9074 2.0484,-0.14867 4.11332,-0.19823 6.19476,-0.19823 44.65182,0 82.05164,31.03987 91.76502,72.73473 0,0 0.51211,6.31039 3.22128,7.87973 0,0 5.46791,6.2278 5.07144,25.29114 0.39647,0.37994 -0.37994,4.65846 -5.41834,4.65846 -0.39647,-0.39647 -14.80135,0.37994 -14.80135,0.37994 l -3.12216,-19.06334 -10.90277,-27.66992 -21.78903,-22.94539 -20.63268,-12.85206 -27.6534,-3.10563 -31.93192,8.97001 -18.68339,21.39256 -4.29504,12.07565 33.8812,4.67498 c 6.62427,0.75989 7.00421,-5.08796 7.00421,-4.67498 0,-5.84785 -6.2278,-7.81365 -6.2278,-7.81365 -7.0042,-1.13984 -7.0042,-6.21128 -7.0042,-6.21128 l -1.56934,-12.05913 17.90698,-8.95349 c 0,0 17.13057,-0.37995 17.52704,-0.77641 1.55282,5.83133 0,14.78483 0,14.37184 0,6.24431 -5.05492,5.86437 -5.05492,5.86437 0,0 2.34574,15.94118 1.94928,15.94118 0.77641,4.67498 4.27851,4.67498 4.64194,4.67498 15.59427,-0.36343 15.19781,10.52283 14.4214,10.12637 0,4.65845 5.84785,3.5021 5.84785,3.5021 h 38.55618 l -0.37995,19.06334 c 0,0 -44.00756,0.39646 -44.00756,0 -9.33344,14.00841 -25.32418,11.29924 -25.32418,11.29924 -1.13983,14.80134 -16.33764,13.24852 -16.33764,13.24852 l -28.80976,-2.32923 -22.56544,-5.84785 c 0,0 -63.46737,4.69149 -63.84731,4.69149 -7.79714,0.77641 -5.07145,4.65846 -5.07145,3.86554 -0.39646,4.67497 7.00421,3.89856 6.62426,4.29503 4.27852,0 3.88205,3.88204 3.88205,3.88204 0,0 -0.37994,4.65847 0,4.29504 0,4.27851 -3.88205,4.27851 -3.88205,4.27851 0,0 -35.05407,1.17288 -35.05407,1.55282 -4.27851,0 -2.70917,-3.48558 -2.70917,-3.48558 0,0 -0.39647,-7.02073 0,-7.02073 -0.39647,-4.65846 3.10563,-3.88205 3.10563,-3.88205 h 6.24432 c 0,0 4.26199,-12.07565 4.65846,-12.07565 3.12216,-8.57355 -1.94928,-10.88625 -1.94928,-10.88625 -8.17709,-7.4172 -6.2278,-17.13058 -6.2278,-16.75063 -0.39647,-11.67919 4.27851,-18.28693 3.89857,-17.52704 4.27851,-7.02072 -1.55282,-10.14288 -1.55282,-10.14288 0,0 -31.55198,-23.7218 -32.32838,-24.49821 -4.65846,-3.10564 -5.45139,2.72569 -5.45139,2.72569 l -7.38415,-7.79713 -18.30345,-13.23201 -24.1513,-11.6957 c 0,0 -13.61195,-7.40067 -14.00841,-7.00421 5.05492,-0.39646 5.45138,-3.89857 5.45138,-3.89857 0,0 -0.39646,-9.33343 0,-9.33343 0,-5.43487 -3.51862,-2.70918 -3.88205,-2.70918 -12.86858,7.00421 -10.52283,-5.45138 -10.52283,-5.45138 0,0 -0.39647,-22.97843 0,-23.35837 0,-6.24432 5.45139,-5.84786 5.45139,-5.84786 0,0 12.45559,-0.37995 12.45559,0 7.40068,0 0.39647,-4.65846 0,-5.43487 -12.85206,-7.40067 -9.7299,-13.24852 -9.34995,-13.64499 0,-10.10984 8.97001,-14.78482 8.97001,-14.78482 0,0 37.36678,-21.02914 37.76325,-21.02914 3.48559,-2.34575 5.05493,-2.34575 5.05493,-2.34575 0,0 15.95769,-0.77641 15.95769,0 5.07144,0.37994 6.62426,1.56934 6.62426,1.56934 0,0 4.22896,3.08912 5.00537,3.08912 5.07144,2.72569 0.77641,7.40067 0.77641,7.40067 0,0 -3.10564,6.2278 -3.5021,6.2278 -1.93277,3.10564 -6.2278,2.32923 -6.2278,2.32923 h -14.78483 c 0,0 -1.94928,-0.36343 -6.24431,2.37878 0.39646,-0.4295 -16.35417,9.69687 -15.9577,9.69687"
         id="path3071"
         style="fill:#ffffff;stroke-width:1" />
      <path
         d="m 423.89791,263.11738 c 0,0.37995 -17.9235,35.81396 -17.9235,35.81396 0,0 -1.55282,5.4514 3.88205,1.56934 0,-0.39646 17.52704,-14.04145 17.52704,-14.04145 0,0 3.10564,-0.77641 3.51862,-4.29503 -0.39646,0.39646 -2.74221,-18.66687 -2.74221,-18.66687 0,0 -2.32923,-4.65846 -4.262,-0.37995"
         id="path3073"
         style="fill:#000080;stroke-width:1" />
      <path
         d="m 233.47929,267.79236 c 0,0 -1.15636,3.48558 4.29503,6.21128 0,0.39646 24.91119,19.47632 24.91119,19.47632 0,0 4.29504,2.34575 2.7257,-1.93277 0,-0.77641 -7.38416,-10.53935 -7.00421,-17.54355 -0.37995,-0.37995 1.94928,-4.27852 -4.27851,-4.67498 0,-0.36343 -6.2278,0 -6.2278,0 l -10.12637,-9.33344 c 0,0 -4.29503,-2.72569 -4.29503,0.36343 -0.37995,0.39646 0,7.43371 0,7.43371"
         id="path3075"
         style="fill:#000080;stroke-width:1" />
    </g>
  </g>
</svg>
