<?xml version="1.0" encoding="UTF-8" standalone="no"?>
<!-- Created with Inkscape (http://www.inkscape.org/) -->

<svg
   xmlns:dc="http://purl.org/dc/elements/1.1/"
   xmlns:cc="http://creativecommons.org/ns#"
   xmlns:rdf="http://www.w3.org/1999/02/22-rdf-syntax-ns#"
   xmlns:svg="http://www.w3.org/2000/svg"
   xmlns="http://www.w3.org/2000/svg"
   version="1.2"
   width="48.03125"
   height="48.03125"
   id="svg2">
  <metadata
     id="metadata3103">
    <rdf:RDF>
      <cc:Work
         rdf:about="">
        <dc:format>image/svg+xml</dc:format>
        <dc:type
           rdf:resource="http://purl.org/dc/dcmitype/StillImage" />
        <dc:title></dc:title>
      </cc:Work>
    </rdf:RDF>
  </metadata>
  <defs
     id="defs3101" />
  <g
     id="Capa_1">
    <path
       d="m 0.099,3.288 c 0,-1.761 1.427,-3.189 3.188,-3.189 H 44.74 c 1.762,0 3.188,1.428 3.188,3.189 V 44.74 c 0,1.761 -1.426,3.189 -3.188,3.189 H 3.287 C 1.526,47.929 0.099,46.5 0.099,44.74 V 3.288 z"
       id="path3089"
       style="fill:#ffffff" />
    <path
       d="m 0.099,3.288 c 0,-1.761 1.427,-3.189 3.188,-3.189 H 44.74 c 1.762,0 3.188,1.428 3.188,3.189 V 44.74 c 0,1.761 -1.426,3.189 -3.188,3.189 H 3.287 C 1.526,47.929 0.099,46.5 0.099,44.74 V 3.288 z"
       id="path3091"
       style="fill:none;stroke:#1c1d20;stroke-width:0.198;stroke-miterlimit:3.86400008" />
    <path
       d="m 46.748,44.749 c 0,1.114 -0.902,2.017 -2.015,2.017 H 3.294 c -1.113,0 -2.016,-0.902 -2.016,-2.017 V 3.277 c 0,-1.112 0.903,-2.014 2.016,-2.014 h 41.439 c 1.112,0 2.015,0.902 2.015,2.014 v 41.472"
       id="path3093"
       style="fill:#19408b" />
    <path
       d="m 14.049,39.956 5.979,-10.362 -3.986,0 0,-21.523 -3.986,0 0,21.523 -3.986,0 5.979,10.362"
       id="polyline3095"
       style="fill:#e41408" />
    <path
       d="M 33.979,8.071 28,18.433 l 3.985,0 0,21.523 3.986,0 0,-21.523 3.986,0 -5.978,-10.362"
       id="polyline3097"
       style="fill:#ffffff" />
  </g>
</svg>
