<?xml version="1.0" encoding="UTF-8" standalone="no"?>
<!-- Created with Inkscape (http://www.inkscape.org/) -->

<svg
   xmlns:dc="http://purl.org/dc/elements/1.1/"
   xmlns:cc="http://creativecommons.org/ns#"
   xmlns:rdf="http://www.w3.org/1999/02/22-rdf-syntax-ns#"
   xmlns:svg="http://www.w3.org/2000/svg"
   xmlns="http://www.w3.org/2000/svg"
   version="1.2"
   width="48.105"
   height="48.105999"
   id="svg2">
  <metadata
     id="metadata3057">
    <rdf:RDF>
      <cc:Work
         rdf:about="">
        <dc:format>image/svg+xml</dc:format>
        <dc:type
           rdf:resource="http://purl.org/dc/dcmitype/StillImage" />
        <dc:title></dc:title>
      </cc:Work>
    </rdf:RDF>
  </metadata>
  <defs
     id="defs3055" />
  <g
     id="g3065">
    <path
       d="m 48.104,39.553 c 0,4.723 -3.829,8.553 -8.553,8.553 h -31 C 3.829,48.105 0,44.275 0,39.553 v -31 C 0,3.83 3.829,0 8.552,0 h 31 c 4.724,0 8.553,3.83 8.553,8.553 v 31"
       id="path3043"
       style="fill:#1c1d20" />
    <path
       d="m 45.966,39.553 c 0,3.542 -2.872,6.413 -6.414,6.413 h -31 c -3.542,0 -6.414,-2.871 -6.414,-6.413 v -31 C 2.138,5.012 5.01,2.14 8.552,2.14 h 31 c 3.542,0 6.414,2.872 6.414,6.413 v 31"
       id="path3045"
       style="fill:#ffffff" />
    <path
       d="m 8.676,24.066 c 0,-8.485 6.878,-15.364 15.362,-15.364 8.485,0 15.364,6.879 15.364,15.364 0,8.485 -6.879,15.362 -15.364,15.362 C 15.554,39.429 8.676,32.552 8.676,24.066"
       id="path3047"
       style="fill:#e41408" />
    <path
       d="m 12.772,24.066 c 0,-6.222 5.044,-11.266 11.266,-11.266 6.223,0 11.266,5.044 11.266,11.266 0,6.223 -5.043,11.267 -11.266,11.267 -6.222,0 -11.266,-5.044 -11.266,-11.267"
       id="path3049"
       style="fill:#19408b" />
    <path
       d="m 14.121,15.87 1.691,-1.688 18.109,18.1 -1.689,1.691 L 14.121,15.87"
       id="polyline3051"
       style="fill:#e41408" />
  </g>
</svg>
