<?xml version="1.0" encoding="UTF-8" standalone="no"?><svg xmlns:rdf="http://www.w3.org/1999/02/22-rdf-syntax-ns#" xmlns="http://www.w3.org/2000/svg" height="48.01" width="48.018" version="1.0" xmlns:cc="http://creativecommons.org/ns#" xmlns:dc="http://purl.org/dc/elements/1.1/"><path d="m47.721 24.005c0.083 8.525-4.419 16.437-11.789 20.723-7.371 4.287-16.475 4.287-23.846 0-7.3702-4.286-11.872-12.198-11.789-20.723-0.08253-8.525 4.4188-16.437 11.789-20.723 7.371-4.2867 16.475-4.2867 23.846-0.0004 7.37 4.2863 11.872 12.198 11.789 20.723z" stroke="#000" stroke-width=".099021" fill="#fff"/><path fill-rule="evenodd" fill="#082c78" d="m23.982 1.4521c7.715-0.0767 15.257 4.1863 19.219 10.797 4.323 6.939 4.366 16.255 0.105 23.234-3.9 6.642-11.397 10.971-19.107 10.97-7.717 0.15-15.307-4.042-19.328-10.623-4.4281-6.956-4.5112-16.37-0.2132-23.407 3.9571-6.7224 11.516-11.038 19.324-10.971v0.0001z"/><path fill-rule="evenodd" fill="#fff" d="m17.912 15.194c-0.642 0.632-0.582 1.637-0.112 2.348 0.238 0.528-0.388 0.941-0.564 1.413-0.573 0.946-1.146 1.894-1.718 2.841-2.773-1.49-6.6054-0.35-8.0716 2.451-1.2579 2.132-0.9393 4.995 0.6986 6.837 2.066 2.538 6.212 2.814 8.658 0.676 1.854-1.474 2.548-4.113 1.806-6.341-0.34-1.098-0.974-2.113-1.852-2.862 0.266-0.448 0.531-0.898 0.798-1.348 2.009 1.739 4.018 3.479 6.026 5.218-0.377 0.805-0.176 1.865 0.663 2.29 0.994 0.674 2.211 0.289 3.319 0.286l1.821-0.11c0.619 2.007 2.201 3.785 4.311 4.232 2.538 0.682 5.419-0.463 6.761-2.73 1.75-2.758 0.68-6.856-2.25-8.34-1.636-0.887-3.68-1.059-5.403-0.321-0.448-0.815-0.897-1.629-1.345-2.444l0.831-1.452c0.542 0.138 1.536 0.155 1.517-0.623-0.029-0.509 0.186-1.278-0.367-1.556-0.596-0.219-1.147 0.319-1.716 0.449-0.714 0.332-1.527 0.497-2.172 0.945-0.32 0.496 0.3 0.91 0.756 0.727 0.15 0.138-0.333 0.859-0.526 1.023-3.531-0.024-7.062-0.047-10.594-0.071-0.158-0.255 0.505-0.629 0.18-1.016-0.152-0.534-0.359-1.052-0.608-1.547 1.222-0.021 2.464 0.09 3.674-0.013 0.637-0.334 0.522-1.588-0.312-1.543-0.963-0.023-1.931-0.001-2.895 0.023-0.48 0.05-0.973 0.201-1.314 0.558zm14.65 16.203c-0.975-0.537-1.603-1.525-1.882-2.582 1.571-0.124 3.155-0.149 4.717-0.336 0.825-0.117 1.289-1.197 0.679-1.818-0.38-0.402-0.936-0.623-1.102-1.199-0.474-0.861-0.948-1.72-1.422-2.581 2.473-1.05 5.678 0.54 6.301 3.173 0.588 2.003-0.308 4.334-2.166 5.331-1.542 0.926-3.577 0.907-5.125 0.012zm-21.795 0.119c-2.3722-1.004-3.538-4.113-2.3234-6.403 1.0667-2.296 4.1164-3.418 6.3854-2.258-0.722 1.096-1.338 2.284-2.128 3.324-0.981 0.129-1.173 1.665-0.248 2.019 0.74 0.404 1.763-0.23 1.64-1.094 0.064-0.673 0.644-1.179 0.932-1.78 0.343-0.558 0.687-1.114 1.03-1.672 1.872 1.724 2.124 5.019 0.23 6.823-1.406 1.453-3.681 1.878-5.518 1.041zm20.218-6.493c0.295-0.475 0.621-0.932 1.025-1.321 0.425 0.727 0.85 1.453 1.274 2.179-0.865-0.071-1.73-0.142-2.595-0.214 0.081-0.222 0.179-0.438 0.296-0.644zm-0.531-4.07c0.302 0.54 0.604 1.079 0.906 1.62-0.917 0.821-1.618 1.889-1.966 3.074-0.52-0.048-1.04-0.096-1.561-0.144 0.874-1.517 1.747-3.033 2.621-4.55zm-11.373-0.61c3.299 0.025 6.599 0.049 9.898 0.072-0.957 1.668-1.913 3.335-2.87 5.002-0.44-0.09-0.938 0.057-1.344-0.027-1.896-1.682-3.79-3.365-5.684-5.047z"/><path fill-rule="evenodd" fill="#ed1c24" d="m39.754 7.906c1.204 1.1695 1.951 2.168 1.951 2.168l-31.67 31.532s-1.1896-0.938-2.1748-1.929c-0.9775-0.983-1.8964-2.246-1.8964-2.246l31.543-31.462c0 0.0007 1.039 0.7635 2.247 1.9367v0.0003z"/></svg>
