<?xml version="1.0" encoding="UTF-8" standalone="no"?>
<!-- Created with Inkscape (http://www.inkscape.org/) -->

<svg
   xmlns:dc="http://purl.org/dc/elements/1.1/"
   xmlns:cc="http://creativecommons.org/ns#"
   xmlns:rdf="http://www.w3.org/1999/02/22-rdf-syntax-ns#"
   xmlns:svg="http://www.w3.org/2000/svg"
   xmlns="http://www.w3.org/2000/svg"
   version="1.2"
   width="48.103001"
   height="48.102001"
   id="svg2">
  <metadata
     id="metadata3243">
    <rdf:RDF>
      <cc:Work
         rdf:about="">
        <dc:format>image/svg+xml</dc:format>
        <dc:type
           rdf:resource="http://purl.org/dc/dcmitype/StillImage" />
        <dc:title></dc:title>
      </cc:Work>
    </rdf:RDF>
  </metadata>
  <defs
     id="defs3241" />
  <g
     id="g3280">
    <path
       d="M 0,24.05 C 0,10.768 10.768,0 24.051,0 37.335,0 48.103,10.768 48.103,24.05 48.103,37.333 37.335,48.102 24.051,48.102 10.768,48.102 0,37.333 0,24.05"
       id="path3193"
       style="fill:#e41408" />
    <path
       d="m 6.413,24.05 c 0,-9.74 7.896,-17.638 17.638,-17.638 9.742,0 17.638,7.898 17.638,17.638 0,9.742 -7.896,17.638 -17.638,17.638 -9.741,0 -17.638,-7.896 -17.638,-17.638"
       id="path3195"
       style="fill:#ffffff" />
    <path
       d="m 21.974001,35.750999 c 0,1.411088 -1.143913,2.555001 -2.555,2.555001 -1.411088,0 -2.555,-1.143913 -2.555,-2.555001 0,-1.411087 1.143912,-2.555 2.555,-2.555 1.411087,0 2.555,1.143913 2.555,2.555 z"
       id="circle3197"
       style="fill:#1c1d20" />
    <path
       d="m 21.974001,35.750999 c 0,1.411088 -1.143913,2.555001 -2.555,2.555001 -1.411088,0 -2.555,-1.143913 -2.555,-2.555001 0,-1.411087 1.143912,-2.555 2.555,-2.555 1.411087,0 2.555,1.143913 2.555,2.555 z"
       id="circle3199"
       style="fill:none;stroke:#1c1d20;stroke-width:0.016;stroke-miterlimit:3.86400008" />
    <path
       d="m 21.849,28.662 h 0.199 l 0.901,-0.119 0.014,0.914 -0.968,0.73 0.132,0.543 2.319,-1.696 0.014,-0.823 c 0,0 -0.186,-0.979 -1.352,-0.979 0,-0.013 -1.153,-0.039 -1.272,1.007 -0.013,0.012 0.013,0.423 0.013,0.423 z"
       id="path3201"
       style="fill:#1c1d20" />
    <path
       d="m 21.849,28.662 h 0.199 l 0.901,-0.119 0.014,0.914 -0.968,0.73 0.132,0.543 2.319,-1.696 0.014,-0.823 c 0,0 -0.186,-0.979 -1.352,-0.979 0,-0.013 -1.153,-0.039 -1.272,1.007 -0.013,0.012 0.013,0.423 0.013,0.423 z"
       id="path3203"
       style="fill:none;stroke:#1c1d20;stroke-width:0.016;stroke-miterlimit:3.86400008" />
    <path
       d="m 31.291,35.750999 c 0,1.411088 -1.143912,2.555001 -2.555,2.555001 -1.411088,0 -2.555,-1.143913 -2.555,-2.555001 0,-1.411087 1.143912,-2.555 2.555,-2.555 1.411088,0 2.555,1.143913 2.555,2.555 z"
       id="circle3205"
       style="fill:#1c1d20" />
    <path
       d="m 31.291,35.750999 c 0,1.411088 -1.143912,2.555001 -2.555,2.555001 -1.411088,0 -2.555,-1.143913 -2.555,-2.555001 0,-1.411087 1.143912,-2.555 2.555,-2.555 1.411088,0 2.555,1.143913 2.555,2.555 z"
       id="circle3207"
       style="fill:none;stroke:#1c1d20;stroke-width:0.016;stroke-miterlimit:3.86400008" />
    <path
       d="m 21.743,31.326 h -1.326 c 0,0 -0.543,-0.066 -0.543,0.557 0,0 -0.054,0.584 0.478,0.584 h 1.921 l 1.061,-0.782 c 0,0 0.093,-0.08 0.226,0.014 l 1.047,0.755 c 0,0 0.173,0.133 -0.026,0.211 0,-0.013 -1.776,0.797 -1.776,0.797 0,0 -0.596,0.252 -0.264,0.875 l 1.643,2.929 c 0,0 0.358,0.411 0.769,0.106 0.013,-0.014 0.504,-0.291 0.238,-0.795 -0.013,0 -1.047,-1.976 -1.047,-1.976 0,0 -0.186,-0.291 0.12,-0.438 0.013,-0.012 2.504,-1.113 2.504,-1.113 0,0 0.411,-0.344 0.04,-0.834 -0.013,-0.014 -1.896,-2.584 -1.896,-2.584 0,0 -0.305,-0.371 -0.821,-0.055 -0.015,-0.001 -2.348,1.749 -2.348,1.749 z"
       id="path3209"
       style="fill:#1c1d20" />
    <path
       d="m 21.743,31.326 h -1.326 c 0,0 -0.543,-0.066 -0.543,0.557 0,0 -0.054,0.584 0.478,0.584 h 1.921 l 1.061,-0.782 c 0,0 0.093,-0.08 0.226,0.014 l 1.047,0.755 c 0,0 0.173,0.133 -0.026,0.211 0,-0.013 -1.776,0.797 -1.776,0.797 0,0 -0.596,0.252 -0.264,0.875 l 1.643,2.929 c 0,0 0.358,0.411 0.769,0.106 0.013,-0.014 0.504,-0.291 0.238,-0.795 -0.013,0 -1.047,-1.976 -1.047,-1.976 0,0 -0.186,-0.291 0.12,-0.438 0.013,-0.012 2.504,-1.113 2.504,-1.113 0,0 0.411,-0.344 0.04,-0.834 -0.013,-0.014 -1.896,-2.584 -1.896,-2.584 0,0 -0.305,-0.371 -0.821,-0.055 -0.015,-0.001 -2.348,1.749 -2.348,1.749 z"
       id="path3211"
       style="fill:none;stroke:#1c1d20;stroke-width:0.016;stroke-miterlimit:3.86400008" />
    <path
       d="m 21.221999,35.750999 c 0,0.996322 -0.807678,1.804 -1.804,1.804 -0.996321,0 -1.804,-0.807678 -1.804,-1.804 0,-0.996321 0.807679,-1.804 1.804,-1.804 0.996322,0 1.804,0.807679 1.804,1.804 z"
       id="circle3213"
       style="fill:#ffffff" />
    <path
       d="m 21.221999,35.750999 c 0,0.996322 -0.807678,1.804 -1.804,1.804 -0.996321,0 -1.804,-0.807678 -1.804,-1.804 0,-0.996321 0.807679,-1.804 1.804,-1.804 0.996322,0 1.804,0.807679 1.804,1.804 z"
       id="circle3215"
       style="fill:none;stroke:#1c1d20;stroke-width:0.016;stroke-miterlimit:3.86400008" />
    <path
       d="m 30.539,35.750999 c 0,0.99577 -0.807231,1.803 -1.803,1.803 -0.995769,0 -1.803,-0.80723 -1.803,-1.803 0,-0.995769 0.807231,-1.803 1.803,-1.803 0.995769,0 1.803,0.807231 1.803,1.803 z"
       id="circle3217"
       style="fill:#ffffff" />
    <path
       d="m 30.539,35.750999 c 0,0.99577 -0.807231,1.803 -1.803,1.803 -0.995769,0 -1.803,-0.80723 -1.803,-1.803 0,-0.995769 0.807231,-1.803 1.803,-1.803 0.995769,0 1.803,0.807231 1.803,1.803 z"
       id="circle3219"
       style="fill:none;stroke:#1c1d20;stroke-width:0.016;stroke-miterlimit:3.86400008" />
    <path
       d="m 28.474,10.205 c 0.654,0 0.734,0.479 0.734,0.479 0,0 1.02,2.838 1.005,2.838 1.147,0.047 1.052,0.748 1.052,0.748 0,0 0.016,1.533 0,1.533 0.096,0.684 -0.128,0.797 -0.128,0.812 -0.207,0.256 0.128,0.606 0.128,0.606 0.304,0.543 -0.128,0.766 -0.128,0.766 0,0 -0.446,0.143 -0.446,0.159 -0.303,0.079 -0.271,0.273 -0.271,0.273 0,0 0,1.642 0,1.657 0,0.271 -0.239,0.24 -0.239,0.24 0,0 -1.563,0.015 -1.579,0 -0.287,0 -0.255,-0.255 -0.255,-0.255 0,0 0,-1.723 0,-1.74 0,-0.253 -0.255,-0.253 -0.255,-0.253 h -8.07 c 0,0 -0.254,0 -0.254,0.253 0,0.017 0,1.74 0,1.74 0,0 0.032,0.255 -0.256,0.255 -0.016,0.015 -1.578,0 -1.578,0 0,0 -0.24,0.031 -0.24,-0.24 0,-0.015 0,-1.657 0,-1.657 0,0 0.032,-0.194 -0.271,-0.273 0,-0.016 -0.446,-0.159 -0.446,-0.159 0,0 -0.431,-0.223 -0.128,-0.766 0,0 0.335,-0.35 0.128,-0.606 0,-0.015 -0.224,-0.128 -0.128,-0.812 -0.016,0 0,-1.533 0,-1.533 0,0 -0.096,-0.701 1.053,-0.748 -0.016,0 1.004,-2.838 1.004,-2.838 0,0 0.08,-0.479 0.734,-0.479 0,-0.015 8.834,-0.015 8.834,0 z"
       id="path3221"
       style="fill:#1c1d20" />
    <path
       d="m 28.474,10.205 c 0.654,0 0.734,0.479 0.734,0.479 0,0 1.02,2.838 1.005,2.838 1.147,0.047 1.052,0.748 1.052,0.748 0,0 0.016,1.533 0,1.533 0.096,0.684 -0.128,0.797 -0.128,0.812 -0.207,0.256 0.128,0.606 0.128,0.606 0.304,0.543 -0.128,0.766 -0.128,0.766 0,0 -0.446,0.143 -0.446,0.159 -0.303,0.079 -0.271,0.273 -0.271,0.273 0,0 0,1.642 0,1.657 0,0.271 -0.239,0.24 -0.239,0.24 0,0 -1.563,0.015 -1.579,0 -0.287,0 -0.255,-0.255 -0.255,-0.255 0,0 0,-1.723 0,-1.74 0,-0.253 -0.255,-0.253 -0.255,-0.253 h -8.07 c 0,0 -0.254,0 -0.254,0.253 0,0.017 0,1.74 0,1.74 0,0 0.032,0.255 -0.256,0.255 -0.016,0.015 -1.578,0 -1.578,0 0,0 -0.24,0.031 -0.24,-0.24 0,-0.015 0,-1.657 0,-1.657 0,0 0.032,-0.194 -0.271,-0.273 0,-0.016 -0.446,-0.159 -0.446,-0.159 0,0 -0.431,-0.223 -0.128,-0.766 0,0 0.335,-0.35 0.128,-0.606 0,-0.015 -0.224,-0.128 -0.128,-0.812 -0.016,0 0,-1.533 0,-1.533 0,0 -0.096,-0.701 1.053,-0.748 -0.016,0 1.004,-2.838 1.004,-2.838 0,0 0.08,-0.479 0.734,-0.479 0,-0.015 8.834,-0.015 8.834,0 z"
       id="path3223"
       style="fill:none;stroke:#1c1d20;stroke-width:0.019;stroke-miterlimit:3.86400008" />
    <path
       d="m 19.815999,15.803 c 0,0.423051 -0.34295,0.766 -0.766,0.766 -0.42305,0 -0.766,-0.342949 -0.766,-0.766 0,-0.42305 0.34295,-0.766 0.766,-0.766 0.42305,0 0.766,0.34295 0.766,0.766 z"
       id="circle3225"
       style="fill:#ffffff" />
    <path
       d="m 19.815999,15.803 c 0,0.423051 -0.34295,0.766 -0.766,0.766 -0.42305,0 -0.766,-0.342949 -0.766,-0.766 0,-0.42305 0.34295,-0.766 0.766,-0.766 0.42305,0 0.766,0.34295 0.766,0.766 z"
       id="circle3227"
       style="fill:none;stroke:#1c1d20;stroke-width:0.019;stroke-miterlimit:3.86400008" />
    <path
       d="m 29.829999,15.803 c 0,0.423051 -0.34295,0.766 -0.766,0.766 -0.42305,0 -0.766,-0.342949 -0.766,-0.766 0,-0.42305 0.34295,-0.766 0.766,-0.766 0.42305,0 0.766,0.34295 0.766,0.766 z"
       id="circle3229"
       style="fill:#ffffff" />
    <path
       d="m 29.829999,15.803 c 0,0.423051 -0.34295,0.766 -0.766,0.766 -0.42305,0 -0.766,-0.342949 -0.766,-0.766 0,-0.42305 0.34295,-0.766 0.766,-0.766 0.42305,0 0.766,0.34295 0.766,0.766 z"
       id="circle3231"
       style="fill:none;stroke:#1c1d20;stroke-width:0.019;stroke-miterlimit:3.86400008" />
    <path
       d="m 19.752,10.779 c 0,0 -0.304,-0.064 -0.448,0.303 0,-0.031 -0.668,2.361 -0.668,2.361 0,0 2.088,-0.24 5.438,-0.24 3.349,0 5.405,0.24 5.405,0.24 0,0 -0.67,-2.392 -0.67,-2.361 -0.143,-0.367 -0.447,-0.303 -0.447,-0.303 h -8.61 z"
       id="path3233"
       style="fill:#ffffff" />
    <path
       d="m 19.752,10.779 c 0,0 -0.304,-0.064 -0.448,0.303 0,-0.031 -0.668,2.361 -0.668,2.361 0,0 2.088,-0.24 5.438,-0.24 3.349,0 5.405,0.24 5.405,0.24 0,0 -0.67,-2.392 -0.67,-2.361 -0.143,-0.367 -0.447,-0.303 -0.447,-0.303 h -8.61 z"
       id="path3235"
       style="fill:none;stroke:#1c1d20;stroke-width:0.019;stroke-miterlimit:3.86400008" />
    <path
       d="m 4.543,25.919 m 38.75,0 H 4.543 v -3.74 h 38.75 v 3.74 z"
       id="path3237"
       style="fill:#e41408" />
  </g>
</svg>
