<?xml version="1.0" encoding="UTF-8" standalone="no"?>
<!-- Created with Inkscape (http://www.inkscape.org/) -->

<svg
   xmlns:dc="http://purl.org/dc/elements/1.1/"
   xmlns:cc="http://creativecommons.org/ns#"
   xmlns:rdf="http://www.w3.org/1999/02/22-rdf-syntax-ns#"
   xmlns:svg="http://www.w3.org/2000/svg"
   xmlns="http://www.w3.org/2000/svg"
   version="1.2"
   width="48.103001"
   height="48.104"
   id="svg2">
  <metadata
     id="metadata3420">
    <rdf:RDF>
      <cc:Work
         rdf:about="">
        <dc:format>image/svg+xml</dc:format>
        <dc:type
           rdf:resource="http://purl.org/dc/dcmitype/StillImage" />
        <dc:title></dc:title>
      </cc:Work>
    </rdf:RDF>
  </metadata>
  <defs
     id="defs3418" />
  <g
     id="Capa_1">
    <path
       d="M 0,24.052 C 0,10.769 10.768,0 24.052,0 37.335,0 48.103,10.769 48.103,24.052 48.103,37.336 37.335,48.104 24.052,48.104 10.768,48.104 0,37.336 0,24.052"
       id="path3378"
       style="fill:#e41408" />
    <path
       d="m 6.413,24.052 c 0,-9.742 7.896,-17.638 17.639,-17.638 9.741,0 17.638,7.896 17.638,17.638 0,9.74 -7.896,17.639 -17.638,17.639 C 14.31,41.69 6.413,33.792 6.413,24.052"
       id="path3380"
       style="fill:#ffffff" />
    <path
       d="m 16.955,20.332 c 0,0 -2.428,-0.565 -1.202,-2.946 0,-0.023 0.282,-0.259 -0.094,-0.472 -0.024,-0.047 -0.685,-0.117 -0.495,-1.061 -0.024,-0.023 0.071,-1.179 1.532,-1.295 -0.024,-0.048 -0.26,-1.32 0.446,-2.052 0.024,-0.024 0.308,-0.566 2.075,-0.307 0.024,-0.047 0.307,-1.98 2.569,-2.19 0.022,0.023 0.848,-0.095 1.673,0.705 0,-0.046 0.755,-0.896 2.003,-0.823 0.023,-0.023 1.815,-0.166 2.735,2.215 0,0 0.589,-0.376 1.743,-0.33 0,-0.023 1.627,-0.07 1.814,2.994 0,0.022 1.108,-0.613 1.509,0.777 -0.022,0 0.188,0.353 -0.564,1.296 0,0 -0.213,0.235 0,0.473 0.022,0 0.611,0.612 0.211,1.555 -0.047,0 -0.566,1.273 -1.956,1.343 10e-4,0.023 -13.999,0.118 -13.999,0.118"
       id="path3382"
       style="fill:#e96310" />
    <path
       d="m 30.228,19.874 c 0.918,0 1.03,0.672 1.03,0.672 0,0 1.434,3.985 1.411,3.985 1.612,0.066 1.477,1.052 1.477,1.052 0,0 0.023,2.15 0,2.15 0.136,0.963 -0.179,1.119 -0.179,1.142 -0.291,0.358 0.179,0.852 0.179,0.852 0.426,0.761 -0.179,1.074 -0.179,1.074 0,0 -0.627,0.201 -0.627,0.224 -0.425,0.112 -0.381,0.382 -0.381,0.382 0,0 0,2.306 0,2.328 0,0.381 -0.335,0.336 -0.335,0.336 0,0 -2.194,0.021 -2.217,0 -0.403,0 -0.359,-0.358 -0.359,-0.358 0,0 0,-2.419 0,-2.44 0,-0.359 -0.356,-0.359 -0.356,-0.359 h -11.33 c 0,0 -0.358,0 -0.358,0.359 0,0.021 0,2.44 0,2.44 0,0 0.045,0.358 -0.359,0.358 -0.021,0.021 -2.217,0 -2.217,0 0,0 -0.335,0.045 -0.335,-0.336 0,-0.022 0,-2.328 0,-2.328 0,0 0.045,-0.27 -0.38,-0.382 0,-0.022 -0.627,-0.224 -0.627,-0.224 0,0 -0.604,-0.313 -0.18,-1.074 0,0 0.47,-0.493 0.18,-0.852 0,-0.022 -0.314,-0.179 -0.18,-1.142 -0.022,0 0,-2.15 0,-2.15 0,0 -0.135,-0.985 1.477,-1.052 -0.021,0 1.412,-3.985 1.412,-3.985 0,0 0.112,-0.672 1.029,-0.672 -0.001,-0.022 12.404,-0.022 12.404,0"
       id="path3384"
       style="fill:#1c1d20" />
    <path
       d="m 24.262,19.129 h 2.239 c 0,0 1.225,-0.165 0.659,-1.295 0,0 -0.354,-0.188 -0.164,-1.886 0,-0.024 -0.284,0.33 -0.284,0.33 0,0 -0.282,0.331 -0.235,-0.095 0,-0.023 -0.212,-1.814 -0.471,-2.403 0,0.022 -0.4,0.495 -0.4,0.495 0,0 -0.425,-1.675 -1.203,-1.887 0,0 -0.117,0.707 -0.637,1.108 0.023,-0.024 -0.919,0.401 -0.542,1.484 -0.022,0 -0.683,0.235 -0.754,1.084 0.024,0 -0.259,-0.117 -0.495,-0.142 0.024,0 0.283,0.755 0,1.603 -0.022,0.024 -0.636,1.51 0.049,1.557 0.022,-0.023 0.471,0 0.471,0 0,0 0.613,0.046 0.613,-0.613 -0.024,0 -0.189,-1.343 0.682,-1.438 0.048,0.024 0.237,-0.683 0.237,-0.683 0,0 1.436,0.544 0.235,2.781"
       id="path3386"
       style="fill:#1c1d20;fill-rule:evenodd" />
    <path
       d="m 20.679,17.551 c -0.023,-0.024 -0.755,-0.872 -2.168,-0.33 -0.048,0.023 0.4,0.731 0.4,0.731 0,0 0.118,-0.613 1.768,-0.401"
       id="path3388"
       style="fill:#1c1d20" />
    <path
       d="m 19.1,15.335 c 0,0 0.425,0.142 0.377,0.825 l 0.755,0.023 c 0,0 0.188,-0.048 0.142,-0.26 0,-0.023 -0.071,-0.4 -0.26,-0.612 -0.023,0 -0.071,-0.118 -0.307,-0.095 -0.023,0.001 -0.707,0.119 -0.707,0.119"
       id="path3390"
       style="fill:#1c1d20" />
    <path
       d="m 18.958,13.591 c 0,0 1.957,-0.047 2.475,1.768 -0.069,-0.023 -1.06,-0.871 -2.403,-0.824 0.023,-10e-4 -0.072,-0.944 -0.072,-0.944"
       id="path3392"
       style="fill:#1c1d20" />
    <path
       d="m 21.315,11.706 c 0,0 1.578,0.211 1.343,2.192 0,0.022 -0.093,-1.062 -1.366,-1.416 l 0.023,-0.776"
       id="path3394"
       style="fill:#1c1d20" />
    <path
       d="m 22.989,11.706 c -0.024,0 0.612,-0.518 0.612,-0.518 0,0 0.73,0.046 0.613,0.564 -0.048,0.023 -0.661,0.683 -0.661,0.683 0,0 -0.164,-0.729 -0.564,-0.729"
       id="path3396"
       style="fill:#1c1d20" />
    <path
       d="m 26.052,13.31 c 0,-0.024 -0.141,-0.685 0.26,-1.18 0,0 0.872,-0.354 0.519,0.447 -0.024,0 -0.448,0.142 -0.779,0.733"
       id="path3398"
       style="fill:#1c1d20" />
    <path
       d="m 26.878,15.618 c 0.023,0 0.212,-1.39 2.239,-2.074 -0.024,-0.023 0.212,0.685 0.212,0.685 0,0 -1.838,0.634 -2.451,1.389"
       id="path3400"
       style="fill:#1c1d20;fill-rule:evenodd" />
    <path
       d="m 27.914,17.009 c -0.047,0.023 0.142,-0.142 0.237,-0.659 0,0 -0.189,-1.086 0.658,-1.202 0.023,0.022 0.92,-0.143 0.354,0.966 -0.046,0.022 -0.541,0.683 -1.249,0.895"
       id="path3402"
       style="fill:#1c1d20" />
    <path
       d="m 28.127,17.646 c -0.024,-0.024 0.777,-1.036 2.286,-0.849 0.023,0.024 0.165,0.729 0.165,0.729 0,0 -0.472,-0.282 -0.849,-0.21 0,0 -1.225,0.023 -1.602,0.33"
       id="path3404"
       style="fill:#1c1d20;fill-rule:evenodd" />
    <path
       d="m 28.833,18.163 c 0,0 -0.282,0.189 -0.023,0.354 0.023,0.022 0.308,-0.023 0.637,0.141 -0.023,-0.024 0.519,0.141 0.519,0.141 l 0.283,-0.47 c -10e-4,0 -0.685,-0.448 -1.416,-0.166"
       id="path3406"
       style="fill:#1c1d20;fill-rule:evenodd" />
    <path
       d="m 29.753,15.101 c 0.024,0.047 -0.047,0.518 -0.047,0.518 l 0.471,0.14 c 0,0 0.638,0.237 0.707,-0.61 0.024,0.116 0.071,-0.401 -0.424,-0.071 0,-0.002 -0.165,0.304 -0.707,0.023"
       id="path3408"
       style="fill:#1c1d20" />
    <path
       d="m 15.92,27.733 c 0,-0.595 0.482,-1.075 1.075,-1.075 0.594,0 1.075,0.48 1.075,1.075 0,0.594 -0.481,1.073 -1.075,1.073 -0.593,10e-4 -1.075,-0.479 -1.075,-1.073"
       id="path3410"
       style="fill:#ffffff" />
    <path
       d="m 29.981,27.733 c 0,-0.595 0.481,-1.075 1.074,-1.075 0.594,0 1.075,0.48 1.075,1.075 0,0.594 -0.481,1.073 -1.075,1.073 -0.592,10e-4 -1.074,-0.479 -1.074,-1.073"
       id="path3412"
       style="fill:#ffffff" />
    <path
       d="m 17.98,20.682 c 0,0 -0.426,-0.091 -0.628,0.424 0,-0.045 -0.939,3.314 -0.939,3.314 0,0 2.933,-0.336 7.635,-0.336 4.703,0 7.59,0.336 7.59,0.336 0,0 -0.939,-3.359 -0.939,-3.314 -0.202,-0.515 -0.627,-0.424 -0.627,-0.424 H 17.98"
       id="path3414"
       style="fill:#ffffff" />
  </g>
</svg>
