<?xml version="1.0" encoding="UTF-8" standalone="no"?>
<!-- Created with Inkscape (http://www.inkscape.org/) -->

<svg
   xmlns:dc="http://purl.org/dc/elements/1.1/"
   xmlns:cc="http://creativecommons.org/ns#"
   xmlns:rdf="http://www.w3.org/1999/02/22-rdf-syntax-ns#"
   xmlns:svg="http://www.w3.org/2000/svg"
   xmlns="http://www.w3.org/2000/svg"
   version="1.1"
   width="48.104"
   height="48.104"
   id="svg2">
  <defs
     id="defs4" />
  <metadata
     id="metadata7">
    <rdf:RDF>
      <cc:Work
         rdf:about="">
        <dc:format>image/svg+xml</dc:format>
        <dc:type
           rdf:resource="http://purl.org/dc/dcmitype/StillImage" />
        <dc:title></dc:title>
      </cc:Work>
    </rdf:RDF>
  </metadata>
  <g
     transform="translate(-45.379845,-633.26693)"
     id="layer1">
    <path
       d="m 45.379845,657.31893 c 0,-13.283 10.769,-24.052 24.052,-24.052 13.284,0 24.052,10.769 24.052,24.052 0,13.284 -10.768,24.052 -24.052,24.052 -13.283,0 -24.052,-10.768 -24.052,-24.052"
       id="path2827"
       style="fill:#e41408" />
    <path
       d="m 51.793845,657.31893 c 0,-9.742 7.897,-17.638 17.638,-17.638 9.741,0 17.638,7.896 17.638,17.638 0,9.74 -7.896,17.639 -17.638,17.639 -9.742,0 -17.638,-7.899 -17.638,-17.639"
       id="path2829"
       style="fill:#ffffff" />
    <path
       d="m 85.358271,657.97557 0.150798,-0.0389 1.482972,0 0,1.44344 -2.846013,0 0,0 0.154837,-0.22302 0.14445,-0.23745 0.144735,-0.23957 0.154837,-0.22715 0.173402,-0.20253 0.202537,-0.16302 0.237445,-0.11175 z m -25.297354,-4.75658 1.443734,0 1.966042,-4.73608 0,-1.13819 -4.145298,0 0,1.27033 2.627417,0 -1.891895,4.60394 z m 6.755887,-1.19782 -0.177534,-0.005 -0.169551,-0.033 -0.163011,-0.0619 0,0 -0.130024,-0.0763 -0.113676,-0.0911 -0.103289,-0.11147 0,0 -0.09078,-0.13002 -0.07251,-0.14041 -0.05569,-0.14888 0,0 -0.03511,-0.14666 -0.02894,-0.1611 -0.01857,-0.15078 0,0 -0.01028,-0.15485 -0.0042,-0.15484 -0.0021,-0.15511 0,0 0.0021,-0.16109 0.0042,-0.16109 0.01028,-0.16119 0,0 0.01038,-0.1382 0.01443,-0.13849 0.02894,-0.13627 0,0 0.04962,-0.15263 0.06598,-0.14675 0.08665,-0.13628 0,0 0.107435,-0.12183 0.124062,-0.10552 0.140412,-0.0866 0,0 0.154836,-0.0663 0.1633,-0.0434 0.169263,-0.0163 0,0 0.177725,0.0123 0.171474,0.0392 0.165225,0.0702 0,0 0.13416,0.0826 0.119926,0.1033 0.105212,0.11781 0,0 0.08886,0.13417 0.07011,0.14665 0.05174,0.15292 0,0 0.02894,0.13194 0.01636,0.13628 0.01251,0.13656 0,0 0.0123,0.1609 0.0041,0.15917 0.0022,0.16108 0,0 0.0022,0.15495 -0.0022,0.15483 -0.0062,0.15512 0,0 -0.01636,0.15484 -0.02289,0.16926 -0.03299,0.15291 0,0 -0.04558,0.14233 -0.0578,0.12406 -0.08262,0.12589 0,0 -0.103288,0.11367 -0.115598,0.093 -0.132237,0.0804 0,0 -0.158876,0.0703 -0.169428,0.0414 -0.173591,0.0145 z m 0.0041,1.30718 0.324388,-0.0268 0.318234,-0.0681 0.307749,-0.11147 0,0 0.262223,-0.13224 0.241487,-0.16329 0.223022,-0.19196 0,0 0.208791,-0.23332 0.177532,-0.2563 0.146663,-0.27668 0,0 0.09703,-0.25188 0.07222,-0.26034 0.05588,-0.26447 0,0 0.03925,-0.27668 0.02077,-0.28101 0.0041,-0.28082 0,0 -0.01029,-0.28083 -0.02702,-0.27889 -0.04529,-0.27882 0,0 -0.06185,-0.26225 -0.07848,-0.25823 -0.101458,-0.24773 0,0 -0.150741,-0.27486 -0.177532,-0.25409 -0.210713,-0.23139 0,0 -0.225139,-0.19407 -0.247835,-0.16523 -0.264472,-0.13224 0,0 -0.309674,-0.10329 -0.318137,-0.0638 -0.324388,-0.0188 0,0 -0.330447,0.0229 -0.322176,0.0641 -0.309673,0.10936 0,0 -0.266685,0.13626 -0.245623,0.16735 -0.223023,0.19627 0,0 -0.206577,0.23746 -0.173687,0.26033 -0.140411,0.28082 0,0 -0.0929,0.25823 -0.06598,0.26852 -0.04962,0.27254 0,0 -0.03924,0.27486 -0.02078,0.27881 -0.0041,0.27678 0,0 0.01251,0.27448 0.02894,0.27475 0.0474,0.27266 0,0 0.06809,0.27476 0.09078,0.27889 0.109637,0.26226 0,0 0.140411,0.26448 0.161087,0.23745 0.202539,0.21889 0,0 0.224946,0.18811 0.249951,0.15676 0.266396,0.1281 0,0 0.303615,0.10121 0.316021,0.0621 0.322175,0.0204 z m 6.506227,-0.10532 1.352947,-0.004 0,-2.52193 0,0 0,-0.0681 0.0061,-0.0681 0.01231,-0.066 0,0 0.02485,-0.0703 0.033,-0.0641 0.04147,-0.0579 0,0 0.05554,-0.0558 0.06193,-0.0474 0.06839,-0.0371 0,0 0.07416,-0.0288 0.07663,-0.0145 0.08039,-0.006 0,0 0.08068,0.009 0.07819,0.0185 0.07448,0.0311 0,0 0.06624,0.0392 0.06194,0.0475 0.05147,0.0558 0,0 0.0437,0.0619 0.03493,0.0681 0.02485,0.0722 0,0 0.0144,0.0601 0.0085,0.06 0.0015,0.0597 0,0 0,2.52413 1.336305,0 0,-2.50125 0,0 0.0023,-0.0601 0.0039,-0.06 0.0081,-0.0578 0,0 0.02077,-0.0744 0.03109,-0.0699 0.04117,-0.0642 0,0 0.05155,-0.0558 0.05585,-0.0432 0.06602,-0.0371 0,0 0.07656,-0.0311 0.08039,-0.0204 0.08078,-0.009 0,0 0.08039,0.002 0.07656,0.0105 0.0764,0.0249 0,0 0.06594,0.0349 0.06409,0.0414 0.05586,0.0516 0,0 0.04962,0.0601 0.04117,0.0662 0.03109,0.0741 0,0 0.02078,0.0807 0.0081,0.0888 0.0015,0.0846 0,0 0.0023,2.46413 1.359009,0 0,-2.6583 0,0 -0.0061,-0.1633 -0.01885,-0.16704 -0.03493,-0.15926 0,0 -0.05362,-0.15264 -0.07039,-0.15511 -0.07848,-0.14235 0,0 -0.09925,-0.14252 -0.109251,-0.12185 -0.130124,-0.1156 0,0 -0.163216,-0.11367 -0.175517,-0.0908 -0.183782,-0.0681 0,0 -0.177724,-0.0436 -0.17965,-0.0245 -0.181765,-0.0105 0,0 -0.177533,0.002 -0.17965,0.0185 -0.175517,0.0374 0,0 -0.130309,0.0474 -0.123777,0.0601 -0.121847,0.0699 0,0 -0.109636,0.0785 -0.103289,0.0889 -0.09492,0.0971 0,0 -0.09098,-0.0867 -0.09714,-0.0807 -0.101071,-0.0722 0,0 -0.115599,-0.0722 -0.11993,-0.0641 -0.125985,-0.0537 0,0 -0.157045,-0.0474 -0.163015,-0.0288 -0.165223,-0.0105 0,0 -0.17965,0.0123 -0.173587,0.0374 -0.171478,0.0556 0,0 -0.140411,0.0621 -0.132232,0.0763 -0.125986,0.0866 0,0 -0.07848,-0.24773 -1.200034,-0.005 0,4.2734 z m -19.795265,6.27888 -0.02894,-0.0908 0.0042,-0.23331 0.03107,-0.31814 0.0474,-0.34708 0.06001,-0.31785 0.05991,-0.23362 0.05376,-0.0908 0,0 2.50528,0 0,0 0.188111,0.0888 0.140412,0.14444 0.09895,0.19004 0.06405,0.22109 0.03731,0.2437 0.01453,0.25408 0,0.25189 -0.01261,0.23745 0,0 -3.263402,0 z m -0.646411,-1.65234 -0.113675,1.67118 -0.68157,0 -0.266301,0 -0.03923,-1.25379 0,0 0.01028,-0.12406 0.01857,-0.16733 0.01039,-0.126 0,0 1.061546,0 z m 33.435428,4.95315 0.06601,-0.22736 0.06417,-0.22926 0.05994,-0.23121 0.05554,-0.23138 0.05378,-0.23563 0.05178,-0.23523 0.04747,-0.23774 0.04332,-0.23744 0.04147,-0.23957 0.03924,-0.23966 0.03493,-0.2437 0.03109,-0.24158 0.02892,-0.24371 0.02485,-0.2459 0.02262,-0.2437 0.01884,-0.24784 0.01439,-0.24581 0.0123,-0.24785 0.0081,-0.24782 0.0061,-0.24785 0.0023,-0.24994 0,0.002 -0.0039,-0.29332 -0.0061,-0.28929 -0.01261,-0.28899 0,0 -2.220134,0.0349 -2.614915,2.35265 0,0 -0.254086,0.0249 -0.254087,0.0207 -0.25591,0.0204 -0.254086,0.0189 -0.254085,0.0185 -0.256302,0.0185 -0.254087,0.0167 -0.254087,0.0204 -0.251871,0.0185 -0.251878,0.0229 -0.252161,0.0225 -0.251871,0.027 -0.247839,0.0308 -0.247831,0.0333 -0.247739,0.037 -0.2437,0.0434 -0.2438,0.0474 -0.241775,0.0538 0,0 -0.609247,1.5552 0.568085,1.48114 1.633768,0 0,0 0,0.0369 0.02885,0.10112 0.0597,0.14888 0.09109,0.17743 0.123769,0.19436 0.161091,0.19197 0.198499,0.17551 0.241484,0.14261 0.283038,0.093 0.328424,0.0267 0,0 0.355259,-0.0349 0.289285,-0.0785 0.237453,-0.11589 0.18782,-0.1403 0.148782,-0.15899 0.115598,-0.16742 0.09299,-0.16928 0.07632,-0.16109 0.06617,-0.14261 0.06602,-0.11965 0,0 3.903812,0 0,0 z m -33.813576,-10e-4 2.848324,0 0,0 0.04953,0.0558 0.136372,0.14666 0.200326,0.20638 0.2437,0.23775 0.268607,0.23522 0.270629,0.20861 0.25197,0.14474 0.210712,0.0555 0,0 0.274476,-0.0226 0.245911,-0.0659 0.221099,-0.10133 0.200327,-0.13637 0.183783,-0.16108 0.171475,-0.18158 0.163013,-0.19849 0.161087,-0.20851 0.163299,-0.21485 0,0 0.757932,0 0.760239,-1.32592 -0.419213,-2.27832 -2.125592,-2.2782 -5.956602,0 0,0 -0.02703,0.28514 -0.01028,0.26639 -0.0019,0.28515 0,0 0.0019,0.2437 0.0062,0.24563 0.01039,0.24591 0.01443,0.2459 0.01664,0.24775 0.02068,0.24562 0.02453,0.24591 0.02894,0.24784 0.03107,0.24369 0.0352,0.24592 0.03923,0.2437 0.03924,0.24369 0.04549,0.24159 0.0453,0.23956 0.04962,0.23746 0.05366,0.23774 0.05376,0.23339 0.0578,0.23112 0.05991,0.22926 0.06193,0.22745 0.06184,0.22292 z"
       id="path3700"
       style="fill:#231f20;fill-opacity:1;fill-rule:evenodd;stroke:none" />
  </g>
</svg>
