<?xml version="1.0" encoding="UTF-8" standalone="no"?>
<!-- Created with Inkscape (http://www.inkscape.org/) -->

<svg
   xmlns:dc="http://purl.org/dc/elements/1.1/"
   xmlns:cc="http://creativecommons.org/ns#"
   xmlns:rdf="http://www.w3.org/1999/02/22-rdf-syntax-ns#"
   xmlns:svg="http://www.w3.org/2000/svg"
   xmlns="http://www.w3.org/2000/svg"
   version="1.2"
   width="48.103001"
   height="48.103001"
   id="svg2">
  <metadata
     id="metadata3099">
    <rdf:RDF>
      <cc:Work
         rdf:about="">
        <dc:format>image/svg+xml</dc:format>
        <dc:type
           rdf:resource="http://purl.org/dc/dcmitype/StillImage" />
        <dc:title></dc:title>
      </cc:Work>
    </rdf:RDF>
  </metadata>
  <defs
     id="defs3097" />
  <g
     id="Capa_1">
    <path
       d="M 0,24.053 C 0,10.769 10.767,0 24.051,0 c 13.284,0 24.052,10.769 24.052,24.053 0,13.281 -10.768,24.05 -24.052,24.05 C 10.767,48.103 0,37.334 0,24.053"
       id="path3087"
       style="fill:#e41408" />
    <path
       d="m 6.413,24.053 c 0,-9.743 7.897,-17.639 17.638,-17.639 9.741,0 17.638,7.896 17.638,17.639 0,9.74 -7.896,17.638 -17.638,17.638 C 14.31,41.69 6.413,33.793 6.413,24.053"
       id="path3089"
       style="fill:#ffffff" />
    <path
       d="m 10.402,18.164 c 0,0 -0.802,-0.564 -0.802,0.094 v 9.381 c 0,0 0.048,0.659 0.708,0.33 0.047,-0.049 6.599,-3.111 12.303,-3.018 0.094,0 -1.744,0.094 -2.969,0.706 0,-0.046 -1.038,0.237 -1.085,1.369 0,0.094 -0.141,1.602 0.943,1.602 0.047,0.047 7.683,0 7.683,0 l 4.809,1.133 c 0,0 1.509,0 2.074,0.281 0,0 2.404,0.707 3.488,-0.849 0.047,0 2.309,-2.733 -0.801,-4.854 -0.048,0 -2.074,-1.179 -3.725,0.472 -0.047,0 -0.754,1.319 -2.356,1.272 0,-0.048 -2.78,0 -2.78,0 l -0.096,-0.66 3.253,-0.708 c 0,0 1.179,-0.235 1.084,-1.695 0,0.048 -0.048,-1.368 -1.603,-1.368 0,0 -5.373,0.142 -7.73,-0.235 -0.048,0 -4.62,-0.895 -4.62,-0.895 0,0 -5.421,-0.945 -7.778,-2.358"
       id="path3091"
       style="fill:#1c1d20" />
    <path
       d="m 8.536,11.219 2.646,-2.646 28.35,28.34 -2.644,2.645 L 8.536,11.219"
       id="polyline3093"
       style="fill:#e41408" />
  </g>
</svg>
