<?xml version="1.0" encoding="UTF-8" standalone="no"?>
<!-- Created with Inkscape (http://www.inkscape.org/) -->

<svg
   xmlns:dc="http://purl.org/dc/elements/1.1/"
   xmlns:cc="http://creativecommons.org/ns#"
   xmlns:rdf="http://www.w3.org/1999/02/22-rdf-syntax-ns#"
   xmlns:svg="http://www.w3.org/2000/svg"
   xmlns="http://www.w3.org/2000/svg"
   version="1.2"
   width="48.103001"
   height="48.102001"
   id="svg2">
  <metadata
     id="metadata3529">
    <rdf:RDF>
      <cc:Work
         rdf:about="">
        <dc:format>image/svg+xml</dc:format>
        <dc:type
           rdf:resource="http://purl.org/dc/dcmitype/StillImage" />
        <dc:title></dc:title>
      </cc:Work>
    </rdf:RDF>
  </metadata>
  <defs
     id="defs3527" />
  <g
     id="g3550">
    <g
       id="g3539">
      <g
         id="Capa_1">
        <path
           d="M 0,24.05 C 0,10.768 10.768,0 24.052,0 37.335,0 48.103,10.768 48.103,24.05 48.103,37.333 37.335,48.102 24.052,48.102 10.768,48.102 0,37.333 0,24.05"
           id="path3509"
           style="fill:#e41408" />
        <path
           d="m 6.413,24.05 c 0,-9.74 7.896,-17.638 17.639,-17.638 9.741,0 17.638,7.898 17.638,17.638 0,9.742 -7.896,17.638 -17.638,17.638 -9.742,0 -17.639,-7.896 -17.639,-17.638"
           id="path3511"
           style="fill:#ffffff" />
        <path
           d="m 11.224,26.457 c 0,-2.51 2.034,-4.543 4.543,-4.543 2.51,0 4.544,2.034 4.544,4.543 0,2.508 -2.034,4.541 -4.544,4.541 -2.509,0 -4.543,-2.034 -4.543,-4.541"
           id="path3513"
           style="fill:#1c1d20" />
        <path
           d="m 20.09,13.85 h 0.354 l 1.603,-0.213 0.024,1.628 -1.722,1.295 0.235,0.966 4.125,-3.016 0.024,-1.462 c 0,0 -0.331,-1.743 -2.404,-1.743 0,-0.024 -2.051,-0.072 -2.263,1.79 -0.024,0.024 0.024,0.755 0.024,0.755"
           id="path3515"
           style="fill:#1c1d20" />
        <path
           d="m 27.793,26.457 c 0,-2.51 2.034,-4.543 4.543,-4.543 2.509,0 4.543,2.034 4.543,4.543 0,2.508 -2.034,4.541 -4.543,4.541 -2.509,0 -4.543,-2.034 -4.543,-4.541"
           id="path3517"
           style="fill:#1c1d20" />
        <path
           d="m 19.901,18.588 h -2.356 c 0,0 -0.967,-0.118 -0.967,0.989 0,0 -0.095,1.037 0.848,1.037 h 3.418 l 1.886,-1.39 c 0,0 0.164,-0.141 0.4,0.023 l 1.862,1.343 c 0,0 0.307,0.237 -0.048,0.378 0,-0.023 -3.157,1.414 -3.157,1.414 0,0 -1.062,0.448 -0.472,1.555 l 2.923,5.209 c 0,0 0.637,0.73 1.367,0.188 0.022,-0.022 0.896,-0.518 0.424,-1.412 -0.023,0 -1.862,-3.513 -1.862,-3.513 0,0 -0.33,-0.519 0.212,-0.778 0.023,-0.023 4.454,-1.979 4.454,-1.979 0,0 0.731,-0.613 0.071,-1.485 -0.024,-0.024 -3.37,-4.596 -3.37,-4.596 0,0 -0.542,-0.66 -1.461,-0.095 -0.024,0 -4.172,3.112 -4.172,3.112"
           id="path3519"
           style="fill:#1c1d20" />
        <path
           d="m 12.56,26.457 c 0,-1.771 1.437,-3.208 3.207,-3.208 1.772,0 3.207,1.436 3.207,3.208 0,1.771 -1.435,3.207 -3.207,3.207 -1.771,0 -3.207,-1.437 -3.207,-3.207"
           id="path3521"
           style="fill:#ffffff" />
        <path
           d="m 29.129,26.457 c 0,-1.771 1.437,-3.208 3.207,-3.208 1.771,0 3.206,1.436 3.206,3.208 0,1.771 -1.435,3.207 -3.206,3.207 -1.771,0 -3.207,-1.437 -3.207,-3.207"
           id="path3523"
           style="fill:#ffffff" />
      </g>
    </g>
  </g>
</svg>
