<?xml version="1.0" encoding="UTF-8" standalone="no"?><svg xmlns="http://www.w3.org/2000/svg" height="48" width="48" version="1.0"><path d="m-0.000001 24.019c-0.002 13.244 10.735 23.981 23.981 23.981 13.245 0 23.983-10.737 23.98-23.981 0.002-13.243-10.735-23.98-23.98-23.98-13.246-0.00025-23.983 10.737-23.981 23.98h-0.000001z" fill-rule="evenodd"/><path d="m0.2398 24.015c0 13.112 10.629 23.741 23.741 23.741 13.111 0 23.741-10.629 23.741-23.741 0-13.111-10.63-23.74-23.741-23.74-13.112-0.00046-23.741 10.629-23.741 23.74h-0.0002z" fill-rule="evenodd" fill="#fff"/><path d="m23.981 0.75416c12.847 0 23.261 10.415 23.261 23.261 0 12.847-10.414 23.262-23.261 23.262s-23.262-10.415-23.262-23.262c0.0005-12.846 10.415-23.261 23.262-23.261v0.00016z" fill-rule="evenodd" fill="#092d78"/><path d="m17.656 20.781l-0.312 0.031-0.282 0.094-0.25 0.156-0.031 0.032-0.031 0.031-0.031 0.031-0.125 0.188-0.094 0.187-0.062 0.219-1.094 3.531h-0.313l-0.281 0.063-0.25 0.094-0.219 0.187-0.219 0.219-0.124 0.281-0.094 0.281 0.031 2.906v0.126l0.031 0.124 0.063 0.126 0.062 0.093 0.094 0.094 0.094 0.063-0.219 0.656-0.062 0.125-0.032 0.187 0.063 0.156 0.093 0.126 0.094 0.093 0.156 0.031 0.844 0.219v2.657 0.124l0.032 0.094 0.062 0.063 0.094 0.062 0.094 0.031 0.093 0.032h1.844 0.125l0.125-0.032 0.094-0.062 0.062-0.094 0.031-0.094v-0.124-2.657l5.938 0.031 5.938-0.031v2.657 0.124l0.031 0.094 0.062 0.094 0.125 0.062 0.125 0.032h0.125 1.844l0.094-0.032 0.094-0.031 0.062-0.062 0.062-0.063 0.032-0.094 0.031-0.124v-2.657l0.844-0.219 0.125-0.031 0.125-0.093 0.093-0.126 0.032-0.156v-0.187l-0.063-0.125-0.219-0.656 0.094-0.063 0.094-0.094 0.062-0.093 0.063-0.126 0.031-0.124v-0.126-2.906l-0.062-0.281-0.156-0.281-0.188-0.219-0.219-0.187-0.281-0.094-0.281-0.063h-0.281l-1.094-3.531-0.063-0.219-0.125-0.25-0.156-0.187h-0.031v-0.032l-0.25-0.156-0.281-0.094-0.313-0.031h-6.094-0.031-6.094zm-0.156 0.719h0.125 6.156 6.094 0.125l0.125 0.031 0.125 0.063 0.094 0.094 0.062 0.124 0.032 0.126 1 3.312-0.25-0.031h-0.25l-0.25-0.031-0.25-0.032h-0.25l-0.25-0.031h-0.25l-0.282-0.031h-0.25l-0.25-0.032h-0.25l-0.25-0.031h-0.25-0.25l-0.25-0.031h-0.25-0.25l-0.281-0.031h-0.25-0.25l-0.281-0.031h-0.25-0.25-0.25-0.282l-0.25-0.032h-0.25-0.281-0.25-0.25-0.281-0.25-0.25-0.281l-0.25 0.032h-0.25-0.281-0.25-0.25l-0.282 0.031h-0.25-0.25l-0.281 0.031h-0.25-0.25l-0.25 0.031h-0.281-0.25l-0.25 0.031h-0.25l-0.25 0.032h-0.25l-0.25 0.031h-0.25l-0.25 0.031h-0.25l-0.25 0.032-0.25 0.031h-0.25l-0.25 0.031 1-3.312 0.031-0.126 0.063-0.124 0.093-0.094 0.094-0.063 0.125-0.031zm-0.688 5.906l0.282 0.032 0.218 0.093 0.188 0.157 0.156 0.218 0.125 0.219 0.031 0.281-0.031 0.25-0.125 0.25-0.156 0.188-0.188 0.156-0.218 0.094-0.282 0.031-0.25-0.031-0.25-0.094-0.187-0.156-0.156-0.188-0.094-0.25-0.031-0.25 0.031-0.281 0.094-0.219 0.156-0.218 0.187-0.157 0.25-0.093 0.25-0.032zm13.907 0l0.25 0.032 0.25 0.093 0.187 0.157 0.156 0.218 0.094 0.219 0.032 0.281-0.032 0.25-0.094 0.25-0.156 0.188-0.187 0.156-0.25 0.094-0.25 0.031-0.281-0.031-0.219-0.094-0.219-0.156-0.156-0.188-0.094-0.25-0.031-0.25 0.031-0.281 0.094-0.219 0.156-0.218 0.219-0.157 0.219-0.093 0.281-0.032z" fill-rule="evenodd" fill="#fff"/><path d="m23.744 20.751l0.03 0.009 6.099-0.009 0.303 0.023 0.284 0.099 0.253 0.173 0.008 0.009 0.011 0.007 0.01 0.011 0.019 0.004 0.286-0.075 0.265-0.122 0.24-0.164 0.206-0.204 0.17-0.24 0.127-0.268 0.08-0.29 0.025-0.294-0.025-0.295-0.076-0.281-0.126-0.268-0.175-0.246h-0.002l0.239-0.231 0.183-0.274 0.12-0.309 0.049-0.332-0.015-0.37-0.099-0.349-0.221-0.293-0.244-0.149-0.269-0.076-0.28 0.005-0.275 0.084 0.054-0.242 0.026-0.244v-0.242l-0.028-0.238-0.052-0.233-0.076-0.225-0.099-0.217-0.124-0.206-0.145-0.191-0.166-0.177-0.185-0.16-0.209-0.139-0.231-0.12-0.242-0.092-0.246-0.063-0.252-0.034-0.253-0.005-0.252 0.024-0.25 0.05-0.242 0.082-0.234 0.107-0.223 0.139h-0.006l-0.055-0.258-0.08-0.251-0.105-0.235-0.126-0.225-0.149-0.211-0.171-0.193-0.187-0.175-0.204-0.155-0.221-0.137-0.235-0.114-0.248-0.088-0.259-0.063-0.259-0.036-0.261-0.009-0.256 0.017-0.255 0.045-0.248 0.067-0.24 0.094-0.229 0.118-0.219 0.141-0.204 0.164-0.189 0.187-0.206-0.182-0.225-0.154-0.24-0.128-0.25-0.099-0.261-0.07-0.267-0.037-0.272-0.009-0.271 0.023-0.271 0.057-0.244 0.08-0.234 0.107-0.216 0.128-0.2 0.15-0.183 0.17-0.165 0.189-0.142 0.204-0.122 0.221-0.097 0.234-0.072 0.244-0.046 0.256-0.24-0.115-0.248-0.074-0.255-0.034-0.256 0.007-0.253 0.047-0.241 0.084-0.23 0.122-0.212 0.16-0.177 0.18-0.143 0.202-0.111 0.219-0.078 0.231-0.042 0.238-0.006 0.242 0.027 0.244 0.065 0.238 0.103 0.231-0.269-0.034-0.265 0.021-0.25 0.074-0.23 0.122-0.2 0.166-0.164 0.206-0.122 0.242-0.069 0.259-0.015 0.263 0.04 0.254 0.086 0.242 0.135 0.221 0.181 0.191 0.219 0.154-0.169 0.231-0.128 0.253-0.086 0.267-0.044 0.277v0.28l0.044 0.282 0.09 0.271 0.133 0.259 0.172 0.232 0.208 0.202 0.238 0.164 0.263 0.126 0.103-0.005 0.025-0.029 0.026-0.023 0.025-0.021 0.254-0.173 0.284-0.099 0.303-0.023h6.098z" fill-rule="evenodd" fill="#f47216"/><path d="m23.375 12.562l-0.125 0.032-0.125 0.094-0.094 0.062-0.125 0.094-0.125 0.125-0.062 0.125 0.093 0.062 0.126 0.094 0.124 0.094 0.094 0.125 0.094 0.125 0.094 0.125h0.062l0.094-0.125 0.094-0.094 0.094-0.125 0.093-0.063 0.063-0.093 0.094-0.063 0.031-0.062v-0.063-0.031-0.062-0.032l-0.031-0.031-0.063-0.063-0.031-0.062-0.094-0.062-0.031-0.032-0.063-0.031-0.062-0.031-0.063-0.032h-0.093-0.063zm-2.219 0.563l-0.125 0.594 0.157 0.062 0.124 0.063 0.157 0.062 0.156 0.094 0.156 0.062 0.157 0.126 0.187 0.218 0.156 0.25 0.094 0.313 0.031-0.063 0.032-0.062 0.031-0.063v-0.219l-0.031-0.218-0.063-0.219-0.125-0.219-0.125-0.25-0.187-0.187-0.157-0.125-0.187-0.125-0.188-0.063-0.094-0.031h-0.062-0.094zm4.938 0.219l-0.063 0.031-0.093 0.063-0.063 0.062-0.063 0.094-0.062 0.125-0.031 0.093-0.031 0.126-0.032 0.093-0.031 0.125v0.063 0.062 0.063 0.062l0.031 0.063 0.032 0.062 0.093-0.156 0.094-0.125 0.125-0.094 0.094-0.062 0.094-0.063 0.062-0.031 0.062-0.031 0.063-0.063 0.031-0.062 0.063-0.032 0.031-0.062 0.031-0.062v-0.063-0.063-0.031l-0.031-0.062-0.062-0.063-0.063-0.031-0.094-0.031h-0.093-0.094zm-2 0.312l-0.094 0.282-0.094 0.25-0.156 0.218-0.125 0.156-0.125 0.157-0.125 0.125-0.156 0.156-0.125 0.156-0.094 0.219-0.094 0.219v0.25l0.032 0.25-0.188 0.094-0.156 0.124-0.156 0.157-0.094 0.312-0.032 0.375v0.188l-0.031-0.032-0.062-0.093-0.031-0.031-0.063-0.032h-0.094l-0.062-0.031h-0.094-0.094-0.093l0.031 0.125 0.062 0.344v0.375l-0.062 0.219-0.031 0.281-0.063 0.281-0.063 0.188-0.031 0.156-0.062 0.187 0.156 0.781 0.906-0.031 0.063-0.031 0.062-0.062 0.063-0.032 0.093-0.125 0.032-0.156v-0.125l-0.032-0.219v-0.25l0.032-0.219 0.094-0.218 0.124-0.188 0.157-0.156 0.125-0.094 0.156-0.094 0.156-0.031 0.094-0.5 0.219 0.188 0.187 0.25 0.156 0.25 0.063 0.187 0.063 0.219v0.219l-0.063 0.25-0.094 0.187-0.156 0.188-0.063 0.125-0.031 0.125-0.062 0.125-0.031 0.156-0.032 0.125v0.156l2.406 0.031 0.188-0.124 0.156-0.188 0.094-0.188 0.094-0.25 0.062-0.281-0.031-0.25-0.125-0.25-0.094-0.25-0.062-0.281-0.063-0.281-0.031-0.313v-0.312l0.031-0.282-0.25 0.313-0.031 0.031h-0.031-0.031l-0.032-0.031-0.031-0.031v-0.032l-0.281-1.124-0.313-1.126-0.312 0.407-0.063-0.344-0.125-0.313-0.156-0.312-0.219-0.312-0.25-0.282-0.312-0.25zm-5.063 1.188l-0.062 0.031h-0.063l-0.031 0.063v0.093l-0.031 0.063v0.156 0.156l0.031 0.188 0.031 0.031 0.063 0.031 0.031 0.063 0.125 0.062h0.125 0.156l0.188 0.031h0.187l0.188 0.063 0.25 0.094 0.219 0.093 0.218 0.126 0.219 0.124 0.219 0.126 0.218 0.124-0.124-0.25-0.126-0.25-0.156-0.25-0.125-0.156-0.125-0.156-0.156-0.156-0.25-0.156-0.281-0.126-0.313-0.093-0.156-0.063-0.188-0.031-0.187-0.031h-0.094zm9.469 0.094l-0.156 0.031-0.125 0.031-0.157 0.031-0.187 0.094-0.187 0.125-0.188 0.094-0.156 0.156-0.188 0.125-0.156 0.156-0.188 0.219-0.187 0.219-0.156 0.25-0.031 0.062-0.063 0.031v0.094l-0.031 0.032v0.031l0.031 0.031v0.031h0.031l0.125-0.062 0.094-0.063 0.125-0.062 0.094-0.063 0.125-0.093 0.093-0.094 0.219-0.156 0.219-0.157 0.219-0.093 0.312-0.063 0.344-0.031 0.25-0.063 0.031-0.062 0.032-0.125 0.031-0.188-0.031-0.375-0.032-0.031-0.094-0.062h-0.062zm1.5 1.187l-0.094 0.063-0.094 0.062-0.093 0.031h-0.219-0.188l-0.093-0.031-0.125 0.469 0.125 0.062 0.156 0.094 0.125 0.031 0.125 0.032h0.125l0.125-0.032h0.094l0.062-0.062 0.063-0.032 0.094-0.124 0.062-0.126 0.031-0.156v-0.094-0.062l-0.031-0.094-0.094-0.031h-0.062-0.094zm-1.969 0.187l-0.187 0.094-0.094 0.094-0.062 0.125-0.063 0.125-0.063 0.219-0.031 0.219 0.031 0.218v0.125 0.094l-0.031 0.125v0.062l-0.031 0.032v0.062l-0.031 0.063v0.031l0.031 0.031v0.031 0.032l0.125-0.032 0.125-0.031 0.125-0.031 0.187-0.094 0.157-0.125 0.156-0.156 0.125-0.125 0.125-0.156 0.063-0.188 0.062-0.125 0.031-0.125v-0.156l-0.062-0.125-0.094-0.125-0.156-0.125-0.188-0.063h-0.25zm-8.437 0.032l-0.188 0.031-0.156 0.063-0.156 0.124 0.062 0.126 0.032 0.124 0.031 0.094v0.094 0.094 0.125 0.031l0.031 0.031v0.031l0.062 0.032h0.032 0.062l0.094-0.032 0.125-0.031 0.125-0.031 0.094-0.031h0.094l0.093-0.031h0.063l0.062-0.032 0.063-0.031 0.031-0.094v-0.093l-0.031-0.063v-0.094l-0.031-0.093-0.032-0.063-0.062-0.094-0.032-0.062-0.062-0.031-0.125-0.063-0.156-0.031h-0.125zm9.531 1.562l-0.25 0.032-0.219 0.062-0.218 0.062-0.188 0.126-0.219 0.124-0.187 0.157-0.188 0.156 0.032 0.156h0.124l0.126-0.031 0.124-0.031 0.094-0.031 0.094-0.032 0.062-0.062 0.157-0.032 0.156-0.031 0.125-0.031h0.125 0.125l0.125 0.031 0.125 0.031 0.125 0.032h0.156 0.125 0.156l0.126-0.032 0.031-0.374-0.125-0.094-0.094-0.063-0.125-0.062-0.25-0.063h-0.25zm-9.813 0.156l-0.25 0.032-0.25 0.031-0.25 0.125h-0.062l-0.062 0.062-0.032 0.032v0.031 0.031 0.032l0.282 0.406 0.031 0.062 0.062 0.032 0.063 0.031h0.031 0.031 0.063l0.187-0.125 0.188-0.063 0.218-0.062 0.25-0.063h0.282 0.25l-0.188-0.25-0.25-0.156-0.281-0.125-0.313-0.063zm9.313 1.188l-0.094 0.031h-0.093l-0.094 0.063-0.063 0.031-0.031 0.063-0.031 0.031 0.031 0.093 0.094 0.126 0.125 0.062 0.093 0.031h0.126l0.093 0.031h0.125l0.094 0.032 0.094 0.031h0.062 0.032l0.062 0.031 0.062-0.031 0.094-0.031 0.063-0.032 0.062-0.062 0.031-0.062 0.063-0.094v-0.032l0.031-0.062v-0.031l-0.031-0.031-0.063-0.032-0.031-0.031-0.187-0.063-0.188-0.031-0.187-0.031h-0.125-0.094-0.125z" fill-rule="evenodd" fill="#231f20"/></svg>
