<?xml version="1.0" encoding="UTF-8" standalone="no"?><svg xmlns="http://www.w3.org/2000/svg" height="47.919" width="47.942" version="1.0"><path d="m47.761 21.181c-1.299-11.929-11.549-21.062-23.521-21.13-13.804-0.11425-24.765 11.429-24.089 25.196 0.78833 13.719 12.991 24.083 26.662 22.423 13.051-1.434 22.554-13.467 20.948-26.489" fill-rule="evenodd" stroke="#000" stroke-width=".081827" fill="#fff"/><path d="m32.344 13.719c-2.732 0.13-5.287 1.831-6.5 4.281-0.756 1.449-0.978 3.111-1.125 4.719-0.172 2.799 0.367 5.738 2 8.062 1.456 1.937 3.92 3.037 6.312 3.031 2.824-0.022 5.57-1.657 6.907-4.156 1.064-1.909 1.335-4.157 1.281-6.312-0.072-2.395-0.654-4.874-2.219-6.75-1.584-1.961-4.144-3.069-6.656-2.875zm-17.125 0.219c-1.545-0.012-3.099 0.34-4.407 1.187-1.3445 0.806-2.1888 2.185-2.7182 3.625-0.6715 1.716-0.7071 3.588-0.75 5.406 0.0162 2.106 0.4027 4.246 1.375 6.125 0.8666 1.724 2.5512 2.989 4.4372 3.375 2.124 0.441 4.573 0.166 6.25-1.312 1.561-1.332 2.414-3.394 2.375-5.438 0.012-1.703-0.45-3.474-1.625-4.75-1.976-2.274-5.611-2.645-8.125-1.062l-0.062 0.031v-0.031c0.083-1.534 1.413-2.89 2.969-2.938 1.053-0.111 2.12 0.623 2.374 1.656 1.39-0.546 2.768-1.109 4.157-1.656-0.598-2.14-2.538-3.766-4.719-4.094-0.505-0.078-1.016-0.121-1.531-0.124zm17.312 4.124c0.184-0.021 0.377-0.009 0.563 0 1.199 0.041 2.348 0.742 2.937 1.782 0.397 0.68 0.557 1.469 0.594 2.25 0.084 0.97 0.083 1.933 0.063 2.906-0.066 0.925-0.145 1.888-0.594 2.719-0.599 1.089-1.865 1.782-3.094 1.781-0.845 0.046-1.697-0.199-2.344-0.75-0.807-0.677-1.24-1.723-1.375-2.75-0.18-1.148-0.139-2.311-0.093-3.469 0.052-0.75 0.098-1.52 0.406-2.219 0.461-1.225 1.648-2.102 2.937-2.25zm-17.969 6.094c0.137-0.017 0.271-0.007 0.407 0 0.455-0.008 0.906 0.11 1.281 0.375 0.306 0.207 0.584 0.469 0.781 0.781 0.281 0.454 0.405 1.001 0.407 1.532-0.017 0.584-0.171 1.198-0.5 1.687-0.249 0.368-0.605 0.622-1 0.813-0.591 0.27-1.277 0.343-1.907 0.187-0.257-0.06-0.499-0.205-0.719-0.343-0.401-0.286-0.716-0.672-0.906-1.126-0.185-0.441-0.22-0.933-0.187-1.406 0.036-0.401 0.159-0.798 0.343-1.156 0.213-0.361 0.502-0.667 0.844-0.906 0.344-0.219 0.748-0.387 1.156-0.438z" fill-rule="evenodd" fill="#918f90"/><path d="m23.406 0.75c-5.821 0.18708-11.575 2.5943-15.687 6.7812-5.6721 5.5538-8.0318 14.155-6.094 21.844 1.9193 8.235 8.734 15.05 16.969 16.969 7.732 1.951 16.386-0.483 21.937-6.219 5.705-5.646 8.031-14.386 5.938-22.125-2.059-8.2-9.015-14.91-17.281-16.688-1.904-0.44255-3.841-0.62436-5.782-0.562zm0.532 1.1562c4.277-0.0241 8.547 1.2038 12.124 3.5626-10.124 10.128-20.25 20.278-30.374 30.406-3.9839-5.99-4.6643-13.997-1.813-20.594 2.7377-6.5456 8.846-11.535 15.813-12.906 1.397-0.289 2.824-0.4607 4.25-0.4688zm13.062 4.2188l0.625 0.4688-30.812 30.812-0.5005-0.625 30.688-30.656zm1.469 1.1562l0.593 0.5313-31.031 31.032-0.531-0.594 30.969-30.969zm1.375 1.3126l0.531 0.5624-31 31-0.5625-0.531 31.032-31.031zm1.25 1.4062l0.468 0.625-30.75 30.75-0.624-0.5 30.906-30.875zm1.125 1.531c3.988 5.762 4.92 13.453 2.437 20-2.493 6.82-8.592 12.188-15.687 13.75-5.886 1.386-12.226 0.083-17.219-3.281l30.469-30.469z" fill-rule="evenodd" fill="#231f20"/></svg>
