<?xml version="1.0" encoding="UTF-8" standalone="no"?>
<!-- Created with Inkscape (http://www.inkscape.org/) -->

<svg
   xmlns:dc="http://purl.org/dc/elements/1.1/"
   xmlns:cc="http://creativecommons.org/ns#"
   xmlns:rdf="http://www.w3.org/1999/02/22-rdf-syntax-ns#"
   xmlns:svg="http://www.w3.org/2000/svg"
   xmlns="http://www.w3.org/2000/svg"
   version="1.2"
   width="48.104"
   height="48.104"
   id="svg2">
  <metadata
     id="metadata3123">
    <rdf:RDF>
      <cc:Work
         rdf:about="">
        <dc:format>image/svg+xml</dc:format>
        <dc:type
           rdf:resource="http://purl.org/dc/dcmitype/StillImage" />
        <dc:title></dc:title>
      </cc:Work>
    </rdf:RDF>
  </metadata>
  <defs
     id="defs3121" />
  <g
     id="g3135">
    <path
       d="M 0,24.051 C 0,10.769 10.768,0 24.052,0 37.335,0 48.104,10.769 48.104,24.051 48.104,37.336 37.335,48.104 24.052,48.104 10.768,48.104 0,37.336 0,24.051"
       id="path3099"
       style="fill:#e41408" />
    <path
       d="m 6.414,24.051 c 0,-9.741 7.896,-17.637 17.638,-17.637 9.742,0 17.638,7.896 17.638,17.637 0,9.74 -7.896,17.638 -17.638,17.638 -9.742,0 -17.638,-7.897 -17.638,-17.638"
       id="path3101"
       style="fill:#ffffff" />
    <path
       d="m 37.913,15.493 c 0.278,0 0.278,0.277 0.278,0.277 v 8.993 h -3.556 c -0.234,1.06 -1.179,1.853 -2.308,1.853 -1.14,0 -2.112,-0.779 -2.336,-1.853 H 17.838 c -0.234,1.06 -1.178,1.853 -2.307,1.853 -1.174,0 -2.147,-0.855 -2.332,-1.975 H 10.08 c 0,0 -0.245,0.046 -0.245,-0.248 -0.025,0.025 0,-0.954 0,-0.954 0,0 0,-0.197 0.196,-0.197 0,-0.024 0.834,0 0.834,0 v -2.5 c 0,0 0,-1.105 1.349,-1.105 0.024,0.024 2.451,0 2.451,0 0,0 0.271,0.123 0.369,-0.196 -0.025,-0.025 1.005,-3.42 1.005,-3.42 0,0 0.049,-0.122 0.245,-0.146 0.049,0 2.722,0 2.722,0 0,0 -0.023,-0.357 0.271,-0.382 h 18.636"
       id="path3103"
       style="fill:#1c1d20" />
    <path
       d="m 17.339,17.161 c 0,0.025 1.446,0 1.446,0 0,0 0.221,0 0.221,0.22 v 2.133 c 0,0 0.049,0.22 -0.221,0.22 -0.024,0 -2.084,0 -2.084,0 0,0 -0.196,0 -0.196,-0.194 0.024,-0.026 0.613,-2.233 0.613,-2.233 0,0 0,-0.146 0.221,-0.146"
       id="path3105"
       style="fill:#ffffff" />
    <g
       id="g3107">
      <path
         d="m 19.362,28.397 h 0.781 v 3.75 h -0.859 v -2.461 h -0.625 v -0.742 h 0.469 c 0.156,-0.091 0.234,-0.208 0.234,-0.352 v -0.195 z"
         id="path3109"
         style="fill:#1c1d20" />
      <path
         d="m 22.59,28.28 h 0.039 c 0.838,0 1.411,0.417 1.719,1.25 l 0.078,0.547 v 0.313 c 0,0.791 -0.417,1.352 -1.25,1.68 l -0.547,0.078 c -0.798,0 -1.357,-0.364 -1.68,-1.094 -0.104,-0.262 -0.156,-0.535 -0.156,-0.82 0,-1.025 0.469,-1.663 1.406,-1.914 l 0.391,-0.04 z m -0.899,1.914 c 0,0.588 0.234,0.953 0.703,1.094 l 0.313,0.039 c 0.371,0 0.645,-0.286 0.82,-0.859 V 30.155 C 23.454,29.452 23.154,29.1 22.629,29.1 c -0.56,0 -0.872,0.365 -0.938,1.094 z"
         id="path3111"
         style="fill:#1c1d20" />
      <path
         d="m 26.361,29.378 c 0.18,0 0.401,0.117 0.663,0.351 0.184,-0.233 0.443,-0.351 0.779,-0.351 0.65,0.104 0.976,0.429 0.976,0.976 v 1.793 h -0.78 v -1.403 c 0,-0.39 -0.13,-0.585 -0.39,-0.585 -0.234,0.033 -0.352,0.15 -0.352,0.351 v 1.638 H 26.439 V 30.51 c 0,-0.233 -0.144,-0.351 -0.43,-0.351 -0.117,0.042 -0.208,0.12 -0.272,0.233 v 1.755 h -0.819 v -2.69 h 0.663 c 0.052,0 0.078,0.052 0.078,0.155 h 0.039 c 0.218,-0.155 0.439,-0.234 0.663,-0.234 z"
         id="path3113"
         style="fill:#1c1d20" />
    </g>
    <path
       d="m 18.111,31.738 c 0,0.375 -0.329,0.329 -0.329,0.329 h -3.371 c 0,0 0.047,0.848 0,0.848 0,0.684 -0.754,0.282 -0.754,0.282 L 9.531,30.749 C 9.273,30.583 9.297,30.46 9.297,30.46 c 0,0 -0.023,-0.119 0.234,-0.282 l 4.126,-2.452 c 0,0 0.754,-0.4 0.754,0.285 0.047,0 0,0.847 0,0.847 h 3.371 c 0,0 0.329,-0.047 0.329,0.329 0.024,-0.001 0.024,2.551 0,2.551"
       id="path3115"
       style="fill:#1c1d20" />
    <path
       d="m 29.992,31.738 c 0,0.375 0.33,0.329 0.33,0.329 h 3.37 c 0,0 -0.048,0.848 0,0.848 0,0.684 0.755,0.282 0.755,0.282 l 4.125,-2.448 c 0.259,-0.166 0.234,-0.289 0.234,-0.289 0,0 0.024,-0.119 -0.234,-0.282 l -4.125,-2.452 c 0,0 -0.755,-0.4 -0.755,0.285 -0.048,0 0,0.847 0,0.847 h -3.37 c 0,0 -0.33,-0.047 -0.33,0.329 -0.023,-0.001 -0.023,2.551 0,2.551"
       id="path3117"
       style="fill:#1c1d20" />
  </g>
</svg>
