<?xml version="1.0" encoding="UTF-8" standalone="no"?>
<svg
   xmlns:dc="http://purl.org/dc/elements/1.1/"
   xmlns:cc="http://creativecommons.org/ns#"
   xmlns:rdf="http://www.w3.org/1999/02/22-rdf-syntax-ns#"
   xmlns:svg="http://www.w3.org/2000/svg"
   xmlns="http://www.w3.org/2000/svg"
   xmlns:sodipodi="http://sodipodi.sourceforge.net/DTD/sodipodi-0.dtd"
   xmlns:inkscape="http://www.inkscape.org/namespaces/inkscape"
   version="1.2"
   width="188.96875"
   height="283.03125"
   id="svg2"
   sodipodi:docname="ES_S100-250.svg"
   inkscape:version="1.0.1 (3bc2e813f5, 2020-09-07)">
  <sodipodi:namedview
     pagecolor="#ffffff"
     bordercolor="#666666"
     borderopacity="1"
     objecttolerance="10"
     gridtolerance="10"
     guidetolerance="10"
     inkscape:pageopacity="0"
     inkscape:pageshadow="2"
     inkscape:window-width="1920"
     inkscape:window-height="1027"
     id="namedview6078"
     showgrid="false"
     inkscape:zoom="2.5968864"
     inkscape:cx="94.484375"
     inkscape:cy="141.51563"
     inkscape:window-x="-8"
     inkscape:window-y="-8"
     inkscape:window-maximized="1"
     inkscape:current-layer="svg2" />
  <metadata
     id="metadata3192">
    <rdf:RDF>
      <cc:Work
         rdf:about="">
        <dc:format>image/svg+xml</dc:format>
        <dc:type
           rdf:resource="http://purl.org/dc/dcmitype/StillImage" />
        <dc:title></dc:title>
      </cc:Work>
    </rdf:RDF>
  </metadata>
  <defs
     id="defs3190" />
  <g
     id="g3200">
    <path
       d="m 188.554,272.166 c 0,5.773 -4.688,10.453 -10.461,10.453 H 10.855 C 5.08,282.619 0.4,277.939 0.4,272.166 V 10.857 C 0.4,5.08 5.08,0.4 10.855,0.4 h 167.238 c 5.773,0 10.461,4.68 10.461,10.457 v 261.309 z"
       id="path3178"
       style="fill:#ffffff" />
    <path
       d="m 188.554,272.166 c 0,5.773 -4.688,10.453 -10.461,10.453 H 10.855 C 5.08,282.619 0.4,277.939 0.4,272.166 V 10.857 C 0.4,5.08 5.08,0.4 10.855,0.4 h 167.238 c 5.773,0 10.461,4.68 10.461,10.457 v 261.309 z"
       id="path3180"
       style="fill:none;stroke:#1c1d20;stroke-width:0.80000001;stroke-miterlimit:3.86400008" />
    <path
       d="m 183.953,10.857 c 0,-3.24 -2.625,-5.861 -5.859,-5.861 H 10.855 C 7.619,4.996 5,7.617 5,10.857 v 261.309 c 0,3.238 2.619,5.859 5.855,5.859 h 167.238 c 3.234,0 5.859,-2.621 5.859,-5.859 V 10.857"
       id="path3182"
       style="fill:#19408b" />
    <path
       d="m 31.763,157.189 m 125.428,0 H 31.763 V 31.755 h 125.428 v 125.434 z"
       id="path3184"
       style="fill:#ffffff" />
    <path
       d="m 77.228,50.052 0,27.176 -27.176,0 0,34.492 27.176,0 0,27.18 34.498,0 0,-27.18 27.172,0 0,-34.492 -27.172,0 0,-27.176 -34.498,0"
       id="polyline3186"
       style="fill:#e41408" />
  </g>
  <text
     xml:space="preserve"
     style="font-style:normal;font-variant:normal;font-weight:normal;font-stretch:normal;font-size:42.6667px;line-height:25px;font-family:Ccrige;-inkscape-font-specification:Ccrige;letter-spacing:0px;word-spacing:0px;fill:#ffffff;stroke:none;stroke-width:1px;stroke-linecap:butt;stroke-linejoin:miter;stroke-opacity:1"
     x="26.57028"
     y="228.35039"
     id="text6643"><tspan
       sodipodi:role="line"
       id="tspan6641"
       x="26.57028"
       y="228.35039">250 m</tspan></text>
</svg>
