<?xml version="1.0" encoding="UTF-8" standalone="no"?>
<svg
   xmlns:dc="http://purl.org/dc/elements/1.1/"
   xmlns:cc="http://creativecommons.org/ns#"
   xmlns:rdf="http://www.w3.org/1999/02/22-rdf-syntax-ns#"
   xmlns:svg="http://www.w3.org/2000/svg"
   xmlns="http://www.w3.org/2000/svg"
   xmlns:sodipodi="http://sodipodi.sourceforge.net/DTD/sodipodi-0.dtd"
   xmlns:inkscape="http://www.inkscape.org/namespaces/inkscape"
   version="1.2"
   width="561.25818"
   height="238.13309"
   id="svg2"
   sodipodi:docname="ES_S368.svg"
   inkscape:version="1.0.1 (3bc2e813f5, 2020-09-07)">
  <sodipodi:namedview
     pagecolor="#ffffff"
     bordercolor="#666666"
     borderopacity="1"
     objecttolerance="10"
     gridtolerance="10"
     guidetolerance="10"
     inkscape:pageopacity="0"
     inkscape:pageshadow="2"
     inkscape:window-width="1920"
     inkscape:window-height="1027"
     id="namedview6659"
     showgrid="false"
     inkscape:zoom="1.415825"
     inkscape:cx="228.91424"
     inkscape:cy="118.7016"
     inkscape:window-x="-8"
     inkscape:window-y="-8"
     inkscape:window-maximized="1"
     inkscape:current-layer="svg2"
     fit-margin-top="0"
     fit-margin-left="0"
     fit-margin-right="0"
     fit-margin-bottom="0" />
  <metadata
     id="metadata4010">
    <rdf:RDF>
      <cc:Work
         rdf:about="">
        <dc:format>image/svg+xml</dc:format>
        <dc:type
           rdf:resource="http://purl.org/dc/dcmitype/StillImage" />
        <dc:title></dc:title>
      </cc:Work>
    </rdf:RDF>
  </metadata>
  <defs
     id="defs4008" />
  <path
     d="m 0.13185,210.12485 c 0,14.851 12.268,27.122 27.122,27.122 h 294.701 c 14.851,0 27.122,-12.271 27.122,-27.122 v -182.871 c 0,-14.854 -12.271,-27.122 -27.122,-27.122 h -294.7 c -14.854,0 -27.122,12.268 -27.122,27.122 l -0.001,182.871"
     id="path3906"
     style="fill:#000080" />
  <path
     d="m 0.13185,210.12485 c 0,14.851 12.268,27.122 27.122,27.122 h 294.701 c 14.851,0 27.122,-12.271 27.122,-27.122 v -182.871 c 0,-14.854 -12.271,-27.122 -27.122,-27.122 h -294.7 c -14.854,0 -27.122,12.268 -27.122,27.122 l -0.001,182.871"
     id="path3908"
     style="fill:none;stroke:#ffffff;stroke-width:0.2637;stroke-miterlimit:2.613" />
  <path
     d="m 8.26485,210.12485 v -182.871 c 0,-10.332 8.658,-18.9839999 18.99,-18.9839999 h 294.701 c 10.331,0 18.984,8.6529999 18.984,18.9839999 v 182.871 c 0,10.331 -8.653,18.984 -18.984,18.984 h -294.701 c -10.333,0 -18.99,-8.653 -18.99,-18.984 h -5.418 5.418 m -5.418,0 c 0,13.305 11.104,24.412 24.408,24.412 h 294.701 c 13.305,0 24.407,-11.107 24.407,-24.412 v -182.871 c 0,-13.309 -11.104,-24.413 -24.407,-24.413 h -294.701 c -13.304,0 -24.408,11.104 -24.408,24.413 z"
     id="path3910"
     style="fill:#ffffff" />
  <path
     d="m 138.70385,26.237849 h 71.807 V 60.59085 h -71.807 z"
     id="rect3912"
     style="fill:#ffffff" />
  <path
     d="m 140.37785,28.04585 h 68.44899 v 30.736999 h -68.44899 z"
     id="rect3914"
     style="fill:#000080" />
  <path
     d="m 153.03785,45.34585 2.843,-6.968 2.709,6.968 h -5.552 l -8.004,8.916 8.004,-8.916 m -8.004,8.916 h 4.388 l 1.937,-4.774 h 8.91 l 1.937,4.774 h 4.522 l -8.781,-21.699 h -4.265 z"
     id="path3916"
     style="fill:#ffffff" />
  <path
     d="m 174.34484,41.477849 h 6.845 v 4.136 h -6.845 z"
     id="rect3918"
     style="fill:#ffffff" />
  <path
     d="m 192.29885,46.12385 c 1.937,-0.901 4.774,-0.901 6.845,0 0.644,0.263 1.159,0.907 1.159,1.679 0,0.648 -0.515,1.421 -1.159,1.684 -2.071,0.896 -4.909,0.896 -6.845,0 -0.644,-0.263 -1.169,-1.036 -1.169,-1.684 0,-0.772 0.525,-1.416 1.169,-1.679 l -1.292,-4.002 1.292,4.002 m -1.293,-4.002 c 1.55,-4.13 6.067,-6.716 10.455,-5.938 v -4.136 c -4.259,-0.381 -9.039,1.679 -11.748,4.914 -2.709,3.224 -3.744,8.385 -2.452,12.526 0.386,1.545 1.808,3.101 3.358,3.739 2.972,1.422 7.36,1.422 10.46,0 2.065,-0.896 3.615,-3.224 3.615,-5.423 0,-2.323 -1.55,-4.522 -3.615,-5.424 -2.842,-1.421 -7.106,-1.421 -10.073,-0.258 z"
     id="path3920"
     style="fill:#ffffff" />
  <path
     d="m 53.04985,207.10985 -20.658,-20.664 16.528,3.616 v -12.144 h 8.137 v 12.144 l 16.656,-3.616 -20.663,20.664"
     id="polyline3922"
     style="fill:#ffffff" />
  <path
     d="m 296.15885,207.10985 -20.663,-20.664 16.661,3.616 v -12.144 h 8.128 v 12.144 l 16.538,-3.616 -20.664,20.664"
     id="polyline3924"
     style="fill:#ffffff" />
  <path
     d="m 0.13185,210.12485 c 0,14.851 12.268,27.122 27.122,27.122 h 294.701 c 14.851,0 27.122,-12.271 27.122,-27.122 v -182.871 c 0,-14.854 -12.271,-27.122 -27.122,-27.122 h -294.7 c -14.854,0 -27.122,12.268 -27.122,27.122 z"
     id="path3926"
     style="fill:none;stroke:#1d2d28;stroke-width:0.2637;stroke-miterlimit:2.613" />
  <path
     d="m 233.43685,128.03485 h 11.11 l 1.679,-3.359 h -11.238 l -1.551,3.359"
     id="polyline3954"
     style="fill:#ffffff" />
  <path
     d="m 85.60685,139.59385 3.507,-8.599 3.342,8.599 h -6.849 l -9.873,10.999 9.873,-10.999 m -9.873,10.999 h 5.413 l 2.39,-5.893 h 10.991 l 2.39,5.893 h 5.578 l -10.832,-26.771 h -5.261 z"
     id="path3956"
     style="fill:#ffffff" />
  <path
     d="m 142.64585,141.84785 c -1.025,2.191 -3.61,3.62 -6.062,3.355 -2.462,-0.257 -4.651,-2.06 -5.429,-4.388 -0.777,-2.452 -0.777,-6.067 0,-8.652 0.778,-2.321 2.967,-4.131 5.429,-4.389 2.452,-0.258 5.037,1.159 6.062,3.354 l 4.651,-2.322 c -1.932,-4.002 -6.711,-6.582 -11.104,-6.201 -4.388,0.392 -8.652,3.744 -9.94,8.014 -1.035,3.482 -1.035,8.385 0,11.748 1.288,4.26 5.418,7.746 9.94,8.14 4.394,0.387 9.173,-2.322 11.104,-6.329 l -4.651,-2.33"
     id="path3958"
     style="fill:#ffffff" />
  <path
     d="m 165.12285,135.39385 c 1.931,2.581 1.931,6.325 0,8.91 -0.387,0.645 -1.164,1.164 -1.937,1.164 -0.778,0 -1.685,-0.521 -2.071,-1.164 -1.931,-2.585 -1.931,-6.329 0,-8.91 0.386,-0.646 1.293,-1.163 2.071,-1.163 0.773,0 1.55,0.52 1.937,1.163 l 4.13,-2.972 -4.13,2.972 m 4.13,-2.972 c -1.292,-1.805 -3.873,-3.103 -6.067,-3.103 -2.328,0 -4.914,1.298 -6.201,3.103 -3.101,4.389 -3.101,10.59 0,14.854 1.288,1.803 3.873,3.229 6.201,3.229 2.194,0 4.774,-1.429 6.067,-3.229 3.095,-4.264 3.095,-10.465 0,-14.854 z"
     id="path3960"
     style="fill:#ffffff" />
  <path
     d="m 180.74885,150.37785 h 5.166 v -11.371 c -0.129,-1.153 0.521,-2.58 1.421,-3.357 1.031,-0.639 2.452,-0.896 3.616,-0.381 l 2.452,-4.398 c -2.066,-1.152 -5.166,-1.417 -7.489,-0.382 v -0.515 h -5.166 v 20.404"
     id="path3962"
     style="fill:#ffffff" />
  <path
     d="m 202.44285,129.97085 v 12.14 c 0,2.838 1.812,5.812 4.13,7.226 2.457,1.424 5.943,1.424 8.396,0.136 v 0.905 h 5.171 v -20.404 h -5.171 v 11.359 c 0,1.938 -1.674,3.616 -3.615,3.616 -2.061,0 -3.745,-1.68 -3.745,-3.616 v -11.359 l -5.166,-0.003"
     id="path3964"
     style="fill:#ffffff" />
  <path
     d="m 230.97985,150.37785 h 5.172 v -11.371 c 0,-2.064 1.674,-3.61 3.61,-3.61 2.07,0 3.749,1.546 3.749,3.61 v 11.371 h 5.037 v -11.371 c 0.129,-2.84 -1.422,-6.066 -3.873,-7.617 -2.457,-1.674 -5.938,-1.805 -8.523,-0.521 v -0.896 h -5.172 v 20.405"
     id="path3966"
     style="fill:#ffffff" />
  <path
     d="m 268.94885,144.56185 c -1.545,0.778 -3.873,1.159 -5.68,0.906 -0.902,-0.128 -1.674,-1.035 -1.674,-1.941 0,-1.03 0.771,-1.937 1.674,-2.065 1.807,-0.263 4.135,0.131 5.68,0.906 v 2.194 l 5.172,5.813 -5.172,-5.813 m 5.172,5.816 v -12.66 c -0.263,-4.646 -4.522,-8.396 -9.302,-8.135 -2.065,0.131 -4.903,1.035 -6.587,2.194 l 2.714,4.126 c 1.03,-0.768 2.714,-1.288 3.873,-1.417 1.55,-0.129 3.229,0.521 4.002,1.809 0,0.13 0.128,0.259 0.128,0.388 v 1.035 c -1.803,-0.646 -4.512,-1.035 -6.453,-0.777 -3.1,0.521 -5.557,3.486 -5.557,6.587 0,3.103 2.457,6.072 5.557,6.587 1.941,0.266 4.65,-0.128 6.453,-0.775 v 1.041 h 5.172 z"
     id="path3968"
     style="fill:#ffffff" />
  <path
     d="m 121.53785,105.24985 h -4.371 l -7.502,-20.832 h 4.371 l 5.332,14.631999 5.084,-14.631999 h 4.309 z"
     id="path3974"
     style="fill:#ffffff" />
  <path
     d="m 133.78285,105.24985 v -15.16 h 4.154 v 15.159 z m 4.092,-19.097 c 0,0.538 -0.197,1.013 -0.589,1.426 -0.393,0.414 -0.879,0.62 -1.457,0.62 -0.538,0 -1.003,-0.207 -1.395,-0.62 -0.393,-0.413 -0.589,-0.888 -0.589,-1.426 0,-0.599 0.196,-1.09 0.589,-1.472 0.392,-0.382 0.857,-0.574 1.395,-0.574 0.578,0 1.064,0.191 1.457,0.574 0.392,0.383 0.589,0.873 0.589,1.472 z"
     id="path3976"
     style="fill:#ffffff" />
  <path
     d="m 146.24485,105.24985 v -19.53 l 4.154,-1.612 v 21.142 z"
     id="path3978"
     style="fill:#ffffff" />
  <path
     d="m 158.70685,105.24985 v -19.53 l 4.154,-1.612 v 21.142 z"
     id="path3980"
     style="fill:#ffffff" />
  <path
     d="m 179.04285,105.24985 v -0.495 c -0.724,0.289 -1.426,0.479 -2.108,0.572 -0.682,0.094 -1.312,0.141 -1.891,0.141 -0.848,0 -1.623,-0.124 -2.325,-0.372 -0.703,-0.248 -1.313,-0.601 -1.829,-1.055 -0.517,-0.454 -0.915,-0.997 -1.193,-1.626 -0.279,-0.63 -0.418,-1.317 -0.418,-2.062 0,-0.785001 0.16,-1.508001 0.48,-2.170001 0.32,-0.660999 0.759,-1.234999 1.317,-1.720999 0.558,-0.485 1.219,-0.868 1.984,-1.147 0.765,-0.279 1.591,-0.418 2.48,-0.418 0.434,0 0.971,0.042 1.612,0.124 0.64,0.083 1.271,0.238 1.891,0.465 -0.042,-0.723 -0.31,-1.245 -0.806,-1.565 -0.496,-0.32 -1.127,-0.48 -1.891,-0.48 -1.447,0 -2.883,0.393 -4.309,1.178 l -1.519,-3.286 c 0.558,-0.289 1.08,-0.537 1.565,-0.744 0.485,-0.206 0.961,-0.372 1.426,-0.496 0.465,-0.124 0.924,-0.217 1.379,-0.279 0.454,-0.062 0.94,-0.093 1.457,-0.093 2.087,0 3.715,0.511 4.882,1.534 1.167,1.023 1.751,2.599 1.751,4.728 v 9.269 z m 0,-6.107001 c -0.62,-0.227 -1.255,-0.398 -1.906,-0.512 -0.651,-0.113 -1.184,-0.17 -1.597,-0.17 -0.662,0 -1.214,0.16 -1.658,0.48 -0.445,0.321 -0.667,0.718 -0.667,1.193001 0,0.476 0.268,0.889 0.806,1.24 0.537,0.352 1.167,0.527 1.891,0.527 0.434,0 0.915,-0.051 1.441,-0.155 0.527,-0.103 1.09,-0.32 1.689,-0.651 z"
     id="path3982"
     style="fill:#ffffff" />
  <path
     d="m 191.28685,105.24985 v -19.53 l 4.154,-1.612 v 21.142 z"
     id="path3984"
     style="fill:#ffffff" />
  <path
     d="m 217.45085,97.59185 c 0,1.053999 -0.176,2.061999 -0.527,3.023 -0.352,0.961 -0.822,1.798 -1.411,2.51 -0.589,0.714 -1.276,1.282 -2.062,1.705 -0.786,0.425 -1.612,0.637 -2.48,0.637 -0.6,0 -1.168,-0.072 -1.705,-0.218 -0.538,-0.145 -0.992,-0.393 -1.364,-0.743 v 0.743 h -4.154 v -19.53 l 4.154,-1.612 v 6.634 c 0.434,-0.352 0.904,-0.609 1.41,-0.775 0.506,-0.165 1.028,-0.248 1.566,-0.248 0.888,0 1.736,0.212 2.542,0.635 0.806,0.424 1.503,0.998 2.092,1.721 0.589,0.724 1.059,1.561 1.411,2.511 0.353,0.951 0.528,1.954 0.528,3.007 z m -4.154,0 c 0,-0.537 -0.078,-1.043 -0.232,-1.519 -0.155,-0.476 -0.367,-0.894 -0.636,-1.256 -0.269,-0.361 -0.584,-0.646 -0.945,-0.853 -0.362,-0.206 -0.75,-0.31 -1.163,-0.31 -0.517,0 -0.977,0.114 -1.379,0.341 -0.403,0.228 -0.75,0.6 -1.039,1.116 v 4.96 c 0.289,0.517 0.63,0.889 1.023,1.116 0.392,0.228 0.826,0.341 1.302,0.341 0.434,0 0.842,-0.103 1.225,-0.31 0.382,-0.207 0.708,-0.485 0.977,-0.837 0.269,-0.351 0.48,-0.764001 0.636,-1.240001 0.154,-0.473 0.231,-0.991 0.231,-1.548999 z"
     id="path3986"
     style="fill:#ffffff" />
  <path
     d="m 231.74185,105.24985 v -0.495 c -0.724,0.289 -1.426,0.479 -2.108,0.572 -0.682,0.094 -1.312,0.141 -1.891,0.141 -0.848,0 -1.623,-0.124 -2.325,-0.372 -0.703,-0.248 -1.313,-0.601 -1.829,-1.055 -0.517,-0.454 -0.915,-0.997 -1.193,-1.626 -0.279,-0.63 -0.418,-1.317 -0.418,-2.062 0,-0.785001 0.16,-1.508001 0.48,-2.170001 0.32,-0.660999 0.759,-1.234999 1.317,-1.720999 0.558,-0.485 1.219,-0.868 1.984,-1.147 0.765,-0.279 1.591,-0.418 2.48,-0.418 0.434,0 0.971,0.042 1.612,0.124 0.64,0.083 1.271,0.238 1.891,0.465 -0.042,-0.723 -0.31,-1.245 -0.806,-1.565 -0.496,-0.32 -1.127,-0.48 -1.891,-0.48 -1.447,0 -2.883,0.393 -4.309,1.178 l -1.519,-3.286 c 0.558,-0.289 1.08,-0.537 1.565,-0.744 0.485,-0.206 0.961,-0.372 1.426,-0.496 0.465,-0.124 0.924,-0.217 1.379,-0.279 0.454,-0.062 0.94,-0.093 1.457,-0.093 2.087,0 3.715,0.511 4.882,1.534 1.167,1.023 1.751,2.599 1.751,4.728 v 9.269 z m 0,-6.107001 c -0.62,-0.227 -1.255,-0.398 -1.906,-0.512 -0.651,-0.113 -1.184,-0.17 -1.597,-0.17 -0.662,0 -1.214,0.16 -1.658,0.48 -0.445,0.321 -0.667,0.718 -0.667,1.193001 0,0.476 0.268,0.889 0.806,1.24 0.537,0.352 1.167,0.527 1.891,0.527 0.434,0 0.915,-0.051 1.441,-0.155 0.527,-0.103 1.09,-0.32 1.689,-0.651 z"
     id="path3988"
     style="fill:#ffffff" />
  <path
     d="m 560.47805,205.26397 c -0.0764,17.76094 -3.72017,32.20554 -24.36105,32.15688 l -160.43688,-0.37837 c 7.34916,0.35376 -20.25632,6.41256 -20.19537,-23.45466 L 355.8631,28.177983 C 355.8993,10.416912 367.14754,2.0673716 380.59875,2.0673716 h 155.89662 c 13.45308,0 24.81578,9.4847434 24.7394,27.2456884 z"
     id="path3217"
     style="fill:#000080;stroke-width:0.999997"
     sodipodi:nodetypes="sscssssss" />
  <path
     d="m 558.58628,213.36735 c -0.16343,13.45669 -10.90721,24.43441 -24.36106,24.36542 l -147.57277,-0.75671 c -13.45197,-0.069 -30.41099,-5.23333 -30.41099,-18.69007 V 26.438436 c 0,-13.457674 10.90608,-24.3710644 24.35729,-24.3710644 h 155.89662 c 13.45308,0 24.52446,10.9143784 24.36105,24.3710644 z"
     id="path3219"
     style="fill:none;stroke:#1c1d20;stroke-width:0.8;stroke-miterlimit:3.864"
     sodipodi:nodetypes="sssssssss" />
  <path
     d="m 553.71218,214.50243 c 0,10.76106 -8.72467,19.48838 -19.48696,19.48838 H 378.3286 c -10.76227,0 -19.48507,-8.72638 -19.48507,-19.48838 V 93.029246 c 0,-10.764824 8.7228,-19.490259 19.48507,-19.490259 h 155.89662 c 10.76229,0 19.48696,8.724495 19.48696,19.490259 z"
     id="path3243"
     style="fill:none;stroke:#ffffff;stroke-width:4;stroke-miterlimit:3.864"
     sodipodi:nodetypes="sssssssss" />
  <path
     d="m 457.05897,191.55506 6.29155,6.41717 6.80046,-10.52898 -0.20886,21.53432 -21.5271,-0.2063 10.65807,-6.6019 -10.73586,-10.60175 4.27743,-4.19716"
     id="polyline3245"
     style="fill:#ffffff;stroke-width:0.999997"
     sodipodi:nodetypes="cccccccc" />
  <path
     d="m 477.78608,105.32375 h 4.45706 v 2.54574 h -4.45706 z"
     id="path3287"
     style="fill:#ffffff;stroke-width:0.999997" />
  <text
     xml:space="preserve"
     style="font-size:38.6689px;line-height:22.6576px;font-family:'Andale Mono IPA';-inkscape-font-specification:'Andale Mono IPA';letter-spacing:0px;word-spacing:0px;fill:#ffffff;fill-opacity:1;stroke:none;stroke-width:0.999997px;stroke-linecap:butt;stroke-linejoin:miter;stroke-opacity:1"
     x="362.08228"
     y="175.76256"
     id="text4113"
     transform="scale(1.067666,0.9366225)"><tspan
       sodipodi:role="line"
       id="tspan4111"
       x="362.08228"
       y="175.76256"
       style="font-style:normal;font-variant:normal;font-weight:normal;font-stretch:normal;font-size:38.6689px;font-family:'Highway Gothic';-inkscape-font-specification:'Highway Gothic';fill:#ffffff;fill-opacity:1;stroke:none;stroke-width:0.999997px">València</tspan></text>
  <rect
     style="display:inline;fill:#000080;stroke:#ffffff;stroke-width:1.99999;stroke-linecap:round;stroke-linejoin:round;stroke-miterlimit:2.613;stroke-dasharray:none;stroke-opacity:1"
     id="rect5280"
     width="54.281429"
     height="28.312031"
     x="473.43765"
     y="93.957787" />
  <text
     xml:space="preserve"
     style="font-size:28.1783px;line-height:16.5108px;font-family:'Highway Gothic Wide';-inkscape-font-specification:'Highway Gothic Wide';letter-spacing:0px;word-spacing:0px;display:inline;fill:none;stroke:#000000;stroke-width:0.999997px;stroke-linecap:butt;stroke-linejoin:miter;stroke-opacity:1"
     x="479.6449"
     y="117.76785"
     id="text5284"
     transform="scale(0.99551618,1.004504)"><tspan
       sodipodi:role="line"
       id="tspan5282"
       x="479.6449"
       y="117.76785"
       style="font-style:normal;font-variant:normal;font-weight:normal;font-stretch:normal;font-family:'Highway Gothic Wide';-inkscape-font-specification:'Highway Gothic Wide';fill:#ffffff;fill-opacity:1;stroke:none;stroke-width:0.999997px">A-3</tspan></text>
  <path
     d="m 386.25306,105.80797 h 4.45705 v 2.54574 h -4.45705 z"
     id="path3287-6"
     style="fill:#ffffff;stroke-width:0.999997" />
  <rect
     style="display:inline;fill:#008000;stroke:#ffffff;stroke-width:2;stroke-linecap:round;stroke-linejoin:round;stroke-miterlimit:2.613;stroke-dasharray:none;stroke-opacity:1"
     id="rect5280-7"
     width="83.793213"
     height="28.312031"
     x="381.9046"
     y="94.442024" />
  <text
     xml:space="preserve"
     style="font-size:28.1783px;line-height:16.5108px;font-family:'Highway Gothic Wide';-inkscape-font-specification:'Highway Gothic Wide';letter-spacing:0px;word-spacing:0px;display:inline;fill:none;stroke:#000000;stroke-width:0.999997px;stroke-linecap:butt;stroke-linejoin:miter;stroke-opacity:1"
     x="387.69955"
     y="118.2499"
     id="text5284-9"
     transform="scale(0.99551618,1.004504)"><tspan
       sodipodi:role="line"
       id="tspan5282-3"
       x="387.69955"
       y="118.2499"
       style="font-style:normal;font-variant:normal;font-weight:normal;font-stretch:normal;font-family:'Highway Gothic Wide';-inkscape-font-specification:'Highway Gothic Wide';fill:#ffffff;fill-opacity:1;stroke:none;stroke-width:0.999997px">E-901</tspan></text>
  <path
     d="M 364.50834,47.576216 V 26.258753 c 0,-8.120791 5.72216,-14.921127 12.55069,-14.921127 h 161.96802 c 6.91379,0 12.54607,6.801121 12.54607,14.921127 v 21.317463 c 0,8.120781 -5.63228,14.917186 -12.54607,14.917186 H 377.05903 c -6.82853,0 -12.55069,-6.796405 -12.55069,-14.917186 h -3.58082 3.58082 m -3.58082,0 c 0,10.452017 7.33875,19.184286 16.13151,19.184286 h 161.96802 c 8.79276,0 16.13085,-8.731484 16.13085,-19.184286 V 26.258753 c 0,-10.460663 -7.33875,-19.1882271 -16.13085,-19.1882271 H 377.05903 c -8.79276,0 -16.13151,8.7275641 -16.13151,19.1882271 z"
     id="path5608"
     style="fill:#ffffff;stroke-width:0.999997" />
  <g
     id="g5651"
     transform="matrix(0.53249244,0,0,0.53249352,349.73723,-13.480415)"
     style="stroke-width:1.87796">
    <path
       d="M 53.950398,130.92797 H 81.72097 l 2.616542,-67.631163 h -8.05066 L 53.950398,130.92797"
       id="polyline5612"
       style="fill:#ffffff;stroke-width:1.87796" />
    <path
       d="m 91.185094,130.92797 h 27.561746 l -10.05787,-31.800578 20.323,-22.947344 6.64656,16.099763 V 63.296807 h -28.98301 l 16.30859,6.646548 -19.7277,12.280143 -6.035656,-18.926691 h -8.05066 l 2.015,67.631163"
       id="polyline5614"
       style="fill:#ffffff;stroke-width:1.87796" />
  </g>
  <text
     xml:space="preserve"
     style="font-size:28.1783px;line-height:16.5108px;font-family:'Highway Gothic Wide';-inkscape-font-specification:'Highway Gothic Wide';letter-spacing:0px;word-spacing:0px;display:inline;fill:none;stroke:#000000;stroke-width:0.999997px;stroke-linecap:butt;stroke-linejoin:miter;stroke-opacity:1"
     x="482.68402"
     y="46.72459"
     id="text5284-6"
     transform="scale(0.99551618,1.004504)"><tspan
       sodipodi:role="line"
       id="tspan5282-9"
       x="482.68402"
       y="46.72459"
       style="font-style:normal;font-variant:normal;font-weight:normal;font-stretch:normal;font-family:'Highway Gothic Wide';-inkscape-font-specification:'Highway Gothic Wide';fill:#ffffff;fill-opacity:1;stroke:none;stroke-width:0.999997px">240</tspan></text>
</svg>
