<?xml version="1.0" encoding="UTF-8" standalone="no"?>
<!-- Created with Inkscape (http://www.inkscape.org/) -->

<svg
   xmlns:dc="http://purl.org/dc/elements/1.1/"
   xmlns:cc="http://creativecommons.org/ns#"
   xmlns:rdf="http://www.w3.org/1999/02/22-rdf-syntax-ns#"
   xmlns:svg="http://www.w3.org/2000/svg"
   xmlns="http://www.w3.org/2000/svg"
   xmlns:xlink="http://www.w3.org/1999/xlink"
   version="1.2"
   width="151.34375"
   height="226.625"
   id="svg2">
  <metadata
     id="metadata3362">
    <rdf:RDF>
      <cc:Work
         rdf:about="">
        <dc:format>image/svg+xml</dc:format>
        <dc:type
           rdf:resource="http://purl.org/dc/dcmitype/StillImage" />
        <dc:title></dc:title>
      </cc:Work>
    </rdf:RDF>
  </metadata>
  <defs
     id="defs3360" />
  <g
     id="Capa_1">
    <path
       d="m 150.955,217.876 c 0,4.609 -3.742,8.359 -8.363,8.359 H 8.763 c -4.619,0 -8.363,-3.75 -8.363,-8.359 V 8.763 C 0.4,4.15 4.144,0.4 8.763,0.4 h 133.828 c 4.621,0 8.363,3.75 8.363,8.363 v 209.113 z"
       id="path3334"
       style="fill:#ffffff" />
    <path
       d="m 150.955,217.876 c 0,4.609 -3.742,8.359 -8.363,8.359 H 8.763 c -4.619,0 -8.363,-3.75 -8.363,-8.359 V 8.763 C 0.4,4.15 4.144,0.4 8.763,0.4 h 133.828 c 4.621,0 8.363,3.75 8.363,8.363 v 209.113 z"
       id="path3336"
       style="fill:none;stroke:#1c1c20;stroke-width:0.80000001;stroke-miterlimit:3.86400008" />
    <g
       id="g3338">
      <defs
         id="defs3340">
        <path
           d="m 147.275,8.763 c 0,-2.582 -2.094,-4.684 -4.684,-4.684 H 8.763 c -2.588,0 -4.684,2.102 -4.684,4.684 v 209.113 c 0,2.582 2.096,4.68 4.684,4.68 h 133.828 c 2.59,0 4.684,-2.098 4.684,-4.68 V 8.763"
           id="XMLID_1_" />
      </defs>
      <use
         id="use3343"
         style="fill:#003f8a"
         x="0"
         y="0"
         width="450"
         height="450"
         xlink:href="#XMLID_1_" />
      <clipPath
         id="XMLID_37_">
        <use
           id="use3346"
           x="0"
           y="0"
           width="450"
           height="450"
           xlink:href="#XMLID_1_" />
      </clipPath>
      <path
         d="m 86.552,30.017 -6.691,0 4.183,156.91 26.762,0 -24.254,-156.91"
         clip-path="url(#XMLID_37_)"
         id="polyline3348"
         style="fill:#ffffff" />
      <path
         d="m 64.804,30.017 6.692,0 -4.184,156.91 -26.764,0 24.256,-156.91"
         clip-path="url(#XMLID_37_)"
         id="polyline3350"
         style="fill:#ffffff" />
      <path
         d="m 21.312,91.908 m 108.732,0 H 21.308 V 80.197 h 108.736 v 11.711 z"
         clip-path="url(#XMLID_37_)"
         id="path3352"
         style="fill:#003f8a" />
      <path
         d="m 27.164,83.541 0,5.023 15.056,0 0,9.195 6.692,0 0,-9.195 53.535,0 0,9.195 6.687,0 0,-9.195 15.059,0 0,-5.023 -97.029,0"
         clip-path="url(#XMLID_37_)"
         id="polyline3354"
         style="fill:#ffffff" />
      <path
         d="M 2.892,219.294 2.21,198.283 134.49,2.134 l 9.07,-0.508 6,5.668 -0.098,20.512 -132.535,196.524 -7.701,0.296 -6.334,-5.332"
         clip-path="url(#XMLID_37_)"
         id="polyline3356"
         style="fill:#e50002" />
    </g>
  </g>
</svg>
