<?xml version="1.0" encoding="UTF-8" standalone="no"?>
<!-- Created with Inkscape (http://www.inkscape.org/) -->

<svg
   xmlns:dc="http://purl.org/dc/elements/1.1/"
   xmlns:cc="http://creativecommons.org/ns#"
   xmlns:rdf="http://www.w3.org/1999/02/22-rdf-syntax-ns#"
   xmlns:svg="http://www.w3.org/2000/svg"
   xmlns="http://www.w3.org/2000/svg"
   version="1.2"
   width="188.96875"
   height="283.03125"
   id="svg2">
  <metadata
     id="metadata3192">
    <rdf:RDF>
      <cc:Work
         rdf:about="">
        <dc:format>image/svg+xml</dc:format>
        <dc:type
           rdf:resource="http://purl.org/dc/dcmitype/StillImage" />
        <dc:title></dc:title>
      </cc:Work>
    </rdf:RDF>
  </metadata>
  <defs
     id="defs3190" />
  <g
     id="g3200">
    <path
       d="m 188.554,272.166 c 0,5.773 -4.688,10.453 -10.461,10.453 H 10.855 C 5.08,282.619 0.4,277.939 0.4,272.166 V 10.857 C 0.4,5.08 5.08,0.4 10.855,0.4 h 167.238 c 5.773,0 10.461,4.68 10.461,10.457 v 261.309 z"
       id="path3178"
       style="fill:#ffffff" />
    <path
       d="m 188.554,272.166 c 0,5.773 -4.688,10.453 -10.461,10.453 H 10.855 C 5.08,282.619 0.4,277.939 0.4,272.166 V 10.857 C 0.4,5.08 5.08,0.4 10.855,0.4 h 167.238 c 5.773,0 10.461,4.68 10.461,10.457 v 261.309 z"
       id="path3180"
       style="fill:none;stroke:#1c1d20;stroke-width:0.80000001;stroke-miterlimit:3.86400008" />
    <path
       d="m 183.953,10.857 c 0,-3.24 -2.625,-5.861 -5.859,-5.861 H 10.855 C 7.619,4.996 5,7.617 5,10.857 v 261.309 c 0,3.238 2.619,5.859 5.855,5.859 h 167.238 c 3.234,0 5.859,-2.621 5.859,-5.859 V 10.857"
       id="path3182"
       style="fill:#19408b" />
    <path
       d="m 31.763,157.189 m 125.428,0 H 31.763 V 31.755 h 125.428 v 125.434 z"
       id="path3184"
       style="fill:#ffffff" />
    <path
       d="m 77.228,50.052 0,27.176 -27.176,0 0,34.492 27.176,0 0,27.18 34.498,0 0,-27.18 27.172,0 0,-34.492 -27.172,0 0,-27.176 -34.498,0"
       id="polyline3186"
       style="fill:#e41408" />
  </g>
</svg>
