<?xml version="1.0" encoding="UTF-8" standalone="no"?>
<!-- Created with Inkscape (http://www.inkscape.org/) -->

<svg
   xmlns:dc="http://purl.org/dc/elements/1.1/"
   xmlns:cc="http://creativecommons.org/ns#"
   xmlns:rdf="http://www.w3.org/1999/02/22-rdf-syntax-ns#"
   xmlns:svg="http://www.w3.org/2000/svg"
   xmlns="http://www.w3.org/2000/svg"
   version="1.2"
   width="492.59375"
   height="372.23276"
   id="svg2">
  <metadata
     id="metadata4640">
    <rdf:RDF>
      <cc:Work
         rdf:about="">
        <dc:format>image/svg+xml</dc:format>
        <dc:type
           rdf:resource="http://purl.org/dc/dcmitype/StillImage" />
        <dc:title></dc:title>
      </cc:Work>
    </rdf:RDF>
  </metadata>
  <defs
     id="defs4638" />
  <g
     id="g4751">
    <path
       d="m 492.44875,27.23975 c 0,-14.85 -12.269,-27.122 -27.116,-27.122 h -438.064 c -14.849,0 -27.122,12.272 -27.122,27.122 v 317.871 c 0,14.854 12.273,27.122 27.122,27.122 h 438.064 c 14.849,0 27.116,-12.268 27.116,-27.122 v -317.871"
       id="path4520"
       style="fill:#19408b" />
    <path
       d="M 492.44875,24.23975"
       id="path4522"
       style="fill:none;stroke:#ffffff;stroke-width:0.26370001;stroke-miterlimit:2.61299992" />
    <path
       d="m 492.44875,27.23975 c 0,-14.85 -12.269,-27.122 -27.116,-27.122 h -438.064 c -14.849,0 -27.122,12.272 -27.122,27.122"
       id="path4524"
       style="fill:none;stroke:#ffffff;stroke-width:0.26370001;stroke-miterlimit:2.61299992" />
    <path
       d="m 484.32675,226.98875 v 30.122 c 0,10.332 -8.658,18.984 -18.99,18.984 h -438.068 c -10.461,0 -18.983,-8.653 -18.983,-18.984 v -30.122 c 0,-10.332 8.522,-18.979 18.983,-18.979 h 438.068 c 10.332,0 18.99,8.646 18.99,18.979 h 5.418 -5.418 m 5.418,0 c 0,-13.298 -11.104,-24.408 -24.408,-24.408 h -438.068 c -13.304,0 -24.407,11.109 -24.407,24.408 v 30.122 c 0,13.309 11.104,24.413 24.407,24.413 h 438.068 c 13.304,0 24.408,-11.104 24.408,-24.413 v -30.122 l 0,0 z"
       id="path4526"
       style="fill:#ffffff" />
    <path
       d="m 484.32675,310.98875 v 34.122 c 0,10.332 -8.658,18.984 -18.99,18.984 h -438.068 c -10.461,0 -18.983,-8.653 -18.983,-18.984 v -34.122 c 0,-10.332 8.522,-18.979 18.983,-18.979 h 438.068 c 10.332,0 18.99,8.646 18.99,18.979 h 5.418 -5.418 m 5.418,0 c 0,-13.298 -11.104,-24.408 -24.408,-24.408 h -438.068 c -13.304,0 -24.407,11.109 -24.407,24.408 v 34.122 c 0,13.309 11.104,24.413 24.407,24.413 h 438.068 c 13.304,0 24.408,-11.104 24.408,-24.413 v -34.122 l 0,0 z"
       id="path4528"
       style="fill:#ffffff" />
    <path
       d="m 484.31175,27.23975 v 145.505 c 0,10.33 -8.522,18.989 -18.979,18.989 h -438.064 c -10.461,0 -18.983,-8.659 -18.983,-18.989 v -145.505 c 0,-10.331 8.522,-18.984 18.983,-18.984 h 438.064 c 10.455,0 18.979,8.653 18.979,18.984 h 5.429 -5.429 m 5.428,0 c 0,-13.304 -11.109,-24.412 -24.407,-24.412 h -438.064 c -13.304,0 -24.407,11.108 -24.407,24.412 v 145.505 c 0,13.308 11.104,24.413 24.407,24.413 h 438.064 c 13.298,0 24.407,-11.104 24.407,-24.413 v -145.505 z"
       id="path4530"
       style="fill:#ffffff" />
    <path
       d="m 457.043,68.854 -9.67,48.217 -12.321,-18.568 -30.278,34.012 -11.541,-11.542 34.165,-30.28 -18.722,-12.164 48.367,-9.675"
       transform="translate(-0.78125,0.09375)"
       id="polyline4532"
       style="fill:#ffffff" />
    <path
       d="m 43.783749,111.00975 55.352001,0 0,55.351 -55.352001,0 z"
       id="rect4536"
       style="fill:#ffffff" />
    <path
       d="m 65.62275,119.31775 c -1.43,0 -1.351,1.352 -1.351,1.352 v 2.385 h -2.466 c -1.271,0 -1.191,1.192 -1.191,1.192 v 14.906 l 1.034,1.71 1.51,1.112 1.271,13.435 h -11.738 v 2.704 h 40.969 v -2.704 h -12.64 l 1.271,-13.435 1.511,-1.112 1.033,-1.431 v -15.185 c 0,0 0.08,-1.192 -1.191,-1.192 h -2.466 v -2.385 c 0,0 0.08,-1.352 -1.351,-1.352 0,-0.08 -14.205,-0.08 -14.205,0 z"
       id="path4538"
       style="fill:#1c1c20" />
    <path
       d="m 65.62275,119.31775 c -1.43,0 -1.351,1.352 -1.351,1.352 v 2.385 h -2.466 c -1.271,0 -1.191,1.192 -1.191,1.192 v 14.906 l 1.034,1.71 1.51,1.112 1.271,13.435 h -11.738 v 2.704 h 40.969 v -2.704 h -12.64 l 1.271,-13.435 1.511,-1.112 1.033,-1.431 v -15.185 c 0,0 0.08,-1.192 -1.191,-1.192 h -2.466 v -2.385 c 0,0 0.08,-1.352 -1.351,-1.352 0,-0.08 -14.205,-0.08 -14.205,0 z"
       id="path4540"
       style="fill:none;stroke:#1c1c20;stroke-width:0.0904;stroke-miterlimit:3.86400008" />
    <path
       d="m 64.193748,126.39375 17.066,0 0,10.415 -17.066,0 z"
       id="rect4542"
       style="fill:#ffffff" />
    <path
       d="m 64.193748,126.39375 17.066,0 0,10.415 -17.066,0 z"
       id="rect4544"
       style="fill:none;stroke:#1c1c20;stroke-width:0.0904;stroke-miterlimit:3.86400008" />
    <path
       d="m 60.78775,138.79575 -4.292,10.971 c 0,0 -1.869,3.499 -4.969,2.027 0,0.04 -3.22,-1.034 -1.988,-4.888 -0.04,-0.04 4.293,-11.647 4.293,-11.647 v -2.385 l 2.385,-6.399 h 0.875 c 0,0 1.192,-4.174 3.14,-4.016 0.039,-0.04 0.796,0.119 0.198,0.557 0,-0.08 -2.543,1.272 -2.186,3.657 -0.04,0 1.353,2.227 1.353,2.227 v 0.555 h 1.351 l -0.16,9.341 z"
       id="path4546"
       style="fill:#1c1c20" />
    <path
       d="m 60.78775,138.79575 -4.292,10.971 c 0,0 -1.869,3.499 -4.969,2.027 0,0.04 -3.22,-1.034 -1.988,-4.888 -0.04,-0.04 4.293,-11.647 4.293,-11.647 v -2.385 l 2.385,-6.399 h 0.875 c 0,0 1.192,-4.174 3.14,-4.016 0.039,-0.04 0.796,0.119 0.198,0.557 0,-0.08 -2.543,1.272 -2.186,3.657 -0.04,0 1.353,2.227 1.353,2.227 v 0.555 h 1.351 l -0.16,9.341 z"
       id="path4548"
       style="fill:none;stroke:#1c1c20;stroke-width:0.0904;stroke-miterlimit:3.86400008" />
    <path
       d="m 57.36975,132.83275 -0.676,1.391 -0.834,0.637 -4.571,12.6 c 0,0 -0.676,2.029 0.875,2.664 -0.08,0.039 1.75,0.835 2.544,-1.111 -0.08,0 5.525,-14.471 5.525,-14.471 0,0 -0.755,-0.715 -0.635,-1.749 0.039,0 -0.875,0 -0.875,0 0,0 -1.232,0.755 -1.153,4.85 0.039,-0.04 -0.675,0 -0.675,0 0,0 0.04,-3.735 1.033,-4.81 h -0.558 z"
       id="path4550"
       style="fill:#ffffff;fill-rule:evenodd" />
    <path
       d="m 57.36975,132.83275 -0.676,1.391 -0.834,0.637 -4.571,12.6 c 0,0 -0.676,2.029 0.875,2.664 -0.08,0.039 1.75,0.835 2.544,-1.111 -0.08,0 5.525,-14.471 5.525,-14.471 0,0 -0.755,-0.715 -0.635,-1.749 0.039,0 -0.875,0 -0.875,0 0,0 -1.232,0.755 -1.153,4.85 0.039,-0.04 -0.675,0 -0.675,0 0,0 0.04,-3.735 1.033,-4.81 h -0.558 z"
       id="path4552"
       style="fill:none;stroke:#1c1c20;stroke-width:0.0904;stroke-miterlimit:3.86400008" />
    <path
       d="m 128.79875,111.00975 55.352,0 0,55.351 -55.352,0 z"
       id="rect4554"
       style="fill:#ffffff" />
    <path
       d="m 165.47075,117.18675 c 0.706,0 0.662,0.573 0.662,0.573 0,0 -0.043,3.843 0,3.843 0,0.486 -0.486,0.486 -0.486,0.486 h -4.062 v 1.987 c 0,0 3.842,0.045 3.798,0 0.839,0 0.75,0.751 0.75,0.751 0,0 0,2.296 0,2.252 0,0.84 -0.795,0.795 -0.795,0.795 0,0 -0.972,0.088 -0.972,0 -3.091,0 -2.782,2.959 -2.782,2.959 v 6.139 l 1.413,1.413 c 0,0 0,19.787 0,19.744 0,0.706 -1.236,0.706 -1.236,0.706 -0.928,0 -1.37,0.575 -1.325,0.575 0,0.662 -1.281,0.795 -1.281,0.795 0,0 -1.281,-0.133 -1.281,-0.795 0.044,0 -0.397,-0.575 -1.324,-0.575 0,0 -1.237,0 -1.237,-0.706 0,0.043 0,-19.744 0,-19.744 l 1.413,-1.413 v -6.139 c 0,0 -0.22,-2.959 -3.622,-2.959 h -5.874 c 0,0 -0.354,0 -0.354,-0.486 0,0 0,-2.958 0,-2.914 0,-0.443 0.398,-0.398 0.398,-0.398 -0.045,0.045 9.451,0 9.451,0 v -1.987 h -9.539 c 0,0 -0.354,0 -0.354,-0.354 -0.045,-0.043 0,-2.606 0,-2.606 0,0 0,-0.396 0.397,-0.396 h 5.035 l 1.545,-1.546 c 0.001,0 11.618,-0.044 11.662,0 z"
       id="path4556"
       style="fill:#1c1c20" />
    <path
       d="m 165.47075,117.18675 c 0.706,0 0.662,0.573 0.662,0.573 0,0 -0.043,3.843 0,3.843 0,0.486 -0.486,0.486 -0.486,0.486 h -4.062 v 1.987 c 0,0 3.842,0.045 3.798,0 0.839,0 0.75,0.751 0.75,0.751 0,0 0,2.296 0,2.252 0,0.84 -0.795,0.795 -0.795,0.795 0,0 -0.972,0.088 -0.972,0 -3.091,0 -2.782,2.959 -2.782,2.959 v 6.139 l 1.413,1.413 c 0,0 0,19.787 0,19.744 0,0.706 -1.236,0.706 -1.236,0.706 -0.928,0 -1.37,0.575 -1.325,0.575 0,0.662 -1.281,0.795 -1.281,0.795 0,0 -1.281,-0.133 -1.281,-0.795 0.044,0 -0.397,-0.575 -1.324,-0.575 0,0 -1.237,0 -1.237,-0.706 0,0.043 0,-19.744 0,-19.744 l 1.413,-1.413 v -6.139 c 0,0 -0.22,-2.959 -3.622,-2.959 h -5.874 c 0,0 -0.354,0 -0.354,-0.486 0,0 0,-2.958 0,-2.914 0,-0.443 0.398,-0.398 0.398,-0.398 -0.045,0.045 9.451,0 9.451,0 v -1.987 h -9.539 c 0,0 -0.354,0 -0.354,-0.354 -0.045,-0.043 0,-2.606 0,-2.606 0,0 0,-0.396 0.397,-0.396 h 5.035 l 1.545,-1.546 c 0.001,0 11.618,-0.044 11.662,0 z"
       id="path4558"
       style="fill:none;stroke:#1c1c20;stroke-width:0.1006;stroke-miterlimit:3.86400008" />
    <path
       d="m 299.07874,111.08775 55.353,0 0,55.35101 -55.353,0 z"
       id="rect4560"
       style="fill:#ffffff" />
    <path
       d="m 339.30075,151.59775 c 2.915,3.722 -0.941,5.696 -0.941,5.696 -3.05,2.467 -5.293,-1.57 -5.293,-1.57 l -5.877,-11.481 c 0,0 -7.399,11.976 -7.399,11.929 -2.557,4.306 -5.875,1.57 -5.965,1.525 -3.499,-2.603 -0.045,-6.01 -0.045,-6.01 0,0 10.315,-12.245 10.315,-12.291 1.211,-1.389 -0.673,-1.389 -0.807,-1.524 -5.248,-1.121 -7.266,-4.305 -7.266,-4.26 -4.262,-5.653 -3.23,-9.42 -3.23,-9.42 1.346,-4.441 5.338,-3.05 5.294,-3.095 5.471,1.436 7.444,6.907 7.489,6.953 0.583,1.255 1.794,7.849 1.794,7.849 0,0 0.807,-1.078 1.436,-5.114 0,0.091 0.044,-2.421 2.871,-5.787 0.044,0 1.165,-1.971 4.26,-3.811 0,0 2.107,-0.942 1.212,0.896 -0.046,0.045 -4.037,5.921 -4.037,5.921 0,0 -0.134,0.269 0.135,0.451 0.09,0 0.268,0.133 0.538,-0.091 0.044,-0.09 4.217,-5.922 4.217,-5.922 0,0 0.358,-0.538 1.031,-0.179 0.558,0.52 0.278,1.091 0.278,1.091 0,0 -4.155,5.842 -4.226,5.915 -0.125,0.326 0.06,0.453 0.09,0.537 0.257,0.197 0.468,-0.018 0.468,-0.018 0,0 4.257,-5.687 4.285,-5.745 1.446,-1.448 1.241,0.853 1.241,0.853 -0.73,3.525 -2.232,5.227 -2.218,5.27 -2.261,3.767 -4.449,5.418 -6.021,6.092 -0.044,0.043 -1.21,0.223 -1.837,1.435 -0.091,0 -1.212,1.882 -1.212,1.882 0,0 9.375,12.069 9.42,12.023 z"
       id="path4562"
       style="fill:#1c1c20" />
    <path
       d="m 213.84575,111.12475 55.352,0 0,55.351 -55.352,0 z"
       id="rect4564"
       style="fill:#ffffff" />
    <path
       d="m 256.05175,132.01975 c 1.07,0 1.938,0.869 1.938,1.938 v 4.359 h -23.733 v -6.297 h 21.795 z"
       id="path4566"
       style="fill:#1c1c20" />
    <path
       d="m 256.05175,132.01975 c 1.07,0 1.938,0.869 1.938,1.938 v 4.359 h -23.733 v -6.297 h 21.795 z"
       id="path4568"
       style="fill:none;stroke:#1c1c20;stroke-width:0.0969;stroke-miterlimit:3.86400008" />
    <path
       d="m 224.08475,139.28475 h 34.874 v -5.327 c 0,-1.069 0.867,-1.938 1.937,-1.938 1.07,0 1.938,0.869 1.938,1.938 v 15.499 h -3.875 v -5.813 h -34.874 v 5.813 h -3.874 v -19.373 c 0,-1.071 0.867,-1.937 1.938,-1.937 1.07,0 1.937,0.866 1.937,1.937 v 9.201 z"
       id="path4570"
       style="fill:#1c1c20" />
    <path
       d="m 224.08475,139.28475 h 34.874 v -5.327 c 0,-1.069 0.867,-1.938 1.937,-1.938 1.07,0 1.938,0.869 1.938,1.938 v 15.499 h -3.875 v -5.813 h -34.874 v 5.813 h -3.874 v -19.373 c 0,-1.071 0.867,-1.937 1.938,-1.937 1.07,0 1.937,0.866 1.937,1.937 v 9.201 z"
       id="path4572"
       style="fill:none;stroke:#1c1c20;stroke-width:0.0969;stroke-miterlimit:3.86400008" />
    <path
       d="m 225.05475,138.31675 v -3.875 c 0,0 0.241,-2.422 4.117,-2.422 3.875,0 4.116,2.422 4.116,2.422 v 3.875 h -8.233 z"
       id="path4574"
       style="fill:#1c1c20" />
    <path
       d="m 225.05475,138.31675 v -3.875 c 0,0 0.241,-2.422 4.117,-2.422 3.875,0 4.116,2.422 4.116,2.422 v 3.875 h -8.233 z"
       id="path4576"
       style="fill:none;stroke:#1c1c20;stroke-width:0.0969;stroke-miterlimit:3.86400008" />
    <path
       d="m 68.783752,32.09375 49.434998,0 0,49.433998 -49.434998,0 z"
       id="rect4580"
       style="fill:#ffffff" />
    <path
       d="m 106.82075,62.67575 c 0,1.719 -0.422,3.332 -1.264,4.839 -0.844,1.508 -1.979,2.667 -3.405,3.477 -0.973,0.584 -2.237,1.038 -3.794,1.362 -1.556,0.324 -3.112,0.486 -4.668,0.486 -1.848,0 -3.632,-0.251 -5.35,-0.753 -1.719,-0.502 -3.292,-1.241 -4.718,-2.213 -0.519,-0.292 -0.997,-0.615 -1.435,-0.973 -0.438,-0.356 -1.03,-0.875 -1.775,-1.556 l 4.572,-4.572 c 1.361,1.265 2.731,2.173 4.109,2.724 1.378,0.552 3.023,0.827 4.937,0.827 1.88,0 3.412,-0.308 4.596,-0.924 1.183,-0.615 1.775,-1.49 1.775,-2.626 0,-0.454 -0.13,-0.956 -0.389,-1.507 -0.26,-0.552 -0.616,-0.974 -1.07,-1.265 -0.292,-0.162 -0.6,-0.316 -0.924,-0.462 -0.324,-0.146 -0.721,-0.284 -1.191,-0.414 -0.47,-0.129 -1.054,-0.267 -1.75,-0.414 -0.698,-0.146 -1.581,-0.315 -2.651,-0.51 -1.751,-0.42 -3.161,-0.818 -4.231,-1.192 -1.07,-0.372 -1.946,-0.785 -2.626,-1.24 -1.103,-0.746 -1.97,-1.766 -2.602,-3.064 -0.632,-1.297 -0.948,-2.626 -0.948,-3.987 0,-1.655 0.397,-3.193 1.191,-4.622 0.794,-1.425 1.922,-2.56 3.381,-3.404 0.908,-0.551 1.912,-0.955 3.015,-1.216 1.102,-0.259 2.383,-0.389 3.842,-0.389 1.848,0 3.606,0.211 5.277,0.633 1.669,0.421 3.186,1.054 4.547,1.897 0.356,0.227 0.657,0.429 0.9,0.607 0.243,0.18 0.624,0.48 1.142,0.9 l -3.988,5.106 c -1.329,-0.972 -2.626,-1.653 -3.891,-2.042 -1.264,-0.389 -2.674,-0.585 -4.23,-0.585 -1.493,0 -2.668,0.261 -3.527,0.779 -0.859,0.519 -1.289,1.297 -1.289,2.335 0,0.389 0.113,0.786 0.341,1.191 0.227,0.406 0.535,0.689 0.924,0.851 0.292,0.163 0.599,0.284 0.924,0.365 0.324,0.082 0.665,0.187 1.021,0.316 l 1.021,0.097 1.167,0.244 1.459,0.243 c 3.826,0.681 6.711,1.905 8.657,3.672 1.945,1.767 2.918,4.093 2.918,6.979 z"
       id="path4582"
       style="fill:#1c1c20" />
    <path
       d="m 166.67775,51.24575 c 0,1.663 -0.402,3.204 -1.204,4.623 -0.803,1.419 -1.892,2.501 -3.268,3.246 -0.43,0.229 -0.838,0.423 -1.226,0.58 -0.387,0.158 -0.789,0.28 -1.204,0.366 -0.415,0.086 -0.875,0.15 -1.376,0.193 -0.502,0.043 -1.082,0.064 -1.741,0.064 h -7.568 v 10.836 h -5.676 v -28.895 h 13.545 c 1.204,0 2.178,0.087 2.924,0.259 0.745,0.172 1.519,0.487 2.322,0.945 1.376,0.804 2.465,1.893 3.268,3.269 0.803,1.376 1.204,2.881 1.204,4.514 z m -5.676,0 c 0,-0.917 -0.337,-1.684 -1.01,-2.301 -0.674,-0.615 -1.556,-0.924 -2.645,-0.924 h -8.256 v 6.536 h 8.256 c 1.118,0 2.006,-0.302 2.666,-0.903 0.66,-0.601 0.989,-1.404 0.989,-2.408 z"
       id="path4584"
       style="fill:#ffffff" />
    <path
       d="m 176.86875,62.46975 c 0.315,1.203 0.86,2.143 1.634,2.816 0.774,0.673 1.619,1.01 2.537,1.01 1.204,0 2.279,-0.645 3.225,-1.935 l 3.956,3.44 c -1.09,1.289 -2.208,2.222 -3.354,2.795 -1.147,0.572 -2.423,0.859 -3.827,0.859 -1.348,0 -2.623,-0.279 -3.827,-0.838 -1.204,-0.56 -2.265,-1.326 -3.182,-2.301 -0.917,-0.975 -1.649,-2.129 -2.193,-3.462 -0.545,-1.333 -0.817,-2.773 -0.817,-4.321 0,-1.519 0.265,-2.938 0.795,-4.257 0.53,-1.318 1.24,-2.473 2.128,-3.462 0.888,-0.988 1.92,-1.77 3.096,-2.343 1.175,-0.573 2.408,-0.86 3.698,-0.86 1.72,0 3.304,0.494 4.751,1.483 1.447,0.989 2.559,2.315 3.333,3.978 0.401,0.975 0.702,1.985 0.903,3.031 0.2,1.047 0.301,2.229 0.301,3.548 v 0.817 h -13.157 z m 5.827,-7.031 c -0.502,-0.443 -1.154,-0.666 -1.957,-0.666 -0.774,0 -1.483,0.251 -2.128,0.752 -0.645,0.502 -1.125,1.226 -1.44,2.172 h 6.88 c -0.403,-1.061 -0.854,-1.813 -1.355,-2.258 z"
       id="path4586"
       style="fill:#ffffff" />
    <path
       d="m 212.25775,71.15575 v -12.642 c 0,-0.975 -0.308,-1.792 -0.924,-2.451 -0.617,-0.659 -1.483,-0.989 -2.602,-0.989 -0.516,0 -1.01,0.094 -1.483,0.279 -0.473,0.188 -0.903,0.438 -1.29,0.753 -0.387,0.315 -0.695,0.674 -0.924,1.075 -0.23,0.401 -0.344,0.816 -0.344,1.247 v 12.728 h -5.762 v -21.028 h 5.762 v 1.118 c 0.974,-0.602 1.92,-1.024 2.838,-1.269 0.917,-0.243 1.863,-0.365 2.838,-0.365 1.089,0 2.092,0.18 3.01,0.537 0.917,0.359 1.713,0.854 2.387,1.483 0.673,0.632 1.204,1.384 1.591,2.258 0.387,0.875 0.581,1.813 0.581,2.816 v 14.448 h -5.678 z"
       id="path4588"
       style="fill:#ffffff" />
    <path
       d="m 232.68175,62.46975 c 0.315,1.203 0.86,2.143 1.634,2.816 0.774,0.673 1.619,1.01 2.537,1.01 1.204,0 2.279,-0.645 3.225,-1.935 l 3.956,3.44 c -1.09,1.289 -2.208,2.222 -3.354,2.795 -1.147,0.572 -2.423,0.859 -3.827,0.859 -1.348,0 -2.623,-0.279 -3.827,-0.838 -1.204,-0.56 -2.265,-1.326 -3.182,-2.301 -0.917,-0.975 -1.649,-2.129 -2.193,-3.462 -0.545,-1.333 -0.817,-2.773 -0.817,-4.321 0,-1.519 0.265,-2.938 0.795,-4.257 0.53,-1.318 1.24,-2.473 2.128,-3.462 0.888,-0.988 1.92,-1.77 3.096,-2.343 1.175,-0.573 2.408,-0.86 3.698,-0.86 1.72,0 3.304,0.494 4.751,1.483 1.447,0.989 2.559,2.315 3.333,3.978 0.401,0.975 0.702,1.985 0.903,3.031 0.2,1.047 0.301,2.229 0.301,3.548 v 0.817 h -13.157 z m 5.827,-7.031 c -0.502,-0.443 -1.154,-0.666 -1.957,-0.666 -0.774,0 -1.483,0.251 -2.128,0.752 -0.645,0.502 -1.125,1.226 -1.44,2.172 h 6.88 c -0.402,-1.061 -0.853,-1.813 -1.355,-2.258 z"
       id="path4590"
       style="fill:#ffffff" />
    <path
       d="m 265.74875,71.15575 v -1.032 c -0.488,0.488 -1.183,0.832 -2.085,1.032 -0.902,0.2 -1.756,0.301 -2.559,0.301 -1.204,0 -2.351,-0.294 -3.44,-0.881 -1.09,-0.588 -2.042,-1.376 -2.859,-2.365 -0.817,-0.989 -1.47,-2.15 -1.957,-3.483 -0.488,-1.333 -0.731,-2.73 -0.731,-4.192 0,-1.462 0.243,-2.852 0.731,-4.171 0.487,-1.318 1.139,-2.479 1.957,-3.483 0.817,-1.003 1.777,-1.798 2.881,-2.386 1.103,-0.588 2.271,-0.882 3.504,-0.882 0.774,0 1.576,0.115 2.408,0.344 0.831,0.23 1.548,0.588 2.15,1.075 v -6.966 l 5.375,-2.236 v 29.326 h -5.375 z m 0,-14.061 c -0.402,-0.717 -0.946,-1.232 -1.634,-1.549 -0.688,-0.314 -1.391,-0.473 -2.107,-0.473 -0.574,0 -1.111,0.144 -1.612,0.43 -0.502,0.287 -0.939,0.682 -1.312,1.183 -0.373,0.502 -0.667,1.083 -0.881,1.742 -0.215,0.659 -0.323,1.361 -0.323,2.106 0,0.774 0.107,1.491 0.323,2.15 0.215,0.659 0.508,1.232 0.881,1.72 0.372,0.487 0.824,0.875 1.354,1.161 0.53,0.287 1.097,0.43 1.699,0.43 0.659,0 1.325,-0.157 2,-0.473 0.673,-0.315 1.21,-0.831 1.612,-1.548 v -6.879 z"
       id="path4592"
       style="fill:#ffffff" />
    <path
       d="m 285.87175,62.46975 c 0.315,1.203 0.86,2.143 1.634,2.816 0.774,0.673 1.619,1.01 2.537,1.01 1.204,0 2.279,-0.645 3.224,-1.935 l 3.957,3.44 c -1.09,1.289 -2.208,2.222 -3.354,2.795 -1.147,0.572 -2.423,0.859 -3.827,0.859 -1.348,0 -2.623,-0.279 -3.827,-0.838 -1.204,-0.56 -2.265,-1.326 -3.182,-2.301 -0.917,-0.975 -1.649,-2.129 -2.193,-3.462 -0.545,-1.333 -0.817,-2.773 -0.817,-4.321 0,-1.519 0.265,-2.938 0.795,-4.257 0.53,-1.318 1.24,-2.473 2.128,-3.462 0.888,-0.988 1.92,-1.77 3.096,-2.343 1.175,-0.573 2.408,-0.86 3.698,-0.86 1.72,0 3.304,0.494 4.752,1.483 1.447,0.989 2.559,2.315 3.332,3.978 0.401,0.975 0.702,1.985 0.903,3.031 0.2,1.047 0.301,2.229 0.301,3.548 v 0.817 h -13.157 z m 9.117,-15.781 h -4.902 l -6.02,-6.622 h 8.17 l 2.752,6.622 z m -3.29,8.75 c -0.502,-0.443 -1.154,-0.666 -1.957,-0.666 -0.774,0 -1.483,0.251 -2.128,0.752 -0.645,0.502 -1.125,1.226 -1.44,2.172 h 6.88 c -0.402,-1.061 -0.854,-1.813 -1.355,-2.258 z"
       id="path4594"
       style="fill:#ffffff" />
    <path
       d="m 323.71175,65.09175 c 0,0.918 -0.144,1.714 -0.431,2.387 -0.286,0.674 -0.76,1.298 -1.418,1.871 -0.918,0.745 -1.986,1.283 -3.203,1.612 -1.22,0.329 -2.674,0.494 -4.365,0.494 -1.004,0 -1.914,-0.036 -2.73,-0.107 -0.816,-0.071 -1.605,-0.187 -2.365,-0.344 -0.76,-0.157 -1.49,-0.365 -2.193,-0.624 -0.702,-0.258 -1.439,-0.572 -2.214,-0.945 l 2.235,-5.074 c 1.061,0.516 2.236,0.918 3.526,1.204 1.29,0.287 2.466,0.43 3.526,0.43 1.175,0 2.113,-0.1 2.816,-0.301 0.702,-0.2 1.053,-0.501 1.053,-0.903 0,-0.314 -0.129,-0.587 -0.387,-0.816 -0.258,-0.229 -0.674,-0.401 -1.246,-0.517 -0.287,-0.086 -0.631,-0.172 -1.032,-0.258 -0.401,-0.086 -0.811,-0.179 -1.226,-0.279 -0.416,-0.101 -0.811,-0.2 -1.183,-0.301 -0.373,-0.101 -0.674,-0.193 -0.903,-0.28 -2.293,-0.658 -3.963,-1.526 -5.01,-2.601 -1.047,-1.075 -1.568,-2.43 -1.568,-4.064 0,-1.892 0.773,-3.375 2.321,-4.45 1.548,-1.075 3.64,-1.612 6.278,-1.612 1.462,0 2.924,0.165 4.386,0.494 1.462,0.33 3.038,0.911 4.729,1.742 l -2.235,5.073 c -1.062,-0.572 -2.2,-1.024 -3.419,-1.354 -1.219,-0.329 -2.301,-0.494 -3.246,-0.494 -1.09,0 -1.871,0.086 -2.344,0.258 -0.473,0.172 -0.709,0.459 -0.709,0.86 0,0.201 0.035,0.373 0.107,0.516 0.07,0.144 0.229,0.266 0.473,0.366 0.243,0.101 0.595,0.2 1.054,0.301 0.458,0.101 1.06,0.208 1.806,0.322 3.039,0.631 5.317,1.526 6.838,2.688 1.519,1.159 2.279,2.729 2.279,4.706 z"
       id="path4596"
       style="fill:#ffffff" />
    <path
       d="m 170.22075,240.50775 c 0,2.294 -0.287,4.364 -0.86,6.214 -0.574,1.849 -1.383,3.418 -2.43,4.708 -1.047,1.29 -2.315,2.287 -3.805,2.989 -1.491,0.702 -3.139,1.053 -4.945,1.053 -2.179,0 -4.035,-0.423 -5.568,-1.269 -1.534,-0.845 -2.788,-1.97 -3.763,-3.375 -0.975,-1.404 -1.684,-3.003 -2.128,-4.795 -0.445,-1.791 -0.667,-3.633 -0.667,-5.525 0,-2.264 0.28,-4.313 0.838,-6.148 0.559,-1.835 1.361,-3.397 2.408,-4.688 1.046,-1.29 2.322,-2.285 3.827,-2.988 1.505,-0.702 3.188,-1.054 5.052,-1.054 1.749,0 3.354,0.359 4.816,1.075 1.462,0.717 2.731,1.728 3.806,3.031 1.075,1.305 1.914,2.867 2.516,4.688 0.602,1.821 0.903,3.849 0.903,6.084 z m -5.676,-0.129 c 0,-3.124 -0.552,-5.403 -1.656,-6.837 -1.104,-1.433 -2.673,-2.15 -4.708,-2.15 -2.064,0 -3.641,0.761 -4.73,2.279 -1.09,1.52 -1.634,3.799 -1.634,6.837 0,2.953 0.551,5.225 1.655,6.815 1.104,1.592 2.673,2.387 4.708,2.387 1.978,0 3.533,-0.845 4.666,-2.537 1.133,-1.69 1.699,-3.956 1.699,-6.794 z"
       id="path4598"
       style="fill:#ffffff" />
    <path
       d="m 209.39275,254.95575 v -0.688 c -1.004,0.402 -1.978,0.667 -2.924,0.796 -0.946,0.129 -1.82,0.193 -2.623,0.193 -1.176,0 -2.251,-0.172 -3.225,-0.516 -0.975,-0.344 -1.821,-0.831 -2.537,-1.462 -0.717,-0.631 -1.269,-1.383 -1.655,-2.258 -0.387,-0.874 -0.581,-1.827 -0.581,-2.859 0,-1.089 0.222,-2.092 0.667,-3.01 0.444,-0.917 1.053,-1.713 1.827,-2.387 0.774,-0.673 1.691,-1.204 2.752,-1.591 1.061,-0.388 2.208,-0.581 3.44,-0.581 0.602,0 1.347,0.058 2.236,0.172 0.888,0.115 1.763,0.33 2.623,0.646 -0.058,-1.003 -0.43,-1.727 -1.118,-2.172 -0.688,-0.443 -1.562,-0.666 -2.623,-0.666 -2.007,0 -3.999,0.545 -5.977,1.634 l -2.107,-4.558 c 0.774,-0.401 1.498,-0.745 2.171,-1.032 0.673,-0.286 1.333,-0.517 1.978,-0.688 0.645,-0.171 1.283,-0.301 1.914,-0.387 0.63,-0.086 1.304,-0.129 2.021,-0.129 2.895,0 5.153,0.709 6.772,2.129 1.62,1.419 2.43,3.604 2.43,6.557 v 12.857 h -5.461 z m 0,-8.47 c -0.86,-0.315 -1.742,-0.552 -2.645,-0.71 -0.903,-0.157 -1.642,-0.236 -2.214,-0.236 -0.918,0 -1.685,0.223 -2.301,0.666 -0.617,0.445 -0.924,0.997 -0.924,1.656 0,0.659 0.372,1.232 1.118,1.72 0.745,0.487 1.62,0.731 2.623,0.731 0.602,0 1.269,-0.071 2,-0.216 0.731,-0.143 1.512,-0.443 2.344,-0.902 v -2.709 z"
       id="path4600"
       style="fill:#ffffff" />
    <path
       d="m 239.01875,254.95575 c 0.057,-0.688 0.114,-1.297 0.172,-1.827 0.057,-0.53 0.122,-1.032 0.193,-1.505 0.071,-0.474 0.172,-0.925 0.301,-1.354 0.129,-0.431 0.279,-0.889 0.451,-1.377 0.602,-1.776 1.462,-3.403 2.58,-4.88 1.118,-1.477 2.451,-2.716 3.999,-3.72 0.544,-0.401 1.154,-0.759 1.828,-1.075 0.673,-0.314 1.369,-0.63 2.085,-0.945 l 1.118,-0.517 1.032,-0.301 0.989,-0.387 c 0.831,-0.372 1.476,-0.796 1.935,-1.269 0.458,-0.474 0.688,-0.968 0.688,-1.483 0,-0.86 -0.523,-1.562 -1.57,-2.107 -1.047,-0.544 -2.401,-0.817 -4.063,-0.817 -0.746,0 -1.434,0.051 -2.064,0.151 -0.631,0.101 -1.247,0.265 -1.849,0.494 -0.602,0.229 -1.204,0.53 -1.806,0.903 -0.602,0.372 -1.262,0.831 -1.978,1.376 l -4.042,-4.214 c 0.487,-0.345 0.917,-0.652 1.29,-0.925 0.372,-0.272 0.716,-0.509 1.032,-0.71 0.315,-0.2 0.616,-0.379 0.903,-0.537 0.287,-0.157 0.587,-0.308 0.903,-0.451 2.293,-1.232 4.887,-1.85 7.783,-1.85 1.834,0 3.519,0.244 5.053,0.731 1.533,0.487 2.788,1.189 3.763,2.106 0.745,0.717 1.318,1.534 1.72,2.451 0.401,0.918 0.602,1.993 0.602,3.226 0,2.121 -0.667,3.928 -2,5.418 -1.333,1.49 -3.404,2.709 -6.213,3.654 -0.803,0.316 -1.477,0.588 -2.021,0.817 -0.545,0.229 -1.011,0.451 -1.397,0.666 -0.387,0.216 -0.746,0.452 -1.075,0.71 -0.33,0.258 -0.681,0.573 -1.054,0.946 -0.458,0.459 -0.846,0.902 -1.161,1.333 -0.316,0.43 -0.631,0.932 -0.946,1.505 h 16.168 v 5.762 h -23.349 z"
       id="path4602"
       style="fill:#ffffff" />
    <path
       d="m 293.24175,248.59175 v 6.364 h -5.633 v -6.364 h -16.899 v -5.375 l 16.899,-17.157 h 5.633 v 17.157 h 4.343 v 5.375 h -4.343 z m -5.633,-14.749 -9.417,9.374 h 9.417 v -9.374 z"
       id="path4604"
       style="fill:#ffffff" />
    <path
       d="m 340.19775,254.95575 v -12.642 c 0,-0.975 -0.316,-1.792 -0.946,-2.451 -0.631,-0.659 -1.419,-0.989 -2.365,-0.989 -0.516,0 -1.024,0.086 -1.526,0.258 -0.502,0.172 -0.953,0.409 -1.354,0.71 -0.401,0.301 -0.731,0.645 -0.989,1.032 -0.258,0.387 -0.387,0.795 -0.387,1.225 v 12.857 h -5.762 v -27.09 l 5.762,-2.236 v 9.417 c 1.204,-0.659 2.221,-1.11 3.053,-1.354 0.832,-0.243 1.734,-0.365 2.709,-0.365 1.032,0 2,0.187 2.902,0.559 0.903,0.373 1.699,0.875 2.387,1.505 0.688,0.631 1.226,1.376 1.613,2.236 0.387,0.86 0.58,1.778 0.58,2.752 v 14.577 h -5.677 z"
       id="path4606"
       style="fill:#ffffff" />
    <path
       d="m 129.92875,338.26875 c 0.044,-0.536 0.089,-1.011 0.134,-1.423 0.045,-0.414 0.095,-0.804 0.151,-1.173 0.055,-0.369 0.134,-0.72 0.235,-1.055 0.1,-0.335 0.217,-0.692 0.352,-1.073 0.469,-1.385 1.139,-2.652 2.01,-3.803 0.871,-1.15 1.91,-2.116 3.116,-2.898 0.424,-0.312 0.899,-0.591 1.424,-0.837 0.524,-0.246 1.066,-0.491 1.625,-0.737 l 0.871,-0.402 0.804,-0.235 0.771,-0.301 c 0.647,-0.29 1.149,-0.62 1.507,-0.989 0.357,-0.369 0.536,-0.754 0.536,-1.155 0,-0.67 -0.408,-1.218 -1.223,-1.643 -0.816,-0.424 -1.871,-0.637 -3.167,-0.637 -0.58,0 -1.116,0.039 -1.608,0.118 -0.491,0.079 -0.971,0.207 -1.44,0.385 -0.469,0.179 -0.938,0.414 -1.407,0.704 -0.47,0.29 -0.984,0.647 -1.542,1.072 l -3.149,-3.284 c 0.379,-0.269 0.714,-0.508 1.005,-0.72 0.291,-0.213 0.558,-0.397 0.804,-0.554 0.245,-0.156 0.48,-0.295 0.703,-0.418 0.224,-0.122 0.458,-0.24 0.704,-0.352 1.787,-0.96 3.808,-1.441 6.064,-1.441 1.429,0 2.742,0.19 3.937,0.57 1.195,0.38 2.172,0.927 2.932,1.641 0.58,0.559 1.026,1.196 1.34,1.91 0.312,0.715 0.469,1.553 0.469,2.513 0,1.652 -0.52,3.06 -1.559,4.222 -1.038,1.161 -2.652,2.111 -4.84,2.847 -0.626,0.247 -1.151,0.458 -1.575,0.637 -0.425,0.179 -0.788,0.352 -1.089,0.519 -0.302,0.168 -0.582,0.353 -0.838,0.554 -0.257,0.201 -0.531,0.446 -0.821,0.737 -0.358,0.357 -0.659,0.703 -0.904,1.038 -0.246,0.335 -0.492,0.726 -0.738,1.173 h 12.598 v 4.489 h -18.192 z"
       id="path4610"
       style="fill:#ffffff" />
    <path
       d="m 174.32175,331.16575 c 0,1.051 -0.224,2.067 -0.67,3.049 -0.447,0.984 -1.095,1.81 -1.944,2.479 -0.715,0.582 -1.63,1.056 -2.747,1.425 -1.118,0.368 -2.324,0.552 -3.618,0.552 -1.586,0 -3.043,-0.246 -4.373,-0.736 -1.329,-0.492 -2.362,-1.195 -3.099,-2.111 -0.56,-0.67 -0.988,-1.401 -1.291,-2.195 -0.301,-0.792 -0.452,-1.614 -0.452,-2.463 0,-2.099 0.781,-3.853 2.345,-5.26 -0.514,-0.514 -0.916,-1.139 -1.206,-1.876 -0.29,-0.737 -0.436,-1.474 -0.436,-2.211 0,-0.982 0.212,-1.871 0.637,-2.663 0.424,-0.793 1.01,-1.463 1.759,-2.011 0.748,-0.547 1.642,-0.971 2.68,-1.273 1.039,-0.302 2.183,-0.452 3.435,-0.452 1.25,0 2.384,0.15 3.4,0.452 1.016,0.302 1.887,0.727 2.613,1.273 0.726,0.547 1.285,1.218 1.676,2.011 0.39,0.792 0.587,1.681 0.587,2.663 0,0.827 -0.124,1.553 -0.369,2.178 -0.246,0.625 -0.649,1.262 -1.206,1.91 0.781,0.715 1.356,1.503 1.726,2.362 0.368,0.86 0.553,1.825 0.553,2.897 z m -4.423,0 c 0,-0.982 -0.391,-1.725 -1.173,-2.228 -0.781,-0.502 -1.909,-0.754 -3.383,-0.754 -1.475,0 -2.63,0.252 -3.468,0.754 -0.837,0.503 -1.256,1.246 -1.256,2.228 0,0.961 0.419,1.704 1.256,2.228 0.838,0.525 1.994,0.787 3.468,0.787 1.496,0 2.629,-0.262 3.4,-0.787 0.77,-0.524 1.156,-1.267 1.156,-2.228 z m -0.704,-9.447 c 0,-0.558 -0.346,-1 -1.038,-1.323 -0.692,-0.323 -1.631,-0.486 -2.814,-0.486 -1.206,0 -2.178,0.163 -2.915,0.486 -0.737,0.324 -1.105,0.765 -1.105,1.323 0,0.603 0.368,1.072 1.105,1.407 0.737,0.335 1.709,0.502 2.915,0.502 1.184,0 2.122,-0.167 2.814,-0.502 0.692,-0.335 1.038,-0.804 1.038,-1.407 z"
       id="path4612"
       style="fill:#ffffff" />
    <path
       d="m 206.34975,326.91075 4.557,11.358 h -4.557 l -2.982,-7.571 -2.613,2.613 v 4.958 h -4.49 v -21.107 l 4.49,-1.743 v 11.124 l 4.724,-4.59 h 5.595 l -4.724,4.958 z"
       id="path4614"
       style="fill:#ffffff" />
    <path
       d="m 238.24475,338.26875 v -9.85 c 0,-0.38 -0.078,-0.732 -0.234,-1.055 -0.156,-0.324 -0.368,-0.608 -0.637,-0.855 -0.268,-0.245 -0.575,-0.436 -0.921,-0.57 -0.347,-0.134 -0.721,-0.201 -1.123,-0.201 -0.379,0 -0.737,0.074 -1.071,0.218 -0.336,0.146 -0.632,0.335 -0.888,0.569 -0.257,0.234 -0.464,0.502 -0.62,0.805 -0.157,0.301 -0.235,0.608 -0.235,0.92 v 10.018 h -4.254 v -9.85 c 0,-0.759 -0.28,-1.396 -0.837,-1.91 -0.559,-0.514 -1.229,-0.771 -2.01,-0.771 -0.402,0 -0.777,0.067 -1.123,0.201 -0.347,0.134 -0.654,0.319 -0.921,0.553 -0.268,0.234 -0.48,0.513 -0.637,0.838 -0.156,0.323 -0.235,0.664 -0.235,1.021 v 9.917 h -4.489 v -16.383 h 4.489 v 0.871 c 0.782,-0.468 1.491,-0.798 2.128,-0.988 0.637,-0.189 1.346,-0.284 2.127,-0.284 1.697,0 3.138,0.636 4.322,1.909 0.536,-0.38 1.01,-0.692 1.423,-0.938 0.413,-0.246 0.81,-0.441 1.19,-0.586 0.379,-0.145 0.765,-0.245 1.156,-0.302 0.391,-0.056 0.821,-0.083 1.29,-0.083 0.872,0 1.698,0.14 2.479,0.418 0.781,0.28 1.474,0.665 2.077,1.156 0.604,0.492 1.083,1.078 1.441,1.759 0.357,0.682 0.537,1.414 0.537,2.195 v 11.257 h -4.424 z"
       id="path4616"
       style="fill:#ffffff" />
    <path
       d="m 253.62375,326.37575 c 0,0.669 -0.229,1.245 -0.687,1.725 -0.458,0.481 -1.044,0.721 -1.759,0.721 -0.67,0 -1.246,-0.24 -1.726,-0.721 -0.48,-0.48 -0.72,-1.056 -0.72,-1.725 0,-0.67 0.24,-1.245 0.72,-1.726 0.48,-0.48 1.055,-0.721 1.726,-0.721 0.67,0 1.245,0.241 1.726,0.721 0.479,0.481 0.72,1.055 0.72,1.726 z m 0,9.849 c 0,0.67 -0.229,1.246 -0.687,1.726 -0.458,0.48 -1.044,0.72 -1.759,0.72 -0.67,0 -1.246,-0.24 -1.726,-0.72 -0.48,-0.48 -0.72,-1.055 -0.72,-1.726 0,-0.671 0.24,-1.245 0.72,-1.726 0.48,-0.479 1.055,-0.72 1.726,-0.72 0.67,0 1.245,0.241 1.726,0.72 0.479,0.482 0.72,1.056 0.72,1.726 z"
       id="path4618"
       style="fill:#ffffff" />
    <path
       d="m 285.46775,321.66775 c -0.368,0.414 -0.72,0.838 -1.054,1.273 -0.336,0.435 -0.659,0.916 -0.972,1.441 -0.313,0.525 -0.648,1.133 -1.005,1.825 -0.491,0.983 -0.922,1.955 -1.291,2.915 -0.369,0.961 -0.682,1.933 -0.938,2.916 -0.257,0.983 -0.447,1.988 -0.57,3.015 -0.123,1.027 -0.185,2.1 -0.185,3.216 h -4.489 c 0,-3.328 0.481,-6.483 1.441,-9.465 0.96,-2.982 2.389,-5.834 4.289,-8.56 h -12.195 v -4.422 h 18.193 v 4.556 c -0.448,0.447 -0.855,0.877 -1.224,1.29 z"
       id="path4620"
       style="fill:#ffffff" />
    <path
       d="m 317.14675,338.26875 v -0.536 c -0.783,0.313 -1.541,0.52 -2.279,0.62 -0.737,0.1 -1.419,0.15 -2.043,0.15 -0.916,0 -1.755,-0.133 -2.514,-0.402 -0.76,-0.268 -1.419,-0.647 -1.977,-1.139 -0.559,-0.492 -0.989,-1.078 -1.289,-1.76 -0.303,-0.681 -0.453,-1.423 -0.453,-2.228 0,-0.849 0.172,-1.63 0.52,-2.345 0.346,-0.715 0.82,-1.334 1.424,-1.859 0.604,-0.524 1.316,-0.938 2.144,-1.24 0.828,-0.302 1.721,-0.453 2.681,-0.453 0.469,0 1.05,0.044 1.743,0.134 0.691,0.09 1.373,0.257 2.044,0.503 -0.046,-0.782 -0.338,-1.346 -0.873,-1.692 -0.535,-0.346 -1.217,-0.519 -2.043,-0.519 -1.564,0 -3.116,0.424 -4.656,1.273 l -1.643,-3.551 c 0.604,-0.312 1.168,-0.581 1.691,-0.804 0.525,-0.223 1.039,-0.402 1.543,-0.536 0.5,-0.134 0.998,-0.235 1.488,-0.302 0.492,-0.066 1.018,-0.1 1.576,-0.1 2.256,0 4.015,0.552 5.277,1.658 1.262,1.105 1.893,2.808 1.893,5.109 v 10.018 h -4.254 z m 0,-6.6 c -0.671,-0.246 -1.359,-0.43 -2.062,-0.553 -0.703,-0.122 -1.278,-0.184 -1.725,-0.184 -0.715,0 -1.312,0.173 -1.793,0.519 -0.48,0.347 -0.719,0.777 -0.719,1.291 0,0.514 0.289,0.96 0.87,1.34 0.581,0.379 1.261,0.569 2.044,0.569 0.469,0 0.988,-0.055 1.559,-0.167 0.568,-0.111 1.178,-0.346 1.826,-0.704 v -2.111 z"
       id="path4622"
       style="fill:#ffffff" />
    <path
       d="m 340.22875,338.26875 c 0.045,-0.536 0.089,-1.011 0.133,-1.423 0.045,-0.414 0.097,-0.804 0.151,-1.173 0.057,-0.369 0.135,-0.72 0.235,-1.055 0.101,-0.335 0.219,-0.692 0.352,-1.073 0.47,-1.385 1.139,-2.652 2.01,-3.803 0.871,-1.15 1.91,-2.116 3.116,-2.898 0.425,-0.312 0.899,-0.591 1.425,-0.837 0.523,-0.246 1.066,-0.491 1.625,-0.737 l 0.871,-0.402 0.803,-0.235 0.771,-0.301 c 0.646,-0.29 1.15,-0.62 1.508,-0.989 0.355,-0.369 0.536,-0.754 0.536,-1.155 0,-0.67 -0.408,-1.218 -1.224,-1.643 -0.815,-0.424 -1.871,-0.637 -3.166,-0.637 -0.581,0 -1.117,0.039 -1.607,0.118 -0.492,0.079 -0.973,0.207 -1.441,0.385 -0.47,0.179 -0.938,0.414 -1.407,0.704 -0.47,0.29 -0.983,0.647 -1.54,1.072 l -3.15,-3.284 c 0.38,-0.269 0.716,-0.508 1.006,-0.72 0.289,-0.213 0.557,-0.397 0.804,-0.554 0.245,-0.156 0.479,-0.295 0.702,-0.418 0.225,-0.122 0.459,-0.24 0.705,-0.352 1.787,-0.96 3.808,-1.441 6.063,-1.441 1.43,0 2.742,0.19 3.938,0.57 1.194,0.38 2.173,0.927 2.931,1.641 0.582,0.559 1.028,1.196 1.34,1.91 0.313,0.715 0.47,1.553 0.47,2.513 0,1.652 -0.52,3.06 -1.559,4.222 -1.038,1.161 -2.651,2.111 -4.84,2.847 -0.626,0.247 -1.151,0.458 -1.575,0.637 -0.425,0.179 -0.787,0.352 -1.089,0.519 -0.302,0.168 -0.581,0.353 -0.839,0.554 -0.256,0.201 -0.529,0.446 -0.819,0.737 -0.357,0.357 -0.659,0.703 -0.905,1.038 -0.246,0.335 -0.492,0.726 -0.736,1.173 h 12.597 v 4.489 h -18.195 z"
       id="path4624"
       style="fill:#ffffff" />
    <path
       d="m 385.25775,327.01175 c 0,1.788 -0.224,3.4 -0.67,4.842 -0.447,1.44 -1.078,2.663 -1.894,3.668 -0.815,1.005 -1.803,1.782 -2.965,2.33 -1.161,0.546 -2.446,0.82 -3.854,0.82 -1.697,0 -3.143,-0.33 -4.339,-0.989 -1.194,-0.658 -2.172,-1.534 -2.93,-2.629 -0.76,-1.094 -1.313,-2.339 -1.659,-3.736 -0.347,-1.396 -0.52,-2.831 -0.52,-4.305 0,-1.764 0.219,-3.361 0.653,-4.791 0.436,-1.43 1.061,-2.647 1.876,-3.652 0.815,-1.006 1.81,-1.781 2.982,-2.329 1.172,-0.546 2.484,-0.821 3.936,-0.821 1.363,0 2.614,0.28 3.752,0.838 1.142,0.558 2.128,1.346 2.967,2.361 0.838,1.017 1.491,2.234 1.959,3.653 0.473,1.418 0.706,2.998 0.706,4.74 z m -4.422,-0.101 c 0,-2.434 -0.431,-4.21 -1.29,-5.327 -0.86,-1.116 -2.083,-1.675 -3.67,-1.675 -1.607,0 -2.836,0.593 -3.685,1.776 -0.85,1.185 -1.272,2.96 -1.272,5.327 0,2.301 0.429,4.07 1.289,5.31 0.859,1.241 2.082,1.859 3.668,1.859 1.542,0 2.753,-0.658 3.636,-1.976 0.883,-1.317 1.324,-3.083 1.324,-5.294 z"
       id="path4626"
       style="fill:#ffffff" />
    <path
       d="m 417.65575,338.26875 v -9.85 c 0,-0.759 -0.246,-1.396 -0.736,-1.91 -0.491,-0.514 -1.105,-0.771 -1.844,-0.771 -0.401,0 -0.798,0.067 -1.189,0.201 -0.391,0.134 -0.742,0.319 -1.055,0.553 -0.313,0.234 -0.57,0.502 -0.771,0.804 -0.201,0.302 -0.303,0.62 -0.303,0.955 v 10.018 h -4.488 v -21.107 l 4.488,-1.743 v 7.337 c 0.939,-0.513 1.731,-0.865 2.379,-1.055 0.649,-0.189 1.353,-0.284 2.111,-0.284 0.805,0 1.559,0.146 2.262,0.435 0.704,0.291 1.324,0.682 1.859,1.173 0.537,0.492 0.956,1.072 1.258,1.743 0.301,0.67 0.451,1.386 0.451,2.144 v 11.358 h -4.422 z"
       id="path4628"
       style="fill:#ffffff" />
    <path
       d="m 68.783752,307.09375 39.434998,0 0,39.434 -39.434998,0 z"
       id="rect4632"
       style="fill:#ffffff" />
    <path
       d="m 99.12575,331.48875 c 0,1.371 -0.336,2.658 -1.008,3.861 -0.673,1.203 -1.578,2.127 -2.716,2.773 -0.776,0.466 -1.785,0.828 -3.026,1.086 -1.241,0.258 -2.483,0.388 -3.724,0.388 -1.475,0 -2.897,-0.201 -4.268,-0.602 -1.372,-0.4 -2.625,-0.989 -3.763,-1.766 -0.414,-0.232 -0.795,-0.491 -1.145,-0.776 -0.349,-0.284 -0.821,-0.698 -1.416,-1.241 l 3.647,-3.647 c 1.085,1.009 2.178,1.733 3.278,2.172 1.1,0.44 2.412,0.66 3.938,0.66 1.5,0 2.722,-0.246 3.666,-0.737 0.943,-0.491 1.416,-1.188 1.416,-2.095 0,-0.362 -0.103,-0.763 -0.31,-1.202 -0.208,-0.44 -0.491,-0.776 -0.854,-1.009 -0.232,-0.129 -0.479,-0.252 -0.737,-0.369 -0.258,-0.116 -0.576,-0.227 -0.95,-0.331 -0.375,-0.103 -0.841,-0.213 -1.397,-0.33 -0.556,-0.116 -1.261,-0.251 -2.114,-0.407 -1.397,-0.335 -2.521,-0.653 -3.375,-0.951 -0.854,-0.296 -1.552,-0.626 -2.095,-0.989 -0.879,-0.595 -1.571,-1.409 -2.076,-2.444 -0.504,-1.035 -0.756,-2.095 -0.756,-3.181 0,-1.32 0.317,-2.547 0.95,-3.687 0.634,-1.137 1.533,-2.042 2.697,-2.715 0.724,-0.439 1.525,-0.762 2.405,-0.97 0.879,-0.206 1.901,-0.31 3.065,-0.31 1.474,0 2.877,0.168 4.209,0.504 1.332,0.336 2.541,0.841 3.627,1.513 0.284,0.181 0.523,0.343 0.718,0.484 0.193,0.144 0.497,0.383 0.911,0.718 l -3.181,4.073 c -1.06,-0.775 -2.095,-1.318 -3.104,-1.628 -1.008,-0.311 -2.133,-0.467 -3.375,-0.467 -1.19,0 -2.128,0.208 -2.813,0.621 -0.686,0.415 -1.028,1.035 -1.028,1.863 0,0.31 0.09,0.627 0.272,0.95 0.181,0.324 0.427,0.549 0.737,0.679 0.232,0.13 0.478,0.226 0.737,0.291 0.259,0.065 0.53,0.148 0.815,0.251 l 0.815,0.078 0.931,0.195 1.164,0.194 c 3.052,0.543 5.354,1.52 6.906,2.929 1.551,1.414 2.327,3.269 2.327,5.571 z"
       id="path4634"
       style="fill:#1c1c20" />
  </g>
</svg>
