<?xml version="1.0" encoding="UTF-8" standalone="no"?>
<!-- Created with Inkscape (http://www.inkscape.org/) -->

<svg
   xmlns:dc="http://purl.org/dc/elements/1.1/"
   xmlns:cc="http://creativecommons.org/ns#"
   xmlns:rdf="http://www.w3.org/1999/02/22-rdf-syntax-ns#"
   xmlns:svg="http://www.w3.org/2000/svg"
   xmlns="http://www.w3.org/2000/svg"
   version="1.2"
   width="267.21875"
   height="228.21875"
   id="svg2">
  <metadata
     id="metadata5392">
    <rdf:RDF>
      <cc:Work
         rdf:about="">
        <dc:format>image/svg+xml</dc:format>
        <dc:type
           rdf:resource="http://purl.org/dc/dcmitype/StillImage" />
        <dc:title></dc:title>
      </cc:Work>
    </rdf:RDF>
  </metadata>
  <defs
     id="defs5390" />
  <g
     id="g5434">
    <path
       d="m 81.626,0.4 h 103.973 c 8.969,0 16.246,7.266 16.246,16.242 v 24.367 c 0,8.973 -7.277,16.246 -16.246,16.246 H 81.626 C 72.653,57.255 65.38,49.982 65.38,41.009 V 16.642 C 65.38,7.666 72.654,0.4 81.626,0.4 z"
       id="path5336"
       style="fill:#ffffff" />
    <path
       d="m 81.626,0.4 h 103.973 c 8.969,0 16.246,7.266 16.246,16.242 v 24.367 c 0,8.973 -7.277,16.246 -16.246,16.246 H 81.626 C 72.653,57.255 65.38,49.982 65.38,41.009 V 16.642 C 65.38,7.666 72.654,0.4 81.626,0.4 z"
       id="path5338"
       style="fill:none;stroke:#1c1d20;stroke-width:0.80000001;stroke-miterlimit:3.86400008" />
    <path
       d="m 196.595,40.009 c 0,7.176 -5.816,12.992 -12.996,12.992 H 84.626 C 77.452,53.001 71.63,47.185 70.63,40.009 V 18.642 c 1,-7.18 6.82,-13 13.996,-13 h 98.973 c 7.18,0 12.996,5.82 12.996,13 v 21.367 z"
       id="path5340"
       style="fill:none;stroke:#1c1d20;stroke-width:3;stroke-miterlimit:3.86400008" />
    <path
       d="m 23.146,57.255 h 220.938 c 12.559,0 22.742,10.18 22.742,22.742 v 125.094 c 0,12.555 -10.184,22.734 -22.742,22.734 H 23.146 C 10.583,227.825 0.4,217.645 0.4,205.091 V 79.998 C 0.4,67.435 10.583,57.255 23.146,57.255 z"
       id="path5342"
       style="fill:#ffffff" />
    <path
       d="m 23.146,57.255 h 220.938 c 12.559,0 22.742,10.18 22.742,22.742 v 125.094 c 0,12.555 -10.184,22.734 -22.742,22.734 H 23.146 C 10.583,227.825 0.4,217.645 0.4,205.091 V 79.998 C 0.4,67.435 10.583,57.255 23.146,57.255 z"
       id="path5344"
       style="fill:none;stroke:#1c1d20;stroke-width:0.80000001;stroke-miterlimit:3.86400008" />
    <path
       d="m 135.119,91.455 c 0.512,0 0.48,0.426 0.48,0.426 0,0 -0.035,2.797 0,2.797 0,0.355 -0.352,0.355 -0.352,0.355 h -2.969 v 1.453 c 0,0 2.809,0.031 2.773,0 0.609,0 0.547,0.547 0.547,0.547 0,0 0,1.68 0,1.645 0,0.613 -0.578,0.582 -0.578,0.582 0,0 -0.711,0.063 -0.711,0 -2.258,0 -2.031,2.16 -2.031,2.16 v 4.48 l 1.031,1.027 c 0,0 0,14.449 0,14.41 0,0.52 -0.898,0.52 -0.898,0.52 -0.684,0 -1.008,0.418 -0.973,0.418 0,0.488 -0.934,0.578 -0.934,0.578 0,0 -0.938,-0.09 -0.938,-0.578 0.035,0 -0.289,-0.418 -0.961,-0.418 0,0 -0.906,0 -0.906,-0.52 0,0.039 0,-14.41 0,-14.41 l 1.027,-1.027 v -4.48 c 0,0 -0.156,-2.16 -2.637,-2.16 H 121.8 c 0,0 -0.258,0 -0.258,-0.352 0,0 0,-2.16 0,-2.133 0,-0.324 0.293,-0.289 0.293,-0.289 -0.035,0.031 6.891,0 6.891,0 v -1.453 h -6.957 c 0,0 -0.258,0 -0.258,-0.258 -0.031,-0.031 0,-1.895 0,-1.895 0,0 0,-0.297 0.289,-0.297 h 3.676 l 1.125,-1.129 c 0.002,0.001 8.486,-0.027 8.518,0.001"
       id="path5346"
       style="fill:#1c1d20" />
    <path
       d="m 51.841,91.65 c -1.16,0 -1.094,1.102 -1.094,1.102 v 1.926 h -2 c -1.031,0 -0.965,0.969 -0.965,0.969 v 12.09 l 0.836,1.387 1.227,0.898 1.027,10.902 h -9.52 v 2.191 h 33.23 v -2.191 H 64.33 l 1.031,-10.902 1.227,-0.898 0.84,-1.16 V 95.646 c 0,0 0.063,-0.969 -0.969,-0.969 h -2 v -1.926 c 0,0 0.063,-1.102 -1.098,-1.102 0,-0.066 -11.52,-0.066 -11.52,0.001"
       id="path5348"
       style="fill:#1c1d20" />
    <path
       d="m 50.681,101.615 13.844002,0"
       id="line5350"
       style="fill:none;stroke:#ffffff;stroke-width:2.11199999;stroke-miterlimit:3.86400008" />
    <path
       d="m 47.923,107.447 -3.484,8.898 c 0,0 -1.512,2.832 -4.027,1.641 0,0.035 -2.613,-0.836 -1.613,-3.965 -0.031,-0.031 3.48,-9.445 3.48,-9.445 v -1.934 l 1.934,-5.191 h 0.711 c 0,0 0.965,-3.379 2.547,-3.258 0.031,-0.027 0.645,0.102 0.164,0.457 0,-0.066 -2.066,1.027 -1.777,2.965 -0.035,0 1.098,1.805 1.098,1.805 v 0.449 h 1.09 l -0.123,7.578"
       id="path5352"
       style="fill:#1c1d20" />
    <path
       d="m 45.15,102.611 -0.547,1.129 -0.68,0.516 -3.707,10.219 c 0,0 -0.551,1.645 0.711,2.16 -0.066,0.027 1.418,0.68 2.063,-0.902 -0.063,0 4.48,-11.734 4.48,-11.734 0,0 -0.613,-0.578 -0.516,-1.418 0.031,0 -0.715,0 -0.715,0 0,0 -0.992,0.609 -0.93,3.93 0.031,-0.031 -0.547,0 -0.547,0 0,0 0.031,-3.027 0.84,-3.898 H 45.15"
       id="path5354"
       style="fill:#ffffff;fill-rule:evenodd" />
    <path
       d="m 66.818,173.103 c 0.809,0 1.461,0.652 1.461,1.465 v 3.289 H 50.365 v -4.754 h 16.453"
       id="path5356"
       style="fill:#1c1d20" />
    <path
       d="m 42.693,178.583 h 26.316 v -4.016 c 0,-0.813 0.656,-1.465 1.461,-1.465 0.809,0 1.465,0.652 1.465,1.465 v 11.695 h -2.926 v -4.387 H 42.693 v 4.387 h -2.926 v -14.625 c 0,-0.805 0.656,-1.461 1.465,-1.461 0.805,0 1.461,0.656 1.461,1.461 v 6.946"
       id="path5358"
       style="fill:#1c1d20" />
    <path
       d="m 43.427,177.857 v -2.926 c 0,0 0.18,-1.828 3.102,-1.828 2.926,0 3.109,1.828 3.109,1.828 v 2.926 h -6.211"
       id="path5360"
       style="fill:#1c1d20" />
    <path
       d="m 139.818,188.486 c 2.324,2.977 -0.754,4.547 -0.754,4.547 -2.438,1.973 -4.227,-1.254 -4.227,-1.254 l -4.691,-9.164 c 0,0 -5.914,9.559 -5.914,9.523 -2.043,3.445 -4.688,1.258 -4.758,1.223 -2.797,-2.078 -0.035,-4.797 -0.035,-4.797 0,0 8.234,-9.785 8.234,-9.816 0.969,-1.113 -0.539,-1.113 -0.648,-1.223 -4.188,-0.895 -5.801,-3.438 -5.801,-3.402 -3.402,-4.516 -2.578,-7.516 -2.578,-7.516 1.07,-3.551 4.266,-2.441 4.227,-2.473 4.367,1.145 5.945,5.512 5.98,5.547 0.469,1.004 1.438,6.27 1.438,6.27 0,0 0.641,-0.855 1.145,-4.082 0,0.066 0.035,-1.934 2.289,-4.621 0.039,0 0.934,-1.578 3.406,-3.043 0,0 1.684,-0.758 0.965,0.715 -0.039,0.031 -3.223,4.727 -3.223,4.727 0,0 -0.105,0.211 0.109,0.355 0.07,0 0.215,0.113 0.43,-0.066 0.035,-0.078 3.367,-4.73 3.367,-4.73 0,0 0.285,-0.434 0.824,-0.141 0.441,0.41 0.223,0.871 0.223,0.871 0,0 -3.32,4.664 -3.375,4.719 -0.102,0.262 0.047,0.363 0.07,0.434 0.203,0.156 0.371,-0.016 0.371,-0.016 0,0 3.402,-4.543 3.422,-4.586 1.156,-1.16 0.992,0.676 0.992,0.676 -0.586,2.816 -1.781,4.176 -1.77,4.215 -1.809,3.008 -3.555,4.328 -4.809,4.863 -0.035,0.031 -0.965,0.176 -1.469,1.145 -0.074,0 -0.965,1.5 -0.965,1.5 0,0 7.49,9.635 7.525,9.6"
       id="path5362"
       style="fill:#1c1d20" />
    <path
       d="m 236.962,115.06 -41.964,8.594 16.683,10.617 -30.336,26.289 10.113,10.117 26.293,-30.344 10.614,16.688 8.597,-41.961"
       id="polyline5364"
       style="fill:#1c1d20" />
    <path
       d="m 25.146,62.501 h 215.938 c 10.762,0 19.492,8.73 19.492,19.496 v 120.094 c 0,10.762 -8.73,19.492 -18.492,19.492 H 26.146 c -11.77,0 -20.496,-8.73 -20.496,-19.492 V 81.998 c 0,-10.766 8.726,-19.497 19.496,-19.497 z"
       id="path5366"
       style="fill:none;stroke:#1c1d20;stroke-width:4;stroke-miterlimit:3.86400008" />
    <path
       d="m 104.369,154.728 h 48.738 v 48.734 h -48.738 v -48.734 z m -73.098,0 h 48.734 v 48.734 H 31.271 v -48.734 z m 73.098,-73.105 h 48.738 v 48.734 H 104.369 V 81.623 z m -73.098,0 h 48.734 v 48.734 H 31.271 V 81.623 z"
       id="path5368"
       style="fill:none;stroke:#1c1d20;stroke-width:0.80000001;stroke-miterlimit:3.86400008" />
    <path
       d="m 107.732,32.445 c -0.669,2.926 -3.041,4.978 -5.896,5.161 -3.227,0.184 -6.452,-1.751 -7.098,-4.976 1.29,-0.277 2.396,-0.83 3.687,-1.015 0.552,1.474 2.12,2.765 3.778,2.027 1.475,-0.737 1.843,-2.396 1.291,-3.871 -0.369,-1.014 -1.476,-1.843 -2.58,-1.659 -0.83,0.185 -1.567,0.555 -1.938,1.291 -1.382,-0.092 -2.854,-0.369 -4.238,-0.553 0.277,-3.042 0.829,-6.175 1.107,-9.216 3.686,0 7.372,0 11.058,0 0,1.198 0,2.396 0,3.595 -2.488,0.091 -5.067,-0.185 -7.557,0.091 0.092,0.553 -0.276,1.198 -0.094,1.751 1.477,-0.553 2.95,-0.553 4.425,-0.185 3.226,0.924 4.792,4.334 4.055,7.559 z"
       id="path5372"
       style="fill:#1c1d20" />
    <path
       d="m 164.779,30.877 c 0.15,2.124 0.093,4.24 0.093,6.36 -1.289,0 -2.58,0 -3.87,0 0,-4.239 0,-8.387 0,-12.626 1.198,0.092 2.395,-0.277 3.502,0.185 0.093,0 0.093,0.552 0.275,0.369 1.937,-1.291 4.608,-1.198 6.084,0.645 1.659,-1.659 4.239,-2.12 6.357,-0.83 1.292,0.83 2.029,2.119 2.029,3.594 0.184,2.857 0.092,5.807 0.092,8.664 -1.291,0 -2.581,0 -3.871,0 -0.093,-2.766 0.276,-5.529 -0.184,-8.295 -0.093,-0.554 -0.645,-0.83 -1.199,-1.014 -0.828,-0.186 -1.75,0.276 -1.844,1.014 -0.46,2.857 -0.091,5.529 -0.184,8.295 -1.29,0 -2.58,0 -3.869,0 -0.094,-2.766 0.275,-5.529 -0.187,-8.295 -0.091,-0.554 -0.645,-0.83 -1.195,-1.014 -1.752,-0.277 -2.12,1.659 -2.029,2.948 z"
       id="path5374"
       style="fill:#1c1d20" />
    <g
       id="g5378">
      <path
         d="m 146.072,26.363 c -0.369,-2.858 -1.937,-5.622 -4.702,-6.636 -3.317,-1.198 -7.278,-0.184 -8.938,3.042 -2.396,4.792 -1.936,12.165 3.504,14.285 3.039,1.29 6.965,0.347 8.755,-2.673 1.473,-2.489 1.656,-5.253 1.381,-8.018 z m -4.148,3.87 c -0.053,1.017 -0.368,2.027 -1.198,2.673 -1.475,1.105 -3.779,0.922 -4.791,-0.737 -0.371,-0.553 -0.462,-1.197 -0.462,-1.843 -0.186,-1.752 -0.369,-3.595 0.275,-5.253 0.46,-1.198 1.752,-1.751 2.95,-1.751 1.105,-0.091 2.212,0.462 2.765,1.475 0.829,1.658 0.554,3.592 0.461,5.436 z"
         id="path5380"
         style="fill:#1c1d20" />
    </g>
    <g
       id="g5384">
      <path
         d="m 122.203,19.727 c -3.318,-1.198 -7.282,-0.184 -8.94,3.042 -2.396,4.792 -1.935,12.165 3.502,14.285 2.487,1.013 5.438,0.645 7.465,-1.106 2.028,-1.844 2.633,-4.518 2.765,-7.096 0.183,-3.596 -1.107,-7.742 -4.792,-9.125 z m -0.647,13.179 c -1.475,1.197 -3.778,0.922 -4.792,-0.737 -0.369,-0.553 -0.461,-1.197 -0.461,-1.843 -0.184,-1.752 -0.368,-3.595 0.278,-5.253 0.643,-1.567 2.485,-2.119 3.962,-1.659 1.473,0.461 2.304,2.028 2.211,3.595 -0.119,2.026 0.554,4.422 -1.198,5.897 z"
         id="path5386"
         style="fill:#1c1d20" />
    </g>
  </g>
</svg>
