<?xml version="1.0" encoding="UTF-8" standalone="no"?>
<!-- Created with Inkscape (http://www.inkscape.org/) -->

<svg
   xmlns:dc="http://purl.org/dc/elements/1.1/"
   xmlns:cc="http://creativecommons.org/ns#"
   xmlns:rdf="http://www.w3.org/1999/02/22-rdf-syntax-ns#"
   xmlns:svg="http://www.w3.org/2000/svg"
   xmlns="http://www.w3.org/2000/svg"
   version="1.2"
   width="154.9375"
   height="227.375"
   id="svg2">
  <metadata
     id="metadata3081">
    <rdf:RDF>
      <cc:Work
         rdf:about="">
        <dc:format>image/svg+xml</dc:format>
        <dc:type
           rdf:resource="http://purl.org/dc/dcmitype/StillImage" />
        <dc:title></dc:title>
      </cc:Work>
    </rdf:RDF>
  </metadata>
  <defs
     id="defs3079" />
  <g
     id="g3098">
    <path
       d="M 154.43,219.332 V 8.049 C 154.43,3.901 150.969,0.5 146.731,0.5 H 8.195 C 3.965,0.5 0.5,3.9 0.5,8.049 v 211.283 c 0,4.145 3.465,7.543 7.695,7.543 H 146.73 c 4.239,0 7.7,-3.398 7.7,-7.543 z"
       id="path3055"
       style="fill:#ffffff" />
    <path
       d="M 154.43,219.332 V 8.049 C 154.43,3.901 150.969,0.5 146.731,0.5 H 8.195 C 3.965,0.5 0.5,3.9 0.5,8.049 v 211.283 c 0,4.145 3.465,7.543 7.695,7.543 H 146.73 c 4.239,0 7.7,-3.398 7.7,-7.543 z"
       id="path3057"
       style="fill:none;stroke:#28201d;stroke-miterlimit:10" />
    <path
       d="m 139.715,131.375 c 0,10.867 -2.906,21.711 -8.34,31.129 -5.438,9.402 -13.375,17.348 -22.789,22.785 -9.41,5.438 -20.262,8.34 -31.125,8.34 -10.867,0 -21.719,-2.902 -31.129,-8.34 -4.703,-2.719 -9.055,-6.047 -12.895,-9.891 -7.684,-7.68 -13.297,-17.414 -16.113,-27.91 -2.813,-10.5 -2.813,-21.738 0,-32.23 2.816,-10.488 8.43,-20.221 16.113,-27.9 7.68,-7.686 17.414,-13.305 27.906,-16.113 5.25,-1.408 10.68,-2.127 16.117,-2.127 10.863,0 21.715,2.912 31.125,8.34 9.414,5.439 17.352,13.379 22.789,22.793 2.715,4.699 4.816,9.773 6.219,15.008 1.411,5.249 2.122,10.682 2.122,16.116"
       id="path3059"
       style="fill:#e41408;fill-rule:evenodd" />
    <path
       d="m 123.043,131.367 c 0,-7.945 -2.129,-15.895 -6.109,-22.783 -1.988,-3.439 -4.43,-6.623 -7.238,-9.439 -3.379,-3.371 -7.289,-6.219 -11.543,-8.393 -4.246,-2.162 -8.836,-3.65 -13.547,-4.391 -4.723,-0.752 -9.563,-0.752 -14.281,0 -4.711,0.74 -9.301,2.229 -13.551,4.391 -3.539,1.813 -6.852,4.088 -9.801,6.748 -4.141,3.725 -7.59,8.217 -10.117,13.176 -3.613,7.09 -5.324,15.137 -4.91,23.082 0.422,7.945 2.961,15.766 7.293,22.438 4.332,6.672 10.445,12.172 17.531,15.789 7.094,3.609 15.137,5.316 23.082,4.906 3.973,-0.211 7.914,-0.945 11.699,-2.172 7.563,-2.457 14.461,-6.941 19.785,-12.852 4.258,-4.73 7.508,-10.359 9.48,-16.406 1.473,-4.547 2.227,-9.316 2.227,-14.094"
       id="path3061"
       style="fill:#ffffff;fill-rule:evenodd" />
    <path
       d="m 52.527,137.785 c 0.098,0.41 0.199,0.824 0.313,1.227 0.086,0.313 0.188,0.629 0.301,0.93 0.254,0.719 0.672,1.371 1.219,1.898 0.23,0.223 0.488,0.43 0.758,0.602 0.297,0.18 0.613,0.34 0.938,0.465 0.313,0.117 0.633,0.219 0.961,0.297 0.34,0.07 0.684,0.129 1.031,0.164 0.426,0.039 0.848,0.047 1.277,0.031 0.438,-0.016 0.875,-0.066 1.305,-0.137 0.465,-0.086 0.926,-0.207 1.375,-0.363 0.344,-0.117 0.68,-0.277 0.988,-0.473 0.148,-0.09 0.281,-0.191 0.41,-0.313 0.18,-0.164 0.352,-0.34 0.508,-0.527 0.293,-0.344 0.523,-0.727 0.688,-1.148 0.074,-0.188 0.133,-0.391 0.176,-0.586 0.098,-0.445 0.137,-0.895 0.125,-1.348 -0.004,-0.203 -0.02,-0.402 -0.051,-0.605 -0.031,-0.258 -0.09,-0.508 -0.16,-0.746 -0.129,-0.418 -0.328,-0.828 -0.594,-1.188 -0.406,-0.539 -0.949,-0.988 -1.566,-1.27 -0.215,-0.098 -0.438,-0.18 -0.664,-0.254 -0.203,-0.059 -0.41,-0.105 -0.625,-0.129 -0.297,-0.043 -0.594,-0.078 -0.891,-0.086 -0.375,-0.023 -0.754,-0.031 -1.125,-0.031 l -2.07,0.008 h -0.637 v -6.281 c 0.598,0.02 1.195,0.023 1.797,0.02 0.453,-0.008 0.914,-0.02 1.371,-0.051 0.594,-0.039 1.184,-0.141 1.75,-0.32 0.313,-0.094 0.613,-0.211 0.902,-0.352 0.246,-0.129 0.477,-0.281 0.695,-0.445 0.18,-0.145 0.344,-0.309 0.492,-0.488 0.305,-0.379 0.543,-0.805 0.699,-1.262 0.145,-0.445 0.219,-0.91 0.219,-1.375 0,-0.469 -0.066,-0.938 -0.199,-1.391 -0.113,-0.383 -0.289,-0.75 -0.523,-1.07 -0.273,-0.379 -0.605,-0.719 -0.973,-0.992 -0.301,-0.234 -0.637,-0.422 -0.992,-0.551 -0.219,-0.082 -0.441,-0.156 -0.672,-0.219 -0.352,-0.09 -0.703,-0.164 -1.063,-0.223 -0.336,-0.047 -0.68,-0.082 -1.02,-0.098 -0.363,-0.008 -0.734,0 -1.094,0.035 -0.332,0.031 -0.664,0.086 -0.988,0.168 -0.336,0.082 -0.66,0.184 -0.965,0.32 -0.563,0.23 -1.086,0.566 -1.543,0.961 -0.449,0.398 -0.836,0.871 -1.137,1.398 -0.129,0.215 -0.234,0.457 -0.313,0.699 -0.07,0.211 -0.125,0.41 -0.168,0.621 -0.078,0.34 -0.141,0.676 -0.195,1.023 l -0.008,0.09 -0.016,0.09 -0.008,0.105 -7.422,-0.781 0.254,-1.684 c 0.125,-0.613 0.297,-1.219 0.512,-1.813 0.207,-0.566 0.461,-1.121 0.762,-1.652 0.305,-0.539 0.645,-1.059 1.031,-1.539 0.379,-0.469 0.797,-0.898 1.25,-1.309 0.426,-0.379 0.887,-0.727 1.375,-1.039 0.531,-0.336 1.086,-0.637 1.664,-0.895 0.727,-0.336 1.484,-0.602 2.25,-0.813 0.848,-0.227 1.719,-0.391 2.586,-0.488 0.813,-0.09 1.625,-0.129 2.438,-0.105 0.824,0.016 1.648,0.086 2.465,0.211 1.223,0.18 2.438,0.492 3.598,0.93 0.617,0.234 1.223,0.512 1.801,0.828 0.484,0.266 0.949,0.578 1.387,0.93 0.422,0.336 0.82,0.723 1.172,1.141 0.719,0.828 1.301,1.781 1.703,2.805 0.195,0.508 0.352,1.031 0.469,1.563 0.109,0.5 0.18,1.023 0.215,1.547 0.035,0.586 0.031,1.164 -0.004,1.75 -0.031,0.441 -0.086,0.887 -0.168,1.328 -0.074,0.418 -0.176,0.828 -0.293,1.242 -0.129,0.43 -0.297,0.848 -0.508,1.238 -0.195,0.379 -0.43,0.746 -0.699,1.082 -0.168,0.203 -0.352,0.398 -0.551,0.574 -0.176,0.16 -0.363,0.297 -0.563,0.41 -0.176,0.102 -0.355,0.195 -0.535,0.281 -0.262,0.125 -0.535,0.246 -0.809,0.359 0.426,0.223 0.844,0.453 1.25,0.711 0.234,0.141 0.461,0.297 0.672,0.469 0.285,0.227 0.535,0.484 0.762,0.762 0.27,0.348 0.516,0.715 0.719,1.098 0.18,0.34 0.344,0.691 0.48,1.039 0.145,0.375 0.266,0.758 0.371,1.141 0.379,1.438 0.496,2.953 0.336,4.422 -0.082,0.781 -0.238,1.531 -0.473,2.277 -0.207,0.676 -0.488,1.324 -0.836,1.941 -0.219,0.387 -0.473,0.754 -0.742,1.117 -0.586,0.746 -1.262,1.418 -2.02,2 -0.672,0.484 -1.406,0.898 -2.184,1.211 -0.5,0.207 -1.012,0.387 -1.523,0.543 l -1.348,0.375 c -0.891,0.207 -1.809,0.344 -2.73,0.395 -1.113,0.063 -2.227,0.059 -3.34,-0.043 -1.098,-0.086 -2.18,-0.27 -3.246,-0.531 -0.91,-0.23 -1.805,-0.539 -2.66,-0.941 -0.445,-0.207 -0.883,-0.453 -1.289,-0.727 -0.484,-0.332 -0.941,-0.695 -1.371,-1.086 -0.402,-0.367 -0.781,-0.766 -1.125,-1.188 -0.34,-0.414 -0.645,-0.859 -0.922,-1.313 -0.25,-0.43 -0.477,-0.867 -0.672,-1.328 -0.219,-0.508 -0.406,-1.031 -0.563,-1.566 l -0.309,-1.246 -0.199,-1.18"
       id="path3063"
       style="fill:#1c1d20" />
    <path
       d="m 94.82,143.289 c 0.551,0 1.102,-0.055 1.645,-0.145 0.297,-0.051 0.594,-0.121 0.887,-0.207 0.555,-0.18 1.082,-0.445 1.555,-0.781 0.27,-0.188 0.52,-0.395 0.754,-0.625 0.238,-0.234 0.469,-0.484 0.672,-0.758 0.195,-0.258 0.371,-0.523 0.523,-0.809 0.148,-0.27 0.285,-0.551 0.406,-0.824 0.137,-0.313 0.262,-0.629 0.371,-0.953 0.199,-0.582 0.367,-1.164 0.5,-1.762 0.145,-0.645 0.258,-1.301 0.344,-1.957 0.066,-0.563 0.113,-1.133 0.141,-1.699 0.035,-0.672 0.043,-1.348 0.031,-2.02 l -0.066,-1.574 -0.223,-2.215 c -0.109,-0.734 -0.27,-1.461 -0.477,-2.172 -0.125,-0.445 -0.281,-0.875 -0.461,-1.297 -0.293,-0.68 -0.707,-1.316 -1.223,-1.855 -0.629,-0.656 -1.375,-1.203 -2.191,-1.605 -0.75,-0.367 -1.57,-0.59 -2.398,-0.656 -0.484,-0.039 -0.973,-0.047 -1.461,-0.008 -0.43,0.031 -0.855,0.09 -1.281,0.18 -0.699,0.156 -1.363,0.441 -1.953,0.844 -0.332,0.23 -0.641,0.492 -0.918,0.773 -0.289,0.293 -0.555,0.613 -0.793,0.945 -0.219,0.297 -0.41,0.617 -0.578,0.945 -0.27,0.535 -0.496,1.09 -0.688,1.656 -0.199,0.609 -0.359,1.223 -0.469,1.852 -0.109,0.598 -0.199,1.207 -0.266,1.813 -0.066,0.641 -0.113,1.281 -0.137,1.922 -0.027,0.719 -0.027,1.445 0,2.176 0.023,0.648 0.074,1.301 0.148,1.941 0.086,0.703 0.199,1.41 0.355,2.109 0.152,0.652 0.34,1.305 0.566,1.953 0.129,0.383 0.289,0.758 0.469,1.121 0.148,0.301 0.324,0.598 0.52,0.883 0.418,0.609 0.934,1.137 1.531,1.574 0.297,0.215 0.617,0.41 0.953,0.582 0.605,0.301 1.266,0.496 1.941,0.574 0.424,0.06 0.842,0.079 1.271,0.079 m 0.008,6.836 c -0.891,-0.016 -1.781,-0.094 -2.664,-0.227 -0.762,-0.117 -1.516,-0.289 -2.254,-0.523 -0.781,-0.254 -1.547,-0.578 -2.277,-0.961 -0.703,-0.359 -1.379,-0.797 -2.004,-1.285 -0.617,-0.496 -1.195,-1.027 -1.723,-1.617 -0.492,-0.539 -0.93,-1.137 -1.313,-1.77 -0.359,-0.59 -0.68,-1.203 -0.961,-1.836 -0.32,-0.703 -0.598,-1.426 -0.832,-2.164 -0.613,-1.914 -1,-3.891 -1.16,-5.883 -0.07,-0.895 -0.094,-1.789 -0.078,-2.68 0.023,-1.051 0.09,-2.109 0.199,-3.156 0.082,-0.746 0.18,-1.5 0.305,-2.242 0.105,-0.594 0.23,-1.188 0.375,-1.781 0.164,-0.648 0.355,-1.289 0.582,-1.922 0.219,-0.621 0.473,-1.234 0.754,-1.836 0.359,-0.762 0.781,-1.492 1.25,-2.195 0.414,-0.602 0.883,-1.18 1.402,-1.703 0.547,-0.547 1.133,-1.047 1.773,-1.484 0.664,-0.445 1.367,-0.836 2.105,-1.156 0.68,-0.305 1.375,-0.535 2.094,-0.715 0.809,-0.207 1.633,-0.352 2.465,-0.434 1.52,-0.148 3.059,-0.121 4.57,0.102 0.836,0.129 1.656,0.316 2.465,0.563 0.684,0.215 1.344,0.484 1.98,0.813 1.539,0.789 2.918,1.918 3.992,3.27 0.52,0.66 0.992,1.348 1.402,2.074 0.426,0.75 0.793,1.531 1.105,2.336 0.227,0.594 0.43,1.195 0.598,1.801 0.195,0.699 0.359,1.402 0.496,2.117 0.121,0.629 0.219,1.262 0.297,1.902 0.086,0.703 0.152,1.406 0.199,2.109 0.066,1.055 0.086,2.121 0.059,3.18 -0.023,0.898 -0.102,1.809 -0.219,2.695 -0.27,1.941 -0.785,3.852 -1.531,5.672 -0.262,0.637 -0.559,1.262 -0.887,1.867 -0.309,0.578 -0.656,1.141 -1.027,1.688 -0.773,1.109 -1.723,2.078 -2.813,2.883 -0.625,0.465 -1.297,0.863 -1.996,1.203 -0.676,0.32 -1.387,0.586 -2.121,0.773 -0.73,0.188 -1.469,0.32 -2.223,0.402 -0.79,0.089 -1.583,0.136 -2.384,0.12 z"
       id="path3065"
       style="fill:#1c1d20;fill-rule:evenodd" />
    <path
       d="m 36.699,26.969 h 14.219 v 4.156 l -8.313,11.813 v 0.219 h 8.969 V 47.97 H 36.48 v -3.938 c 0,-0.646 2.406,-4.219 7.219,-10.719 l 1.094,-1.75 v -0.219 h -8.094 v -4.375 z"
       id="path3069"
       style="fill:#1c1d20" />
    <path
       d="m 63.648,26.313 h 0.219 c 4.695,0 7.902,2.334 9.625,7 l 0.438,3.063 v 1.75 c 0,4.43 -2.332,7.566 -7,9.406 l -3.063,0.438 c -4.465,0 -7.602,-2.041 -9.406,-6.125 -0.582,-1.467 -0.875,-2.998 -0.875,-4.594 0,-5.742 2.625,-9.314 7.875,-10.719 l 2.187,-0.219 z m -5.031,10.718 c 0,3.291 1.313,5.332 3.938,6.125 l 1.75,0.219 c 2.078,0 3.609,-1.604 4.594,-4.813 v -1.75 c -0.41,-3.938 -2.086,-5.906 -5.031,-5.906 -3.138,0 -4.888,2.043 -5.251,6.125 z"
       id="path3071"
       style="fill:#1c1d20" />
    <path
       d="m 76.211,26.969 h 5.031 c 2.398,3.264 5.387,7.785 8.969,13.563 H 90.43 V 26.969 h 4.594 v 21 h -5.25 C 84.469,39.602 81.481,35.155 80.805,34.625 v 13.344 h -4.594 v -21 z"
       id="path3073"
       style="fill:#1c1d20" />
    <path
       d="m 104.281,26.969 h 6.344 l 7.219,21 h -5.469 L 111.5,44.906 h -7.656 l -0.875,3.063 h -5.25 l 6.562,-21 z m 3.063,6.344 -1.969,6.781 h 4.375 v -0.219 c -1.312,-4.375 -2.113,-6.562 -2.406,-6.562 z"
       id="path3075"
       style="fill:#1c1d20" />
  </g>
</svg>
