<?xml version="1.0" encoding="utf-8"?>
<!-- Generator: Adobe Illustrator 19.0.0, SVG Export Plug-In . SVG Version: 6.00 Build 0)  -->
<svg version="1.1" id="Capa_1" xmlns="http://www.w3.org/2000/svg" xmlns:xlink="http://www.w3.org/1999/xlink" x="0px" y="0px"
	 viewBox="0 0 194.9 227.4" style="enable-background:new 0 0 194.9 227.4;" xml:space="preserve">
<style type="text/css">
	.st0{fill:#FFFFFF;}
	.st1{fill:none;stroke:#1B1C1F;stroke-width:0.8;stroke-miterlimit:3.864;}
	.st2{fill:#1D3E82;}
</style>
<path class="st0" d="M5.7-0.2c-3,0-5.4,2.4-5.4,5.4v216.6c0,3,2.4,5.4,5.4,5.4h184.1c3,0,5.4-2.4,5.4-5.4V5.2c0-3-2.4-5.4-5.4-5.4
	L5.7-0.2L5.7-0.2z"/>
<path class="st1" d="M5.7-0.2c-3,0-5.4,2.4-5.4,5.4v216.6c0,3,2.4,5.4,5.4,5.4h184.1c3,0,5.4-2.4,5.4-5.4V5.2c0-3-2.4-5.4-5.4-5.4
	L5.7-0.2L5.7-0.2z"/>
<path class="st2" d="M189.9,2.2c1.7,0,3,1.4,3,3v216.6c0,1.7-1.4,3-3,3H5.7c-1.7,0-3-1.4-3-3V5.2c0-1.7,1.4-3,3-3H189.9"/>
<polyline class="st0" points="110.8,108.7 144.1,66.8 134.8,66.2 162.8,54 156.7,83.9 154.2,74.9 123.8,113.5 123.8,189.3 
	110.8,189.3 110.8,108.7 "/>
<polyline class="st0" points="40.4,189.3 40.4,59.4 32.8,64.8 46.9,37.7 61,64.8 53.4,59.4 53.4,189.3 40.4,189.3 "/>
<polyline class="st0" points="75.1,108.7 108.5,66.8 99.2,66.2 127.2,54 121.1,83.9 118.6,74.9 88.1,113.5 88.1,189.3 75.1,189.3 
	75.1,108.7 "/>
</svg>
