<?xml version="1.0" encoding="UTF-8" standalone="no"?>
<svg
   xmlns:dc="http://purl.org/dc/elements/1.1/"
   xmlns:cc="http://creativecommons.org/ns#"
   xmlns:rdf="http://www.w3.org/1999/02/22-rdf-syntax-ns#"
   xmlns:svg="http://www.w3.org/2000/svg"
   xmlns="http://www.w3.org/2000/svg"
   xmlns:sodipodi="http://sodipodi.sourceforge.net/DTD/sodipodi-0.dtd"
   xmlns:inkscape="http://www.inkscape.org/namespaces/inkscape"
   width="500"
   height="110"
   viewBox="0 0 132.29166 29.104167"
   version="1.1"
   id="svg4433"
   inkscape:version="1.0.1 (3bc2e813f5, 2020-09-07)"
   sodipodi:docname="ES_S347.svg">
  <defs
     id="defs4427">
    <rect
       x="38.364582"
       y="48.097469"
       width="28.915178"
       height="15.591518"
       id="rect5326" />
    <rect
       x="70.681549"
       y="45.357143"
       width="16.441963"
       height="13.134672"
       id="rect5320" />
    <rect
       x="72.949402"
       y="12.85119"
       width="1.5119047"
       height="19.182291"
       id="rect5314" />
  </defs>
  <sodipodi:namedview
     id="base"
     pagecolor="#ffffff"
     bordercolor="#666666"
     borderopacity="1.0"
     inkscape:pageopacity="0.0"
     inkscape:pageshadow="2"
     inkscape:zoom="1.979899"
     inkscape:cx="202.01971"
     inkscape:cy="46.24738"
     inkscape:document-units="px"
     inkscape:current-layer="layer1"
     inkscape:document-rotation="0"
     showgrid="false"
     inkscape:pagecheckerboard="true"
     inkscape:showpageshadow="false"
     units="px"
     inkscape:window-width="1920"
     inkscape:window-height="1027"
     inkscape:window-x="-8"
     inkscape:window-y="-8"
     inkscape:window-maximized="1" />
  <metadata
     id="metadata4430">
    <rdf:RDF>
      <cc:Work
         rdf:about="">
        <dc:format>image/svg+xml</dc:format>
        <dc:type
           rdf:resource="http://purl.org/dc/dcmitype/StillImage" />
        <dc:title></dc:title>
      </cc:Work>
    </rdf:RDF>
  </metadata>
  <g
     inkscape:label="Capa 1"
     inkscape:groupmode="layer"
     id="layer1"
     style="display:inline">
    <path
       id="rect5257"
       style="display:inline;fill:#000080;stroke:#ffffff;stroke-width:2.00001;stroke-linecap:round;stroke-linejoin:round;stroke-miterlimit:2.613;stroke-dasharray:none;stroke-opacity:1"
       d="M 1.7008928,1.6252887 C 2.1031975,1.3358184 2.2678008,1.1175382 2.8347369,1.1204338 L 108.3847,1.0652196 130.92127,14.355975 108.76267,28.569122 c 0,0 -70.429457,-0.06692 -105.6441848,-0.100376 C 2.4569663,28.468117 2.1211039,28.360964 1.6536458,28.02179 1.1638265,27.666392 1.1339285,27.4623 1.1339285,26.96002 V 2.7893194 c 0,-0.5591908 0.019369,-0.770019 0.5669643,-1.1640307 z"
       sodipodi:nodetypes="sscccsssss" />
    <path
       style="display:inline;fill:#ffffff;stroke:none;stroke-width:2;stroke-linecap:round;stroke-linejoin:round;stroke-miterlimit:2.613;stroke-dasharray:none;stroke-opacity:1"
       d="M 108.76267,28.569122 H 106.6838 L 126.73944,14.420078 108.3847,1.8898774 v 0 l 0.26727,-1.73725189 22.6702,13.64612949 z"
       id="path5278"
       sodipodi:nodetypes="cccccccc" />
    <text
       xml:space="preserve"
       id="text5312"
       style="font-size:11.2889px;line-height:6.61458px;font-family:'Highway Gothic Wide';-inkscape-font-specification:'Highway Gothic Wide';letter-spacing:0px;word-spacing:0px;white-space:pre;shape-inside:url(#rect5314);display:inline;fill:none;stroke:#000000;stroke-width:0.264583px;stroke-linecap:butt;stroke-linejoin:miter;stroke-opacity:1;" />
    <text
       xml:space="preserve"
       id="text5318"
       style="font-size:11.2889px;line-height:6.61458px;font-family:'Highway Gothic Wide';-inkscape-font-specification:'Highway Gothic Wide';letter-spacing:0px;word-spacing:0px;white-space:pre;shape-inside:url(#rect5320);display:inline;fill:none;stroke:#000000;stroke-width:0.264583px;stroke-linecap:butt;stroke-linejoin:miter;stroke-opacity:1;" />
    <text
       xml:space="preserve"
       id="text5324"
       style="font-size:11.2889px;line-height:6.61458px;font-family:'Highway Gothic Wide';-inkscape-font-specification:'Highway Gothic Wide';letter-spacing:0px;word-spacing:0px;white-space:pre;shape-inside:url(#rect5326);display:inline;fill:none;stroke:#000000;stroke-width:0.264583px;stroke-linecap:butt;stroke-linejoin:miter;stroke-opacity:1;" />
    <text
       xml:space="preserve"
       style="font-size:11.2889px;line-height:6.61458px;font-family:'Highway Gothic Wide';-inkscape-font-specification:'Highway Gothic Wide';letter-spacing:0px;word-spacing:0px;display:inline;fill:none;stroke:#000000;stroke-width:0.264583px;stroke-linecap:butt;stroke-linejoin:miter;stroke-opacity:1"
       x="10.110864"
       y="40.91592"
       id="text5292"><tspan
         sodipodi:role="line"
         id="tspan5290"
         x="10.110864"
         y="40.91592"
         style="stroke-width:0.264583px" /></text>
    <path
       d="M 9.8686877,6.7476648 H 25.590758 V 22.469471 H 9.8686877 Z"
       id="rect5622"
       style="fill:#ffffff;stroke-width:0.264583;stroke:#ffffff;stroke-opacity:1" />
    <path
       d="m 16.071844,9.1074838 c -0.406136,0 -0.383646,0.38391 -0.383646,0.38391 v 0.6775982 h -0.700352 c -0.360892,0 -0.338402,0.338402 -0.338402,0.338402 v 4.233863 l 0.293687,0.485775 0.42889,0.315912 0.361156,3.816085 h -3.334279 v 0.767821 h 11.636904 v -0.767821 h -3.590396 l 0.361156,-3.816085 0.429154,-0.315912 0.293423,-0.4064 v -4.313238 c 0,0 0.02275,-0.338402 -0.338402,-0.338402 H 20.490385 V 9.4913938 c 0,0 0.02275,-0.38391 -0.383646,-0.38391 0,-0.02275 -4.034895,-0.02275 -4.034895,0 z"
       id="path5624"
       style="fill:#1c1c20;stroke-width:0.264583" />
    <path
       d="m 16.071844,9.1074838 c -0.406136,0 -0.383646,0.38391 -0.383646,0.38391 v 0.6775982 h -0.700352 c -0.360892,0 -0.338402,0.338402 -0.338402,0.338402 v 4.233863 l 0.293687,0.485775 0.42889,0.315912 0.361156,3.816085 h -3.334279 v 0.767821 h 11.636904 v -0.767821 h -3.590396 l 0.361156,-3.816085 0.429154,-0.315912 0.293423,-0.4064 v -4.313238 c 0,0 0.02275,-0.338402 -0.338402,-0.338402 H 20.490385 V 9.4913938 c 0,0 0.02275,-0.38391 -0.383646,-0.38391 0,-0.02275 -4.034895,-0.02275 -4.034895,0 z"
       id="path5626"
       style="fill:none;stroke:#1c1c20;stroke-width:0.0256646;stroke-miterlimit:3.864" />
    <path
       d="m 15.665708,11.117523 h 4.847431 v 2.958307 h -4.847431 z"
       id="rect5628"
       style="fill:#ffffff;stroke-width:0.264583" />
    <path
       d="m 15.665708,11.117523 h 4.847431 v 2.958307 h -4.847431 z"
       id="rect5630"
       style="fill:none;stroke:#1c1c20;stroke-width:0.0256646;stroke-miterlimit:3.864" />
    <path
       d="m 14.698392,14.639921 -1.2192,3.115998 c 0,0 -0.530754,0.993775 -1.411288,0.575733 0,0.01138 -0.914664,-0.293423 -0.56462,-1.388268 -0.01138,-0.01138 1.219464,-3.30835 1.219464,-3.30835 v -0.677598 l 0.677333,-1.817688 h 0.248444 c 0,0 0.338667,-1.1853332 0.891911,-1.1406182 0.01111,-0.01138 0.225954,0.03387 0.05636,0.1582212 0,-0.02275 -0.722313,0.361156 -0.620977,1.038754 -0.01138,0 0.384175,0.632618 0.384175,0.632618 v 0.157692 h 0.383645 z"
       id="path5632"
       style="fill:#1c1c20;stroke-width:0.264583" />
    <path
       d="m 14.698392,14.639921 -1.2192,3.115998 c 0,0 -0.530754,0.993775 -1.411288,0.575733 0,0.01138 -0.914664,-0.293423 -0.56462,-1.388268 -0.01138,-0.01138 1.219464,-3.30835 1.219464,-3.30835 v -0.677598 l 0.677333,-1.817688 h 0.248444 c 0,0 0.338667,-1.1853332 0.891911,-1.1406182 0.01111,-0.01138 0.225954,0.03387 0.05636,0.1582212 0,-0.02275 -0.722313,0.361156 -0.620977,1.038754 -0.01138,0 0.384175,0.632618 0.384175,0.632618 v 0.157692 h 0.383645 z"
       id="path5634"
       style="fill:none;stroke:#1c1c20;stroke-width:0.0256646;stroke-miterlimit:3.864" />
    <path
       d="m 13.727636,12.946323 -0.192088,0.395023 -0.237067,0.180975 -1.29831,3.578754 c 0,0 -0.192087,0.576263 0.248444,0.756444 -0.02275,0.01111 0.496887,0.237067 0.722577,-0.315648 -0.02275,0 1.569244,-4.110037 1.569244,-4.110037 0,0 -0.214578,-0.2032 -0.180446,-0.496888 0.01111,0 -0.248709,0 -0.248709,0 0,0 -0.349779,0.214577 -0.327289,1.377421 0.01111,-0.01138 -0.191823,0 -0.191823,0 0,0 0.01138,-1.060979 0.293423,-1.366044 z"
       id="path5636"
       style="fill:#ffffff;fill-rule:evenodd;stroke-width:0.264583" />
    <path
       d="m 13.727636,12.946323 -0.192088,0.395023 -0.237067,0.180975 -1.29831,3.578754 c 0,0 -0.192087,0.576263 0.248444,0.756444 -0.02275,0.01111 0.496887,0.237067 0.722577,-0.315648 -0.02275,0 1.569244,-4.110037 1.569244,-4.110037 0,0 -0.214578,-0.2032 -0.180446,-0.496888 0.01111,0 -0.248709,0 -0.248709,0 0,0 -0.349779,0.214577 -0.327289,1.377421 0.01111,-0.01138 -0.191823,0 -0.191823,0 0,0 0.01138,-1.060979 0.293423,-1.366044 z"
       id="path5638"
       style="fill:none;stroke:#1c1c20;stroke-width:0.0256646;stroke-miterlimit:3.864" />
    <path
       d="m 34.015885,6.7476648 h 15.72207 V 22.469471 h -15.72207 z"
       id="rect5640"
       style="fill:#ffffff;stroke-width:0.264583;stroke:#ffffff;stroke-opacity:1" />
    <path
       d="m 44.432265,8.5021168 c 0.200555,0 0.187855,0.162719 0.187855,0.162719 0,0 -0.01217,1.091671 0,1.091671 0,0.137848 -0.137848,0.137848 -0.137848,0.137848 h -1.153848 v 0.5646212 c 0,0 1.091406,0.0127 1.078706,0 0.238125,0 0.213254,0.213518 0.213254,0.213518 0,0 0,0.652198 0,0.639763 0,0.238389 -0.225954,0.225954 -0.225954,0.225954 0,0 -0.27596,0.02514 -0.27596,0 -0.877888,0 -0.790046,0.840581 -0.790046,0.840581 v 1.743869 l 0.401373,0.401373 c 0,0 0,5.620279 0,5.607843 0,0.200554 -0.351102,0.200554 -0.351102,0.200554 -0.263525,0 -0.389202,0.163248 -0.376502,0.163248 0,0.188119 -0.363802,0.225954 -0.363802,0.225954 0,0 -0.363803,-0.03783 -0.363803,-0.225954 0.01244,0 -0.112977,-0.163248 -0.376237,-0.163248 0,0 -0.351367,0 -0.351367,-0.200554 0,0.01244 0,-5.607843 0,-5.607843 l 0.401373,-0.401373 v -1.743869 c 0,0 -0.06244,-0.840581 -1.0287,-0.840581 h -1.668462 c 0,0 -0.100542,0 -0.100542,-0.138113 0,0 0,-0.840316 0,-0.827616 0,-0.125942 0.113242,-0.113242 0.113242,-0.113242 -0.0127,0.0127 2.684462,0 2.684462,0 V 9.8946188 h -2.709333 c 0,0 -0.100542,0 -0.100542,-0.100541 -0.01296,-0.01243 0,-0.740304 0,-0.740304 0,0 0,-0.112448 0.112977,-0.112448 h 1.430073 l 0.438944,-0.439209 c -2.65e-4,0 3.299089,-0.01243 3.311789,0 z"
       id="path5642"
       style="fill:#1c1c20;stroke-width:0.264583" />
    <path
       d="m 44.432265,8.5021168 c 0.200555,0 0.187855,0.162719 0.187855,0.162719 0,0 -0.01217,1.091671 0,1.091671 0,0.137848 -0.137848,0.137848 -0.137848,0.137848 h -1.153848 v 0.5646212 c 0,0 1.091406,0.0127 1.078706,0 0.238125,0 0.213254,0.213518 0.213254,0.213518 0,0 0,0.652198 0,0.639763 0,0.238389 -0.225954,0.225954 -0.225954,0.225954 0,0 -0.27596,0.02514 -0.27596,0 -0.877888,0 -0.790046,0.840581 -0.790046,0.840581 v 1.743869 l 0.401373,0.401373 c 0,0 0,5.620279 0,5.607843 0,0.200554 -0.351102,0.200554 -0.351102,0.200554 -0.263525,0 -0.389202,0.163248 -0.376502,0.163248 0,0.188119 -0.363802,0.225954 -0.363802,0.225954 0,0 -0.363803,-0.03783 -0.363803,-0.225954 0.01244,0 -0.112977,-0.163248 -0.376237,-0.163248 0,0 -0.351367,0 -0.351367,-0.200554 0,0.01244 0,-5.607843 0,-5.607843 l 0.401373,-0.401373 v -1.743869 c 0,0 -0.06244,-0.840581 -1.0287,-0.840581 h -1.668462 c 0,0 -0.100542,0 -0.100542,-0.138113 0,0 0,-0.840316 0,-0.827616 0,-0.125942 0.113242,-0.113242 0.113242,-0.113242 -0.0127,0.0127 2.684462,0 2.684462,0 V 9.8946188 h -2.709333 c 0,0 -0.100542,0 -0.100542,-0.100541 -0.01296,-0.01243 0,-0.740304 0,-0.740304 0,0 0,-0.112448 0.112977,-0.112448 h 1.430073 l 0.438944,-0.439209 c -2.65e-4,0 3.299089,-0.01243 3.311789,0 z"
       id="path5644"
       style="fill:none;stroke:#1c1c20;stroke-width:0.028575;stroke-miterlimit:3.864" />
    <path
       d="M 82.381984,6.7698898 H 98.104055 V 22.491696 H 82.381984 Z"
       id="rect5646"
       style="fill:#ffffff;stroke-width:0.264583;stroke:#ffffff;stroke-opacity:1" />
    <path
       d="m 93.806425,18.27609 c 0.828146,1.057275 -0.267494,1.617927 -0.267494,1.617927 -0.865981,0.700881 -1.503362,-0.445823 -1.503362,-0.445823 L 90.366313,16.18694 c 0,0 -2.10185,3.401483 -2.10185,3.388519 -0.726017,1.222904 -1.668727,0.445822 -1.694127,0.433122 -0.993775,-0.739245 -0.0127,-1.707091 -0.0127,-1.707091 0,0 2.929995,-3.477948 2.929995,-3.490912 0.343959,-0.394494 -0.191293,-0.394494 -0.229129,-0.432859 -1.490662,-0.318558 -2.06375,-1.222904 -2.06375,-1.209939 -1.210469,-1.605757 -0.917575,-2.675731 -0.917575,-2.675731 0.382059,-1.2612692 1.516063,-0.8662462 1.503627,-0.8789462 1.553898,0.4079872 2.11455,1.9618852 2.12725,1.9748502 0.165629,0.356393 0.509588,2.229379 0.509588,2.229379 0,0 0.229129,-0.306123 0.407723,-1.452563 0,0.02593 0.0127,-0.687652 0.815445,-1.643591 0.0127,0 0.330994,-0.559859 1.20994,-1.0824112 0,0 0.598752,-0.267493 0.344223,0.254529 -0.01296,0.01297 -1.146704,1.6816922 -1.146704,1.6816922 0,0 -0.0381,0.07647 0.03836,0.128058 0.02567,0 0.0762,0.03784 0.152929,-0.02593 0.01244,-0.02567 1.197505,-1.6819562 1.197505,-1.6819562 0,0 0.101864,-0.152929 0.292893,-0.05107 0.158486,0.1476382 0.07911,0.3100922 0.07911,0.3100922 0,0 -1.180306,1.659467 -1.20015,1.679839 -0.03545,0.0926 0.01693,0.128853 0.02566,0.152665 0.07276,0.05583 0.132821,-0.005 0.132821,-0.005 0,0 1.208881,-1.615281 1.217084,-1.631685 0.410897,-0.411163 0.352689,0.242093 0.352689,0.242093 -0.207433,1.001448 -0.633942,1.484577 -0.629973,1.497013 -0.642144,1.06971 -1.26365,1.539081 -1.710002,1.730375 -0.0127,0.01217 -0.343694,0.06323 -0.522023,0.407458 -0.02566,0 -0.344223,0.534723 -0.344223,0.534723 0,0 2.662767,3.427412 2.675467,3.414448 z"
       id="path5648"
       style="fill:#1c1c20;stroke-width:0.264583" />
    <path
       d="m 58.172607,6.7802088 h 15.72207 V 22.502015 h -15.72207 z"
       id="rect5650"
       style="fill:#ffffff;stroke-width:0.264583;stroke:#ffffff;stroke-opacity:1" />
    <path
       d="m 70.160613,12.715342 c 0.303742,0 0.550598,0.246856 0.550598,0.550334 v 1.23825 h -6.741319 v -1.788584 z"
       id="path5652"
       style="fill:#1c1c20;stroke-width:0.264583" />
    <path
       d="m 70.160613,12.715342 c 0.303742,0 0.550598,0.246856 0.550598,0.550334 v 1.23825 h -6.741319 v -1.788584 z"
       id="path5654"
       style="fill:none;stroke:#1c1c20;stroke-width:0.0275167;stroke-miterlimit:3.864" />
    <path
       d="m 61.080907,14.778828 h 9.90547 v -1.513152 c 0,-0.303478 0.246328,-0.550334 0.550069,-0.550334 0.304006,0 0.550334,0.246856 0.550334,0.550334 v 4.402401 h -1.100403 v -1.651264 h -9.90547 v 1.651264 h -1.100402 v -5.502804 c 0,-0.30427 0.246327,-0.550068 0.550333,-0.550068 0.303742,0 0.550069,0.245798 0.550069,0.550068 z"
       id="path5656"
       style="fill:#1c1c20;stroke-width:0.264583" />
    <path
       d="m 61.080907,14.778828 h 9.90547 v -1.513152 c 0,-0.303478 0.246328,-0.550334 0.550069,-0.550334 0.304006,0 0.550334,0.246856 0.550334,0.550334 v 4.402401 h -1.100403 v -1.651264 h -9.90547 v 1.651264 h -1.100402 v -5.502804 c 0,-0.30427 0.246327,-0.550068 0.550333,-0.550068 0.303742,0 0.550069,0.245798 0.550069,0.550068 z"
       id="path5658"
       style="fill:none;stroke:#1c1c20;stroke-width:0.0275167;stroke-miterlimit:3.864" />
    <path
       d="m 61.356338,14.503926 v -1.100667 c 0,0 0.06853,-0.687917 1.169458,-0.687917 1.100402,0 1.169194,0.687917 1.169194,0.687917 v 1.100667 z"
       id="path5660"
       style="fill:#1c1c20;stroke-width:0.264583" />
    <path
       d="m 61.356338,14.503926 v -1.100667 c 0,0 0.06853,-0.687917 1.169458,-0.687917 1.100402,0 1.169194,0.687917 1.169194,0.687917 v 1.100667 z"
       id="path5662"
       style="fill:none;stroke:#1c1c20;stroke-width:0.0275167;stroke-miterlimit:3.864" />
  </g>
  <g
     inkscape:groupmode="layer"
     id="layer4"
     inkscape:label="Capa 3" />
</svg>
