<?xml version="1.0" encoding="UTF-8" standalone="no"?>
<!-- Created with Inkscape (http://www.inkscape.org/) -->

<svg
   xmlns:dc="http://purl.org/dc/elements/1.1/"
   xmlns:cc="http://creativecommons.org/ns#"
   xmlns:rdf="http://www.w3.org/1999/02/22-rdf-syntax-ns#"
   xmlns:svg="http://www.w3.org/2000/svg"
   xmlns="http://www.w3.org/2000/svg"
   version="1.2"
   width="188.9375"
   height="283.03125"
   id="svg2">
  <metadata
     id="metadata3061">
    <rdf:RDF>
      <cc:Work
         rdf:about="">
        <dc:format>image/svg+xml</dc:format>
        <dc:type
           rdf:resource="http://purl.org/dc/dcmitype/StillImage" />
        <dc:title></dc:title>
      </cc:Work>
    </rdf:RDF>
  </metadata>
  <defs
     id="defs3059" />
  <path
     d="m 188.544,272.167 c 0,5.773 -4.68,10.457 -10.457,10.457 H 10.853 C 5.076,282.624 0.4,277.94 0.4,272.167 V 10.853 C 0.4,5.08 5.076,0.4 10.853,0.4 h 167.234 c 5.777,0 10.457,4.68 10.457,10.453 v 261.314 z"
     id="path3045"
     style="fill:#ffffff" />
  <path
     d="m 188.544,272.167 c 0,5.773 -4.68,10.457 -10.457,10.457 H 10.853 C 5.076,282.624 0.4,277.94 0.4,272.167 V 10.853 C 0.4,5.08 5.076,0.4 10.853,0.4 h 167.234 c 5.777,0 10.457,4.68 10.457,10.453 v 261.314 z"
     id="path3047"
     style="fill:none;stroke:#1c1d20;stroke-width:0.80000001;stroke-miterlimit:3.86400008" />
  <path
     d="m 183.943,10.853 c 0,-3.232 -2.621,-5.857 -5.855,-5.857 H 10.853 c -3.238,0 -5.852,2.625 -5.852,5.857 v 261.314 c 0,3.23 2.613,5.855 5.852,5.855 h 167.234 c 3.234,0 5.855,-2.625 5.855,-5.855 V 10.853"
     id="path3049"
     style="fill:#19408b" />
  <path
     d="m 31.755,157.187 m 125.434,0 H 31.755 V 31.751 h 125.434 v 125.436 z"
     id="path3051"
     style="fill:#ffffff" />
  <path
     d="m 90.287,123.736 0,7.32 15.679,0 0,15.686 10.453,0 0,-15.686 15.68,0 0,-7.32 -41.812,0"
     id="polyline3053"
     style="fill:#1c1d20" />
  <path
     d="M 77.224,146.742 V 120.609 H 56.841 L 67.294,103.88 H 58.931 L 71.474,87.155 h -6.27 l 14.508,-23.23 c 0,0 0.461,-0.832 1.199,-0.832 0.734,0 1.141,0.832 1.141,0.832 l 14.512,23.23 h -6.277 l 12.547,16.725 H 94.47 l 10.453,16.729 H 84.541 v 26.133 h -7.317"
     id="path3055"
     style="fill:#1c1d20" />
</svg>
