<?xml version="1.0" encoding="UTF-8" standalone="no"?>
<svg
   xmlns:dc="http://purl.org/dc/elements/1.1/"
   xmlns:cc="http://creativecommons.org/ns#"
   xmlns:rdf="http://www.w3.org/1999/02/22-rdf-syntax-ns#"
   xmlns:svg="http://www.w3.org/2000/svg"
   xmlns="http://www.w3.org/2000/svg"
   xmlns:sodipodi="http://sodipodi.sourceforge.net/DTD/sodipodi-0.dtd"
   xmlns:inkscape="http://www.inkscape.org/namespaces/inkscape"
   version="1.2"
   width="51.732353"
   height="51.64529"
   id="svg2"
   sodipodi:docname="ES_S910.svg"
   inkscape:version="1.0.1 (3bc2e813f5, 2020-09-07)">
  <sodipodi:namedview
     pagecolor="#ffffff"
     bordercolor="#666666"
     borderopacity="1"
     objecttolerance="10"
     gridtolerance="10"
     guidetolerance="10"
     inkscape:pageopacity="0"
     inkscape:pageshadow="2"
     inkscape:window-width="1920"
     inkscape:window-height="1027"
     id="namedview853"
     showgrid="true"
     inkscape:zoom="8"
     inkscape:cx="20.487194"
     inkscape:cy="23.152889"
     inkscape:window-x="-8"
     inkscape:window-y="-8"
     inkscape:window-maximized="1"
     inkscape:current-layer="layer2"
     fit-margin-top="0"
     fit-margin-left="0"
     fit-margin-right="0"
     fit-margin-bottom="0"
     inkscape:showpageshadow="false"
     inkscape:pagecheckerboard="true"
     inkscape:document-rotation="0">
    <inkscape:grid
       type="xygrid"
       id="grid889"
       originx="1.8053328"
       originy="1.8792915" />
  </sodipodi:namedview>
  <metadata
     id="metadata3103">
    <rdf:RDF>
      <cc:Work
         rdf:about="">
        <dc:format>image/svg+xml</dc:format>
        <dc:type
           rdf:resource="http://purl.org/dc/dcmitype/StillImage" />
        <dc:title />
      </cc:Work>
    </rdf:RDF>
  </metadata>
  <defs
     id="defs3101" />
  <g
     id="Capa_1"
     style="stroke:#000080;stroke-width:1.002;stroke-miterlimit:4;stroke-dasharray:none"
     transform="translate(1.8053328,1.8792915)">
    <path
       d="m 46.748,44.749 c 0,1.114 -0.902,2.017 -2.015,2.017 H 2.1891457 c -1.113,0 -0.9134366,-0.548449 -0.9111457,-1.663447 L 1.358684,5.8334261 1.366384,2.0837573 C 1.368664,0.97175965 1.8716389,1.2164983 2.9846365,1.2188058 l 42.6322425,0.088388 c 1.111998,0.00231 1.312515,-0.2028448 1.307894,0.9091456 L 46.748,44.749"
       id="path3093"
       style="fill:#ffffff;fill-opacity:1;stroke:#000080;stroke-width:6;stroke-miterlimit:4;stroke-dasharray:none"
       sodipodi:nodetypes="cssscssssc" />
  </g>
  <g
     inkscape:groupmode="layer"
     id="layer2"
     inkscape:label="Layer 2"
     transform="translate(1.8053328,1.8792915)">
    <path
       d="m 24.049,40.706 5.229,0.013 0.213963,-0.133067 -0.01246,-22.195058 c 0,0 -0.907264,-2.577088 -1.9375,-3.413625 -0.525294,-0.426531 -1.910324,-0.887649 -1.910324,-0.887649 l -0.01606,-0.980235 c 0,0 0.928929,-0.05709 1.205076,-0.430987 0.286255,-0.38758 0.335149,-0.98292 0.169782,-1.435483 -0.163471,-0.447376 -0.911744,-0.412949 -1.027547,-0.874964 -0.08498,-0.339045 -0.02908,-1.1809248 -0.06189,-1.1809248 0.0012,-0.010734 -1.285508,0.039139 -1.643854,0.00193 C 23.980788,9.0328047 24.18569,8.5287071 24.037363,8.3009523 23.687188,7.7632637 23.216289,7.534743 22.379229,7.3231107 21.798763,7.1763528 21.112168,7.1580127 20.58725,7.446 20.072759,7.7282668 19.704769,8.2988145 19.541992,8.8626226 19.350408,9.5262095 19.35031,10.330125 19.694248,10.92909 c 0.15338,0.267109 0.761681,0.523159 0.761681,0.523159 0,0 -2.050932,0.97723 -2.861344,1.715991 -0.464307,0.423257 -1.211134,1.444196 -1.211134,1.444196 0,0 -0.369005,0.599347 -0.353709,0.930956 0.01716,0.372079 0.174435,0.807887 0.491348,1.003601 0.269585,0.166486 0.950509,-0.0086 0.950509,-0.0086 l 1.997518,-2.443826 c 0,0 1.06415,-1.022023 1.750077,-1.170391 0.445391,-0.09634 1.309799,0.206779 1.309799,0.206779 L 22.556,14.12525 c 0,0 -1.837913,0.779911 -2.523374,1.471432 C 19.222547,16.413923 18.32,18.594 18.32,18.594 l -0.05311,21.94502 0.344609,0.159167"
       id="polyline3095"
       style="fill:#e41408"
       sodipodi:nodetypes="ccccsccsssccssssscscssccsccsccc" />
  </g>
  <g
     inkscape:groupmode="layer"
     id="layer3"
     inkscape:label="Layer 3"
     transform="translate(1.8053328,1.8792915)">
    <ellipse
       style="fill:#ffffff;fill-opacity:1;stroke-width:50;stroke-linecap:round;stroke-linejoin:round"
       id="path887"
       cx="22.015625"
       cy="9.875"
       rx="1.421875"
       ry="1.4375" />
  </g>
</svg>
