<?xml version="1.0" encoding="UTF-8" standalone="no"?>
<!-- Created with Inkscape (http://www.inkscape.org/) -->

<svg
   xmlns:dc="http://purl.org/dc/elements/1.1/"
   xmlns:cc="http://creativecommons.org/ns#"
   xmlns:rdf="http://www.w3.org/1999/02/22-rdf-syntax-ns#"
   xmlns:svg="http://www.w3.org/2000/svg"
   xmlns="http://www.w3.org/2000/svg"
   version="1.2"
   width="188.9375"
   height="283.03125"
   id="svg2">
  <metadata
     id="metadata3280">
    <rdf:RDF>
      <cc:Work
         rdf:about="">
        <dc:format>image/svg+xml</dc:format>
        <dc:type
           rdf:resource="http://purl.org/dc/dcmitype/StillImage" />
        <dc:title></dc:title>
      </cc:Work>
    </rdf:RDF>
  </metadata>
  <defs
     id="defs3278" />
  <g
     id="g3308">
    <path
       d="m 188.544,272.167 c 0,5.773 -4.68,10.453 -10.457,10.453 H 10.853 C 5.076,282.62 0.4,277.94 0.4,272.167 V 10.855 C 0.4,5.08 5.076,0.4 10.853,0.4 h 167.234 c 5.777,0 10.457,4.68 10.457,10.455 v 261.312 z"
       id="path3238"
       style="fill:#ffffff" />
    <path
       d="m 188.544,272.167 c 0,5.773 -4.68,10.453 -10.457,10.453 H 10.853 C 5.076,282.62 0.4,277.94 0.4,272.167 V 10.855 C 0.4,5.08 5.076,0.4 10.853,0.4 h 167.234 c 5.777,0 10.457,4.68 10.457,10.455 v 261.312 z"
       id="path3240"
       style="fill:none;stroke:#1c1d20;stroke-width:0.80000001;stroke-miterlimit:3.86400008" />
    <path
       d="m 183.943,10.855 c 0,-3.236 -2.621,-5.859 -5.855,-5.859 H 10.853 c -3.238,0 -5.852,2.623 -5.852,5.859 v 261.313 c 0,3.234 2.613,5.855 5.852,5.855 h 167.234 c 3.234,0 5.855,-2.621 5.855,-5.855 V 10.855"
       id="path3242"
       style="fill:#19408b" />
    <path
       d="m 31.755,157.183 m 125.434,0 H 31.755 V 31.751 h 125.434 v 125.432 z"
       id="path3244"
       style="fill:#ffffff" />
    <path
       d="m 116.142,133.587 m 17.77,0 h -17.77 V 49.968 h 17.77 v 83.619 z"
       id="path3246"
       style="fill:#1c1d20" />
    <path
       d="m 134.958,115.824 0,-43.905 2.094,2.092 0,39.725 -2.094,2.088"
       id="polyline3248"
       style="fill:#1c1d20" />
    <path
       d="m 115.095,113.736 -2.535,2.535 -5.348,-6.072 -3.683,3.496 -5.531,-5.344 -3.692,2.768 -5.348,-4.612 -4.238,3.871 -5.164,-5.154 -3.871,3.867 -5.348,-5.164 -3.316,3.869 -2.41,0 0,-32.746 2.41,-0.34 4.363,3.873 4.301,-4.119 3.871,3.883 5.164,-5.168 4.238,3.867 5.348,-4.611 3.692,3.816 5.531,-5.347 3.683,3.5 5.348,-6.069 2.535,2.536 0,42.865"
       id="polyline3250"
       style="fill:#1c1d20" />
    <path
       d="m 60.431,102.236 m 3.133,0 h -3.133 v -23 h 3.133 v 23 z"
       id="path3252"
       style="fill:#1c1d20" />
    <path
       d="m 70.15,76.107 -2.09,-2.096 0,-13.588 9.406,0 0,6.272 -7.316,7.316 0,2.096"
       id="polyline3254"
       style="fill:#1c1d20" />
    <path
       d="m 70.15,106.412 0,11.5 47.039,0 0,6.263 -13.59,0 -2.09,3.149 -30.308,0 -4.18,-5.237 -9.414,0 0,-2.087 4.184,0 1.046,-2.088 4.184,0 0,-9.412 3.129,-2.088"
       id="polyline3256"
       style="fill:#1c1d20" />
    <path
       d="m 52.384,141.949 m 4.184,0 h -4.18 v -2.086 h 4.18 v 2.086 z"
       id="path3258"
       style="fill:#1c1d20" />
    <path
       d="m 54.470001,140.90199 0,-12.543"
       id="line3260"
       style="fill:none;stroke:#1c1d20;stroke-width:0.42399999;stroke-miterlimit:3.86400008" />
    <path
       d="m 51.341,131.5 6.266,0 -3.137,-3.141 -3.129,3.141"
       id="polyline3262"
       style="fill:#1c1d20" />
    <path
       d="m 51.341,124.703 6.266,0 -3.137,-3.139 -3.129,3.139"
       id="polyline3264"
       style="fill:#1c1d20" />
    <path
       d="m 119.798,124.703 c 0,-3.176 2.578,-5.744 5.754,-5.744 3.172,0 5.746,2.568 5.746,5.744 0,3.18 -2.574,5.748 -5.746,5.748 -3.176,0 -5.754,-2.569 -5.754,-5.748 z"
       id="path3266"
       style="fill:#1c1d20" />
    <path
       d="m 119.798,124.703 c 0,-3.176 2.578,-5.744 5.754,-5.744 3.172,0 5.746,2.568 5.746,5.744 0,3.18 -2.574,5.748 -5.746,5.748 -3.176,0 -5.754,-2.569 -5.754,-5.748 z"
       id="path3268"
       style="fill:none;stroke:#ffffff;stroke-width:0.2;stroke-miterlimit:3.86400008" />
    <path
       d="m 119.798,59.072 c 0,-3.172 2.578,-5.748 5.754,-5.748 3.172,0 5.746,2.576 5.746,5.748 0,3.176 -2.574,5.744 -5.746,5.744 -3.176,0 -5.754,-2.568 -5.754,-5.744 z"
       id="path3270"
       style="fill:#1c1d20" />
    <path
       d="m 119.798,59.072 c 0,-3.172 2.578,-5.748 5.754,-5.748 3.172,0 5.746,2.576 5.746,5.748 0,3.176 -2.574,5.744 -5.746,5.744 -3.176,0 -5.754,-2.568 -5.754,-5.744 z"
       id="path3272"
       style="fill:none;stroke:#ffffff;stroke-width:0.2;stroke-miterlimit:3.86400008" />
    <path
       d="M 54.47,130.451 V 77.148 c 0,0 -0.355,-5.117 6.465,-5.117 0,0 5.344,-0.184 5.344,5.348"
       id="path3274"
       style="fill:none;stroke:#1c1d20;stroke-width:0.42399999;stroke-miterlimit:3.86400008" />
  </g>
</svg>
