<?xml version="1.0" encoding="UTF-8" standalone="no"?>
<svg
   xmlns:dc="http://purl.org/dc/elements/1.1/"
   xmlns:cc="http://creativecommons.org/ns#"
   xmlns:rdf="http://www.w3.org/1999/02/22-rdf-syntax-ns#"
   xmlns:svg="http://www.w3.org/2000/svg"
   xmlns="http://www.w3.org/2000/svg"
   xmlns:sodipodi="http://sodipodi.sourceforge.net/DTD/sodipodi-0.dtd"
   xmlns:inkscape="http://www.inkscape.org/namespaces/inkscape"
   version="1.2"
   width="218.509"
   height="182.23"
   id="svg2"
   sodipodi:docname="ES_S350.svg"
   inkscape:version="1.0.1 (3bc2e813f5, 2020-09-07)">
  <sodipodi:namedview
     pagecolor="#ffffff"
     bordercolor="#666666"
     borderopacity="1"
     objecttolerance="10"
     gridtolerance="10"
     guidetolerance="10"
     inkscape:pageopacity="0"
     inkscape:pageshadow="2"
     inkscape:window-width="1920"
     inkscape:window-height="1027"
     id="namedview3513"
     showgrid="false"
     inkscape:zoom="2.1937528"
     inkscape:cx="246.60938"
     inkscape:cy="92.191262"
     inkscape:window-x="-8"
     inkscape:window-y="-8"
     inkscape:window-maximized="1"
     inkscape:current-layer="svg2"
     fit-margin-top="0"
     fit-margin-left="0"
     fit-margin-right="0"
     fit-margin-bottom="0" />
  <metadata
     id="metadata3303">
    <rdf:RDF>
      <cc:Work
         rdf:about="">
        <dc:format>image/svg+xml</dc:format>
        <dc:type
           rdf:resource="http://purl.org/dc/dcmitype/StillImage" />
        <dc:title></dc:title>
      </cc:Work>
    </rdf:RDF>
  </metadata>
  <defs
     id="defs3301" />
  <path
     d="m 218.109,155.916 c 0,14.313 -11.605,25.914 -25.92,25.914 H 26.316 C 12.003,181.83 0.40000001,170.228 0.40000001,155.916 V 26.32 C 0.40000001,12.007 12.004,0.40000001 26.316,0.40000001 h 165.873 c 14.314,0 25.92,11.60699999 25.92,25.91999999 z"
     id="path3217"
     style="fill:#ffffff"
     sodipodi:insensitive="true" />
  <path
     d="m 218.109,155.916 c 0,14.313 -11.605,25.914 -25.92,25.914 H 26.316 C 12.003,181.83 0.40000001,170.228 0.40000001,155.916 V 26.32 C 0.40000001,12.007 12.004,0.40000001 26.316,0.40000001 h 165.873 c 14.314,0 25.92,11.60699999 25.92,25.91999999 z"
     id="path3219"
     style="fill:none;stroke:#1c1d20;stroke-width:0.8;stroke-miterlimit:3.864" />
  <path
     d="m 212.923,155.916 c 0,11.445 -9.283,20.727 -20.734,20.727 H 26.316 c -11.451,0 -20.732,-9.281 -20.732,-20.727 V 26.32 c 0,-11.449 9.281,-20.729 20.732,-20.729 h 165.873 c 11.451,0 20.734,9.279 20.734,20.729 z"
     id="path3243"
     style="fill:none;stroke:#1c1d20;stroke-width:4;stroke-miterlimit:3.864" />
  <path
     d="m 103.5327,126.51469 10.97023,11.18466 11.85759,-18.35122 -0.3642,37.53275 -37.535593,-0.35956 18.583883,-11.50663 -18.719508,-18.4781 7.45832,-7.31534"
     id="polyline3245"
     style="fill:#1c1d20;stroke-width:1"
     sodipodi:nodetypes="cccccccc" />
  <path
     d="m 78.145003,53.330196 h 5.93 V 56.7252 h -5.93 z"
     id="path3287"
     style="fill:#ffffff" />
  <text
     xml:space="preserve"
     style="font-size:33.3333px;line-height:19.5313px;font-family:'Andale Mono IPA';-inkscape-font-specification:'Andale Mono IPA';letter-spacing:0px;word-spacing:0px;fill:#000000;fill-opacity:1;stroke:none;stroke-width:0.999998px;stroke-linecap:butt;stroke-linejoin:miter;stroke-opacity:1"
     x="30.963924"
     y="75.91684"
     id="text4113"
     transform="scale(1.0049051,0.99511884)"><tspan
       sodipodi:role="line"
       id="tspan4111"
       x="30.963924"
       y="75.91684"
       style="font-style:normal;font-variant:normal;font-weight:normal;font-stretch:normal;font-size:33.3333px;font-family:Ccrige;-inkscape-font-specification:Ccrige;fill:#000000;fill-opacity:1;stroke:none;stroke-width:0.999998px">LOECHES</tspan></text>
</svg>
