<?xml version="1.0" encoding="UTF-8" standalone="no"?>
<!-- Created with Inkscape (http://www.inkscape.org/) -->

<svg
   xmlns:dc="http://purl.org/dc/elements/1.1/"
   xmlns:cc="http://creativecommons.org/ns#"
   xmlns:rdf="http://www.w3.org/1999/02/22-rdf-syntax-ns#"
   xmlns:svg="http://www.w3.org/2000/svg"
   xmlns="http://www.w3.org/2000/svg"
   version="1.2"
   width="572.96875"
   height="229.625"
   id="svg2">
  <metadata
     id="metadata3281">
    <rdf:RDF>
      <cc:Work
         rdf:about="">
        <dc:format>image/svg+xml</dc:format>
        <dc:type
           rdf:resource="http://purl.org/dc/dcmitype/StillImage" />
        <dc:title></dc:title>
      </cc:Work>
    </rdf:RDF>
  </metadata>
  <defs
     id="defs3279" />
  <g
     id="g3402">
    <path
       d="m 274.287,204.818 c 0,13.156 -10.664,23.816 -23.82,23.816 H 24.216 C 11.064,228.634 0.4,217.974 0.4,204.818 V 66.691 c 0,-13.156 10.664,-23.82 23.816,-23.82 h 226.25 c 13.156,0 23.82,10.664 23.82,23.82 v 138.127 z"
       id="path3155"
       style="fill:#ffffff" />
    <path
       d="m 274.287,204.818 c 0,13.156 -10.664,23.816 -23.82,23.816 H 24.216 C 11.064,228.634 0.4,217.974 0.4,204.818 V 66.691 c 0,-13.156 10.664,-23.82 23.816,-23.82 h 226.25 c 13.156,0 23.82,10.664 23.82,23.82 v 138.127 z"
       id="path3157"
       style="fill:none;stroke:#1c1d20;stroke-width:0.80000001;stroke-miterlimit:3.86400008" />
    <path
       d="m 481.482,28.576 c 0,6.58 -5.328,11.912 -11.906,11.912 h -88.121 c -6.574,0 -11.906,-5.332 -11.906,-11.912 V 11.912 C 369.548,5.328 374.88,0 381.455,0 h 88.121 c 6.578,0 11.906,5.328 11.906,11.912 v 16.664"
       id="path3159"
       style="fill:#19408b" />
    <path
       d="m 88.521,102.412 m 92.879,0 H 88.517 V 73.834 H 181.4 v 28.578 z"
       id="path3161"
       style="fill:#e41408" />
    <path
       d="M 46.662,124.848 H 57.31 c 3.474,0.774 5.211,2.512 5.211,5.211 v 1.133 c 0,1.266 -0.604,2.549 -1.813,3.852 1.963,1.549 2.945,3.21 2.945,4.984 v 0.906 c -0.812,3.776 -2.625,5.664 -5.438,5.664 H 46.662 l -0.453,-0.453 v -20.844 l 0.453,-0.453 z m 4.531,4.531 v 3.852 h 4.531 c 0.953,0 1.558,-0.604 1.813,-1.813 0,-1.359 -1.058,-2.039 -3.172,-2.039 h -3.172 z m 0,8.156 v 4.305 h 4.984 c 1.359,0 2.039,-0.604 2.039,-1.813 v -0.453 c 0,-1.151 -0.755,-1.831 -2.266,-2.039 h -4.757 z"
       id="path3165"
       style="fill:#1c1d20" />
    <path
       d="m 66.259,124.848 h 14.953 v 4.305 h -9.969 v 4.078 h 8.836 v 4.305 h -8.836 v 4.305 h 10.875 v 4.758 H 66.259 v -21.751 z"
       id="path3167"
       style="fill:#1c1d20" />
    <path
       d="m 84.823,124.848 h 5.211 c 2.482,3.38 5.579,8.063 9.289,14.047 h 0.227 v -14.047 h 4.758 v 21.75 H 98.87 c -5.494,-8.666 -8.591,-13.272 -9.289,-13.82 v 13.82 h -4.758 v -21.75 z"
       id="path3169"
       style="fill:#1c1d20" />
    <path
       d="m 113.894,124.848 h 6.57 l 7.477,21.75 h -5.664 l -0.906,-3.172 h -7.93 l -0.906,3.172 h -5.438 l 6.797,-21.75 z m 3.172,6.57 -2.039,7.023 h 4.531 v -0.227 c -1.359,-4.53 -2.19,-6.796 -2.492,-6.796 z"
       id="path3171"
       style="fill:#1c1d20" />
    <path
       d="m 127.858,124.848 h 4.758 l 3.852,14.047 h 0.227 l 3.852,-14.047 h 4.984 l -5.891,21.75 h -5.664 c -0.359,0 -1.643,-4.531 -3.852,-13.594 l -2.266,-8.156 z"
       id="path3173"
       style="fill:#1c1d20" />
    <path
       d="m 147.946,124.848 h 14.953 v 4.305 h -9.969 v 4.078 h 8.836 v 4.305 h -8.836 v 4.305 h 10.875 v 4.758 h -15.859 v -21.751 z"
       id="path3175"
       style="fill:#1c1d20" />
    <path
       d="m 166.51,124.848 h 5.211 c 2.482,3.38 5.579,8.063 9.289,14.047 h 0.227 v -14.047 h 4.758 v 21.75 h -5.438 c -5.494,-8.666 -8.591,-13.272 -9.289,-13.82 v 13.82 h -4.758 v -21.75 z"
       id="path3177"
       style="fill:#1c1d20" />
    <path
       d="m 188.784,124.848 h 17.445 v 4.531 h -6.344 v 17.219 h -4.758 v -17.219 h -6.344 v -4.531 z"
       id="path3179"
       style="fill:#1c1d20" />
    <path
       d="m 208.084,124.848 h 14.953 v 4.305 h -9.969 v 4.078 h 8.836 v 4.305 h -8.836 v 4.305 h 10.875 v 4.758 h -15.859 v -21.751 z"
       id="path3181"
       style="fill:#1c1d20" />
    <path
       d="m 268.521,203.179 c 0,10.332 -8.445,18.694 -18.863,18.694 H 25.691 c -10.414,0 -18.859,-8.362 -18.859,-18.694 V 67.664 c 0,-10.324 8.445,-18.692 18.859,-18.692 h 223.967 c 10.417,0 18.867,8.368 18.867,18.692 l -0.004,135.515 z"
       id="path3183"
       style="fill:none;stroke:#1c1d20;stroke-width:4;stroke-miterlimit:3.86400008" />
    <path
       d="m 137.458,168.998 0,10.938 14.879,-3.348 -18.527,18.531 -18.519,-18.531 14.882,3.348 0,-10.938 7.285,0"
       id="polyline3185"
       style="fill:#1c1d20" />
    <path
       d="m 571.982,204.818 c 0,13.156 -10.66,23.816 -23.809,23.816 H 302.865 c -13.152,0 -23.816,-10.66 -23.816,-23.816 V 66.691 c 0,-13.156 10.664,-23.82 23.816,-23.82 h 245.309 c 13.148,0 23.809,10.664 23.809,23.82 v 138.127"
       id="path3187"
       style="fill:#19408b;stroke:#ffffff;stroke-width:2" />
    <path
       d="m 474.696,28.247 c 0,3.794 -3.072,6.869 -6.864,6.869 h -84.633 c -3.785,0 -6.86,-3.075 -6.86,-6.869 V 12.243 c 0,-3.793 3.075,-6.858 6.86,-6.858 h 84.633 c 3.792,0 6.864,3.065 6.864,6.858 v 16.004 z"
       id="path3189"
       style="fill:none;stroke:#ffffff;stroke-width:3;stroke-miterlimit:3.86400008" />
    <path
       d="m 563.719,201.869 c 0,10.082 -8.315,18.241 -18.576,18.241 H 305.895 c -10.261,0 -18.584,-8.159 -18.584,-18.241 V 69.64 c 0,-10.074 8.323,-18.239 18.584,-18.239 h 239.248 c 10.261,0 18.576,8.166 18.576,18.239 v 132.229 z"
       id="path3191"
       style="fill:none;stroke:#ffffff;stroke-width:4;stroke-miterlimit:3.86400008" />
    <path
       d="m 308.99,146.178 h 16.844 v 4.375 h -6.125 v 16.625 h -4.594 v -16.625 h -6.125 v -4.375 z"
       id="path3195"
       style="fill:#ffffff" />
    <path
       d="m 335.281,151.209 c 3.244,0 5.578,1.604 7,4.813 l 0.656,3.063 c 0,4.402 -2.115,7.101 -6.344,8.094 h -1.75 c -3.437,0 -5.77,-1.896 -7,-5.688 l -0.219,-2.406 c 0,-3.818 1.969,-6.371 5.906,-7.656 l 1.751,-0.22 z M 332,158.646 v 1.313 c 0.264,2.188 1.357,3.281 3.281,3.281 1.969,0 3.063,-1.166 3.281,-3.5 v -0.438 c 0,-2.625 -1.094,-3.938 -3.281,-3.938 -2.188,0.184 -3.281,1.278 -3.281,3.282 z"
       id="path3197"
       style="fill:#ffffff" />
    <path
       d="m 353.027,151.646 h 1.313 v 4.594 h -1.094 c -2.479,0 -3.719,1.386 -3.719,4.156 v 6.781 h -4.594 v -15.313 h 4.594 v 1.094 c 1.403,-0.874 2.57,-1.312 3.5,-1.312 z"
       id="path3199"
       style="fill:#ffffff" />
    <path
       d="m 367.833,145.959 h 4.594 v 21 h -3.938 l -0.656,-0.656 c -1.066,0.584 -2.233,0.875 -3.5,0.875 -2.862,0 -5.05,-1.531 -6.563,-4.594 -0.438,-0.701 -0.656,-1.795 -0.656,-3.281 0,-4.293 2.188,-6.918 6.563,-7.875 h 1.313 c 0.747,0 1.695,0.292 2.844,0.875 v -6.344 z m -6.125,12.25 v 1.75 c 0.337,2.042 1.285,3.063 2.844,3.063 h 0.438 c 1.896,-0.474 2.844,-1.422 2.844,-2.844 v -1.531 c -0.246,-2.041 -1.268,-3.063 -3.063,-3.063 -1.604,0 -2.625,0.875 -3.063,2.625 z"
       id="path3201"
       style="fill:#ffffff" />
    <path
       d="m 382.367,151.428 c 4.229,0 6.635,2.625 7.219,7.875 v 1.531 h -10.063 c 0.638,1.604 1.658,2.406 3.063,2.406 1.166,0 2.406,-0.51 3.719,-1.531 l 3.063,3.063 c -2.188,1.604 -4.448,2.406 -6.781,2.406 -5.104,-0.674 -7.656,-3.153 -7.656,-7.438 v -0.875 c 0.627,-4.958 3.106,-7.437 7.436,-7.437 z m -2.844,5.906 h 5.469 c -0.565,-1.458 -1.514,-2.188 -2.844,-2.188 -1.121,0 -1.996,0.73 -2.625,2.188 z"
       id="path3203"
       style="fill:#ffffff" />
    <path
       d="m 398.91,151.428 c 2.533,0 4.721,0.803 6.563,2.406 l -2.625,2.844 h -0.219 c -0.967,-0.875 -2.133,-1.313 -3.5,-1.313 -0.584,0 -1.021,0.292 -1.313,0.875 0.619,0.401 2.369,0.912 5.25,1.531 1.75,1.104 2.625,2.27 2.625,3.5 v 1.313 c 0,2.58 -1.969,4.111 -5.906,4.594 -2.89,0 -5.441,-1.021 -7.656,-3.063 l 3.063,-2.625 c 1.868,1.167 3.399,1.75 4.594,1.75 0.583,0 1.021,-0.364 1.313,-1.094 -0.465,-0.4 -2.288,-0.984 -5.469,-1.75 -1.604,-0.911 -2.406,-2.15 -2.406,-3.719 v -0.438 c -0.002,-2.778 1.894,-4.383 5.686,-4.811 z"
       id="path3205"
       style="fill:#ffffff" />
    <path
       d="m 409.792,145.74 c 1.896,0.237 2.844,1.112 2.844,2.625 0,1.514 -0.948,2.389 -2.844,2.625 -1.604,-0.236 -2.406,-1.039 -2.406,-2.406 v -0.438 c 0.237,-1.603 1.039,-2.406 2.406,-2.406 z m -2.187,6.344 h 4.594 v 15.094 h -4.594 v -15.094 z"
       id="path3207"
       style="fill:#ffffff" />
    <path
       d="m 415.371,145.959 h 4.594 v 16.406 l 0.656,0.656 h 0.875 l 1.094,-0.219 0.438,4.156 h -0.219 l -2.625,0.219 c -3.209,0 -4.813,-1.313 -4.813,-3.938 v -17.28 z"
       id="path3209"
       style="fill:#ffffff" />
    <path
       d="m 424.285,145.959 h 4.594 v 16.406 l 0.656,0.656 h 0.875 l 1.094,-0.219 0.438,4.156 h -0.219 l -2.625,0.219 c -3.209,0 -4.813,-1.313 -4.813,-3.938 v -17.28 z"
       id="path3211"
       style="fill:#ffffff" />
    <path
       d="m 439.488,151.428 c 2.916,0 4.958,1.094 6.125,3.281 l 0.219,1.969 v 6.344 c 0.146,0.438 0.583,0.656 1.313,0.656 -0.639,2.334 -1.148,3.5 -1.531,3.5 -1.449,-0.082 -2.616,-0.52 -3.5,-1.313 -1.432,0.875 -2.816,1.313 -4.156,1.313 -3.646,-0.455 -5.469,-2.06 -5.469,-4.813 v -0.219 c 0,-2.953 2.844,-4.703 8.531,-5.25 v -0.656 c 0,-0.31 -0.656,-0.602 -1.969,-0.875 -1.295,0.101 -2.68,0.684 -4.156,1.75 l -1.969,-3.063 v -0.219 c 1.895,-1.603 4.082,-2.405 6.562,-2.405 z m -2.406,10.281 v 0.656 c 0.373,0.729 1.029,1.094 1.969,1.094 1.458,-0.41 2.188,-0.848 2.188,-1.313 v -1.313 l -0.219,-0.219 v -0.219 c -2.626,0.494 -3.938,0.931 -3.938,1.314 z"
       id="path3213"
       style="fill:#ffffff" />
    <path
       d="m 455.662,151.428 c 2.533,0 4.721,0.803 6.563,2.406 l -2.625,2.844 h -0.219 c -0.967,-0.875 -2.133,-1.313 -3.5,-1.313 -0.584,0 -1.021,0.292 -1.313,0.875 0.619,0.401 2.369,0.912 5.25,1.531 1.75,1.104 2.625,2.27 2.625,3.5 v 1.313 c 0,2.58 -1.969,4.111 -5.906,4.594 -2.89,0 -5.441,-1.021 -7.656,-3.063 l 3.063,-2.625 c 1.868,1.167 3.399,1.75 4.594,1.75 0.583,0 1.021,-0.364 1.313,-1.094 -0.465,-0.4 -2.288,-0.984 -5.469,-1.75 -1.604,-0.911 -2.406,-2.15 -2.406,-3.719 v -0.438 c -0.002,-2.778 1.894,-4.383 5.686,-4.811 z"
       id="path3215"
       style="fill:#ffffff" />
    <path
       d="m 362.16901,100.027 54.683,0 0,28.576 -54.683,0 z"
       id="rect3217"
       style="fill:none;stroke:#ffffff;stroke-miterlimit:3.86400008" />
    <path
       d="m 542.517,160.162 -7.379,-36.023 -9.105,14.32 -22.567,-26.027 -8.679,8.668 26.035,22.57 -14.317,9.105 36.012,7.387"
       id="polyline3219"
       style="fill:#ffffff" />
    <path
       d="m 91.706,79.046 h 4.339 c 2.067,2.814 4.646,6.714 7.735,11.698 h 0.189 V 79.046 h 3.962 v 18.112 h -4.528 C 98.827,89.942 96.249,86.105 95.667,85.649 V 97.158 H 91.705 V 79.046 z"
       id="path3225"
       style="fill:#ffffff" />
    <path
       d="m 113.927,86.698 h 6.226 v 3.208 h -6.226 v -3.208 z"
       id="path3229"
       style="fill:#ffffff" />
    <g
       id="g3233">
      <path
         d="m 139.527,88.443 c -0.945,-2.835 -3.885,-4.567 -6.877,-3.938 -0.735,0.155 -1.471,0.367 -2.048,0.84 0.105,-0.84 0.473,-1.627 1.156,-2.152 0.84,-0.63 1.942,-0.787 2.887,-0.262 0.472,0.262 0.682,0.788 0.945,1.26 1.313,-0.525 2.625,-0.998 3.885,-1.627 -0.367,-0.998 -0.892,-1.89 -1.733,-2.573 -1.154,-0.945 -2.519,-1.26 -3.938,-1.365 -2.415,-0.157 -4.934,0.735 -6.142,2.888 -1.679,2.834 -1.679,6.037 -1.208,9.188 0.42,3.097 2.206,6.143 5.512,6.825 3.045,0.63 6.248,-0.682 7.403,-3.57 0.683,-1.786 0.735,-3.729 0.158,-5.514 z m -3.727,3.098 c -0.104,0.893 -0.629,1.732 -1.522,2.048 -0.735,0.263 -1.47,0.21 -2.152,-0.105 -1.05,-0.525 -1.417,-1.837 -1.26,-2.94 0.105,-0.788 0.464,-1.484 1.155,-1.89 0.892,-0.525 1.942,-0.472 2.782,0.105 0.892,0.682 1.101,1.732 0.997,2.782 z"
         id="path3235"
         style="fill:#ffffff" />
    </g>
    <path
       d="m 147.455,84.821 c -1.107,0 -2.205,-0.315 -3.307,-0.368 0.052,-0.945 0.157,-1.89 0.682,-2.782 1.155,-1.943 3.255,-2.73 5.303,-2.94 1.89,-0.158 3.832,0.052 5.512,1.208 2.047,1.365 2.73,3.885 1.942,6.038 -0.315,0.84 -0.998,1.417 -1.733,1.89 2.73,0.998 2.783,4.515 1.628,6.773 -0.735,1.417 -2.1,2.31 -3.675,2.625 -2.887,0.682 -6.195,0.472 -8.295,-1.891 -0.892,-1.05 -1.313,-2.257 -1.47,-3.57 1.418,-0.157 2.835,-0.42 4.253,-0.63 0.052,0.893 0.525,1.785 1.313,2.153 1.154,0.525 2.625,0.525 3.675,-0.315 0.577,-0.525 0.734,-1.365 0.472,-2.047 -0.682,-1.47 -2.572,-1.208 -3.938,-1.208 0,-1.208 0,-2.362 0,-3.57 0.788,0 1.628,0.053 2.416,-0.157 0.682,-0.21 1.207,-0.683 1.365,-1.365 0.052,-0.315 0.052,-0.63 -0.052,-0.945 -0.579,-1.418 -2.468,-1.523 -3.781,-1.05 -0.892,0.315 -1.523,1.26 -1.469,2.205 -0.263,0.051 -0.579,-0.054 -0.841,-0.054 z"
       id="path3237"
       style="fill:#ffffff" />
    <g
       id="g3241">
      <path
         d="m 176.33,81.566 c -1.784,-2.415 -4.62,-3.308 -7.507,-2.888 -2.625,0.42 -4.673,2.31 -5.565,4.673 -0.993,2.627 -1.104,5.407 -0.473,8.189 0.419,1.786 1.26,3.308 2.677,4.516 2.467,1.995 5.933,2.152 8.663,0.629 2.573,-1.47 3.727,-4.41 3.938,-7.192 0.157,-2.729 0,-5.565 -1.733,-7.927 z m -2.678,9.187 c -0.157,1.207 -0.998,2.153 -2.1,2.573 -1.207,0.419 -2.52,0.262 -3.569,-0.578 -0.946,-0.788 -1.208,-1.995 -1.208,-3.097 -0.052,-1.575 -0.286,-3.158 0.262,-4.725 0.367,-1.05 1.26,-1.837 2.363,-2.1 1.68,-0.473 3.465,0.419 3.99,1.942 0.683,1.942 0.472,3.99 0.262,5.985 z"
         id="path3243"
         style="fill:#ffffff" />
    </g>
    <path
       d="m 378.883,111.436 c -0.619,-1.795 -1.165,-3.59 -1.857,-5.385 -1.69,0.051 -3.372,-0.103 -5.064,0.051 -1.691,5.757 -3.702,11.41 -5.281,17.167 h 4.064 c 0.319,-0.845 0.526,-1.794 0.846,-2.641 2.063,0.051 4.179,-0.103 6.241,0.051 0.258,0.847 0.517,1.745 0.836,2.59 1.435,-0.051 2.857,0.104 4.282,-0.051 -1.372,-3.91 -2.694,-7.821 -4.067,-11.782 z m -6.127,5.447 c 0.577,-1.96 1.216,-3.807 1.794,-5.766 0.207,0.525 0.372,1.062 0.526,1.588 0.423,1.413 0.949,2.795 1.436,4.178 h -3.756 z"
       id="path3249"
       style="fill:#ffffff" />
    <path
       d="m 386.808,112.178 c 1.691,0 3.321,0 5.014,0 0,1.053 0,2.167 0,3.219 -1.961,0 -3.911,0 -5.86,0 0,-1.053 0,-2.167 0,-3.219 0.268,0 0.578,0 0.846,0 z"
       id="path3251"
       style="fill:#ffffff" />
    <path
       d="m 409.413,115.347 c -0.526,-1.796 -1.849,-3.333 -3.746,-3.859 -1.382,-0.422 -2.765,-0.289 -4.023,0.216 -0.258,0.104 -0.475,0.413 -0.784,0.372 0.051,-1.641 1.526,-2.961 3.219,-2.703 0.795,0.165 1.371,0.744 1.63,1.486 1.177,-0.537 2.331,-0.95 3.487,-1.486 -0.36,-1.259 -1.259,-2.373 -2.476,-2.951 -2.909,-1.321 -6.872,-0.846 -8.604,2.105 -1.28,2.228 -1.321,4.704 -1.218,7.139 0.156,2.693 1.053,5.591 3.591,7.076 2.692,1.527 6.396,1.002 8.191,-1.743 1.103,-1.743 1.259,-3.755 0.733,-5.652 z m -3.808,3.167 c -0.412,1.165 -1.898,1.588 -3.013,1.165 -1.319,-0.526 -1.578,-2.218 -1.104,-3.435 0.506,-1.312 2.115,-1.692 3.271,-1.001 1.114,0.681 1.216,2.156 0.846,3.271 z"
       id="path3257"
       style="fill:#ffffff" />
    <path
       d="m 401.169,22.696 c -0.558,2.438 -2.534,4.147 -4.914,4.301 -2.688,0.153 -5.377,-1.459 -5.915,-4.147 1.075,-0.23 1.997,-0.691 3.072,-0.845 0.46,1.229 1.767,2.304 3.148,1.689 1.229,-0.614 1.536,-1.997 1.076,-3.226 -0.308,-0.845 -1.229,-1.536 -2.15,-1.383 -0.691,0.154 -1.306,0.462 -1.614,1.076 -1.151,-0.077 -2.379,-0.308 -3.532,-0.461 0.231,-2.534 0.691,-5.146 0.923,-7.68 3.071,0 6.144,0 9.215,0 0,0.998 0,1.997 0,2.996 -2.073,0.076 -4.223,-0.154 -6.297,0.076 0.076,0.461 -0.23,0.999 -0.078,1.459 1.23,-0.461 2.458,-0.461 3.688,-0.154 2.687,0.77 3.993,3.612 3.378,6.299 z"
       id="path3261"
       style="fill:#ffffff" />
    <path
       d="m 448.708,21.39 c 0.125,1.771 0.077,3.534 0.077,5.3 -1.074,0 -2.15,0 -3.226,0 0,-3.533 0,-6.989 0,-10.522 0.999,0.077 1.996,-0.23 2.919,0.154 0.077,0 0.077,0.46 0.229,0.307 1.613,-1.075 3.84,-0.999 5.069,0.538 1.383,-1.382 3.533,-1.767 5.298,-0.691 1.077,0.691 1.691,1.766 1.691,2.995 0.153,2.381 0.076,4.838 0.076,7.22 -1.075,0 -2.15,0 -3.226,0 -0.077,-2.304 0.23,-4.608 -0.153,-6.913 -0.077,-0.461 -0.537,-0.691 -0.999,-0.845 -0.69,-0.154 -1.458,0.23 -1.536,0.845 -0.384,2.381 -0.076,4.608 -0.153,6.913 -1.075,0 -2.15,0 -3.225,0 -0.078,-2.304 0.229,-4.608 -0.155,-6.913 -0.075,-0.461 -0.537,-0.691 -0.996,-0.845 -1.459,-0.231 -1.766,1.382 -1.69,2.457 z"
       id="path3263"
       style="fill:#ffffff" />
    <g
       id="g3267">
      <path
         d="m 433.119,17.627 c -0.308,-2.381 -1.613,-4.685 -3.918,-5.53 -2.765,-0.999 -6.065,-0.153 -7.449,2.535 -1.996,3.994 -1.612,10.137 2.92,11.904 2.533,1.076 5.805,0.289 7.296,-2.228 1.228,-2.072 1.38,-4.376 1.151,-6.681 z m -3.456,3.226 c -0.044,0.848 -0.307,1.689 -0.998,2.228 -1.229,0.921 -3.149,0.768 -3.993,-0.615 -0.309,-0.461 -0.385,-0.998 -0.385,-1.536 -0.154,-1.459 -0.308,-2.995 0.229,-4.377 0.384,-0.999 1.46,-1.459 2.459,-1.459 0.921,-0.076 1.843,0.385 2.304,1.229 0.69,1.381 0.461,2.993 0.384,4.53 z"
         id="path3269"
         style="fill:#ffffff" />
    </g>
    <g
       id="g3273">
      <path
         d="m 413.228,12.098 c -2.766,-0.999 -6.068,-0.153 -7.45,2.535 -1.997,3.994 -1.612,10.137 2.918,11.904 2.073,0.844 4.532,0.537 6.221,-0.922 1.69,-1.536 2.194,-3.764 2.304,-5.914 0.154,-2.995 -0.922,-6.451 -3.993,-7.603 z m -0.539,10.983 c -1.229,0.998 -3.148,0.768 -3.993,-0.615 -0.308,-0.461 -0.384,-0.998 -0.384,-1.536 -0.153,-1.459 -0.307,-2.995 0.231,-4.377 0.536,-1.306 2.071,-1.766 3.302,-1.383 1.228,0.384 1.92,1.69 1.843,2.996 -0.1,1.688 0.461,3.686 -0.999,4.915 z"
         id="path3275"
         style="fill:#ffffff" />
    </g>
  </g>
</svg>
