<?xml version="1.0" encoding="UTF-8" standalone="no"?>
<!-- Created with Inkscape (http://www.inkscape.org/) -->

<svg
   xmlns:dc="http://purl.org/dc/elements/1.1/"
   xmlns:cc="http://creativecommons.org/ns#"
   xmlns:rdf="http://www.w3.org/1999/02/22-rdf-syntax-ns#"
   xmlns:svg="http://www.w3.org/2000/svg"
   xmlns="http://www.w3.org/2000/svg"
   version="1.2"
   width="189.375"
   height="283.65625"
   id="svg2">
  <metadata
     id="metadata3364">
    <rdf:RDF>
      <cc:Work
         rdf:about="">
        <dc:format>image/svg+xml</dc:format>
        <dc:type
           rdf:resource="http://purl.org/dc/dcmitype/StillImage" />
        <dc:title></dc:title>
      </cc:Work>
    </rdf:RDF>
  </metadata>
  <defs
     id="defs3362" />
  <g
     id="g3384">
    <path
       d="m 188.974,272.775 c 0,5.793 -4.691,10.48 -10.48,10.48 H 10.876 c -5.785,0 -10.477,-4.688 -10.477,-10.48 V 10.876 C 0.4,5.091 5.091,0.4 10.876,0.4 h 167.617 c 5.789,0 10.48,4.691 10.48,10.477 v 261.898 z"
       id="path3328"
       style="fill:#ffffff" />
    <path
       d="m 188.974,272.775 c 0,5.793 -4.691,10.48 -10.48,10.48 H 10.876 c -5.785,0 -10.477,-4.688 -10.477,-10.48 V 10.876 C 0.4,5.091 5.091,0.4 10.876,0.4 h 167.617 c 5.789,0 10.48,4.691 10.48,10.477 v 261.898 z"
       id="path3330"
       style="fill:none;stroke:#1c1d20;stroke-width:0.80000001;stroke-miterlimit:3.86400008" />
    <path
       d="m 184.361,10.876 c 0,-3.242 -2.629,-5.863 -5.867,-5.863 H 10.876 c -3.238,0 -5.863,2.621 -5.863,5.863 v 261.898 c 0,3.242 2.625,5.871 5.863,5.871 h 167.617 c 3.238,0 5.867,-2.629 5.867,-5.871 V 10.876"
       id="path3332"
       style="fill:#19408b" />
    <path
       d="m 31.83,157.541 m 125.711,0 H 31.83 V 31.826 h 125.711 v 125.715 z"
       id="path3334"
       style="fill:#ffffff" />
    <path
       d="m 42.306,115.634 m 41.902,0 H 42.306 V 73.736 h 41.902 v 41.898 z"
       id="path3336"
       style="fill:#19408b" />
    <path
       d="m 51.642,78.416 h 14.43 c 5.777,0 10.453,4.68 10.453,10.453 0,5.77 -4.676,10.453 -10.453,10.453 h -7.715 v 11.941 H 51.642 V 78.416"
       id="path3338"
       style="fill:#ffffff" />
    <path
       d="m 58.357,84.888 h 7.465 c 2.199,0 3.988,1.777 3.988,3.98 0,2.195 -1.789,3.98 -3.988,3.98 h -7.465 v -7.96"
       id="path3340"
       style="fill:#19408b" />
    <path
       d="m 92.591,98.88 m 4.192,0 H 92.592 V 84.208 h 4.191 V 98.88 z"
       id="path3342"
       style="fill:#1c1d20" />
    <path
       d="m 87.353,93.634 m 14.664,0 H 87.353 v -4.188 h 14.664 v 4.188 z"
       id="path3344"
       style="fill:#1c1d20" />
    <path
       d="m 105.162,73.736 41.902,0 0,41.898 -41.902,0 z"
       id="rect3346"
       style="fill:none;stroke:#1c1d20;stroke-width:0.80000001;stroke-miterlimit:3.86400008" />
    <path
       d="m 127.064,107.943 -13.957,0 0,1.683 27.918,0 0,-1.683 -13.961,0"
       id="polyline3348"
       style="fill:#1c1d20;fill-rule:evenodd" />
    <path
       d="m 127.064,76.537 c 0,0 -2.691,0.176 -3.129,2.922 -0.09,0 -3.91,0 -3.91,0 0,0 -3.723,0.176 -3.723,3.555 -0.094,-0.094 0,16.586 0,16.586 0,0 -0.535,2.578 2.484,4.441 0,0.18 -5.68,8.344 -5.68,8.344 h 3.102 l 4.172,-6.039 h 13.367 l 4.168,6.039 h 3.109 c 0,0 -5.68,-8.164 -5.68,-8.344 3.02,-1.863 2.484,-4.441 2.484,-4.441 0,0 0.086,-16.68 0,-16.586 0,-3.379 -3.723,-3.555 -3.723,-3.555 0,0 -3.816,0 -3.906,0 -0.444,-2.747 -3.135,-2.922 -3.135,-2.922"
       id="path3350"
       style="fill:#1c1d20;fill-rule:evenodd" />
    <path
       d="m 127.064,84.607 h -6.863 c 0,0 -1.859,0.27 -1.859,1.859 v 4.219 c 0,0 -0.27,1.863 1.859,1.863 0,0.086 6.863,0 6.863,0 0,0 6.859,0.086 6.859,0 2.133,0 1.867,-1.863 1.867,-1.863 v -4.219 c 0,-1.59 -1.867,-1.859 -1.867,-1.859 h -6.859"
       id="path3352"
       style="fill:#ffffff;fill-rule:evenodd" />
    <path
       d="m 124.876,79.814 c 0,-1.207 0.98,-2.191 2.188,-2.191 1.215,0 2.188,0.984 2.188,2.191 0,1.215 -0.973,2.188 -2.188,2.188 -1.207,-10e-4 -2.188,-0.973 -2.188,-2.188"
       id="path3354"
       style="fill:#ffffff" />
    <path
       d="m 118.341,99.251 c 0,-1.277 1.031,-2.309 2.309,-2.309 1.27,0 2.305,1.031 2.305,2.309 0,1.273 -1.035,2.305 -2.305,2.305 -1.277,0 -2.309,-1.031 -2.309,-2.305"
       id="path3356"
       style="fill:#ffffff" />
    <path
       d="m 131.173,99.251 c 0,-1.277 1.035,-2.309 2.309,-2.309 1.274,0 2.309,1.031 2.309,2.309 0,1.273 -1.035,2.305 -2.309,2.305 -1.274,0 -2.309,-1.031 -2.309,-2.305"
       id="path3358"
       style="fill:#ffffff" />
  </g>
</svg>
