<?xml version="1.0" encoding="UTF-8" standalone="no"?>
<!-- Created with Inkscape (http://www.inkscape.org/) -->

<svg
   xmlns:dc="http://purl.org/dc/elements/1.1/"
   xmlns:cc="http://creativecommons.org/ns#"
   xmlns:rdf="http://www.w3.org/1999/02/22-rdf-syntax-ns#"
   xmlns:svg="http://www.w3.org/2000/svg"
   xmlns="http://www.w3.org/2000/svg"
   version="1.2"
   width="189.625"
   height="284.0625"
   id="svg2">
  <metadata
     id="metadata3199">
    <rdf:RDF>
      <cc:Work
         rdf:about="">
        <dc:format>image/svg+xml</dc:format>
        <dc:type
           rdf:resource="http://purl.org/dc/dcmitype/StillImage" />
        <dc:title></dc:title>
      </cc:Work>
    </rdf:RDF>
  </metadata>
  <defs
     id="defs3197" />
  <g
     id="g3215">
    <path
       d="m 189.24,273.166 c 0,5.797 -4.695,10.496 -10.492,10.496 H 10.888 C 5.095,283.662 0.4,278.963 0.4,273.166 V 10.892 C 0.4,5.099 5.095,0.4 10.888,0.4 h 167.859 c 5.797,0 10.492,4.699 10.492,10.492 v 262.274 z"
       id="path3171"
       style="fill:#ffffff" />
    <path
       d="m 189.24,273.166 c 0,5.797 -4.695,10.496 -10.492,10.496 H 10.888 C 5.095,283.662 0.4,278.963 0.4,273.166 V 10.892 C 0.4,5.099 5.095,0.4 10.888,0.4 h 167.859 c 5.797,0 10.492,4.699 10.492,10.492 v 262.274 z"
       id="path3173"
       style="fill:none;stroke:#1c1d20;stroke-width:0.80000001;stroke-miterlimit:3.86400008" />
    <path
       d="m 184.623,10.892 c 0,-3.242 -2.633,-5.879 -5.875,-5.879 H 10.888 c -3.242,0 -5.875,2.637 -5.875,5.879 v 262.273 c 0,3.25 2.633,5.883 5.875,5.883 h 167.859 c 3.242,0 5.875,-2.633 5.875,-5.883 V 10.892"
       id="path3175"
       style="fill:#19408b" />
    <path
       d="m 177.701,272.123 c 0,2.316 -1.883,4.195 -4.199,4.195 H 16.134 c -2.316,0 -4.195,-1.879 -4.195,-4.195 v -25.18 c 0,-2.316 1.879,-4.195 4.195,-4.195 h 157.367 c 2.316,0 4.199,1.879 4.199,4.195 v 25.18 z"
       id="path3177"
       style="fill:#13926c" />
    <path
       d="m 44.458,161.443 c 0,-3.77 3.055,-6.82 6.82,-6.82 3.77,0 6.82,3.051 6.82,6.82 0,3.762 -3.051,6.816 -6.82,6.816 -3.765,0 -6.82,-3.054 -6.82,-6.816 z"
       id="path3179"
       style="fill:#ffffff" />
    <path
       d="m 15.083,197.634 29.375,0 0,5.242 -29.375,0 z"
       id="rect3181"
       style="fill:#ffffff" />
    <path
       d="m 63.348999,222.814 19.93,0 0,15.738 -19.93,0 z"
       id="rect3183"
       style="fill:#ffffff" />
    <path
       d="m 63.349,173.505 -28.328,12.586 0.523,3.152 h 18.359 v 16.781 l -11.539,6.297 6.289,26.23 h 5.25 v -19.934 c 0,0 -1.047,-4.195 4.195,-4.195 h 19.934 c 0,0 1.051,0 1.051,-1.047 0,0.001 -1.05,-25.182 -15.734,-39.87 z"
       id="path3185"
       style="fill:#ffffff" />
    <path
       d="M 94.818,238.552 V 39.22 c 0,0 4.195,-1.051 9.441,-1.051 0,0 31.477,-1.051 49.313,30.426 0,0 22.027,31.469 0,67.145 0,0 -9.445,19.93 -38.82,29.371 v 73.441 H 94.818 z"
       id="path3187"
       style="fill:#ffffff" />
    <path
       d="m 84.658,41.416 c -10.18,3.605 -22.746,11.203 -31.801,27.18 0,0 -22.039,31.469 0,67.145 0,0 7.867,16.609 31.582,26.684 L 84.658,41.416 z"
       id="path3189"
       style="fill:#13926c" />
    <path
       d="m 114.751,66.494 c 26.227,9.441 27.277,36.723 27.277,36.723 0,0 -1.051,27.273 -27.277,36.719 V 66.494 z"
       id="path3191"
       style="fill:#19408b" />
    <path
       d="m 114.751,66.494 c 26.227,9.441 27.277,36.723 27.277,36.723 0,0 -1.051,27.273 -27.277,36.719 V 66.494 z"
       id="path3193"
       style="fill:none;stroke:#1c1d20;stroke-width:0.028;stroke-miterlimit:3.86400008" />
  </g>
</svg>
