<?xml version="1.0" encoding="UTF-8" standalone="no"?>
<!-- Created with Inkscape (http://www.inkscape.org/) -->

<svg
   xmlns:dc="http://purl.org/dc/elements/1.1/"
   xmlns:cc="http://creativecommons.org/ns#"
   xmlns:rdf="http://www.w3.org/1999/02/22-rdf-syntax-ns#"
   xmlns:svg="http://www.w3.org/2000/svg"
   xmlns="http://www.w3.org/2000/svg"
   version="1.2"
   width="188.96875"
   height="283.03125"
   id="svg2">
  <metadata
     id="metadata3077">
    <rdf:RDF>
      <cc:Work
         rdf:about="">
        <dc:format>image/svg+xml</dc:format>
        <dc:type
           rdf:resource="http://purl.org/dc/dcmitype/StillImage" />
        <dc:title></dc:title>
      </cc:Work>
    </rdf:RDF>
  </metadata>
  <defs
     id="defs3075" />
  <g
     id="g3130">
    <path
       d="m 188.554,272.166 c 0,5.773 -4.688,10.453 -10.461,10.453 H 10.855 C 5.08,282.619 0.4,277.939 0.4,272.166 V 10.853 C 0.4,5.08 5.08,0.4 10.855,0.4 h 167.238 c 5.773,0 10.461,4.68 10.461,10.453 v 261.313 z"
       id="path3053"
       style="fill:#ffffff" />
    <path
       d="m 188.554,272.166 c 0,5.773 -4.688,10.453 -10.461,10.453 H 10.855 C 5.08,282.619 0.4,277.939 0.4,272.166 V 10.853 C 0.4,5.08 5.08,0.4 10.855,0.4 h 167.238 c 5.773,0 10.461,4.68 10.461,10.453 v 261.313 z"
       id="path3055"
       style="fill:none;stroke:#1c1d20;stroke-width:0.80000001;stroke-miterlimit:3.86400008" />
    <path
       d="m 183.953,10.853 c 0,-3.234 -2.625,-5.855 -5.859,-5.855 H 10.855 C 7.619,4.998 5,7.619 5,10.853 v 261.313 c 0,3.234 2.619,5.855 5.855,5.855 h 167.238 c 3.234,0 5.859,-2.621 5.859,-5.855 V 10.853"
       id="path3057"
       style="fill:#19408b" />
    <path
       d="m 31.763,157.193 m 125.432,0 H 31.763 V 31.759 h 125.432 v 125.434 z"
       id="path3059"
       style="fill:#ffffff" />
    <path
       d="m 79.439,50.654 c 0.092,0 -8.295,0.926 -8.295,0.926 l -0.186,2.945 -5.715,3.316 5.715,0.277 c 0,0 0.094,4.43 5.441,4.059 0,-0.09 4.883,0.555 5.436,-4.242 0,0 0.649,-3.867 -2.396,-7.281"
       id="path3061"
       style="fill:#1c1d20" />
    <path
       d="M 76.4,92.318 88.752,89.377 88.66,88.264 95.48,85.315 98.156,66.881 90.224,63.1 86.351,65.772 82.759,63.561 76.308,65.772 65.98,83.744 53.259,92.049 c 0,0 -2.027,1.75 -0.832,3.867 0,0 0.74,2.125 3.137,0.832 0.092,-0.094 14.379,-7.93 14.379,-7.93 0,0 1.016,-0.461 1.016,-1.746 0,-0.188 0.369,-2.492 2.029,-0.648 0.092,-0.001 3.412,5.894 3.412,5.894"
       id="path3063"
       style="fill:#1c1d20" />
    <path
       d="m 131.8,66.97 c 0.098,0 -5.258,-3.41 -9.215,-1.75 0,-0.094 -5.352,3.41 -8.762,-0.828 0.09,0 -3.137,-3.137 0,-6.918 0.09,-0.09 1.105,-2.578 4.793,-2.578 0.094,0.09 3.5,-0.648 7.008,4.418 0.001,0 3.961,3.418 6.176,7.656"
       id="path3065"
       style="fill:#1c1d20;fill-rule:evenodd" />
    <path
       d="M 118.343,69.826 103.96,89.189 c 0,0 -1.656,1.934 0.184,3.594 0.184,-0.09 2.121,1.289 3.316,-0.648 -0.09,0 6.918,-9.215 6.918,-9.215 0,0 1.105,-0.832 1.289,0.363 l 0.559,6.367 11.43,-0.832 1.289,-7.559 c 0,0 0.828,-2.949 2.395,-0.641 l 1.566,2.207 0.094,9.59 c 0,0 0,1.934 1.938,1.844 0.18,-0.098 2.395,0.184 2.395,-2.305 0.09,-0.09 -0.09,-11.059 -0.09,-11.059 L 125.907,68.907 c 0,0 -0.094,-0.832 -1.484,-0.738 0.098,0 -4.605,0.922 -4.605,0.922 0,0 -0.83,0 -1.475,0.735"
       id="path3067"
       style="fill:#1c1d20" />
    <path
       d="m 116.773,92.134 10.695,0.102 6.914,22.305 h -4.703 l 6.359,20.832 c 0,0 0.742,1.93 -1.195,2.672 -0.094,-0.094 -1.844,0.922 -2.672,-1.008 0,0.086 -7.375,-22.316 -7.375,-22.316 h -4.613 l -6.27,22.5 c 0,0 -0.918,1.746 -2.762,1.195 -0.09,0 -2.121,0.09 -1.477,-3.043 0,-0.094 5.531,-20.746 5.531,-20.746 h -4.238 l 5.806,-22.493"
       id="path3069"
       style="fill:#1c1d20" />
    <path
       d="m 90.042,91.771 -13.828,3.223 -8.482,39.184 c 0,0 -1.201,3.406 2.303,4.141 0,-0.086 3.598,0.832 4.701,-3.5 l 6.732,-27.746 c 0,0 0,-0.828 1.199,-0.828 0,0.09 0.92,-0.281 1.012,1.105 0,-0.094 0.924,8.109 0.924,8.109 l 12.35,22.402 c 0,0 2.031,2.766 4.609,0.832 0,0 3.047,-1.109 1.477,-4.516 -0.094,0 -11.15,-22.035 -11.15,-22.035 L 90.042,91.771"
       id="path3071"
       style="fill:#1c1d20" />
  </g>
</svg>
