<?xml version="1.0" encoding="UTF-8" standalone="no"?>
<svg
   xmlns:dc="http://purl.org/dc/elements/1.1/"
   xmlns:cc="http://creativecommons.org/ns#"
   xmlns:rdf="http://www.w3.org/1999/02/22-rdf-syntax-ns#"
   xmlns:svg="http://www.w3.org/2000/svg"
   xmlns="http://www.w3.org/2000/svg"
   xmlns:sodipodi="http://sodipodi.sourceforge.net/DTD/sodipodi-0.dtd"
   xmlns:inkscape="http://www.inkscape.org/namespaces/inkscape"
   version="1.2"
   width="188.96875"
   height="283.03125"
   id="svg2"
   sodipodi:docname="ES_S110-200.svg"
   inkscape:version="1.0.1 (3bc2e813f5, 2020-09-07)">
  <sodipodi:namedview
     pagecolor="#ffffff"
     bordercolor="#666666"
     borderopacity="1"
     objecttolerance="10"
     gridtolerance="10"
     guidetolerance="10"
     inkscape:pageopacity="0"
     inkscape:pageshadow="2"
     inkscape:window-width="1920"
     inkscape:window-height="1027"
     id="namedview7262"
     showgrid="false"
     inkscape:zoom="2.5968864"
     inkscape:cx="94.484375"
     inkscape:cy="141.51563"
     inkscape:window-x="-8"
     inkscape:window-y="-8"
     inkscape:window-maximized="1"
     inkscape:current-layer="svg2" />
  <metadata
     id="metadata3428">
    <rdf:RDF>
      <cc:Work
         rdf:about="">
        <dc:format>image/svg+xml</dc:format>
        <dc:type
           rdf:resource="http://purl.org/dc/dcmitype/StillImage" />
        <dc:title></dc:title>
      </cc:Work>
    </rdf:RDF>
  </metadata>
  <defs
     id="defs3426" />
  <g
     id="g3437">
    <path
       d="m 188.554,272.167 c 0,5.773 -4.688,10.457 -10.461,10.457 H 10.855 C 5.08,282.624 0.4,277.94 0.4,272.167 V 10.853 C 0.4,5.08 5.08,0.4 10.855,0.4 h 167.238 c 5.773,0 10.461,4.68 10.461,10.453 v 261.314 z"
       id="path3410"
       style="fill:#ffffff" />
    <path
       d="m 188.554,272.167 c 0,5.773 -4.688,10.457 -10.461,10.457 H 10.855 C 5.08,282.624 0.4,277.94 0.4,272.167 V 10.853 C 0.4,5.08 5.08,0.4 10.855,0.4 h 167.238 c 5.773,0 10.461,4.68 10.461,10.453 v 261.314 z"
       id="path3412"
       style="fill:none;stroke:#1c1d20;stroke-width:0.80000001;stroke-miterlimit:3.86400008" />
    <path
       d="m 183.953,10.853 c 0,-3.229 -2.625,-5.857 -5.859,-5.857 H 10.855 C 7.619,4.996 5,7.625 5,10.853 v 261.314 c 0,3.23 2.619,5.855 5.855,5.855 h 167.238 c 3.234,0 5.859,-2.625 5.859,-5.855 V 10.853"
       id="path3414"
       style="fill:#19408b" />
    <path
       d="m 31.763,157.187 m 125.432,0 H 31.763 V 31.751 h 125.432 v 125.436 z"
       id="path3416"
       style="fill:#ffffff" />
    <path
       d="m 125.835,79.845 c 2.309,0 4.18,1.867 4.18,4.176 v 9.412 H 78.8 V 79.845 h 47.035"
       id="path3418"
       style="fill:#1c1d20" />
    <path
       d="m 56.843,95.521 h 75.258 v -11.5 c 0,-2.309 1.875,-4.176 4.188,-4.176 2.305,0 4.18,1.867 4.18,4.176 v 33.447 h -8.367 V 104.925 H 56.843 v 12.543 H 48.484 V 75.656 c 0,-2.303 1.871,-4.176 4.18,-4.176 2.309,0 4.18,1.873 4.18,4.176 v 19.865"
       id="path3420"
       style="fill:#1c1d20" />
    <path
       d="m 58.935,93.433 v -8.365 c 0,0 0.523,-5.223 8.885,-5.223 8.363,0 8.883,5.223 8.883,5.223 v 8.365 H 58.935"
       id="path3422"
       style="fill:#1c1d20" />
  </g>
  <text
     xml:space="preserve"
     style="font-style:normal;font-variant:normal;font-weight:normal;font-stretch:normal;font-size:42.6667px;line-height:25px;font-family:Ccrige;-inkscape-font-specification:Ccrige;letter-spacing:0px;word-spacing:0px;fill:#ffffff;stroke:none;stroke-width:1px;stroke-linecap:butt;stroke-linejoin:miter;stroke-opacity:1"
     x="25.415051"
     y="218.33839"
     id="text7827"><tspan
       sodipodi:role="line"
       id="tspan7825"
       x="25.415051"
       y="218.33839">200 m</tspan></text>
</svg>
