<?xml version="1.0" encoding="UTF-8" standalone="no"?>
<!-- Created with Inkscape (http://www.inkscape.org/) -->

<svg
   xmlns:dc="http://purl.org/dc/elements/1.1/"
   xmlns:cc="http://creativecommons.org/ns#"
   xmlns:rdf="http://www.w3.org/1999/02/22-rdf-syntax-ns#"
   xmlns:svg="http://www.w3.org/2000/svg"
   xmlns="http://www.w3.org/2000/svg"
   version="1.2"
   width="270.59375"
   height="223.53125"
   id="svg2">
  <metadata
     id="metadata3665">
    <rdf:RDF>
      <cc:Work
         rdf:about="">
        <dc:format>image/svg+xml</dc:format>
        <dc:type
           rdf:resource="http://purl.org/dc/dcmitype/StillImage" />
        <dc:title></dc:title>
      </cc:Work>
    </rdf:RDF>
  </metadata>
  <defs
     id="defs3663" />
  <g
     id="g3780">
    <path
       d="m 270.195,205.132 c 0,9.934 -8.051,17.988 -17.984,17.988 H 18.384 C 8.456,223.12 0.4,215.065 0.4,205.132 V 18.382 C 0.4,8.451 8.457,0.4 18.384,0.4 H 252.21 c 9.934,0 17.984,8.051 17.984,17.982 v 186.75 z"
       id="path3537"
       style="fill:#ffffff" />
    <path
       d="m 270.195,205.132 c 0,9.934 -8.051,17.988 -17.984,17.988 H 18.384 C 8.456,223.12 0.4,215.065 0.4,205.132 V 18.382 C 0.4,8.451 8.457,0.4 18.384,0.4 H 252.21 c 9.934,0 17.984,8.051 17.984,17.982 v 186.75 z"
       id="path3539"
       style="fill:none;stroke:#1c1d20;stroke-width:0.80000001;stroke-miterlimit:3.86400008" />
    <path
       d="m 132.73,44.08 m 64.238,0 H 132.734 V 23.519 h 64.234 V 44.08 z"
       id="path3541"
       style="fill:#e41408" />
    <path
       d="m 73.632,168.292 m 64.235,0 H 73.632 V 147.73 h 64.234 v 20.562 z"
       id="path3543"
       style="fill:#e41408" />
    <path
       d="m 265.929,106.076 c 0,8.264 -6.902,14.959 -15.418,14.959 H 20.087 c -8.52,0 -15.42,-6.695 -15.42,-14.959 V 20.429 c 0,-8.262 6.9,-14.961 15.42,-14.961 h 230.424 c 8.516,0 15.418,6.699 15.418,14.961 v 85.647 z"
       id="path3545"
       style="fill:none;stroke:#1c1d20;stroke-width:3;stroke-miterlimit:3.86400008" />
    <path
       d="m 105.15,54.983 c 3.519,0 6.36,1.058 8.524,3.172 l -2.974,2.379 c -1.71,-1.032 -3.098,-1.561 -4.163,-1.586 h -1.189 c -1.189,0.265 -1.784,0.595 -1.784,0.991 v 0.991 c 0,0.529 2.048,1.256 6.146,2.181 2.511,1.363 3.767,2.949 3.767,4.758 v 1.388 c 0,2.602 -1.982,4.386 -5.947,5.353 h -1.586 c -3.684,0 -6.724,-1.388 -9.119,-4.163 l 3.767,-2.577 c 1.313,1.718 3.031,2.577 5.154,2.577 h 0.991 c 1.321,-0.264 1.982,-0.925 1.982,-1.982 0,-0.925 -2.379,-1.916 -7.137,-2.974 -2.115,-1.33 -3.172,-2.981 -3.172,-4.956 0,-2.371 1.321,-4.089 3.965,-5.154 l 2.775,-0.398 z"
       id="path3549"
       style="fill:#1c1d20" />
    <path
       d="m 121.616,55.578 h 5.749 l 6.542,19.031 h -4.956 l -0.793,-2.775 h -6.938 l -0.793,2.775 h -4.758 l 5.947,-19.031 z m 2.775,5.749 -1.784,6.146 h 3.965 v -0.198 c -1.19,-3.966 -1.917,-5.948 -2.181,-5.948 z"
       id="path3551"
       style="fill:#1c1d20" />
    <path
       d="m 136.458,55.578 h 4.56 c 2.173,2.957 4.882,7.054 8.128,12.291 h 0.198 V 55.578 h 4.163 v 19.031 h -4.758 c -4.808,-7.583 -7.517,-11.613 -8.128,-12.093 v 12.093 h -4.163 V 55.578 z"
       id="path3553"
       style="fill:#1c1d20" />
    <path
       d="m 155.948,55.578 h 15.265 v 3.965 h -5.551 v 15.066 h -4.163 V 59.542 h -5.551 v -3.964 z"
       id="path3555"
       style="fill:#1c1d20" />
    <path
       d="m 172.835,55.578 h 4.361 v 19.031 h -4.361 V 55.578 z"
       id="path3557"
       style="fill:#1c1d20" />
    <path
       d="m 185.46,55.578 h 5.749 l 6.542,19.031 h -4.956 l -0.793,-2.775 h -6.938 l -0.793,2.775 h -4.758 l 5.947,-19.031 z m 2.776,5.749 -1.784,6.146 h 3.965 v -0.198 c -1.19,-3.966 -1.917,-5.948 -2.181,-5.948 z"
       id="path3559"
       style="fill:#1c1d20" />
    <path
       d="m 209.621,54.983 c 2.99,0 5.436,1.52 7.335,4.56 l -3.568,1.784 c -1.024,-1.718 -2.28,-2.577 -3.767,-2.577 h -0.793 c -1.645,0 -2.899,0.859 -3.767,2.577 -0.396,0.62 -0.595,1.809 -0.595,3.568 0,4.097 1.586,6.146 4.758,6.146 2.023,0 3.478,-1.255 4.361,-3.767 v -0.198 h -4.56 v -3.965 h 8.326 v 11.102 h -3.172 l -0.198,-0.793 c -1.851,0.793 -3.502,1.189 -4.956,1.189 -3.461,0 -6.104,-1.784 -7.93,-5.353 -0.528,-1.173 -0.793,-2.428 -0.793,-3.767 v -1.388 c 0,-3.643 1.651,-6.352 4.956,-8.128 1.224,-0.66 2.677,-0.99 4.363,-0.99 z"
       id="path3561"
       style="fill:#1c1d20" />
    <path
       d="m 228.726,54.983 h 0.198 c 4.254,0 7.161,2.115 8.723,6.344 l 0.396,2.775 v 1.586 c 0,4.015 -2.114,6.856 -6.344,8.524 l -2.775,0.396 c -4.048,0 -6.89,-1.85 -8.524,-5.551 -0.529,-1.33 -0.793,-2.717 -0.793,-4.163 0,-5.204 2.379,-8.441 7.137,-9.714 l 1.982,-0.197 z m -4.559,9.714 c 0,2.982 1.189,4.832 3.568,5.551 l 1.586,0.198 c 1.884,0 3.271,-1.454 4.163,-4.361 v -1.586 c -0.372,-3.568 -1.892,-5.353 -4.56,-5.353 -2.841,0 -4.427,1.851 -4.757,5.551 z"
       id="path3563"
       style="fill:#1c1d20" />
    <path
       d="m 80.019,85.718 h 4.609 c 5.055,0 7.583,2.429 7.583,7.285 0,3.141 -1.388,5.322 -4.163,6.542 -1.016,0.298 -2.404,0.446 -4.163,0.446 H 80.019 V 85.718 z m 3.271,2.974 v 8.326 h 2.528 c 1.747,0 2.787,-1.289 3.122,-3.866 v -0.446 c 0,-2.162 -0.942,-3.5 -2.825,-4.014 H 83.29 z"
       id="path3567"
       style="fill:#1c1d20" />
    <path
       d="m 94.115,85.718 h 9.813 v 2.825 h -6.542 v 2.676 h 5.799 v 2.825 h -5.799 v 2.825 h 7.137 v 3.123 H 94.115 V 85.718 z"
       id="path3569"
       style="fill:#1c1d20" />
    <path
       d="m 123.86,85.272 h 0.297 c 2.657,0 4.639,1.338 5.948,4.015 l 0.148,0.446 h -0.148 l -3.123,1.041 c -0.607,-1.586 -1.747,-2.379 -3.419,-2.379 -1.865,0 -2.956,1.438 -3.271,4.312 0,2.212 1.041,3.6 3.122,4.163 h 0.595 c 1.369,0 2.36,-0.842 2.974,-2.527 l 3.271,1.189 c -1.159,2.974 -3.29,4.46 -6.394,4.46 -2.032,0 -3.717,-0.694 -5.055,-2.082 -1.289,-1.406 -1.933,-3.24 -1.933,-5.501 0,-3.735 1.883,-6.064 5.65,-6.988 l 1.338,-0.149 z"
       id="path3571"
       style="fill:#1c1d20" />
    <path
       d="m 139.164,85.272 h 0.149 c 3.19,0 5.371,1.586 6.542,4.758 l 0.297,2.082 v 1.189 c 0,3.011 -1.586,5.143 -4.758,6.394 l -2.081,0.297 c -3.036,0 -5.167,-1.388 -6.394,-4.163 -0.396,-0.997 -0.595,-2.038 -0.595,-3.123 0,-3.902 1.784,-6.331 5.353,-7.285 l 1.487,-0.149 z m -3.419,7.286 c 0,2.236 0.892,3.624 2.677,4.163 l 1.189,0.148 c 1.412,0 2.453,-1.09 3.121,-3.271 v -1.189 c -0.278,-2.676 -1.418,-4.014 -3.419,-4.014 -2.132,0 -3.321,1.387 -3.568,4.163 z"
       id="path3573"
       style="fill:#1c1d20" />
    <path
       d="m 147.704,85.718 h 3.42 l 3.717,5.055 3.866,-5.055 h 3.271 v 14.273 h -2.974 v -9.218 l -4.163,5.501 c -2.081,-3.072 -3.419,-4.906 -4.015,-5.501 v 9.218 h -3.122 V 85.718 z"
       id="path3575"
       style="fill:#1c1d20" />
    <path
       d="m 164.411,85.718 h 5.204 c 2.905,0 4.738,0.991 5.501,2.974 l 0.298,1.784 c 0,2.509 -1.438,4.045 -4.313,4.609 h -3.42 v 4.907 H 164.41 V 85.718 z m 3.27,2.825 v 3.568 l 0.298,0.297 h 1.636 c 1.685,0 2.527,-0.595 2.527,-1.784 v -0.148 c 0,-0.898 -0.396,-1.542 -1.189,-1.933 h -3.272 z"
       id="path3577"
       style="fill:#1c1d20" />
    <path
       d="m 183.943,85.272 h 0.149 c 3.19,0 5.371,1.586 6.542,4.758 l 0.297,2.082 v 1.189 c 0,3.011 -1.586,5.143 -4.758,6.394 l -2.081,0.297 c -3.036,0 -5.167,-1.388 -6.394,-4.163 -0.396,-0.997 -0.595,-2.038 -0.595,-3.123 0,-3.902 1.784,-6.331 5.353,-7.285 l 1.487,-0.149 z m -3.419,7.286 c 0,2.236 0.892,3.624 2.677,4.163 l 1.189,0.148 c 1.412,0 2.453,-1.09 3.121,-3.271 v -1.189 c -0.278,-2.676 -1.418,-4.014 -3.419,-4.014 -2.132,0 -3.321,1.387 -3.568,4.163 z"
       id="path3579"
       style="fill:#1c1d20" />
    <path
       d="m 198.726,85.272 c 2.639,0 4.771,0.793 6.395,2.379 l -2.23,1.784 c -1.283,-0.774 -2.324,-1.17 -3.123,-1.189 h -0.892 c -0.893,0.198 -1.339,0.446 -1.339,0.744 v 0.743 c 0,0.396 1.537,0.942 4.609,1.636 1.883,1.022 2.825,2.212 2.825,3.568 v 1.041 c 0,1.952 -1.487,3.29 -4.46,4.015 h -1.189 c -2.764,0 -5.043,-1.041 -6.84,-3.123 l 2.825,-1.933 c 0.984,1.289 2.272,1.933 3.866,1.933 h 0.742 c 0.992,-0.198 1.487,-0.694 1.487,-1.487 0,-0.693 -1.784,-1.437 -5.353,-2.23 -1.586,-0.997 -2.379,-2.236 -2.379,-3.717 0,-1.777 0.991,-3.066 2.974,-3.866 l 2.082,-0.298 z"
       id="path3581"
       style="fill:#1c1d20" />
    <path
       d="m 206.616,85.718 h 11.448 v 2.974 h -4.162 v 11.3 h -3.123 v -11.3 h -4.163 v -2.974 z"
       id="path3583"
       style="fill:#1c1d20" />
    <path
       d="m 219.281,85.718 h 9.813 v 2.825 h -6.541 v 2.676 h 5.799 v 2.825 h -5.799 v 2.825 h 7.137 v 3.123 H 219.282 V 85.718 z"
       id="path3585"
       style="fill:#1c1d20" />
    <path
       d="m 231.463,85.718 h 3.122 v 11.3 h 6.096 v 2.974 h -9.218 V 85.718 z"
       id="path3587"
       style="fill:#1c1d20" />
    <path
       d="m 246.507,85.718 h 4.312 l 4.906,14.273 h -3.717 l -0.595,-2.082 h -5.204 l -0.595,2.082 h -3.568 l 4.461,-14.273 z m 2.081,4.312 -1.338,4.609 h 2.974 V 94.49 c -0.892,-2.973 -1.437,-4.46 -1.636,-4.46 z"
       id="path3589"
       style="fill:#1c1d20" />
    <path
       d="m 265.929,204.016 c 0,8.207 -6.902,14.863 -15.418,14.863 H 20.087 c -8.52,0 -15.42,-6.656 -15.42,-14.863 v -60.311 c 0,-8.211 6.9,-14.863 15.42,-14.863 h 230.424 c 8.516,0 15.418,6.652 15.418,14.863 v 60.311 z"
       id="path3591"
       style="fill:none;stroke:#1c1d20;stroke-width:3;stroke-miterlimit:3.86400008" />
    <path
       d="m 43.693,32.431 -19.729,29.893 16.145,-3.588 -2.393,33.488 11.955,0 -2.386,-33.488 16.14,3.588 -19.732,-29.893"
       id="polyline3593"
       style="fill:#1c1d20" />
    <path
       d="m 249.519,157.574 -26.844,5.508 10.676,6.789 -19.406,16.812 6.469,6.469 16.82,-19.406 6.789,10.679 5.496,-26.851"
       id="polyline3595"
       style="fill:#1c1d20" />
    <path
       d="m 19.935,180.203 h 4.163 v 15.066 h 8.128 v 3.965 H 19.935 v -19.031 z"
       id="path3599"
       style="fill:#1c1d20" />
    <path
       d="m 39.994,180.203 h 5.749 l 6.542,19.031 h -4.956 l -0.793,-2.775 h -6.938 l -0.793,2.775 h -4.758 l 5.947,-19.031 z m 2.776,5.749 -1.784,6.146 h 3.965 V 191.9 c -1.19,-3.966 -1.917,-5.948 -2.181,-5.948 z"
       id="path3601"
       style="fill:#1c1d20" />
    <path
       d="m 68.937,180.203 h 13.084 v 3.767 h -8.723 v 3.568 h 7.731 v 3.767 h -7.731 v 3.767 h 9.516 v 4.163 H 68.937 v -19.032 z"
       id="path3603"
       style="fill:#1c1d20" />
    <path
       d="m 93.506,179.608 c 3.519,0 6.36,1.058 8.524,3.172 l -2.974,2.379 c -1.71,-1.032 -3.098,-1.562 -4.163,-1.586 h -1.189 c -1.189,0.265 -1.784,0.595 -1.784,0.991 v 0.991 c 0,0.528 2.048,1.256 6.146,2.181 2.511,1.363 3.767,2.949 3.767,4.758 v 1.388 c 0,2.603 -1.982,4.386 -5.947,5.353 H 94.3 c -3.684,0 -6.724,-1.388 -9.119,-4.163 l 3.767,-2.577 c 1.313,1.719 3.031,2.577 5.154,2.577 h 0.991 c 1.321,-0.265 1.982,-0.925 1.982,-1.982 0,-0.925 -2.379,-1.916 -7.137,-2.974 -2.115,-1.33 -3.172,-2.981 -3.172,-4.956 0,-2.37 1.321,-4.089 3.965,-5.154 l 2.775,-0.398 z"
       id="path3605"
       style="fill:#1c1d20" />
    <path
       d="m 104.025,180.203 h 15.265 v 3.965 h -5.551 v 15.066 h -4.163 v -15.066 h -5.551 v -3.965 z"
       id="path3607"
       style="fill:#1c1d20" />
    <path
       d="m 120.912,180.203 h 7.533 c 3.427,0 5.675,1.189 6.74,3.568 l 0.396,2.577 c 0,2.016 -1.256,3.8 -3.766,5.353 1.453,1.975 2.973,4.485 4.559,7.533 h -4.559 c -2.156,-3.874 -3.676,-6.318 -4.56,-7.335 h -1.784 l -0.396,0.396 v 6.938 h -4.163 v -19.03 z m 4.163,4.163 v 3.767 h 4.163 c 1.189,-0.174 1.785,-0.768 1.785,-1.784 v -0.396 c 0,-1.189 -0.793,-1.851 -2.379,-1.982 h -3.172 l -0.397,0.395 z"
       id="path3609"
       style="fill:#1c1d20" />
    <path
       d="m 145.184,180.203 h 5.749 l 6.542,19.031 h -4.956 l -0.793,-2.775 h -6.938 l -0.793,2.775 h -4.758 l 5.947,-19.031 z m 2.775,5.749 -1.784,6.146 h 3.965 V 191.9 c -1.189,-3.966 -1.916,-5.948 -2.181,-5.948 z"
       id="path3611"
       style="fill:#1c1d20" />
    <path
       d="m 160.027,180.203 h 6.146 c 6.74,0 10.11,3.238 10.11,9.714 0,4.188 -1.851,7.096 -5.551,8.723 -1.354,0.396 -3.205,0.595 -5.551,0.595 h -5.154 v -19.032 z m 4.361,3.964 v 11.102 h 3.37 c 2.329,0 3.717,-1.718 4.163,-5.154 v -0.595 c 0,-2.883 -1.256,-4.667 -3.767,-5.353 h -3.766 z"
       id="path3613"
       style="fill:#1c1d20" />
    <path
       d="m 184.77,180.203 h 5.749 l 6.542,19.031 h -4.956 l -0.793,-2.775 h -6.938 l -0.793,2.775 h -4.758 l 5.947,-19.031 z m 2.775,5.749 -1.784,6.146 h 3.965 V 191.9 c -1.189,-3.966 -1.916,-5.948 -2.181,-5.948 z"
       id="path3615"
       style="fill:#1c1d20" />
    <g
       id="g3619">
      <path
         d="m 77.983,152.322 h 2.932 c 1.396,1.9 3.139,4.536 5.227,7.904 h 0.127 v -7.904 h 2.677 v 12.237 h -3.06 c -3.091,-4.876 -4.833,-7.468 -5.226,-7.777 v 7.777 h -2.677 v -12.237 z"
         id="path3621"
         style="fill:#ffffff" />
    </g>
    <g
       id="g3623">
      <path
         d="m 91.618,157.615 h 4.206 v 2.167 h -4.206 v -2.167 z"
         id="path3625"
         style="fill:#ffffff" />
    </g>
    <g
       id="g3627">
      <g
         id="g3629">
        <path
           d="m 106.328,157.468 c -0.585,-0.721 -1.395,-1.215 -2.34,-1.35 -1.08,-0.227 -2.026,0.089 -2.971,0.494 -0.045,-0.135 0.016,-0.228 0.045,-0.359 0.225,-1.034 1.215,-1.666 2.25,-1.532 0.541,0.092 0.945,0.498 1.125,0.991 0.855,-0.27 1.666,-0.629 2.475,-0.991 -0.27,-1.034 -1.08,-1.89 -2.115,-2.249 -1.667,-0.586 -3.557,-0.45 -4.952,0.721 -0.991,0.854 -1.396,2.115 -1.529,3.375 -0.271,2.296 -0.226,4.771 1.304,6.662 1.486,1.845 4.232,2.069 6.077,0.675 1.981,-1.577 2.116,-4.501 0.631,-6.437 z m -2.791,4.637 c -0.854,0.314 -1.8,-0.045 -2.16,-0.855 -0.27,-0.676 -0.246,-1.408 0.181,-2.026 0.404,-0.585 1.035,-0.72 1.709,-0.629 0.586,0.135 1.035,0.54 1.215,1.079 0.316,0.9 0,2.072 -0.945,2.431 z"
           id="path3631"
           style="fill:#ffffff" />
      </g>
    </g>
    <g
       id="g3633">
      <g
         id="g3635">
        <path
           d="m 119.157,160.125 c -0.135,-2.565 0,-5.178 -0.045,-7.742 -1.125,0 -2.205,0 -3.331,0 -1.98,2.564 -3.961,5.131 -5.941,7.695 0,0.857 0,1.757 0,2.611 2.16,0 4.277,0 6.437,0 0.134,0.631 0,1.216 0.045,1.847 0.945,0 1.845,0 2.79,0 0,-0.586 0,-1.216 0,-1.801 0.496,-0.136 0.99,0 1.486,-0.046 0,-0.494 0,-0.99 0,-1.486 0,-0.357 0,-0.719 0,-1.078 -0.496,0 -0.946,0 -1.441,0 z m -2.881,-0.902 c 0,0.271 0,0.585 0,0.854 -1.036,0 -2.026,0 -3.062,0 0.99,-1.394 2.07,-2.744 3.062,-4.14 0,1.081 0,2.206 0,3.286 z"
           id="path3637"
           style="fill:#ffffff" />
      </g>
    </g>
    <g
       id="g3639">
      <g
         id="g3641">
        <path
           d="m 132.615,155.488 c -0.449,-1.441 -1.53,-2.61 -2.97,-3.105 -2.206,-0.765 -4.817,-0.046 -5.987,2.068 -1.44,2.747 -1.44,6.259 0.541,8.779 1.259,1.53 3.331,1.891 5.175,1.396 1.216,-0.36 2.24,-1.177 2.836,-2.298 1.125,-2.116 1.125,-4.589 0.405,-6.84 z m -2.521,4.771 c -0.118,0.768 -0.63,1.35 -1.306,1.621 -0.946,0.359 -2.07,0.134 -2.7,-0.721 -0.451,-0.586 -0.451,-1.305 -0.451,-1.981 -0.044,-1.035 -0.135,-2.116 0.27,-3.105 0.675,-1.44 2.791,-1.575 3.781,-0.36 0.27,0.36 0.361,0.721 0.405,1.125 0.181,1.17 0.181,2.249 0.001,3.421 z"
           id="path3643"
           style="fill:#ffffff" />
      </g>
    </g>
    <g
       id="g3647">
      <path
         d="m 136.509,27.829 h 2.932 c 1.397,1.901 3.14,4.537 5.228,7.904 h 0.128 v -7.904 h 2.677 v 12.238 h -3.06 c -3.092,-4.876 -4.834,-7.468 -5.227,-7.777 v 7.777 h -2.678 V 27.829 z"
         id="path3649"
         style="fill:#ffffff" />
    </g>
    <g
       id="g3651">
      <path
         d="m 150.144,33.122 h 4.206 v 2.167 h -4.206 v -2.167 z"
         id="path3653"
         style="fill:#ffffff" />
    </g>
    <path
       d="m 164.47,32.056 c 1.291,0.766 2.002,2.095 2.095,3.491 0.047,1.071 -0.186,2.142 -0.792,3.119 -0.838,1.256 -2.141,1.908 -3.584,2.001 -1.211,0.093 -2.42,-0.232 -3.444,-0.978 -0.838,-0.652 -1.304,-1.583 -1.63,-2.561 0.885,-0.279 1.77,-0.558 2.699,-0.791 0.233,0.838 0.979,1.583 1.862,1.629 0.605,0.046 1.164,-0.279 1.536,-0.791 0.514,-0.792 0.466,-1.769 -0.093,-2.56 -0.324,-0.419 -0.745,-0.652 -1.21,-0.698 -0.699,-0.046 -1.396,0.325 -1.723,0.931 -1.023,-0.093 -2.047,-0.233 -3.072,-0.419 0.326,-2.188 0.56,-4.376 0.838,-6.563 2.654,0 5.308,0 7.961,0 0,0.885 0,1.722 0,2.606 -1.815,0.046 -3.632,-0.093 -5.446,0.046 0,0.419 -0.14,0.792 -0.094,1.211 1.303,-0.511 2.839,-0.417 4.097,0.327 z"
       id="path3655"
       style="fill:#ffffff" />
    <path
       d="m 179.226,29.915 c 0.585,1.198 0.652,2.607 0.187,3.863 -0.698,1.769 -2.375,2.793 -3.724,4.004 1.304,0.139 2.653,0 3.957,0.046 0,0.884 0,1.722 0,2.607 -2.98,0 -6.006,0 -8.985,0 0.047,-0.792 -0.092,-1.629 0.047,-2.421 1.724,-1.442 3.678,-2.56 5.261,-4.189 0.511,-0.559 0.791,-1.21 0.837,-1.909 0,-1.303 -1.489,-1.955 -2.652,-1.536 -0.979,0.372 -1.305,1.443 -1.165,2.374 -0.977,0 -1.908,0 -2.885,0 -0.187,-1.257 0.093,-2.607 0.931,-3.631 0.791,-0.932 1.908,-1.397 3.072,-1.536 1.955,-0.233 4.188,0.419 5.119,2.328 z"
       id="path3657"
       style="fill:#ffffff" />
    <path
       d="m 191.981,30.101 c 0,0.139 0,0.326 0,0.326 -1.815,0.187 -3.631,-0.046 -5.446,0.093 0,0.419 -0.14,0.792 -0.094,1.211 1.118,-0.419 2.281,-0.419 3.398,-0.047 1.629,0.559 2.7,2.142 2.793,3.864 0.047,1.071 -0.186,2.142 -0.791,3.119 -0.838,1.256 -2.141,1.908 -3.584,2.001 -1.211,0.093 -2.42,-0.232 -3.445,-0.978 -0.837,-0.652 -1.303,-1.583 -1.629,-2.561 0.885,-0.279 1.769,-0.558 2.7,-0.791 0.232,0.838 0.978,1.583 1.861,1.629 0.605,0.046 1.163,-0.279 1.536,-0.791 0.514,-0.792 0.466,-1.769 -0.093,-2.56 -0.325,-0.419 -0.745,-0.652 -1.21,-0.698 -0.699,-0.046 -1.397,0.325 -1.724,0.931 -1.022,-0.093 -2.047,-0.233 -3.071,-0.419 0.326,-2.188 0.56,-4.376 0.838,-6.563 2.653,0 5.308,0 7.96,0 0.001,0.744 0.001,1.489 0.001,2.234 z"
       id="path3659"
       style="fill:#ffffff" />
  </g>
</svg>
