<?xml version="1.0" encoding="UTF-8" standalone="no"?>
<!-- Created with Inkscape (http://www.inkscape.org/) -->

<svg
   xmlns:dc="http://purl.org/dc/elements/1.1/"
   xmlns:cc="http://creativecommons.org/ns#"
   xmlns:rdf="http://www.w3.org/1999/02/22-rdf-syntax-ns#"
   xmlns:svg="http://www.w3.org/2000/svg"
   xmlns="http://www.w3.org/2000/svg"
   version="1.2"
   width="392.46875"
   height="227.90625"
   id="svg2">
  <metadata
     id="metadata3201">
    <rdf:RDF>
      <cc:Work
         rdf:about="">
        <dc:format>image/svg+xml</dc:format>
        <dc:type
           rdf:resource="http://purl.org/dc/dcmitype/StillImage" />
        <dc:title></dc:title>
      </cc:Work>
    </rdf:RDF>
  </metadata>
  <defs
     id="defs3199" />
  <g
     id="g3282">
    <path
       d="m 277.129,42.836 c 0,7.695 -6.25,13.939 -13.949,13.939 H 129.301 c -7.699,0 -13.945,-6.244 -13.945,-13.939 V 14.943 C 115.355,7.236 121.602,1 129.301,1 H 263.18 c 7.699,0 13.949,6.236 13.949,13.943 v 27.893"
       id="path3115"
       style="fill:#19408b;stroke:#ffffff;stroke-width:2" />
    <path
       d="m 391.48,187.867 c 0,21.566 -17.48,39.051 -39.047,39.051 H 40.045 C 18.48,226.918 1,209.434 1,187.867 V 98.619 C 1,77.051 18.48,59.568 40.045,59.568 h 312.389 c 21.566,0 39.047,17.482 39.047,39.051 v 89.248"
       id="path3117"
       style="fill:#19408b;stroke:#ffffff;stroke-width:2" />
    <path
       d="m 87.464996,95.828003 50.207004,0 0,33.464997 -50.207004,0 z"
       id="rect3119"
       style="fill:#13926c" />
    <path
       d="m 87.464996,95.828003 50.207004,0 0,33.464997 -50.207004,0 z"
       id="rect3121"
       style="fill:none;stroke:#ffffff;stroke-width:1.5;stroke-miterlimit:3.86400008" />
    <path
       d="m 383.216,186.528 c 0,17.93 -14.798,32.469 -33.056,32.469 H 41.653 C 23.398,218.997 8.6,204.458 8.6,186.528 V 99.958 C 8.6,82.02 23.398,67.487 41.653,67.487 H 350.16 c 18.258,0 33.056,14.533 33.056,32.471 v 86.57 z"
       id="path3123"
       style="fill:none;stroke:#ffffff;stroke-width:4;stroke-miterlimit:3.86400008" />
    <path
       d="m 38.324,151.621 h 11.211 c 6.26,0 10.21,2.136 11.852,6.406 l 0.641,3.844 c 0,5.405 -3.097,8.715 -9.289,9.93 h -7.367 v 10.57 h -7.047 v -30.75 z m 7.047,6.086 v 7.688 l 0.641,0.641 h 3.523 c 3.63,0 5.445,-1.281 5.445,-3.844 v -0.32 c 0,-1.936 -0.854,-3.323 -2.563,-4.164 h -7.046 z"
       id="path3127"
       style="fill:#ffffff" />
    <path
       d="m 76.882,158.988 c 4.751,0 8.168,2.35 10.25,7.047 l 0.961,4.484 c 0,6.446 -3.097,10.396 -9.289,11.852 h -2.563 c -5.031,0 -8.448,-2.775 -10.25,-8.328 l -0.32,-3.523 c 0,-5.592 2.883,-9.329 8.648,-11.211 l 2.563,-0.321 z m -4.805,10.891 v 1.922 c 0.387,3.203 1.988,4.805 4.805,4.805 2.883,0 4.484,-1.708 4.805,-5.125 v -0.641 c 0,-3.844 -1.602,-5.766 -4.805,-5.766 -3.203,0.268 -4.805,1.869 -4.805,4.805 z"
       id="path3129"
       style="fill:#ffffff" />
    <path
       d="m 102.547,159.629 c 5.979,0.975 8.969,3.75 8.969,8.328 v 14.414 h -6.727 V 170.52 c -0.268,-2.775 -1.335,-4.164 -3.203,-4.164 h -0.641 c -1.922,0 -2.99,1.281 -3.203,3.844 v 12.172 H 91.015 V 160.27 h 6.406 v 0.641 l 5.126,-1.282 z"
       id="path3131"
       style="fill:#ffffff" />
    <path
       d="m 127.231,150.98 v 8.328 l 0.641,0.641 h 4.805 v 5.766 h -5.445 v 8.008 c 0,1.148 0.427,1.896 1.281,2.242 h 1.922 l 1.922,-0.641 0.961,6.086 h -0.32 l -5.766,0.961 c -4.484,-0.613 -6.727,-2.215 -6.727,-4.805 v -11.852 h -3.844 v -5.766 h 3.203 l 0.641,-0.641 v -6.727 l 6.726,-1.6 z"
       id="path3133"
       style="fill:#ffffff" />
    <path
       d="m 147.951,159.309 c 6.192,0 9.716,3.844 10.57,11.531 v 2.242 h -14.734 c 0.934,2.35 2.429,3.523 4.484,3.523 1.708,0 3.523,-0.747 5.445,-2.242 l 4.484,4.484 c -3.203,2.35 -6.514,3.523 -9.93,3.523 -7.475,-0.987 -11.211,-4.617 -11.211,-10.891 v -1.281 c 0.922,-7.259 4.552,-10.889 10.892,-10.889 z m -4.164,8.648 h 8.008 c -0.828,-2.135 -2.216,-3.203 -4.164,-3.203 -1.642,0 -2.923,1.068 -3.844,3.203 z"
       id="path3135"
       style="fill:#ffffff" />
    <path
       d="m 162.245,159.949 h 7.047 l 3.844,13.133 h 0.641 l 3.844,-13.133 h 7.047 l -7.367,22.422 h -7.367 c -0.428,0 -2.67,-6.727 -6.727,-20.18 l -0.962,-2.242 z"
       id="path3137"
       style="fill:#ffffff" />
    <path
       d="m 199.081,159.309 c 6.192,0 9.716,3.844 10.57,11.531 v 2.242 h -14.734 c 0.934,2.35 2.429,3.523 4.484,3.523 1.708,0 3.523,-0.747 5.445,-2.242 l 4.484,4.484 c -3.203,2.35 -6.514,3.523 -9.93,3.523 -7.475,-0.987 -11.211,-4.617 -11.211,-10.891 v -1.281 c 0.922,-7.259 4.552,-10.889 10.892,-10.889 z m -4.164,8.648 h 8.008 c -0.828,-2.135 -2.216,-3.203 -4.164,-3.203 -1.642,0 -2.923,1.068 -3.844,3.203 z"
       id="path3139"
       style="fill:#ffffff" />
    <path
       d="m 229.07,151.301 h 6.727 v 30.75 h -5.766 l -0.961,-0.961 c -1.562,0.854 -3.27,1.281 -5.125,1.281 -4.191,0 -7.395,-2.242 -9.609,-6.727 -0.641,-1.027 -0.961,-2.629 -0.961,-4.805 0,-6.286 3.203,-10.13 9.609,-11.531 h 1.922 c 1.094,0 2.482,0.428 4.164,1.281 v -9.288 z m -8.968,17.937 v 2.563 c 0.494,2.99 1.882,4.484 4.164,4.484 h 0.641 c 2.775,-0.693 4.164,-2.082 4.164,-4.164 v -2.242 c -0.36,-2.989 -1.855,-4.484 -4.484,-4.484 -2.351,0 -3.845,1.281 -4.485,3.843 z"
       id="path3141"
       style="fill:#ffffff" />
    <path
       d="m 251.313,159.629 h 1.922 v 6.727 h -1.602 c -3.631,0 -5.445,2.029 -5.445,6.086 v 9.93 h -6.727 V 159.95 h 6.727 v 1.602 c 2.054,-1.282 3.763,-1.923 5.125,-1.923 z"
       id="path3143"
       style="fill:#ffffff" />
    <path
       d="m 266.507,159.309 c 4.271,0 7.26,1.602 8.969,4.805 l 0.32,2.883 v 9.289 c 0.213,0.641 0.854,0.961 1.922,0.961 -0.935,3.417 -1.682,5.125 -2.242,5.125 -2.122,-0.12 -3.83,-0.761 -5.125,-1.922 -2.096,1.281 -4.124,1.922 -6.086,1.922 -5.339,-0.667 -8.008,-3.016 -8.008,-7.047 v -0.32 c 0,-4.324 4.164,-6.887 12.492,-7.688 v -0.961 c 0,-0.453 -0.961,-0.881 -2.883,-1.281 -1.896,0.146 -3.924,1.001 -6.086,2.563 l -2.883,-4.484 v -0.32 c 2.776,-2.351 5.979,-3.525 9.61,-3.525 z m -3.524,15.054 v 0.961 c 0.547,1.068 1.508,1.602 2.883,1.602 2.135,-0.601 3.203,-1.241 3.203,-1.922 v -1.922 l -0.32,-0.32 v -0.32 c -3.844,0.72 -5.766,1.361 -5.766,1.921 z"
       id="path3145"
       style="fill:#ffffff" />
    <path
       d="m 90.807,102.197 h 14.438 v 4.156 H 95.62 v 3.938 h 8.531 v 4.156 H 95.62 v 4.156 h 10.5 v 4.594 H 90.807 v -21 z"
       id="path3149"
       style="fill:#ffffff" />
    <path
       d="m 112.389,111.014 h 7.219 v 3.719 h -7.219 v -3.719 z"
       id="path3153"
       style="fill:#ffffff" />
    <path
       d="m 127.688,102.197 h 4.375 v 21 h -4.813 v -13.781 h -3.5 v -4.156 h 2.625 c 0.875,-0.51 1.313,-1.167 1.313,-1.969 v -1.094 z"
       id="path3157"
       style="fill:#ffffff" />
    <path
       d="m 268.565,40.909 c 0,4.09 -3.595,7.407 -8.037,7.407 H 131.952 c -4.438,0 -8.036,-3.316 -8.036,-7.407 V 16.204 c 0,-4.092 3.597,-7.418 8.036,-7.418 h 128.577 c 4.442,0 8.037,3.326 8.037,7.418 v 24.705 z"
       id="path3159"
       style="fill:none;stroke:#ffffff;stroke-width:4;stroke-miterlimit:3.86400008" />
    <path
       d="m 151.61301,95.828003 66.938,0 0,33.464997 -66.938,0 z"
       id="rect3161"
       style="fill:none;stroke:#ffffff;stroke-width:1.5;stroke-miterlimit:3.86400008" />
    <path
       d="m 357.055,168.859 -8.825,-43.089 -10.902,17.132 -27,-31.15 -10.383,10.385 31.153,26.992 -17.133,10.91 43.09,8.82"
       id="polyline3163"
       style="fill:#ffffff" />
    <g
       id="g3169">
      <path
         d="m 209.132,108.613 c -0.519,-2.505 -1.556,-4.665 -3.716,-6.177 -3.759,-2.592 -9.287,-1.555 -11.319,2.549 -1.338,2.808 -1.381,6.177 0.476,8.899 1.054,1.544 2.462,2.506 4.234,2.852 1.944,0.389 3.975,0.216 5.529,-0.951 -0.042,1.599 -1.296,3.068 -2.895,3.241 -0.475,0.086 -0.993,0.086 -1.469,-0.087 -0.864,-0.216 -1.295,-0.95 -1.641,-1.686 -1.556,0.562 -3.024,1.254 -4.58,1.815 0.043,0.519 0.303,0.906 0.519,1.338 0.519,0.994 1.253,1.772 2.246,2.334 2.506,1.383 5.443,1.469 8.078,0.433 1.686,-0.692 3.067,-2.031 3.803,-3.673 1.469,-3.413 1.512,-7.127 0.735,-10.887 z m -5.444,2.074 c -0.733,1.556 -2.851,1.988 -4.276,1.124 -1.598,-1.08 -1.814,-3.5 -0.647,-5.012 0.95,-1.123 2.549,-1.296 3.801,-0.647 1.554,0.863 1.814,2.98 1.122,4.535 z"
         id="path3171"
         style="fill:#ffffff" />
    </g>
    <path
       d="m 189.086,112.502 c 0,0.562 0,1.123 0,1.685 -2.462,0 -4.968,0 -7.431,0 0,-1.382 0,-2.722 0,-4.104 2.463,0 4.969,0 7.431,0 0,0.82 0,1.598 0,2.419 z"
       id="path3173"
       style="fill:#ffffff" />
    <path
       d="m 165.931,101.61 h 6.556 l 7.46,21.703 h -5.652 l -0.904,-3.165 h -7.913 l -0.904,3.165 h -5.426 l 6.783,-21.703 z m 3.165,6.557 -2.035,7.008 h 4.521 v -0.226 c -1.355,-4.522 -2.185,-6.782 -2.486,-6.782 z"
       id="path3177"
       style="fill:#ffffff" />
    <path
       d="m 168.532,32.699 c -0.696,3.047 -3.167,5.185 -6.143,5.376 -3.36,0.191 -6.721,-1.824 -7.394,-5.184 1.344,-0.288 2.496,-0.864 3.841,-1.057 0.575,1.536 2.208,2.88 3.936,2.112 1.536,-0.768 1.92,-2.496 1.345,-4.032 -0.385,-1.056 -1.536,-1.92 -2.688,-1.729 -0.864,0.192 -1.633,0.577 -2.018,1.345 -1.439,-0.096 -2.975,-0.385 -4.416,-0.576 0.289,-3.168 0.864,-6.432 1.153,-9.6 3.84,0 7.68,0 11.52,0 0,1.248 0,2.496 0,3.744 -2.592,0.096 -5.279,-0.192 -7.872,0.096 0.096,0.576 -0.288,1.248 -0.097,1.824 1.537,-0.576 3.072,-0.576 4.608,-0.192 3.362,0.961 4.994,4.514 4.225,7.873 z"
       id="path3181"
       style="fill:#ffffff" />
    <path
       d="m 227.956,31.066 c 0.157,2.213 0.097,4.417 0.097,6.625 -1.343,0 -2.688,0 -4.031,0 0,-4.416 0,-8.736 0,-13.152 1.248,0.096 2.494,-0.288 3.648,0.192 0.096,0 0.096,0.575 0.286,0.384 2.017,-1.344 4.8,-1.248 6.337,0.672 1.729,-1.728 4.417,-2.208 6.623,-0.864 1.346,0.864 2.114,2.208 2.114,3.744 0.191,2.977 0.095,6.048 0.095,9.024 -1.344,0 -2.688,0 -4.032,0 -0.097,-2.88 0.288,-5.76 -0.191,-8.641 -0.097,-0.576 -0.671,-0.864 -1.249,-1.056 -0.862,-0.192 -1.822,0.288 -1.92,1.056 -0.479,2.977 -0.096,5.761 -0.191,8.641 -1.345,0 -2.688,0 -4.031,0 -0.098,-2.88 0.287,-5.76 -0.193,-8.641 -0.095,-0.576 -0.672,-0.864 -1.246,-1.056 -1.827,-0.287 -2.211,1.73 -2.116,3.072 z"
       id="path3183"
       style="fill:#ffffff" />
    <g
       id="g3187">
      <path
         d="m 208.47,26.363 c -0.385,-2.977 -2.017,-5.856 -4.897,-6.912 -3.456,-1.248 -7.582,-0.192 -9.312,3.168 -2.495,4.992 -2.016,12.671 3.649,14.879 3.166,1.345 7.256,0.361 9.12,-2.784 1.535,-2.59 1.726,-5.47 1.44,-8.351 z m -4.321,4.032 c -0.055,1.06 -0.384,2.112 -1.248,2.785 -1.536,1.151 -3.937,0.96 -4.991,-0.769 -0.386,-0.576 -0.48,-1.247 -0.48,-1.92 -0.193,-1.824 -0.385,-3.744 0.286,-5.472 0.48,-1.248 1.825,-1.824 3.074,-1.824 1.151,-0.096 2.303,0.48 2.88,1.536 0.862,1.728 0.575,3.744 0.479,5.664 z"
         id="path3189"
         style="fill:#ffffff" />
    </g>
    <g
       id="g3193">
      <path
         d="m 183.605,19.451 c -3.456,-1.248 -7.585,-0.192 -9.313,3.168 -2.496,4.992 -2.016,12.671 3.647,14.879 2.592,1.056 5.665,0.672 7.776,-1.152 2.112,-1.92 2.742,-4.705 2.88,-7.392 0.194,-3.743 -1.15,-8.062 -4.99,-9.503 z m -0.672,13.729 c -1.536,1.247 -3.937,0.96 -4.992,-0.769 -0.384,-0.576 -0.479,-1.247 -0.479,-1.92 -0.191,-1.824 -0.384,-3.744 0.289,-5.472 0.671,-1.633 2.59,-2.208 4.127,-1.729 1.535,0.48 2.4,2.112 2.304,3.744 -0.125,2.112 0.575,4.61 -1.249,6.146 z"
         id="path3195"
         style="fill:#ffffff" />
    </g>
  </g>
</svg>
