<?xml version="1.0" encoding="utf-8"?>
<!-- Generator: Adobe Illustrator 19.0.0, SVG Export Plug-In . SVG Version: 6.00 Build 0)  -->
<svg version="1.1" id="Capa_1" xmlns="http://www.w3.org/2000/svg" xmlns:xlink="http://www.w3.org/1999/xlink" x="0px" y="0px"
	 width="216.1px" height="188.6px" viewBox="190.4 327.9 216.1 188.6" style="enable-background:new 190.4 327.9 216.1 188.6;"
	 xml:space="preserve">
<style type="text/css">
	.st0{fill:#FFFFFF;}
	.st1{fill:none;stroke:#1C1D20;stroke-width:0.8;stroke-miterlimit:3.864;}
	.st2{fill:#19408B;}
</style>
<path class="st0" d="M195.6,328.5c-2.5,0-4.5,2-4.5,4.5v179c0,2.5,2,4.5,4.5,4.5h205.9c2.5,0,4.5-2,4.5-4.5V333c0-2.5-2-4.5-4.5-4.5
	H195.6z"/>
<path class="st1" d="M195.6,328.5c-2.5,0-4.5,2-4.5,4.5v179c0,2.5,2,4.5,4.5,4.5h205.9c2.5,0,4.5-2,4.5-4.5V333c0-2.5-2-4.5-4.5-4.5
	H195.6z"/>
<path class="st2" d="M401.5,330.5c1.4,0,2.5,1.1,2.5,2.5v179c0,1.4-1.1,2.5-2.5,2.5H195.6c-1.4,0-2.5-1.1-2.5-2.5V333
	c0-1.4,1.1-2.5,2.5-2.5H401.5"/>
<polyline class="st0" points="327.2,418.5 354.7,383.8 347,383.4 370.1,373.3 365.1,398 363.1,390.6 337.9,422.5 337.9,485.1 
	327.2,485.1 327.2,418.5 "/>
<polyline class="st0" points="265.4,485.1 265.4,377.7 259.2,382.2 270.8,359.8 282.4,382.2 276.2,377.7 276.2,485.1 265.4,485.1 
	"/>
<polyline class="st0" points="233.2,485.1 233.2,377.7 226.9,382.2 238.6,359.8 250.2,382.2 243.9,377.7 243.9,485.1 233.2,485.1 
	"/>
<polyline class="st0" points="297.6,418.5 325.2,383.8 317.5,383.4 340.6,373.3 335.6,398 333.5,390.6 308.4,422.5 308.4,485.1 
	297.6,485.1 297.6,418.5 "/>
</svg>
