<?xml version="1.0" encoding="UTF-8" standalone="no"?>
<svg
   xmlns:dc="http://purl.org/dc/elements/1.1/"
   xmlns:cc="http://creativecommons.org/ns#"
   xmlns:rdf="http://www.w3.org/1999/02/22-rdf-syntax-ns#"
   xmlns:svg="http://www.w3.org/2000/svg"
   xmlns="http://www.w3.org/2000/svg"
   xmlns:sodipodi="http://sodipodi.sourceforge.net/DTD/sodipodi-0.dtd"
   xmlns:inkscape="http://www.inkscape.org/namespaces/inkscape"
   version="1.2"
   width="706.77759"
   height="243.3383"
   id="svg2"
   sodipodi:docname="ES_S366.svg"
   inkscape:version="1.0.1 (3bc2e813f5, 2020-09-07)">
  <sodipodi:namedview
     pagecolor="#ffffff"
     bordercolor="#666666"
     borderopacity="1"
     objecttolerance="10"
     gridtolerance="10"
     guidetolerance="10"
     inkscape:pageopacity="0"
     inkscape:pageshadow="2"
     inkscape:window-width="1920"
     inkscape:window-height="1027"
     id="namedview6659"
     showgrid="false"
     inkscape:zoom="1.415825"
     inkscape:cx="382.12448"
     inkscape:cy="120.63846"
     inkscape:window-x="-8"
     inkscape:window-y="-8"
     inkscape:window-maximized="1"
     inkscape:current-layer="svg2"
     fit-margin-top="0"
     fit-margin-left="0"
     fit-margin-right="0"
     fit-margin-bottom="0" />
  <metadata
     id="metadata4010">
    <rdf:RDF>
      <cc:Work
         rdf:about="">
        <dc:format>image/svg+xml</dc:format>
        <dc:type
           rdf:resource="http://purl.org/dc/dcmitype/StillImage" />
        <dc:title></dc:title>
      </cc:Work>
    </rdf:RDF>
  </metadata>
  <defs
     id="defs4008" />
  <path
     d="m 0.13185,212.06171 c 0,14.851 12.268,27.122 27.122,27.122 h 294.701 c 14.851,0 27.122,-12.271 27.122,-27.122 V 29.190711 c 0,-14.854 -12.271,-27.1220001 -27.122,-27.1220001 h -294.7 c -14.854,0 -27.122,12.2680001 -27.122,27.1220001 l -0.001,182.870999"
     id="path3906"
     style="fill:#19408b" />
  <path
     d="m 0.13185,212.06171 c 0,14.851 12.268,27.122 27.122,27.122 h 294.701 c 14.851,0 27.122,-12.271 27.122,-27.122 V 29.190711 c 0,-14.854 -12.271,-27.1220001 -27.122,-27.1220001 h -294.7 c -14.854,0 -27.122,12.2680001 -27.122,27.1220001 l -0.001,182.870999"
     id="path3908"
     style="fill:none;stroke:#ffffff;stroke-width:0.2637;stroke-miterlimit:2.613" />
  <path
     d="M 8.26485,212.06171 V 29.190711 c 0,-10.332 8.658,-18.984 18.99,-18.984 h 294.701 c 10.331,0 18.984,8.653 18.984,18.984 V 212.06171 c 0,10.331 -8.653,18.984 -18.984,18.984 h -294.701 c -10.333,0 -18.99,-8.653 -18.99,-18.984 h -5.418 5.418 m -5.418,0 c 0,13.305 11.104,24.412 24.408,24.412 h 294.701 c 13.305,0 24.407,-11.107 24.407,-24.412 V 29.190711 c 0,-13.309 -11.104,-24.4130001 -24.407,-24.4130001 h -294.701 c -13.304,0 -24.408,11.1040001 -24.408,24.4130001 z"
     id="path3910"
     style="fill:#ffffff" />
  <path
     d="m 138.70385,28.17471 h 71.807 v 34.353001 h -71.807 z"
     id="rect3912"
     style="fill:#ffffff" />
  <path
     d="m 140.37785,29.982711 h 68.44899 V 60.71971 h -68.44899 z"
     id="rect3914"
     style="fill:#19408b" />
  <path
     d="m 153.03785,47.282711 2.843,-6.968 2.709,6.968 h -5.552 l -8.004,8.916 8.004,-8.916 m -8.004,8.916 h 4.388 l 1.937,-4.774 h 8.91 l 1.937,4.774 h 4.522 l -8.781,-21.699 h -4.265 z"
     id="path3916"
     style="fill:#ffffff" />
  <path
     d="m 174.34484,43.41471 h 6.845 v 4.136 h -6.845 z"
     id="rect3918"
     style="fill:#ffffff" />
  <path
     d="m 192.29885,48.060711 c 1.937,-0.901 4.774,-0.901 6.845,0 0.644,0.263 1.159,0.907 1.159,1.679 0,0.648 -0.515,1.421 -1.159,1.684 -2.071,0.896 -4.909,0.896 -6.845,0 -0.644,-0.263 -1.169,-1.036 -1.169,-1.684 0,-0.772 0.525,-1.416 1.169,-1.679 l -1.292,-4.002 1.292,4.002 m -1.293,-4.002 c 1.55,-4.13 6.067,-6.716 10.455,-5.938 v -4.136 c -4.259,-0.381 -9.039,1.679 -11.748,4.914 -2.709,3.224 -3.744,8.385 -2.452,12.526 0.386,1.545 1.808,3.101 3.358,3.739 2.972,1.422 7.36,1.422 10.46,0 2.065,-0.896 3.615,-3.224 3.615,-5.423 0,-2.323 -1.55,-4.522 -3.615,-5.424 -2.842,-1.421 -7.106,-1.421 -10.073,-0.258 z"
     id="path3920"
     style="fill:#ffffff" />
  <path
     d="m 53.04985,209.04671 -20.658,-20.664 16.528,3.616 v -12.144 h 8.137 v 12.144 l 16.656,-3.616 -20.663,20.664"
     id="polyline3922"
     style="fill:#ffffff" />
  <path
     d="m 296.15885,209.04671 -20.663,-20.664 16.661,3.616 v -12.144 h 8.128 v 12.144 l 16.538,-3.616 -20.664,20.664"
     id="polyline3924"
     style="fill:#ffffff" />
  <path
     d="m 0.13185,212.06171 c 0,14.851 12.268,27.122 27.122,27.122 h 294.701 c 14.851,0 27.122,-12.271 27.122,-27.122 V 29.190711 c 0,-14.854 -12.271,-27.1220001 -27.122,-27.1220001 h -294.7 c -14.854,0 -27.122,12.2680001 -27.122,27.1220001 z"
     id="path3926"
     style="fill:none;stroke:#1d2d28;stroke-width:0.2637;stroke-miterlimit:2.613" />
  <path
     d="m 233.43685,129.97171 h 11.11 l 1.679,-3.359 h -11.238 l -1.551,3.359"
     id="polyline3954"
     style="fill:#ffffff" />
  <path
     d="m 85.60685,141.53071 3.507,-8.599 3.342,8.599 h -6.849 l -9.873,10.999 9.873,-10.999 m -9.873,10.999 h 5.413 l 2.39,-5.893 h 10.991 l 2.39,5.893 h 5.578 l -10.832,-26.771 h -5.261 z"
     id="path3956"
     style="fill:#ffffff" />
  <path
     d="m 142.64585,143.78471 c -1.025,2.191 -3.61,3.62 -6.062,3.355 -2.462,-0.257 -4.651,-2.06 -5.429,-4.388 -0.777,-2.452 -0.777,-6.067 0,-8.652 0.778,-2.321 2.967,-4.131 5.429,-4.389 2.452,-0.258 5.037,1.159 6.062,3.354 l 4.651,-2.322 c -1.932,-4.002 -6.711,-6.582 -11.104,-6.201 -4.388,0.392 -8.652,3.744 -9.94,8.014 -1.035,3.482 -1.035,8.385 0,11.748 1.288,4.26 5.418,7.746 9.94,8.14 4.394,0.387 9.173,-2.322 11.104,-6.329 l -4.651,-2.33"
     id="path3958"
     style="fill:#ffffff" />
  <path
     d="m 165.12285,137.33071 c 1.931,2.581 1.931,6.325 0,8.91 -0.387,0.645 -1.164,1.164 -1.937,1.164 -0.778,0 -1.685,-0.521 -2.071,-1.164 -1.931,-2.585 -1.931,-6.329 0,-8.91 0.386,-0.646 1.293,-1.163 2.071,-1.163 0.773,0 1.55,0.52 1.937,1.163 l 4.13,-2.972 -4.13,2.972 m 4.13,-2.972 c -1.292,-1.805 -3.873,-3.103 -6.067,-3.103 -2.328,0 -4.914,1.298 -6.201,3.103 -3.101,4.389 -3.101,10.59 0,14.854 1.288,1.803 3.873,3.229 6.201,3.229 2.194,0 4.774,-1.429 6.067,-3.229 3.095,-4.264 3.095,-10.465 0,-14.854 z"
     id="path3960"
     style="fill:#ffffff" />
  <path
     d="m 180.74885,152.31471 h 5.166 v -11.371 c -0.129,-1.153 0.521,-2.58 1.421,-3.357 1.031,-0.639 2.452,-0.896 3.616,-0.381 l 2.452,-4.398 c -2.066,-1.152 -5.166,-1.417 -7.489,-0.382 v -0.515 h -5.166 v 20.404"
     id="path3962"
     style="fill:#ffffff" />
  <path
     d="m 202.44285,131.90771 v 12.14 c 0,2.838 1.812,5.812 4.13,7.226 2.457,1.424 5.943,1.424 8.396,0.136 v 0.905 h 5.171 v -20.404 h -5.171 v 11.359 c 0,1.938 -1.674,3.616 -3.615,3.616 -2.061,0 -3.745,-1.68 -3.745,-3.616 v -11.359 l -5.166,-0.003"
     id="path3964"
     style="fill:#ffffff" />
  <path
     d="m 230.97985,152.31471 h 5.172 v -11.371 c 0,-2.064 1.674,-3.61 3.61,-3.61 2.07,0 3.749,1.546 3.749,3.61 v 11.371 h 5.037 v -11.371 c 0.129,-2.84 -1.422,-6.066 -3.873,-7.617 -2.457,-1.674 -5.938,-1.805 -8.523,-0.521 v -0.896 h -5.172 v 20.405"
     id="path3966"
     style="fill:#ffffff" />
  <path
     d="m 268.94885,146.49871 c -1.545,0.778 -3.873,1.159 -5.68,0.906 -0.902,-0.128 -1.674,-1.035 -1.674,-1.941 0,-1.03 0.771,-1.937 1.674,-2.065 1.807,-0.263 4.135,0.131 5.68,0.906 v 2.194 l 5.172,5.813 -5.172,-5.813 m 5.172,5.816 v -12.66 c -0.263,-4.646 -4.522,-8.396 -9.302,-8.135 -2.065,0.131 -4.903,1.035 -6.587,2.194 l 2.714,4.126 c 1.03,-0.768 2.714,-1.288 3.873,-1.417 1.55,-0.129 3.229,0.521 4.002,1.809 0,0.13 0.128,0.259 0.128,0.388 v 1.035 c -1.803,-0.646 -4.512,-1.035 -6.453,-0.777 -3.1,0.521 -5.557,3.486 -5.557,6.587 0,3.103 2.457,6.072 5.557,6.587 1.941,0.266 4.65,-0.128 6.453,-0.775 v 1.041 h 5.172 z"
     id="path3968"
     style="fill:#ffffff" />
  <path
     d="m 121.53785,107.18671 h -4.371 l -7.502,-20.831999 h 4.371 l 5.332,14.631999 5.084,-14.631999 h 4.309 z"
     id="path3974"
     style="fill:#ffffff" />
  <path
     d="M 133.78285,107.18671 V 92.026711 h 4.154 v 15.158999 z m 4.092,-19.096999 c 0,0.538 -0.197,1.013 -0.589,1.426 -0.393,0.414 -0.879,0.62 -1.457,0.62 -0.538,0 -1.003,-0.207 -1.395,-0.62 -0.393,-0.413 -0.589,-0.888 -0.589,-1.426 0,-0.599 0.196,-1.09 0.589,-1.472 0.392,-0.382 0.857,-0.574 1.395,-0.574 0.578,0 1.064,0.191 1.457,0.574 0.392,0.383 0.589,0.873 0.589,1.472 z"
     id="path3976"
     style="fill:#ffffff" />
  <path
     d="M 146.24485,107.18671 V 87.656711 l 4.154,-1.612 v 21.141999 z"
     id="path3978"
     style="fill:#ffffff" />
  <path
     d="M 158.70685,107.18671 V 87.656711 l 4.154,-1.612 v 21.141999 z"
     id="path3980"
     style="fill:#ffffff" />
  <path
     d="m 179.04285,107.18671 v -0.495 c -0.724,0.289 -1.426,0.479 -2.108,0.572 -0.682,0.094 -1.312,0.141 -1.891,0.141 -0.848,0 -1.623,-0.124 -2.325,-0.372 -0.703,-0.248 -1.313,-0.601 -1.829,-1.055 -0.517,-0.454 -0.915,-0.997 -1.193,-1.626 -0.279,-0.63 -0.418,-1.317 -0.418,-2.062 0,-0.785 0.16,-1.508 0.48,-2.17 0.32,-0.660999 0.759,-1.234999 1.317,-1.720999 0.558,-0.485 1.219,-0.868 1.984,-1.147 0.765,-0.279 1.591,-0.418 2.48,-0.418 0.434,0 0.971,0.042 1.612,0.124 0.64,0.083 1.271,0.238 1.891,0.465 -0.042,-0.723 -0.31,-1.245 -0.806,-1.565 -0.496,-0.32 -1.127,-0.48 -1.891,-0.48 -1.447,0 -2.883,0.393 -4.309,1.178 l -1.519,-3.286 c 0.558,-0.289 1.08,-0.537 1.565,-0.744 0.485,-0.206 0.961,-0.372 1.426,-0.496 0.465,-0.124 0.924,-0.217 1.379,-0.279 0.454,-0.062 0.94,-0.093 1.457,-0.093 2.087,0 3.715,0.511 4.882,1.534 1.167,1.023 1.751,2.599 1.751,4.728 v 9.268999 z m 0,-6.107 c -0.62,-0.227 -1.255,-0.398 -1.906,-0.512 -0.651,-0.113 -1.184,-0.17 -1.597,-0.17 -0.662,0 -1.214,0.16 -1.658,0.48 -0.445,0.321 -0.667,0.718 -0.667,1.193 0,0.476 0.268,0.889 0.806,1.24 0.537,0.352 1.167,0.527 1.891,0.527 0.434,0 0.915,-0.051 1.441,-0.155 0.527,-0.103 1.09,-0.32 1.689,-0.651 z"
     id="path3982"
     style="fill:#ffffff" />
  <path
     d="M 191.28685,107.18671 V 87.656711 l 4.154,-1.612 v 21.141999 z"
     id="path3984"
     style="fill:#ffffff" />
  <path
     d="m 217.45085,99.528711 c 0,1.053999 -0.176,2.061999 -0.527,3.022999 -0.352,0.961 -0.822,1.798 -1.411,2.51 -0.589,0.714 -1.276,1.282 -2.062,1.705 -0.786,0.425 -1.612,0.637 -2.48,0.637 -0.6,0 -1.168,-0.072 -1.705,-0.218 -0.538,-0.145 -0.992,-0.393 -1.364,-0.743 v 0.743 h -4.154 V 87.655711 l 4.154,-1.612 v 6.634 c 0.434,-0.352 0.904,-0.609 1.41,-0.775 0.506,-0.165 1.028,-0.248 1.566,-0.248 0.888,0 1.736,0.212 2.542,0.635 0.806,0.424 1.503,0.998 2.092,1.721 0.589,0.724 1.059,1.561 1.411,2.511 0.353,0.951 0.528,1.954 0.528,3.007 z m -4.154,0 c 0,-0.537 -0.078,-1.043 -0.232,-1.519 -0.155,-0.476 -0.367,-0.894 -0.636,-1.256 -0.269,-0.361 -0.584,-0.646 -0.945,-0.853 -0.362,-0.206 -0.75,-0.31 -1.163,-0.31 -0.517,0 -0.977,0.114 -1.379,0.341 -0.403,0.228 -0.75,0.6 -1.039,1.116 v 4.959999 c 0.289,0.517 0.63,0.889 1.023,1.116 0.392,0.228 0.826,0.341 1.302,0.341 0.434,0 0.842,-0.103 1.225,-0.31 0.382,-0.207 0.708,-0.485 0.977,-0.837 0.269,-0.351 0.48,-0.764 0.636,-1.24 0.154,-0.473 0.231,-0.991 0.231,-1.548999 z"
     id="path3986"
     style="fill:#ffffff" />
  <path
     d="m 231.74185,107.18671 v -0.495 c -0.724,0.289 -1.426,0.479 -2.108,0.572 -0.682,0.094 -1.312,0.141 -1.891,0.141 -0.848,0 -1.623,-0.124 -2.325,-0.372 -0.703,-0.248 -1.313,-0.601 -1.829,-1.055 -0.517,-0.454 -0.915,-0.997 -1.193,-1.626 -0.279,-0.63 -0.418,-1.317 -0.418,-2.062 0,-0.785 0.16,-1.508 0.48,-2.17 0.32,-0.660999 0.759,-1.234999 1.317,-1.720999 0.558,-0.485 1.219,-0.868 1.984,-1.147 0.765,-0.279 1.591,-0.418 2.48,-0.418 0.434,0 0.971,0.042 1.612,0.124 0.64,0.083 1.271,0.238 1.891,0.465 -0.042,-0.723 -0.31,-1.245 -0.806,-1.565 -0.496,-0.32 -1.127,-0.48 -1.891,-0.48 -1.447,0 -2.883,0.393 -4.309,1.178 l -1.519,-3.286 c 0.558,-0.289 1.08,-0.537 1.565,-0.744 0.485,-0.206 0.961,-0.372 1.426,-0.496 0.465,-0.124 0.924,-0.217 1.379,-0.279 0.454,-0.062 0.94,-0.093 1.457,-0.093 2.087,0 3.715,0.511 4.882,1.534 1.167,1.023 1.751,2.599 1.751,4.728 v 9.268999 z m 0,-6.107 c -0.62,-0.227 -1.255,-0.398 -1.906,-0.512 -0.651,-0.113 -1.184,-0.17 -1.597,-0.17 -0.662,0 -1.214,0.16 -1.658,0.48 -0.445,0.321 -0.667,0.718 -0.667,1.193 0,0.476 0.268,0.889 0.806,1.24 0.537,0.352 1.167,0.527 1.891,0.527 0.434,0 0.915,-0.051 1.441,-0.155 0.527,-0.103 1.09,-0.32 1.689,-0.651 z"
     id="path3988"
     style="fill:#ffffff" />
  <path
     d="m 704.48016,225.83177 c -0.21645,19.19255 -17.98931,17.46641 -41.08675,17.46641 H 395.75519 c -23.09421,0 -42.87648,-5.26178 -42.73518,-24.45369 L 354.45946,23.317059 C 354.6008,4.123784 372.66259,0 395.75519,0 h 267.63822 c 23.09583,0 43.59896,3.0843267 43.38249,22.276892 z"
     id="path3217"
     style="fill:#ffffff;stroke-width:1"
     sodipodi:nodetypes="sssssssss" />
  <path
     d="m 695.74473,212.6368 c 0.036,9.65762 -1.55552,22.36269 -20.03163,22.45481 l -295.03574,1.47101 c -18.47611,0.0921 -20.43235,-14.08347 -20.39616,-23.74194 l 0.36776,-98.14105 c 0.0361,-9.66099 -1.57379,-24.261329 16.90251,-24.295245 l 300.46011,-0.551628 c 18.47631,-0.03388 17.32934,14.633413 17.3654,24.295243 z"
     id="path3243"
     style="fill:none;stroke:#1c1d20;stroke-width:2.19999;stroke-miterlimit:3.864;stroke-dasharray:none"
     sodipodi:nodetypes="sssssssss" />
  <path
     d="m 528.90815,178.23745 10.08279,10.27988 10.89839,-16.86671 -0.33474,34.49655 -34.49918,-0.33048 17.08055,-10.57578 -17.20521,-16.98334 6.85499,-6.72357"
     id="polyline3245"
     style="opacity:1;fill:#1c1d20;stroke-width:1"
     sodipodi:nodetypes="cccccccc" />
  <text
     xml:space="preserve"
     style="font-style:normal;font-variant:normal;font-weight:normal;font-stretch:normal;font-size:34.4216px;line-height:20.1689px;font-family:'Highway Gothic Wide';-inkscape-font-specification:'Highway Gothic Wide';letter-spacing:6.45405px;word-spacing:0px;fill:#000000;fill-opacity:1;stroke:none;stroke-width:0.999997px;stroke-linecap:butt;stroke-linejoin:miter;stroke-opacity:1"
     x="381.03659"
     y="143.27844"
     id="text4113"
     transform="scale(1.0049051,0.99511885)"><tspan
       sodipodi:role="line"
       id="tspan4111"
       x="381.03659"
       y="143.27844"
       style="font-style:normal;font-variant:normal;font-weight:normal;font-stretch:normal;font-size:34.4216px;font-family:'Highway Gothic Wide';-inkscape-font-specification:'Highway Gothic Wide';fill:#000000;fill-opacity:1;stroke:none;stroke-width:0.999997px">EL ESCORIAL</tspan></text>
  <path
     d="M 366.65384,57.574761 V 29.352259 c 0,-10.751224 10.09562,-19.7543098 22.14317,-19.7543098 h 285.75998 c 12.19799,0 16.41415,9.0041188 16.41415,19.7543098 v 28.222502 c 0,10.75124 -4.21616,19.749108 -16.41415,19.749108 H 388.79701 c -12.04755,0 -22.14317,-8.997868 -22.14317,-19.749108 h -6.31762 6.31762 m -6.31762,0 c 0,13.837584 12.94774,25.398388 28.46079,25.398388 h 285.75998 c 15.51305,0 22.73877,-11.559755 22.73877,-25.398388 V 29.352259 c 0,-13.849024 -7.22688,-25.4035896 -22.73877,-25.4035896 H 388.79701 c -15.51305,0 -28.46079,11.5545656 -28.46079,25.4035896 z"
     id="path5608"
     style="fill:#000000;stroke-width:0.999997"
     sodipodi:nodetypes="cssssssscccsssssssss" />
  <g
     id="g4256"
     transform="matrix(1.6135129,0,0,1.6135129,344.46794,1.5611026)"
     style="stroke-width:0.619766">
    <path
       d="m 21.852661,41.331176 h 11.492356 l 1.082817,-27.987958 h -3.331633 l -9.24354,27.987958"
       id="polyline5612"
       style="fill:#000000;stroke-width:0.619764" />
    <path
       d="m 37.261574,41.331176 h 11.40595 L 44.505245,28.17107 52.915562,18.674718 55.666121,25.33732 V 13.343218 h -11.9941 l 6.749015,2.750556 -8.163959,5.081919 -2.497751,-7.832475 h -3.331623 l 0.833871,27.987958"
       id="polyline5614"
       style="fill:#000000;stroke-width:0.619764" />
  </g>
  <text
     xml:space="preserve"
     style="font-style:normal;font-variant:normal;font-weight:normal;font-stretch:normal;font-size:28.0224px;line-height:16.4194px;font-family:'Highway Gothic Wide';-inkscape-font-specification:'Highway Gothic Wide';letter-spacing:5.2542px;word-spacing:0px;fill:#000000;fill-opacity:1;stroke:none;stroke-width:0.999999px;stroke-linecap:butt;stroke-linejoin:miter;stroke-opacity:1"
     x="642.39685"
     y="54.549778"
     id="text4113-7"
     transform="scale(1.0049051,0.99511885)"><tspan
       sodipodi:role="line"
       id="tspan4111-1"
       x="642.39685"
       y="54.549778"
       style="font-style:normal;font-variant:normal;font-weight:normal;font-stretch:normal;font-size:28.0224px;font-family:'Highway Gothic Wide';-inkscape-font-specification:'Highway Gothic Wide';fill:#000000;fill-opacity:1;stroke:none;stroke-width:0.999999px">18</tspan></text>
</svg>
