<?xml version="1.0" encoding="UTF-8" standalone="no"?>
<!-- Created with Inkscape (http://www.inkscape.org/) -->

<svg
   xmlns:dc="http://purl.org/dc/elements/1.1/"
   xmlns:cc="http://creativecommons.org/ns#"
   xmlns:rdf="http://www.w3.org/1999/02/22-rdf-syntax-ns#"
   xmlns:svg="http://www.w3.org/2000/svg"
   xmlns="http://www.w3.org/2000/svg"
   version="1.2"
   width="302"
   height="453"
   id="svg2">
  <metadata
     id="metadata3203">
    <rdf:RDF>
      <cc:Work
         rdf:about="">
        <dc:format>image/svg+xml</dc:format>
        <dc:type
           rdf:resource="http://purl.org/dc/dcmitype/StillImage" />
        <dc:title></dc:title>
      </cc:Work>
    </rdf:RDF>
  </metadata>
  <defs
     id="defs3201" />
  <g
     transform="translate(-0.5,-0.5)"
     id="Capa_1">
    <path
       d="M 1,24.33 C 1,5.94 5.94,1 24.33,1 H 278.67 C 297.06,1 302,5.94 302,24.33 V 429.67 C 302,448.06 297.06,453 278.67,453 H 24.33 C 5.94,453 1,448.06 1,429.67 V 24.33 z"
       id="path3135"
       style="fill:#ffffff;stroke:#000000" />
    <path
       d="M 8,26.33 C 8,10.18 10.18,8 26.33,8 h 249.84 c 16.15,0 18.33,2.18 18.33,18.33 v 400.84 c 0,16.15 -2.18,18.33 -18.33,18.33 H 26.33 C 10.18,445.5 8,443.32 8,427.17 V 26.33 z"
       id="path3137"
       style="fill:#19408b" />
    <polygon
       points="141,420 124,420 144,120 148,120 "
       id="polygon3139"
       style="fill:#ffffff" />
    <polygon
       points="48,420 30,420 115.5,120.17 119.67,120.17 "
       id="polygon3141"
       style="fill:#ffffff" />
    <polygon
       points="161,420 178,420 158,120 154,120 "
       id="polygon3143"
       style="fill:#ffffff" />
    <polygon
       points="254,420 272,420 186.5,120.17 182.33,120.17 "
       id="polygon3145"
       style="fill:#ffffff" />
    <polygon
       points="211,420 220,420 172,120 169,120 "
       id="polygon3147"
       style="fill:#ffffff" />
    <rect
       width="15"
       height="15"
       x="165"
       y="126"
       id="rect3149"
       style="fill:#19408b" />
    <rect
       width="18"
       height="21"
       x="168"
       y="156"
       id="rect3151"
       style="fill:#19408b" />
    <rect
       width="15"
       height="33"
       x="178"
       y="198"
       id="rect3153"
       style="fill:#19408b" />
    <rect
       width="24"
       height="62"
       x="186"
       y="268"
       id="rect3155"
       style="fill:#19408b" />
    <polygon
       points="91,420 82,420 130,120 133,120 "
       id="polygon3157"
       style="fill:#ffffff" />
    <rect
       width="15"
       height="15"
       x="122"
       y="126"
       id="rect3159"
       style="fill:#19408b" />
    <rect
       width="18"
       height="21"
       x="116"
       y="156"
       id="rect3161"
       style="fill:#19408b" />
    <rect
       width="15"
       height="33"
       x="109"
       y="198"
       id="rect3163"
       style="fill:#19408b" />
    <rect
       width="24"
       height="62"
       x="92"
       y="268"
       id="rect3165"
       style="fill:#19408b" />
    <g
       id="g3167">
      <path
         d="m 64.688,85.609 h -1.05 -8.41 -0.61 L 54.457,85.021 54.29,84.413 54.262,84.309 v -0.108 -0.106 l -0.047,-0.059 -0.175,-0.22 v -0.28 -0.161 c -0.063,-0.159 -0.106,-0.317 -0.128,-0.474 l 0.108,0.114 c -0.104,-0.116 -0.177,-0.258 -0.218,-0.421 l -0.083,-0.105 -0.175,-0.22 V 81.988 81.815 L 53.473,81.528 53.229,80.991 53.203,80.932 53.187,80.871 52.682,79.026 H 40.091 l -0.071,0.315 -0.016,0.071 -0.029,0.067 -0.136,0.317 -0.096,0.454 c -0.044,0.203 -0.108,0.396 -0.191,0.578 l -0.146,0.58 -0.326,0.985 -0.047,0.319 -0.018,0.126 -0.057,0.114 -0.073,0.146 c -0.104,0.368 -0.211,0.649 -0.336,0.862 l -0.246,1.034 -0.146,0.614 h -0.633 -8.298 -0.991 l 0.209,-0.968 0.167,-0.775 0.333,-1.015 0.045,-0.274 0.02,-0.122 0.057,-0.11 0.112,-0.22 0.08,-0.209 0.108,-0.224 0.482,-1.497 0.071,-0.183 v -0.126 -0.1 l 0.024,-0.098 0.112,-0.441 0.026,-0.104 0.053,-0.094 0.168,-0.299 0.25,-0.948 0.252,-0.647 0.15,-0.456 c 0.108,-0.362 0.226,-0.71 0.34,-1.02 0.107,-0.287 0.197,-0.537 0.271,-0.752 l 0.256,-0.773 c 0.083,-0.396 0.185,-0.761 0.305,-1.078 0.105,-0.283 0.195,-0.533 0.269,-0.749 0.096,-0.249 0.169,-0.413 0.232,-0.539 l 0.059,-0.118 0.032,-0.067 0.146,-0.727 0.022,-0.106 0.047,-0.095 0.285,-0.572 0.145,-0.676 0.033,-0.152 0.089,-0.13 0.021,-0.03 c 0.071,-0.332 0.152,-0.637 0.242,-0.905 0.091,-0.275 0.208,-0.547 0.348,-0.81 l 0.089,-0.626 0.012,-0.094 0.035,-0.087 0.814,-2.063 0.152,-0.606 0.012,-0.051 0.021,-0.049 0.11,-0.277 0.096,-0.293 c 0.175,-0.6 0.376,-1.107 0.604,-1.518 l 0.085,-0.47 0.014,-0.081 0.031,-0.076 0.055,-0.136 v -0.175 -0.155 l 0.057,-0.142 0.11,-0.275 0.631,-1.687 0.1,-0.499 0.022,-0.105 0.049,-0.098 0.222,-0.441 0.112,-0.265 c 0.146,-0.682 0.315,-1.205 0.509,-1.589 l 0.087,-0.395 0.173,-0.525 c 0.082,-0.398 0.183,-0.761 0.303,-1.078 0.104,-0.276 0.193,-0.506 0.262,-0.689 l 0.098,-0.385 0.116,-0.411 c 0.102,-0.271 0.183,-0.456 0.26,-0.631 0.053,-0.12 0.094,-0.238 0.122,-0.348 l 0.328,-0.985 0.045,-0.271 0.012,-0.069 0.022,-0.065 0.775,-2.213 0.187,-0.535 h 0.568 0.663 9.295 0.799 v 0.799 0.092 c 0.124,0.264 0.23,0.513 0.313,0.749 0.1,0.283 0.173,0.567 0.218,0.848 l 0.201,0.603 0.096,0.33 c 0.075,0.161 0.102,0.33 0.11,0.474 0,0.006 0.002,0.01 0.004,0.016 0.092,0.108 0.165,0.254 0.2,0.454 0.161,0.293 0.254,0.551 0.285,0.793 l 0.57,1.501 0.051,0.136 v 0.146 0.037 c 0.124,0.265 0.232,0.529 0.317,0.785 0.1,0.303 0.169,0.598 0.211,0.887 0.175,0.396 0.307,0.736 0.403,1.036 0.089,0.293 0.157,0.551 0.199,0.779 0.043,0.109 0.078,0.231 0.102,0.372 l 0.211,0.409 0.026,0.049 0.022,0.053 c 0.082,0.211 0.145,0.389 0.187,0.533 0.027,0.088 0.045,0.145 0.065,0.188 l 0.079,0.165 v 0.185 0.1 c 0.035,0.073 0.061,0.152 0.082,0.234 0.138,0.246 0.234,0.511 0.283,0.789 l 0.531,1.483 0.105,0.366 0.078,0.157 0.049,0.1 0.02,0.108 0.141,0.75 0.156,0.271 0.242,0.486 0.053,0.108 0.02,0.118 0.055,0.332 0.091,0.295 0.195,0.478 0.021,0.051 0.014,0.055 c 0.035,0.138 0.067,0.266 0.102,0.386 0.035,0.12 0.067,0.228 0.1,0.328 l 0.041,0.122 v 0.13 0.144 c 0.053,0.155 0.1,0.287 0.143,0.399 0.059,0.159 0.126,0.352 0.203,0.584 l 0.596,1.512 0.026,0.067 0.014,0.069 0.09,0.45 0.228,0.456 0.256,0.692 0.049,0.134 v 0.14 0.085 l 0.082,0.163 0.035,0.069 0.021,0.073 0.11,0.389 0.104,0.411 c 0.256,0.588 0.462,1.131 0.612,1.616 0.134,0.441 0.24,0.856 0.319,1.243 0.069,0.118 0.114,0.247 0.139,0.383 0.494,1.078 0.826,2.041 0.986,2.869 l 0.082,0.205 0.136,0.464 0.108,0.421 0.087,0.222 0.037,0.087 0.012,0.096 0.041,0.289 c 0.01,0.022 0.018,0.042 0.026,0.059 0.098,0.122 0.163,0.271 0.195,0.441 l 0.051,0.046 0.01,0.163 0.152,0.303 0.085,0.171 v 0.189 0.033 l 0.028,0.026 0.008,0.148 c 0.218,0.36 0.346,0.686 0.397,0.991 0.044,0.141 0.11,0.336 0.175,0.499 0.087,0.224 0.155,0.423 0.199,0.602 l 0.161,0.588 0.283,1.011 0,0 z M 42.545,70.843 h 7.682 L 49.71,69.295 49.206,67.61 C 49.102,67.345 49.002,67.03 48.923,66.729 48.858,66.491 48.795,66.29 48.73,66.126 L 48.66,65.92 C 48.573,65.552 48.51,65.316 48.445,65.139 48.386,64.976 48.341,64.863 48.311,64.8 L 48.26,64.696 48.242,64.58 48.187,64.248 48.116,64.01 l -0.202,-0.452 -0.041,-0.087 -0.017,-0.096 -0.11,-0.608 -0.022,-0.15 -0.035,-0.035 -0.177,-0.177 -0.044,-0.247 -0.11,-0.608 -0.037,-0.265 c -0.08,-0.15 -0.132,-0.307 -0.159,-0.466 L 47.15,60.788 47.109,60.662 47,60.332 c -0.069,-0.202 -0.145,-0.405 -0.228,-0.61 -0.104,-0.244 -0.2,-0.515 -0.281,-0.808 l -0.061,-0.346 -0.04,-0.118 -0.297,1.023 -0.499,1.666 -0.02,0.067 -0.033,0.063 -0.077,0.152 -0.588,2.032 -0.11,0.385 -0.626,1.715 -0.138,0.415 c -0.075,0.497 -0.183,0.944 -0.328,1.329 -0.053,0.401 -0.177,0.79 -0.368,1.158 l -0.09,0.311 c -0.105,0.5 -0.242,0.873 -0.425,1.142 l -0.246,0.935 0,0 z"
         id="path3169"
         style="fill:#ffffff" />
    </g>
    <g
       id="g3171">
      <path
         d="m 86.374,86.438 c -1.709,0 -3.401,-0.294 -5.028,-0.875 -7.44,-2.815 -11.205,-8.521 -11.205,-16.965 0,-1.018 0.057,-2.105 0.169,-3.231 L 70.306,47.852 v -0.963 l 0.944,0.176 0.542,0.1 h 7.003 0.799 v 0.799 23.175 l 0.55,1.899 c 1.515,2.545 3.534,3.89 6.171,4.108 2.778,-0.241 4.799,-1.412 6.175,-3.575 v -0.104 -0.149 l 0.053,-0.139 c 0.174,-0.452 0.323,-0.91 0.443,-1.357 0.117,-0.431 0.192,-0.883 0.225,-1.343 0.039,-0.298 0.065,-0.531 0.083,-0.758 0.017,-0.212 0.024,-0.423 0.024,-0.624 V 47.964 47.165 h 0.799 7.579 0.799 v 0.799 23.788 0.078 l -0.014,0.078 c -0.035,0.176 -0.06,0.315 -0.078,0.419 -0.012,0.068 -0.019,0.11 -0.019,0.146 v 0.188 l -0.082,0.167 -0.062,0.123 c -0.063,0.356 -0.119,0.691 -0.167,1.001 -0.063,0.38 -0.131,0.724 -0.208,1.039 -1.562,4.307 -4.125,7.428 -7.641,9.359 -2.66,1.389 -5.299,2.088 -7.85,2.088 l 0,0 z"
         id="path3173"
         style="fill:#ffffff" />
    </g>
    <g
       id="g3175">
      <polygon
         points="118.822,84.697 118.822,55.791 109.222,55.791 108.421,55.791 108.421,54.99 108.421,47.687 108.421,46.886 109.222,46.886 109.61,46.886 137.77,46.886 138.57,46.886 138.57,47.687 138.57,54.99 138.57,55.791 137.77,55.791 128.114,55.791 128.114,84.697 128.114,85.498 128.114,85.498 127.313,85.498 119.623,85.498 118.822,85.498 "
         id="polygon3177"
         style="fill:#ffffff" />
    </g>
    <g
       id="g3179">
      <path
         d="m 160.063,86.384 c -4.434,0 -8.451,-1.655 -11.941,-4.919 -4.04,-4.498 -6.064,-9.518 -6.064,-14.969 0,-2.391 0.402,-4.908 1.199,-7.481 2.802,-8.067 8.23,-12.437 16.141,-13.013 11.424,0.076 18,5.967 19.606,17.509 0.042,0.46 0.07,0.887 0.087,1.322 0.021,0.434 0.031,0.858 0.031,1.277 0,8.928 -3.729,15.218 -11.08,18.701 -2.874,1.053 -5.535,1.573 -7.979,1.573 l 0,0 z m -1.546,-9.19 0.97,0.231 c 6.278,-0.066 9.464,-3.235 9.736,-9.689 0.037,-0.357 0.054,-0.65 0.054,-0.935 v -0.914 c 0,-7.079 -3.12,-10.671 -9.532,-10.98 -5.238,1.052 -7.787,4.665 -7.787,11.037 v 0.858 c 0,0.244 0.016,0.498 0.049,0.755 0.208,4.409 1.88,7.405 5.108,9.204 h 0.072 0.192 l 0.169,0.086 c 0.101,0.052 0.188,0.087 0.262,0.107 0.13,0.037 0.258,0.072 0.393,0.105 l 0.091,0.021 0.084,0.043 0.139,0.071 0,0 z"
         id="path3181"
         style="fill:#ffffff" />
    </g>
    <g
       id="g3183">
      <path
         d="m 204.464,85.608 h -0.087 -10.178 -0.637 l -0.143,-0.62 -0.166,-0.719 -0.066,-0.226 -0.044,-0.064 -0.068,-0.104 -0.033,-0.118 -0.443,-1.55 -0.031,-0.107 V 81.988 81.86 c -0.063,-0.176 -0.111,-0.344 -0.146,-0.508 l -0.021,-0.085 -0.07,-0.305 c -0.089,-0.234 -0.146,-0.458 -0.172,-0.684 -0.008,-0.081 -0.019,-0.141 -0.029,-0.185 -0.045,-0.093 -0.072,-0.191 -0.089,-0.288 -0.201,-0.365 -0.317,-0.701 -0.348,-1.016 -0.09,-0.234 -0.144,-0.45 -0.164,-0.653 -0.033,-0.083 -0.062,-0.176 -0.091,-0.28 -0.033,-0.112 -0.068,-0.243 -0.104,-0.381 l -0.251,-0.601 -0.062,-0.147 V 76.565 76.37 l -0.022,-0.046 c -0.044,-0.087 -0.085,-0.182 -0.125,-0.292 l -0.052,-0.077 -0.104,-0.156 -0.022,-0.187 -0.112,-0.885 -0.056,-0.209 c -0.192,-0.305 -0.319,-0.632 -0.373,-0.974 l -0.033,-0.099 -0.236,-0.879 -0.657,-2.251 -0.113,-0.648 -0.288,-0.622 -0.042,-0.087 -0.019,-0.095 -0.054,-0.278 -0.015,-0.077 V 68.431 68.23 l -0.039,-0.195 -0.181,-0.622 c -0.311,-0.558 -0.495,-1.104 -0.549,-1.627 l -0.151,-0.661 -0.423,-1.254 -0.183,-0.728 -0.116,-0.512 -0.131,-0.616 c -0.065,-0.114 -0.115,-0.238 -0.141,-0.369 -0.079,-0.199 -0.079,-0.384 -0.079,-0.464 l -0.022,0.17 -0.719,-2.433 -0.017,-0.052 -0.009,-0.054 -0.098,-0.632 -0.184,-0.462 -0.025,-0.062 -0.015,-0.064 -0.08,-0.369 -0.1,-0.164 -0.116,-0.19 v -0.224 -0.174 l -0.048,-0.19 c -0.083,-0.131 -0.139,-0.274 -0.159,-0.421 l -0.699,-2.363 -0.033,-0.11 v -0.116 -0.174 l -0.115,-0.203 -0.027,-0.048 -0.021,-0.05 -0.112,-0.275 -0.058,-0.145 v -0.156 -0.157 c -0.031,-0.1 -0.044,-0.193 -0.05,-0.268 l -0.064,-0.226 -0.188,-0.375 -0.054,-0.107 -0.021,-0.12 -0.095,-0.581 c -0.334,-0.829 -0.562,-1.639 -0.68,-2.417 l -0.139,-0.92 h 0.93 0.386 7.525 0.55 l 0.196,0.512 c 0.19,0.495 0.34,0.953 0.443,1.364 0.09,0.362 0.158,0.673 0.199,0.937 l 0.242,0.634 0.029,0.075 0.015,0.079 0.098,0.581 0.238,0.572 0.062,0.147 v 0.16 0.071 c 0.16,0.319 0.264,0.684 0.313,1.094 0.029,0.077 0.046,0.153 0.056,0.226 0.062,0.121 0.102,0.251 0.118,0.39 l 0.746,2.288 0.04,0.123 v 0.126 0.277 c 0.014,0.048 0.024,0.093 0.032,0.139 0.062,0.105 0.116,0.238 0.129,0.392 l 0.188,0.616 0.157,0.717 c 0.249,0.452 0.402,0.871 0.463,1.272 l 0.037,0.075 0.022,0.089 0.222,0.939 0.09,0.358 c 0.087,0.193 0.145,0.383 0.172,0.57 0.006,0.05 0.015,0.093 0.024,0.133 l 0.044,0.066 0.078,0.118 0.033,0.139 0.222,0.941 0.653,2.166 0.271,1.293 c 0.264,0.545 0.434,1.016 0.519,1.434 l 0.368,1.631 0.151,0.406 0.019,0.052 0.013,0.052 0.091,0.406 0.177,0.352 0.056,0.11 0.019,0.121 0.04,0.24 0.078,0.199 0.057,0.143 v 0.153 0.153 c 0.049,0.104 0.082,0.216 0.099,0.334 0.005,0.01 0.009,0.023 0.013,0.033 0.029,-0.104 0.056,-0.208 0.079,-0.309 l 0.05,-0.253 0.128,-0.456 c 0.116,-0.351 0.203,-0.636 0.276,-0.887 0.082,-0.288 0.165,-0.531 0.248,-0.738 l 0.112,-0.28 0.083,-0.305 0.149,-0.769 0.014,-0.07 0.027,-0.066 0.109,-0.278 0.033,-0.081 0.048,-0.073 0.031,-0.047 0.408,-1.633 0.11,-0.332 0.047,-0.278 0.351,-1.244 0.114,-0.296 0.041,-0.172 0.508,-1.749 0.191,-0.481 v -0.18 -0.241 l 0.132,-0.201 0.042,-0.062 0.13,-0.481 0.081,-0.213 v -0.184 -0.1 l 0.025,-0.095 0.056,-0.222 0.4,-1.264 0.095,-0.394 0.168,-0.506 0.102,-0.508 0.019,-0.087 0.035,-0.081 0.187,-0.42 0.096,-0.427 0.022,-0.093 0.042,-0.087 0.13,-0.261 0.09,-0.354 0.104,-0.475 c 0.035,-0.271 0.109,-0.549 0.218,-0.79 0.047,-0.112 0.1,-0.224 0.151,-0.332 V 53.494 53.33 l 0.063,-0.151 0.118,-0.277 0.044,-0.381 0.011,-0.089 0.028,-0.085 0.43,-1.233 0.041,-0.211 0.013,-0.071 0.026,-0.068 0.11,-0.275 0.056,-0.166 v -0.257 -0.153 l 0.056,-0.141 0.077,-0.193 0.039,-0.288 0.015,-0.11 0.046,-0.102 c 0.229,-0.524 0.379,-0.98 0.441,-1.359 l 0.114,-0.667 h 0.675 8.023 0.992 l -0.211,0.97 -0.168,0.775 -0.236,0.784 -0.015,0.05 -0.022,0.047 -0.23,0.504 -0.093,0.613 -0.015,0.085 -0.029,0.079 c -0.104,0.271 -0.188,0.526 -0.257,0.767 -0.066,0.226 -0.114,0.435 -0.146,0.63 l -0.242,0.862 -0.51,1.478 -0.257,1.088 -0.129,0.396 -0.536,2.106 -0.38,1.14 -0.043,0.365 -0.011,0.087 -0.029,0.083 -0.333,0.939 -0.083,0.402 -0.05,0.259 -0.015,0.073 -0.027,0.07 -0.109,0.276 -0.104,0.209 c -0.066,0.266 -0.125,0.489 -0.177,0.678 -0.06,0.226 -0.135,0.448 -0.22,0.659 l -0.2,0.663 -0.035,0.11 -0.062,0.095 -0.004,0.008 c -0.038,0.282 -0.079,0.545 -0.129,0.788 -0.062,0.317 -0.174,0.626 -0.329,0.924 l -0.144,0.664 -0.234,0.825 -0.155,0.68 -0.234,0.773 c -0.08,0.206 -0.124,0.338 -0.151,0.466 -0.052,0.23 -0.082,0.367 -0.115,0.494 l -0.118,0.41 -0.245,0.626 -0.36,1.306 -0.157,0.684 -0.236,0.775 -0.156,0.622 -0.012,0.054 -0.021,0.052 c -0.059,0.141 -0.102,0.27 -0.131,0.383 l -0.114,0.454 -0.209,0.586 -0.046,0.413 -0.022,0.192 -0.108,0.164 -0.128,0.192 -0.081,0.444 -0.183,0.676 -0.1,0.46 -0.021,0.097 -0.046,0.089 -0.161,0.323 c -0.044,0.294 -0.105,0.556 -0.187,0.792 -0.066,0.206 -0.137,0.402 -0.207,0.583 l -0.098,0.441 -0.062,0.245 -0.039,0.305 -0.011,0.07 -0.022,0.066 -0.109,0.332 -0.491,1.59 -0.214,0.802 -0.166,0.653 -0.12,0.479 -0.482,0.105 -0.498,0.11 -0.086,0.016 0,0 z"
         id="path3185"
         style="fill:#ffffff" />
    </g>
    <g
       id="g3187">
      <polygon
         points="224.658,43.182 226.873,35.353 227.039,34.771 227.644,34.771 234.64,34.771 235.99,34.771 235.342,35.955 231.055,43.785 230.826,44.2 230.826,44.2 230.353,44.2 225.429,44.2 224.372,44.2 "
         id="polygon3189"
         style="fill:#ffffff" />
    </g>
    <g
       id="g3191">
      <polygon
         points="223.053,84.809 223.053,59.25 223.053,47.852 223.053,47.053 223.853,47.053 225.126,47.053 231.432,47.053 232.231,47.053 232.231,47.852 232.231,84.809 232.231,85.608 232.231,85.608 231.432,85.608 223.853,85.608 223.053,85.608 "
         id="polygon3193"
         style="fill:#ffffff" />
    </g>
    <g
       id="g3195">
      <path
         d="m 275.08,85.608 h -1.05 -8.409 -0.609 l -0.163,-0.586 -0.167,-0.607 -0.027,-0.104 v -0.108 -0.106 l -0.046,-0.059 -0.173,-0.219 v -0.28 -0.158 c -0.064,-0.161 -0.108,-0.32 -0.132,-0.474 l 0.145,0.146 c -0.123,-0.123 -0.209,-0.277 -0.253,-0.459 l -0.085,-0.106 -0.174,-0.219 v -0.28 -0.173 l -0.068,-0.279 -0.249,-0.543 -0.026,-0.058 -0.018,-0.063 -0.503,-1.845 h -12.588 l -0.071,0.313 -0.017,0.073 -0.029,0.069 -0.133,0.311 c -0.027,0.134 -0.055,0.263 -0.08,0.386 -0.061,0.265 -0.125,0.465 -0.208,0.645 l -0.145,0.583 -0.325,0.979 -0.046,0.324 -0.02,0.134 -0.061,0.119 -0.079,0.155 c -0.1,0.363 -0.209,0.641 -0.332,0.852 l -0.244,1.029 -0.146,0.614 h -0.633 -8.299 -0.991 l 0.208,-0.969 0.167,-0.774 0.337,-1.025 0.043,-0.263 0.02,-0.123 0.056,-0.111 0.113,-0.221 0.077,-0.207 0.11,-0.223 0.482,-1.501 0.073,-0.186 V 79.89 79.792 l 0.022,-0.096 0.111,-0.442 0.026,-0.106 0.055,-0.098 0.169,-0.294 0.25,-0.95 0.253,-0.645 0.148,-0.453 c 0.11,-0.365 0.226,-0.714 0.342,-1.025 0.109,-0.286 0.196,-0.539 0.27,-0.751 l 0.273,-0.827 c 0.061,-0.319 0.165,-0.695 0.288,-1.022 0.106,-0.282 0.194,-0.528 0.265,-0.743 0.101,-0.259 0.176,-0.43 0.24,-0.557 l 0.088,-0.176 0.145,-0.724 0.021,-0.104 0.048,-0.096 0.286,-0.572 0.146,-0.678 0.034,-0.15 0.085,-0.127 0.023,-0.034 c 0.07,-0.34 0.154,-0.647 0.244,-0.912 0.09,-0.273 0.209,-0.544 0.347,-0.806 l 0.09,-0.626 0.012,-0.094 0.034,-0.087 0.81,-2.056 0.154,-0.611 0.015,-0.052 0.019,-0.05 0.111,-0.275 0.094,-0.286 c 0.177,-0.605 0.378,-1.113 0.607,-1.522 l 0.083,-0.47 0.015,-0.081 0.029,-0.077 0.055,-0.136 v -0.173 -0.154 l 0.056,-0.142 0.111,-0.278 0.634,-1.692 0.101,-0.495 0.021,-0.101 0.049,-0.094 0.219,-0.442 0.117,-0.273 c 0.147,-0.685 0.314,-1.205 0.507,-1.586 l 0.088,-0.395 0.186,-0.576 c 0.061,-0.319 0.165,-0.695 0.288,-1.025 0.104,-0.273 0.189,-0.503 0.263,-0.685 l 0.099,-0.39 0.114,-0.409 c 0.106,-0.275 0.184,-0.457 0.259,-0.63 0.055,-0.123 0.099,-0.24 0.126,-0.346 l 0.327,-0.996 0.044,-0.263 0.011,-0.069 0.022,-0.067 0.776,-2.214 0.188,-0.535 h 0.567 0.664 9.294 0.8 v 0.799 0.094 c 0.125,0.261 0.229,0.509 0.312,0.743 0.099,0.282 0.174,0.567 0.22,0.849 l 0.202,0.607 0.092,0.322 c 0.077,0.163 0.103,0.334 0.111,0.482 0,0.004 0.002,0.011 0.004,0.015 0.09,0.106 0.163,0.25 0.198,0.449 0.163,0.29 0.257,0.553 0.288,0.802 l 0.567,1.497 0.053,0.138 v 0.146 0.038 c 0.125,0.267 0.231,0.53 0.316,0.787 0.097,0.284 0.167,0.584 0.213,0.887 0.172,0.386 0.308,0.737 0.401,1.038 0.09,0.29 0.156,0.551 0.2,0.778 0.046,0.115 0.079,0.24 0.103,0.376 l 0.208,0.396 0.029,0.052 0.023,0.056 c 0.083,0.213 0.144,0.393 0.188,0.541 0.021,0.08 0.04,0.131 0.059,0.171 l 0.084,0.169 v 0.188 0.1 c 0.033,0.073 0.061,0.15 0.079,0.231 0.14,0.244 0.235,0.512 0.286,0.789 l 0.53,1.486 0.104,0.361 0.08,0.159 0.05,0.1 0.021,0.111 0.141,0.751 0.154,0.269 0.242,0.484 0.054,0.108 0.019,0.119 0.055,0.332 0.092,0.298 0.194,0.472 0.022,0.056 0.015,0.059 c 0.033,0.138 0.067,0.265 0.101,0.384 0.031,0.108 0.066,0.219 0.1,0.319 l 0.042,0.125 v 0.131 0.144 c 0.055,0.159 0.103,0.294 0.143,0.407 0.058,0.15 0.127,0.344 0.204,0.58 l 0.593,1.509 0.025,0.064 0.015,0.067 0.092,0.451 0.229,0.457 0.257,0.695 0.046,0.131 v 0.14 0.087 l 0.081,0.163 0.035,0.067 0.02,0.071 0.11,0.386 0.103,0.407 c 0.265,0.616 0.465,1.15 0.613,1.628 0.134,0.438 0.242,0.855 0.319,1.24 0.066,0.119 0.115,0.246 0.138,0.382 0.503,1.092 0.826,2.033 0.987,2.868 l 0.081,0.203 0.138,0.465 0.103,0.416 0.092,0.229 0.036,0.088 0.012,0.094 0.042,0.286 c 0.011,0.023 0.019,0.046 0.029,0.062 0.09,0.117 0.152,0.254 0.186,0.413 l 0.059,0.046 0.011,0.19 0.154,0.309 0.083,0.169 v 0.188 0.056 l 0.027,0.027 0.009,0.123 c 0.213,0.357 0.344,0.683 0.396,0.987 0.044,0.142 0.106,0.334 0.173,0.495 0.09,0.232 0.154,0.428 0.2,0.605 l 0.163,0.591 0.274,1.007 0,0 z M 252.939,70.843 h 7.681 l -0.516,-1.549 -0.505,-1.682 c -0.104,-0.27 -0.203,-0.581 -0.284,-0.883 -0.062,-0.238 -0.129,-0.438 -0.192,-0.599 l -0.072,-0.217 c -0.086,-0.361 -0.148,-0.597 -0.213,-0.776 -0.055,-0.15 -0.097,-0.261 -0.126,-0.322 l -0.054,-0.108 -0.023,-0.127 -0.054,-0.332 -0.073,-0.238 -0.2,-0.453 -0.04,-0.085 -0.017,-0.096 -0.11,-0.609 -0.021,-0.148 -0.035,-0.035 -0.178,-0.178 -0.043,-0.246 -0.111,-0.609 -0.037,-0.263 c -0.079,-0.154 -0.134,-0.315 -0.159,-0.478 l -0.01,-0.027 -0.042,-0.117 -0.11,-0.332 c -0.067,-0.2 -0.145,-0.405 -0.229,-0.609 -0.103,-0.248 -0.199,-0.518 -0.28,-0.81 l -0.061,-0.342 -0.037,-0.113 -0.002,-0.008 -0.299,1.025 -0.499,1.666 -0.019,0.067 -0.031,0.06 -0.079,0.157 -0.589,2.033 -0.11,0.384 -0.625,1.716 -0.135,0.401 c -0.075,0.501 -0.187,0.95 -0.33,1.333 -0.055,0.407 -0.178,0.799 -0.372,1.169 l -0.087,0.305 c -0.103,0.497 -0.238,0.868 -0.422,1.138 l -0.25,0.937 0,0 z"
         id="path3197"
         style="fill:#ffffff" />
    </g>
  </g>
</svg>
