<?xml version="1.0" encoding="UTF-8" standalone="no"?>
<!-- Created with Inkscape (http://www.inkscape.org/) -->

<svg
   xmlns:dc="http://purl.org/dc/elements/1.1/"
   xmlns:cc="http://creativecommons.org/ns#"
   xmlns:rdf="http://www.w3.org/1999/02/22-rdf-syntax-ns#"
   xmlns:svg="http://www.w3.org/2000/svg"
   xmlns="http://www.w3.org/2000/svg"
   version="1.2"
   width="492.3125"
   height="225.03125"
   id="svg2">
  <metadata
     id="metadata4176">
    <rdf:RDF>
      <cc:Work
         rdf:about="">
        <dc:format>image/svg+xml</dc:format>
        <dc:type
           rdf:resource="http://purl.org/dc/dcmitype/StillImage" />
        <dc:title></dc:title>
      </cc:Work>
    </rdf:RDF>
  </metadata>
  <defs
     id="defs4174" />
  <g
     id="g4288">
    <path
       d="m 492.199,195.248 c 0,16.391 -13.289,29.688 -29.691,29.688 H 29.8 c -16.404,0 -29.701,-13.297 -29.701,-29.688 V 29.791 C 0.099,13.391 13.396,0.1 29.8,0.1 h 432.707 c 16.402,0 29.691,13.291 29.691,29.691 v 165.457 z"
       id="path4058"
       style="fill:#ffffff" />
    <path
       d="m 492.199,195.248 c 0,16.391 -13.289,29.688 -29.691,29.688 H 29.8 c -16.404,0 -29.701,-13.297 -29.701,-29.688 V 29.791 C 0.099,13.391 13.396,0.1 29.8,0.1 h 432.707 c 16.402,0 29.691,13.291 29.691,29.691 v 165.457 z"
       id="path4060"
       style="fill:none;stroke:#1c1d20;stroke-width:0.198;stroke-miterlimit:3.86400008" />
    <path
       d="m 302.175,128.111 -25.265,-12.637 1.687,8.422 -21.055,0 0,8.426 21.055,0 -1.687,8.418 25.265,-12.629"
       id="polyline4062"
       style="fill:#1c1d20" />
    <path
       d="m 222.044,47.974 -12.636,25.268 8.424,-1.684 0,21.061 8.419,0 0,-21.061 8.424,1.684 -12.631,-25.268"
       id="polyline4064"
       style="fill:#1c1d20" />
    <path
       d="m 141.908,128.111 25.263,12.629 -1.683,-8.418 21.056,0 0,-8.426 -21.056,0 1.683,-8.422 -25.263,12.637"
       id="polyline4066"
       style="fill:#1c1d20" />
    <path
       d="m 217.832,191.404 m 8.419,0 h -8.42 v -27.789 h 8.42 v 27.789 z"
       id="path4068"
       style="fill:#1c1d20" />
    <path
       d="m 201.865,163.185 c 5.924,3.465 12.818,5.457 20.18,5.457 22.092,0 40.006,-17.91 40.006,-40.008 0,-22.092 -17.914,-40 -40.006,-40 -22.096,0 -40.004,17.908 -40.004,40 0,7.254 1.924,14.059 5.295,19.918 l 13.896,-7.938 c -2.031,-3.527 -3.191,-7.617 -3.191,-11.98 0,-13.254 10.744,-24 24.004,-24 13.256,0 24,10.746 24,24 0,13.262 -10.744,24.008 -24,24.008 -4.436,0 -8.588,-1.203 -12.152,-3.301 l -8.028,13.844"
       id="path4070"
       style="fill:#1c1d20" />
    <path
       d="m 485.125,193.593 c 0,13.766 -11.272,24.937 -25.182,24.937 H 31.864 c -13.91,0 -25.185,-11.171 -25.185,-24.937 V 31.445 C 6.679,17.666 17.954,6.51 31.864,6.51 h 428.079 c 13.909,0 25.182,11.155 25.182,24.935 v 162.148 z"
       id="path4072"
       style="fill:none;stroke:#1c1d20;stroke-width:5;stroke-miterlimit:3.86400008" />
    <path
       d="m 170.13,23.062 h 3.609 l 2.922,10.656 h 0.172 l 2.922,-10.656 h 3.781 l -4.469,16.5 h -4.297 c -0.272,0 -1.246,-3.438 -2.922,-10.313 l -1.718,-6.187 z"
       id="path4076"
       style="fill:#1c1d20" />
    <path
       d="m 184.611,23.062 h 3.781 v 16.5 h -3.781 v -16.5 z"
       id="path4078"
       style="fill:#1c1d20" />
    <path
       d="m 190.401,23.062 h 3.609 v 13.063 h 7.047 v 3.438 H 190.401 V 23.062 z"
       id="path4080"
       style="fill:#1c1d20" />
    <path
       d="m 202.636,23.062 h 3.609 v 13.063 h 7.047 v 3.438 H 202.636 V 23.062 z"
       id="path4082"
       style="fill:#1c1d20" />
    <path
       d="m 220.028,23.062 h 4.984 l 5.672,16.5 h -4.297 l -0.688,-2.406 h -6.016 l -0.688,2.406 h -4.125 l 5.158,-16.5 z m 2.406,4.984 -1.547,5.328 h 3.438 v -0.172 c -1.032,-3.437 -1.662,-5.156 -1.891,-5.156 z"
       id="path4084"
       style="fill:#1c1d20" />
    <path
       d="m 232.897,23.062 h 3.609 v 13.063 h 7.047 v 3.438 H 232.897 V 23.062 z"
       id="path4086"
       style="fill:#1c1d20" />
    <path
       d="m 245.476,23.062 h 8.078 c 2.635,0.587 3.953,1.905 3.953,3.953 v 0.859 c 0,0.96 -0.459,1.934 -1.375,2.922 1.489,1.175 2.234,2.435 2.234,3.781 v 0.688 c -0.616,2.865 -1.991,4.297 -4.125,4.297 h -8.766 l -0.344,-0.344 V 23.406 l 0.345,-0.344 z m 3.438,3.438 v 2.922 h 3.438 c 0.723,0 1.182,-0.458 1.375,-1.375 0,-1.031 -0.803,-1.547 -2.406,-1.547 h -2.407 z m 0,6.187 v 3.266 h 3.781 c 1.031,0 1.547,-0.458 1.547,-1.375 v -0.344 c 0,-0.874 -0.573,-1.389 -1.719,-1.547 h -3.609 z"
       id="path4088"
       style="fill:#1c1d20" />
    <path
       d="m 265.5,23.062 h 4.984 l 5.672,16.5 h -4.297 l -0.688,-2.406 h -6.016 l -0.688,2.406 h -4.125 l 5.158,-16.5 z m 2.406,4.984 -1.547,5.328 h 3.438 v -0.172 c -1.032,-3.437 -1.663,-5.156 -1.891,-5.156 z"
       id="path4090"
       style="fill:#1c1d20" />
    <path
       d="m 22.402,153.421 c 2.592,0 4.712,1.318 6.359,3.953 l -3.094,1.547 c -0.888,-1.489 -1.977,-2.234 -3.266,-2.234 h -0.688 c -1.425,0 -2.514,0.745 -3.266,2.234 -0.344,0.537 -0.516,1.568 -0.516,3.094 0,3.553 1.375,5.328 4.125,5.328 1.754,0 3.015,-1.088 3.781,-3.266 v -0.172 h -3.953 v -3.438 h 7.219 v 9.625 h -2.75 l -0.172,-0.688 c -1.604,0.688 -3.037,1.031 -4.297,1.031 -3.001,0 -5.292,-1.547 -6.875,-4.641 -0.458,-1.017 -0.688,-2.105 -0.688,-3.266 v -1.203 c 0,-3.158 1.432,-5.507 4.297,-7.047 1.062,-0.57 2.323,-0.857 3.784,-0.857 z"
       id="path4094"
       style="fill:#1c1d20" />
    <path
       d="m 31.06,153.625 h 3.609 v 9.969 c 0,1.941 1.203,3.029 3.609,3.266 1.676,-0.351 2.649,-1.268 2.922,-2.75 v -10.484 h 3.781 v 8.25 c 0,5.729 -2.406,8.594 -7.219,8.594 -3.495,0 -5.729,-2.005 -6.703,-6.016 v -10.829 z"
       id="path4096"
       style="fill:#1c1d20" />
    <path
       d="m 52.104,153.968 h 4.984 l 5.672,16.5 h -4.297 l -0.688,-2.406 H 51.76 l -0.688,2.406 h -4.125 l 5.157,-16.5 z m 2.406,4.985 -1.547,5.328 h 3.438 v -0.172 c -1.031,-3.438 -1.662,-5.156 -1.891,-5.156 z"
       id="path4098"
       style="fill:#1c1d20" />
    <path
       d="m 64.973,153.968 h 5.328 c 5.844,0 8.766,2.808 8.766,8.422 0,3.631 -1.604,6.152 -4.813,7.563 -1.175,0.344 -2.779,0.516 -4.813,0.516 h -4.469 v -16.501 z m 3.781,3.438 v 9.625 h 2.922 c 2.02,0 3.223,-1.489 3.609,-4.469 v -0.516 c 0,-2.499 -1.089,-4.046 -3.266,-4.641 h -3.265 z"
       id="path4100"
       style="fill:#1c1d20" />
    <path
       d="m 86.425,153.968 h 4.984 l 5.672,16.5 h -4.297 l -0.688,-2.406 H 86.08 l -0.688,2.406 h -4.125 l 5.158,-16.5 z m 2.407,4.985 -1.547,5.328 h 3.438 v -0.172 c -1.032,-3.438 -1.662,-5.156 -1.891,-5.156 z"
       id="path4102"
       style="fill:#1c1d20" />
    <path
       d="m 99.294,153.968 h 6.531 c 2.972,0 4.92,1.031 5.844,3.094 l 0.344,2.234 c 0,1.748 -1.089,3.295 -3.266,4.641 1.26,1.712 2.578,3.889 3.953,6.531 h -3.953 c -1.869,-3.358 -3.187,-5.479 -3.953,-6.359 h -1.547 l -0.344,0.344 v 6.016 h -3.609 v -16.501 z m 3.61,3.61 v 3.266 h 3.609 c 1.031,-0.15 1.547,-0.666 1.547,-1.547 v -0.344 c 0,-1.031 -0.688,-1.604 -2.063,-1.719 h -2.75 l -0.343,0.344 z"
       id="path4104"
       style="fill:#1c1d20" />
    <path
       d="m 115.182,153.968 h 6.531 c 2.972,0 4.92,1.031 5.844,3.094 l 0.344,2.234 c 0,1.748 -1.089,3.295 -3.266,4.641 1.26,1.712 2.578,3.889 3.953,6.531 h -3.953 c -1.869,-3.358 -3.187,-5.479 -3.953,-6.359 h -1.547 l -0.344,0.344 v 6.016 h -3.609 v -16.501 z m 3.61,3.61 v 3.266 h 3.609 c 1.031,-0.15 1.547,-0.666 1.547,-1.547 v -0.344 c 0,-1.031 -0.688,-1.604 -2.063,-1.719 h -2.75 l -0.343,0.344 z"
       id="path4106"
       style="fill:#1c1d20" />
    <path
       d="m 136.226,153.968 h 4.984 l 5.672,16.5 h -4.297 l -0.688,-2.406 h -6.016 l -0.688,2.406 h -4.125 l 5.158,-16.5 z m 2.406,4.985 -1.547,5.328 h 3.438 v -0.172 c -1.031,-3.438 -1.662,-5.156 -1.891,-5.156 z"
       id="path4108"
       style="fill:#1c1d20" />
    <path
       d="m 149.095,153.968 h 3.953 l 4.297,5.844 4.469,-5.844 h 3.781 v 16.5 h -3.438 v -10.656 l -4.813,6.359 c -2.406,-3.552 -3.953,-5.672 -4.641,-6.359 v 10.656 h -3.609 v -16.5 z"
       id="path4110"
       style="fill:#1c1d20" />
    <path
       d="m 173.566,153.968 h 4.984 l 5.672,16.5 h -4.297 l -0.688,-2.406 h -6.016 l -0.688,2.406 h -4.125 l 5.158,-16.5 z m 2.406,4.985 -1.547,5.328 h 3.438 v -0.172 c -1.031,-3.438 -1.662,-5.156 -1.891,-5.156 z"
       id="path4112"
       style="fill:#1c1d20" />
    <path
       d="m 305.437,212.208 m 157.055,0 H 305.441 V 137.97 h 157.051 v 74.238 z"
       id="path4114"
       style="fill:#19408b" />
    <path
       d="m 316.87799,144.33299 50.93,0 0,25.453 -50.93,0 z"
       id="rect4116"
       style="fill:#19408b" />
    <path
       d="m 316.87799,144.33299 50.93,0 0,25.453 -50.93,0 z"
       id="rect4118"
       style="fill:none;stroke:#ffffff;stroke-width:1.60000002;stroke-miterlimit:3.86400008" />
    <path
       d="m 322.49,182.437 h 6.57 l 7.477,21.75 h -5.664 l -0.906,-3.172 h -7.93 l -0.906,3.172 h -5.438 l 6.797,-21.75 z m 3.172,6.57 -2.039,7.023 h 4.531 v -0.227 c -1.36,-4.53 -2.191,-6.796 -2.492,-6.796 z"
       id="path4122"
       style="fill:#ffffff" />
    <path
       d="m 358.16,181.757 h 0.453 c 4.05,0 7.07,2.039 9.063,6.117 l 0.227,0.68 h -0.227 l -4.758,1.586 c -0.926,-2.416 -2.662,-3.625 -5.211,-3.625 -2.842,0 -4.503,2.19 -4.984,6.57 0,3.37 1.586,5.484 4.758,6.344 h 0.906 c 2.086,0 3.597,-1.283 4.531,-3.852 l 4.984,1.813 c -1.766,4.531 -5.013,6.797 -9.742,6.797 -3.097,0 -5.664,-1.057 -7.703,-3.172 -1.964,-2.143 -2.945,-4.938 -2.945,-8.383 0,-5.692 2.869,-9.242 8.609,-10.648 l 2.039,-0.227 z"
       id="path4124"
       style="fill:#ffffff" />
    <path
       d="m 378.989,187.648 c 3.36,0 5.777,1.662 7.25,4.984 l 0.68,3.172 c 0,4.56 -2.19,7.354 -6.57,8.383 h -1.813 c -3.56,0 -5.976,-1.963 -7.25,-5.891 l -0.227,-2.492 c 0,-3.955 2.039,-6.599 6.117,-7.93 l 1.813,-0.226 z m -3.399,7.703 v 1.359 c 0.273,2.266 1.406,3.398 3.398,3.398 2.039,0 3.172,-1.208 3.398,-3.625 v -0.453 c 0,-2.719 -1.133,-4.078 -3.398,-4.078 -2.265,0.19 -3.398,1.323 -3.398,3.399 z"
       id="path4126"
       style="fill:#ffffff" />
    <path
       d="m 397.369,188.101 h 1.359 v 4.758 h -1.133 c -2.568,0 -3.852,1.436 -3.852,4.305 v 7.023 h -4.758 v -15.859 h 4.758 v 1.133 c 1.454,-0.907 2.663,-1.36 3.626,-1.36 z"
       id="path4128"
       style="fill:#ffffff" />
    <path
       d="m 401.603,188.101 h 4.758 v 8.609 c 0,1.689 0.83,2.672 2.492,2.945 h 0.227 c 1.426,0 2.256,-1.057 2.492,-3.172 V 188.1 h 4.758 v 15.859 h -3.852 c -0.227,0 -0.453,-0.302 -0.68,-0.906 -1.274,0.756 -2.559,1.133 -3.852,1.133 -4.229,-0.623 -6.344,-2.511 -6.344,-5.664 v -10.421 z"
       id="path4130"
       style="fill:#ffffff" />
    <path
       d="m 427.685,188.101 c 4.229,0.689 6.344,2.652 6.344,5.891 v 10.195 h -4.758 v -8.383 c -0.189,-1.963 -0.944,-2.945 -2.266,-2.945 h -0.453 c -1.359,0 -2.115,0.906 -2.266,2.719 v 8.609 h -4.758 v -15.633 h 4.531 v 0.453 l 3.626,-0.906 z m -3.172,-5.891 3.852,1.133 c 0.604,-0.227 0.906,-0.453 0.906,-0.68 l 3.172,1.133 c 0,1.662 -1.133,2.644 -3.398,2.945 l -3.852,-1.133 h -0.68 l -0.906,0.68 c -1.964,-0.5 -2.945,-0.878 -2.945,-1.133 0.424,-1.962 1.709,-2.945 3.851,-2.945 z"
       id="path4132"
       style="fill:#ffffff" />
    <path
       d="m 443.757,187.875 c 3.021,0 5.135,1.133 6.344,3.398 l 0.227,2.039 v 6.57 c 0.15,0.453 0.604,0.68 1.359,0.68 -0.661,2.417 -1.189,3.625 -1.586,3.625 -1.501,-0.085 -2.709,-0.538 -3.625,-1.359 -1.482,0.906 -2.917,1.359 -4.305,1.359 -3.776,-0.472 -5.664,-2.133 -5.664,-4.984 v -0.227 c 0,-3.059 2.945,-4.871 8.836,-5.438 v -0.68 c 0,-0.32 -0.68,-0.623 -2.039,-0.906 -1.341,0.104 -2.775,0.708 -4.305,1.813 l -2.039,-3.172 v -0.227 c 1.963,-1.66 4.229,-2.491 6.797,-2.491 z m -2.492,10.648 v 0.68 c 0.387,0.756 1.066,1.133 2.039,1.133 1.51,-0.425 2.266,-0.878 2.266,-1.359 v -1.359 l -0.227,-0.227 v -0.227 c -2.718,0.509 -4.078,0.962 -4.078,1.359 z"
       id="path4134"
       style="fill:#ffffff" />
    <path
       d="m 381.90201,144.33299 67.91,0 0,25.453 -67.91,0 z"
       id="rect4136"
       style="fill:#19408b;stroke:#19408b;stroke-width:1.60000002" />
    <path
       d="m 381.90201,144.33299 67.91,0 0,25.453 -67.91,0 z"
       id="rect4138"
       style="fill:none;stroke:#ffffff;stroke-width:1.60000002;stroke-miterlimit:3.86400008" />
    <path
       d="m 326.654,149.089 h 4.984 l 5.672,16.5 h -4.297 l -0.688,-2.406 h -6.016 l -0.688,2.406 h -4.125 l 5.158,-16.5 z m 2.406,4.985 -1.547,5.328 h 3.438 v -0.172 c -1.032,-3.438 -1.662,-5.156 -1.891,-5.156 z"
       id="path4144"
       style="fill:#ffffff" />
    <path
       d="m 340.762,155.327 h 5.672 v 2.922 h -5.672 v -2.922 z"
       id="path4148"
       style="fill:#ffffff" />
    <g
       id="g4152">
      <path
         d="m 361.918,157.329 c -0.439,-1.174 -1.269,-2.199 -2.393,-2.783 -1.757,-0.879 -4.005,-0.879 -5.616,0.243 -0.195,-1.075 0.732,-2.101 1.661,-2.489 0.438,-0.148 0.88,-0.196 1.365,-0.148 0.783,0.099 1.37,0.685 1.613,1.369 1.173,-0.392 2.297,-0.93 3.418,-1.369 -0.245,-0.586 -0.488,-1.221 -0.927,-1.709 -1.271,-1.417 -3.176,-1.903 -4.98,-1.806 -1.71,0.098 -3.421,0.682 -4.544,2.196 -1.611,2.198 -1.611,4.837 -1.514,7.376 0.148,2.638 1.026,5.469 3.468,6.885 2.296,1.271 5.323,1.122 7.228,-0.781 1.808,-1.808 2.093,-4.666 1.221,-6.984 z m -4.053,4.492 c -0.682,0.536 -1.61,0.588 -2.393,0.293 -0.536,-0.243 -0.928,-0.73 -1.122,-1.268 -0.341,-1.174 -0.051,-2.638 1.122,-3.177 1.366,-0.585 3.077,0.293 3.175,1.857 0.053,0.832 -0.098,1.709 -0.782,2.295 z"
         id="path4154"
         style="fill:#ffffff" />
    </g>
    <path
       d="m 392.373,149.089 h 4.984 l 5.672,16.5 h -4.297 l -0.688,-2.406 h -6.016 l -0.688,2.406 h -4.125 l 5.158,-16.5 z m 2.406,4.985 -1.547,5.328 h 3.438 v -0.172 c -1.032,-3.438 -1.663,-5.156 -1.891,-5.156 z"
       id="path4158"
       style="fill:#ffffff" />
    <path
       d="m 406.056,149.089 h 6.016 c 3.358,0 5.479,1.146 6.359,3.438 l 0.344,2.063 c 0,2.9 -1.662,4.677 -4.984,5.328 h -3.953 v 5.672 h -3.781 v -16.501 z m 3.781,3.266 v 4.125 l 0.344,0.344 h 1.891 c 1.947,0 2.922,-0.688 2.922,-2.063 v -0.172 c 0,-1.038 -0.459,-1.783 -1.375,-2.234 h -3.782 z"
       id="path4160"
       style="fill:#ffffff" />
    <path
       d="m 422.141,155.327 h 5.672 v 2.922 h -5.672 v -2.922 z"
       id="path4164"
       style="fill:#ffffff" />
    <g
       id="g4168">
      <path
         d="m 444.084,157.496 c -0.439,-1.174 -1.269,-2.199 -2.393,-2.783 -1.757,-0.879 -4.005,-0.879 -5.616,0.243 -0.195,-1.075 0.732,-2.101 1.661,-2.489 0.438,-0.148 0.88,-0.196 1.365,-0.148 0.783,0.099 1.37,0.685 1.613,1.369 1.173,-0.392 2.297,-0.93 3.418,-1.369 -0.245,-0.586 -0.488,-1.221 -0.927,-1.709 -1.271,-1.417 -3.176,-1.903 -4.98,-1.806 -1.71,0.098 -3.421,0.682 -4.544,2.196 -1.611,2.198 -1.611,4.837 -1.514,7.376 0.148,2.638 1.026,5.469 3.468,6.885 2.296,1.271 5.323,1.122 7.228,-0.781 1.808,-1.808 2.093,-4.666 1.221,-6.984 z m -4.053,4.492 c -0.682,0.536 -1.61,0.588 -2.393,0.293 -0.536,-0.243 -0.928,-0.73 -1.122,-1.268 -0.341,-1.174 -0.051,-2.638 1.122,-3.177 1.366,-0.585 3.077,0.293 3.175,1.857 0.053,0.832 -0.098,1.709 -0.782,2.295 z"
         id="path4170"
         style="fill:#ffffff" />
    </g>
  </g>
</svg>
