<?xml version="1.0" encoding="UTF-8" standalone="no"?>
<!-- Created with Inkscape (http://www.inkscape.org/) -->

<svg
   xmlns:dc="http://purl.org/dc/elements/1.1/"
   xmlns:cc="http://creativecommons.org/ns#"
   xmlns:rdf="http://www.w3.org/1999/02/22-rdf-syntax-ns#"
   xmlns:svg="http://www.w3.org/2000/svg"
   xmlns="http://www.w3.org/2000/svg"
   version="1.2"
   width="188.9375"
   height="283.03125"
   id="svg2">
  <metadata
     id="metadata3089">
    <rdf:RDF>
      <cc:Work
         rdf:about="">
        <dc:format>image/svg+xml</dc:format>
        <dc:type
           rdf:resource="http://purl.org/dc/dcmitype/StillImage" />
        <dc:title></dc:title>
      </cc:Work>
    </rdf:RDF>
  </metadata>
  <defs
     id="defs3087" />
  <g
     id="g3107">
    <path
       d="m 188.542,272.166 c 0,5.773 -4.68,10.453 -10.453,10.453 H 10.851 C 5.08,282.619 0.4,277.939 0.4,272.166 V 10.853 C 0.4,5.08 5.08,0.4 10.851,0.4 h 167.238 c 5.773,0 10.453,4.68 10.453,10.453 v 261.313 z"
       id="path3059"
       style="fill:#ffffff" />
    <path
       d="m 188.542,272.166 c 0,5.773 -4.68,10.453 -10.453,10.453 H 10.851 C 5.08,282.619 0.4,277.939 0.4,272.166 V 10.853 C 0.4,5.08 5.08,0.4 10.851,0.4 h 167.238 c 5.773,0 10.453,4.68 10.453,10.453 v 261.313 z"
       id="path3061"
       style="fill:none;stroke:#1c1d20;stroke-width:0.80000001;stroke-miterlimit:3.86400008" />
    <path
       d="m 183.945,10.853 c 0,-3.234 -2.621,-5.855 -5.855,-5.855 H 10.851 C 7.621,4.998 5,7.619 5,10.853 v 261.313 c 0,3.234 2.621,5.855 5.852,5.855 H 178.09 c 3.234,0 5.855,-2.621 5.855,-5.855 V 10.853"
       id="path3063"
       style="fill:#19408b" />
    <path
       d="m 31.755,157.193 m 125.432,0 H 31.755 V 31.759 h 125.432 v 125.434 z"
       id="path3065"
       style="fill:#ffffff" />
    <path
       d="m 71.136,81.822 m 46.664,0 H 71.14 v -1.867 h 46.66 v 1.867 z"
       id="path3067"
       style="fill:#1c1d20" />
    <path
       d="m 94.351,54.677 -2.99,-4 -0.934,1.153 2.992,4.003 0.932,-1.156"
       id="polyline3069"
       style="fill:#1c1d20" />
    <path
       d="m 94.773,54.677 2.996,-4 0.93,1.153 -2.987,4.003 -0.939,-1.156"
       id="polyline3071"
       style="fill:#1c1d20" />
    <path
       d="m 100.605,79.58 13.035,0 -19.099,-24.68 -19.165,24.68 13.036,0 6.129,-7.481 6.064,7.481"
       id="polyline3073"
       style="fill:#1c1d20" />
    <path
       d="m 131.152,141.447 c 0,-1.73 1.398,-3.133 3.125,-3.133 1.727,0 3.125,1.402 3.125,3.133 0,1.723 -1.398,3.125 -3.125,3.125 -1.727,0 -3.125,-1.403 -3.125,-3.125"
       id="path3075"
       style="fill:#1c1d20" />
    <path
       d="m 73.968,137.423 c 0,-3.945 3.203,-7.145 7.148,-7.145 3.947,0 7.15,3.199 7.15,7.145 0,3.949 -3.203,7.148 -7.15,7.148 -3.945,0.001 -7.148,-3.198 -7.148,-7.148"
       id="path3077"
       style="fill:#1c1d20" />
    <path
       d="m 138.246,137.662 v -2.359 c 0,0 -19.859,0 -19.703,0 5.203,-1.73 3,-8.352 3,-8.352 0,0 -3.313,-20.332 -3,-20.332 -0.625,-2.996 -3.625,-4.414 -3.469,-4.25 -14.813,-7.098 -30.414,-5.988 -30.727,-5.988 -26.318,0 -31.359,7.559 -31.52,7.719 -2.836,2.203 -2.047,4.254 -2.047,4.254 v 23.793 l 1.891,3.313 3.625,2.047 14.547,0.371 c 0,-5.676 4.602,-10.277 10.273,-10.277 5.676,0 10.275,4.602 10.275,10.277 l 46.855,-0.216"
       id="path3079"
       style="fill:#1c1d20" />
    <path
       d="m 110.664,105.201 c 1.262,0 1.262,1.258 1.262,1.258 v 24.746 H 99.16 v -24.746 c 0,0 0,-1.258 1.258,-1.258 -0.001,-0.153 10.246,-0.153 10.246,0"
       id="path3081"
       style="fill:#ffffff" />
    <path
       d="m 80.087,105.365 c 1.424,0 1.424,1.41 1.424,1.41 v 11.191 H 55.037 v -11.191 c 0,0 0,-1.41 1.416,-1.41 0.16,-0.164 23.482,-0.164 23.634,0"
       id="path3083"
       style="fill:#ffffff" />
  </g>
</svg>
