<?xml version="1.0" encoding="UTF-8" standalone="no"?>
<!-- Created with Inkscape (http://www.inkscape.org/) -->

<svg
   xmlns:dc="http://purl.org/dc/elements/1.1/"
   xmlns:cc="http://creativecommons.org/ns#"
   xmlns:rdf="http://www.w3.org/1999/02/22-rdf-syntax-ns#"
   xmlns:svg="http://www.w3.org/2000/svg"
   xmlns="http://www.w3.org/2000/svg"
   version="1.2"
   width="189.375"
   height="283.65625"
   id="svg2">
  <metadata
     id="metadata4938">
    <rdf:RDF>
      <cc:Work
         rdf:about="">
        <dc:format>image/svg+xml</dc:format>
        <dc:type
           rdf:resource="http://purl.org/dc/dcmitype/StillImage" />
        <dc:title></dc:title>
      </cc:Work>
    </rdf:RDF>
  </metadata>
  <defs
     id="defs4936" />
  <g
     id="g4956">
    <path
       d="m 188.966,272.775 c 0,5.789 -4.688,10.48 -10.469,10.48 H 10.876 c -5.785,0 -10.477,-4.691 -10.477,-10.48 V 10.876 C 0.4,5.091 5.091,0.4 10.876,0.4 h 167.621 c 5.781,0 10.469,4.691 10.469,10.477 v 261.898 z"
       id="path4904"
       style="fill:#ffffff" />
    <path
       d="m 188.966,272.775 c 0,5.789 -4.688,10.48 -10.469,10.48 H 10.876 c -5.785,0 -10.477,-4.691 -10.477,-10.48 V 10.876 C 0.4,5.091 5.091,0.4 10.876,0.4 h 167.621 c 5.781,0 10.469,4.691 10.469,10.477 v 261.898 z"
       id="path4906"
       style="fill:none;stroke:#1c1d20;stroke-width:0.80000001;stroke-miterlimit:3.86400008" />
    <path
       d="m 184.357,10.876 c 0,-3.246 -2.625,-5.863 -5.859,-5.863 H 10.876 c -3.24,0 -5.865,2.617 -5.865,5.863 v 261.898 c 0,3.242 2.625,5.875 5.865,5.875 h 167.621 c 3.234,0 5.859,-2.633 5.859,-5.875 V 10.876"
       id="path4908"
       style="fill:#19408b" />
    <path
       d="m 31.828,157.541 m 125.713,0 H 31.828 V 31.83 h 125.713 v 125.711 z"
       id="path4910"
       style="fill:#ffffff" />
    <path
       d="m 42.304,115.638 m 41.908,0 H 42.308 V 73.736 h 41.904 v 41.902 z"
       id="path4912"
       style="fill:#19408b" />
    <path
       d="m 51.64,78.419 h 14.432 c 5.771,0 10.451,4.676 10.451,10.445 0,5.781 -4.68,10.461 -10.451,10.461 h -7.717 v 11.938 H 51.64 V 78.419"
       id="path4914"
       style="fill:#ffffff" />
    <path
       d="m 58.355,84.888 h 7.469 c 2.199,0 3.98,1.781 3.98,3.977 0,2.199 -1.781,3.988 -3.98,3.988 h -7.469 v -7.965"
       id="path4916"
       style="fill:#19408b" />
    <path
       d="m 92.591,98.876 m 4.188,0 H 92.591 V 84.212 h 4.188 v 14.664 z"
       id="path4918"
       style="fill:#1c1d20" />
    <path
       d="m 87.351,93.638 m 14.67,0 H 87.353 v -4.195 h 14.668 v 4.195 z"
       id="path4920"
       style="fill:#1c1d20" />
    <path
       d="m 105.162,73.736 41.902,0 0,41.902 -41.902,0 z"
       id="rect4922"
       style="fill:none;stroke:#1c1d20;stroke-width:0.80000001;stroke-miterlimit:3.86400008" />
    <path
       d="m 126.13,78.24 c 0,0 -6.742,-0.09 -11,2.66 0,-0.086 -1.066,-0.086 -1.242,1.777 l -1.332,10.199 v 14.293 h 2.664 v 2.566 c 0,0 0.09,1.508 2.039,1.508 0,0 1.953,0 1.953,-1.508 0.09,0 0,-2.566 0,-2.566 h 13.84 c 0,0 -0.086,2.566 0,2.566 0,1.508 1.953,1.508 1.953,1.508 1.949,0 2.043,-1.508 2.043,-1.508 v -2.566 h 2.66 V 92.876 L 138.38,82.677 C 138.2,80.814 137.138,80.814 137.138,80.9 132.876,78.15 126.13,78.24 126.13,78.24"
       id="path4924"
       style="fill:#1c1d20;fill-rule:evenodd" />
    <path
       d="m 115.13,100.951 c 0,-1.176 0.953,-2.125 2.129,-2.125 1.172,0 2.129,0.949 2.129,2.125 0,1.176 -0.957,2.133 -2.129,2.133 -1.176,-0.001 -2.129,-0.958 -2.129,-2.133"
       id="path4926"
       style="fill:#ffffff" />
    <path
       d="m 132.876,100.951 c 0,-1.176 0.957,-2.125 2.129,-2.125 1.18,0 2.133,0.949 2.133,2.125 0,1.176 -0.953,2.133 -2.133,2.133 -1.172,-0.001 -2.129,-0.958 -2.129,-2.133"
       id="path4928"
       style="fill:#ffffff" />
    <path
       d="m 126.13,80.544 h -6.031 c 0,0 -0.887,0.086 -0.887,0.887 0.09,0 -0.09,0.887 0.887,0.887 h 12.063 c 0.984,0 0.805,-0.887 0.891,-0.887 0,-0.801 -0.891,-0.887 -0.891,-0.887 h -6.032"
       id="path4930"
       style="fill:#ffffff;fill-rule:evenodd" />
    <path
       d="m 126.13,83.564 h -9.051 c 0,0 -1.418,-0.445 -1.598,1.242 l -0.887,8.52 c 0,0 -0.793,1.332 1.332,1.508 0,-0.09 10.203,0 10.203,0 0,0 10.211,-0.09 10.211,0 2.125,-0.176 1.328,-1.508 1.328,-1.508 l -0.891,-8.52 c -0.18,-1.688 -1.594,-1.242 -1.594,-1.242 h -9.053"
       id="path4932"
       style="fill:#ffffff;fill-rule:evenodd" />
  </g>
</svg>
