<?xml version="1.0" encoding="UTF-8" standalone="no"?>
<!-- Created with Inkscape (http://www.inkscape.org/) -->

<svg
   xmlns:dc="http://purl.org/dc/elements/1.1/"
   xmlns:cc="http://creativecommons.org/ns#"
   xmlns:rdf="http://www.w3.org/1999/02/22-rdf-syntax-ns#"
   xmlns:svg="http://www.w3.org/2000/svg"
   xmlns="http://www.w3.org/2000/svg"
   version="1.2"
   width="215.125"
   height="143.6875"
   id="svg2">
  <metadata
     id="metadata3097">
    <rdf:RDF>
      <cc:Work
         rdf:about="">
        <dc:format>image/svg+xml</dc:format>
        <dc:type
           rdf:resource="http://purl.org/dc/dcmitype/StillImage" />
        <dc:title></dc:title>
      </cc:Work>
    </rdf:RDF>
  </metadata>
  <defs
     id="defs3095" />
  <g
     id="g3117">
    <path
       d="M 0.4,8.343 C 0.4,3.955 3.951,0.4 8.339,0.4 h 198.459 c 4.387,0 7.934,3.561 7.934,7.943 v 127.008 c 0,4.387 -3.551,7.941 -7.934,7.941 H 8.339 C 3.95,143.292 0.4,139.733 0.4,135.351 V 8.343 z"
       id="path3063"
       style="fill:#ffffff" />
    <path
       d="M 0.4,8.343 C 0.4,3.955 3.951,0.4 8.339,0.4 h 198.459 c 4.387,0 7.934,3.561 7.934,7.943 v 127.008 c 0,4.387 -3.551,7.941 -7.934,7.941 H 8.339 C 3.95,143.292 0.4,139.733 0.4,135.351 V 8.343 z"
       id="path3065"
       style="fill:none;stroke:#1c1d20;stroke-width:0.80000001;stroke-miterlimit:3.86400008" />
    <path
       d="m 3.896,135.351 c 0,2.453 1.988,4.445 4.443,4.445 h 198.459 c 2.453,0 4.441,-1.992 4.441,-4.445 V 8.343 c 0,-2.451 -1.988,-4.447 -4.441,-4.447 H 8.339 c -2.455,0 -4.443,1.996 -4.443,4.447 v 127.008"
       id="path3067"
       style="fill:#19408b" />
    <path
       d="m 107.564,16.275 -22.225,31.756 15.877,0 0,79.383 12.7,0 0,-79.383 15.875,0 -22.227,-31.756"
       id="polyline3069"
       style="fill:#ffffff" />
    <path
       d="m 165.517,16.275 -22.226,31.756 15.875,0 0,79.383 12.703,0 0,-79.383 15.871,0 -22.223,-31.756"
       id="polyline3071"
       style="fill:#ffffff" />
    <path
       d="m 49.615,16.275 -22.223,31.756 15.875,0 0,79.383 12.701,0 0,-79.383 15.875,0 -22.228,-31.756"
       id="polyline3073"
       style="fill:#ffffff" />
    <path
       d="m 165.009,68.32 c 8.789,0 15.918,7.129 15.918,15.918 0,8.793 -7.129,15.922 -15.918,15.922 -8.793,0 -15.922,-7.129 -15.922,-15.922 0,-8.789 7.129,-15.918 15.922,-15.918 z"
       id="path3075"
       style="fill:#19408b" />
    <path
       d="m 165.009,68.32 c 8.789,0 15.918,7.129 15.918,15.918 0,8.793 -7.129,15.922 -15.918,15.922 -8.793,0 -15.922,-7.129 -15.922,-15.922 0,-8.789 7.129,-15.918 15.922,-15.918 z"
       id="path3077"
       style="fill:none;stroke:#ffffff;stroke-miterlimit:3.86400008" />
    <path
       d="m 168.478,86.636 c 0,-2.188 1.773,-3.957 3.961,-3.957 2.188,0 3.965,1.77 3.965,3.957 0,2.191 -1.777,3.965 -3.965,3.965 -2.188,0 -3.961,-1.773 -3.961,-3.965"
       id="path3079"
       style="fill:#ffffff" />
    <path
       d="m 153.705,86.609 c 0,-2.191 1.77,-3.961 3.957,-3.961 2.191,0 3.961,1.77 3.961,3.961 0,2.184 -1.77,3.957 -3.961,3.957 -2.188,0 -3.957,-1.774 -3.957,-3.957"
       id="path3081"
       style="fill:#ffffff" />
    <path
       d="m 154.494,86.609 c 0,-1.754 1.422,-3.172 3.172,-3.172 1.754,0 3.172,1.418 3.172,3.172 0,1.75 -1.418,3.168 -3.172,3.168 -1.75,0 -3.172,-1.414 -3.172,-3.168"
       id="path3083"
       style="fill:#19408b" />
    <path
       d="m 157.041,86.48 c 0,-0.387 0.313,-0.699 0.699,-0.699 0.386,0 0.699,0.313 0.699,0.699 0,0.391 -0.313,0.699 -0.699,0.699 -0.386,0 -0.699,-0.308 -0.699,-0.699"
       id="path3085"
       style="fill:#ffffff" />
    <path
       d="m 169.271,86.636 c 0,-1.746 1.418,-3.168 3.168,-3.168 1.754,0 3.172,1.422 3.172,3.168 0,1.75 -1.414,3.168 -3.172,3.168 -1.75,0 -3.168,-1.414 -3.168,-3.168"
       id="path3087"
       style="fill:#19408b" />
    <path
       d="m 165.701,87.554 c -1.078,0 -1.055,-1.02 -1.02,-1.055 0,-1.211 1.039,-1.176 1.039,-1.176 l 6.77,0.363 c 0.391,0 0.723,0.438 0.723,0.828 0,0.383 -0.293,0.793 -0.68,0.793 0,0.001 -6.852,0.247 -6.832,0.247"
       id="path3089"
       style="fill:#ffffff" />
    <path
       d="m 167.181,85.812 2.238,-3.41 1.926,3.359 1.227,0.02 -2.531,-4.602 0.547,-0.945 h 0.703 c 0,0 0.262,0.082 0.262,-0.277 -0.016,0 0,-0.813 0,-0.813 0,0 0.129,-0.574 -0.68,-0.246 -0.02,0 -2,0.832 -2,0.832 0,0 -0.555,0.395 0.074,0.469 0.023,0 0.457,0.02 0.457,0.02 l -0.305,0.691 h -7.359 c 0,0 0.414,-0.316 0.133,-0.785 0,0.02 -0.301,-0.512 -0.301,-0.512 0,0 -0.281,-0.359 0.148,-0.359 h 2.359 v -1.09 h -2.398 c 0,0 -1.699,0.145 -0.828,1.918 0,0.043 0.207,0.152 -0.074,0.605 -0.039,0.016 -3.289,5.395 -3.289,5.395 l 0.797,0.438 2.453,-3.977 4.133,3.598 0.762,-0.699 -4.055,-3.43 h 6.852 l -2.34,3.496 1.089,0.304"
       id="path3091"
       style="fill:#ffffff" />
  </g>
</svg>
