<?xml version="1.0" encoding="UTF-8" standalone="no"?>
<!-- Created with Inkscape (http://www.inkscape.org/) -->

<svg
   xmlns:dc="http://purl.org/dc/elements/1.1/"
   xmlns:cc="http://creativecommons.org/ns#"
   xmlns:rdf="http://www.w3.org/1999/02/22-rdf-syntax-ns#"
   xmlns:svg="http://www.w3.org/2000/svg"
   xmlns="http://www.w3.org/2000/svg"
   version="1.2"
   width="151.34375"
   height="226.625"
   id="svg2">
  <metadata
     id="metadata3103">
    <rdf:RDF>
      <cc:Work
         rdf:about="">
        <dc:format>image/svg+xml</dc:format>
        <dc:type
           rdf:resource="http://purl.org/dc/dcmitype/StillImage" />
        <dc:title></dc:title>
      </cc:Work>
    </rdf:RDF>
  </metadata>
  <defs
     id="defs3101" />
  <g
     id="g3135">
    <path
       d="m 150.951,217.88 c 0,4.609 -3.738,8.359 -8.359,8.359 H 8.763 c -4.619,0 -8.363,-3.75 -8.363,-8.359 V 8.767 C 0.4,4.154 4.144,0.4 8.763,0.4 h 133.828 c 4.621,0 8.359,3.754 8.359,8.367 V 217.88 z"
       id="path3085"
       style="fill:#ffffff" />
    <path
       d="m 150.951,217.88 c 0,4.609 -3.738,8.359 -8.359,8.359 H 8.763 c -4.619,0 -8.363,-3.75 -8.363,-8.359 V 8.767 C 0.4,4.154 4.144,0.4 8.763,0.4 h 133.828 c 4.621,0 8.359,3.754 8.359,8.367 V 217.88 z"
       id="path3087"
       style="fill:none;stroke:#1c1c20;stroke-width:0.80000001;stroke-miterlimit:3.86400008" />
    <path
       d="m 147.275,8.767 c 0,-2.586 -2.098,-4.688 -4.684,-4.688 H 8.763 c -2.588,0 -4.684,2.102 -4.684,4.688 v 209.109 c 0,2.586 2.096,4.68 4.684,4.68 h 133.828 c 2.586,0 4.684,-2.094 4.684,-4.68 V 8.767"
       id="path3089"
       style="fill:#003f8a" />
    <path
       d="m 86.548,30.021 -6.687,0 4.18,156.906 26.765,0 L 86.548,30.021"
       id="polyline3091"
       style="fill:#ffffff" />
    <path
       d="m 64.804,30.021 6.688,0 -4.18,156.906 -26.764,0 24.256,-156.906"
       id="polyline3093"
       style="fill:#ffffff" />
    <path
       d="m 130.041,91.912 -108.733,0 0,-11.711 108.736,0 0,11.711 z"
       id="polygon3095"
       style="fill:#003f8a" />
    <path
       d="m 27.164,83.544 0,5.024 15.056,0 0,9.195 6.692,0 0,-9.195 53.531,0 0,9.195 6.691,0 0,-9.195 15.055,0 0,-5.024 -97.025,0"
       id="polyline3097"
       style="fill:#ffffff" />
  </g>
</svg>
