<?xml version="1.0" encoding="UTF-8" standalone="no"?>
<!-- Created with Inkscape (http://www.inkscape.org/) -->

<svg
   xmlns:dc="http://purl.org/dc/elements/1.1/"
   xmlns:cc="http://creativecommons.org/ns#"
   xmlns:rdf="http://www.w3.org/1999/02/22-rdf-syntax-ns#"
   xmlns:svg="http://www.w3.org/2000/svg"
   xmlns="http://www.w3.org/2000/svg"
   version="1.2"
   width="188.9375"
   height="283.03125"
   id="svg2">
  <metadata
     id="metadata3069">
    <rdf:RDF>
      <cc:Work
         rdf:about="">
        <dc:format>image/svg+xml</dc:format>
        <dc:type
           rdf:resource="http://purl.org/dc/dcmitype/StillImage" />
        <dc:title></dc:title>
      </cc:Work>
    </rdf:RDF>
  </metadata>
  <defs
     id="defs3067" />
  <g
     id="g3119">
    <path
       d="m 188.546,272.167 c 0,5.773 -4.68,10.453 -10.457,10.453 H 10.849 C 5.076,282.62 0.4,277.94 0.4,272.167 V 10.855 C 0.4,5.08 5.076,0.4 10.849,0.4 h 167.24 c 5.777,0 10.457,4.68 10.457,10.455 v 261.312 z"
       id="path3049"
       style="fill:#ffffff" />
    <path
       d="m 188.546,272.167 c 0,5.773 -4.68,10.453 -10.457,10.453 H 10.849 C 5.076,282.62 0.4,277.94 0.4,272.167 V 10.855 C 0.4,5.08 5.076,0.4 10.849,0.4 h 167.24 c 5.777,0 10.457,4.68 10.457,10.455 v 261.312 z"
       id="path3051"
       style="fill:none;stroke:#1c1d20;stroke-width:0.80000001;stroke-miterlimit:3.86400008" />
    <path
       d="m 183.945,10.855 c 0,-3.236 -2.621,-5.859 -5.855,-5.859 H 10.849 c -3.232,0 -5.857,2.623 -5.857,5.859 v 261.313 c 0,3.234 2.625,5.855 5.857,5.855 h 167.24 c 3.234,0 5.855,-2.621 5.855,-5.855 V 10.855"
       id="path3053"
       style="fill:#19408b" />
    <path
       d="m 31.757,157.183 m 125.43,0 H 31.757 V 31.751 h 125.43 v 125.432 z"
       id="path3055"
       style="fill:#ffffff" />
    <path
       d="m 36.845,139.449 m 115.045,0 H 36.845 v -4.613 H 151.89 v 4.613 z"
       id="path3057"
       style="fill:#1c1d20" />
    <path
       d="m 94.093,72.519 -7.377,-9.859 -2.302,2.851 7.375,9.867 2.304,-2.859"
       id="polyline3059"
       style="fill:#1c1d20" />
    <path
       d="m 95.125,72.519 7.375,-9.859 2.304,2.851 -7.375,9.867 -2.304,-2.859"
       id="polyline3061"
       style="fill:#1c1d20" />
    <path
       d="m 109.507,133.919 32.137,0 -47.09,-60.843 -47.254,60.843 32.133,0 15.121,-18.439 14.953,18.439"
       id="polyline3063"
       style="fill:#1c1d20" />
  </g>
</svg>
