<?xml version="1.0" encoding="UTF-8" standalone="no"?>
<!-- Created with Inkscape (http://www.inkscape.org/) -->

<svg
   xmlns:dc="http://purl.org/dc/elements/1.1/"
   xmlns:cc="http://creativecommons.org/ns#"
   xmlns:rdf="http://www.w3.org/1999/02/22-rdf-syntax-ns#"
   xmlns:svg="http://www.w3.org/2000/svg"
   xmlns="http://www.w3.org/2000/svg"
   version="1.2"
   width="385.34375"
   height="226.03125"
   id="svg2">
  <metadata
     id="metadata3125">
    <rdf:RDF>
      <cc:Work
         rdf:about="">
        <dc:format>image/svg+xml</dc:format>
        <dc:type
           rdf:resource="http://purl.org/dc/dcmitype/StillImage" />
        <dc:title></dc:title>
      </cc:Work>
    </rdf:RDF>
  </metadata>
  <defs
     id="defs3123" />
  <g
     id="g3182">
    <path
       d="m 384.951,198.166 c 0,15.172 -12.297,27.469 -27.469,27.469 H 27.869 C 12.697,225.635 0.4,213.338 0.4,198.166 V 99.283 C 0.4,84.107 12.697,71.812 27.869,71.812 h 329.613 c 15.172,0 27.469,12.295 27.469,27.471 v 98.883 z"
       id="path3077"
       style="fill:#ffffff" />
    <path
       d="m 384.951,198.166 c 0,15.172 -12.297,27.469 -27.469,27.469 H 27.869 C 12.697,225.635 0.4,213.338 0.4,198.166 V 99.283 C 0.4,84.107 12.697,71.812 27.869,71.812 h 329.613 c 15.172,0 27.469,12.295 27.469,27.471 v 98.883 z"
       id="path3079"
       style="fill:none;stroke:#1c1d20;stroke-width:0.80000001;stroke-miterlimit:3.86400008" />
    <path
       d="m 297.052,44.347 c 0,15.168 -12.297,27.465 -27.469,27.465 h -153.82 c -15.164,0 -27.465,-12.297 -27.465,-27.465 V 27.859 C 88.298,12.695 100.599,0.4 115.763,0.4 h 153.82 c 15.172,0 27.469,12.295 27.469,27.467 v 16.48 z"
       id="path3081"
       style="fill:#ffffff" />
    <path
       d="m 297.052,44.347 c 0,15.168 -12.297,27.465 -27.469,27.465 h -153.82 c -15.164,0 -27.465,-12.297 -27.465,-27.465 V 27.859 C 88.298,12.695 100.599,0.4 115.763,0.4 h 153.82 c 15.172,0 27.469,12.295 27.469,27.467 v 16.48 z"
       id="path3083"
       style="fill:none;stroke:#1c1d20;stroke-width:0.80000001;stroke-miterlimit:3.86400008" />
    <path
       d="m 334.208,180.798 -9.308,-45.429 -11.492,18.066 -28.457,-32.848 -10.95,10.946 32.84,28.468 -18.062,11.493 45.429,9.304"
       id="polyline3085"
       style="fill:#1c1d20" />
    <path
       d="m 50.833,131.22 h 13.672 c 7.633,0 12.451,2.604 14.453,7.813 l 0.781,4.688 c 0,6.592 -3.776,10.629 -11.328,12.109 h -8.984 v 12.891 H 50.833 V 131.22 z m 8.594,7.422 v 9.375 l 0.781,0.781 h 4.297 c 4.427,0 6.641,-1.563 6.641,-4.688 v -0.391 c 0,-2.359 -1.042,-4.053 -3.125,-5.078 h -8.594 z"
       id="path3089"
       style="fill:#1c1d20" />
    <path
       d="m 84.183,131.22 h 8.594 v 37.5 h -8.594 v -37.5 z"
       id="path3091"
       style="fill:#1c1d20" />
    <path
       d="m 97.342,131.22 h 8.984 c 4.28,5.827 9.619,13.9 16.016,24.219 h 0.391 V 131.22 h 8.203 v 37.5 h -9.375 c -9.473,-14.941 -14.812,-22.884 -16.016,-23.828 v 23.828 h -8.203 v -37.5 z"
       id="path3093"
       style="fill:#1c1d20" />
    <path
       d="m 135.746,131.22 h 30.078 v 7.813 h -10.938 v 29.688 h -8.203 v -29.688 h -10.938 v -7.813 z"
       id="path3095"
       style="fill:#1c1d20" />
    <path
       d="m 186.991,130.048 h 0.391 c 8.382,0 14.111,4.167 17.188,12.5 l 0.781,5.469 v 3.125 c 0,7.91 -4.167,13.51 -12.5,16.797 l -5.469,0.781 c -7.976,0 -13.574,-3.646 -16.797,-10.938 -1.042,-2.62 -1.563,-5.354 -1.563,-8.203 0,-10.254 4.688,-16.634 14.063,-19.141 l 3.906,-0.39 z m -8.985,19.141 c 0,5.876 2.344,9.521 7.031,10.938 l 3.125,0.391 c 3.711,0 6.445,-2.864 8.203,-8.594 v -3.125 c -0.732,-7.031 -3.728,-10.547 -8.984,-10.547 -5.599,-0.001 -8.724,3.646 -9.375,10.937 z"
       id="path3097"
       style="fill:#1c1d20" />
    <path
       d="m 289.583,44.182 c 0,11.89 -9.644,21.533 -21.537,21.533 H 117.301 c -11.89,0 -21.529,-9.643 -21.529,-21.533 V 28.024 c 0,-11.885 9.643,-21.531 21.529,-21.531 h 150.744 c 11.894,0 21.537,9.646 21.537,21.531 v 16.158 z"
       id="path3099"
       style="fill:none;stroke:#1c1d20;stroke-width:5;stroke-miterlimit:3.86400008" />
    <path
       d="m 376.522,196.682 c 0,11.776 -9.699,21.317 -21.671,21.317 H 29.833 c -11.968,0 -21.67,-9.541 -21.67,-21.317 v -95.916 c 0,-11.774 9.703,-21.312 21.67,-21.312 h 325.019 c 11.972,0 21.671,9.537 21.671,21.312 v 95.916 z"
       id="path3101"
       style="fill:none;stroke:#1c1d20;stroke-width:5;stroke-miterlimit:3.86400008" />
    <path
       d="m 149.437,41.615 c -1.088,4.761 -4.949,8.101 -9.599,8.399 -5.25,0.3 -10.5,-2.85 -11.551,-8.1 2.1,-0.449 3.899,-1.351 6,-1.65 0.899,2.4 3.45,4.5 6.149,3.3 2.401,-1.199 3,-3.899 2.101,-6.3 -0.601,-1.649 -2.4,-3 -4.199,-2.7 -1.351,0.301 -2.551,0.901 -3.151,2.101 -2.25,-0.15 -4.649,-0.601 -6.899,-0.9 0.45,-4.95 1.35,-10.05 1.801,-15 6,0 12,0 18,0 0,1.95 0,3.9 0,5.85 -4.051,0.15 -8.25,-0.301 -12.301,0.15 0.149,0.9 -0.449,1.95 -0.15,2.85 2.4,-0.9 4.8,-0.9 7.201,-0.301 5.249,1.5 7.798,7.051 6.598,12.301 z"
       id="path3105"
       style="fill:#1c1d20" />
    <path
       d="m 242.287,39.064 c 0.246,3.456 0.15,6.901 0.15,10.351 -2.098,0 -4.199,0 -6.299,0 0,-6.9 0,-13.65 0,-20.55 1.951,0.15 3.898,-0.45 5.701,0.3 0.148,0 0.148,0.899 0.447,0.6 3.15,-2.1 7.5,-1.951 9.9,1.049 2.701,-2.699 6.902,-3.449 10.35,-1.35 2.102,1.35 3.303,3.45 3.303,5.85 0.299,4.651 0.148,9.45 0.148,14.101 -2.1,0 -4.201,0 -6.301,0 -0.15,-4.5 0.451,-9 -0.299,-13.5 -0.15,-0.9 -1.049,-1.351 -1.951,-1.65 -1.348,-0.3 -2.848,0.45 -3,1.65 -0.75,4.649 -0.15,9 -0.299,13.5 -2.102,0 -4.201,0 -6.299,0 -0.152,-4.5 0.447,-9 -0.303,-13.5 -0.148,-0.9 -1.049,-1.351 -1.947,-1.65 -2.85,-0.451 -3.45,2.7 -3.301,4.799 z"
       id="path3107"
       style="fill:#1c1d20" />
    <g
       id="g3109">
      <g
         id="g3111">
        <path
           d="m 211.839,31.714 c -0.602,-4.65 -3.152,-9.15 -7.652,-10.8 -5.4,-1.95 -11.848,-0.3 -14.55,4.95 -3.899,7.8 -3.149,19.8 5.702,23.25 4.947,2.101 11.338,0.563 14.25,-4.351 2.399,-4.048 2.698,-8.548 2.25,-13.049 z m -6.75,6.3 c -0.086,1.655 -0.602,3.3 -1.951,4.351 -2.4,1.8 -6.15,1.5 -7.799,-1.2 -0.602,-0.9 -0.75,-1.949 -0.75,-3 -0.303,-2.851 -0.602,-5.851 0.447,-8.55 0.75,-1.95 2.852,-2.85 4.803,-2.85 1.799,-0.15 3.598,0.75 4.5,2.4 1.348,2.7 0.899,5.849 0.75,8.849 z"
           id="path3113"
           style="fill:#1c1d20" />
      </g>
    </g>
    <g
       id="g3115">
      <g
         id="g3117">
        <path
           d="m 172.988,20.915 c -5.399,-1.95 -11.851,-0.3 -14.551,4.95 -3.899,7.8 -3.149,19.8 5.7,23.25 4.05,1.649 8.851,1.05 12.15,-1.801 3.301,-3 4.285,-7.352 4.5,-11.55 0.301,-5.849 -1.799,-12.599 -7.799,-14.849 z m -1.051,21.45 c -2.399,1.949 -6.149,1.5 -7.8,-1.2 -0.6,-0.9 -0.75,-1.949 -0.75,-3 -0.299,-2.851 -0.6,-5.851 0.451,-8.55 1.049,-2.551 4.049,-3.45 6.449,-2.7 2.399,0.75 3.75,3.3 3.6,5.85 -0.193,3.298 0.901,7.2 -1.95,9.6 z"
           id="path3119"
           style="fill:#1c1d20" />
      </g>
    </g>
  </g>
</svg>
