<?xml version="1.0" encoding="UTF-8" standalone="no"?>
<svg
   xmlns:dc="http://purl.org/dc/elements/1.1/"
   xmlns:cc="http://creativecommons.org/ns#"
   xmlns:rdf="http://www.w3.org/1999/02/22-rdf-syntax-ns#"
   xmlns:svg="http://www.w3.org/2000/svg"
   xmlns="http://www.w3.org/2000/svg"
   xmlns:sodipodi="http://sodipodi.sourceforge.net/DTD/sodipodi-0.dtd"
   xmlns:inkscape="http://www.inkscape.org/namespaces/inkscape"
   version="1.2"
   width="188.9375"
   height="283.03125"
   id="svg2"
   sodipodi:docname="ES_S950.svg"
   inkscape:version="1.0.1 (3bc2e813f5, 2020-09-07)">
  <sodipodi:namedview
     pagecolor="#ffffff"
     bordercolor="#666666"
     borderopacity="1"
     objecttolerance="10"
     gridtolerance="10"
     guidetolerance="10"
     inkscape:pageopacity="0"
     inkscape:pageshadow="2"
     inkscape:window-width="1920"
     inkscape:window-height="1027"
     id="namedview5942"
     showgrid="false"
     inkscape:zoom="2.5968864"
     inkscape:cx="94.46875"
     inkscape:cy="117.12114"
     inkscape:window-x="-8"
     inkscape:window-y="-8"
     inkscape:window-maximized="1"
     inkscape:current-layer="svg2" />
  <metadata
     id="metadata3195">
    <rdf:RDF>
      <cc:Work
         rdf:about="">
        <dc:format>image/svg+xml</dc:format>
        <dc:type
           rdf:resource="http://purl.org/dc/dcmitype/StillImage" />
        <dc:title></dc:title>
      </cc:Work>
    </rdf:RDF>
  </metadata>
  <defs
     id="defs3193" />
  <path
     d="m 188.546,272.166 c 0,5.773 -4.68,10.453 -10.457,10.453 H 10.849 C 5.076,282.619 0.4,277.939 0.4,272.166 V 10.857 C 0.4,5.08 5.076,0.4 10.849,0.4 h 167.24 c 5.777,0 10.457,4.68 10.457,10.457 v 261.309 z"
     id="path3183"
     style="fill:#ffffff" />
  <path
     d="m 188.546,272.166 c 0,5.773 -4.68,10.453 -10.457,10.453 H 10.849 C 5.076,282.619 0.4,277.939 0.4,272.166 V 10.857 C 0.4,5.08 5.076,0.4 10.849,0.4 h 167.24 c 5.777,0 10.457,4.68 10.457,10.457 v 261.309 z"
     id="path3185"
     style="fill:none;stroke:#1c1d20;stroke-width:0.80000001;stroke-miterlimit:3.86400008" />
  <path
     d="m 183.945,10.857 c 0,-3.242 -2.621,-5.859 -5.855,-5.859 H 10.849 c -3.232,0 -5.857,2.617 -5.857,5.859 v 261.309 c 0,3.234 2.625,5.859 5.857,5.859 h 167.24 c 3.234,0 5.855,-2.625 5.855,-5.859 V 10.857"
     id="path3187"
     style="fill:#19408b" />
  <path
     d="m 31.757,157.193 m 125.43,0 H 31.757 V 31.759 h 125.43 v 125.434 z"
     id="path3189"
     style="fill:#ffffff" />
  <text
     xml:space="preserve"
     style="font-style:normal;font-variant:normal;font-weight:900;font-stretch:normal;font-size:59.325px;line-height:34.7607px;font-family:Arial;-inkscape-font-specification:'Arial Heavy';letter-spacing:0px;word-spacing:0px;fill:#ffffff;stroke:none;stroke-width:1px;stroke-linecap:butt;stroke-linejoin:miter;stroke-opacity:1"
     x="41.059555"
     y="237.2429"
     id="text6507"><tspan
       sodipodi:role="line"
       id="tspan6505"
       x="41.059555"
       y="237.2429"
       style="font-style:normal;font-variant:normal;font-weight:bold;font-stretch:normal;font-family:Arial;-inkscape-font-specification:'Arial Bold';stroke-width:1px">94,6</tspan></text>
  <text
     xml:space="preserve"
     style="font-style:normal;font-variant:normal;font-weight:bold;font-stretch:normal;font-size:42.6667px;line-height:0;font-family:Arial;-inkscape-font-specification:'Arial Bold';letter-spacing:0px;word-spacing:0px;fill:#000000;stroke:none;stroke-width:1px;stroke-linecap:butt;stroke-linejoin:miter;stroke-opacity:1"
     x="36.967346"
     y="77.400383"
     id="text6511"><tspan
       sodipodi:role="line"
       id="tspan6509"
       x="36.967346"
       y="77.400383"
       style="line-height:24.5px">Radio</tspan><tspan
       sodipodi:role="line"
       x="36.967346"
       y="101.75038"
       id="tspan6513"
       style="line-height:24.2px">  </tspan><tspan
       sodipodi:role="line"
       x="36.967346"
       y="125.95039"
       style="line-height:24.2px"
       id="tspan6519"> DRS</tspan></text>
</svg>
