<?xml version="1.0" encoding="UTF-8" standalone="no"?>
<svg
   xmlns:dc="http://purl.org/dc/elements/1.1/"
   xmlns:cc="http://creativecommons.org/ns#"
   xmlns:rdf="http://www.w3.org/1999/02/22-rdf-syntax-ns#"
   xmlns:svg="http://www.w3.org/2000/svg"
   xmlns="http://www.w3.org/2000/svg"
   xmlns:sodipodi="http://sodipodi.sourceforge.net/DTD/sodipodi-0.dtd"
   xmlns:inkscape="http://www.inkscape.org/namespaces/inkscape"
   version="1.2"
   width="86.425552"
   height="46.585293"
   id="svg2"
   sodipodi:docname="ES_S970.svg"
   inkscape:version="1.0.1 (3bc2e813f5, 2020-09-07)">
  <sodipodi:namedview
     pagecolor="#ffffff"
     bordercolor="#666666"
     borderopacity="1"
     objecttolerance="10"
     gridtolerance="10"
     guidetolerance="10"
     inkscape:pageopacity="0"
     inkscape:pageshadow="2"
     inkscape:window-width="1920"
     inkscape:window-height="1027"
     id="namedview853"
     showgrid="true"
     inkscape:zoom="8"
     inkscape:cx="61.380036"
     inkscape:cy="20.591889"
     inkscape:window-x="-8"
     inkscape:window-y="-8"
     inkscape:window-maximized="1"
     inkscape:current-layer="layer2"
     fit-margin-top="0"
     fit-margin-left="0"
     fit-margin-right="0"
     fit-margin-bottom="0"
     inkscape:showpageshadow="false"
     inkscape:pagecheckerboard="true">
    <inkscape:grid
       type="xygrid"
       id="grid889"
       originx="-0.75036081"
       originy="-0.68170849" />
  </sodipodi:namedview>
  <metadata
     id="metadata3103">
    <rdf:RDF>
      <cc:Work
         rdf:about="">
        <dc:format>image/svg+xml</dc:format>
        <dc:type
           rdf:resource="http://purl.org/dc/dcmitype/StillImage" />
        <dc:title></dc:title>
      </cc:Work>
    </rdf:RDF>
  </metadata>
  <defs
     id="defs3101" />
  <g
     id="Capa_1"
     style="fill:#ffffff;stroke:#000000;stroke-width:1.002;stroke-miterlimit:4;stroke-dasharray:none"
     transform="translate(-0.75036081,-0.68170851)">
    <path
       d="m 86.498,44.749 c 0,1.114 -0.902,2.017 -2.015,2.017 H 2.1891457 c -1.113,0 -0.9134366,-0.548449 -0.9111457,-1.663447 L 1.358684,5.8334261 1.366384,2.0837573 C 1.368664,0.97175965 1.8716371,1.2176117 2.9846365,1.2188058 l 82.3822425,0.088388 c 1.112,0.00119 1.312516,-0.2028448 1.307894,0.9091456 L 86.498,44.749"
       id="path3093"
       style="fill:#ffffff;fill-opacity:1;stroke:#000000;stroke-width:1.002;stroke-miterlimit:4;stroke-dasharray:none"
       sodipodi:nodetypes="cssscssssc" />
  </g>
  <g
     inkscape:groupmode="layer"
     id="layer2"
     inkscape:label="Layer 2"
     transform="translate(-0.75036081,-0.68170849)" />
  <g
     inkscape:groupmode="layer"
     id="layer3"
     inkscape:label="Layer 3"
     transform="translate(-0.75036081,-0.68170851)">
    <g
       id="g2132"
       transform="matrix(1.0856622,0,0,1.0856622,-12.004783,-2.5776808)"
       style="stroke-width:0.921097">
      <path
         d="m 24.049,40.706 5.229,0.013 0.213963,-0.133067 -0.01246,-22.195058 c 0,0 -0.907264,-2.577088 -1.9375,-3.413625 -0.525294,-0.426531 -1.910324,-0.887649 -1.910324,-0.887649 l -0.01606,-0.980235 c 0,0 0.928929,-0.05709 1.205076,-0.430987 0.286255,-0.38758 0.335149,-0.98292 0.169782,-1.435483 -0.163471,-0.447376 -0.911744,-0.412949 -1.027547,-0.874964 -0.08498,-0.339045 -0.02908,-1.1809248 -0.06189,-1.1809248 0.0012,-0.010734 -1.285508,0.039139 -1.643854,0.00193 C 23.980788,9.0328047 24.18569,8.5287071 24.037363,8.3009523 23.687188,7.7632637 23.216289,7.534743 22.379229,7.3231107 21.798763,7.1763528 21.112168,7.1580127 20.58725,7.446 20.072759,7.7282668 19.704769,8.2988145 19.541992,8.8626226 19.350408,9.5262095 19.35031,10.330125 19.694248,10.92909 c 0.15338,0.267109 0.761681,0.523159 0.761681,0.523159 0,0 -2.050932,0.97723 -2.861344,1.715991 -0.464307,0.423257 -1.211134,1.444196 -1.211134,1.444196 0,0 -0.369005,0.599347 -0.353709,0.930956 0.01716,0.372079 0.174435,0.807887 0.491348,1.003601 0.269585,0.166486 0.950509,-0.0086 0.950509,-0.0086 l 1.997518,-2.443826 c 0,0 1.06415,-1.022023 1.750077,-1.170391 0.445391,-0.09634 1.309799,0.206779 1.309799,0.206779 L 22.556,14.12525 c 0,0 -1.837913,0.779911 -2.523374,1.471432 C 19.222547,16.413923 18.32,18.594 18.32,18.594 l -0.05311,21.94502 0.344609,0.159167"
         id="polyline3095"
         style="fill:#e41408;stroke-width:0.921097"
         sodipodi:nodetypes="ccccsccsssccssssscscssccsccsccc" />
      <ellipse
         style="fill:#ffffff;fill-opacity:1;stroke-width:46.0548;stroke-linecap:round;stroke-linejoin:round"
         id="path887"
         cx="22.015625"
         cy="9.875"
         rx="1.421875"
         ry="1.4375" />
    </g>
  </g>
  <g
     inkscape:groupmode="layer"
     id="layer4"
     inkscape:label="Layer 4"
     transform="translate(-2.5556936,-2.561)">
    <g
       id="g1490"
       transform="matrix(-0.20483691,0.22543177,-0.22543177,-0.20483691,68.835687,15.818736)"
       style="stroke-width:3.28305">
      <g
         id="g2127"
         transform="matrix(1.2058834,0,0,1.2058834,-92.160219,-128.4088)"
         style="stroke-width:2.72253">
        <path
           d="m 102.162,41.396 h 9.047 c 0,0 1.867,0.027 1.867,1.867 0,-0.016 0,26.816 0,26.816 0,0 0,2.035 -2.035,2.035 0,-0.188 -8.879,0 -8.879,0 V 41.396"
           id="path3178"
           style="fill:#1c1d20;stroke-width:2.72253" />
        <path
           d="m 102.162,148.24 h 9.047 c 0,0 1.867,-0.035 1.867,-1.863 0,0.016 0,-26.816 0,-26.816 0,0 0,-2.041 -2.035,-2.041 0,0.189 -8.879,0 -8.879,0 v 30.72"
           id="path3180"
           style="fill:#1c1d20;stroke-width:2.72253" />
        <path
           d="m 92.72,94.876 c 0,-10.74 0.555,-14.438 0.555,-14.625 1.297,-9.252 7.031,-8.137 7.031,-8.137 V 41.396 c 0,0 -24.793,4.256 -24.793,53.48 0,49.223 24.793,53.363 24.793,53.363 v -30.721 c 0,0 -5.734,1.109 -7.031,-8.143 0,-0.188 -0.555,-3.772 -0.555,-14.499"
           id="path3182"
           style="fill:#1c1d20;stroke-width:2.72253" />
      </g>
    </g>
    <text
       xml:space="preserve"
       style="font-style:normal;font-variant:normal;font-weight:normal;font-stretch:normal;font-size:18.7921px;line-height:11.011px;font-family:TrafficTypeW01-SpainD;-inkscape-font-specification:TrafficTypeW01-SpainD;letter-spacing:-1.10348px;word-spacing:0px;fill:#000000;stroke:none;stroke-width:0.999998px;stroke-linecap:butt;stroke-linejoin:miter;stroke-opacity:1"
       x="32.89119"
       y="35.550072"
       id="text2108"
       transform="scale(0.83953794,1.1911314)"><tspan
         sodipodi:role="line"
         id="tspan2106"
         x="32.89119"
         y="35.550072"
         style="stroke-width:0.999998px">S.O.S.</tspan></text>
  </g>
</svg>
