<?xml version="1.0" encoding="UTF-8" standalone="no"?>
<!-- Created with Inkscape (http://www.inkscape.org/) -->

<svg
   xmlns:dc="http://purl.org/dc/elements/1.1/"
   xmlns:cc="http://creativecommons.org/ns#"
   xmlns:rdf="http://www.w3.org/1999/02/22-rdf-syntax-ns#"
   xmlns:svg="http://www.w3.org/2000/svg"
   xmlns="http://www.w3.org/2000/svg"
   xmlns:sodipodi="http://sodipodi.sourceforge.net/DTD/sodipodi-0.dtd"
   xmlns:inkscape="http://www.inkscape.org/namespaces/inkscape"
   width="1086"
   height="458"
   id="svg3272"
   version="1.1"
   inkscape:version="0.48.1 "
   sodipodi:docname="Documento nuevo 8">
  <defs
     id="defs3274" />
  <sodipodi:namedview
     id="base"
     pagecolor="#ffffff"
     bordercolor="#666666"
     borderopacity="1.0"
     inkscape:pageopacity="0.0"
     inkscape:pageshadow="2"
     inkscape:zoom="0.35"
     inkscape:cx="584.4286"
     inkscape:cy="440.42857"
     inkscape:document-units="px"
     inkscape:current-layer="layer1"
     showgrid="false"
     fit-margin-top="0"
     fit-margin-left="0"
     fit-margin-right="0"
     fit-margin-bottom="0"
     inkscape:window-width="1280"
     inkscape:window-height="750"
     inkscape:window-x="-8"
     inkscape:window-y="-8"
     inkscape:window-maximized="1" />
  <metadata
     id="metadata3277">
    <rdf:RDF>
      <cc:Work
         rdf:about="">
        <dc:format>image/svg+xml</dc:format>
        <dc:type
           rdf:resource="http://purl.org/dc/dcmitype/StillImage" />
        <dc:title></dc:title>
      </cc:Work>
    </rdf:RDF>
  </metadata>
  <g
     inkscape:label="Capa 1"
     inkscape:groupmode="layer"
     id="layer1"
     transform="translate(234.4286,-514.79075)">
    <g
       id="E-80"
       transform="translate(642.68537,623.82607)"
       inkscape:label="E-80">
      <path
         style="fill:#ffffff;fill-opacity:1"
         d="m -877.11397,119.96468 0,-229 1086.00005,0 0,229 0,229 -1086.00005,0 0,-229 z"
         id="path2390-0"
         sodipodi:nodetypes="ccccccc"
         inkscape:connector-curvature="0" />
      <path
         sodipodi:nodetypes="ccccccccccsscccsccccccccsssccccssscccccsssscccc"
         id="path2384-0"
         d="m -877.11397,119.96468 0,-229 543,0 543.00005,0 0,229 0,229 -543.00005,0 -543,0 0,-229 z m 1003.5,216.1822 c 10.3419,-2.9964 25.03,-9.9577 32.9793,-15.6302 17.09135,-12.1962 30.45105,-33.6139 34.97285,-56.0677 1.4396,-7.1491 1.5786,-22.5756 1.3279,-147.4843 l -0.28,-139.500001 -2.7568,-8.7883 c -6.6607,-21.2342 -18.9214,-38.5811 -35.06505,-49.6119 -7.373,-5.0378 -22.5963,-11.9094 -31.8581,-14.3802 l -8.3201,-2.2196 -452,0 -451.99999,0 -8.85322,2.7756 c -32.91302,10.3184 -53.31175,30.2239 -64.27859,62.7244 l -2.8682,8.5 -0.30988,139.000001 c -0.22475,100.8121 0.004,141.012 0.83451,146.3233 1.94992,12.4782 7.88238,27.2756 15.30554,38.1767 12.23128,17.962 34.05967,31.9835 57.66984,37.0441 8.1589,1.7488 26.53839,1.8145 457.99999,1.6389 l 449.5,-0.183 8,-2.3178 z m -901.99999,-18.2033 c -36.58214,-3.9811 -61.98564,-28.4485 -66.44273,-63.9944 -1.44129,-11.4946 -1.45621,-255.355401 -0.0163,-266.838701 2.14855,-17.135 8.08154,-30.0362 19.26237,-41.8857 9.61743,-10.1926 20.98032,-16.5774 36.59985,-20.5652 l 8.59683,-2.1949 443.99999,0 444,0 8.5968,2.1949 c 10.97518,2.8021 18.57148,6.1786 26.27388,11.6785 17.44265,12.4549 27.25765,29.7645 29.68025,52.3438 0.6963,6.4892 0.9331,53.2138 0.7034,138.782801 -0.3166,117.9523 -0.4928,129.5423 -2.0579,135.3323 -7.5048,27.7636 -25.72865,45.7435 -54.19643,53.4708 l -8,2.1715 -440,0.133 c -242,0.073 -443.14999,-0.2097 -446.99999,-0.6287 z"
         style="fill:#008000;fill-opacity:1"
         inkscape:connector-curvature="0" />
      <g
         transform="matrix(1.0274814,0,0,1.0274814,-1124.9389,63.482379)"
         id="text3586-6"
         style="font-size:339.76116943px;font-style:normal;font-variant:normal;font-weight:bold;font-stretch:normal;text-align:start;line-height:125%;writing-mode:lr-tb;text-anchor:start;fill:#ffffff;fill-opacity:1;stroke:none;font-family:Arial;-inkscape-font-specification:Arial Bold">
        <g
           id="text2987-5"
           style="font-size:398.40765381px;font-weight:normal;line-height:125%;letter-spacing:0px;word-spacing:0px;fill:#ffffff;stroke:#ffffff;stroke-width:5.87044048;stroke-miterlimit:4;stroke-opacity:1;font-family:Highway Gothic Wide;-inkscape-font-specification:Highway Gothic Wide"
           transform="scale(1.0089233,0.99115563)">
          <path
             inkscape:connector-curvature="0"
             id="path4369"
             style="fill:#ffffff;stroke:#ffffff"
             d="m 543.80133,188.73074 -199.20382,0 0,-266.938474 194.82679,0 0,47.819131 -146.21736,0 0,49.800957 79.67423,0 0,48.597271 -79.67423,0 0,72.914145 150.59439,0 z" />
          <path
             inkscape:connector-curvature="0"
             id="path4371"
             style="fill:#ffffff;stroke:#ffffff"
             d="m 671.10018,76.37463 -88.44047,0 0,-47.806973 88.44047,0 z" />
          <path
             inkscape:connector-curvature="0"
             id="path4373"
             style="fill:#ffffff;stroke:#ffffff"
             d="m 915.88599,103.47579 c -0.26772,28.15089 -9.69657,50.19411 -28.2866,66.12973 -18.59044,15.93566 -45.02083,23.90348 -79.29124,23.90349 -32.66577,-1e-5 -58.75977,-8.16641 -78.2821,-24.49925 -19.52242,-16.3328 -29.28361,-38.17743 -29.28359,-65.53397 0.26746,-29.488152 10.62644,-50.473593 31.07696,-62.95639 -15.14134,-12.482501 -22.71199,-29.212493 -22.71196,-50.1900267 -3e-5,-22.0470783 9.16337,-39.7112423 27.49023,-52.9925463 18.32674,-13.280801 42.2302,-19.921327 71.71046,-19.921599 30.01497,2.72e-4 54.0542,6.640798 72.11776,19.921599 18.06317,13.281304 27.09485,30.945468 27.09508,52.9925463 0.52664,20.7100487 -6.91026,37.1766077 -22.31073,49.3997287 19.91529,12.482798 30.14053,33.731671 30.67573,63.746688 z m -56.17197,-115.1404 c -1.8e-4,-18.067219 -17.26515,-27.364361 -51.79494,-27.891454 -34.00319,0.527093 -51.00472,9.824235 -51.00465,27.891454 -7e-5,18.5863784 17.26489,28.146953 51.79494,28.681752 34.00294,-0.534799 51.00447,-10.0953736 51.00465,-28.681752 z m 8.75407,116.33192 c 0.2673,-27.088884 -19.786,-40.900854 -60.15994,-41.43595 -39.57175,0.267611 -59.4913,14.079581 -59.75872,41.43595 -7e-5,27.89151 20.05323,42.49783 60.15994,43.81901 38.77715,-0.79431 58.6967,-15.40063 59.75872,-43.81901 z" />
          <path
             inkscape:connector-curvature="0"
             id="path4375"
             style="fill:#ffffff;stroke:#ffffff"
             d="m 1181.1344,54.063899 c -2e-4,41.70353 -10.0269,75.370211 -30.0799,101.000131 -20.0535,25.62999 -46.8142,38.44497 -80.2822,38.44498 -36.6537,-1e-5 -65.3395,-14.74007 -86.0574,-44.22024 -18.05937,-25.50022 -27.08902,-56.974333 -27.089,-94.422415 -2e-5,-42.497612 10.0935,-76.030547 30.28059,-100.598905 20.18701,-24.567889 47.80891,-36.85195 82.86581,-36.852222 32.933,2.72e-4 59.5599,12.549792 79.8809,37.6486 20.3206,25.099274 30.481,58.099265 30.4812,99.000071 z m -47.4179,0.802456 c -2e-4,-28.150671 -5.512,-50.1959215 -16.5354,-66.135816 -11.0239,-15.939495 -26.4934,-23.909342 -46.4088,-23.909566 -20.1831,2.24e-4 -35.987,7.970071 -47.4118,23.909566 -11.425,15.9398945 -17.1374,37.985145 -17.1373,66.135816 -10e-5,28.418425 5.7123,50.662265 17.1373,66.731585 11.4248,16.06945 27.2287,24.10414 47.4118,24.1041 22.8415,4e-5 39.5755,-9.96176 50.2022,-29.88544 8.4945,-15.66808 12.7418,-35.984812 12.742,-60.950245 z" />
        </g>
      </g>
    </g>
  </g>
</svg>
