<?xml version="1.0" encoding="UTF-8" standalone="no"?>
<!-- Created with Inkscape (http://www.inkscape.org/) -->

<svg
   xmlns:dc="http://purl.org/dc/elements/1.1/"
   xmlns:cc="http://creativecommons.org/ns#"
   xmlns:rdf="http://www.w3.org/1999/02/22-rdf-syntax-ns#"
   xmlns:svg="http://www.w3.org/2000/svg"
   xmlns="http://www.w3.org/2000/svg"
   version="1.2"
   width="492.59375"
   height="217.375"
   id="svg2">
  <metadata
     id="metadata5682">
    <rdf:RDF>
      <cc:Work
         rdf:about="">
        <dc:format>image/svg+xml</dc:format>
        <dc:type
           rdf:resource="http://purl.org/dc/dcmitype/StillImage" />
        <dc:title></dc:title>
      </cc:Work>
    </rdf:RDF>
  </metadata>
  <defs
     id="defs5680" />
  <g
     id="g5809">
    <path
       d="m 0.14675,190.13125 c 0,14.85 12.269,27.122 27.116,27.122 h 438.064 c 14.849,0 27.122,-12.272 27.122,-27.122 v -162.871 c 0,-14.854 -12.273,-27.122 -27.122,-27.122 h -438.064 c -14.849,0 -27.116,12.268 -27.116,27.122 v 162.871"
       id="path5602"
       style="fill:#19408b" />
    <path
       d="m 0.14675,190.13125 c 0,14.85 12.269,27.122 27.116,27.122 h 438.064 c 14.849,0 27.122,-12.272 27.122,-27.122 v -162.871 c 0,-14.854 -12.273,-27.122 -27.122,-27.122 h -438.064 c -14.849,0 -27.116,12.268 -27.116,27.122 v 162.871"
       id="path5604"
       style="fill:none;stroke:#ffffff;stroke-width:0.26370001;stroke-miterlimit:2.61299992" />
    <path
       d="m 8.28375,54.38225 v -27.122 c 0,-10.332 8.522,-18.984 18.979,-18.984 h 138.886 c 10.331,0 18.979,8.653 18.979,18.984 v 27.122 c 0,10.332 -8.648,18.979 -18.979,18.979 h -138.886 c -10.455,0 -18.979,-8.647 -18.979,-18.979 h -5.428 5.428 m -5.428,0 c 0,13.298 11.109,24.408 24.407,24.408 h 138.886 c 13.299,0 24.407,-11.109 24.407,-24.408 v -27.122 c 0,-13.309 -11.108,-24.413 -24.407,-24.413 h -138.886 c -13.298,0 -24.407,11.104 -24.407,24.413 v 27.122 z"
       id="path5606"
       style="fill:#ffffff" />
    <path
       d="m 201.26875,54.38225 v -27.122 c 0,-10.332 8.658,-18.984 18.99,-18.984 h 245.068 c 10.461,0 18.983,8.653 18.983,18.984 v 27.122 c 0,10.332 -8.522,18.979 -18.983,18.979 h -245.068 c -10.332,0 -18.99,-8.647 -18.99,-18.979 h -5.418 5.418 m -5.418,0 c 0,13.298 11.104,24.408 24.408,24.408 h 245.068 c 13.304,0 24.407,-11.109 24.407,-24.408 v -27.122 c 0,-13.309 -11.104,-24.413 -24.407,-24.413 h -245.068 c -13.304,0 -24.408,11.104 -24.408,24.413 v 27.122 l 0,0 z"
       id="path5608"
       style="fill:#ffffff" />
    <path
       d="m 140.18475,51.67325 h 4.008 v -9.307 c 0,-1.545 1.416,-2.838 2.968,-2.838 1.679,0 2.972,1.293 2.972,2.838 v 9.307 h 4.13 v -9.307 c 0,-1.545 1.293,-2.838 2.844,-2.838 1.68,0 2.973,1.293 2.973,2.838 v 9.307 h 4.13 v -9.95 c 0,-2.585 -1.809,-5.295 -4.259,-6.196 -2.58,-1.035 -5.688,-0.263 -7.494,1.674 -1.938,-2.193 -5.553,-2.843 -8.262,-1.287 v -0.778 h -4.008 l -0.002,16.537"
       id="path5610"
       style="fill:#ffffff" />
    <path
       d="m 222.96775,62.52025 17.82,0 1.679,-43.398 -5.166,0 -14.333,43.398"
       id="polyline5612"
       style="fill:#ffffff" />
    <path
       d="m 246.86075,62.52025 17.686,0 -6.454,-20.406 13.041,-14.725 4.265,10.331 0,-18.598 -18.598,0 10.465,4.265 -12.659,7.88 -3.873,-12.145 -5.166,0 1.293,43.398"
       id="polyline5614"
       style="fill:#ffffff" />
    <path
       d="m 8.28375,190.13125 v -81.505 c 0,-10.33 8.522,-18.989 18.979,-18.989 h 438.064 c 10.461,0 18.983,8.659 18.983,18.989 v 81.505 c 0,10.331 -8.522,18.984 -18.983,18.984 h -438.064 c -10.455,0 -18.979,-8.653 -18.979,-18.984 h -5.428 5.428 m -5.428,0 c 0,13.304 11.109,24.412 24.407,24.412 h 438.064 c 13.304,0 24.407,-11.108 24.407,-24.412 v -81.505 c 0,-13.308 -11.104,-24.413 -24.407,-24.413 h -438.064 c -13.298,0 -24.407,11.104 -24.407,24.413 v 81.505 z"
       id="path5616"
       style="fill:#ffffff" />
    <path
       d="m 455.19475,175.71825 -39.911,-8.004 15.37,-10.199 -28.153,-25.061 9.554,-9.554 25.062,28.28 10.069,-15.497 8.009,40.035"
       id="polyline5618"
       style="fill:#ffffff" />
    <path
       d="m 0.14675,190.13125 c 0,14.85 12.269,27.122 27.116,27.122 h 438.064 c 14.849,0 27.122,-12.272 27.122,-27.122 v -162.871 c 0,-14.854 -12.273,-27.122 -27.122,-27.122 h -438.064 c -14.849,0 -27.116,12.268 -27.116,27.122 v 162.871 z"
       id="path5620"
       style="fill:none;stroke:#1d2d28;stroke-width:0.26370001;stroke-miterlimit:2.61299992" />
    <path
       d="m 35.783749,119.95225 59.422001,0 0,59.421 -59.422001,0 z"
       id="rect5622"
       style="fill:#ffffff" />
    <path
       d="m 59.22875,128.87125 c -1.535,0 -1.45,1.451 -1.45,1.451 v 2.561 h -2.647 c -1.364,0 -1.279,1.279 -1.279,1.279 v 16.002 l 1.11,1.836 1.621,1.194 1.365,14.423 h -12.602 v 2.902 h 43.982 v -2.902 h -13.57 l 1.365,-14.423 1.622,-1.194 1.109,-1.536 v -16.302 c 0,0 0.086,-1.279 -1.279,-1.279 h -2.647 v -2.561 c 0,0 0.086,-1.451 -1.45,-1.451 0,-0.086 -15.25,-0.086 -15.25,0 z"
       id="path5624"
       style="fill:#1c1c20" />
    <path
       d="m 59.22875,128.87125 c -1.535,0 -1.45,1.451 -1.45,1.451 v 2.561 h -2.647 c -1.364,0 -1.279,1.279 -1.279,1.279 v 16.002 l 1.11,1.836 1.621,1.194 1.365,14.423 h -12.602 v 2.902 h 43.982 v -2.902 h -13.57 l 1.365,-14.423 1.622,-1.194 1.109,-1.536 v -16.302 c 0,0 0.086,-1.279 -1.279,-1.279 h -2.647 v -2.561 c 0,0 0.086,-1.451 -1.45,-1.451 0,-0.086 -15.25,-0.086 -15.25,0 z"
       id="path5626"
       style="fill:none;stroke:#1c1c20;stroke-width:0.097;stroke-miterlimit:3.86400008" />
    <path
       d="m 57.693748,136.46825 18.321,0 0,11.181 -18.321,0 z"
       id="rect5628"
       style="fill:#ffffff" />
    <path
       d="m 57.693748,136.46825 18.321,0 0,11.181 -18.321,0 z"
       id="rect5630"
       style="fill:none;stroke:#1c1c20;stroke-width:0.097;stroke-miterlimit:3.86400008" />
    <path
       d="m 54.03775,149.78125 -4.608,11.777 c 0,0 -2.006,3.756 -5.334,2.176 0,0.043 -3.457,-1.109 -2.134,-5.247 -0.043,-0.043 4.609,-12.504 4.609,-12.504 v -2.561 l 2.56,-6.87 h 0.939 c 0,0 1.28,-4.48 3.371,-4.311 0.042,-0.043 0.854,0.128 0.213,0.598 0,-0.086 -2.73,1.365 -2.347,3.926 -0.043,0 1.452,2.391 1.452,2.391 v 0.596 h 1.45 l -0.171,10.029 z"
       id="path5632"
       style="fill:#1c1c20" />
    <path
       d="m 54.03775,149.78125 -4.608,11.777 c 0,0 -2.006,3.756 -5.334,2.176 0,0.043 -3.457,-1.109 -2.134,-5.247 -0.043,-0.043 4.609,-12.504 4.609,-12.504 v -2.561 l 2.56,-6.87 h 0.939 c 0,0 1.28,-4.48 3.371,-4.311 0.042,-0.043 0.854,0.128 0.213,0.598 0,-0.086 -2.73,1.365 -2.347,3.926 -0.043,0 1.452,2.391 1.452,2.391 v 0.596 h 1.45 l -0.171,10.029 z"
       id="path5634"
       style="fill:none;stroke:#1c1c20;stroke-width:0.097;stroke-miterlimit:3.86400008" />
    <path
       d="m 50.36875,143.38025 -0.726,1.493 -0.896,0.684 -4.907,13.526 c 0,0 -0.726,2.178 0.939,2.859 -0.086,0.042 1.878,0.896 2.731,-1.193 -0.086,0 5.931,-15.534 5.931,-15.534 0,0 -0.811,-0.768 -0.682,-1.878 0.042,0 -0.94,0 -0.94,0 0,0 -1.322,0.811 -1.237,5.206 0.042,-0.043 -0.725,0 -0.725,0 0,0 0.043,-4.01 1.109,-5.163 h -0.597 z"
       id="path5636"
       style="fill:#ffffff;fill-rule:evenodd" />
    <path
       d="m 50.36875,143.38025 -0.726,1.493 -0.896,0.684 -4.907,13.526 c 0,0 -0.726,2.178 0.939,2.859 -0.086,0.042 1.878,0.896 2.731,-1.193 -0.086,0 5.931,-15.534 5.931,-15.534 0,0 -0.811,-0.768 -0.682,-1.878 0.042,0 -0.94,0 -0.94,0 0,0 -1.322,0.811 -1.237,5.206 0.042,-0.043 -0.725,0 -0.725,0 0,0 0.043,-4.01 1.109,-5.163 h -0.597 z"
       id="path5638"
       style="fill:none;stroke:#1c1c20;stroke-width:0.097;stroke-miterlimit:3.86400008" />
    <path
       d="m 127.04875,119.95225 59.422,0 0,59.421 -59.422,0 z"
       id="rect5640"
       style="fill:#ffffff" />
    <path
       d="m 166.41775,126.58325 c 0.758,0 0.71,0.615 0.71,0.615 0,0 -0.046,4.126 0,4.126 0,0.521 -0.521,0.521 -0.521,0.521 h -4.361 v 2.134 c 0,0 4.125,0.048 4.077,0 0.9,0 0.806,0.807 0.806,0.807 0,0 0,2.465 0,2.418 0,0.901 -0.854,0.854 -0.854,0.854 0,0 -1.043,0.095 -1.043,0 -3.318,0 -2.986,3.177 -2.986,3.177 v 6.591 l 1.517,1.517 c 0,0 0,21.242 0,21.195 0,0.758 -1.327,0.758 -1.327,0.758 -0.996,0 -1.471,0.617 -1.423,0.617 0,0.711 -1.375,0.854 -1.375,0.854 0,0 -1.375,-0.143 -1.375,-0.854 0.047,0 -0.427,-0.617 -1.422,-0.617 0,0 -1.328,0 -1.328,-0.758 0,0.047 0,-21.195 0,-21.195 l 1.517,-1.517 v -6.591 c 0,0 -0.236,-3.177 -3.888,-3.177 h -6.306 c 0,0 -0.38,0 -0.38,-0.522 0,0 0,-3.176 0,-3.128 0,-0.476 0.428,-0.428 0.428,-0.428 -0.048,0.048 10.146,0 10.146,0 v -2.134 h -10.24 c 0,0 -0.38,0 -0.38,-0.38 -0.049,-0.047 0,-2.798 0,-2.798 0,0 0,-0.425 0.427,-0.425 h 5.405 l 1.659,-1.66 c -10e-4,0 12.469,-0.047 12.517,0 z"
       id="path5642"
       style="fill:#1c1c20" />
    <path
       d="m 166.41775,126.58325 c 0.758,0 0.71,0.615 0.71,0.615 0,0 -0.046,4.126 0,4.126 0,0.521 -0.521,0.521 -0.521,0.521 h -4.361 v 2.134 c 0,0 4.125,0.048 4.077,0 0.9,0 0.806,0.807 0.806,0.807 0,0 0,2.465 0,2.418 0,0.901 -0.854,0.854 -0.854,0.854 0,0 -1.043,0.095 -1.043,0 -3.318,0 -2.986,3.177 -2.986,3.177 v 6.591 l 1.517,1.517 c 0,0 0,21.242 0,21.195 0,0.758 -1.327,0.758 -1.327,0.758 -0.996,0 -1.471,0.617 -1.423,0.617 0,0.711 -1.375,0.854 -1.375,0.854 0,0 -1.375,-0.143 -1.375,-0.854 0.047,0 -0.427,-0.617 -1.422,-0.617 0,0 -1.328,0 -1.328,-0.758 0,0.047 0,-21.195 0,-21.195 l 1.517,-1.517 v -6.591 c 0,0 -0.236,-3.177 -3.888,-3.177 h -6.306 c 0,0 -0.38,0 -0.38,-0.522 0,0 0,-3.176 0,-3.128 0,-0.476 0.428,-0.428 0.428,-0.428 -0.048,0.048 10.146,0 10.146,0 v -2.134 h -10.24 c 0,0 -0.38,0 -0.38,-0.38 -0.049,-0.047 0,-2.798 0,-2.798 0,0 0,-0.425 0.427,-0.425 h 5.405 l 1.659,-1.66 c -10e-4,0 12.469,-0.047 12.517,0 z"
       id="path5644"
       style="fill:none;stroke:#1c1c20;stroke-width:0.108;stroke-miterlimit:3.86400008" />
    <path
       d="m 309.84976,120.03625 59.422,0 0,59.421 -59.422,0 z"
       id="rect5646"
       style="fill:#ffffff" />
    <path
       d="m 353.02875,163.52425 c 3.13,3.996 -1.011,6.115 -1.011,6.115 -3.273,2.649 -5.682,-1.685 -5.682,-1.685 l -6.309,-12.326 c 0,0 -7.944,12.856 -7.944,12.807 -2.744,4.622 -6.307,1.685 -6.403,1.637 -3.756,-2.794 -0.048,-6.452 -0.048,-6.452 0,0 11.074,-13.145 11.074,-13.194 1.3,-1.491 -0.723,-1.491 -0.866,-1.636 -5.634,-1.204 -7.8,-4.622 -7.8,-4.573 -4.575,-6.069 -3.468,-10.113 -3.468,-10.113 1.444,-4.767 5.73,-3.274 5.683,-3.322 5.873,1.542 7.992,7.415 8.04,7.464 0.626,1.347 1.926,8.426 1.926,8.426 0,0 0.866,-1.157 1.541,-5.49 0,0.098 0.048,-2.599 3.082,-6.212 0.048,0 1.251,-2.116 4.573,-4.091 0,0 2.263,-1.011 1.301,0.962 -0.049,0.049 -4.334,6.356 -4.334,6.356 0,0 -0.144,0.289 0.145,0.484 0.097,0 0.288,0.143 0.578,-0.098 0.047,-0.097 4.526,-6.357 4.526,-6.357 0,0 0.385,-0.578 1.107,-0.193 0.599,0.558 0.299,1.172 0.299,1.172 0,0 -4.461,6.272 -4.536,6.349 -0.134,0.35 0.064,0.487 0.097,0.577 0.275,0.211 0.502,-0.019 0.502,-0.019 0,0 4.569,-6.105 4.6,-6.167 1.553,-1.554 1.333,0.915 1.333,0.915 -0.784,3.785 -2.396,5.611 -2.381,5.658 -2.427,4.043 -4.776,5.817 -6.463,6.54 -0.048,0.046 -1.299,0.239 -1.973,1.54 -0.097,0 -1.301,2.021 -1.301,2.021 0,0 10.064,12.954 10.112,12.905 z"
       id="path5648"
       style="fill:#1c1c20" />
    <path
       d="m 218.34975,120.07525 59.422,0 0,59.421 -59.422,0 z"
       id="rect5650"
       style="fill:#ffffff" />
    <path
       d="m 263.65875,142.50725 c 1.148,0 2.081,0.933 2.081,2.08 v 4.68 h -25.479 v -6.76 h 23.398 z"
       id="path5652"
       style="fill:#1c1c20" />
    <path
       d="m 263.65875,142.50725 c 1.148,0 2.081,0.933 2.081,2.08 v 4.68 h -25.479 v -6.76 h 23.398 z"
       id="path5654"
       style="fill:none;stroke:#1c1c20;stroke-width:0.104;stroke-miterlimit:3.86400008" />
    <path
       d="m 229.34175,150.30625 h 37.438 v -5.719 c 0,-1.147 0.931,-2.08 2.079,-2.08 1.149,0 2.08,0.933 2.08,2.08 v 16.639 h -4.159 v -6.241 h -37.438 v 6.241 h -4.159 v -20.798 c 0,-1.15 0.931,-2.079 2.08,-2.079 1.148,0 2.079,0.929 2.079,2.079 v 9.878 z"
       id="path5656"
       style="fill:#1c1c20" />
    <path
       d="m 229.34175,150.30625 h 37.438 v -5.719 c 0,-1.147 0.931,-2.08 2.079,-2.08 1.149,0 2.08,0.933 2.08,2.08 v 16.639 h -4.159 v -6.241 h -37.438 v 6.241 h -4.159 v -20.798 c 0,-1.15 0.931,-2.079 2.08,-2.079 1.148,0 2.079,0.929 2.079,2.079 v 9.878 z"
       id="path5658"
       style="fill:none;stroke:#1c1c20;stroke-width:0.104;stroke-miterlimit:3.86400008" />
    <path
       d="m 230.38275,149.26725 v -4.16 c 0,0 0.259,-2.6 4.42,-2.6 4.159,0 4.419,2.6 4.419,2.6 v 4.16 h -8.839 z"
       id="path5660"
       style="fill:#1c1c20" />
    <path
       d="m 230.38275,149.26725 v -4.16 c 0,0 0.259,-2.6 4.42,-2.6 4.159,0 4.419,2.6 4.419,2.6 v 4.16 h -8.839 z"
       id="path5662"
       style="fill:none;stroke:#1c1c20;stroke-width:0.104;stroke-miterlimit:3.86400008" />
    <path
       d="m 31.68275,51.30225 v -15.504 h -2.244 v -4.624 c 0.408,-0.204 0.736,-0.391 0.986,-0.561 0.249,-0.17 0.459,-0.357 0.629,-0.561 0.17,-0.204 0.323,-0.43 0.459,-0.68 0.136,-0.249 0.294,-0.555 0.476,-0.918 h 4.318 v 22.848 h -4.624 z"
       id="path5664"
       style="fill:#ffffff" />
    <path
       d="m 45.31675,51.30225 c 0.045,-0.544 0.09,-1.025 0.136,-1.445 0.045,-0.419 0.096,-0.816 0.153,-1.19 0.056,-0.374 0.136,-0.731 0.238,-1.071 0.102,-0.34 0.221,-0.702 0.357,-1.088 0.476,-1.405 1.156,-2.691 2.04,-3.859 0.884,-1.167 1.938,-2.147 3.162,-2.941 0.431,-0.317 0.912,-0.6 1.445,-0.85 0.532,-0.25 1.082,-0.499 1.649,-0.748 l 0.884,-0.408 0.816,-0.238 0.782,-0.306 c 0.657,-0.294 1.167,-0.629 1.53,-1.003 0.362,-0.374 0.544,-0.765 0.544,-1.173 0,-0.68 -0.414,-1.235 -1.241,-1.666 -0.828,-0.431 -1.899,-0.646 -3.213,-0.646 -0.59,0 -1.134,0.04 -1.632,0.119 -0.499,0.08 -0.986,0.21 -1.462,0.391 -0.476,0.182 -0.952,0.42 -1.428,0.714 -0.476,0.295 -0.998,0.658 -1.564,1.088 l -3.196,-3.332 c 0.385,-0.272 0.725,-0.516 1.02,-0.731 0.294,-0.215 0.566,-0.402 0.816,-0.561 0.25,-0.159 0.487,-0.3 0.714,-0.425 0.226,-0.124 0.464,-0.243 0.714,-0.357 1.813,-0.974 3.864,-1.462 6.154,-1.462 1.45,0 2.782,0.193 3.995,0.578 1.212,0.386 2.204,0.941 2.975,1.666 0.589,0.567 1.042,1.213 1.36,1.938 0.317,0.726 0.476,1.576 0.476,2.55 0,1.678 -0.527,3.106 -1.581,4.284 -1.054,1.179 -2.692,2.142 -4.913,2.89 -0.635,0.25 -1.167,0.465 -1.598,0.646 -0.431,0.182 -0.799,0.357 -1.105,0.527 -0.306,0.17 -0.589,0.357 -0.85,0.561 -0.261,0.204 -0.539,0.454 -0.833,0.748 -0.363,0.363 -0.669,0.714 -0.918,1.054 -0.25,0.34 -0.499,0.737 -0.748,1.19 h 12.784 v 4.556 h -18.462 z"
       id="path5666"
       style="fill:#ffffff" />
    <path
       d="m 90.60475,43.71925 c 0,1.111 -0.261,2.216 -0.782,3.315 -0.521,1.1 -1.225,2.012 -2.107,2.737 -0.681,0.612 -1.564,1.088 -2.652,1.428 -1.088,0.34 -2.278,0.51 -3.57,0.51 -3.423,0 -6.539,-0.805 -9.35,-2.414 l 2.481,-3.91 c 1.156,0.658 2.267,1.117 3.332,1.377 1.065,0.261 2.244,0.391 3.536,0.391 3.082,0 4.624,-1.178 4.624,-3.536 0,-2.289 -1.563,-3.434 -4.692,-3.434 -0.317,0 -0.623,0.012 -0.918,0.034 -0.295,0.023 -0.601,0.068 -0.918,0.136 -0.317,0.068 -0.662,0.159 -1.037,0.272 -0.373,0.113 -0.811,0.261 -1.309,0.442 l -4.624,-1.836 0.952,-10.778 h 15.027 v 4.556 l -10.472,0.068 -0.407,2.958 c 0.611,-0.113 1.229,-0.209 1.853,-0.289 0.623,-0.079 1.263,-0.119 1.921,-0.119 1.088,0 2.04,0.097 2.855,0.289 0.816,0.192 1.564,0.47 2.244,0.833 1.246,0.726 2.228,1.706 2.941,2.941 0.713,1.235 1.072,2.579 1.072,4.029 z"
       id="path5668"
       style="fill:#ffffff" />
    <path
       d="m 117.83775,39.87825 c 0,1.813 -0.227,3.451 -0.68,4.913 -0.453,1.462 -1.094,2.703 -1.921,3.723 -0.828,1.02 -1.831,1.808 -3.009,2.363 -1.179,0.555 -2.482,0.833 -3.91,0.833 -1.723,0 -3.19,-0.335 -4.403,-1.003 -1.213,-0.668 -2.204,-1.558 -2.975,-2.669 -0.771,-1.11 -1.332,-2.374 -1.683,-3.791 -0.353,-1.416 -0.527,-2.873 -0.527,-4.369 0,-1.791 0.221,-3.411 0.663,-4.862 0.441,-1.45 1.076,-2.686 1.903,-3.706 0.827,-1.02 1.837,-1.807 3.026,-2.363 1.19,-0.555 2.521,-0.833 3.995,-0.833 1.382,0 2.652,0.284 3.808,0.85 1.156,0.567 2.159,1.366 3.01,2.397 0.85,1.032 1.513,2.267 1.988,3.706 0.478,1.439 0.715,3.043 0.715,4.811 z m -4.487,-0.102 c 0,-2.47 -0.437,-4.272 -1.31,-5.406 -0.872,-1.133 -2.113,-1.7 -3.723,-1.7 -1.632,0 -2.879,0.601 -3.74,1.802 -0.861,1.202 -1.292,3.004 -1.292,5.406 0,2.334 0.437,4.131 1.31,5.389 0.872,1.258 2.113,1.887 3.723,1.887 1.564,0 2.793,-0.668 3.689,-2.006 0.895,-1.338 1.343,-3.129 1.343,-5.372 z"
       id="path5670"
       style="fill:#ffffff" />
    <path
       d="m 404.92475,51.30225 v -15.504 h -2.244 v -4.624 c 0.408,-0.204 0.736,-0.391 0.986,-0.561 0.249,-0.17 0.459,-0.357 0.629,-0.561 0.17,-0.204 0.323,-0.43 0.459,-0.68 0.136,-0.249 0.294,-0.555 0.476,-0.918 h 4.318 v 22.848 h -4.624 z"
       id="path5672"
       style="fill:#ffffff" />
    <path
       d="m 436.78275,44.73925 c 0,1.043 -0.216,1.989 -0.646,2.839 -0.43,0.85 -1.036,1.581 -1.818,2.193 -0.782,0.612 -1.723,1.088 -2.822,1.428 -1.099,0.34 -2.317,0.51 -3.655,0.51 -1.428,0 -2.776,-0.221 -4.046,-0.663 -1.27,-0.442 -2.267,-1.048 -2.992,-1.819 -0.793,-0.793 -1.405,-1.819 -1.836,-3.077 -0.431,-1.258 -0.646,-2.635 -0.646,-4.131 0,-2.289 0.527,-4.431 1.581,-6.426 1.054,-1.994 2.521,-3.66 4.402,-4.998 2.402,-1.654 5.18,-2.482 8.33,-2.482 h 0.612 v 4.556 h -0.544 c -4.284,0 -7.321,1.893 -9.112,5.678 0.726,-0.204 1.445,-0.362 2.159,-0.476 0.714,-0.113 1.411,-0.17 2.091,-0.17 1.043,0 2.08,0.125 3.111,0.374 1.031,0.25 1.875,0.556 2.533,0.918 1.02,0.59 1.824,1.394 2.414,2.414 0.59,1.02 0.884,2.131 0.884,3.332 z m -4.488,-0.067 c 0,-0.725 -0.362,-1.309 -1.088,-1.751 -0.726,-0.442 -1.768,-0.663 -3.128,-0.663 -0.657,0 -1.275,0.04 -1.853,0.119 -0.578,0.08 -1.026,0.199 -1.344,0.357 -0.521,0.204 -0.918,0.476 -1.189,0.816 -0.272,0.34 -0.408,0.714 -0.408,1.122 0,0.771 0.431,1.377 1.292,1.819 0.861,0.442 1.994,0.663 3.4,0.663 1.337,0 2.391,-0.221 3.161,-0.663 0.77,-0.442 1.157,-1.049 1.157,-1.819 z"
       id="path5674"
       style="fill:#ffffff" />
    <path
       d="m 444.90775,51.30225 c 0.045,-0.544 0.09,-1.025 0.136,-1.445 0.045,-0.419 0.096,-0.816 0.153,-1.19 0.056,-0.374 0.136,-0.731 0.237,-1.071 0.103,-0.34 0.222,-0.702 0.357,-1.088 0.476,-1.405 1.156,-2.691 2.04,-3.859 0.884,-1.168 1.938,-2.147 3.162,-2.941 0.43,-0.317 0.912,-0.6 1.444,-0.85 0.532,-0.25 1.082,-0.499 1.649,-0.748 l 0.884,-0.408 0.816,-0.238 0.781,-0.306 c 0.657,-0.294 1.168,-0.629 1.53,-1.003 0.362,-0.374 0.544,-0.765 0.544,-1.173 0,-0.68 -0.414,-1.235 -1.241,-1.666 -0.827,-0.431 -1.898,-0.646 -3.213,-0.646 -0.59,0 -1.134,0.04 -1.632,0.119 -0.499,0.08 -0.985,0.21 -1.462,0.391 -0.476,0.182 -0.952,0.42 -1.428,0.714 -0.477,0.295 -0.998,0.658 -1.564,1.088 l -3.195,-3.332 c 0.385,-0.272 0.725,-0.516 1.02,-0.731 0.294,-0.215 0.566,-0.402 0.816,-0.561 0.249,-0.159 0.486,-0.3 0.714,-0.425 0.227,-0.124 0.464,-0.243 0.714,-0.357 1.813,-0.974 3.864,-1.462 6.154,-1.462 1.45,0 2.782,0.193 3.994,0.578 1.213,0.386 2.205,0.941 2.976,1.666 0.589,0.567 1.042,1.213 1.36,1.938 0.316,0.726 0.476,1.576 0.476,2.55 0,1.678 -0.527,3.106 -1.581,4.284 -1.054,1.179 -2.691,2.142 -4.913,2.89 -0.635,0.25 -1.168,0.465 -1.598,0.646 -0.431,0.182 -0.799,0.357 -1.105,0.527 -0.306,0.17 -0.59,0.357 -0.85,0.561 -0.261,0.204 -0.539,0.454 -0.833,0.748 -0.363,0.363 -0.669,0.714 -0.918,1.054 -0.25,0.34 -0.499,0.737 -0.748,1.19 h 12.784 v 4.556 h -18.46 z"
       id="path5676"
       style="fill:#ffffff" />
  </g>
</svg>
