<?xml version="1.0" encoding="UTF-8" standalone="no"?>
<svg
   xmlns:dc="http://purl.org/dc/elements/1.1/"
   xmlns:cc="http://creativecommons.org/ns#"
   xmlns:rdf="http://www.w3.org/1999/02/22-rdf-syntax-ns#"
   xmlns:svg="http://www.w3.org/2000/svg"
   xmlns="http://www.w3.org/2000/svg"
   xmlns:sodipodi="http://sodipodi.sourceforge.net/DTD/sodipodi-0.dtd"
   xmlns:inkscape="http://www.inkscape.org/namespaces/inkscape"
   version="1.2"
   width="500"
   height="95"
   id="svg2"
   sodipodi:docname="ES_S710.svg"
   inkscape:version="1.0.1 (3bc2e813f5, 2020-09-07)">
  <sodipodi:namedview
     pagecolor="#ffffff"
     bordercolor="#666666"
     borderopacity="1"
     objecttolerance="10"
     gridtolerance="10"
     guidetolerance="10"
     inkscape:pageopacity="0"
     inkscape:pageshadow="2"
     inkscape:window-width="1920"
     inkscape:window-height="1027"
     id="namedview906"
     showgrid="false"
     inkscape:zoom="1"
     inkscape:cx="165.69328"
     inkscape:cy="45.88541"
     inkscape:window-x="-8"
     inkscape:window-y="-8"
     inkscape:window-maximized="1"
     inkscape:current-layer="layer3"
     fit-margin-top="0"
     fit-margin-left="0"
     fit-margin-right="0"
     fit-margin-bottom="0"
     inkscape:document-rotation="0"
     inkscape:showpageshadow="false"
     inkscape:pagecheckerboard="true" />
  <metadata
     id="metadata3197">
    <rdf:RDF>
      <cc:Work
         rdf:about="">
        <dc:format>image/svg+xml</dc:format>
        <dc:type
           rdf:resource="http://purl.org/dc/dcmitype/StillImage" />
        <dc:title />
      </cc:Work>
    </rdf:RDF>
  </metadata>
  <defs
     id="defs3195" />
  <g
     inkscape:groupmode="layer"
     id="layer3"
     inkscape:label="Layer 1"
     transform="translate(0,-1.288889)"
     style="display:inline" />
  <g
     inkscape:groupmode="layer"
     id="layer5"
     inkscape:label="Layer 3"
     transform="translate(0,-1.288889)"
     style="display:inline">
    <text
       xml:space="preserve"
       style="font-size:42.6667px;line-height:25px;font-family:'Andale Mono IPA';-inkscape-font-specification:'Andale Mono IPA';letter-spacing:0px;word-spacing:0px;fill:none;stroke:#000000;stroke-width:1px;stroke-linecap:butt;stroke-linejoin:miter;stroke-opacity:1"
       x="133.73573"
       y="169.69092"
       id="text1522"><tspan
         sodipodi:role="line"
         id="tspan1520"
         x="133.73573"
         y="169.69092" /></text>
  </g>
  <g
     inkscape:groupmode="layer"
     id="layer1"
     inkscape:label="Layer 2"
     transform="translate(0,-1.288889)"
     style="display:inline" />
  <g
     inkscape:groupmode="layer"
     id="layer2"
     inkscape:label="Layer 4"
     style="display:inline;opacity:1" />
  <g
     inkscape:groupmode="layer"
     id="layer4"
     inkscape:label="Layer 5"
     style="display:inline;opacity:1">
    <rect
       style="fill:#ffff00;stroke-linecap:round;stroke-linejoin:round"
       id="rect4893"
       width="499.40002"
       height="92.244446"
       x="0.04444512"
       y="1.2000033" />
  </g>
  <g
     inkscape:groupmode="layer"
     id="layer6"
     inkscape:label="Layer 6"
     style="display:inline;opacity:1">
    <text
       xml:space="preserve"
       style="font-style:normal;font-variant:normal;font-weight:normal;font-stretch:normal;font-size:29.0857px;line-height:17.0424px;font-family:'Highway Gothic Wide';-inkscape-font-specification:'Highway Gothic Wide';letter-spacing:1.25351px;word-spacing:0px;fill:#000000;stroke:none;stroke-width:0.999998px;stroke-linecap:butt;stroke-linejoin:miter;stroke-opacity:1"
       x="325.23706"
       y="36.356609"
       id="text4898"><tspan
         sodipodi:role="line"
         id="tspan4896"
         x="325.23706"
         y="36.356609"
         style="font-style:normal;font-variant:normal;font-weight:normal;font-stretch:normal;font-family:'Highway Gothic Wide';-inkscape-font-specification:'Highway Gothic Wide';fill:#000000;stroke-width:0.999998px">estación de</tspan></text>
  </g>
  <g
     inkscape:groupmode="layer"
     id="layer7"
     inkscape:label="Layer 7"
     style="display:inline;opacity:1" />
  <g
     inkscape:groupmode="layer"
     id="layer8"
     inkscape:label="Layer 8"
     style="display:inline;opacity:1">
    <path
       id="rect4910"
       style="fill:#000000;stroke:none;stroke-width:1;stroke-linecap:round;stroke-linejoin:round"
       d="M 20.53332,70.907507 20.675405,24.043198 66.445114,23.412899 79.755799,37.00777 43.918414,37.581491 72.35693,65.586863 62.834571,74.985196 34.021778,46.817369 33.22805,83.542684 Z"
       sodipodi:nodetypes="cccccccccc" />
    <text
       xml:space="preserve"
       style="font-style:normal;font-variant:normal;font-weight:normal;font-stretch:normal;font-size:42.6667px;line-height:25px;font-family:'Highway Gothic Wide';-inkscape-font-specification:'Highway Gothic Wide';letter-spacing:1px;word-spacing:0px;fill:#000000;stroke:none;stroke-width:1px;stroke-linecap:butt;stroke-linejoin:miter;stroke-opacity:1"
       x="284.96402"
       y="77.781746"
       id="text6146"><tspan
         sodipodi:role="line"
         id="tspan6144"
         x="284.96402"
         y="77.781746">Chamartín</tspan></text>
  </g>
  <g
     inkscape:groupmode="layer"
     id="layer9"
     inkscape:label="Layer 9"
     style="opacity:1" />
  <g
     inkscape:groupmode="layer"
     id="layer10"
     inkscape:label="Layer 10"
     style="opacity:1">
    <rect
       style="fill:#ffffff;stroke:none;stroke-linecap:round;stroke-linejoin:round"
       id="rect6155"
       width="64.346718"
       height="63.63961"
       x="86.267021"
       y="16.440233" />
    <path
       d="m 119.2579,25.70559 -8.11739,0.0064 c -3.78042,0 -6.56301,3.036215 -6.56301,6.343904 v 23.427288 c 0,3.204494 2.50816,5.835028 5.02924,6.241258 l -7.55931,11.338953 h 4.36162 l 5.40928,-7.925663 h 14.81735 l 5.40929,7.925663 h 4.3616 l -7.5593,-11.338966 c 2.52109,-0.40623 5.02924,-3.036763 5.02924,-6.241258 V 32.055887 c 0,-3.307689 -2.7826,-6.343904 -6.56302,-6.343904 l -8.0557,-0.0064 z m -3.21479,1.359143 h 6.36789 c 0.57518,0 1.07502,0.482721 1.07502,1.057879 v 1.862438 c 0,0.575167 -0.47246,1.068171 -1.07502,1.068171 h -6.36789 c -0.60255,0 -1.07501,-0.493004 -1.07501,-1.068171 v -1.862438 c 0,-0.575158 0.49984,-1.057879 1.07501,-1.057879 z m -4.68349,5.251852 h 15.73432 c 2.13633,0 3.26957,1.530381 3.26957,3.283261 v 4.217881 c 0.0167,2.026763 -1.4619,3.266054 -3.26957,3.266054 h -15.73432 c -1.80765,0 -3.28621,-1.239291 -3.26956,-3.266054 v -4.217881 c 0,-1.75288 1.13324,-3.283261 3.26956,-3.283261 z m -0.35604,20.23704 c 1.58908,0 2.87581,1.286724 2.87581,2.875825 0,1.589101 -1.28673,2.875825 -2.87581,2.875825 -1.58911,0 -2.87583,-1.286833 -2.87583,-2.875825 0,-1.588992 1.28672,-2.875825 2.87583,-2.875825 z m 16.37849,0 c 1.58911,0 2.87923,1.286724 2.87923,2.875825 0,1.589101 -1.29012,2.875825 -2.87923,2.875825 -1.58909,0 -2.87582,-1.286833 -2.87582,-2.875825 0,-1.588992 1.28673,-2.875825 2.87582,-2.875825 z"
       id="path6171"
       style="stroke-width:0.999999" />
  </g>
</svg>
