<?xml version="1.0" encoding="UTF-8" standalone="no"?>
<!-- Created with Inkscape (http://www.inkscape.org/) -->

<svg
   xmlns:dc="http://purl.org/dc/elements/1.1/"
   xmlns:cc="http://creativecommons.org/ns#"
   xmlns:rdf="http://www.w3.org/1999/02/22-rdf-syntax-ns#"
   xmlns:svg="http://www.w3.org/2000/svg"
   xmlns="http://www.w3.org/2000/svg"
   version="1.2"
   width="189.625"
   height="284.0625"
   id="svg2">
  <metadata
     id="metadata3109">
    <rdf:RDF>
      <cc:Work
         rdf:about="">
        <dc:format>image/svg+xml</dc:format>
        <dc:type
           rdf:resource="http://purl.org/dc/dcmitype/StillImage" />
        <dc:title></dc:title>
      </cc:Work>
    </rdf:RDF>
  </metadata>
  <defs
     id="defs3107" />
  <g
     id="g3129">
    <path
       d="m 189.236,273.166 c 0,5.797 -4.695,10.496 -10.488,10.496 H 10.892 C 5.095,283.662 0.4,278.963 0.4,273.166 V 10.884 C 0.4,5.103 5.095,0.4 10.892,0.4 h 167.855 c 5.793,0 10.488,4.703 10.488,10.484 v 262.282 z"
       id="path3077"
       style="fill:#ffffff" />
    <path
       d="m 189.236,273.166 c 0,5.797 -4.695,10.496 -10.488,10.496 H 10.892 C 5.095,283.662 0.4,278.963 0.4,273.166 V 10.884 C 0.4,5.103 5.095,0.4 10.892,0.4 h 167.855 c 5.793,0 10.488,4.703 10.488,10.484 v 262.282 z"
       id="path3079"
       style="fill:none;stroke:#1c1d20;stroke-width:0.80000001;stroke-miterlimit:3.86400008" />
    <path
       d="m 184.619,10.884 c 0,-3.238 -2.621,-5.867 -5.871,-5.867 H 10.892 c -3.25,0 -5.871,2.629 -5.871,5.867 v 262.281 c 0,3.25 2.621,5.879 5.871,5.879 h 167.855 c 3.25,0 5.871,-2.629 5.871,-5.879 V 10.884"
       id="path3081"
       style="fill:#19408b" />
    <path
       d="m 31.873,157.771 m 125.89,0 H 31.873 V 31.873 h 125.891 v 125.898 z"
       id="path3083"
       style="fill:#ffffff" />
    <path
       d="m 49.568,60.275 c 0,-3.164 2.563,-5.738 5.734,-5.738 3.168,0 5.734,2.574 5.734,5.738 0,3.172 -2.566,5.734 -5.734,5.734 -3.172,0 -5.734,-2.562 -5.734,-5.734"
       id="path3085"
       style="fill:#1c1d20" />
    <path
       d="m 75.47,73.787 -4.438,11.84 6.016,-2.195 c 0.18,0.762 0.273,1.559 0.273,2.379 0,5.723 -4.637,10.363 -10.359,10.363 -5.727,0 -10.367,-4.641 -10.367,-10.363 V 64.162 l -2.773,0.184 V 85.81 c 0,7.262 5.883,13.141 13.141,13.141 7.258,0 13.137,-5.879 13.137,-13.141 0,-1.203 -0.164,-2.375 -0.469,-3.484 L 75.47,73.787"
       id="path3087"
       style="fill:#1c1d20" />
    <path
       d="m 50.861,122.087 c 0.188,0 10.734,-4.816 10.734,-4.816 l -8.328,-4.254 c 0,0 10.547,-12.219 34.422,-12.219 0,0 22.02,-0.922 36.266,12.031 0.371,-0.184 16.285,-8.879 16.285,-8.879 v 28.496 l -16.285,-9.254 c 0,0 -10.363,12.215 -36.637,12.215 -0.188,-0.187 -18.508,1.852 -36.457,-13.32"
       id="path3089"
       style="fill:#1c1d20" />
    <path
       d="m 62.337,113.392 c 0,-1.543 1.238,-2.781 2.773,-2.781 1.531,0 2.773,1.238 2.773,2.781 0,1.527 -1.242,2.766 -2.773,2.766 -1.534,0 -2.773,-1.239 -2.773,-2.766"
       id="path3091"
       style="fill:#ffffff" />
    <path
       d="m 52.896,60.275 c 0,-1.324 1.078,-2.41 2.406,-2.41 1.324,0 2.406,1.086 2.406,2.41 0,1.332 -1.082,2.406 -2.406,2.406 -1.328,0 -2.406,-1.074 -2.406,-2.406"
       id="path3093"
       style="fill:#ffffff" />
    <path
       d="m 52.367,186.679 h 0.747 c 6.676,0 11.656,3.955 14.941,11.865 l 0.373,1.318 h -0.373 l -7.845,3.076 c -1.525,-4.688 -4.39,-7.031 -8.591,-7.031 -4.686,0 -7.425,4.248 -8.218,12.744 0,6.537 2.614,10.639 7.844,12.305 h 1.494 c 3.439,0 5.93,-2.49 7.471,-7.471 l 8.218,3.516 c -2.91,8.789 -8.265,13.184 -16.062,13.184 -5.105,0 -9.339,-2.051 -12.7,-6.152 -3.238,-4.156 -4.856,-9.576 -4.856,-16.26 0,-11.041 4.731,-17.926 14.194,-20.654 l 3.363,-0.44 z"
       id="path3097"
       style="fill:#ffffff" />
    <path
       d="m 86.039,198.105 c 5.54,0 9.525,3.223 11.953,9.668 l 1.121,6.152 c 0,8.844 -3.611,14.264 -10.833,16.26 h -2.988 c -5.868,0 -9.853,-3.809 -11.953,-11.426 l -0.374,-4.834 c 0,-7.672 3.361,-12.799 10.086,-15.381 l 2.988,-0.439 z m -5.603,14.941 v 2.637 c 0.451,4.395 2.318,6.592 5.604,6.592 3.361,0 5.229,-2.344 5.603,-7.031 v -0.879 c 0,-5.273 -1.868,-7.91 -5.603,-7.91 -3.737,0.366 -5.604,2.563 -5.604,6.591 z"
       id="path3099"
       style="fill:#ffffff" />
    <path
       d="m 114.178,187.119 v 11.426 l 0.747,0.879 h 5.603 v 7.91 h -6.35 v 10.986 c 0,1.575 0.498,2.601 1.494,3.076 h 2.241 l 2.241,-0.879 1.12,8.35 h -0.373 l -6.724,1.318 c -5.23,-0.842 -7.845,-3.039 -7.845,-6.592 v -16.26 h -4.482 v -7.91 h 3.735 l 0.747,-0.879 v -9.229 l 7.846,-2.196 z"
       id="path3101"
       style="fill:#ffffff" />
    <path
       d="m 138.045,198.105 c 5.54,0 9.524,3.223 11.953,9.668 l 1.12,6.152 c 0,8.844 -3.611,14.264 -10.832,16.26 h -2.988 c -5.868,0 -9.853,-3.809 -11.953,-11.426 l -0.374,-4.834 c 0,-7.672 3.361,-12.799 10.086,-15.381 l 2.988,-0.439 z m -5.603,14.941 v 2.637 c 0.451,4.395 2.318,6.592 5.604,6.592 3.361,0 5.229,-2.344 5.603,-7.031 v -0.879 c 0,-5.273 -1.868,-7.91 -5.603,-7.91 -3.737,0.366 -5.604,2.563 -5.604,6.591 z"
       id="path3103"
       style="fill:#ffffff" />
  </g>
</svg>
