<?xml version="1.0" encoding="utf-8"?>
<!-- Generator: Adobe Illustrator 13.0.1, SVG Export Plug-In . SVG Version: 6.00 Build 14948)  -->
<!DOCTYPE svg PUBLIC "-//W3C//DTD SVG 1.1//EN" "http://www.w3.org/Graphics/SVG/1.1/DTD/svg11.dtd">
<svg version="1.1" id="Capa_1" xmlns="http://www.w3.org/2000/svg" xmlns:xlink="http://www.w3.org/1999/xlink" x="0px" y="0px"
	 width="151.355px" height="226.628px" viewBox="0 0 151.355 226.628" enable-background="new 0 0 151.355 226.628"
	 xml:space="preserve">
<path fill="#FFFFFF" d="M150.955,217.869c0,4.621-3.746,8.359-8.367,8.359H8.763c-4.617,0-8.363-3.738-8.363-8.359V8.763
	C0.4,4.146,4.146,0.4,8.763,0.4h133.824c4.621,0,8.367,3.746,8.367,8.363V217.869z"/>
<path fill="none" stroke="#1C1C20" stroke-width="0.8" stroke-miterlimit="3.864" d="M150.955,217.869
	c0,4.621-3.746,8.359-8.367,8.359H8.763c-4.617,0-8.363-3.738-8.363-8.359V8.763C0.4,4.146,4.146,0.4,8.763,0.4h133.824
	c4.621,0,8.367,3.746,8.367,8.363V217.869z"/>
<path fill="#003F8A" d="M147.271,8.763c0-2.582-2.094-4.68-4.684-4.68H8.763c-2.586,0-4.684,2.098-4.684,4.68v209.105
	c0,2.586,2.098,4.684,4.684,4.684h133.824c2.59,0,4.684-2.098,4.684-4.684V8.763"/>
<path fill="#FFFFFF" d="M117.498,113.318v94.516h-16.73v-9.207c0,0,1.672-9.195-5.02-20.906L19.638,25.49l15.891-8.359
	l72.766,143.863v-47.676H117.498"/>
<rect x="98.259" y="23.818" fill="#FFFFFF" width="25.93" height="92.008"/>
<g>
	<defs>
		<rect id="SVGID_1_" x="98.259" y="23.818" width="25.93" height="92.008"/>
	</defs>
	<clipPath id="SVGID_2_">
		<use xlink:href="#SVGID_1_"  overflow="visible"/>
	</clipPath>
	<g clip-path="url(#SVGID_2_)">
		<rect x="97.847" y="65.054" width="1.412" height="2.626"/>
		<rect x="101.961" y="66.387" width="2.63" height="2.626"/>
		<rect x="107.293" y="65.054" width="1.239" height="2.626"/>
		<rect x="108.522" y="65.033" width="1.411" height="2.63"/>
		<rect x="112.636" y="66.366" width="2.629" height="2.63"/>
		<rect x="117.969" y="65.033" width="1.236" height="2.63"/>
		<rect x="97.886" y="70.347" width="1.411" height="2.63"/>
		<rect x="102.001" y="71.68" width="2.628" height="2.63"/>
		<rect x="107.333" y="70.347" width="1.237" height="2.63"/>
		<rect x="108.56" y="70.329" width="1.41" height="2.626"/>
		<rect x="112.674" y="71.662" width="2.628" height="2.626"/>
		<rect x="118.007" y="70.329" width="1.236" height="2.626"/>
		<rect x="97.924" y="75.603" width="1.411" height="2.626"/>
		<rect x="102.04" y="76.936" width="2.628" height="2.626"/>
		<rect x="107.372" y="75.603" width="1.237" height="2.626"/>
		<rect x="108.6" y="75.581" width="1.41" height="2.629"/>
		<rect x="112.714" y="76.914" width="2.628" height="2.629"/>
		<rect x="118.046" y="75.581" width="1.237" height="2.629"/>
		<rect x="97.924" y="80.895" width="1.411" height="2.63"/>
		<rect x="102.04" y="82.228" width="2.628" height="2.63"/>
		<rect x="107.372" y="80.895" width="1.237" height="2.63"/>
		<rect x="108.6" y="80.876" width="1.41" height="2.626"/>
		<rect x="112.714" y="82.209" width="2.628" height="2.626"/>
		<rect x="118.046" y="80.876" width="1.237" height="2.626"/>
		<rect x="97.964" y="86.151" width="1.411" height="2.626"/>
		<rect x="102.08" y="87.484" width="2.628" height="2.626"/>
		<rect x="107.412" y="86.151" width="1.237" height="2.626"/>
		<rect x="108.638" y="86.129" width="1.412" height="2.63"/>
		<rect x="112.752" y="87.462" width="2.63" height="2.63"/>
		<rect x="118.084" y="86.129" width="1.239" height="2.63"/>
		<rect x="98.002" y="91.443" width="1.411" height="2.63"/>
		<rect x="102.118" y="92.776" width="2.628" height="2.63"/>
		<rect x="107.45" y="91.443" width="1.237" height="2.63"/>
		<rect x="108.675" y="91.425" width="1.411" height="2.626"/>
		<rect x="112.791" y="92.758" width="2.628" height="2.626"/>
		<rect x="118.123" y="91.425" width="1.237" height="2.626"/>
		<rect x="98.041" y="96.699" width="1.411" height="2.626"/>
		<rect x="102.156" y="98.032" width="2.628" height="2.627"/>
		<rect x="107.488" y="96.699" width="1.236" height="2.626"/>
		<rect x="108.715" y="96.677" width="1.411" height="2.63"/>
		<rect x="112.831" y="98.01" width="2.628" height="2.63"/>
		<rect x="118.163" y="96.677" width="1.237" height="2.63"/>
		<rect x="98.041" y="101.991" width="1.411" height="2.63"/>
		<rect x="102.156" y="103.325" width="2.628" height="2.629"/>
		<rect x="107.488" y="101.991" width="1.236" height="2.63"/>
		<rect x="108.715" y="101.973" width="1.411" height="2.626"/>
		<rect x="112.831" y="103.306" width="2.628" height="2.626"/>
		<rect x="118.163" y="101.973" width="1.237" height="2.626"/>
		<rect x="98.081" y="107.248" width="1.411" height="2.626"/>
		<rect x="102.196" y="108.581" width="2.628" height="2.626"/>
		<rect x="107.528" y="107.248" width="1.236" height="2.626"/>
		<rect x="108.753" y="107.225" width="1.413" height="2.63"/>
		<rect x="112.869" y="108.558" width="2.63" height="2.63"/>
		<rect x="118.201" y="107.225" width="1.238" height="2.63"/>
		<rect x="119.214" y="65.091" width="1.413" height="2.629"/>
		<rect x="123.33" y="66.424" width="2.63" height="2.629"/>
		<rect x="119.254" y="70.386" width="1.411" height="2.63"/>
		<rect x="123.37" y="71.719" width="2.628" height="2.63"/>
		<rect x="119.292" y="75.639" width="1.411" height="2.63"/>
		<rect x="123.408" y="76.972" width="2.628" height="2.63"/>
		<rect x="119.292" y="80.935" width="1.411" height="2.63"/>
		<rect x="123.408" y="82.268" width="2.628" height="2.63"/>
		<rect x="119.331" y="86.187" width="1.413" height="2.63"/>
		<rect x="123.446" y="87.52" width="2.63" height="2.63"/>
		<rect x="119.371" y="91.483" width="1.411" height="2.63"/>
		<rect x="123.486" y="92.816" width="2.628" height="2.63"/>
		<rect x="119.409" y="96.735" width="1.411" height="2.63"/>
		<rect x="123.524" y="98.068" width="2.628" height="2.63"/>
		<rect x="119.409" y="102.031" width="1.411" height="2.63"/>
		<rect x="123.524" y="103.364" width="2.628" height="2.63"/>
		<rect x="119.447" y="107.284" width="1.412" height="2.63"/>
		<rect x="123.562" y="108.617" width="2.63" height="2.63"/>
		<rect x="97.693" y="22.861" width="1.411" height="2.628"/>
		<rect x="101.808" y="24.194" width="2.628" height="2.628"/>
		<rect x="107.14" y="22.861" width="1.236" height="2.628"/>
		<rect x="108.366" y="22.841" width="1.413" height="2.628"/>
		<rect x="112.481" y="24.174" width="2.63" height="2.628"/>
		<rect x="117.813" y="22.841" width="1.239" height="2.628"/>
		<rect x="97.731" y="28.153" width="1.413" height="2.63"/>
		<rect x="101.846" y="29.486" width="2.63" height="2.63"/>
		<rect x="107.178" y="28.153" width="1.238" height="2.63"/>
		<rect x="108.406" y="28.135" width="1.411" height="2.628"/>
		<rect x="112.521" y="29.468" width="2.628" height="2.628"/>
		<rect x="117.853" y="28.135" width="1.237" height="2.628"/>
		<rect x="97.771" y="33.409" width="1.41" height="2.628"/>
		<rect x="101.885" y="34.742" width="2.628" height="2.628"/>
		<rect x="107.217" y="33.409" width="1.237" height="2.628"/>
		<rect x="108.444" y="33.389" width="1.411" height="2.628"/>
		<rect x="112.559" y="34.722" width="2.628" height="2.628"/>
		<rect x="117.891" y="33.389" width="1.237" height="2.628"/>
		<rect x="97.771" y="38.701" width="1.41" height="2.63"/>
		<rect x="101.885" y="40.034" width="2.628" height="2.63"/>
		<rect x="107.217" y="38.701" width="1.237" height="2.63"/>
		<rect x="108.444" y="38.683" width="1.411" height="2.628"/>
		<rect x="112.559" y="40.016" width="2.628" height="2.628"/>
		<rect x="117.891" y="38.683" width="1.237" height="2.628"/>
		<rect x="97.809" y="43.957" width="1.41" height="2.628"/>
		<rect x="101.923" y="45.29" width="2.628" height="2.628"/>
		<rect x="107.255" y="43.957" width="1.237" height="2.628"/>
		<rect x="108.484" y="43.937" width="1.411" height="2.628"/>
		<rect x="112.599" y="45.27" width="2.628" height="2.628"/>
		<rect x="117.931" y="43.937" width="1.236" height="2.628"/>
		<rect x="97.847" y="49.25" width="1.412" height="2.63"/>
		<rect x="101.961" y="50.583" width="2.63" height="2.63"/>
		<rect x="107.293" y="49.25" width="1.239" height="2.63"/>
		<rect x="108.522" y="49.231" width="1.411" height="2.628"/>
		<rect x="112.636" y="50.564" width="2.629" height="2.628"/>
		<rect x="117.969" y="49.231" width="1.236" height="2.628"/>
		<rect x="97.886" y="54.505" width="1.411" height="2.627"/>
		<rect x="102.001" y="55.839" width="2.628" height="2.626"/>
		<rect x="107.333" y="54.505" width="1.237" height="2.627"/>
		<rect x="108.56" y="54.485" width="1.41" height="2.629"/>
		<rect x="112.674" y="55.817" width="2.628" height="2.63"/>
		<rect x="118.007" y="54.485" width="1.236" height="2.629"/>
		<rect x="97.886" y="59.798" width="1.411" height="2.63"/>
		<rect x="102.001" y="61.131" width="2.628" height="2.63"/>
		<rect x="107.333" y="59.798" width="1.237" height="2.63"/>
		<rect x="108.56" y="59.78" width="1.41" height="2.626"/>
		<rect x="112.674" y="61.113" width="2.628" height="2.626"/>
		<rect x="118.007" y="59.78" width="1.236" height="2.626"/>
		<rect x="119.061" y="22.899" width="1.411" height="2.63"/>
		<rect x="123.176" y="24.232" width="2.628" height="2.63"/>
		<rect x="119.099" y="28.193" width="1.411" height="2.63"/>
		<rect x="123.214" y="29.526" width="2.628" height="2.63"/>
		<rect x="119.139" y="33.447" width="1.41" height="2.63"/>
		<rect x="123.253" y="34.78" width="2.628" height="2.63"/>
		<rect x="119.139" y="38.741" width="1.41" height="2.63"/>
		<rect x="123.253" y="40.074" width="2.628" height="2.63"/>
		<rect x="119.177" y="43.995" width="1.41" height="2.63"/>
		<rect x="123.292" y="45.328" width="2.628" height="2.63"/>
		<rect x="119.214" y="49.289" width="1.411" height="2.63"/>
		<rect x="123.33" y="50.622" width="2.628" height="2.63"/>
		<rect x="119.254" y="54.542" width="1.411" height="2.63"/>
		<rect x="123.37" y="55.875" width="2.628" height="2.63"/>
		<rect x="119.254" y="59.838" width="1.411" height="2.63"/>
		<rect x="123.37" y="61.171" width="2.628" height="2.63"/>
		<rect x="98.167" y="112.597" width="1.411" height="2.626"/>
		<rect x="102.283" y="113.93" width="2.628" height="2.626"/>
		<rect x="107.615" y="112.597" width="1.236" height="2.626"/>
		<rect x="108.84" y="112.576" width="1.413" height="2.63"/>
		<rect x="112.956" y="113.909" width="2.63" height="2.63"/>
		<rect x="118.288" y="112.576" width="1.239" height="2.63"/>
		<rect x="119.534" y="112.637" width="1.413" height="2.626"/>
		<rect x="123.649" y="113.97" width="2.63" height="2.626"/>
	</g>
</g>
</svg>
