<?xml version="1.0" encoding="UTF-8" standalone="no"?>
<!-- Created with Inkscape (http://www.inkscape.org/) -->

<svg
   xmlns:dc="http://purl.org/dc/elements/1.1/"
   xmlns:cc="http://creativecommons.org/ns#"
   xmlns:rdf="http://www.w3.org/1999/02/22-rdf-syntax-ns#"
   xmlns:svg="http://www.w3.org/2000/svg"
   xmlns="http://www.w3.org/2000/svg"
   xmlns:sodipodi="http://sodipodi.sourceforge.net/DTD/sodipodi-0.dtd"
   xmlns:inkscape="http://www.inkscape.org/namespaces/inkscape"
   width="457.19699"
   height="534.349"
   id="svg2"
   version="1.1"
   inkscape:version="0.47 r22583"
   sodipodi:docname="Nuovo documento 1">
  <defs
     id="defs4">
    <inkscape:perspective
       sodipodi:type="inkscape:persp3d"
       inkscape:vp_x="0 : 526.18109 : 1"
       inkscape:vp_y="0 : 1000 : 0"
       inkscape:vp_z="744.09448 : 526.18109 : 1"
       inkscape:persp3d-origin="372.04724 : 350.78739 : 1"
       id="perspective10" />
    <inkscape:perspective
       id="perspective2891"
       inkscape:persp3d-origin="228.5985 : 178.11633 : 1"
       inkscape:vp_z="457.19699 : 267.1745 : 1"
       inkscape:vp_y="0 : 1000 : 0"
       inkscape:vp_x="0 : 267.1745 : 1"
       sodipodi:type="inkscape:persp3d" />
  </defs>
  <sodipodi:namedview
     id="base"
     pagecolor="#ffffff"
     bordercolor="#666666"
     borderopacity="1.0"
     inkscape:pageopacity="0.0"
     inkscape:pageshadow="2"
     inkscape:zoom="0.83535156"
     inkscape:cx="323.47691"
     inkscape:cy="161.27684"
     inkscape:document-units="px"
     inkscape:current-layer="layer1"
     showgrid="false"
     inkscape:window-width="1600"
     inkscape:window-height="838"
     inkscape:window-x="-8"
     inkscape:window-y="-8"
     inkscape:window-maximized="1" />
  <metadata
     id="metadata7">
    <rdf:RDF>
      <cc:Work
         rdf:about="">
        <dc:format>image/svg+xml</dc:format>
        <dc:type
           rdf:resource="http://purl.org/dc/dcmitype/StillImage" />
        <dc:title></dc:title>
      </cc:Work>
    </rdf:RDF>
  </metadata>
  <g
     inkscape:label="Livello 1"
     inkscape:groupmode="layer"
     id="layer1"
     transform="translate(-51.523087,-314.72708)">
    <path
       style="fill:#ffffff;fill-opacity:1;fill-rule:nonzero;stroke:#000000;stroke-width:3.5;stroke-linecap:butt;stroke-linejoin:round;stroke-miterlimit:4;stroke-dashoffset:0;stroke-opacity:1"
       d="m 65.879187,316.47708 428.484793,0 c 6.98378,0 12.6061,5.62232 12.6061,12.6061 l 0,505.6368 c 0,6.98378 -5.62232,12.6061 -12.6061,12.6061 l -428.484793,0 c -6.98378,0 -12.6061,-5.62232 -12.6061,-12.6061 l 0,-505.6368 c 0,-6.98378 5.62232,-12.6061 12.6061,-12.6061 z"
       id="rect4873" />
    <path
       style="fill:#18408c;fill-opacity:1;fill-rule:nonzero;stroke:none"
       d="m 82.000387,327.99228 398.545793,0 c 6.98378,0 12.6061,5.62232 12.6061,12.6061 l 0,89.9398 c 0,6.98378 -5.62232,12.6061 -12.6061,12.6061 l -398.545793,0 c -6.983779,0 -12.6061,-5.62232 -12.6061,-12.6061 l 0,-89.9398 c 0,-6.98378 5.622321,-12.6061 12.6061,-12.6061 z"
       id="rect4356" />
    <path
       style="fill:#ffffff;fill-opacity:1;fill-rule:nonzero;stroke:none"
       d="m 122.30334,334.90128 106.0611,0 c 2.51818,0 4.54545,2.02727 4.54545,4.54545 l 0,92.2421 c 0,2.51818 -2.02727,4.54545 -4.54545,4.54545 l -106.0611,0 c -2.51818,0 -4.54545,-2.02727 -4.54545,-4.54545 l 0,-92.2421 c 0,-2.51818 2.02727,-4.54545 4.54545,-4.54545 z"
       id="rect4875" />
    <path
       style="fill:#18408c;fill-opacity:1;fill-rule:nonzero;stroke:none"
       d="m 82.000387,455.99207 398.545793,0 c 6.98378,0 12.6061,5.62232 12.6061,12.6061 l 0,89.9398 c 0,6.98378 -5.62232,12.6061 -12.6061,12.6061 l -398.545793,0 c -6.983779,0 -12.6061,-5.62232 -12.6061,-12.6061 l 0,-89.9398 c 0,-6.98378 5.622321,-12.6061 12.6061,-12.6061 z"
       id="rect4867" />
    <path
       style="fill:#18408c;fill-opacity:1;fill-rule:nonzero;stroke:none"
       d="m 82.000387,585.99207 398.545793,0 c 6.98378,0 12.6061,5.62232 12.6061,12.6061 l 0,89.9398 c 0,6.98378 -5.62232,12.6061 -12.6061,12.6061 l -398.545793,0 c -6.983779,0 -12.6061,-5.62232 -12.6061,-12.6061 l 0,-89.9398 c 0,-6.98378 5.622321,-12.6061 12.6061,-12.6061 z"
       id="rect4869" />
    <path
       style="fill:#18408c;fill-opacity:1;fill-rule:nonzero;stroke:none"
       d="m 82.000387,715.99207 398.545793,0 c 6.98378,0 12.6061,5.62232 12.6061,12.6061 l 0,89.9398 c 0,6.98378 -5.62232,12.6061 -12.6061,12.6061 l -398.545793,0 c -6.983779,0 -12.6061,-5.62232 -12.6061,-12.6061 l 0,-89.9398 c 0,-6.98378 5.622321,-12.6061 12.6061,-12.6061 z"
       id="rect4871" />
    <path
       id="path5464"
       style="fill:#ffffff;fill-opacity:1;fill-rule:evenodd;stroke:none"
       d="m 154.57708,561.82608 39.898,-0.049 -12.97899,-93.638 -13.225,-0.239 -13.69401,93.926 z" />
    <path
       id="path5466"
       style="fill:none;stroke:#000000;stroke-width:3.0999999;stroke-linecap:butt;stroke-linejoin:miter;stroke-miterlimit:4;stroke-opacity:1;stroke-dasharray:18.6, 3.1;stroke-dashoffset:29.76"
       d="m 174.47008,481.18008 c 0,76.988 0,76.988 0,76.988" />
    <path
       d="m 462.37866,384.41733 c 0,6.88973 -1.84247,13.76488 -5.28785,19.73563 -3.44782,5.96103 -8.48015,10.99856 -14.44916,14.44568 -5.96659,3.44782 -12.84715,5.28751 -19.7348,5.28751 -6.89021,0 -13.77087,-1.83969 -19.73725,-5.28751 -2.98194,-1.72373 -5.74131,-3.83387 -8.17605,-6.27071 -4.87201,-4.86915 -8.43092,-11.04057 -10.21642,-17.69491 -1.78355,-6.65712 -1.78355,-13.78189 0,-20.4337 1.7855,-6.64934 5.34504,-12.82003 10.21642,-17.68846 4.86947,-4.8729 11.0413,-8.43531 17.69373,-10.21556 3.32874,-0.89267 6.77162,-1.34852 10.21895,-1.34852 6.88764,0 13.76848,1.8462 19.73472,5.28754 5.96902,3.4483 11.00204,8.48219 14.44916,14.45065 1.72165,2.97913 3.05377,6.19604 3.94324,9.51498 0.89467,3.32783 1.34531,6.77235 1.34531,10.21738"
       style="fill:#e41408;fill-rule:evenodd"
       id="path17" />
    <path
       d="m 451.32732,384.41213 c 0,-4.95384 -1.32726,-9.91083 -3.80888,-14.20565 -1.23942,-2.14427 -2.76214,-4.12957 -4.51295,-5.88542 -2.10667,-2.10188 -4.54455,-3.87769 -7.19698,-5.23321 -2.64723,-1.34805 -5.50918,-2.27584 -8.44647,-2.7379 -2.94476,-0.46887 -5.96245,-0.46887 -8.90412,0 -2.93729,0.46143 -5.79914,1.38985 -8.44897,2.7379 -2.20655,1.13045 -4.27218,2.54894 -6.11087,4.20751 -2.58188,2.32262 -4.73233,5.1235 -6.3079,8.21553 -2.25269,4.42078 -3.31949,9.43814 -3.06136,14.39201 0.26311,4.95387 1.84617,9.83067 4.54715,13.99054 2.70096,4.16022 6.51241,7.58964 10.93048,9.8449 4.42307,2.2504 9.43784,3.31485 14.3915,3.05898 2.47714,-0.13158 4.93435,-0.58916 7.29443,-1.35434 4.71536,-1.53175 9.01618,-4.32791 12.33554,-8.01354 2.65487,-2.94927 4.68134,-6.45888 5.91104,-10.22922 0.91828,-2.8354 1.38836,-5.80897 1.38836,-8.78809"
       style="fill:#ffffff;fill-rule:evenodd"
       id="path19" />
    <g
       transform="scale(1.0795613,0.92630218)"
       style="font-size:34.50363922px;font-stretch:normal;text-anchor:start;fill:#000000;fill-opacity:1;stroke:none"
       id="text2401">
      <path
         d="m 374.49172,403.41063 0.51792,0 0.51792,0 0.19422,0 0.19422,0 1.29481,0 0.51792,0 0.51792,0 0.19422,0 0.19422,0 2.00695,0 0.45318,0 0.38844,0 0.45318,0 0.38844,0 0.32371,0 0.38844,0 0.25896,0 1.16532,0 0.71214,0 0.25897,0 0.25896,0 0.25896,0 0.25896,0 1.10058,0 0.19422,0 0.77689,0 0,3.81967 -0.45319,0 -0.45318,0 -0.45318,0 -0.25896,0 -0.3237,0 -0.84162,0 -0.25897,0 -1.10058,0 -0.19422,0 -0.77688,0 -0.25896,0 -0.25896,0 -0.19423,0 -1.16532,0 -0.84162,0 -0.25896,0 -1.10059,0 -0.19422,0 -0.77688,0 -0.25896,0.19422 -0.0647,0.84162 c -0.0648,0.17267 -0.0863,0.34531 -0.0647,0.51793 -0.0755,0.25898 -0.1187,0.49636 -0.12948,0.71214 l -0.0647,0.25896 -0.12948,1.10058 c -0.0432,0.20504 -0.0648,0.37768 -0.0647,0.51793 l -0.0647,0.45318 c 2.35222,-1.1761 4.61812,-1.30558 6.79772,-0.38844 2.09325,0.84164 3.5607,2.20118 4.40234,4.07863 1.12214,2.33066 1.35952,4.61815 0.71214,6.86247 -0.60426,2.23354 -1.76958,3.8952 -3.49597,4.98499 -2.49252,1.32718 -4.97422,1.69404 -7.44513,1.10059 -2.89174,-0.7553 -4.85552,-2.41697 -5.89136,-4.985 l -0.0647,-0.25896 c -0.1079,-0.29132 -0.17264,-0.55028 -0.19422,-0.77688 l -0.12948,-0.38845 0.25896,-0.0647 c 0.39923,-0.18342 0.76609,-0.29132 1.10058,-0.3237 l 0.19422,-0.12948 0.19422,0 0.19422,-0.12948 0.25897,0 c 0.0647,-0.0432 0.12947,-0.0647 0.19422,-0.0647 0.0647,-0.0431 0.12947,-0.0647 0.19422,-0.0647 l 1.03584,-0.38844 0.45318,-0.0647 c 0.73372,3.08596 2.65434,4.40234 5.76188,3.94915 2.25511,-0.7445 3.39885,-2.21194 3.43123,-4.40233 0.18342,-1.52138 -0.0971,-2.85935 -0.84162,-4.0139 -1.32719,-1.39189 -2.85937,-1.95298 -4.59655,-1.68324 -1.60773,0.24819 -2.72989,1.02507 -3.3665,2.33065 l -1.10058,-0.19422 c -0.25897,-0.0755 -0.49635,-0.11868 -0.71214,-0.12949 l -0.19422,-0.0647 -0.71215,-0.12948 -0.19422,-0.0647 -0.19422,-0.0647 -0.19422,0 c -0.34528,-0.0755 -0.62582,-0.11867 -0.84162,-0.12948 l 0,-0.45318 0.0647,-0.12948 0,-0.19422 0,-0.19422 c 0.1079,-0.43159 0.17264,-0.79845 0.19422,-1.10058 l 0.0647,-0.51793 0.0647,-0.25896 0,-0.3237 c 0.0755,-0.25894 0.11869,-0.49632 0.12948,-0.71214 l 0.0647,-0.3237 0,-0.19422 0.0647,-0.45318 0.0647,-0.19423 0.0647,-0.45318 0.19422,-1.42428 0.0647,-0.45318 0.12948,-0.90637 0.0647,-0.25896 0,-0.25896 0.0647,-0.12948 0.12948,-1.03584 0.0647,-0.25896 0.0647,-0.84163 c 0.17264,-0.69053 0.25896,-1.27319 0.25896,-1.74798 z"
         style="font-size:33.14699936px;font-family:Transport;-inkscape-font-specification:Transport"
         id="path3088" />
      <path
         d="m 402.18435,402.89271 c 4.99577,-0.12946 8.16804,2.00697 9.51682,6.40928 1.80191,5.35187 1.56453,10.31529 -0.71215,14.89025 -2.38461,3.81968 -5.66478,5.26554 -9.84051,4.3376 -3.6902,-1.04663 -5.93453,-3.48518 -6.73299,-7.31565 l -0.12948,-0.19422 0,-0.25896 -0.0647,-0.25896 c -0.11869,-0.25895 -0.18343,-0.49633 -0.19422,-0.71214 l -0.0647,-0.32371 c -0.0863,-0.32368 -0.12948,-0.60422 -0.12948,-0.84162 -0.0863,-0.25895 -0.12948,-0.49633 -0.12948,-0.71214 l -0.12948,-1.10058 0,-0.25897 0,-1.16532 0,-0.19422 0,-0.19422 0.0647,-0.19422 0,-0.51792 c 0.0324,-0.48554 0.0971,-0.89556 0.19422,-1.23007 l 0,-0.19422 0,-0.19422 0.0647,-0.25896 0.0647,-0.19422 0.0647,-0.45318 0.12948,-0.51792 0.12948,-0.45319 c 0.0755,-0.39921 0.18343,-0.72291 0.3237,-0.9711 1.24085,-4.00308 3.76572,-6.31214 7.57461,-6.9272 z m 0.51792,3.81967 c -1.24086,0.3453 -2.25512,0.90639 -3.04279,1.68324 l -0.0647,0.12949 c -0.23739,0.38846 -0.45319,0.69058 -0.6474,0.90636 l -0.0647,0.19422 c -0.14028,0.44241 -0.29134,0.80927 -0.45318,1.10058 -0.054,0.41005 -0.14028,0.75533 -0.25896,1.03585 -0.0216,0.31293 -0.0648,0.57189 -0.12948,0.77688 l 0,0.25896 -0.0647,0.12948 c -0.0108,0.4532 -0.054,0.82006 -0.12948,1.10059 l 0,3.62545 c 0.12947,3.35571 1.40269,5.68636 3.81967,6.99194 l 0.19422,0 0.19422,0.0647 0.12948,0.0647 0.77688,0.19422 c 3.79808,-0.47475 5.67555,-3.17226 5.6324,-8.09252 0.44238,-6.54954 -1.52141,-9.93761 -5.89136,-10.16422 z"
         style="font-size:33.14699936px;font-family:Transport;-inkscape-font-specification:Transport"
         id="path3090" />
    </g>
    <path
       d="m 460.07565,514.08436 c 0,6.99022 -1.86934,13.96565 -5.36498,20.02349 -3.49811,6.04798 -8.60384,11.159 -14.65992,14.6564 -6.05361,3.4981 -13.03454,5.36463 -20.02265,5.36463 -6.99071,0 -13.97174,-1.86653 -20.02514,-5.36463 -3.02544,-1.74888 -5.82506,-3.8898 -8.29531,-6.36218 -4.94307,-4.94018 -8.55389,-11.20162 -10.36544,-17.95302 -1.80956,-6.75422 -1.80956,-13.98291 0,-20.73174 1.81155,-6.74633 5.423,-13.00703 10.36544,-17.94647 4.94049,-4.94398 11.20235,-8.55835 17.95182,-10.36457 3.37728,-0.90569 6.87039,-1.36819 10.368,-1.36819 6.98811,0 13.96931,1.87313 20.02258,5.36467 6.05608,3.49859 11.16251,8.60591 14.65991,14.66143 1.74677,3.02258 3.09832,6.28641 4.00076,9.65376 0.90772,3.37637 1.36493,6.87113 1.36493,10.36642"
       style="fill:#e41408;fill-rule:evenodd"
       id="path4166" />
    <path
       d="m 448.86312,514.07908 c 0,-5.0261 -1.34662,-10.05539 -3.86444,-14.41286 -1.2575,-2.17555 -2.80243,-4.1898 -4.57878,-5.97126 -2.1374,-2.13254 -4.61084,-3.93425 -7.30196,-5.30954 -2.68583,-1.36772 -5.58953,-2.30905 -8.56967,-2.77784 -2.98771,-0.4757 -6.04942,-0.4757 -9.03399,0 -2.98014,0.46816 -5.88373,1.41012 -8.57221,2.77784 -2.23874,1.14693 -4.3345,2.58612 -6.20001,4.26888 -2.61954,2.35649 -4.80135,5.19823 -6.39991,8.33536 -2.28554,4.48526 -3.3679,9.57581 -3.10601,14.60194 0.26695,5.02613 1.8731,9.97405 4.61347,14.19461 2.74037,4.2209 6.60741,7.70034 11.08992,9.98849 4.48759,2.28323 9.5755,3.3632 14.60141,3.1036 2.51328,-0.1335 5.00634,-0.59775 7.40083,-1.37409 4.78414,-1.55409 9.1477,-4.39104 12.51548,-8.13043 2.69359,-2.99229 4.74962,-6.55309 5.99725,-10.37843 0.93168,-2.87675 1.40862,-5.89369 1.40862,-8.91627"
       style="fill:#ffffff;fill-rule:evenodd"
       id="path4168" />
    <g
       transform="scale(1.0795613,0.92630219)"
       style="font-size:44.17606354px;font-stretch:normal;text-anchor:start;fill:#000000;fill-opacity:1;stroke:none"
       id="text4170">
      <path
         d="m 376.7543,543.10314 c 6.34454,0.0756 9.7542,3.76576 10.22899,11.07061 0.3021,4.78002 -0.84165,8.83708 -3.43125,12.17121 l -0.12948,0.12948 -0.19422,0.12948 c -0.42083,0.41003 -0.78769,0.71215 -1.10059,0.90637 l -0.45318,0.25896 -0.45318,0.19422 c -0.53952,0.29134 -1.03586,0.46398 -1.48903,0.51792 -4.97423,0.91716 -8.36232,-0.83083 -10.16425,-5.24397 l 0.3237,-0.0647 0.25896,-0.12948 0.64741,-0.19423 0.19422,-0.0647 0.19422,-0.0647 0.25896,-0.0647 c 0.0647,-0.0432 0.12948,-0.0647 0.19422,-0.0647 0.0432,-0.0539 0.0863,-0.0755 0.12948,-0.0647 l 0.19422,-0.0647 0.45319,-0.12948 c 0.3129,-0.17263 0.59344,-0.28053 0.84162,-0.3237 1.17611,2.29829 2.94568,3.2694 5.30872,2.91332 2.60039,-0.7553 3.98152,-2.61119 4.14339,-5.56768 l 0,-0.51792 c 0.0216,-0.39922 -2e-5,-0.7445 -0.0647,-1.03585 -2.24435,2.1904 -4.79081,2.90254 -7.63938,2.13643 -3.2586,-1.03583 -5.15765,-3.1291 -5.69715,-6.27982 -0.6582,-5.98847 1.82351,-9.50603 7.44515,-10.55269 z m 0.45318,3.94916 c -2.87017,0.79849 -4.14339,2.65439 -3.81969,5.56768 0.33449,1.79117 1.26243,3.02124 2.78384,3.69021 3.54992,0.75532 5.62162,-0.51791 6.21509,-3.81969 0.0539,-3.65781 -1.67248,-5.47054 -5.17924,-5.4382 z"
         style="font-size:33.14710999px;font-family:Transport;-inkscape-font-specification:Transport"
         id="path3083" />
      <path
         d="m 399.86664,543.16788 c 4.99579,-0.12945 8.16806,2.00698 9.51684,6.4093 1.80192,5.3519 1.56454,10.31533 -0.71214,14.89031 -2.38463,3.81969 -5.66481,5.26555 -9.84055,4.33761 -3.69021,-1.04664 -5.93455,-3.48519 -6.73301,-7.31568 l -0.12948,-0.19422 0,-0.25896 -0.0647,-0.25896 c -0.11869,-0.25895 -0.18343,-0.49633 -0.19422,-0.71215 l -0.0647,-0.3237 c -0.0863,-0.32369 -0.12948,-0.60423 -0.12948,-0.84162 -0.0863,-0.25895 -0.12948,-0.49633 -0.12948,-0.71215 l -0.12948,-1.10059 0,-0.25896 0,-1.16533 0,-0.19422 0,-0.19422 0.0647,-0.19422 0,-0.51792 c 0.0324,-0.48554 0.0971,-0.89556 0.19422,-1.23007 l 0,-0.19422 0,-0.19422 0.0647,-0.25897 0.0647,-0.19422 0.0647,-0.45318 0.12948,-0.51792 0.12948,-0.45319 c 0.0755,-0.39921 0.18343,-0.72291 0.3237,-0.9711 1.24086,-4.0031 3.76573,-6.31217 7.57464,-6.92723 z m 0.51792,3.81968 c -1.24087,0.34531 -2.25513,0.90639 -3.0428,1.68326 l -0.0647,0.12948 c -0.23739,0.38846 -0.45319,0.69058 -0.64741,0.90636 l -0.0647,0.19422 c -0.14027,0.44242 -0.29134,0.80928 -0.45318,1.10059 -0.054,0.41005 -0.14028,0.75533 -0.25896,1.03585 -0.0216,0.31293 -0.0648,0.57189 -0.12948,0.77688 l 0,0.25897 -0.0647,0.12948 c -0.0108,0.4532 -0.054,0.82006 -0.12948,1.10058 l 0,3.62547 c 0.12947,3.35572 1.4027,5.68638 3.81968,6.99197 l 0.19422,0 0.19423,0.0647 0.12948,0.0647 0.77688,0.19422 c 3.79809,-0.47476 5.67556,-3.17227 5.63242,-8.09256 0.44238,-6.54955 -1.52141,-9.93763 -5.89138,-10.16425 z"
         style="font-size:33.14710999px;font-family:Transport;-inkscape-font-specification:Transport"
         id="path3085" />
    </g>
    <path
       d="m 463.227,643.08422 c 0,7.49274 -2.00372,14.96962 -5.75066,21.46294 -3.74958,6.48276 -9.22235,11.9612 -15.71379,15.71002 -6.4888,3.74958 -13.97157,5.75029 -21.46204,5.75029 -7.49327,0 -14.97615,-2.00071 -21.46472,-5.75029 -3.24293,-1.8746 -6.24381,-4.16943 -8.89165,-6.81954 -5.29842,-5.29532 -9.16882,-12.00688 -11.11059,-19.24363 -1.93965,-7.23977 -1.93965,-14.98812 0,-22.22211 1.94177,-7.23132 5.81285,-13.94208 11.11059,-19.23661 5.29566,-5.2994 12.00767,-9.1736 19.24235,-11.10967 3.62007,-0.97079 7.36429,-1.46654 11.11334,-1.46654 7.49047,0 14.97354,2.00779 21.46196,5.75032 6.49144,3.75011 11.96497,9.22458 15.7138,15.71542 1.87233,3.23987 3.32104,6.73833 4.28836,10.34776 0.97298,3.61909 1.46305,7.36508 1.46305,11.11164"
       style="fill:#e41408;fill-rule:evenodd"
       id="path4257" />
    <path
       d="m 451.20842,643.07855 c 0,-5.3874 -1.44343,-10.77825 -4.14225,-15.44897 -1.3479,-2.33194 -3.00389,-4.491 -4.90794,-6.40052 -2.29105,-2.28584 -4.9423,-4.21708 -7.82688,-5.69123 -2.87892,-1.46604 -5.99136,-2.47504 -9.18573,-2.97754 -3.20249,-0.5099 -6.4843,-0.5099 -9.68343,0 -3.19437,0.50182 -6.3067,1.5115 -9.18845,2.97754 -2.39968,1.22938 -4.6461,2.77202 -6.64571,4.57576 -2.80787,2.52589 -5.14652,5.57192 -6.86,8.93457 -2.44984,4.8077 -3.61001,10.2642 -3.32929,15.65165 0.28614,5.38745 2.00775,10.69107 4.94512,15.21503 2.93737,4.52434 7.08241,8.25391 11.88716,10.70656 4.81019,2.44736 10.26386,3.60497 15.65108,3.3267 2.69395,-0.14309 5.36623,-0.64072 7.93286,-1.47287 5.12806,-1.66581 9.80532,-4.7067 13.4152,-8.71491 2.88722,-3.2074 5.09105,-7.02418 6.42838,-11.12451 0.99866,-3.08356 1.50988,-6.31739 1.50988,-9.55726"
       style="fill:#ffffff;fill-rule:evenodd"
       id="path4259" />
    <g
       transform="scale(1.0795608,0.92630264)"
       style="font-size:4.53075266px;font-stretch:normal;text-anchor:start;fill:#000000;fill-opacity:1;stroke:none"
       id="text4261">
      <path
         d="m 368.58148,683.38715 0.17578,0 0.23438,0 0.23437,0 0.23438,0 0.23437,0 0.9961,0 0.17578,0 0.70312,0 0,22.38281 -0.23437,0 -1.05469,0 -0.23437,0 -0.23438,0 -0.23437,0 -0.9961,0 -0.17578,0 -0.70312,0 0,-0.46875 0,-0.23438 0,-1.05468 0,-0.35157 0,-0.41015 0,-1.17188 0,-0.46875 0,-0.46875 0,-0.46875 0,-0.46875 0,-1.17187 0,-0.17578 0,-0.17579 0,-1.8164 0,-0.41016 0,-0.35156 0,-0.41016 0,-0.35156 0,-0.29297 0,-0.35156 0,-0.23438 0,-1.05468 0,-0.64453 0,-0.23438 0,-0.23437 0,-0.23438 0,-0.23437 0,-0.9961 0,-0.17578 0,-0.70312 -0.9961,0 -0.64453,0 -0.23437,0 -0.9961,0 -0.17578,0 -0.70312,0 0,-0.82032 0,-0.17578 0,-0.29297 0,-0.17578 0,-0.23437 0,-0.17578 0,-1.17188 0.41015,0 0.23438,-0.0586 0.64453,0 0.29297,-0.0586 0.17578,0 0.17578,0 0.17578,0 c 0.37109,-0.0781 0.66406,-0.11716 0.87891,-0.11718 0.17577,-0.14647 0.35155,-0.24412 0.52734,-0.29297 0.65429,-0.96678 0.92773,-1.96287 0.82031,-2.98828 z"
         style="font-size:30px;font-family:Transport;-inkscape-font-specification:Transport"
         id="path3076" />
      <path
         d="m 384.68011,682.9184 c 4.52147,-0.11717 7.39257,1.81643 8.61329,5.80078 1.63084,4.84376 1.41599,9.33595 -0.64454,13.47656 -2.15821,3.45703 -5.12696,4.76563 -8.90625,3.92578 -3.33984,-0.94726 -5.37109,-3.15429 -6.09375,-6.62109 l -0.11718,-0.17578 0,-0.23438 -0.0586,-0.23437 c -0.10742,-0.23437 -0.16601,-0.44921 -0.17578,-0.64454 l -0.0586,-0.29296 c -0.0781,-0.29296 -0.11719,-0.54687 -0.11719,-0.76172 -0.0781,-0.23437 -0.11719,-0.44921 -0.11719,-0.64453 l -0.11718,-0.9961 0,-0.23437 0,-1.05469 0,-0.17578 0,-0.17578 0.0586,-0.17578 0,-0.46875 c 0.0293,-0.43944 0.0879,-0.81053 0.17578,-1.11329 l 0,-0.17578 0,-0.17578 0.0586,-0.23437 0.0586,-0.17578 0.0586,-0.41016 0.11719,-0.46875 0.11719,-0.41016 c 0.0684,-0.36131 0.16601,-0.65427 0.29297,-0.8789 1.12304,-3.62303 3.40819,-5.71287 6.85546,-6.26953 z m 0.46875,3.45703 c -1.12305,0.31252 -2.04102,0.82033 -2.7539,1.52343 l -0.0586,0.11719 c -0.21485,0.35159 -0.41016,0.62502 -0.58593,0.82031 l -0.0586,0.17579 c -0.12696,0.40041 -0.26367,0.73244 -0.41015,0.99609 -0.0488,0.37111 -0.12696,0.68361 -0.23438,0.9375 -0.0195,0.28322 -0.0586,0.5176 -0.11719,0.70312 l 0,0.23438 -0.0586,0.11719 c -0.01,0.41017 -0.0488,0.7422 -0.11719,0.99609 l 0,3.28125 c 0.11719,3.03712 1.26953,5.14649 3.45703,6.32813 l 0.17579,0 0.17578,0.0586 0.11718,0.0586 0.70313,0.17578 c 3.43749,-0.42968 5.1367,-2.87108 5.09766,-7.32421 0.40037,-5.92772 -1.37697,-8.99412 -5.33204,-9.19922 z"
         style="font-size:30px;font-family:Transport;-inkscape-font-specification:Transport"
         id="path3078" />
      <path
         d="m 405.83246,682.9184 c 4.52147,-0.11717 7.39256,1.81643 8.61328,5.80078 1.63084,4.84376 1.416,9.33595 -0.64453,13.47656 -2.15822,3.45703 -5.12697,4.76563 -8.90625,3.92578 -3.33985,-0.94726 -5.3711,-3.15429 -6.09375,-6.62109 l -0.11719,-0.17578 0,-0.23438 -0.0586,-0.23437 c -0.10743,-0.23437 -0.16602,-0.44921 -0.17578,-0.64454 l -0.0586,-0.29296 c -0.0781,-0.29296 -0.11719,-0.54687 -0.11719,-0.76172 -0.0781,-0.23437 -0.11718,-0.44921 -0.11718,-0.64453 l -0.11719,-0.9961 0,-0.23437 0,-1.05469 0,-0.17578 0,-0.17578 0.0586,-0.17578 0,-0.46875 c 0.0293,-0.43944 0.0879,-0.81053 0.17578,-1.11329 l 0,-0.17578 0,-0.17578 0.0586,-0.23437 0.0586,-0.17578 0.0586,-0.41016 0.11718,-0.46875 0.11719,-0.41016 c 0.0684,-0.36131 0.16601,-0.65427 0.29297,-0.8789 1.12304,-3.62303 3.4082,-5.71287 6.85547,-6.26953 z m 0.46875,3.45703 c -1.12306,0.31252 -2.04103,0.82033 -2.75391,1.52343 l -0.0586,0.11719 c -0.21485,0.35159 -0.41016,0.62502 -0.58594,0.82031 l -0.0586,0.17579 c -0.12696,0.40041 -0.26368,0.73244 -0.41016,0.99609 -0.0488,0.37111 -0.12696,0.68361 -0.23437,0.9375 -0.0195,0.28322 -0.0586,0.5176 -0.11719,0.70312 l 0,0.23438 -0.0586,0.11719 c -0.01,0.41017 -0.0488,0.7422 -0.11718,0.99609 l 0,3.28125 c 0.11718,3.03712 1.26952,5.14649 3.45703,6.32813 l 0.17578,0 0.17578,0.0586 0.11719,0.0586 0.70312,0.17578 c 3.43749,-0.42968 5.13671,-2.87108 5.09766,-7.32421 0.40037,-5.92772 -1.37697,-8.99412 -5.33203,-9.19922 z"
         style="font-size:30px;font-family:Transport;-inkscape-font-specification:Transport"
         id="path3080" />
    </g>
    <path
       d="m 462.37883,773.84193 c 0,7.19123 -1.9231,14.36724 -5.51926,20.59928 -3.59869,6.22189 -8.85125,11.47988 -15.08147,15.07785 -6.2277,3.5987 -13.40936,5.5189 -20.59842,5.5189 -7.19174,0 -14.37351,-1.9202 -20.60099,-5.5189 -3.11243,-1.79916 -5.99256,-4.00165 -8.53385,-6.54512 -5.08521,-5.08224 -8.79986,-11.52373 -10.6635,-18.46928 -1.8616,-6.94844 -1.8616,-14.385 0,-21.3279 1.86364,-6.94033 5.57894,-13.38106 10.6635,-18.46253 5.08257,-5.08616 11.52449,-8.80446 18.46804,-10.66262 3.47441,-0.93173 7.06796,-1.40753 10.66615,-1.40753 7.18906,0 14.37101,1.92699 20.59834,5.51893 6.23023,3.59921 11.48351,8.85339 15.08148,15.08304 1.79699,3.10949 3.1874,6.46718 4.1158,9.93136 0.93382,3.47346 1.40418,7.06872 1.40418,10.66452"
       style="fill:#e41408;fill-rule:evenodd"
       id="path4348" />
    <path
       d="m 450.84387,773.83649 c 0,-5.17062 -1.38534,-10.34454 -3.97556,-14.82731 -1.29366,-2.23811 -2.88302,-4.31028 -4.71045,-6.14297 -2.19886,-2.19386 -4.74342,-4.04738 -7.51193,-5.46222 -2.76307,-1.40705 -5.75027,-2.37544 -8.8161,-2.85772 -3.07362,-0.48938 -6.22338,-0.48938 -9.29378,0 -3.06583,0.48162 -6.05292,1.45067 -8.8187,2.85772 -2.30312,1.17991 -4.45915,2.66048 -6.3783,4.39163 -2.69487,2.42426 -4.93942,5.34772 -6.58394,8.57506 -2.35127,4.61423 -3.46475,9.85117 -3.19533,15.02183 0.27463,5.17065 1.92696,10.26087 4.74614,14.60278 2.81916,4.34228 6.7974,7.92177 11.40882,10.27573 4.61663,2.34888 9.85084,3.45991 15.02128,3.19284 2.58555,-0.13734 5.1503,-0.61494 7.61365,-1.4136 4.92171,-1.59878 9.41075,-4.51731 12.87537,-8.36423 2.77104,-3.07833 4.8862,-6.74153 6.16971,-10.67687 0.95847,-2.95947 1.44912,-6.06317 1.44912,-9.17267"
       style="fill:#ffffff;fill-rule:evenodd"
       id="path4350" />
    <g
       transform="scale(1.0251024,0.9755123)"
       style="font-size:4.25276947px;font-stretch:normal;text-anchor:start;fill:#000000;fill-opacity:1;stroke:none"
       id="text4352">
      <path
         d="m 390.5941,780.64726 0.17933,0 0.23911,0 0.23911,0 0.2391,0 0.23911,0 1.01621,0 0.17933,0 0.71732,0 0,22.83477 -0.23911,0 -1.07598,0 -0.23911,0 -0.2391,0 -0.23911,0 -1.01621,0 -0.17933,0 -0.71732,0 0,-0.47822 0,-0.2391 0,-1.07599 0,-0.35866 0,-0.41844 0,-1.19554 0,-0.47821 0,-0.47822 0,-0.47821 0,-0.47822 0,-1.19553 0,-0.17933 0,-0.17933 0,-1.85309 0,-0.41844 0,-0.35866 0,-0.41844 0,-0.35866 0,-0.29888 0,-0.35866 0,-0.23911 0,-1.07598 0,-0.65755 0,-0.23911 0,-0.23911 0,-0.2391 0,-0.23911 0,-1.01621 0,-0.17933 0,-0.71732 -1.01621,0 -0.65754,0 -0.23911,0 -1.01621,0 -0.17933,0 -0.71732,0 0,-0.83688 0,-0.17933 0,-0.29888 0,-0.17933 0,-0.23911 0,-0.17933 0,-1.19554 0.41844,0 0.2391,-0.0598 0.65755,0 0.29888,-0.0598 0.17933,0 0.17933,0 0.17934,0 c 0.37858,-0.0797 0.67746,-0.11953 0.89665,-0.11956 0.17932,-0.14942 0.35865,-0.24904 0.53799,-0.29888 0.6675,-0.9863 0.94646,-2.0025 0.83688,-3.04862 z"
         style="font-size:30.60576439px;font-family:Transport;-inkscape-font-specification:Transport"
         id="path3069" />
      <path
         d="m 405.95676,780.34837 c 4.7921,-0.11952 7.50198,1.97267 8.12966,6.27658 0.23909,1.65384 0.0996,3.18811 -0.41844,4.60282 l -0.11956,0.17933 -0.0598,0.17933 -0.17933,0.47821 -0.11956,0.11956 -0.53799,1.0162 -0.17933,0.11956 -0.0598,0.17933 -0.11955,0.17933 -0.11955,0.11955 -0.11956,0.17933 -0.53799,0.47822 c -0.0399,0.0697 -0.0797,0.1096 -0.11955,0.11955 l -0.0598,0.11956 c -0.41845,0.50811 -0.79704,0.8867 -1.13576,1.13576 l -0.11955,0.17933 -0.17934,0.11955 c -0.0399,0.0697 -0.0797,0.1096 -0.11955,0.11956 l -0.65754,0.71732 -0.17934,0.0598 c -0.1893,0.23912 -0.38856,0.41845 -0.59776,0.538 -0.12953,0.15941 -0.26901,0.27896 -0.41844,0.35866 -0.16938,0.19926 -0.34871,0.33874 -0.53799,0.41844 l -0.11956,0.17933 -0.17933,0.0598 c -0.0498,0.0598 -0.1096,0.0996 -0.17933,0.11956 l -0.11955,0.17933 -0.53799,0.29888 c -0.38856,0.34871 -0.7273,0.60774 -1.01621,0.7771 l 0.41844,0 0.41843,0 0.23911,0 0.29889,0 0.7771,0 0.2391,0 1.01621,0 0.47822,0 0.41843,0 0.23911,0 0.23911,0 0.17933,0 1.07598,0 0.7771,0 0.23911,0 1.01621,0 0.17933,0 0.71732,0 0,3.52684 -0.47821,0 -0.17934,0 -1.19553,0 -0.17933,0 -0.23911,0 -1.07598,0 -0.83688,0 -0.17933,0 -0.29889,0 -0.17933,0 -0.2391,0 -0.17934,0 -1.19553,0 -1.01621,0 -0.17933,0 -0.71732,0 -0.7771,0 -0.23911,0 -1.01621,0 -0.17933,0 -0.71732,0 -0.65755,0 -0.29888,0 -0.7771,0 -0.23911,0 -1.0162,0 -0.17934,0 -0.71732,0 0,-0.65755 0,-0.23911 0,-0.2391 0,-0.23911 0,-0.23911 0,-1.0162 0,-0.17934 0,-0.71732 0.23911,-0.17933 1.25531,-0.65754 0.17933,-0.17934 0.23911,-0.11955 c 0.19925,-0.1594 0.39851,-0.27895 0.59777,-0.35866 l 0.17933,-0.17933 0.17933,-0.11955 0.17933,-0.11956 0.11956,-0.11955 0.11955,-0.0598 c 0.19925,-0.12951 0.35866,-0.24906 0.47822,-0.35866 l 0.17933,-0.0598 c 0.0498,-0.0598 0.10958,-0.0996 0.17933,-0.11955 l 0.11955,-0.17933 0.41844,-0.23911 0.0598,-0.11955 0.11955,-0.0598 0.7771,-0.59777 0.17933,-0.17933 0.17933,-0.11955 0.17933,-0.11956 c 0.0398,-0.0697 0.0797,-0.10958 0.11955,-0.11955 0.0399,-0.0498 0.0797,-0.0697 0.11956,-0.0598 l 0.11955,-0.17933 c 0.30884,-0.23909 0.54795,-0.45828 0.71733,-0.65754 3.33753,-2.44088 4.53306,-5.4895 3.58661,-9.14587 l -0.41844,-0.59777 c -1.49443,-1.19551 -3.0287,-1.41469 -4.60282,-0.65754 -1.6638,0.78708 -2.32134,2.30143 -1.97264,4.54304 l -0.17933,0 -1.07598,0 -0.17933,0 -1.85309,0 -0.53799,0 c -0.23911,-5.07105 2.07226,-7.90048 6.93412,-8.48832 z"
         style="font-size:30.60576439px;font-family:Transport;-inkscape-font-specification:Transport"
         id="path3071" />
      <path
         d="m 426.50506,780.16904 c 4.61277,-0.11952 7.54184,1.85311 8.78721,5.91791 1.66377,4.94158 1.44458,9.52447 -0.65755,13.74869 -2.2018,3.52684 -5.23049,4.86185 -9.08609,4.00505 -3.40728,-0.96639 -5.47955,-3.21798 -6.21679,-6.75479 l -0.11955,-0.17933 0,-0.23911 -0.0598,-0.2391 c -0.1096,-0.2391 -0.16937,-0.45828 -0.17933,-0.65755 l -0.0598,-0.29888 c -0.0797,-0.29888 -0.11956,-0.55791 -0.11955,-0.7771 -0.0797,-0.2391 -0.11956,-0.45828 -0.11956,-0.65755 l -0.11955,-1.01621 0,-0.2391 0,-1.07599 0,-0.17933 0,-0.17933 0.0598,-0.17933 0,-0.47822 c 0.0299,-0.44831 0.0897,-0.82689 0.17933,-1.13576 l 0,-0.17933 0,-0.17933 0.0598,-0.2391 0.0598,-0.17934 0.0598,-0.41843 0.11955,-0.47822 0.11956,-0.41844 c 0.0697,-0.3686 0.16936,-0.66749 0.29888,-0.89665 1.14572,-3.69618 3.47702,-5.82822 6.99389,-6.39613 z m 0.47822,3.52684 c -1.14573,0.31883 -2.08224,0.8369 -2.80951,1.5542 l -0.0598,0.11955 c -0.21919,0.35868 -0.41845,0.63764 -0.59777,0.83688 l -0.0598,0.17933 c -0.12952,0.40849 -0.269,0.74723 -0.41843,1.01621 -0.0498,0.3786 -0.12953,0.69741 -0.23911,0.95643 -0.0199,0.28894 -0.0598,0.52804 -0.11956,0.71732 l 0,0.23911 -0.0598,0.11955 c -0.01,0.41846 -0.0498,0.75719 -0.11956,1.01621 l 0,3.3475 c 0.11955,3.09845 1.29516,5.25041 3.52684,6.45591 l 0.17933,0 0.17933,0.0598 0.11955,0.0598 0.71733,0.17933 c 3.50689,-0.43836 5.24042,-2.92906 5.20059,-7.47211 0.40846,-6.04741 -1.40477,-9.17573 -5.4397,-9.38497 z"
         style="font-size:30.60576439px;font-family:Transport;-inkscape-font-specification:Transport"
         id="path3073" />
    </g>
    <path
       id="path4877"
       style="fill:#000000;fill-opacity:1;fill-rule:evenodd;stroke:#000000;stroke-width:1px;stroke-linecap:butt;stroke-linejoin:miter;stroke-opacity:1"
       d="m 126.07809,412.51918 97.302,-0.4071 0,-31.3484 -8.142,-0.4071 0.407,17.0991 -4.886,0 0,-4.0712 -3.664,0 0.407,-3.257 -3.664,0 0,-3.6641 -7.735,-0.4071 0,4.4783 -2.443,-0.4071 0,3.6641 -13.842,-0.4071 -0.407,-4.0713 -8.142,0 -0.408,4.4784 -4.885,0 -0.407,-19.949 -3.664,0 0,-7.7353 -3.664,-0.4071 -0.407,-5.2926 -3.665,-0.4072 0.408,7.7354 -3.6645,0 -0.4072,8.9567 -3.6641,0 0.4071,16.692 -4.0712,0 0,-3.257 -3.2569,-0.4071 0,-2.8499 -6.9211,0 0,3.257 -3.6641,0 0,4.4783 -3.6641,-0.4071 0.4071,18.3205 z" />
    <path
       transform="matrix(0.30959,0,0,0.272411,81.169885,711.01308)"
       style="fill:#ffffff"
       d="m 144,120 4,0 -7,300 0,0 -17,0 z"
       id="polygon5018" />
    <path
       transform="matrix(0.30959,0,0,0.272411,81.169885,711.01308)"
       style="fill:#ffffff"
       d="m 115.5,120.17 4.17,0 L 48,420 l 0,0 -18,0 z"
       id="polygon5020" />
    <path
       transform="matrix(0.30959,0,0,0.272411,81.169885,711.01308)"
       style="fill:#ffffff"
       d="m 158,120 -4,0 7,300 0,0 17,0 z"
       id="polygon5022" />
    <path
       transform="matrix(0.30959,0,0,0.272411,81.169885,711.01308)"
       style="fill:#ffffff"
       d="m 186.5,120.17 -4.17,0 L 254,420 l 0,0 18,0 z"
       id="polygon5024" />
    <path
       transform="matrix(0.30959,0,0,0.272411,81.169885,711.01308)"
       style="fill:#ffffff"
       d="m 172,120 -3,0 42,300 0,0 9,0 z"
       id="polygon5026" />
    <path
       style="fill:#19408c;fill-opacity:1"
       d="m 132.25229,745.33704 4.64385,0 0,4.08617 -4.64385,0 0,-4.08617 z"
       id="rect5028" />
    <path
       style="fill:#19408c;fill-opacity:1"
       d="m 133.18108,753.50909 5.57262,0 0,5.72064 -5.57262,0 0,-5.72064 z"
       id="rect5030" />
    <path
       style="fill:#19408c;fill-opacity:1"
       d="m 136.27698,764.95105 4.64385,0 0,8.98958 -4.64385,0 0,-8.98958 z"
       id="rect5032" />
    <path
       style="fill:#19408c;fill-opacity:1"
       d="m 138.75368,784.01904 7.43016,0 0,16.8895 -7.43016,0 0,-16.8895 z"
       id="rect5034" />
    <path
       transform="matrix(0.30959,0,0,0.272411,81.169885,711.01308)"
       style="fill:#ffffff"
       d="m 130,120 3,0 -42,300 0,0 -9,0 z"
       id="polygon5036" />
    <path
       style="fill:#19408c;fill-opacity:1"
       d="m 118.93989,745.33704 4.64385,0 0,4.08617 -4.64385,0 0,-4.08617 z"
       id="rect5038" />
    <path
       style="fill:#19408c;fill-opacity:1"
       d="m 117.08239,753.50909 5.57262,0 0,5.72064 -5.57262,0 0,-5.72064 z"
       id="rect5040" />
    <path
       style="fill:#19408c;fill-opacity:1"
       d="m 114.91528,764.95105 4.64385,0 0,8.98958 -4.64385,0 0,-8.98958 z"
       id="rect5042" />
    <path
       style="fill:#19408c;fill-opacity:1"
       d="m 109.65218,784.01904 7.43016,0 0,16.8895 -7.43016,0 0,-16.8895 z"
       id="rect5044" />
    <g
       id="g5046"
       transform="matrix(0.30959,0,0,0.272411,81.169885,711.01308)">
      <path
         id="path5048"
         style="fill:#ffffff"
         d="m 64.688,85.609 -1.05,0 -8.41,0 -0.61,0 -0.161,-0.588 -0.167,-0.608 -0.028,-0.104 0,-0.108 0,-0.106 -0.047,-0.059 -0.175,-0.22 0,-0.28 0,-0.161 c -0.063,-0.159 -0.106,-0.317 -0.128,-0.474 l 0.108,0.114 c -0.104,-0.116 -0.177,-0.258 -0.218,-0.421 l -0.083,-0.105 -0.175,-0.22 0,-0.281 0,-0.173 -0.071,-0.287 -0.244,-0.537 -0.026,-0.059 -0.016,-0.061 -0.505,-1.845 -12.591,0 -0.071,0.315 -0.016,0.071 -0.029,0.067 -0.136,0.317 -0.096,0.454 c -0.044,0.203 -0.108,0.396 -0.191,0.578 l -0.146,0.58 -0.326,0.985 -0.047,0.319 -0.018,0.126 -0.057,0.114 -0.073,0.146 c -0.104,0.368 -0.211,0.649 -0.336,0.862 l -0.246,1.034 -0.146,0.614 -0.633,0 -8.298,0 -0.991,0 0.209,-0.968 0.167,-0.775 0.333,-1.015 0.045,-0.274 0.02,-0.122 0.057,-0.11 0.112,-0.22 0.08,-0.209 0.108,-0.224 0.482,-1.497 0.071,-0.183 0,-0.126 0,-0.1 0.024,-0.098 0.112,-0.441 0.026,-0.104 0.053,-0.094 0.168,-0.299 0.25,-0.948 0.252,-0.647 0.15,-0.456 c 0.108,-0.362 0.226,-0.71 0.34,-1.02 0.107,-0.287 0.197,-0.537 0.271,-0.752 l 0.256,-0.773 c 0.083,-0.396 0.185,-0.761 0.305,-1.078 0.105,-0.283 0.195,-0.533 0.269,-0.749 0.096,-0.249 0.169,-0.413 0.232,-0.539 l 0.059,-0.118 0.032,-0.067 0.146,-0.727 0.022,-0.106 0.047,-0.095 0.285,-0.572 0.145,-0.676 0.033,-0.152 0.089,-0.13 0.021,-0.03 c 0.071,-0.332 0.152,-0.637 0.242,-0.905 0.091,-0.275 0.208,-0.547 0.348,-0.81 l 0.089,-0.626 0.012,-0.094 0.035,-0.087 0.814,-2.063 0.152,-0.606 0.012,-0.051 0.021,-0.049 0.11,-0.277 0.096,-0.293 c 0.175,-0.6 0.376,-1.107 0.604,-1.518 l 0.085,-0.47 0.014,-0.081 0.031,-0.076 0.055,-0.136 0,-0.175 0,-0.155 0.057,-0.142 0.11,-0.275 0.631,-1.687 0.1,-0.499 0.022,-0.105 0.049,-0.098 0.222,-0.441 0.112,-0.265 c 0.146,-0.682 0.315,-1.205 0.509,-1.589 l 0.087,-0.395 0.173,-0.525 c 0.082,-0.398 0.183,-0.761 0.303,-1.078 0.104,-0.276 0.193,-0.506 0.262,-0.689 l 0.098,-0.385 0.116,-0.411 c 0.102,-0.271 0.183,-0.456 0.26,-0.631 0.053,-0.12 0.094,-0.238 0.122,-0.348 l 0.328,-0.985 0.045,-0.271 0.012,-0.069 0.022,-0.065 0.775,-2.213 0.187,-0.535 0.568,0 0.663,0 9.295,0 0.799,0 0,0.799 0,0.092 c 0.124,0.264 0.23,0.513 0.313,0.749 0.1,0.283 0.173,0.567 0.218,0.848 l 0.201,0.603 0.096,0.33 c 0.075,0.161 0.102,0.33 0.11,0.474 0,0.006 0.002,0.01 0.004,0.016 0.092,0.108 0.165,0.254 0.2,0.454 0.161,0.293 0.254,0.551 0.285,0.793 l 0.57,1.501 0.051,0.136 0,0.146 0,0.037 c 0.124,0.265 0.232,0.529 0.317,0.785 0.1,0.303 0.169,0.598 0.211,0.887 0.175,0.396 0.307,0.736 0.403,1.036 0.089,0.293 0.157,0.551 0.199,0.779 0.043,0.109 0.078,0.231 0.102,0.372 l 0.211,0.409 0.026,0.049 0.022,0.053 c 0.082,0.211 0.145,0.389 0.187,0.533 0.027,0.088 0.045,0.145 0.065,0.188 l 0.079,0.165 0,0.185 0,0.1 c 0.035,0.073 0.061,0.152 0.082,0.234 0.138,0.246 0.234,0.511 0.283,0.789 l 0.531,1.483 0.105,0.366 0.078,0.157 0.049,0.1 0.02,0.108 0.141,0.75 0.156,0.271 0.242,0.486 0.053,0.108 0.02,0.118 0.055,0.332 0.091,0.295 0.195,0.478 0.021,0.051 0.014,0.055 c 0.035,0.138 0.067,0.266 0.102,0.386 0.035,0.12 0.067,0.228 0.1,0.328 l 0.041,0.122 0,0.13 0,0.144 c 0.053,0.155 0.1,0.287 0.143,0.399 0.059,0.159 0.126,0.352 0.203,0.584 l 0.596,1.512 0.026,0.067 0.014,0.069 0.09,0.45 0.228,0.456 0.256,0.692 0.049,0.134 0,0.14 0,0.085 0.082,0.163 0.035,0.069 0.021,0.073 0.11,0.389 0.104,0.411 c 0.256,0.588 0.462,1.131 0.612,1.616 0.134,0.441 0.24,0.856 0.319,1.243 0.069,0.118 0.114,0.247 0.139,0.383 0.494,1.078 0.826,2.041 0.986,2.869 l 0.082,0.205 0.136,0.464 0.108,0.421 0.087,0.222 0.037,0.087 0.012,0.096 0.041,0.289 c 0.01,0.022 0.018,0.042 0.026,0.059 0.098,0.122 0.163,0.271 0.195,0.441 l 0.051,0.046 0.01,0.163 0.152,0.303 0.085,0.171 0,0.189 0,0.033 0.028,0.026 0.008,0.148 c 0.218,0.36 0.346,0.686 0.397,0.991 0.044,0.141 0.11,0.336 0.175,0.499 0.087,0.224 0.155,0.423 0.199,0.602 l 0.161,0.588 0.283,1.011 0,0 z m -22.143,-14.766 7.682,0 L 49.71,69.295 49.206,67.61 C 49.102,67.345 49.002,67.03 48.923,66.729 48.858,66.491 48.795,66.29 48.73,66.126 L 48.66,65.92 C 48.573,65.552 48.51,65.316 48.445,65.139 48.386,64.976 48.341,64.863 48.311,64.8 L 48.26,64.696 48.242,64.58 48.187,64.248 48.116,64.01 l -0.202,-0.452 -0.041,-0.087 -0.017,-0.096 -0.11,-0.608 -0.022,-0.15 -0.035,-0.035 -0.177,-0.177 -0.044,-0.247 -0.11,-0.608 -0.037,-0.265 c -0.08,-0.15 -0.132,-0.307 -0.159,-0.466 L 47.15,60.788 47.109,60.662 47,60.332 c -0.069,-0.202 -0.145,-0.405 -0.228,-0.61 -0.104,-0.244 -0.2,-0.515 -0.281,-0.808 l -0.061,-0.346 -0.04,-0.118 -0.297,1.023 -0.499,1.666 -0.02,0.067 -0.033,0.063 -0.077,0.152 -0.588,2.032 -0.11,0.385 -0.626,1.715 -0.138,0.415 c -0.075,0.497 -0.183,0.944 -0.328,1.329 -0.053,0.401 -0.177,0.79 -0.368,1.158 l -0.09,0.311 c -0.105,0.5 -0.242,0.873 -0.425,1.142 l -0.246,0.935 0,0 z" />
    </g>
    <g
       id="g5050"
       transform="matrix(0.30959,0,0,0.272411,81.169885,711.01308)">
      <path
         id="path5052"
         style="fill:#ffffff"
         d="m 86.374,86.438 c -1.709,0 -3.401,-0.294 -5.028,-0.875 -7.44,-2.815 -11.205,-8.521 -11.205,-16.965 0,-1.018 0.057,-2.105 0.169,-3.231 l -0.004,-17.515 0,-0.963 0.944,0.176 0.542,0.1 7.003,0 0.799,0 0,0.799 0,23.175 0.55,1.899 c 1.515,2.545 3.534,3.89 6.171,4.108 2.778,-0.241 4.799,-1.412 6.175,-3.575 l 0,-0.104 0,-0.149 0.053,-0.139 c 0.174,-0.452 0.323,-0.91 0.443,-1.357 0.117,-0.431 0.192,-0.883 0.225,-1.343 0.039,-0.298 0.065,-0.531 0.083,-0.758 0.017,-0.212 0.024,-0.423 0.024,-0.624 l 0,-21.133 0,-0.799 0.799,0 7.579,0 0.799,0 0,0.799 0,23.788 0,0.078 -0.014,0.078 c -0.035,0.176 -0.06,0.315 -0.078,0.419 -0.012,0.068 -0.019,0.11 -0.019,0.146 l 0,0.188 -0.082,0.167 -0.062,0.123 c -0.063,0.356 -0.119,0.691 -0.167,1.001 -0.063,0.38 -0.131,0.724 -0.208,1.039 -1.562,4.307 -4.125,7.428 -7.641,9.359 -2.66,1.389 -5.299,2.088 -7.85,2.088 l 0,0 z" />
    </g>
    <g
       id="g5054"
       transform="matrix(0.30959,0,0,0.272411,81.169885,711.01308)">
      <path
         style="fill:#ffffff"
         d="m 108.421,55.791 0,-0.801 0,-7.303 0,-0.801 0.801,0 0.388,0 28.16,0 0.8,0 0,0.801 0,7.303 0,0.801 -0.8,0 -9.656,0 0,28.906 0,0.801 0,0 -0.801,0 -7.69,0 -0.801,0 0,-0.801 0,-28.906 -9.6,0 z"
         id="polygon5056" />
    </g>
    <g
       id="g5058"
       transform="matrix(0.30959,0,0,0.272411,81.169885,711.01308)">
      <path
         id="path5060"
         style="fill:#ffffff"
         d="m 160.063,86.384 c -4.434,0 -8.451,-1.655 -11.941,-4.919 -4.04,-4.498 -6.064,-9.518 -6.064,-14.969 0,-2.391 0.402,-4.908 1.199,-7.481 2.802,-8.067 8.23,-12.437 16.141,-13.013 11.424,0.076 18,5.967 19.606,17.509 0.042,0.46 0.07,0.887 0.087,1.322 0.021,0.434 0.031,0.858 0.031,1.277 0,8.928 -3.729,15.218 -11.08,18.701 -2.874,1.053 -5.535,1.573 -7.979,1.573 l 0,0 z m -1.546,-9.19 0.97,0.231 c 6.278,-0.066 9.464,-3.235 9.736,-9.689 0.037,-0.357 0.054,-0.65 0.054,-0.935 l 0,-0.914 c 0,-7.079 -3.12,-10.671 -9.532,-10.98 -5.238,1.052 -7.787,4.665 -7.787,11.037 l 0,0.858 c 0,0.244 0.016,0.498 0.049,0.755 0.208,4.409 1.88,7.405 5.108,9.204 l 0.072,0 0.192,0 0.169,0.086 c 0.101,0.052 0.188,0.087 0.262,0.107 0.13,0.037 0.258,0.072 0.393,0.105 l 0.091,0.021 0.084,0.043 0.139,0.071 0,0 z" />
    </g>
    <g
       id="g5062"
       transform="matrix(0.30959,0,0,0.272411,81.169885,711.01308)">
      <path
         id="path5064"
         style="fill:#ffffff"
         d="m 204.464,85.608 -0.087,0 -10.178,0 -0.637,0 -0.143,-0.62 -0.166,-0.719 -0.066,-0.226 -0.044,-0.064 -0.068,-0.104 -0.033,-0.118 -0.443,-1.55 -0.031,-0.107 0,-0.112 0,-0.128 c -0.063,-0.176 -0.111,-0.344 -0.146,-0.508 l -0.021,-0.085 -0.07,-0.305 c -0.089,-0.234 -0.146,-0.458 -0.172,-0.684 -0.008,-0.081 -0.019,-0.141 -0.029,-0.185 -0.045,-0.093 -0.072,-0.191 -0.089,-0.288 -0.201,-0.365 -0.317,-0.701 -0.348,-1.016 -0.09,-0.234 -0.144,-0.45 -0.164,-0.653 -0.033,-0.083 -0.062,-0.176 -0.091,-0.28 -0.033,-0.112 -0.068,-0.243 -0.104,-0.381 l -0.251,-0.601 -0.062,-0.147 0,-0.162 0,-0.195 -0.022,-0.046 c -0.044,-0.087 -0.085,-0.182 -0.125,-0.292 l -0.052,-0.077 -0.104,-0.156 -0.022,-0.187 -0.112,-0.885 -0.056,-0.209 c -0.192,-0.305 -0.319,-0.632 -0.373,-0.974 l -0.033,-0.099 -0.236,-0.879 -0.657,-2.251 -0.113,-0.648 -0.288,-0.622 -0.042,-0.087 -0.019,-0.095 -0.054,-0.278 -0.015,-0.077 0,-0.077 0,-0.201 -0.039,-0.195 -0.181,-0.622 c -0.311,-0.558 -0.495,-1.104 -0.549,-1.627 l -0.151,-0.661 -0.423,-1.254 -0.183,-0.728 -0.116,-0.512 -0.131,-0.616 c -0.065,-0.114 -0.115,-0.238 -0.141,-0.369 -0.079,-0.199 -0.079,-0.384 -0.079,-0.464 l -0.022,0.17 -0.719,-2.433 -0.017,-0.052 -0.009,-0.054 -0.098,-0.632 -0.184,-0.462 -0.025,-0.062 -0.015,-0.064 -0.08,-0.369 -0.1,-0.164 -0.116,-0.19 0,-0.224 0,-0.174 -0.048,-0.19 c -0.083,-0.131 -0.139,-0.274 -0.159,-0.421 l -0.699,-2.363 -0.033,-0.11 0,-0.116 0,-0.174 -0.115,-0.203 -0.027,-0.048 -0.021,-0.05 -0.112,-0.275 -0.058,-0.145 0,-0.156 0,-0.157 c -0.031,-0.1 -0.044,-0.193 -0.05,-0.268 l -0.064,-0.226 -0.188,-0.375 -0.054,-0.107 -0.021,-0.12 -0.095,-0.581 c -0.334,-0.829 -0.562,-1.639 -0.68,-2.417 l -0.139,-0.92 0.93,0 0.386,0 7.525,0 0.55,0 0.196,0.512 c 0.19,0.495 0.34,0.953 0.443,1.364 0.09,0.362 0.158,0.673 0.199,0.937 l 0.242,0.634 0.029,0.075 0.015,0.079 0.098,0.581 0.238,0.572 0.062,0.147 0,0.16 0,0.071 c 0.16,0.319 0.264,0.684 0.313,1.094 0.029,0.077 0.046,0.153 0.056,0.226 0.062,0.121 0.102,0.251 0.118,0.39 l 0.746,2.288 0.04,0.123 0,0.126 0,0.277 c 0.014,0.048 0.024,0.093 0.032,0.139 0.062,0.105 0.116,0.238 0.129,0.392 l 0.188,0.616 0.157,0.717 c 0.249,0.452 0.402,0.871 0.463,1.272 l 0.037,0.075 0.022,0.089 0.222,0.939 0.09,0.358 c 0.087,0.193 0.145,0.383 0.172,0.57 0.006,0.05 0.015,0.093 0.024,0.133 l 0.044,0.066 0.078,0.118 0.033,0.139 0.222,0.941 0.653,2.166 0.271,1.293 c 0.264,0.545 0.434,1.016 0.519,1.434 l 0.368,1.631 0.151,0.406 0.019,0.052 0.013,0.052 0.091,0.406 0.177,0.352 0.056,0.11 0.019,0.121 0.04,0.24 0.078,0.199 0.057,0.143 0,0.153 0,0.153 c 0.049,0.104 0.082,0.216 0.099,0.334 0.005,0.01 0.009,0.023 0.013,0.033 0.029,-0.104 0.056,-0.208 0.079,-0.309 l 0.05,-0.253 0.128,-0.456 c 0.116,-0.351 0.203,-0.636 0.276,-0.887 0.082,-0.288 0.165,-0.531 0.248,-0.738 l 0.112,-0.28 0.083,-0.305 0.149,-0.769 0.014,-0.07 0.027,-0.066 0.109,-0.278 0.033,-0.081 0.048,-0.073 0.031,-0.047 0.408,-1.633 0.11,-0.332 0.047,-0.278 0.351,-1.244 0.114,-0.296 0.041,-0.172 0.508,-1.749 0.191,-0.481 0,-0.18 0,-0.241 0.132,-0.201 0.042,-0.062 0.13,-0.481 0.081,-0.213 0,-0.184 0,-0.1 0.025,-0.095 0.056,-0.222 0.4,-1.264 0.095,-0.394 0.168,-0.506 0.102,-0.508 0.019,-0.087 0.035,-0.081 0.187,-0.42 0.096,-0.427 0.022,-0.093 0.042,-0.087 0.13,-0.261 0.09,-0.354 0.104,-0.475 c 0.035,-0.271 0.109,-0.549 0.218,-0.79 0.047,-0.112 0.1,-0.224 0.151,-0.332 l 0,-0.199 0,-0.164 0.063,-0.151 0.118,-0.277 0.044,-0.381 0.011,-0.089 0.028,-0.085 0.43,-1.233 0.041,-0.211 0.013,-0.071 0.026,-0.068 0.11,-0.275 0.056,-0.166 0,-0.257 0,-0.153 0.056,-0.141 0.077,-0.193 0.039,-0.288 0.015,-0.11 0.046,-0.102 c 0.229,-0.524 0.379,-0.98 0.441,-1.359 l 0.114,-0.667 0.675,0 8.023,0 0.992,0 -0.211,0.97 -0.168,0.775 -0.236,0.784 -0.015,0.05 -0.022,0.047 -0.23,0.504 -0.093,0.613 -0.015,0.085 -0.029,0.079 c -0.104,0.271 -0.188,0.526 -0.257,0.767 -0.066,0.226 -0.114,0.435 -0.146,0.63 l -0.242,0.862 -0.51,1.478 -0.257,1.088 -0.129,0.396 -0.536,2.106 -0.38,1.14 -0.043,0.365 -0.011,0.087 -0.029,0.083 -0.333,0.939 -0.083,0.402 -0.05,0.259 -0.015,0.073 -0.027,0.07 -0.109,0.276 -0.104,0.209 c -0.066,0.266 -0.125,0.489 -0.177,0.678 -0.06,0.226 -0.135,0.448 -0.22,0.659 l -0.2,0.663 -0.035,0.11 -0.062,0.095 -0.004,0.008 c -0.038,0.282 -0.079,0.545 -0.129,0.788 -0.062,0.317 -0.174,0.626 -0.329,0.924 l -0.144,0.664 -0.234,0.825 -0.155,0.68 -0.234,0.773 c -0.08,0.206 -0.124,0.338 -0.151,0.466 -0.052,0.23 -0.082,0.367 -0.115,0.494 l -0.118,0.41 -0.245,0.626 -0.36,1.306 -0.157,0.684 -0.236,0.775 -0.156,0.622 -0.012,0.054 -0.021,0.052 c -0.059,0.141 -0.102,0.27 -0.131,0.383 l -0.114,0.454 -0.209,0.586 -0.046,0.413 -0.022,0.192 -0.108,0.164 -0.128,0.192 -0.081,0.444 -0.183,0.676 -0.1,0.46 -0.021,0.097 -0.046,0.089 -0.161,0.323 c -0.044,0.294 -0.105,0.556 -0.187,0.792 -0.066,0.206 -0.137,0.402 -0.207,0.583 l -0.098,0.441 -0.062,0.245 -0.039,0.305 -0.011,0.07 -0.022,0.066 -0.109,0.332 -0.491,1.59 -0.214,0.802 -0.166,0.653 -0.12,0.479 -0.482,0.105 -0.498,0.11 -0.086,0.016 0,0 z" />
    </g>
    <g
       id="g5066"
       transform="matrix(0.30959,0,0,0.272411,81.169885,711.01308)">
      <path
         style="fill:#ffffff"
         d="m 227.644,34.771 6.996,0 1.35,0 -0.648,1.184 -4.287,7.83 -0.229,0.415 0,0 -0.473,0 -4.924,0 -1.057,0 0.286,-1.018 2.215,-7.829 0.166,-0.582 z"
         id="polygon5068" />
    </g>
    <g
       id="g5070"
       transform="matrix(0.30959,0,0,0.272411,81.169885,711.01308)">
      <path
         style="fill:#ffffff"
         d="m 223.053,47.053 0.8,0 1.273,0 6.306,0 0.799,0 0,0.799 0,36.957 0,0.799 0,0 -0.799,0 -7.579,0 -0.8,0 0,-0.799 0,-25.559 0,-11.398 z"
         id="polygon5072" />
    </g>
    <g
       id="g5074"
       transform="matrix(0.30959,0,0,0.272411,81.169885,711.01308)">
      <path
         id="path5076"
         style="fill:#ffffff"
         d="m 275.08,85.608 -1.05,0 -8.409,0 -0.609,0 -0.163,-0.586 -0.167,-0.607 -0.027,-0.104 0,-0.108 0,-0.106 -0.046,-0.059 -0.173,-0.219 0,-0.28 0,-0.158 c -0.064,-0.161 -0.108,-0.32 -0.132,-0.474 l 0.145,0.146 c -0.123,-0.123 -0.209,-0.277 -0.253,-0.459 l -0.085,-0.106 -0.174,-0.219 0,-0.28 0,-0.173 -0.068,-0.279 -0.249,-0.543 -0.026,-0.058 -0.018,-0.063 -0.503,-1.845 -12.588,0 -0.071,0.313 -0.017,0.073 -0.029,0.069 -0.133,0.311 c -0.027,0.134 -0.055,0.263 -0.08,0.386 -0.061,0.265 -0.125,0.465 -0.208,0.645 l -0.145,0.583 -0.325,0.979 -0.046,0.324 -0.02,0.134 -0.061,0.119 -0.079,0.155 c -0.1,0.363 -0.209,0.641 -0.332,0.852 l -0.244,1.029 -0.146,0.614 -0.633,0 -8.299,0 -0.991,0 0.208,-0.969 0.167,-0.774 0.337,-1.025 0.043,-0.263 0.02,-0.123 0.056,-0.111 0.113,-0.221 0.077,-0.207 0.11,-0.223 0.482,-1.501 0.073,-0.186 0,-0.121 0,-0.098 0.022,-0.096 0.111,-0.442 0.026,-0.106 0.055,-0.098 0.169,-0.294 0.25,-0.95 0.253,-0.645 0.148,-0.453 c 0.11,-0.365 0.226,-0.714 0.342,-1.025 0.109,-0.286 0.196,-0.539 0.27,-0.751 l 0.273,-0.827 c 0.061,-0.319 0.165,-0.695 0.288,-1.022 0.106,-0.282 0.194,-0.528 0.265,-0.743 0.101,-0.259 0.176,-0.43 0.24,-0.557 l 0.088,-0.176 0.145,-0.724 0.021,-0.104 0.048,-0.096 0.286,-0.572 0.146,-0.678 0.034,-0.15 0.085,-0.127 0.023,-0.034 c 0.07,-0.34 0.154,-0.647 0.244,-0.912 0.09,-0.273 0.209,-0.544 0.347,-0.806 l 0.09,-0.626 0.012,-0.094 0.034,-0.087 0.81,-2.056 0.154,-0.611 0.015,-0.052 0.019,-0.05 0.111,-0.275 0.094,-0.286 c 0.177,-0.605 0.378,-1.113 0.607,-1.522 l 0.083,-0.47 0.015,-0.081 0.029,-0.077 0.055,-0.136 0,-0.173 0,-0.154 0.056,-0.142 0.111,-0.278 0.634,-1.692 0.101,-0.495 0.021,-0.101 0.049,-0.094 0.219,-0.442 0.117,-0.273 c 0.147,-0.685 0.314,-1.205 0.507,-1.586 l 0.088,-0.395 0.186,-0.576 c 0.061,-0.319 0.165,-0.695 0.288,-1.025 0.104,-0.273 0.189,-0.503 0.263,-0.685 l 0.099,-0.39 0.114,-0.409 c 0.106,-0.275 0.184,-0.457 0.259,-0.63 0.055,-0.123 0.099,-0.24 0.126,-0.346 l 0.327,-0.996 0.044,-0.263 0.011,-0.069 0.022,-0.067 0.776,-2.214 0.188,-0.535 0.567,0 0.664,0 9.294,0 0.8,0 0,0.799 0,0.094 c 0.125,0.261 0.229,0.509 0.312,0.743 0.099,0.282 0.174,0.567 0.22,0.849 l 0.202,0.607 0.092,0.322 c 0.077,0.163 0.103,0.334 0.111,0.482 0,0.004 0.002,0.011 0.004,0.015 0.09,0.106 0.163,0.25 0.198,0.449 0.163,0.29 0.257,0.553 0.288,0.802 l 0.567,1.497 0.053,0.138 0,0.146 0,0.038 c 0.125,0.267 0.231,0.53 0.316,0.787 0.097,0.284 0.167,0.584 0.213,0.887 0.172,0.386 0.308,0.737 0.401,1.038 0.09,0.29 0.156,0.551 0.2,0.778 0.046,0.115 0.079,0.24 0.103,0.376 l 0.208,0.396 0.029,0.052 0.023,0.056 c 0.083,0.213 0.144,0.393 0.188,0.541 0.021,0.08 0.04,0.131 0.059,0.171 l 0.084,0.169 0,0.188 0,0.1 c 0.033,0.073 0.061,0.15 0.079,0.231 0.14,0.244 0.235,0.512 0.286,0.789 l 0.53,1.486 0.104,0.361 0.08,0.159 0.05,0.1 0.021,0.111 0.141,0.751 0.154,0.269 0.242,0.484 0.054,0.108 0.019,0.119 0.055,0.332 0.092,0.298 0.194,0.472 0.022,0.056 0.015,0.059 c 0.033,0.138 0.067,0.265 0.101,0.384 0.031,0.108 0.066,0.219 0.1,0.319 l 0.042,0.125 0,0.131 0,0.144 c 0.055,0.159 0.103,0.294 0.143,0.407 0.058,0.15 0.127,0.344 0.204,0.58 l 0.593,1.509 0.025,0.064 0.015,0.067 0.092,0.451 0.229,0.457 0.257,0.695 0.046,0.131 0,0.14 0,0.087 0.081,0.163 0.035,0.067 0.02,0.071 0.11,0.386 0.103,0.407 c 0.265,0.616 0.465,1.15 0.613,1.628 0.134,0.438 0.242,0.855 0.319,1.24 0.066,0.119 0.115,0.246 0.138,0.382 0.503,1.092 0.826,2.033 0.987,2.868 l 0.081,0.203 0.138,0.465 0.103,0.416 0.092,0.229 0.036,0.088 0.012,0.094 0.042,0.286 c 0.011,0.023 0.019,0.046 0.029,0.062 0.09,0.117 0.152,0.254 0.186,0.413 l 0.059,0.046 0.011,0.19 0.154,0.309 0.083,0.169 0,0.188 0,0.056 0.027,0.027 0.009,0.123 c 0.213,0.357 0.344,0.683 0.396,0.987 0.044,0.142 0.106,0.334 0.173,0.495 0.09,0.232 0.154,0.428 0.2,0.605 l 0.163,0.591 0.274,1.007 0,0 z m -22.141,-14.765 7.681,0 -0.516,-1.549 -0.505,-1.682 c -0.104,-0.27 -0.203,-0.581 -0.284,-0.883 -0.062,-0.238 -0.129,-0.438 -0.192,-0.599 l -0.072,-0.217 c -0.086,-0.361 -0.148,-0.597 -0.213,-0.776 -0.055,-0.15 -0.097,-0.261 -0.126,-0.322 l -0.054,-0.108 -0.023,-0.127 -0.054,-0.332 -0.073,-0.238 -0.2,-0.453 -0.04,-0.085 -0.017,-0.096 -0.11,-0.609 -0.021,-0.148 -0.035,-0.035 -0.178,-0.178 -0.043,-0.246 -0.111,-0.609 -0.037,-0.263 c -0.079,-0.154 -0.134,-0.315 -0.159,-0.478 l -0.01,-0.027 -0.042,-0.117 -0.11,-0.332 c -0.067,-0.2 -0.145,-0.405 -0.229,-0.609 -0.103,-0.248 -0.199,-0.518 -0.28,-0.81 l -0.061,-0.342 -0.037,-0.113 -0.002,-0.008 -0.299,1.025 -0.499,1.666 -0.019,0.067 -0.031,0.06 -0.079,0.157 -0.589,2.033 -0.11,0.384 -0.625,1.716 -0.135,0.401 c -0.075,0.501 -0.187,0.95 -0.33,1.333 -0.055,0.407 -0.178,0.799 -0.372,1.169 l -0.087,0.305 c -0.103,0.497 -0.238,0.868 -0.422,1.138 l -0.25,0.937 0,0 z" />
    </g>
    <path
       transform="matrix(0.647734,0,0,0.647734,187.77009,703.36608)"
       style="fill:#ffffff"
       d="m 86.548,30.021 -6.687,0 4.18,156.906 26.765,0 L 86.548,30.021"
       id="polyline5405" />
    <path
       transform="matrix(0.647734,0,0,0.647734,187.77009,703.36608)"
       style="fill:#ffffff"
       d="m 64.804,30.021 6.688,0 -4.18,156.906 -26.764,0 24.256,-156.906"
       id="polyline5407" />
    <path
       transform="matrix(0.647734,0,0,0.647734,187.77009,703.36608)"
       style="fill:#19408c;fill-opacity:1"
       d="m 21.308,91.912 0,-11.711 108.736,0 0,11.711 -0.003,0 0,0 z"
       id="polygon5409" />
    <path
       transform="matrix(0.647734,0,0,0.647734,187.77009,703.36608)"
       style="fill:#ffffff"
       d="m 27.164,83.544 0,5.024 15.056,0 0,9.195 6.692,0 0,-9.195 53.531,0 0,9.195 6.691,0 0,-9.195 15.055,0 0,-5.024 -97.025,0"
       id="polyline5411" />
    <g
       id="g5472"
       transform="translate(55.000355,451.53808)">
      <path
         id="path5474"
         style="fill:#ffffff;fill-opacity:1;fill-rule:evenodd;stroke:none"
         d="m 100.152,240.501 39.898,-0.05 -12.979,-93.638 -13.225,-0.238 -13.694,93.926 z" />
      <path
         id="path5476"
         style="fill:none;stroke:#000000;stroke-width:3.0999999;stroke-linecap:butt;stroke-linejoin:miter;stroke-miterlimit:4;stroke-opacity:1;stroke-dasharray:18.6, 3.1;stroke-dashoffset:29.76"
         d="m 120.045,159.855 c 0,76.987 0,76.987 0,76.987" />
    </g>
    <path
       id="path5478"
       style="fill:none;stroke:#ffffff;stroke-width:3.4000001;stroke-linecap:butt;stroke-linejoin:miter;stroke-miterlimit:4;stroke-opacity:1;stroke-dasharray:none"
       d="m 163.24308,598.64408 -14.6821,92.697" />
    <path
       id="path5480"
       style="fill:none;stroke:#ffffff;stroke-width:3.4000001;stroke-linecap:butt;stroke-linejoin:miter;stroke-miterlimit:4;stroke-opacity:1;stroke-dasharray:none"
       d="m 188.56109,598.64408 14.68199,92.697" />
  </g>
</svg>
