<?xml version="1.0" encoding="UTF-8" standalone="no"?>
<!-- Created with Inkscape (http://www.inkscape.org/) -->

<svg
   xmlns:dc="http://purl.org/dc/elements/1.1/"
   xmlns:cc="http://creativecommons.org/ns#"
   xmlns:rdf="http://www.w3.org/1999/02/22-rdf-syntax-ns#"
   xmlns:svg="http://www.w3.org/2000/svg"
   xmlns="http://www.w3.org/2000/svg"
   version="1.2"
   width="301.3125"
   height="451.84375"
   id="svg2">
  <metadata
     id="metadata3103">
    <rdf:RDF>
      <cc:Work
         rdf:about="">
        <dc:format>image/svg+xml</dc:format>
        <dc:type
           rdf:resource="http://purl.org/dc/dcmitype/StillImage" />
        <dc:title></dc:title>
      </cc:Work>
    </rdf:RDF>
  </metadata>
  <defs
     id="defs3101" />
  <g
     id="Capa_1">
    <path
       d="m 301.208,435.041 c 0,9.227 -7.492,16.719 -16.734,16.719 H 16.826 c -9.234,0 -16.727,-7.492 -16.727,-16.719 V 16.822 C 0.099,7.595 7.591,0.099 16.826,0.099 h 267.648 c 9.242,0 16.734,7.496 16.734,16.723 v 418.219 z"
       id="path3085"
       style="fill:#ffffff" />
    <path
       d="m 301.208,435.041 c 0,9.227 -7.492,16.719 -16.734,16.719 H 16.826 c -9.234,0 -16.727,-7.492 -16.727,-16.719 V 16.822 C 0.099,7.595 7.591,0.099 16.826,0.099 h 267.648 c 9.242,0 16.734,7.496 16.734,16.723 v 418.219 z"
       id="path3087"
       style="fill:none;stroke:#1c1d20;stroke-width:0.198;stroke-miterlimit:3.86400008" />
    <path
       d="m 293.857,16.822 c 0,-5.168 -4.203,-9.363 -9.383,-9.363 H 16.826 c -5.164,0 -9.375,4.195 -9.375,9.363 v 418.219 c 0,5.172 4.211,9.359 9.375,9.359 h 267.648 c 5.18,0 9.383,-4.188 9.383,-9.359 V 16.822"
       id="path3089"
       style="fill:#19408b" />
    <path
       d="m 204.552,164.861 c 7.922,0 8.891,5.801 8.891,5.801 0,0 12.359,34.375 12.172,34.375 13.914,0.582 12.75,9.086 12.75,9.086 0,0 0.195,18.559 0,18.559 1.164,8.289 -1.555,9.641 -1.555,9.836 -2.5,3.094 1.555,7.336 1.555,7.336 3.664,6.594 -1.555,9.281 -1.555,9.281 0,0 -5.398,1.742 -5.398,1.938 -3.68,0.969 -3.297,3.281 -3.297,3.281 0,0 0,19.898 0,20.094 0,3.297 -2.883,2.906 -2.883,2.906 0,0 -18.938,0.188 -19.133,0 -3.477,0 -3.086,-3.102 -3.086,-3.102 0,0 0,-20.867 0,-21.063 0,-3.102 -3.086,-3.102 -3.086,-3.102 h -97.758 c 0,0 -3.094,0 -3.094,3.102 0,0.195 0,21.063 0,21.063 0,0 0.383,3.102 -3.086,3.102 -0.195,0.188 -19.125,0 -19.125,0 0,0 -2.898,0.391 -2.898,-2.906 0,-0.195 0,-20.094 0,-20.094 0,0 0.383,-2.313 -3.289,-3.281 0,-0.195 -5.398,-1.938 -5.398,-1.938 0,0 -5.219,-2.688 -1.555,-9.281 0,0 4.055,-4.242 1.555,-7.336 0,-0.195 -2.711,-1.547 -1.555,-9.836 -0.188,0 0,-18.559 0,-18.559 0,0 -1.156,-8.504 12.75,-9.086 -0.188,0 12.172,-34.375 12.172,-34.375 0,0 0.969,-5.801 8.891,-5.801 0,-0.192 107.015,-0.192 107.015,0"
       id="path3091"
       style="fill:#ffffff" />
    <path
       d="m 81.107,232.681 c 0,-5.141 4.156,-9.281 9.273,-9.281 5.133,0 9.281,4.141 9.281,9.281 0,5.109 -4.148,9.266 -9.281,9.266 -5.117,0 -9.273,-4.156 -9.273,-9.266"
       id="path3093"
       style="fill:#19408b" />
    <path
       d="m 202.427,232.681 c 0,-5.141 4.156,-9.281 9.273,-9.281 5.125,0 9.273,4.141 9.273,9.281 0,5.109 -4.148,9.266 -9.273,9.266 -5.117,0 -9.273,-4.156 -9.273,-9.266"
       id="path3095"
       style="fill:#19408b" />
    <path
       d="m 98.888,171.83 c 0,0 -3.672,-0.777 -5.414,3.656 0,-0.379 -8.109,28.598 -8.109,28.598 0,0 25.305,-2.91 65.875,-2.91 40.563,0 65.484,2.91 65.484,2.91 0,0 -8.109,-28.977 -8.109,-28.598 -1.734,-4.434 -5.406,-3.656 -5.406,-3.656 H 98.888"
       id="path3097"
       style="fill:#19408b" />
  </g>
</svg>
