<?xml version="1.0" encoding="UTF-8" standalone="no"?>
<!-- Created with Inkscape (http://www.inkscape.org/) -->

<svg
   xmlns:dc="http://purl.org/dc/elements/1.1/"
   xmlns:cc="http://creativecommons.org/ns#"
   xmlns:rdf="http://www.w3.org/1999/02/22-rdf-syntax-ns#"
   xmlns:svg="http://www.w3.org/2000/svg"
   xmlns="http://www.w3.org/2000/svg"
   version="1.2"
   width="188.9375"
   height="283.03125"
   id="svg2">
  <metadata
     id="metadata3217">
    <rdf:RDF>
      <cc:Work
         rdf:about="">
        <dc:format>image/svg+xml</dc:format>
        <dc:type
           rdf:resource="http://purl.org/dc/dcmitype/StillImage" />
        <dc:title></dc:title>
      </cc:Work>
    </rdf:RDF>
  </metadata>
  <defs
     id="defs3215" />
  <g
     id="g3226">
    <path
       d="m 188.546,272.166 c 0,5.773 -4.68,10.453 -10.457,10.453 H 10.849 C 5.076,282.619 0.4,277.939 0.4,272.166 V 10.853 C 0.4,5.08 5.076,0.4 10.849,0.4 h 167.24 c 5.777,0 10.457,4.68 10.457,10.453 v 261.313 z"
       id="path3201"
       style="fill:#ffffff" />
    <path
       d="m 188.546,272.166 c 0,5.773 -4.68,10.453 -10.457,10.453 H 10.849 C 5.076,282.619 0.4,277.939 0.4,272.166 V 10.853 C 0.4,5.08 5.076,0.4 10.849,0.4 h 167.24 c 5.777,0 10.457,4.68 10.457,10.453 v 261.313 z"
       id="path3203"
       style="fill:none;stroke:#1c1d20;stroke-width:0.80000001;stroke-miterlimit:3.86400008" />
    <path
       d="m 183.945,10.853 c 0,-3.234 -2.621,-5.855 -5.855,-5.855 H 10.849 c -3.232,0 -5.857,2.621 -5.857,5.855 v 261.313 c 0,3.234 2.625,5.855 5.857,5.855 h 167.24 c 3.234,0 5.855,-2.621 5.855,-5.855 V 10.853"
       id="path3205"
       style="fill:#19408b" />
    <path
       d="m 31.757,157.193 m 125.43,0 H 31.757 V 31.759 h 125.43 v 125.434 z"
       id="path3207"
       style="fill:#ffffff" />
    <path
       d="M 65.724,141.513 V 115.376 H 45.341 L 55.796,98.653 H 47.437 L 59.976,81.93 H 53.705 L 68.213,58.703 c 0,0 0.461,-0.832 1.201,-0.832 0.734,0 1.139,0.832 1.139,0.832 L 85.065,81.93 h -6.271 l 12.539,16.723 h -8.359 l 10.453,16.723 H 73.041 v 26.137 h -7.317"
       id="path3209"
       style="fill:#1c1d20" />
    <path
       d="m 125.828,110.15 0,31.363 12.539,0 0,-34.492 6.273,0 -27.176,-27.184 -27.175,27.184 6.273,0 0,34.492 12.543,0 0,-31.363 16.723,0"
       id="polyline3211"
       style="fill:#1c1d20;fill-rule:evenodd" />
  </g>
</svg>
