<?xml version="1.0" encoding="UTF-8" standalone="no"?>
<svg
   xmlns:dc="http://purl.org/dc/elements/1.1/"
   xmlns:cc="http://creativecommons.org/ns#"
   xmlns:rdf="http://www.w3.org/1999/02/22-rdf-syntax-ns#"
   xmlns:svg="http://www.w3.org/2000/svg"
   xmlns="http://www.w3.org/2000/svg"
   xmlns:sodipodi="http://sodipodi.sourceforge.net/DTD/sodipodi-0.dtd"
   xmlns:inkscape="http://www.inkscape.org/namespaces/inkscape"
   width="381"
   height="381"
   viewBox="0 0 100.80625 100.80625"
   version="1.1"
   id="svg2449"
   inkscape:version="1.0.1 (3bc2e813f5, 2020-09-07)"
   sodipodi:docname="ES_S22_700.svg">
  <defs
     id="defs2443">
    <pattern
       id="EMFhbasepattern"
       patternUnits="userSpaceOnUse"
       width="6"
       height="6"
       x="0"
       y="0" />
  </defs>
  <sodipodi:namedview
     id="base"
     pagecolor="#ffffff"
     bordercolor="#666666"
     borderopacity="1.0"
     inkscape:pageopacity="0.0"
     inkscape:pageshadow="2"
     inkscape:zoom="2"
     inkscape:cx="210.069"
     inkscape:cy="197.47268"
     inkscape:document-units="mm"
     inkscape:current-layer="layer14"
     inkscape:document-rotation="0"
     showgrid="false"
     units="px"
     inkscape:pagecheckerboard="true"
     inkscape:showpageshadow="false"
     inkscape:window-width="1920"
     inkscape:window-height="1027"
     inkscape:window-x="-8"
     inkscape:window-y="-8"
     inkscape:window-maximized="1" />
  <metadata
     id="metadata2446">
    <rdf:RDF>
      <cc:Work
         rdf:about="">
        <dc:format>image/svg+xml</dc:format>
        <dc:type
           rdf:resource="http://purl.org/dc/dcmitype/StillImage" />
        <dc:title></dc:title>
      </cc:Work>
    </rdf:RDF>
  </metadata>
  <g
     inkscape:groupmode="layer"
     id="layer10"
     inkscape:label="Capa 2"
     style="display:inline;opacity:1">
    <rect
       style="fill:#000080;stroke:#ffffff;stroke-width:2.64583;stroke-linecap:round;stroke-linejoin:round;stroke-miterlimit:4;stroke-dasharray:none;stroke-opacity:1"
       id="rect3027"
       width="98.635841"
       height="98.651787"
       x="1.1498697"
       y="1.3229153"
       ry="4.8664436" />
  </g>
  <g
     inkscape:groupmode="layer"
     id="layer14"
     inkscape:label="Capa 3">
    <text
       xml:space="preserve"
       style="font-size:11.2889px;line-height:6.61458px;font-family:Ccrige;-inkscape-font-specification:Ccrige;letter-spacing:0px;word-spacing:0px;fill:none;stroke:#000000;stroke-width:0.264583px;stroke-linecap:butt;stroke-linejoin:miter;stroke-opacity:1"
       x="15.081252"
       y="82.549995"
       id="text4802"><tspan
         sodipodi:role="line"
         id="tspan4800"
         x="15.081252"
         y="82.549995"
         style="font-size:16.9333px;fill:#ffffff;fill-opacity:1;stroke:none;stroke-width:0.264583px">700 m</tspan></text>
  </g>
  <g
     id="g3988"
     transform="matrix(0.75047135,0,0,0.75047135,20.28775,8.1455103)"
     style="fill:#ffffff;stroke-width:1.33249">
    <path
       style="fill:#ffffff;fill-opacity:1;stroke-width:1.33249"
       d="M 71.155903,71.006178 C 71.054617,44.076163 71.00171,41.901342 70.40406,40.10055 68.367314,33.963589 64.114217,28.926832 58.865016,26.435366 53.87415,24.066515 49.467522,23.436319 44.489701,24.379537 c -7.19695,1.363707 -13.022751,5.805496 -16.231054,12.375105 -1.290871,2.643304 -2.48189,6.958144 -2.042053,7.397981 0.108552,0.108552 2.741713,-0.917247 5.851468,-2.279553 3.109755,-1.362307 5.880008,-2.476921 6.156112,-2.476921 0.802849,0 1.73073,1.27091 1.606142,2.199917 -0.151158,1.127119 -18.658165,28.115862 -19.201583,28.00164 -0.376336,-0.0791 -18.0697635,-25.409117 -19.1218361,-27.374932 -0.55655418,-1.039931 0.012724,-2.378735 1.1278486,-2.652429 0.539263,-0.132355 2.7006265,0.619981 6.5568721,2.282342 3.1638424,1.363879 5.8747104,2.404214 6.0241494,2.311855 0.149439,-0.09236 0.369135,-1.100061 0.488213,-2.23934 0.648719,-6.206609 4.276557,-13.463496 9.304784,-18.612672 5.962482,-6.105903 13.650879,-9.511743 22.27942,-9.869433 9.223556,-0.382356 17.184098,2.570697 23.855565,8.849493 1.633852,1.537685 3.67392,3.781351 4.533483,4.985924 1.970941,2.762027 4.159929,7.410155 5.162008,10.961084 0.764388,2.708651 0.774944,3.094403 0.882425,32.238279 l 0.108781,29.496824 h -5.282798 -5.282795 z"
       id="path4004" />
    <path
       style="fill:#ffffff;fill-opacity:1;stroke-width:1.33249"
       d="M 71.161475,71.006178 71.061742,42.037655 70.101079,39.220048 C 64.736461,23.485705 44.482622,18.816873 32.551435,30.564256 c -3.254207,3.204074 -5.71245,7.931006 -6.256199,12.029986 -0.228155,1.719922 -0.198584,1.830936 0.424172,1.592358 0.368185,-0.141051 3.080221,-1.298885 6.026748,-2.572964 5.286597,-2.285926 5.369593,-2.308467 6.286946,-1.707395 0.710569,0.465582 0.896697,0.833475 0.789881,1.561253 C 39.669248,42.514961 21.263771,69.652557 20.697018,69.667399 20.384062,69.675598 2.7451855,44.439016 1.5546506,42.27972 1.1990384,41.63474 1.1737836,41.208713 1.4546226,40.592339 c 0.6956946,-1.526883 1.6555886,-1.36983 7.665589,1.254211 3.1245694,1.364226 5.8585294,2.480411 6.0754654,2.480411 0.220058,0 0.39673,-0.583883 0.399634,-1.320753 0.01425,-3.614374 2.362865,-10.069725 5.25411,-14.441307 4.611598,-6.972769 11.564391,-12.028147 19.570846,-14.229968 4.137444,-1.137822 12.137743,-1.132156 16.377164,0.0116 11.69708,3.155759 20.657148,12.043495 24.010741,23.816914 0.802109,2.815959 0.802645,2.834865 0.912426,32.314432 l 0.109848,29.496824 h -5.284619 -5.284619 z"
       id="path4002" />
    <path
       style="fill:#ffffff;fill-opacity:1;stroke-width:1.33249"
       d="M 71.4819,99.749155 C 71.347669,99.614924 71.235092,86.971152 71.231728,71.651879 71.224931,40.682907 71.253706,41.117525 68.888931,36.271811 66.970577,32.340875 62.874238,28.29066 58.878614,26.374206 47.855156,21.086934 35.311435,24.710679 29.042148,34.993637 c -1.784963,2.927718 -3.619041,9.333324 -2.672353,9.333324 0.117514,0 2.808781,-1.129672 5.980592,-2.510383 5.683539,-2.474082 5.780271,-2.50164 6.689636,-1.905803 0.699851,0.458561 0.888888,0.830944 0.782689,1.54183 -0.155683,1.042133 -18.567649,28.192299 -19.125694,28.202626 -0.193711,0.0036 -4.393706,-5.86815 -9.333323,-13.0483 C -0.19071659,39.81162 0.94931769,41.691793 1.661197,40.605328 c 0.3224754,-0.49216 0.7993698,-0.976591 1.0597652,-1.076514 0.2603953,-0.09992 3.0936485,0.938782 6.2961183,2.308234 3.2024695,1.369452 5.9915015,2.489913 6.1978485,2.489913 0.206347,0 0.376287,-0.515094 0.377644,-1.144653 0.0038,-1.779826 1.291214,-6.724046 2.475386,-9.506809 2.317837,-5.446837 7.388687,-11.499395 12.422909,-14.827961 6.788686,-4.488597 15.610149,-6.388816 23.365746,-5.033181 13.546578,2.367865 23.652176,11.854832 27.160906,25.49821 0.554755,2.157115 0.610248,5.01507 0.610248,31.42946 v 29.056574 l -4.950905,0.09731 c -2.722999,0.05352 -5.060732,-0.01254 -5.194963,-0.146752 z"
       id="path4000" />
    <path
       style="fill:#ffffff;fill-opacity:1;stroke-width:1.33249"
       d="M 71.159615,70.653977 C 71.061999,41.761403 71.059689,41.679452 70.278617,39.396149 67.202339,30.403314 59.323708,24.495169 49.75359,24.004539 40.387227,23.524357 32.148821,28.375955 28.102887,36.754642 c -0.959005,1.985995 -2.503507,7.485169 -2.190266,7.798409 0.04111,0.04111 2.816146,-1.114645 6.166741,-2.56835 5.859304,-2.542145 6.12485,-2.621569 6.952296,-2.079406 0.487355,0.319327 0.859606,0.903712 0.858694,1.348028 -0.0016,0.795732 -18.531855,28.115008 -19.193334,28.296917 -0.5797,0.159416 -19.1949474,-27.187123 -19.1949474,-28.198142 0,-0.543746 0.3251234,-1.096137 0.8460566,-1.437466 0.8085069,-0.529754 1.1170768,-0.437253 6.95258,2.084196 l 6.1065228,2.638553 0.421119,-2.91708 c 1.502014,-10.404406 8.571538,-20.068598 18.252302,-24.951293 2.817582,-1.421107 7.392689,-2.717662 11.14192,-3.157547 6.753441,-0.792359 14.34767,0.884666 20.46336,4.518902 3.883747,2.307906 9.012951,7.437112 11.32086,11.320858 2.046044,3.443084 3.908151,8.714506 4.423998,12.523869 0.235876,1.741854 0.37308,12.848584 0.37308,30.201226 V 99.6225 h -5.27319 -5.273191 z"
       id="path3998" />
    <path
       style="fill:#ffffff;fill-opacity:1;stroke-width:1.33249"
       d="M 71.159062,70.477877 C 71.058534,41.757539 71.046178,41.304807 70.310378,39.379207 67.840964,32.916713 63.89195,28.518623 58.233491,25.928949 47.18471,20.872318 33.582889,25.559616 28.317442,36.238262 c -1.255542,2.546314 -2.813532,7.906079 -2.41423,8.305381 0.07002,0.07002 2.651798,-0.99477 5.73728,-2.366204 3.085482,-1.371435 5.966081,-2.498832 6.401334,-2.505329 1.049717,-0.01567 1.852953,0.690579 1.838179,1.616218 C 39.867029,42.101461 21.275706,69.38286 20.697018,69.437954 20.096661,69.49511 1.5020706,42.275473 1.5020706,41.339485 c 0,-0.465735 0.3337576,-1.080564 0.7416836,-1.366287 0.8942608,-0.626365 1.1469695,-0.547652 8.2011708,2.554453 2.6909,1.183331 4.949388,2.151511 5.018863,2.151511 0.06948,0 0.126317,-0.46511 0.126317,-1.033577 0,-0.568468 0.229838,-2.113749 0.510751,-3.433959 3.016441,-14.176419 14.547012,-24.835366 28.721921,-26.550763 10.743462,-1.300135 22.210823,3.302384 29.221962,11.728472 2.61357,3.141024 5.698515,9.203847 6.768663,13.302412 0.77157,2.955031 0.783218,3.367953 0.901363,31.96223 L 81.834454,99.6225 h -5.286687 -5.28669 z"
       id="path3996" />
    <path
       style="fill:#ffffff;fill-opacity:1;stroke-width:1.33249"
       d="M 71.232637,71.358379 C 71.226924,40.340881 71.260665,40.890761 69.090009,36.438873 66.979097,32.109519 63.177835,28.332467 58.618161,26.03372 54.647713,24.03203 47.667444,23.305358 43.223821,24.431111 36.900829,26.032986 31.14745,30.560515 28.361417,36.12684 c -1.292753,2.582841 -2.888296,7.986712 -2.479,8.396007 0.08673,0.08673 2.723837,-0.962173 5.860235,-2.330897 6.189094,-2.700921 7.385284,-2.904884 7.928075,-1.35182 0.289738,0.82901 -0.589109,2.24021 -9.285164,14.909586 -7.86821,11.463276 -9.686068,13.90903 -10.052419,13.524557 C 18.893129,67.763024 1.5020706,41.973364 1.5020706,41.349175 c 0,-0.977558 0.6399034,-1.600826 1.6435531,-1.600826 0.4390491,0 3.3558752,1.109433 6.4818357,2.465407 3.1259606,1.355973 5.7258866,2.465406 5.7776126,2.465406 0.05173,0 0.200099,-0.937361 0.329716,-2.083023 0.527092,-4.658879 2.661076,-10.303862 5.444855,-14.403158 6.929032,-10.203452 19.196458,-15.924745 31.063228,-14.487299 15.620024,1.892085 27.449758,13.772948 29.182037,29.308162 0.237143,2.126723 0.378961,13.354918 0.378961,30.003609 V 99.6225 h -5.283013 -5.283013 l -0.0052,-28.264121 z"
       id="path3994" />
    <path
       style="fill:#ffffff;fill-opacity:1;stroke-width:1.33249"
       d="m 71.508104,70.653977 c -0.12158,-32.326022 0.05153,-30.030536 -2.662642,-35.308139 -1.58762,-3.087064 -5.716523,-7.290364 -8.701947,-8.858743 -6.98005,-3.666938 -15.097823,-3.825 -22.012554,-0.428608 -5.587432,2.744447 -10.203812,8.373917 -11.803844,14.394264 -0.655862,2.467774 -0.677297,4.226411 -0.05151,4.226411 0.259421,0 3.048773,-1.119725 6.19856,-2.488278 5.467787,-2.375702 5.75717,-2.460872 6.396242,-1.882518 0.368148,0.333168 0.669357,0.819952 0.669357,1.081743 0,0.376632 -13.782835,20.799893 -17.955095,26.605671 L 20.64752,69.299842 13.804353,59.389093 C 2.1476936,42.50711 1.5128897,41.538771 1.7305525,40.971551 c 0.5476407,-1.427129 1.3505893,-1.288084 7.1640019,1.24058 3.1194446,1.356867 5.8913996,2.467031 6.1598996,2.467031 0.552675,0 0.727397,-0.489517 1.068541,-2.993708 0.131945,-0.968552 0.636986,-3.028927 1.122313,-4.578611 4.322844,-13.80314 17.3188,-23.424058 31.627779,-23.414072 5.37909,0.0038 11.791664,1.885432 16.98232,4.983216 2.563205,1.529721 7.496631,6.189824 9.448299,8.924842 2.019044,2.829435 4.184435,7.400773 5.170224,10.914817 0.785725,2.800867 0.791047,2.990761 0.895696,31.962231 L 81.474903,99.6225 h -4.928925 -4.928924 z"
       id="path3992" />
    <path
       style="fill:#ffffff;fill-opacity:1;stroke-width:1.33249"
       d="m 71.508104,70.653977 c -0.12158,-32.326022 0.05153,-30.030536 -2.662642,-35.308139 -1.58762,-3.087064 -5.716523,-7.290364 -8.701947,-8.858743 -6.98005,-3.666938 -15.097823,-3.825 -22.012554,-0.428608 -5.587432,2.744447 -10.203812,8.373917 -11.803844,14.394264 -0.655862,2.467774 -0.677297,4.226411 -0.05151,4.226411 0.259421,0 3.048773,-1.119725 6.19856,-2.488278 5.467787,-2.375702 5.75717,-2.460872 6.396242,-1.882518 0.368148,0.333168 0.669357,0.819952 0.669357,1.081743 0,0.376632 -13.782835,20.799893 -17.955095,26.605671 L 20.64752,69.299842 13.804353,59.389093 C 2.1476936,42.50711 1.5128897,41.538771 1.7305525,40.971551 c 0.5476407,-1.427129 1.3505893,-1.288084 7.1640019,1.24058 3.1194446,1.356867 5.8913996,2.467031 6.1598996,2.467031 0.552675,0 0.727397,-0.489517 1.068541,-2.993708 0.131945,-0.968552 0.636986,-3.028927 1.122313,-4.578611 4.322844,-13.80314 17.3188,-23.424058 31.627779,-23.414072 5.37909,0.0038 11.791664,1.885432 16.98232,4.983216 2.563205,1.529721 7.496631,6.189824 9.448299,8.924842 2.019044,2.829435 4.184435,7.400773 5.170224,10.914817 0.785725,2.800867 0.791047,2.990761 0.895696,31.962231 L 81.474903,99.6225 h -4.928925 -4.928924 z"
       id="path3990" />
  </g>
</svg>
