<?xml version="1.0" encoding="UTF-8" standalone="no"?>
<!-- Created with Inkscape (http://www.inkscape.org/) -->

<svg
   xmlns:dc="http://purl.org/dc/elements/1.1/"
   xmlns:cc="http://creativecommons.org/ns#"
   xmlns:rdf="http://www.w3.org/1999/02/22-rdf-syntax-ns#"
   xmlns:svg="http://www.w3.org/2000/svg"
   xmlns="http://www.w3.org/2000/svg"
   version="1.2"
   width="189.375"
   height="283.65625"
   id="svg2">
  <metadata
     id="metadata3069">
    <rdf:RDF>
      <cc:Work
         rdf:about="">
        <dc:format>image/svg+xml</dc:format>
        <dc:type
           rdf:resource="http://purl.org/dc/dcmitype/StillImage" />
        <dc:title></dc:title>
      </cc:Work>
    </rdf:RDF>
  </metadata>
  <defs
     id="defs3067" />
  <g
     id="g3079">
    <path
       d="m 188.966,272.779 c 0,5.781 -4.691,10.469 -10.48,10.469 H 10.871 C 5.088,283.248 0.4,278.56 0.4,272.779 V 10.876 C 0.4,5.087 5.087,0.4 10.871,0.4 h 167.615 c 5.789,0 10.48,4.688 10.48,10.477 v 261.902 z"
       id="path3049"
       style="fill:#ffffff" />
    <path
       d="m 188.966,272.779 c 0,5.781 -4.691,10.469 -10.48,10.469 H 10.871 C 5.088,283.248 0.4,278.56 0.4,272.779 V 10.876 C 0.4,5.087 5.087,0.4 10.871,0.4 h 167.615 c 5.789,0 10.48,4.688 10.48,10.477 v 261.902 z"
       id="path3051"
       style="fill:none;stroke:#1c1d20;stroke-width:0.80000001;stroke-miterlimit:3.86400008" />
    <path
       d="m 184.353,10.876 c 0,-3.244 -2.621,-5.871 -5.867,-5.871 H 10.871 c -3.24,0 -5.863,2.627 -5.863,5.871 v 261.902 c 0,3.238 2.623,5.859 5.863,5.859 h 167.615 c 3.246,0 5.867,-2.621 5.867,-5.859 V 10.876"
       id="path3053"
       style="fill:#19408b" />
    <path
       d="m 31.828,157.537 m 125.713,0 H 31.828 V 31.828 h 125.713 v 125.709 z"
       id="path3055"
       style="fill:#ffffff" />
    <path
       d="m 81.699,55.873 c -3.324,0 -3.135,3.141 -3.135,3.141 v 5.543 h -5.732 c -2.957,0 -2.768,2.781 -2.768,2.781 v 34.635 l 2.395,3.977 3.516,2.584 2.957,31.23 H 51.644 v 6.285 h 95.225 v -6.285 h -29.383 l 2.961,-31.23 3.512,-2.584 2.402,-3.324 V 67.337 c 0,0 0.18,-2.781 -2.77,-2.781 h -5.73 v -5.543 c 0,0 0.18,-3.141 -3.141,-3.141 0,-0.179 -33.021,-0.179 -33.021,10e-4"
       id="path3057"
       style="fill:#1c1d20" />
    <path
       d="m 78.375,96.525 m 39.666,0 H 78.375 V 72.32 h 39.666 v 24.205 z"
       id="path3059"
       style="fill:#ffffff" />
    <path
       d="m 70.462,101.144 -9.979,25.504 c 0,0 -4.34,8.137 -11.549,4.713 0,0.088 -7.484,-2.404 -4.619,-11.369 -0.094,-0.088 9.979,-27.072 9.979,-27.072 v -5.543 l 5.541,-14.879 h 2.035 c 0,0 2.773,-9.693 7.297,-9.324 0.096,-0.09 1.848,0.275 0.463,1.295 0,-0.188 -5.916,2.957 -5.084,8.496 -0.092,0 3.145,5.172 3.145,5.172 v 1.297 h 3.141 l -0.37,21.71"
       id="path3061"
       style="fill:#1c1d20" />
    <path
       d="m 62.519,87.285 -1.572,3.232 -1.943,1.488 -10.625,29.279 c 0,0 -1.566,4.713 2.033,6.195 -0.184,0.092 4.068,1.932 5.916,-2.588 -0.184,0 12.84,-33.631 12.84,-33.631 0,0 -1.752,-1.66 -1.477,-4.064 0.092,0 -2.031,0 -2.031,0 0,0 -2.865,1.752 -2.68,11.275 0.092,-0.1 -1.572,0 -1.572,0 0,0 0.092,-8.691 2.398,-11.188 h -1.287"
       id="path3063"
       style="fill:#ffffff;fill-rule:evenodd" />
  </g>
</svg>
