<?xml version="1.0" encoding="UTF-8" standalone="no"?>
<svg
   xmlns:dc="http://purl.org/dc/elements/1.1/"
   xmlns:cc="http://creativecommons.org/ns#"
   xmlns:rdf="http://www.w3.org/1999/02/22-rdf-syntax-ns#"
   xmlns:svg="http://www.w3.org/2000/svg"
   xmlns="http://www.w3.org/2000/svg"
   xmlns:sodipodi="http://sodipodi.sourceforge.net/DTD/sodipodi-0.dtd"
   xmlns:inkscape="http://www.inkscape.org/namespaces/inkscape"
   version="1.2"
   width="51.732353"
   height="51.64529"
   id="svg2"
   sodipodi:docname="ES_S960.svg"
   inkscape:version="1.0.1 (3bc2e813f5, 2020-09-07)">
  <sodipodi:namedview
     pagecolor="#ffffff"
     bordercolor="#666666"
     borderopacity="1"
     objecttolerance="10"
     gridtolerance="10"
     guidetolerance="10"
     inkscape:pageopacity="0"
     inkscape:pageshadow="2"
     inkscape:window-width="1920"
     inkscape:window-height="1027"
     id="namedview853"
     showgrid="true"
     inkscape:zoom="8"
     inkscape:cx="63.935729"
     inkscape:cy="23.152889"
     inkscape:window-x="-8"
     inkscape:window-y="-8"
     inkscape:window-maximized="1"
     inkscape:current-layer="layer3"
     fit-margin-top="0"
     fit-margin-left="0"
     fit-margin-right="0"
     fit-margin-bottom="0"
     inkscape:showpageshadow="false"
     inkscape:pagecheckerboard="true">
    <inkscape:grid
       type="xygrid"
       id="grid889"
       originx="1.8053328"
       originy="1.8792915" />
  </sodipodi:namedview>
  <metadata
     id="metadata3103">
    <rdf:RDF>
      <cc:Work
         rdf:about="">
        <dc:format>image/svg+xml</dc:format>
        <dc:type
           rdf:resource="http://purl.org/dc/dcmitype/StillImage" />
        <dc:title></dc:title>
      </cc:Work>
    </rdf:RDF>
  </metadata>
  <defs
     id="defs3101" />
  <g
     id="Capa_1"
     style="stroke:#000080;stroke-width:1.002;stroke-miterlimit:4;stroke-dasharray:none"
     transform="translate(1.8053328,1.8792915)">
    <path
       d="m 46.748,44.749 c 0,1.114 -0.902,2.017 -2.015,2.017 H 2.1891457 c -1.113,0 -0.9134366,-0.548449 -0.9111457,-1.663447 L 1.358684,5.8334261 1.366384,2.0837573 C 1.368664,0.97175965 1.8716389,1.2164983 2.9846365,1.2188058 l 42.6322425,0.088388 c 1.111998,0.00231 1.312515,-0.2028448 1.307894,0.9091456 L 46.748,44.749"
       id="path3093"
       style="fill:#ffffff;fill-opacity:1;stroke:#000080;stroke-width:6;stroke-miterlimit:4;stroke-dasharray:none"
       sodipodi:nodetypes="cssscssssc" />
  </g>
  <g
     inkscape:groupmode="layer"
     id="layer3"
     inkscape:label="Layer 3"
     transform="translate(1.8053328,1.8792915)">
    <ellipse
       style="fill:#ffffff;fill-opacity:1;stroke-width:50;stroke-linecap:round;stroke-linejoin:round"
       id="path887"
       cx="22.015625"
       cy="9.875"
       rx="1.421875"
       ry="1.4375" />
  </g>
  <g
     inkscape:groupmode="layer"
     id="layer4"
     inkscape:label="Layer 4">
    <g
       id="g1490"
       transform="matrix(-0.16695097,0.25476463,-0.25476463,-0.16695097,67.233474,12.89153)"
       style="stroke-width:3.28305">
      <path
         d="m 102.162,41.396 h 9.047 c 0,0 1.867,0.027 1.867,1.867 0,-0.016 0,26.816 0,26.816 0,0 0,2.035 -2.035,2.035 0,-0.188 -8.879,0 -8.879,0 V 41.396"
         id="path3178"
         style="fill:#1c1d20;stroke-width:3.28305" />
      <path
         d="m 102.162,148.24 h 9.047 c 0,0 1.867,-0.035 1.867,-1.863 0,0.016 0,-26.816 0,-26.816 0,0 0,-2.041 -2.035,-2.041 0,0.189 -8.879,0 -8.879,0 v 30.72"
         id="path3180"
         style="fill:#1c1d20;stroke-width:3.28305" />
      <path
         d="m 92.72,94.876 c 0,-10.74 0.555,-14.438 0.555,-14.625 1.297,-9.252 7.031,-8.137 7.031,-8.137 V 41.396 c 0,0 -24.793,4.256 -24.793,53.48 0,49.223 24.793,53.363 24.793,53.363 v -30.721 c 0,0 -5.734,1.109 -7.031,-8.143 0,-0.188 -0.555,-3.772 -0.555,-14.499"
         id="path3182"
         style="fill:#1c1d20;stroke-width:3.28305" />
    </g>
    <text
       xml:space="preserve"
       style="font-style:normal;font-variant:normal;font-weight:normal;font-stretch:normal;font-size:8.51495px;line-height:4.98923px;font-family:TrafficTypeW01-SpainD;-inkscape-font-specification:TrafficTypeW01-SpainD;letter-spacing:-0.5px;word-spacing:0px;fill:#000000;stroke:none;stroke-width:0.999999px;stroke-linecap:butt;stroke-linejoin:miter;stroke-opacity:1"
       x="8.1741056"
       y="37.955578"
       id="text2108"><tspan
         sodipodi:role="line"
         id="tspan2106"
         x="8.1741056"
         y="37.955578"
         style="stroke-width:0.999999px;">S.O.S.</tspan></text>
  </g>
</svg>
