<?xml version="1.0" encoding="UTF-8" standalone="no"?>
<svg
   xmlns:dc="http://purl.org/dc/elements/1.1/"
   xmlns:cc="http://creativecommons.org/ns#"
   xmlns:rdf="http://www.w3.org/1999/02/22-rdf-syntax-ns#"
   xmlns:svg="http://www.w3.org/2000/svg"
   xmlns="http://www.w3.org/2000/svg"
   xmlns:sodipodi="http://sodipodi.sourceforge.net/DTD/sodipodi-0.dtd"
   xmlns:inkscape="http://www.inkscape.org/namespaces/inkscape"
   version="1.2"
   width="500"
   height="95"
   id="svg2"
   sodipodi:docname="ES_S730.svg"
   inkscape:version="1.0.1 (3bc2e813f5, 2020-09-07)">
  <sodipodi:namedview
     pagecolor="#ffffff"
     bordercolor="#666666"
     borderopacity="1"
     objecttolerance="10"
     gridtolerance="10"
     guidetolerance="10"
     inkscape:pageopacity="0"
     inkscape:pageshadow="2"
     inkscape:window-width="1920"
     inkscape:window-height="1027"
     id="namedview906"
     showgrid="false"
     inkscape:zoom="2"
     inkscape:cx="279.39098"
     inkscape:cy="68.565071"
     inkscape:window-x="-8"
     inkscape:window-y="-8"
     inkscape:window-maximized="1"
     inkscape:current-layer="layer4"
     fit-margin-top="0"
     fit-margin-left="0"
     fit-margin-right="0"
     fit-margin-bottom="0"
     inkscape:document-rotation="0"
     inkscape:showpageshadow="false"
     inkscape:pagecheckerboard="true" />
  <metadata
     id="metadata3197">
    <rdf:RDF>
      <cc:Work
         rdf:about="">
        <dc:format>image/svg+xml</dc:format>
        <dc:type
           rdf:resource="http://purl.org/dc/dcmitype/StillImage" />
        <dc:title />
      </cc:Work>
    </rdf:RDF>
  </metadata>
  <defs
     id="defs3195" />
  <g
     inkscape:groupmode="layer"
     id="layer3"
     inkscape:label="Layer 1"
     transform="translate(0,-1.288889)"
     style="display:inline" />
  <g
     inkscape:groupmode="layer"
     id="layer5"
     inkscape:label="Layer 3"
     transform="translate(0,-1.288889)"
     style="display:inline">
    <text
       xml:space="preserve"
       style="font-size:42.6667px;line-height:25px;font-family:'Andale Mono IPA';-inkscape-font-specification:'Andale Mono IPA';letter-spacing:0px;word-spacing:0px;fill:none;stroke:#000000;stroke-width:1px;stroke-linecap:butt;stroke-linejoin:miter;stroke-opacity:1"
       x="133.73573"
       y="169.69092"
       id="text1522"><tspan
         sodipodi:role="line"
         id="tspan1520"
         x="133.73573"
         y="169.69092" /></text>
  </g>
  <g
     inkscape:groupmode="layer"
     id="layer1"
     inkscape:label="Layer 2"
     transform="translate(0,-1.288889)"
     style="display:inline" />
  <g
     inkscape:groupmode="layer"
     id="layer2"
     inkscape:label="Layer 4"
     style="display:inline;opacity:1"
     sodipodi:insensitive="true" />
  <g
     inkscape:groupmode="layer"
     id="layer4"
     inkscape:label="Layer 5"
     style="display:inline;opacity:1">
    <rect
       style="fill:#946502;fill-opacity:1;stroke-linecap:round;stroke-linejoin:round"
       id="rect4893"
       width="499.40002"
       height="92.244446"
       x="0.04444512"
       y="1.2000033" />
  </g>
  <g
     inkscape:groupmode="layer"
     id="layer6"
     inkscape:label="Layer 6"
     style="display:inline;opacity:1">
    <text
       xml:space="preserve"
       style="font-style:normal;font-variant:normal;font-weight:normal;font-stretch:normal;font-size:32.6231px;line-height:19.1151px;font-family:'Highway Gothic Wide';-inkscape-font-specification:'Highway Gothic Wide';letter-spacing:1.40596px;word-spacing:0px;fill:#ffffff;stroke:none;stroke-width:1px;stroke-linecap:butt;stroke-linejoin:miter;stroke-opacity:1"
       x="17.073639"
       y="60.961712"
       id="text4898"><tspan
         sodipodi:role="line"
         id="tspan4896"
         x="17.073639"
         y="60.961712"
         style="font-style:normal;font-variant:normal;font-weight:normal;font-stretch:normal;font-family:'Highway Gothic Wide';-inkscape-font-specification:'Highway Gothic Wide';fill:#ffffff;stroke-width:1px"><tspan
   style="font-style:normal;font-variant:normal;font-weight:normal;font-stretch:normal;font-family:TrafficTypeW01-SpainD;-inkscape-font-specification:TrafficTypeW01-SpainD;stroke-width:1px"
   id="tspan101517">parque del</tspan> </tspan></text>
  </g>
  <g
     inkscape:groupmode="layer"
     id="layer7"
     inkscape:label="Layer 7"
     style="display:inline;opacity:1" />
  <g
     inkscape:groupmode="layer"
     id="layer8"
     inkscape:label="Layer 8"
     style="display:inline;opacity:1">
    <path
       id="rect4910"
       style="fill:#ffffff;stroke:none;stroke-width:1;stroke-linecap:round;stroke-linejoin:round"
       d="m 455.87588,14.19247 33.0376,33.23854 -31.91838,32.80976 -19.0251,-0.200949 24.93517,-25.74654 -39.91185,0.306279 0.0877,-13.37895 40.29138,-0.45606 -25.40747,-26.529969 z"
       sodipodi:nodetypes="cccccccccc" />
    <text
       xml:space="preserve"
       style="font-style:normal;font-variant:normal;font-weight:normal;font-stretch:normal;font-size:45.9329px;line-height:26.9138px;font-family:TrafficTypeW01-SpainD;-inkscape-font-specification:TrafficTypeW01-SpainD;letter-spacing:3px;word-spacing:0px;fill:#000000;stroke:none;stroke-width:1px;stroke-linecap:butt;stroke-linejoin:miter;stroke-opacity:1"
       x="195.76804"
       y="60.226219"
       id="text6146"><tspan
         sodipodi:role="line"
         id="tspan6144"
         x="195.76804"
         y="60.226219"
         style="font-style:normal;font-variant:normal;font-weight:normal;font-stretch:normal;font-family:TrafficTypeW01-SpainD;-inkscape-font-specification:TrafficTypeW01-SpainD;fill:#ffffff;stroke-width:0.928892px">Oeste</tspan></text>
  </g>
  <g
     inkscape:groupmode="layer"
     id="layer9"
     inkscape:label="Layer 9"
     style="opacity:1" />
  <g
     inkscape:groupmode="layer"
     id="layer10"
     inkscape:label="Layer 10"
     style="display:inline;opacity:1">
    <rect
       style="fill:#ffffff;stroke:none;stroke-linecap:round;stroke-linejoin:round"
       id="rect6155"
       width="64.346718"
       height="63.63961"
       x="347.76703"
       y="16.440233" />
    <path
       style="display:inline;opacity:0.712984;fill:#000000;stroke-width:0.999999;stroke-linecap:round;stroke-linejoin:round"
       d="m 386.76037,69.672976 c 2.14187,0.80359 -1.16626,-14.563132 0.52315,-23.028815 0.15268,-0.765124 0.81103,-0.867511 1.57037,-1.046765 1.35835,-0.320663 2.80939,0.223573 4.18706,9e-6 0.81685,-0.132557 1.63047,-0.385619 2.35521,-0.785074 1.08578,-0.598448 2.21479,-1.308136 2.87861,-2.355224 0.7703,-1.21504 0.87098,-2.759191 1.04676,-4.187051 0.12791,-1.038921 0.43479,-2.188096 0,-3.140285 -0.71921,-1.575036 -2.52349,-2.385741 -3.92536,-3.401987 -0.41181,-0.29852 -0.81828,-0.649307 -1.30846,-0.78508 -0.33625,-0.09314 -0.79197,0.23838 -1.04676,0 -0.95761,-0.895899 -0.009,-2.638641 -0.2617,-3.925358 -0.15966,-0.81199 -0.19991,-1.770058 -0.78507,-2.355215 -0.78021,-0.780214 -2.03772,-1.004431 -3.14029,-1.046776 -1.43758,-0.0552 -2.99788,0.237115 -4.18705,1.046766 -0.62027,0.422314 -0.89702,1.204306 -1.30846,1.831836 -0.27888,0.42536 -0.29672,1.166244 -0.78507,1.308453 -0.7491,0.218132 -1.33419,-0.867502 -2.09353,-1.046757 -1.35836,-0.320662 -2.82871,-0.320672 -4.18705,-10e-6 -0.75934,0.179252 -1.37271,0.748192 -2.09353,1.046767 -0.76455,0.316689 -1.63048,0.385621 -2.35523,0.78508 -1.08577,0.598444 -2.39108,1.215318 -2.8786,2.355214 -0.44724,1.045715 0.31193,2.265744 0.26169,3.401977 -0.0469,1.060168 -0.76277,2.106446 -0.52337,3.140295 0.33856,1.46208 1.5557,2.602471 2.6169,3.663673 0.53061,0.5306 1.23025,0.859941 1.83184,1.308458 0.79736,0.594474 1.43972,1.443184 2.35522,1.831839 0.56776,0.241037 1.21752,0.317088 1.83184,0.261696 1.09893,-0.09909 2.15705,-0.546078 3.14029,-1.046766 0.66868,-0.340508 1.08401,-1.370345 1.83184,-1.308449 0.61471,0.05087 1.30845,1.308458 1.30845,1.308458 l -1.04676,4.187042 v 21.982046 l 2.09353,2.093538 v -7e-6 z"
       id="path201535"
       sodipodi:nodetypes="cssssssssssssssssssssssssssssscccccc" />
    <path
       style="display:inline;opacity:0.712984;fill:#000000;stroke-width:0.999999;stroke-linecap:round;stroke-linejoin:round"
       d="m 368.95494,69.934905 c 1.24232,0.466089 -0.67644,-8.446757 0.30342,-13.356934 0.0885,-0.443778 0.47041,-0.503166 0.91083,-0.607135 0.78786,-0.18599 1.62948,0.129677 2.42854,6e-6 0.47378,-0.07687 0.94568,-0.223669 1.36605,-0.455351 0.62976,-0.347107 1.28459,-0.758733 1.66962,-1.366052 0.44678,-0.704737 0.50518,-1.60036 0.60713,-2.428532 0.0742,-0.602582 0.2522,-1.269118 0,-1.821396 -0.41715,-0.913536 -1.46365,-1.383753 -2.27675,-1.973187 -0.23885,-0.173146 -0.47461,-0.376602 -0.75892,-0.455351 -0.19504,-0.05403 -0.45935,0.13825 -0.60713,0 -0.55543,-0.519629 -0.005,-1.530437 -0.1518,-2.276748 -0.0926,-0.470963 -0.11594,-1.026648 -0.45534,-1.366049 -0.45254,-0.452532 -1.1819,-0.582579 -1.82141,-0.607138 -0.83381,-0.03202 -1.7388,0.137554 -2.42853,0.607135 -0.35976,0.24496 -0.52028,0.698507 -0.75891,1.062482 -0.16173,0.246701 -0.17211,0.676436 -0.45535,0.758919 -0.43449,0.126513 -0.77384,-0.503164 -1.21427,-0.607131 -0.78786,-0.185989 -1.64068,-0.185989 -2.42853,-6e-6 -0.44043,0.103957 -0.79619,0.433956 -1.21427,0.607137 -0.44345,0.18368 -0.94569,0.223668 -1.36605,0.45535 -0.62976,0.347104 -1.38685,0.704898 -1.66962,1.366049 -0.25942,0.606522 0.18093,1.314153 0.1518,1.973178 -0.0272,0.614908 -0.44243,1.221762 -0.30356,1.821403 0.19637,0.848023 0.90233,1.509459 1.51783,2.124966 0.30777,0.307757 0.71356,0.498774 1.06249,0.758919 0.46247,0.344798 0.83505,0.837062 1.36604,1.062483 0.32932,0.139801 0.70618,0.183901 1.0625,0.151791 0.63738,-0.05748 1.2511,-0.31673 1.82139,-0.607136 0.38784,-0.197505 0.62874,-0.794814 1.06249,-0.758913 0.35654,0.02942 0.75891,0.75892 0.75891,0.75892 l -0.60713,2.428526 v 12.749799 l 1.21427,1.214271 v -4e-6 z"
       id="path201535-0"
       sodipodi:nodetypes="cssssssssssssssssssssssssssssscccccc" />
  </g>
</svg>
