<?xml version="1.0" encoding="UTF-8" standalone="no"?>
<!-- Created with Inkscape (http://www.inkscape.org/) -->

<svg
   xmlns:dc="http://purl.org/dc/elements/1.1/"
   xmlns:cc="http://creativecommons.org/ns#"
   xmlns:rdf="http://www.w3.org/1999/02/22-rdf-syntax-ns#"
   xmlns:svg="http://www.w3.org/2000/svg"
   xmlns="http://www.w3.org/2000/svg"
   version="1.2"
   width="189.375"
   height="283.6875"
   id="svg2">
  <metadata
     id="metadata3089">
    <rdf:RDF>
      <cc:Work
         rdf:about="">
        <dc:format>image/svg+xml</dc:format>
        <dc:type
           rdf:resource="http://purl.org/dc/dcmitype/StillImage" />
        <dc:title></dc:title>
      </cc:Work>
    </rdf:RDF>
  </metadata>
  <defs
     id="defs3087" />
  <g
     id="g3110">
    <path
       d="m 31.076,157.615 m 125.431,0 H 31.076 V 32.181 h 125.432 v 125.434 z"
       id="path3059"
       style="fill:#ffffff" />
    <path
       d="m 188.988,272.794 c 0,5.789 -4.691,10.48 -10.477,10.48 H 10.88 c -5.789,0 -10.48,-4.691 -10.48,-10.48 V 10.869 C 0.4,5.087 5.091,0.4 10.88,0.4 h 167.631 c 5.785,0 10.477,4.688 10.477,10.469 v 261.925 z"
       id="path3061"
       style="fill:#ffffff" />
    <path
       d="m 188.988,272.794 c 0,5.789 -4.691,10.48 -10.477,10.48 H 10.88 c -5.789,0 -10.48,-4.691 -10.48,-10.48 V 10.869 C 0.4,5.087 5.091,0.4 10.88,0.4 h 167.631 c 5.785,0 10.477,4.688 10.477,10.469 v 261.925 z"
       id="path3063"
       style="fill:none;stroke:#1c1d20;stroke-width:0.80000001;stroke-miterlimit:3.86400008" />
    <path
       d="m 184.375,10.869 c 0,-3.242 -2.625,-5.863 -5.863,-5.863 H 10.88 c -3.244,0 -5.869,2.621 -5.869,5.863 v 261.926 c 0,3.242 2.625,5.871 5.869,5.871 h 167.631 c 3.238,0 5.863,-2.629 5.863,-5.871 V 10.869"
       id="path3065"
       style="fill:#19408b" />
    <path
       d="m 31.832,157.548 m 125.722,0 H 31.832 V 31.822 h 125.723 v 125.726 z"
       id="path3067"
       style="fill:#ffffff" />
    <path
       d="m 58.32,55.744 1.092,2.18 6.541,6.535 c 0,0 1.088,9.816 4.359,14.176 l -1.793,7.707 0.678,6.828 c 0,0 0.955,2.406 -1.641,2.406 0.096,0 -5.092,0 -5.092,0 l -3.172,-0.668 h -6.924 c 0,0 -0.953,-0.293 -1.678,0.277 l -2.264,1.352 c 0,0 -1.156,0.387 -1.156,1.152 -0.096,0 0.678,5.77 0.678,5.77 0,0 6.15,2.402 11.055,11.914 0.096,0 2.789,2.027 2.789,2.027 h 2.975 l 3.369,1.922 c 0,0 1.631,0.863 1.729,-0.387 0.096,-0.098 0,-6.059 0,-6.059 0,0 0.191,-0.676 -0.668,-0.676 h -2.025 c 0,0 -0.768,0 -0.768,-0.863 -0.096,0 0.484,-1.633 -2.207,-1.148 -0.098,0 -1.545,0.387 -2.404,-0.484 0.096,0 -2.5,-2.883 -2.5,-2.883 0,0 -0.869,-1.34 0.768,-1.055 0,0 3.459,1.344 4.232,2.207 0,0 0.287,1.641 2.016,1.25 0.096,0.098 0.959,-0.289 2.211,0.289 0.098,0 4.037,2.309 8.652,0.48 0,0.102 2.885,-0.574 6.152,0.766 0,0.098 7.885,2.027 7.885,2.027 0,0 4.328,1.438 6.631,0.285 -0.191,0.094 0.191,-0.672 1.73,0.285 0,0.098 4.23,3.754 4.23,3.754 0,0 2.883,-1.93 4.613,0.574 0.098,0 3.078,6.633 10.766,9.23 -0.094,-0.098 1.25,-0.098 1.637,1.059 l 8.172,12.109 1.73,0.77 c 0,0 -0.867,1.922 1.539,2.016 0,0 2.305,0.293 3.363,4.133 -0.098,0 -0.387,1.926 1.246,2.504 0.098,0.098 2.891,1.629 2.891,1.629 0,0 1.438,1.16 1.438,-0.379 0,0.094 -0.672,-3.563 0.195,-4.902 0.094,0 1.25,-1.059 -0.289,-1.922 -0.098,0 -2.309,-0.191 -1.926,-2.598 0,0.098 0.895,-2.402 -1.277,-2.402 0,0 -7.758,-3.367 -6.891,-11.531 0,0.09 0,-3.082 0,-3.082 0,0 -9.617,-10.383 -3.273,-15.188 0.098,-0.098 1.254,-0.387 -0.379,-3.078 -0.098,0 -3.848,-5.77 -3.848,-5.77 0,0 -0.191,-2.309 -3.555,-1.82 0,-0.102 -24.9,-0.102 -38.457,-25.961 0.096,0 -2.207,-3.367 -0.768,-6.727 0,0.09 2.111,-4.137 2.111,-4.137 0,0 2.117,-1.535 1.252,-3.945 -0.096,0 -0.191,-2.016 -2.404,-0.859 0,0 -1.92,0.77 -0.479,-0.77 0.096,0.098 10.383,-4.715 10.383,-4.715 0,0 1.057,-1.055 2.117,0.195 l 2.115,3.078 c 0,0 0.572,1.539 2.5,0.961 0.09,0 1.633,-1.246 1.152,-3.27 0.094,0 -0.391,-2.98 -2.02,-4.617 0,0 -1.344,-1.629 0.77,-4.512 0,0 2.5,-3.367 2.785,-4.043 0.098,-0.094 1.059,-3.652 -1.535,-2.117 -0.195,0 -2.117,2.793 -4.617,3.848 -0.096,0 -1.344,0.578 -1.631,3.367 0,0.098 -6.637,3.27 -6.637,3.27 0,0 -1.252,0.859 -1.059,-0.77 0,0 -0.48,-2.789 0.676,-3.84 0,-0.102 1.727,-2.793 -0.289,-2.699 0,0 -1.055,-0.672 -2.883,1.441 0,0.098 -3.846,3.465 -3.557,6.535 -0.096,0.098 -0.289,1.828 -1.924,2.02 0,0 -1.633,-0.379 -3.076,0.867 -0.096,0 -1.152,0.961 -2.5,0.867 l -8.172,0.383 c 0,0 -2.111,-0.484 -3.172,0.672 0.003,0.099 -2.313,2.76 -2.313,2.76"
       id="path3069"
       style="fill:#1c1d20;fill-rule:evenodd" />
    <path
       d="m 46.101,185.205 h 0.25 c 5.364,0 9.031,2.667 11,8 l 0.5,3.5 v 2 c 0,5.063 -2.667,8.646 -8,10.75 l -3.5,0.5 c -5.104,0 -8.688,-2.333 -10.75,-7 -0.667,-1.677 -1,-3.427 -1,-5.25 0,-6.563 3,-10.646 9,-12.25 l 2.5,-0.25 z m -5.75,12.25 c 0,3.761 1.5,6.094 4.5,7 l 2,0.25 c 2.375,0 4.125,-1.833 5.25,-5.5 v -2 c -0.469,-4.5 -2.386,-6.75 -5.75,-6.75 -3.584,0 -5.584,2.334 -6,7 z"
       id="path3073"
       style="fill:#ffffff" />
    <path
       d="m 71.406,192.205 h 1.5 v 5.25 h -1.25 c -2.834,0 -4.25,1.584 -4.25,4.75 v 7.75 h -5.25 v -17.5 h 5.25 v 1.25 c 1.604,-1 2.938,-1.5 4,-1.5 z"
       id="path3075"
       style="fill:#ffffff" />
    <path
       d="m 90.024,185.705 h 5.25 v 24 h -4.5 l -0.75,-0.75 c -1.219,0.667 -2.553,1 -4,1 -3.271,0 -5.771,-1.75 -7.5,-5.25 -0.5,-0.802 -0.75,-2.052 -0.75,-3.75 0,-4.906 2.5,-7.906 7.5,-9 h 1.5 c 0.854,0 1.938,0.334 3.25,1 v -7.25 z m -7,14 v 2 c 0.385,2.334 1.469,3.5 3.25,3.5 h 0.5 c 2.166,-0.541 3.25,-1.625 3.25,-3.25 v -1.75 c -0.281,-2.333 -1.448,-3.5 -3.5,-3.5 -1.834,0 -3,1 -3.5,3 z"
       id="path3077"
       style="fill:#ffffff" />
    <path
       d="m 108.33,191.955 c 4.833,0 7.583,3 8.25,9 v 1.75 h -11.5 c 0.729,1.834 1.896,2.75 3.5,2.75 1.333,0 2.75,-0.583 4.25,-1.75 l 3.5,3.5 c -2.5,1.834 -5.084,2.75 -7.75,2.75 -5.834,-0.771 -8.75,-3.604 -8.75,-8.5 v -1 c 0.718,-5.666 3.551,-8.5 8.5,-8.5 z m -3.25,6.75 h 6.25 c -0.646,-1.666 -1.729,-2.5 -3.25,-2.5 -1.282,0 -2.282,0.834 -3,2.5 z"
       id="path3079"
       style="fill:#ffffff" />
    <path
       d="m 128.932,191.955 c 2.896,0 5.396,0.917 7.5,2.75 l -3,3.25 h -0.25 c -1.104,-1 -2.438,-1.5 -4,-1.5 -0.667,0 -1.167,0.334 -1.5,1 0.708,0.459 2.708,1.042 6,1.75 2,1.261 3,2.594 3,4 v 1.5 c 0,2.948 -2.25,4.698 -6.75,5.25 -3.303,0 -6.219,-1.166 -8.75,-3.5 l 3.5,-3 c 2.135,1.334 3.885,2 5.25,2 0.666,0 1.166,-0.416 1.5,-1.25 -0.531,-0.458 -2.615,-1.125 -6.25,-2 -1.834,-1.041 -2.75,-2.458 -2.75,-4.25 v -0.5 c 0,-3.177 2.166,-5.01 6.5,-5.5 z"
       id="path3081"
       style="fill:#ffffff" />
    <path
       d="m 147.503,191.955 c 3.333,0 5.666,1.25 7,3.75 l 0.25,2.25 v 7.25 c 0.166,0.5 0.666,0.75 1.5,0.75 -0.729,2.667 -1.313,4 -1.75,4 -1.656,-0.094 -2.99,-0.594 -4,-1.5 -1.636,1 -3.219,1.5 -4.75,1.5 -4.167,-0.521 -6.25,-2.354 -6.25,-5.5 v -0.25 c 0,-3.375 3.25,-5.375 9.75,-6 v -0.75 c 0,-0.354 -0.75,-0.688 -2.25,-1 -1.479,0.115 -3.063,0.781 -4.75,2 l -2.25,-3.5 v -0.25 c 2.166,-1.833 4.666,-2.75 7.5,-2.75 z m -2.75,11.75 v 0.75 c 0.427,0.834 1.177,1.25 2.25,1.25 1.666,-0.469 2.5,-0.969 2.5,-1.5 v -1.5 l -0.25,-0.25 v -0.25 c -3,0.562 -4.5,1.062 -4.5,1.5 z"
       id="path3083"
       style="fill:#ffffff" />
  </g>
</svg>
