<?xml version="1.0" encoding="UTF-8" standalone="no"?>
<svg
   xmlns:dc="http://purl.org/dc/elements/1.1/"
   xmlns:cc="http://creativecommons.org/ns#"
   xmlns:rdf="http://www.w3.org/1999/02/22-rdf-syntax-ns#"
   xmlns:svg="http://www.w3.org/2000/svg"
   xmlns="http://www.w3.org/2000/svg"
   xmlns:sodipodi="http://sodipodi.sourceforge.net/DTD/sodipodi-0.dtd"
   xmlns:inkscape="http://www.inkscape.org/namespaces/inkscape"
   viewBox="0 0 601.01166 600.99805"
   height="600.99805"
   width="601.01166"
   xml:space="preserve"
   version="1.1"
   id="svg34572"
   sodipodi:docname="ES_S853.svg"
   inkscape:version="1.0.1 (3bc2e813f5, 2020-09-07)"><sodipodi:namedview
     pagecolor="#ffffff"
     bordercolor="#666666"
     borderopacity="1"
     objecttolerance="10"
     gridtolerance="10"
     guidetolerance="10"
     inkscape:pageopacity="0"
     inkscape:pageshadow="2"
     inkscape:window-width="1920"
     inkscape:window-height="1027"
     id="namedview105354"
     showgrid="false"
     inkscape:zoom="1.2229657"
     inkscape:cx="193.2655"
     inkscape:cy="233.92701"
     inkscape:window-x="-8"
     inkscape:window-y="-8"
     inkscape:window-maximized="1"
     inkscape:current-layer="layer1"
     inkscape:document-rotation="0" /><metadata
     id="metadata34578"><rdf:RDF><cc:Work
         rdf:about=""><dc:format>image/svg+xml</dc:format><dc:type
           rdf:resource="http://purl.org/dc/dcmitype/StillImage" /><dc:title></dc:title></cc:Work></rdf:RDF></metadata><defs
     id="defs34576" /><g
     inkscape:groupmode="layer"
     id="layer1"
     inkscape:label="Layer 1"><path
       id="path34584"
       style="fill:#ffffff;fill-opacity:1;fill-rule:nonzero;stroke:none;stroke-width:1.25"
       d="m 40.5125,0.49804 h 519.99 c 22.10375,0 40.005,17.9 40.005,39.99 v 520.015 c 0,22.09 -17.90125,40.01 -40.005,40.01 h -519.99 c -22.09,0 -40.005,-17.92 -40.005,-40.01 v -520.015 c 0,-22.09 17.915,-39.99 40.005,-39.99" /><path
       id="path34586"
       style="fill:#000000;fill-opacity:1;fill-rule:nonzero;stroke:none;stroke-width:1.25"
       d="M 40.5125,5.4e-4 C 18.14,5.4e-4 0,18.12554 0,40.48804 v 520.025 c 0,22.3575 18.14,40.4825 40.5125,40.4825 h 519.985 c 22.35875,0 40.51375,-18.12 40.51375,-40.4825 v -520.025 c 0,-22.3625 -18.155,-40.4875 -40.51375,-40.4875 z m 0,0.4975 h 519.99 c 22.09,0 40.005,17.9 40.005,39.99 v 520.015 c 0,22.09 -17.915,40.01 -40.005,40.01 h -519.99 c -22.10375,0 -40.005,-17.92 -40.005,-40.01 v -520.015 c 0,-22.09 17.90125,-39.99 40.005,-39.99 z" /><path
       id="path34588"
       style="fill:#231f20;fill-opacity:1;fill-rule:nonzero;stroke:none;stroke-width:1.25"
       d="m 40.5125,10.48804 c -16.5675,0 -30.01,13.4425 -30.01,30 v 520.015 c 0,16.5725 13.4425,30 30.01,30 h 520.005 c 16.5575,0 30,-13.4275 30,-30 v -520.015 c 0,-16.5575 -13.4425,-30 -30,-30 z m 0,15 h 520.005 c 8.27125,0 14.985,6.71375 14.985,15 v 520.015 c 0,8.28625 -6.71375,15 -14.985,15 H 40.5125 c -8.28625,0 -15.015,-6.71375 -15.015,-15 v -520.015 c 0,-8.28625 6.72875,-15 15.015,-15 z" /><path
       id="path34590"
       style="fill:#231f20;fill-opacity:1;fill-rule:nonzero;stroke:none;stroke-width:1.25"
       d="m 370.95461,525.50304 v -125.005 c 0,-27.6125 14.13898,-71.3623 32.82863,-91.70191 L 525.5025,176.33126 463.35848,112.30937 347.36301,231.6913 c -57.7367,59.4223 -60.8874,85.96549 -60.8874,168.80674 v 125.005"
       sodipodi:nodetypes="cssccssc" /><path
       id="path34592"
       style="fill:#231f20;fill-opacity:1;fill-rule:nonzero;stroke:none;stroke-width:1.25"
       d="M 245.94961,275.50304 H 95.954611 v 27.10484 H 245.94961 Z"
       sodipodi:nodetypes="ccccc" /><path
       id="path34594"
       style="fill:#231f20;fill-opacity:1;fill-rule:nonzero;stroke:none;stroke-width:1.25"
       d="m 328.77824,75.50304 h -32.82863 v 150 h 32.82863 z"
       sodipodi:nodetypes="ccccc" /></g></svg>
