<?xml version="1.0" encoding="UTF-8" standalone="no"?>
<svg
   xmlns:dc="http://purl.org/dc/elements/1.1/"
   xmlns:cc="http://creativecommons.org/ns#"
   xmlns:rdf="http://www.w3.org/1999/02/22-rdf-syntax-ns#"
   xmlns:svg="http://www.w3.org/2000/svg"
   xmlns="http://www.w3.org/2000/svg"
   xmlns:sodipodi="http://sodipodi.sourceforge.net/DTD/sodipodi-0.dtd"
   xmlns:inkscape="http://www.inkscape.org/namespaces/inkscape"
   version="1.2"
   width="378.41077"
   height="180.22069"
   id="svg2"
   sodipodi:docname="ES_S860g.svg"
   inkscape:version="1.0.1 (3bc2e813f5, 2020-09-07)">
  <sodipodi:namedview
     pagecolor="#ffffff"
     bordercolor="#666666"
     borderopacity="1"
     objecttolerance="10"
     gridtolerance="10"
     guidetolerance="10"
     inkscape:pageopacity="0"
     inkscape:pageshadow="2"
     inkscape:window-width="1920"
     inkscape:window-height="1027"
     id="namedview906"
     showgrid="false"
     inkscape:zoom="4.3889385"
     inkscape:cx="286.76216"
     inkscape:cy="88.440896"
     inkscape:window-x="-8"
     inkscape:window-y="-8"
     inkscape:window-maximized="1"
     inkscape:current-layer="svg2"
     fit-margin-top="0"
     fit-margin-left="0"
     fit-margin-right="0"
     fit-margin-bottom="0"
     inkscape:document-rotation="0"
     inkscape:showpageshadow="false"
     inkscape:pagecheckerboard="true" />
  <metadata
     id="metadata3197">
    <rdf:RDF>
      <cc:Work
         rdf:about="">
        <dc:format>image/svg+xml</dc:format>
        <dc:type
           rdf:resource="http://purl.org/dc/dcmitype/StillImage" />
        <dc:title />
      </cc:Work>
    </rdf:RDF>
  </metadata>
  <defs
     id="defs3195" />
  <path
     d="m 378.41078,148.68248 c 0,17.41595 -17.734,31.5382 -39.613,31.5382 H 39.613 C 17.734,180.22068 0,166.09843 0,148.68248 V 31.536609 C 0,14.112694 17.734,0 39.613,0 h 299.18478 c 21.879,0 39.613,14.11349 39.613,31.536609 V 148.68248"
     id="path3113"
     style="display:inline;fill:#ffffff;stroke-width:1"
     sodipodi:nodetypes="csssssssc" />
  <path
     d="m 371.36822,139.77331 c 0,18.396 -15.017,33.313 -33.54,33.313 H 41.894 c -18.525,0 -33.542,-14.918 -33.542,-33.313 V 41.026 c 0,-18.4 15.017,-33.315 33.542,-33.315 h 295.93422 c 18.523,0 33.54,14.915 33.54,33.315 z"
     id="path3115"
     style="display:inline;fill:#ffffff;stroke:#000000;stroke-width:14;stroke-miterlimit:3.864;stroke-dasharray:none"
     sodipodi:nodetypes="sssssssss" />
  <g
     inkscape:groupmode="layer"
     id="layer3"
     inkscape:label="Layer 1"
     transform="translate(0,-1.288889)"
     style="display:none" />
  <g
     inkscape:groupmode="layer"
     id="layer5"
     inkscape:label="Layer 3"
     transform="translate(0,-1.288889)"
     style="display:inline">
    <text
       xml:space="preserve"
       style="font-size:42.6667px;line-height:25px;font-family:'Andale Mono IPA';-inkscape-font-specification:'Andale Mono IPA';letter-spacing:0px;word-spacing:0px;fill:none;stroke:#000000;stroke-width:1px;stroke-linecap:butt;stroke-linejoin:miter;stroke-opacity:1"
       x="133.73573"
       y="169.69092"
       id="text1522"><tspan
         sodipodi:role="line"
         id="tspan1520"
         x="133.73573"
         y="169.69092" /></text>
  </g>
  <g
     inkscape:groupmode="layer"
     id="layer1"
     inkscape:label="Layer 2"
     transform="translate(0,-1.288889)"
     style="display:none" />
  <g
     inkscape:groupmode="layer"
     id="layer9"
     inkscape:label="Layer 4"
     style="opacity:0.48519362" />
  <g
     inkscape:groupmode="layer"
     id="layer10"
     inkscape:label="Layer 5"
     style="display:inline;opacity:1">
    <path
       style="fill:#000000;stroke-width:50;stroke-linecap:round;stroke-linejoin:round"
       d="M 75.87256,135.1124 64.024592,113.69492 89.998982,101.16341 V 83.391462 l 31.670528,-14.126423 26.88577,-8.885975 18.68333,11.847967 38.27805,-7.746748 h 2.27846 l 5.69614,13.898577 7.29105,-39.872966 4.10122,-3.645529 4.55691,0.227846 69.26504,33.037601 -0.22784,3.873374 -60.37907,-28.252845 59.92338,42.151422 -0.22785,4.101219 -66.0752,-45.341259 -2.96199,2.5063 -3.64553,0.911383 -2.05061,-1.822765 -7.74675,38.278048 2.05061,5.240448 -14.35427,4.784756 0.91138,5.696137 -2.73414,5.69614 -4.78476,4.78475 -6.37967,1.82277 -6.37968,-1.13923 -5.46829,-3.64553 -2.05061,-5.0126 -58.78415,19.59472 -1.13922,7.74674 -1.13923,3.64553 -4.32907,5.24045 h 189.11179 l 0.22785,5.46829 -245.161789,-0.45569 v -5.69614 l 39.417276,0.68354 -3.417683,-4.32907 -2.05061,-3.64552 z"
       id="path2918" />
  </g>
  <g
     inkscape:groupmode="layer"
     id="layer11"
     inkscape:label="Layer 6"
     style="display:inline">
    <path
       style="fill:#ffffff;stroke-width:50;stroke-linecap:round;stroke-linejoin:round"
       d="m 97.062193,87.720527 1.594919,11.620122 15.037808,-6.607521 11.16443,-4.55691 -3.87338,-11.847967 -14.80996,6.835365 z"
       id="path2921" />
    <path
       style="fill:#ffffff;stroke-width:50;stroke-linecap:round;stroke-linejoin:round"
       d="m 127.36565,74.049795 4.55691,11.164431 26.88577,-8.885975 -12.30366,-10.025203 z"
       id="path2923" />
  </g>
</svg>
