<?xml version="1.0" encoding="UTF-8" standalone="no"?>
<!-- Created with Inkscape (http://www.inkscape.org/) -->

<svg
   xmlns:dc="http://purl.org/dc/elements/1.1/"
   xmlns:cc="http://creativecommons.org/ns#"
   xmlns:rdf="http://www.w3.org/1999/02/22-rdf-syntax-ns#"
   xmlns:svg="http://www.w3.org/2000/svg"
   xmlns="http://www.w3.org/2000/svg"
   version="1.2"
   width="189.625"
   height="284.0625"
   id="svg2">
  <metadata
     id="metadata3188">
    <rdf:RDF>
      <cc:Work
         rdf:about="">
        <dc:format>image/svg+xml</dc:format>
        <dc:type
           rdf:resource="http://purl.org/dc/dcmitype/StillImage" />
        <dc:title></dc:title>
      </cc:Work>
    </rdf:RDF>
  </metadata>
  <defs
     id="defs3186" />
  <g
     id="g3197">
    <path
       d="m 189.236,273.166 c 0,5.793 -4.695,10.492 -10.488,10.492 H 10.892 C 5.095,283.658 0.4,278.959 0.4,273.166 V 10.888 C 0.4,5.095 5.095,0.4 10.892,0.4 h 167.855 c 5.793,0 10.488,4.695 10.488,10.488 v 262.278 z"
       id="path3170"
       style="fill:#ffffff" />
    <path
       d="m 189.236,273.166 c 0,5.793 -4.695,10.492 -10.488,10.492 H 10.892 C 5.095,283.658 0.4,278.959 0.4,273.166 V 10.888 C 0.4,5.095 5.095,0.4 10.892,0.4 h 167.855 c 5.793,0 10.488,4.695 10.488,10.488 v 262.278 z"
       id="path3172"
       style="fill:none;stroke:#1c1d20;stroke-width:0.80000001;stroke-miterlimit:3.86400008" />
    <path
       d="m 184.619,10.888 c 0,-3.248 -2.629,-5.877 -5.871,-5.877 H 10.892 c -3.25,0 -5.871,2.629 -5.871,5.877 v 262.277 c 0,3.246 2.621,5.875 5.871,5.875 h 167.855 c 3.242,0 5.871,-2.629 5.871,-5.875 V 10.888"
       id="path3174"
       style="fill:#19408b" />
    <path
       d="m 31.873,157.763 m 125.89,0 H 31.873 V 31.867 h 125.891 v 125.896 z"
       id="path3176"
       style="fill:#ffffff" />
    <path
       d="m 102.162,41.396 h 9.047 c 0,0 1.867,0.027 1.867,1.867 0,-0.016 0,26.816 0,26.816 0,0 0,2.035 -2.035,2.035 0,-0.188 -8.879,0 -8.879,0 V 41.396"
       id="path3178"
       style="fill:#1c1d20" />
    <path
       d="m 102.162,148.24 h 9.047 c 0,0 1.867,-0.035 1.867,-1.863 0,0.016 0,-26.816 0,-26.816 0,0 0,-2.041 -2.035,-2.041 0,0.189 -8.879,0 -8.879,0 v 30.72"
       id="path3180"
       style="fill:#1c1d20" />
    <path
       d="m 92.72,94.876 c 0,-10.74 0.555,-14.438 0.555,-14.625 1.297,-9.252 7.031,-8.137 7.031,-8.137 V 41.396 c 0,0 -24.793,4.256 -24.793,53.48 0,49.223 24.793,53.363 24.793,53.363 v -30.721 c 0,0 -5.734,1.109 -7.031,-8.143 0,-0.188 -0.555,-3.772 -0.555,-14.499"
       id="path3182"
       style="fill:#1c1d20" />
  </g>
</svg>
