<?xml version="1.0" encoding="UTF-8" standalone="no"?>
<!-- Created with Inkscape (http://www.inkscape.org/) -->

<svg
   xmlns:dc="http://purl.org/dc/elements/1.1/"
   xmlns:cc="http://creativecommons.org/ns#"
   xmlns:rdf="http://www.w3.org/1999/02/22-rdf-syntax-ns#"
   xmlns:svg="http://www.w3.org/2000/svg"
   xmlns="http://www.w3.org/2000/svg"
   version="1.2"
   width="188.9375"
   height="283.03125"
   id="svg2">
  <metadata
     id="metadata3073">
    <rdf:RDF>
      <cc:Work
         rdf:about="">
        <dc:format>image/svg+xml</dc:format>
        <dc:type
           rdf:resource="http://purl.org/dc/dcmitype/StillImage" />
        <dc:title></dc:title>
      </cc:Work>
    </rdf:RDF>
  </metadata>
  <defs
     id="defs3071" />
  <g
     id="g3084">
    <path
       d="m 188.548,272.167 c 0,5.773 -4.68,10.453 -10.453,10.453 H 10.853 C 5.08,282.62 0.4,277.94 0.4,272.167 V 10.855 C 0.4,5.08 5.08,0.4 10.853,0.4 h 167.242 c 5.773,0 10.453,4.68 10.453,10.455 v 261.312 z"
       id="path3051"
       style="fill:#ffffff" />
    <path
       d="m 188.548,272.167 c 0,5.773 -4.68,10.453 -10.453,10.453 H 10.853 C 5.08,282.62 0.4,277.94 0.4,272.167 V 10.855 C 0.4,5.08 5.08,0.4 10.853,0.4 h 167.242 c 5.773,0 10.453,4.68 10.453,10.455 v 261.312 z"
       id="path3053"
       style="fill:none;stroke:#1c1d20;stroke-width:0.80000001;stroke-miterlimit:3.86400008" />
    <path
       d="m 183.947,10.855 c 0,-3.236 -2.621,-5.859 -5.852,-5.859 H 10.853 c -3.23,0 -5.855,2.623 -5.855,5.859 v 261.313 c 0,3.234 2.625,5.855 5.855,5.855 h 167.242 c 3.23,0 5.852,-2.621 5.852,-5.855 V 10.855"
       id="path3055"
       style="fill:#19408b" />
    <path
       d="m 31.759,157.183 m 125.43,0 H 31.759 V 31.751 h 125.43 v 125.432 z"
       id="path3057"
       style="fill:#ffffff" />
    <path
       d="m 47.439,141.507 m 94.07,0 h -94.07 v -3.137 h 94.07 v 3.137 z"
       id="path3059"
       style="fill:#1c1d20" />
    <path
       d="m 63.115,137.332 m 62.715,0 H 63.115 v -15.684 h 62.715 v 15.684 z"
       id="path3061"
       style="fill:#1c1d20" />
    <path
       d="m 103.884,123.128 m 21.946,0 H 103.88 V 47.431 h 21.949 v 75.697 z"
       id="path3063"
       style="fill:#1c1d20" />
    <path
       d="m 99.701,87.16 m 12.539,0 H 99.697 V 58.933 H 112.24 V 87.16 z"
       id="path3065"
       style="fill:#1c1d20" />
    <path
       d="M 99.177,72.519 H 86.111 c 0,0 -4.18,0 -4.18,4.184 v 5.229"
       id="path3067"
       style="fill:none;stroke:#1c1d20;stroke-width:0.99800003;stroke-miterlimit:3.86400008" />
  </g>
</svg>
