<?xml version="1.0" encoding="UTF-8" standalone="no"?>
<!-- Created with Inkscape (http://www.inkscape.org/) -->

<svg
   xmlns:dc="http://purl.org/dc/elements/1.1/"
   xmlns:cc="http://creativecommons.org/ns#"
   xmlns:rdf="http://www.w3.org/1999/02/22-rdf-syntax-ns#"
   xmlns:svg="http://www.w3.org/2000/svg"
   xmlns="http://www.w3.org/2000/svg"
   version="1.2"
   width="378.125"
   height="238.21875"
   id="svg2">
  <metadata
     id="metadata3658">
    <rdf:RDF>
      <cc:Work
         rdf:about="">
        <dc:format>image/svg+xml</dc:format>
        <dc:type
           rdf:resource="http://purl.org/dc/dcmitype/StillImage" />
        <dc:title></dc:title>
      </cc:Work>
    </rdf:RDF>
  </metadata>
  <defs
     id="defs3656" />
  <g
     id="g3704">
    <path
       d="m 0.12525,210.88175 c 0,14.902 12.446,27.215 27.224,27.215 h 323.443 c 14.776,0 27.213,-12.312 27.213,-27.215 v -183.524 c 0,-14.904 -12.437,-27.222 -27.213,-27.222 h -323.443 c -14.777,0 -27.224,12.317 -27.224,27.222 v 183.524"
       id="path3586"
       style="fill:#19408b" />
    <path
       d="m 0.12525,210.88175 c 0,14.902 12.446,27.215 27.224,27.215 h 323.443 c 14.776,0 27.213,-12.312 27.213,-27.215 v -183.524 c 0,-14.904 -12.437,-27.222 -27.213,-27.222 h -323.443 c -14.777,0 -27.224,12.317 -27.224,27.222 v 183.524"
       id="path3588"
       style="fill:none;stroke:#ffffff;stroke-width:0.26460001;stroke-miterlimit:2.61299992" />
    <path
       d="m 8.29225,54.57375 v -27.216 c 0,-10.369 8.689,-19.055 19.057,-19.055 h 121.435 c 10.369,0 19.052,8.686 19.052,19.055 v 27.216 c 0,10.368 -8.683,19.052 -19.052,19.052 h -121.435 c -10.368,0 -19.057,-8.684 -19.057,-19.052 h -5.438 5.438 m -5.438,0 c 0,13.349 11.139,24.494 24.495,24.494 h 121.435 c 13.351,0 24.495,-11.146 24.495,-24.494 v -27.216 c 0,-13.349 -11.145,-24.495 -24.495,-24.495 h -121.435 c -13.356,0 -24.495,11.146 -24.495,24.495 v 27.216 z"
       id="path3590"
       style="fill:#ffffff" />
    <path
       d="m 184.03425,54.57375 v -27.216 c 0,-10.369 8.689,-19.055 18.923,-19.055 h 147.835 c 10.368,0 19.052,8.686 19.052,19.055 v 27.216 c 0,10.368 -8.684,19.052 -19.052,19.052 h -147.835 c -10.233,0 -18.923,-8.684 -18.923,-19.052 h -5.438 5.438 m -5.437,0 c 0,13.349 11.139,24.494 24.36,24.494 h 147.835 c 13.351,0 24.494,-11.146 24.494,-24.494 v -27.216 c 0,-13.349 -11.145,-24.495 -24.494,-24.495 h -147.835 c -13.222,0 -24.36,11.146 -24.36,24.495 v 27.216 z"
       id="path3592"
       style="fill:#ffffff" />
    <path
       d="m 30.06825,49.51775 c 2.719,1.298 6.87,2.334 9.852,2.334 4.017,0 7.516,-3.499 7.516,-7.516 0,-4.15 -3.499,-7.521 -7.516,-7.521 -1.432,0 -3.499,0.391 -4.796,0.91 l 0.258,-3.89 h 10.369 v -4.146 h -14.127 l -0.91,10.495 3.241,2.463 c 1.556,-1.039 4.021,-1.685 5.964,-1.685 1.814,0 3.236,1.556 3.236,3.372 0,1.81 -1.422,3.365 -3.236,3.365 -2.46,0 -5.835,-0.777 -8.037,-1.809 l -1.814,3.628"
       id="path3594"
       style="fill:#ffffff" />
    <path
       d="m 60.26425,44.85575 c -0.646,-2.468 -0.646,-5.965 0,-8.301 0.517,-1.94 2.466,-3.365 4.409,-3.365 1.943,0 3.887,1.425 4.403,3.365 0.651,2.336 0.651,5.833 0,8.301 -0.516,1.81 -2.46,3.238 -4.403,3.238 -1.943,0 -3.892,-1.428 -4.409,-3.238 l -4.017,0.646 4.017,-0.646 m -4.017,0.647 c 1.034,3.629 4.668,6.35 8.426,6.35 3.757,0 7.386,-2.721 8.295,-6.35 0.775,-2.854 0.775,-6.872 0,-9.594 -0.909,-3.628 -4.538,-6.35 -8.295,-6.35 -3.758,0 -7.392,2.722 -8.426,6.35 -0.78,2.722 -0.78,6.74 0,9.594 z"
       id="path3596"
       style="fill:#ffffff" />
    <path
       d="m 86.96525,44.85575 c -0.651,-2.468 -0.651,-5.965 0,-8.301 0.512,-1.94 2.331,-3.365 4.404,-3.365 1.943,0 3.758,1.425 4.274,3.365 0.651,2.336 0.651,5.833 0,8.301 -0.516,1.81 -2.33,3.238 -4.274,3.238 -2.073,0 -3.892,-1.428 -4.404,-3.238 l -4.021,0.646 4.021,-0.646 m -4.02,0.647 c 1.033,3.629 4.667,6.35 8.425,6.35 3.758,0 7.257,-2.721 8.296,-6.35 0.775,-2.854 0.775,-6.872 0,-9.594 -1.039,-3.628 -4.538,-6.35 -8.296,-6.35 -3.758,0 -7.392,2.722 -8.425,6.35 -0.776,2.722 -0.776,6.74 0,9.594 z"
       id="path3598"
       style="fill:#ffffff" />
    <path
       d="m 122.60425,51.85175 h 4.146 v -9.332 c 0,-1.556 1.297,-2.854 2.982,-2.854 1.556,0 2.854,1.298 2.854,2.854 v 9.332 h 4.145 v -9.332 c 0,-1.556 1.298,-2.854 2.982,-2.854 1.551,0 2.849,1.298 2.849,2.854 v 9.332 h 4.15 v -9.983 c 0,-2.587 -1.814,-5.313 -4.274,-6.218 -2.466,-1.036 -5.577,-0.259 -7.392,1.683 -2.073,-2.202 -5.701,-2.846 -8.296,-1.295 v -0.772 h -4.146 v 16.585"
       id="path3600"
       style="fill:#ffffff" />
    <path
       d="m 206.27,63.646 17.884,0 1.819,-43.549 -5.313,0 -14.39,43.549"
       transform="translate(-0.59375,-0.90625)"
       id="polyline3602"
       style="fill:#ffffff" />
    <path
       d="m 230.248,63.646 17.889,0 -6.611,-20.479 13.093,-14.777 4.398,10.369 0,-18.662 -18.788,0 10.497,4.278 -12.57,7.905 -3.892,-12.183 -5.313,0 1.297,43.549"
       transform="translate(-0.59375,-0.90625)"
       id="polyline3604"
       style="fill:#ffffff" />
    <path
       d="m 8.29225,210.88175 v -101.873 c 0,-10.368 8.689,-19.052 19.057,-19.052 h 323.443 c 10.368,0 19.052,8.684 19.052,19.052 v 101.873 c 0,10.369 -8.684,19.048 -19.052,19.048 h -323.443 c -10.368,-0.002 -19.057,-8.679 -19.057,-19.048 h -5.438 5.438 m -5.438,0 c 0,13.347 11.139,24.49 24.495,24.49 h 323.443 c 13.351,0 24.494,-11.145 24.494,-24.49 v -101.873 c 0,-13.349 -11.145,-24.495 -24.494,-24.495 h -323.443 c -13.356,0 -24.495,11.146 -24.495,24.495 v 101.873 z"
       id="path3606"
       style="fill:#ffffff" />
    <path
       d="m 88.199249,115.61875 120.737001,0 0,34.215 -120.737001,0 z"
       id="rect3608"
       style="fill:#ffffff" />
    <path
       d="m 90.019249,117.30375 117.232001,0 0,30.845 -117.232001,0 z"
       id="rect3610"
       style="fill:#e1001a" />
    <path
       d="m 97.146,144.387 4.146,0 0,-14.255 9.071,14.255 4.15,0 0,-21.775 -4.15,0 0,14.126 -8.938,-14.126 -4.279,0 0,21.775"
       transform="translate(-0.59375,-0.90625)"
       id="polyline3612"
       style="fill:#ffffff" />
    <path
       d="m 124.93425,130.65276 6.998,0 0,4.145 -6.998,0 z"
       id="rect3614"
       style="fill:#ffffff" />
    <path
       d="m 343.224,187.288 -40.176,-8.038 15.547,-10.239 -28.252,-25.14 9.593,-9.593 25.012,28.387 10.239,-15.559 8.037,40.182"
       transform="translate(-0.59375,-0.90625)"
       id="polyline3616"
       style="fill:#ffffff" />
    <path
       d="m 0.12525,210.88175 c 0,14.902 12.446,27.215 27.224,27.215 h 323.443 c 14.776,0 27.213,-12.312 27.213,-27.215 v -183.524 c 0,-14.904 -12.437,-27.222 -27.213,-27.222 h -323.443 c -14.777,0 -27.224,12.317 -27.224,27.222 v 183.524 z"
       id="path3618"
       style="fill:none;stroke:#1d2d28;stroke-width:0.26460001;stroke-miterlimit:2.61299992" />
    <path
       d="m 142.93225,143.59875 v -15.049 h -2.178 v -4.487 c 0.396,-0.197 0.714,-0.379 0.957,-0.545 0.242,-0.164 0.445,-0.347 0.61,-0.544 0.165,-0.198 0.313,-0.417 0.445,-0.66 0.132,-0.241 0.286,-0.538 0.462,-0.892 h 4.191 v 22.177 h -4.487 z"
       id="path3620"
       style="fill:#ffffff" />
    <path
       d="m 156.16525,143.59875 c 0.043,-0.528 0.087,-0.995 0.132,-1.402 0.044,-0.407 0.093,-0.792 0.148,-1.155 0.055,-0.362 0.132,-0.709 0.231,-1.039 0.099,-0.33 0.214,-0.682 0.347,-1.057 0.462,-1.363 1.122,-2.611 1.98,-3.745 0.858,-1.133 1.881,-2.084 3.069,-2.854 0.418,-0.31 0.885,-0.582 1.402,-0.825 0.517,-0.241 1.051,-0.483 1.601,-0.727 l 0.858,-0.396 0.792,-0.23 0.759,-0.297 c 0.638,-0.286 1.133,-0.61 1.485,-0.975 0.352,-0.362 0.528,-0.742 0.528,-1.138 0,-0.66 -0.402,-1.199 -1.205,-1.617 -0.803,-0.417 -1.843,-0.627 -3.119,-0.627 -0.572,0 -1.1,0.038 -1.584,0.115 -0.484,0.076 -0.957,0.203 -1.419,0.38 -0.462,0.176 -0.924,0.406 -1.386,0.692 -0.462,0.285 -0.968,0.638 -1.518,1.057 l -3.102,-3.234 c 0.374,-0.264 0.704,-0.5 0.99,-0.71 0.286,-0.208 0.55,-0.39 0.792,-0.544 0.242,-0.153 0.473,-0.291 0.693,-0.413 0.22,-0.12 0.451,-0.235 0.693,-0.346 1.76,-0.945 3.75,-1.419 5.973,-1.419 1.408,0 2.701,0.187 3.878,0.562 1.176,0.373 2.139,0.912 2.887,1.616 0.572,0.55 1.012,1.177 1.32,1.882 0.308,0.703 0.462,1.529 0.462,2.475 0,1.628 -0.512,3.015 -1.535,4.158 -1.023,1.145 -2.613,2.078 -4.769,2.805 -0.616,0.242 -1.133,0.451 -1.551,0.628 -0.418,0.176 -0.776,0.346 -1.073,0.512 -0.297,0.164 -0.572,0.346 -0.825,0.544 -0.253,0.198 -0.523,0.439 -0.809,0.726 -0.352,0.354 -0.649,0.693 -0.891,1.023 -0.242,0.33 -0.484,0.715 -0.726,1.155 h 12.408 v 4.422 h -17.916 v -0.002 z"
       id="path3622"
       style="fill:#ffffff" />
    <path
       d="m 182.20225,143.59875 c 0.043,-0.528 0.087,-0.995 0.132,-1.402 0.044,-0.407 0.093,-0.792 0.148,-1.155 0.055,-0.362 0.132,-0.709 0.231,-1.039 0.099,-0.33 0.214,-0.682 0.347,-1.057 0.462,-1.363 1.122,-2.611 1.98,-3.745 0.858,-1.133 1.881,-2.084 3.069,-2.854 0.418,-0.31 0.885,-0.582 1.402,-0.825 0.517,-0.241 1.051,-0.483 1.601,-0.727 l 0.858,-0.396 0.792,-0.23 0.759,-0.297 c 0.638,-0.286 1.133,-0.61 1.485,-0.975 0.352,-0.362 0.528,-0.742 0.528,-1.138 0,-0.66 -0.402,-1.199 -1.205,-1.617 -0.803,-0.417 -1.843,-0.627 -3.119,-0.627 -0.572,0 -1.1,0.038 -1.584,0.115 -0.484,0.076 -0.957,0.203 -1.419,0.38 -0.462,0.176 -0.924,0.406 -1.386,0.692 -0.462,0.285 -0.968,0.638 -1.518,1.057 l -3.102,-3.234 c 0.374,-0.264 0.704,-0.5 0.99,-0.71 0.286,-0.208 0.55,-0.39 0.792,-0.544 0.242,-0.153 0.473,-0.291 0.693,-0.413 0.22,-0.12 0.451,-0.235 0.693,-0.346 1.76,-0.945 3.75,-1.419 5.973,-1.419 1.408,0 2.701,0.187 3.878,0.562 1.176,0.373 2.139,0.912 2.887,1.616 0.572,0.55 1.012,1.177 1.32,1.882 0.308,0.703 0.462,1.529 0.462,2.475 0,1.628 -0.512,3.015 -1.535,4.158 -1.023,1.145 -2.613,2.078 -4.769,2.805 -0.616,0.242 -1.133,0.451 -1.551,0.628 -0.418,0.176 -0.776,0.346 -1.073,0.512 -0.297,0.164 -0.572,0.346 -0.825,0.544 -0.253,0.198 -0.523,0.439 -0.809,0.726 -0.352,0.354 -0.649,0.693 -0.891,1.023 -0.242,0.33 -0.484,0.715 -0.726,1.155 h 12.408 v 4.422 h -17.916 v -0.002 z"
       id="path3624"
       style="fill:#ffffff" />
    <path
       d="m 60.19125,197.68375 h -5.499 l -9.438,-26.208 h 5.499 l 6.708,18.407 6.396,-18.407 h 5.421 l -9.087,26.208 z"
       id="path3626"
       style="fill:#ffffff" />
    <path
       d="m 85.50125,197.68375 v -0.624 c -0.91,0.363 -1.794,0.604 -2.652,0.722 -0.858,0.118 -1.651,0.176 -2.379,0.176 -1.066,0 -2.042,-0.156 -2.925,-0.469 -0.884,-0.312 -1.651,-0.754 -2.301,-1.326 -0.65,-0.571 -1.15,-1.254 -1.501,-2.047 -0.351,-0.793 -0.526,-1.658 -0.526,-2.594 0,-0.988 0.201,-1.897 0.604,-2.73 0.403,-0.831 0.956,-1.553 1.657,-2.164 0.702,-0.609 1.534,-1.092 2.496,-1.442 0.961,-0.352 2.002,-0.525 3.12,-0.525 0.546,0 1.222,0.052 2.028,0.155 0.806,0.104 1.599,0.3 2.379,0.585 -0.052,-0.91 -0.39,-1.566 -1.014,-1.969 -0.624,-0.403 -1.417,-0.605 -2.379,-0.605 -1.82,0 -3.627,0.494 -5.421,1.482 l -1.911,-4.136 c 0.702,-0.362 1.358,-0.676 1.969,-0.936 0.611,-0.26 1.209,-0.468 1.794,-0.623 0.585,-0.156 1.164,-0.273 1.735,-0.352 0.571,-0.079 1.183,-0.117 1.833,-0.117 2.626,0 4.673,0.644 6.143,1.931 1.469,1.287 2.204,3.271 2.204,5.947 v 11.661 h -4.953 l 0,0 z m 0,-7.683 c -0.78,-0.285 -1.579,-0.5 -2.398,-0.643 -0.819,-0.144 -1.489,-0.215 -2.008,-0.215 -0.833,0 -1.528,0.201 -2.086,0.604 -0.56,0.403 -0.839,0.903 -0.839,1.501 0,0.601 0.338,1.119 1.014,1.562 0.676,0.441 1.469,0.663 2.379,0.663 0.546,0 1.15,-0.064 1.813,-0.195 0.663,-0.13 1.371,-0.402 2.125,-0.819 v -2.458 z"
       id="path3628"
       style="fill:#ffffff" />
    <path
       d="m 100.90625,197.68375 v -24.57 l 5.226,-2.027 v 26.599 l -5.226,-0.002 0,0 z"
       id="path3630"
       style="fill:#ffffff" />
    <path
       d="m 116.58425,197.68375 v -24.57 l 5.226,-2.027 v 26.599 l -5.226,-0.002 0,0 z"
       id="path3632"
       style="fill:#ffffff" />
    <path
       d="m 142.16725,197.68375 v -0.624 c -0.91,0.363 -1.794,0.604 -2.652,0.722 -0.858,0.118 -1.651,0.176 -2.379,0.176 -1.066,0 -2.042,-0.156 -2.925,-0.469 -0.884,-0.312 -1.651,-0.754 -2.301,-1.326 -0.65,-0.571 -1.15,-1.254 -1.501,-2.047 -0.351,-0.793 -0.526,-1.658 -0.526,-2.594 0,-0.988 0.201,-1.897 0.604,-2.73 0.403,-0.831 0.956,-1.553 1.657,-2.164 0.702,-0.609 1.534,-1.092 2.496,-1.442 0.961,-0.352 2.002,-0.525 3.12,-0.525 0.546,0 1.222,0.052 2.028,0.155 0.806,0.104 1.599,0.3 2.379,0.585 -0.052,-0.91 -0.39,-1.566 -1.014,-1.969 -0.624,-0.403 -1.417,-0.605 -2.379,-0.605 -1.82,0 -3.627,0.494 -5.421,1.482 l -1.911,-4.136 c 0.702,-0.362 1.358,-0.676 1.969,-0.936 0.611,-0.26 1.209,-0.468 1.794,-0.623 0.585,-0.156 1.164,-0.273 1.735,-0.352 0.571,-0.079 1.183,-0.117 1.833,-0.117 2.626,0 4.673,0.644 6.143,1.931 1.469,1.287 2.204,3.271 2.204,5.947 v 11.661 h -4.953 l 0,0 z m 0,-7.683 c -0.78,-0.285 -1.579,-0.5 -2.398,-0.643 -0.819,-0.144 -1.489,-0.215 -2.008,-0.215 -0.833,0 -1.528,0.201 -2.086,0.604 -0.56,0.403 -0.839,0.903 -0.839,1.501 0,0.601 0.338,1.119 1.014,1.562 0.676,0.441 1.469,0.663 2.379,0.663 0.546,0 1.15,-0.064 1.813,-0.195 0.663,-0.13 1.371,-0.402 2.125,-0.819 v -2.458 l 0,0 z"
       id="path3634"
       style="fill:#ffffff" />
    <path
       d="m 167.55625,197.68375 v -0.937 c -0.442,0.441 -1.072,0.754 -1.892,0.937 -0.819,0.182 -1.593,0.272 -2.32,0.272 -1.092,0 -2.132,-0.268 -3.12,-0.8 -0.988,-0.532 -1.853,-1.248 -2.593,-2.146 -0.741,-0.896 -1.333,-1.948 -1.775,-3.157 -0.442,-1.209 -0.663,-2.478 -0.663,-3.804 0,-1.325 0.22,-2.587 0.663,-3.782 0.442,-1.195 1.034,-2.248 1.775,-3.159 0.741,-0.909 1.612,-1.631 2.613,-2.164 1,-0.532 2.061,-0.8 3.179,-0.8 0.702,0 1.429,0.104 2.184,0.312 0.754,0.208 1.404,0.533 1.95,0.976 v -6.318 l 4.875,-2.027 v 26.599 h -4.876 z m 0,-12.753 c -0.364,-0.649 -0.858,-1.118 -1.482,-1.404 -0.624,-0.286 -1.261,-0.429 -1.911,-0.429 -0.521,0 -1.008,0.131 -1.462,0.391 -0.455,0.26 -0.852,0.617 -1.189,1.072 -0.338,0.455 -0.604,0.98 -0.799,1.579 -0.195,0.599 -0.292,1.234 -0.292,1.91 0,0.701 0.097,1.353 0.292,1.949 0.195,0.601 0.461,1.119 0.799,1.562 0.337,0.441 0.747,0.793 1.229,1.053 0.481,0.261 0.995,0.391 1.541,0.391 0.598,0 1.202,-0.143 1.813,-0.43 0.61,-0.285 1.098,-0.754 1.462,-1.404 l -0.001,-6.24 0,0 z"
       id="path3636"
       style="fill:#ffffff" />
    <path
       d="m 198.28725,188.16875 c 0,1.378 -0.247,2.665 -0.741,3.861 -0.494,1.195 -1.157,2.242 -1.989,3.139 -0.833,0.896 -1.788,1.601 -2.866,2.105 -1.08,0.508 -2.204,0.762 -3.374,0.762 -1.196,0 -2.327,-0.254 -3.393,-0.762 -1.066,-0.506 -2.002,-1.209 -2.808,-2.105 -0.806,-0.896 -1.443,-1.942 -1.911,-3.139 -0.468,-1.196 -0.702,-2.483 -0.702,-3.861 0,-1.43 0.227,-2.756 0.682,-3.979 0.455,-1.223 1.079,-2.281 1.872,-3.178 0.793,-0.897 1.722,-1.601 2.789,-2.106 1.066,-0.507 2.223,-0.761 3.471,-0.761 1.144,0 2.255,0.26 3.334,0.779 1.079,0.521 2.034,1.235 2.866,2.146 0.832,0.911 1.501,1.976 2.009,3.197 0.508,1.224 0.761,2.524 0.761,3.902 z m -5.303,0 c 0,-0.702 -0.104,-1.364 -0.312,-1.988 -0.208,-0.624 -0.481,-1.163 -0.819,-1.618 -0.338,-0.455 -0.728,-0.812 -1.17,-1.072 -0.442,-0.26 -0.897,-0.391 -1.365,-0.391 -0.521,0 -0.995,0.131 -1.424,0.391 -0.429,0.26 -0.806,0.617 -1.131,1.072 -0.325,0.455 -0.579,0.994 -0.76,1.618 -0.183,0.624 -0.273,1.286 -0.273,1.988 0,0.677 0.09,1.312 0.273,1.91 0.182,0.6 0.435,1.119 0.76,1.562 0.325,0.441 0.702,0.793 1.131,1.053 0.429,0.26 0.903,0.391 1.424,0.391 0.468,0 0.922,-0.131 1.365,-0.391 0.442,-0.26 0.832,-0.61 1.17,-1.053 0.338,-0.441 0.611,-0.962 0.819,-1.562 0.207,-0.598 0.312,-1.235 0.312,-1.91 z"
       id="path3638"
       style="fill:#ffffff" />
    <path
       d="m 206.36025,197.68375 v -24.57 l 5.226,-2.027 v 26.599 l -5.226,-0.002 0,0 z"
       id="path3640"
       style="fill:#ffffff" />
    <path
       d="m 222.03825,197.68375 v -19.07 h 5.226 v 19.07 h -5.226 z m 5.148,-24.023 c 0,0.676 -0.248,1.273 -0.741,1.793 -0.494,0.521 -1.105,0.78 -1.833,0.78 -0.676,0 -1.261,-0.259 -1.755,-0.78 -0.494,-0.52 -0.741,-1.117 -0.741,-1.793 0,-0.754 0.247,-1.371 0.741,-1.854 0.494,-0.48 1.079,-0.722 1.755,-0.722 0.728,0 1.339,0.24 1.833,0.722 0.493,0.483 0.741,1.1 0.741,1.854 z"
       id="path3642"
       style="fill:#ffffff" />
    <path
       d="m 247.69925,197.68375 v -0.937 c -0.442,0.441 -1.072,0.754 -1.893,0.937 -0.817,0.182 -1.593,0.272 -2.32,0.272 -1.092,0 -2.133,-0.268 -3.12,-0.8 -0.988,-0.532 -1.853,-1.248 -2.593,-2.146 -0.741,-0.896 -1.333,-1.948 -1.775,-3.157 -0.442,-1.209 -0.663,-2.478 -0.663,-3.804 0,-1.325 0.22,-2.587 0.663,-3.782 0.442,-1.195 1.034,-2.248 1.775,-3.159 0.741,-0.909 1.612,-1.631 2.613,-2.164 1.001,-0.532 2.061,-0.8 3.179,-0.8 0.701,0 1.431,0.104 2.185,0.312 0.754,0.208 1.403,0.533 1.95,0.976 v -6.318 l 4.875,-2.027 v 26.599 h -4.876 z m 0,-12.753 c -0.364,-0.649 -0.858,-1.118 -1.481,-1.404 -0.625,-0.286 -1.262,-0.429 -1.912,-0.429 -0.52,0 -1.008,0.131 -1.462,0.391 -0.455,0.26 -0.853,0.617 -1.189,1.072 -0.339,0.455 -0.604,0.98 -0.8,1.579 -0.195,0.599 -0.292,1.234 -0.292,1.91 0,0.701 0.097,1.353 0.292,1.949 0.195,0.601 0.461,1.119 0.8,1.562 0.337,0.441 0.747,0.793 1.229,1.053 0.48,0.261 0.995,0.391 1.54,0.391 0.598,0 1.203,-0.143 1.813,-0.43 0.609,-0.285 1.099,-0.754 1.463,-1.404 l -0.001,-6.24 0,0 z"
       id="path3644"
       style="fill:#ffffff" />
    <path
       d="m 289.14825,52.59875 c 0.044,-0.528 0.088,-0.995 0.133,-1.402 0.044,-0.407 0.094,-0.792 0.148,-1.155 0.055,-0.363 0.131,-0.709 0.23,-1.04 0.1,-0.33 0.215,-0.682 0.347,-1.056 0.462,-1.364 1.122,-2.612 1.979,-3.746 0.858,-1.133 1.882,-2.084 3.069,-2.854 0.418,-0.308 0.886,-0.583 1.402,-0.825 0.517,-0.242 1.051,-0.483 1.601,-0.726 l 0.857,-0.396 0.793,-0.231 0.759,-0.297 c 0.638,-0.286 1.133,-0.61 1.485,-0.974 0.352,-0.363 0.526,-0.742 0.526,-1.138 0,-0.66 -0.4,-1.199 -1.204,-1.617 -0.804,-0.417 -1.843,-0.627 -3.118,-0.627 -0.571,0 -1.101,0.039 -1.584,0.116 -0.483,0.077 -0.957,0.204 -1.42,0.379 -0.461,0.176 -0.924,0.407 -1.386,0.693 -0.462,0.286 -0.968,0.638 -1.518,1.056 l -3.104,-3.234 c 0.374,-0.264 0.704,-0.5 0.99,-0.709 0.285,-0.208 0.55,-0.39 0.792,-0.544 0.241,-0.153 0.474,-0.291 0.692,-0.413 0.221,-0.121 0.45,-0.236 0.692,-0.346 1.76,-0.946 3.751,-1.419 5.974,-1.419 1.407,0 2.7,0.187 3.879,0.561 1.176,0.374 2.139,0.913 2.887,1.617 0.572,0.55 1.012,1.177 1.32,1.881 0.308,0.704 0.462,1.529 0.462,2.475 0,1.628 -0.513,3.015 -1.534,4.158 -1.023,1.144 -2.613,2.079 -4.771,2.805 -0.614,0.242 -1.133,0.451 -1.551,0.627 -0.418,0.176 -0.774,0.346 -1.072,0.511 -0.297,0.165 -0.571,0.347 -0.823,0.544 -0.254,0.198 -0.523,0.44 -0.81,0.726 -0.353,0.352 -0.649,0.693 -0.892,1.023 -0.242,0.33 -0.484,0.715 -0.727,1.155 h 12.408 v 4.422 h -17.911 z"
       id="path3648"
       style="fill:#ffffff" />
    <path
       d="m 333.49925,41.51075 c 0,1.76 -0.221,3.35 -0.66,4.769 -0.439,1.419 -1.062,2.624 -1.863,3.613 -0.805,0.99 -1.777,1.755 -2.922,2.293 -1.144,0.539 -2.408,0.809 -3.795,0.809 -1.672,0 -3.096,-0.325 -4.273,-0.974 -1.177,-0.648 -2.139,-1.512 -2.887,-2.59 -0.748,-1.078 -1.293,-2.304 -1.634,-3.68 -0.341,-1.375 -0.511,-2.789 -0.511,-4.24 0,-1.738 0.214,-3.311 0.643,-4.719 0.43,-1.408 1.045,-2.607 1.848,-3.597 0.804,-0.99 1.783,-1.754 2.938,-2.293 1.155,-0.539 2.447,-0.809 3.877,-0.809 1.342,0 2.574,0.275 3.697,0.825 1.121,0.55 2.095,1.326 2.92,2.327 0.824,1.001 1.469,2.2 1.93,3.597 0.462,1.397 0.692,2.953 0.692,4.669 z m -4.355,-0.099 c 0,-2.397 -0.424,-4.146 -1.271,-5.247 -0.848,-1.1 -2.053,-1.65 -3.614,-1.65 -1.584,0 -2.793,0.583 -3.629,1.749 -0.837,1.167 -1.254,2.916 -1.254,5.247 0,2.266 0.423,4.009 1.27,5.23 0.849,1.221 2.053,1.832 3.613,1.832 1.519,0 2.712,-0.649 3.581,-1.947 0.868,-1.298 1.304,-3.035 1.304,-5.214 z"
       id="path3650"
       style="fill:#ffffff" />
    <path
       d="m 343.86225,52.59875 v -15.047 h -2.178 v -4.488 c 0.396,-0.198 0.714,-0.379 0.957,-0.544 0.241,-0.165 0.445,-0.346 0.61,-0.544 0.165,-0.198 0.312,-0.417 0.444,-0.66 0.134,-0.242 0.285,-0.539 0.464,-0.891 h 4.189 v 22.176 h -4.487 v -0.002 z"
       id="path3652"
       style="fill:#ffffff" />
  </g>
</svg>
