<?xml version="1.0" encoding="UTF-8" standalone="no"?>
<!-- Created with Inkscape (http://www.inkscape.org/) -->

<svg
   xmlns:dc="http://purl.org/dc/elements/1.1/"
   xmlns:cc="http://creativecommons.org/ns#"
   xmlns:rdf="http://www.w3.org/1999/02/22-rdf-syntax-ns#"
   xmlns:svg="http://www.w3.org/2000/svg"
   xmlns="http://www.w3.org/2000/svg"
   version="1.2"
   width="188.9375"
   height="283.03125"
   id="svg2">
  <metadata
     id="metadata3095">
    <rdf:RDF>
      <cc:Work
         rdf:about="">
        <dc:format>image/svg+xml</dc:format>
        <dc:type
           rdf:resource="http://purl.org/dc/dcmitype/StillImage" />
        <dc:title></dc:title>
      </cc:Work>
    </rdf:RDF>
  </metadata>
  <defs
     id="defs3093" />
  <g
     id="g3102">
    <path
       d="m 188.542,272.167 c 0,5.773 -4.68,10.457 -10.453,10.457 H 10.851 C 5.08,282.624 0.4,277.94 0.4,272.167 V 10.853 C 0.4,5.08 5.08,0.4 10.851,0.4 h 167.238 c 5.773,0 10.453,4.68 10.453,10.453 v 261.314 z"
       id="path3081"
       style="fill:#ffffff" />
    <path
       d="m 188.542,272.167 c 0,5.773 -4.68,10.457 -10.453,10.457 H 10.851 C 5.08,282.624 0.4,277.94 0.4,272.167 V 10.853 C 0.4,5.08 5.08,0.4 10.851,0.4 h 167.238 c 5.773,0 10.453,4.68 10.453,10.453 v 261.314 z"
       id="path3083"
       style="fill:none;stroke:#1c1d20;stroke-width:0.80000001;stroke-miterlimit:3.86400008" />
    <path
       d="m 183.945,10.853 c 0,-3.229 -2.621,-5.857 -5.855,-5.857 H 10.851 C 7.621,4.996 5,7.625 5,10.853 v 261.314 c 0,3.23 2.621,5.855 5.852,5.855 H 178.09 c 3.234,0 5.855,-2.625 5.855,-5.855 V 10.853"
       id="path3085"
       style="fill:#19408b" />
    <path
       d="m 31.755,157.187 m 125.432,0 H 31.755 V 31.751 h 125.432 v 125.436 z"
       id="path3087"
       style="fill:#ffffff" />
    <path
       d="m 121.289,119.167 c 5.992,7.652 -1.938,11.709 -1.938,11.709 -6.27,5.072 -10.875,-3.229 -10.875,-3.229 L 96.402,104.043 c 0,0 -15.215,24.619 -15.215,24.527 -5.256,8.848 -12.074,3.221 -12.26,3.133 -7.188,-5.348 -0.096,-12.355 -0.096,-12.355 0,0 21.209,-25.16 21.209,-25.248 2.488,-2.865 -1.385,-2.865 -1.66,-3.141 C 77.595,88.65 73.444,82.111 73.444,82.199 64.682,70.578 66.807,62.844 66.807,62.844 69.571,53.715 77.78,56.571 77.686,56.483 88.93,59.432 92.987,70.68 93.079,70.768 c 1.201,2.584 3.689,16.135 3.689,16.135 0,0 1.656,-2.207 2.953,-10.512 0,0.184 0.09,-4.98 5.895,-11.889 0.09,0 2.398,-4.059 8.762,-7.836 0,0 4.328,-1.936 2.484,1.836 -0.09,0.098 -8.297,12.178 -8.297,12.178 0,0 -0.273,0.551 0.277,0.92 0.191,0 0.551,0.279 1.105,-0.189 0.094,-0.18 8.668,-12.168 8.668,-12.168 0,0 0.734,-1.104 2.121,-0.363 1.148,1.072 0.57,2.236 0.57,2.236 0,0 -8.539,12.012 -8.684,12.16 -0.254,0.676 0.121,0.932 0.184,1.107 0.531,0.396 0.961,-0.045 0.961,-0.045 0,0 8.75,-11.684 8.805,-11.803 2.977,-2.977 2.555,1.748 2.555,1.748 -1.504,7.248 -4.586,10.752 -4.563,10.832 -4.641,7.752 -9.141,11.145 -12.367,12.523 -0.09,0.092 -2.492,0.461 -3.781,2.953 -0.18,0 -2.484,3.871 -2.484,3.871 0,0 19.267,24.799 19.357,24.705"
       id="path3089"
       style="fill:#1c1d20" />
  </g>
</svg>
