<?xml version="1.0" encoding="UTF-8" standalone="no"?>
<!-- Created with Inkscape (http://www.inkscape.org/) -->

<svg
   xmlns:dc="http://purl.org/dc/elements/1.1/"
   xmlns:cc="http://creativecommons.org/ns#"
   xmlns:rdf="http://www.w3.org/1999/02/22-rdf-syntax-ns#"
   xmlns:svg="http://www.w3.org/2000/svg"
   xmlns="http://www.w3.org/2000/svg"
   version="1.2"
   width="166.72301"
   height="282.461"
   id="svg2">
  <metadata
     id="metadata3125">
    <rdf:RDF>
      <cc:Work
         rdf:about="">
        <dc:format>image/svg+xml</dc:format>
        <dc:type
           rdf:resource="http://purl.org/dc/dcmitype/StillImage" />
        <dc:title></dc:title>
      </cc:Work>
    </rdf:RDF>
  </metadata>
  <defs
     id="defs3123" />
  <g
     id="g3163">
    <path
       d="m 166.322,20.275 c 0,4.068 -3.305,7.373 -7.375,7.373 H 7.771 C 3.701,27.648 0.4,24.343 0.4,20.275 V 7.377 C 0.4,3.305 3.701,0 7.771,0 h 151.176 c 4.07,0 7.375,3.305 7.375,7.377 v 12.898"
       id="path3077"
       style="fill:#1c1d20" />
    <path
       d="m 162.626,20.275 c 0,2.033 -1.648,3.689 -3.68,3.689 H 7.771 c -2.035,0 -3.684,-1.656 -3.684,-3.689 V 7.377 c 0,-2.037 1.648,-3.689 3.684,-3.689 h 151.176 c 2.031,0 3.68,1.652 3.68,3.689 v 12.898"
       id="path3079"
       style="fill:#ffffff" />
    <path
       d="m 166.322,272.838 c 0,5.09 -4.129,9.223 -9.223,9.223 H 9.621 c -5.092,0 -9.221,-4.133 -9.221,-9.223 V 42.396 c 0,-5.088 4.129,-9.217 9.221,-9.217 H 157.1 c 5.094,0 9.223,4.129 9.223,9.217 v 230.442 z"
       id="path3081"
       style="fill:#ffffff" />
    <path
       d="m 166.322,272.838 c 0,5.09 -4.129,9.223 -9.223,9.223 H 9.621 c -5.092,0 -9.221,-4.133 -9.221,-9.223 V 42.396 c 0,-5.088 4.129,-9.217 9.221,-9.217 H 157.1 c 5.094,0 9.223,4.129 9.223,9.217 v 230.442 z"
       id="path3083"
       style="fill:none;stroke:#1c1d20;stroke-width:0.80000001;stroke-miterlimit:3.86400008" />
    <path
       d="m 162.263,42.396 c 0,-2.848 -2.309,-5.156 -5.164,-5.156 H 9.621 c -2.854,0 -5.164,2.309 -5.164,5.156 v 230.441 c 0,2.852 2.311,5.164 5.164,5.164 H 157.1 c 2.855,0 5.164,-2.313 5.164,-5.164 V 42.396"
       id="path3085"
       style="fill:#19408b" />
    <path
       d="m 28.052,169.971 m 110.614,0 H 28.052 V 59.361 h 110.613 v 110.61 z"
       id="path3087"
       style="fill:#ffffff" />
    <path
       d="m 28.556,6.256 h 4.531 l 5.156,15 h -3.906 l -0.625,-2.188 h -5.469 l -0.625,2.188 h -3.75 l 4.688,-15 z m 2.188,4.531 -1.406,4.844 h 3.125 V 15.475 C 31.525,12.35 30.952,10.787 30.744,10.787 z"
       id="path3091"
       style="fill:#e41408" />
    <path
       d="m 46.037,10.162 c 0.723,0 1.608,0.469 2.656,1.406 0.735,-0.938 1.777,-1.406 3.125,-1.406 2.604,0.417 3.906,1.719 3.906,3.906 v 7.188 h -3.125 v -5.625 c 0,-1.563 -0.521,-2.344 -1.563,-2.344 -0.938,0.137 -1.406,0.605 -1.406,1.406 v 6.563 h -3.281 v -6.563 c 0,-0.938 -0.573,-1.406 -1.719,-1.406 -0.469,0.169 -0.833,0.482 -1.094,0.938 v 7.031 H 40.255 V 10.475 h 2.656 c 0.208,0 0.313,0.208 0.313,0.625 h 0.156 c 0.872,-0.625 1.758,-0.938 2.657,-0.938 z"
       id="path3093"
       style="fill:#e41408" />
    <path
       d="m 58.615,6.1 h 3.125 v 4.531 h 0.156 c 0.684,-0.417 1.465,-0.625 2.344,-0.625 h 0.156 c 2.969,0 4.688,1.927 5.156,5.781 -0.527,3.646 -2.298,5.469 -5.313,5.469 -0.586,0 -1.419,-0.208 -2.5,-0.625 L 61.583,21.1 h -2.969 v -15 z m 3.125,9.687 c 0,1.4 0.729,2.233 2.188,2.5 h 0.313 c 1.146,0 1.823,-0.781 2.031,-2.344 v -0.938 c -0.339,-1.354 -1.016,-2.031 -2.031,-2.031 h -0.469 c -1.14,0 -1.816,0.886 -2.031,2.656 v 0.157 z"
       id="path3095"
       style="fill:#e41408" />
    <path
       d="m 71.193,10.162 h 3.281 V 16.1 c 0,1.166 0.573,1.843 1.719,2.031 h 0.156 c 0.983,0 1.556,-0.729 1.719,-2.188 v -5.781 h 3.281 V 21.1 h -2.656 c -0.156,0 -0.313,-0.208 -0.469,-0.625 -0.879,0.521 -1.765,0.781 -2.656,0.781 -2.917,-0.43 -4.375,-1.731 -4.375,-3.906 v -7.188 z"
       id="path3097"
       style="fill:#e41408" />
    <path
       d="m 83.556,6.1 h 3.281 v 11.719 l 0.469,0.469 h 0.625 l 0.781,-0.156 0.313,2.969 h -0.156 l -1.875,0.156 c -2.292,0 -3.438,-0.938 -3.438,-2.813 V 6.1 z"
       id="path3099"
       style="fill:#e41408" />
    <path
       d="m 94.416,10.006 c 2.083,0 3.541,0.781 4.375,2.344 l 0.156,1.406 v 4.531 c 0.104,0.313 0.416,0.469 0.938,0.469 -0.456,1.667 -0.82,2.5 -1.094,2.5 -1.035,-0.059 -1.869,-0.371 -2.5,-0.938 -1.022,0.625 -2.012,0.938 -2.969,0.938 -2.604,-0.325 -3.906,-1.471 -3.906,-3.438 v -0.156 c 0,-2.109 2.031,-3.359 6.094,-3.75 v -0.469 c 0,-0.221 -0.469,-0.43 -1.406,-0.625 -0.925,0.072 -1.914,0.488 -2.969,1.25 L 89.729,11.88 v -0.156 c 1.353,-1.145 2.915,-1.718 4.687,-1.718 z m -1.719,7.344 v 0.469 c 0.267,0.521 0.735,0.781 1.406,0.781 1.041,-0.293 1.563,-0.605 1.563,-0.938 V 16.724 L 95.51,16.568 v -0.156 c -1.876,0.352 -2.813,0.664 -2.813,0.938 z"
       id="path3101"
       style="fill:#e41408" />
    <path
       d="m 106.75,10.162 c 2.916,0.476 4.375,1.83 4.375,4.063 v 7.031 h -3.281 v -5.781 c -0.131,-1.354 -0.651,-2.031 -1.563,-2.031 h -0.313 c -0.938,0 -1.459,0.625 -1.563,1.875 v 5.938 h -3.281 V 10.475 h 3.125 v 0.313 l 2.501,-0.626 z"
       id="path3103"
       style="fill:#e41408" />
    <path
       d="m 118.947,10.006 c 2.09,0 3.704,1.198 4.844,3.594 l -2.813,0.938 c -0.456,-1.146 -1.186,-1.719 -2.188,-1.719 h -0.156 c -0.977,0 -1.602,0.677 -1.875,2.031 v 1.25 c 0.176,1.563 0.801,2.344 1.875,2.344 h 0.625 c 0.677,0 1.302,-0.573 1.875,-1.719 l 2.656,1.094 c -0.99,2.292 -2.604,3.438 -4.844,3.438 -2.5,0 -4.167,-1.25 -5,-3.75 -0.209,-0.41 -0.313,-0.983 -0.313,-1.719 v -0.469 c 0.424,-3.542 2.195,-5.313 5.314,-5.313 z"
       id="path3105"
       style="fill:#e41408" />
    <path
       d="m 126.691,5.943 c 1.354,0.169 2.031,0.794 2.031,1.875 0,1.081 -0.678,1.706 -2.031,1.875 -1.146,-0.169 -1.719,-0.742 -1.719,-1.719 V 7.662 c 0.169,-1.145 0.742,-1.719 1.719,-1.719 z m -1.563,4.532 h 3.281 v 10.781 h -3.281 V 10.475 z"
       id="path3107"
       style="fill:#e41408" />
    <path
       d="m 135.167,10.006 c 2.083,0 3.541,0.781 4.375,2.344 l 0.156,1.406 v 4.531 c 0.104,0.313 0.416,0.469 0.938,0.469 -0.456,1.667 -0.82,2.5 -1.094,2.5 -1.035,-0.059 -1.869,-0.371 -2.5,-0.938 -1.022,0.625 -2.012,0.938 -2.969,0.938 -2.604,-0.325 -3.906,-1.471 -3.906,-3.438 v -0.156 c 0,-2.109 2.031,-3.359 6.094,-3.75 v -0.469 c 0,-0.221 -0.469,-0.43 -1.406,-0.625 -0.925,0.072 -1.914,0.488 -2.969,1.25 L 130.48,11.88 v -0.156 c 1.353,-1.145 2.916,-1.718 4.687,-1.718 z m -1.718,7.344 v 0.469 c 0.267,0.521 0.735,0.781 1.406,0.781 1.041,-0.293 1.563,-0.605 1.563,-0.938 v -0.938 l -0.156,-0.156 v -0.156 c -1.876,0.352 -2.813,0.664 -2.813,0.938 z"
       id="path3109"
       style="fill:#e41408" />
    <path
       d="m 37.574,186.238 c 6.102,0 11.028,1.834 14.781,5.5 l -5.156,4.125 c -2.965,-1.79 -5.371,-2.707 -7.219,-2.75 h -2.063 c -2.063,0.459 -3.094,1.031 -3.094,1.719 v 1.719 c 0,0.917 3.552,2.178 10.656,3.781 4.354,2.363 6.531,5.113 6.531,8.25 v 2.406 c 0,4.512 -3.438,7.605 -10.313,9.281 h -2.75 c -6.389,0 -11.659,-2.406 -15.813,-7.219 l 6.531,-4.469 c 2.277,2.979 5.256,4.469 8.938,4.469 h 1.719 c 2.291,-0.458 3.438,-1.604 3.438,-3.438 0,-1.604 -4.125,-3.322 -12.375,-5.156 -3.667,-2.306 -5.5,-5.17 -5.5,-8.594 0,-4.11 2.291,-7.09 6.875,-8.938 l 4.814,-0.686 z"
       id="path3113"
       style="fill:#ffffff" />
    <path
       d="m 82.091,186.238 h 0.344 c 7.376,0 12.418,3.667 15.125,11 l 0.688,4.813 v 2.75 c 0,6.961 -3.667,11.889 -11,14.781 l -4.813,0.688 c -7.019,0 -11.945,-3.208 -14.781,-9.625 -0.917,-2.306 -1.375,-4.712 -1.375,-7.219 0,-9.023 4.125,-14.638 12.375,-16.844 l 3.437,-0.344 z m -7.906,16.844 c 0,5.171 2.063,8.379 6.188,9.625 l 2.75,0.344 c 3.266,0 5.672,-2.521 7.219,-7.563 v -2.75 c -0.645,-6.188 -3.28,-9.281 -7.906,-9.281 -4.929,0 -7.679,3.209 -8.251,9.625 z"
       id="path3115"
       style="fill:#ffffff" />
    <path
       d="m 126.738,186.238 c 6.102,0 11.028,1.834 14.781,5.5 l -5.156,4.125 c -2.965,-1.79 -5.371,-2.707 -7.219,-2.75 h -2.063 c -2.063,0.459 -3.094,1.031 -3.094,1.719 v 1.719 c 0,0.917 3.552,2.178 10.656,3.781 4.354,2.363 6.531,5.113 6.531,8.25 v 2.406 c 0,4.512 -3.438,7.605 -10.313,9.281 h -2.75 c -6.389,0 -11.659,-2.406 -15.813,-7.219 l 6.531,-4.469 c 2.277,2.979 5.256,4.469 8.938,4.469 h 1.719 c 2.291,-0.458 3.438,-1.604 3.438,-3.438 0,-1.604 -4.125,-3.322 -12.375,-5.156 -3.667,-2.306 -5.5,-5.17 -5.5,-8.594 0,-4.11 2.291,-7.09 6.875,-8.938 l 4.814,-0.686 z"
       id="path3117"
       style="fill:#ffffff" />
    <path
       d="m 68.152,75.492 0,23.959 -23.969,0 0,30.422 23.969,0 0,23.965 30.416,0 0,-23.965 23.965,0 0,-30.422 -23.965,0 0,-23.959 -30.416,0"
       id="polyline3119"
       style="fill:#e41408" />
  </g>
</svg>
