<?xml version="1.0" encoding="UTF-8" standalone="no"?>
<svg
   xmlns:dc="http://purl.org/dc/elements/1.1/"
   xmlns:cc="http://creativecommons.org/ns#"
   xmlns:rdf="http://www.w3.org/1999/02/22-rdf-syntax-ns#"
   xmlns:svg="http://www.w3.org/2000/svg"
   xmlns="http://www.w3.org/2000/svg"
   xmlns:sodipodi="http://sodipodi.sourceforge.net/DTD/sodipodi-0.dtd"
   xmlns:inkscape="http://www.inkscape.org/namespaces/inkscape"
   version="1.2"
   width="378.41077"
   height="180.22069"
   id="svg2"
   sodipodi:docname="ES_S880-hgv.svg"
   inkscape:version="1.0.1 (3bc2e813f5, 2020-09-07)">
  <sodipodi:namedview
     pagecolor="#ffffff"
     bordercolor="#666666"
     borderopacity="1"
     objecttolerance="10"
     gridtolerance="10"
     guidetolerance="10"
     inkscape:pageopacity="0"
     inkscape:pageshadow="2"
     inkscape:window-width="1920"
     inkscape:window-height="1027"
     id="namedview906"
     showgrid="false"
     inkscape:zoom="1"
     inkscape:cx="159.61686"
     inkscape:cy="103.83499"
     inkscape:window-x="-8"
     inkscape:window-y="-8"
     inkscape:window-maximized="1"
     inkscape:current-layer="layer5"
     fit-margin-top="0"
     fit-margin-left="0"
     fit-margin-right="0"
     fit-margin-bottom="0"
     inkscape:document-rotation="0"
     inkscape:showpageshadow="false"
     inkscape:pagecheckerboard="true" />
  <metadata
     id="metadata3197">
    <rdf:RDF>
      <cc:Work
         rdf:about="">
        <dc:format>image/svg+xml</dc:format>
        <dc:type
           rdf:resource="http://purl.org/dc/dcmitype/StillImage" />
        <dc:title></dc:title>
      </cc:Work>
    </rdf:RDF>
  </metadata>
  <defs
     id="defs3195" />
  <path
     d="m 378.41078,148.68248 c 0,17.41595 -17.734,31.5382 -39.613,31.5382 H 39.613 C 17.734,180.22068 0,166.09843 0,148.68248 V 31.536609 C 0,14.112694 17.734,0 39.613,0 h 299.18478 c 21.879,0 39.613,14.11349 39.613,31.536609 V 148.68248"
     id="path3113"
     style="display:inline;fill:#ffffff;stroke-width:1"
     sodipodi:nodetypes="csssssssc" />
  <path
     d="m 371.36822,139.77331 c 0,18.396 -15.017,33.313 -33.54,33.313 H 41.894 c -18.525,0 -33.542,-14.918 -33.542,-33.313 V 41.026 c 0,-18.4 15.017,-33.315 33.542,-33.315 h 295.93422 c 18.523,0 33.54,14.915 33.54,33.315 z"
     id="path3115"
     style="display:inline;fill:#ffffff;stroke:#000000;stroke-width:14;stroke-miterlimit:3.864;stroke-dasharray:none"
     sodipodi:nodetypes="sssssssss" />
  <g
     inkscape:groupmode="layer"
     id="layer3"
     inkscape:label="Layer 1"
     transform="translate(0,-1.288889)" />
  <g
     inkscape:groupmode="layer"
     id="layer5"
     inkscape:label="Layer 3"
     transform="translate(0,-1.288889)">
    <text
       xml:space="preserve"
       style="font-size:42.6667px;line-height:25px;font-family:'Andale Mono IPA';-inkscape-font-specification:'Andale Mono IPA';letter-spacing:0px;word-spacing:0px;fill:none;stroke:#000000;stroke-width:1px;stroke-linecap:butt;stroke-linejoin:miter;stroke-opacity:1"
       x="133.73573"
       y="169.69092"
       id="text1522"><tspan
         sodipodi:role="line"
         id="tspan1520"
         x="133.73573"
         y="169.69092" /></text>
    <path
       id="path4650"
       style="fill:#000000;fill-opacity:1;fill-rule:nonzero;stroke:none;stroke-width:1.25"
       d="M 299.0362,103.10014 H 155.73577 V 38.384701 H 299.0362 Z m -9.78438,20.80102 c 0,8.93641 -7.24648,16.18289 -16.1715,16.18289 -8.93641,0 -16.19334,-7.24648 -16.19334,-16.18289 0,-8.93641 7.25693,-16.1791 16.19334,-16.1791 8.92502,0 16.1715,7.24269 16.1715,16.1791 z m -47.64463,0 c 0,8.93641 -7.24647,16.18289 -16.18289,16.18289 -8.93641,0 -16.1715,-7.24648 -16.1715,-16.18289 0,-8.93641 7.23509,-16.1791 16.1715,-16.1791 8.93642,0 16.18289,7.24269 16.18289,16.1791 z m 57.42901,-4.62951 h -5.67389 c -1.0485,-4.54412 -3.58386,-8.6138 -7.21612,-11.54959 h 12.89001 z m -53.3299,0 c -1.02667,-4.54412 -3.56964,-8.6138 -7.20189,-11.54959 h 21.4958 c -3.63226,2.93579 -6.16382,7.00547 -7.21327,11.54959 z m -49.05824,0 v -11.54959 h 15.69993 c -3.63225,2.93579 -6.16762,7.00547 -7.20568,11.54959 z m -9.98911,4.62951 c 0,8.93641 -7.24268,16.18289 -16.18193,16.18289 -8.93641,0 -16.1791,-7.24648 -16.1791,-16.18289 0,-8.93641 7.24269,-16.1791 16.1791,-16.1791 8.93925,0 16.18193,7.24269 16.18193,16.1791 z m -71.60469,0 c 0,8.93641 -7.24649,16.18289 -16.182898,16.18289 -8.935461,0 -16.181943,-7.24648 -16.181943,-16.18289 0,-8.93641 7.246482,-16.1791 16.181943,-16.1791 8.936408,0 16.182898,7.24269 16.182898,16.1791 z m 11.55337,-69.344945 0.70319,48.712305 64.31085,0.2344 c -0.25437,0.20612 -0.94373,12.81534 -3.66323,12.99319 -1.41738,0.0927 -2.21769,-7.64131 -5.37695,-9.36876 -7.11952,-3.89289 -17.42996,-3.10331 -24.31372,1.19273 -5.03154,3.14009 -8.59177,10.7108 -8.59177,15.58108 h -30.00362 c 0,-11.48981 -9.31026,-20.80102 -20.801018,-20.80102 -11.489806,0 -20.800069,9.31121 -20.800069,20.80102 h -2.313332 c -2.553396,0 -4.621922,-2.07516 -4.621922,-4.62951 V 93.737684 c 0,-2.208948 0.396625,-4.410313 1.174695,-6.486429 L 82.514828,60.056777 c 0.633842,-1.7127 2.220344,-2.872215 4.036471,-2.987029"
       sodipodi:nodetypes="cccccsssssssssscccccccccccccccsssssssssscccsaaccscsssccc" />
  </g>
</svg>
