<?xml version="1.0" encoding="UTF-8" standalone="no"?>
<!-- Created with Inkscape (http://www.inkscape.org/) -->

<svg
   xmlns:dc="http://purl.org/dc/elements/1.1/"
   xmlns:cc="http://creativecommons.org/ns#"
   xmlns:rdf="http://www.w3.org/1999/02/22-rdf-syntax-ns#"
   xmlns:svg="http://www.w3.org/2000/svg"
   xmlns="http://www.w3.org/2000/svg"
   version="1.2"
   width="188.9375"
   height="283.03125"
   id="svg2">
  <metadata
     id="metadata3061">
    <rdf:RDF>
      <cc:Work
         rdf:about="">
        <dc:format>image/svg+xml</dc:format>
        <dc:type
           rdf:resource="http://purl.org/dc/dcmitype/StillImage" />
        <dc:title></dc:title>
      </cc:Work>
    </rdf:RDF>
  </metadata>
  <defs
     id="defs3059" />
  <g
     id="g3069">
    <path
       d="m 188.546,272.167 c 0,5.773 -4.68,10.457 -10.457,10.457 H 10.849 C 5.076,282.624 0.4,277.94 0.4,272.167 V 10.853 C 0.4,5.08 5.076,0.4 10.849,0.4 h 167.24 c 5.777,0 10.457,4.68 10.457,10.453 v 261.314 z"
       id="path3045"
       style="fill:#ffffff" />
    <path
       d="m 188.546,272.167 c 0,5.773 -4.68,10.457 -10.457,10.457 H 10.849 C 5.076,282.624 0.4,277.94 0.4,272.167 V 10.853 C 0.4,5.08 5.076,0.4 10.849,0.4 h 167.24 c 5.777,0 10.457,4.68 10.457,10.453 v 261.314 z"
       id="path3047"
       style="fill:none;stroke:#1c1d20;stroke-width:0.80000001;stroke-miterlimit:3.86400008" />
    <path
       d="m 183.945,10.853 c 0,-3.229 -2.621,-5.857 -5.855,-5.857 H 10.849 c -3.232,0 -5.857,2.629 -5.857,5.857 v 261.314 c 0,3.23 2.625,5.855 5.857,5.855 h 167.24 c 3.234,0 5.855,-2.625 5.855,-5.855 V 10.853"
       id="path3049"
       style="fill:#19408b" />
    <path
       d="m 31.757,157.187 m 125.43,0 H 31.757 V 31.751 h 125.43 v 125.436 z"
       id="path3051"
       style="fill:#ffffff" />
    <path
       d="m 123.742,71.48 c 3.133,0 2.086,2.088 2.086,2.088 h 16.727 c 3.133,0 3.133,3.137 3.133,3.137 0,15.676 -14.633,19.859 -14.633,19.859 -11.5,3.133 -10.453,6.271 -10.453,6.271 h 19.859 c 3.137,0 3.137,3.133 3.137,3.133 0,8.367 -12.543,11.5 -12.543,11.5 h -73.17 c 0,0 -12.543,-3.133 -12.543,-11.5 0,0 0,-3.133 3.135,-3.133 h 18.816 c 0,0 2.092,0 1.045,-2.088 0,0 -7.316,-10.455 -7.316,-19.867 v -7.313 c 0,0 0,-2.088 2.092,-2.088 h 60.628"
       id="path3053"
       style="fill:#1c1d20" />
    <path
       d="m 125.828,81.933 c 0.07,0.172 0,-1.053 1.047,-1.053 h 11.492 c 0,0 1.051,0 1.051,1.053 0,0 0,8.359 -15.676,13.588 0,0 -2.09,0.412 -1.352,-1.797 0,0.18 2.82,-4.955 3.438,-11.791"
       id="path3055"
       style="fill:#ffffff" />
  </g>
</svg>
