<?xml version="1.0" encoding="UTF-8" standalone="no"?>
<svg
   xmlns:dc="http://purl.org/dc/elements/1.1/"
   xmlns:cc="http://creativecommons.org/ns#"
   xmlns:rdf="http://www.w3.org/1999/02/22-rdf-syntax-ns#"
   xmlns:svg="http://www.w3.org/2000/svg"
   xmlns="http://www.w3.org/2000/svg"
   xmlns:sodipodi="http://sodipodi.sourceforge.net/DTD/sodipodi-0.dtd"
   xmlns:inkscape="http://www.inkscape.org/namespaces/inkscape"
   version="1.2"
   width="492.59375"
   height="280"
   id="svg2"
   sodipodi:docname="ES_S266a.svg"
   inkscape:version="1.0.1 (3bc2e813f5, 2020-09-07)">
  <sodipodi:namedview
     pagecolor="#ffffff"
     bordercolor="#666666"
     borderopacity="1"
     objecttolerance="10"
     gridtolerance="10"
     guidetolerance="10"
     inkscape:pageopacity="0"
     inkscape:pageshadow="2"
     inkscape:window-width="1920"
     inkscape:window-height="1027"
     id="namedview6630"
     showgrid="false"
     inkscape:showpageshadow="false"
     inkscape:pagecheckerboard="true"
     inkscape:zoom="0.5"
     inkscape:cx="239.21282"
     inkscape:cy="35.294227"
     inkscape:window-x="-8"
     inkscape:window-y="-8"
     inkscape:window-maximized="1"
     inkscape:current-layer="layer29"
     inkscape:document-rotation="0" />
  <metadata
     id="metadata5682">
    <rdf:RDF>
      <cc:Work
         rdf:about="">
        <dc:format>image/svg+xml</dc:format>
        <dc:type
           rdf:resource="http://purl.org/dc/dcmitype/StillImage" />
        <dc:title></dc:title>
      </cc:Work>
    </rdf:RDF>
  </metadata>
  <defs
     id="defs5680" />
  <g
     inkscape:groupmode="layer"
     id="layer29"
     inkscape:label="Layer 3"
     style="display:inline">
    <path
       d="m 0.14675,254.56766 c 0,13.46982 12.269,24.60125 27.116,24.60125 h 438.064 c 14.849,0 27.122,-11.13143 27.122,-24.60125 V 106.83408 c 0,-13.473457 -12.273,-24.601255 -27.122,-24.601255 h -438.064 c -14.849,0 -27.116,11.127798 -27.116,24.601255 v 147.73358"
       id="path5602"
       style="fill:#19408b;stroke-width:1" />
    <rect
       style="fill:#19408b;fill-opacity:1;stroke:none;stroke-width:0.999992;stroke-linecap:round;stroke-linejoin:round"
       id="rect906"
       width="142.34621"
       height="67.215477"
       x="183.21065"
       y="14.873872"
       ry="23.822008"
       rx="23.822008" />
  </g>
  <g
     inkscape:groupmode="layer"
     id="layer28"
     inkscape:label="Layer 2">
    <path
       d="M 188.73868,60.669414 V 38.375679 c 0,-8.492695 6.26835,-15.604464 13.95998,-15.604464 H 304.8561 c 7.59894,0 13.95997,7.112591 13.95997,15.604464 v 22.293735 c 0,8.492695 -6.36103,15.600355 -13.95997,15.600355 H 202.69866 c -7.69017,0 -13.95998,-7.10766 -13.95998,-15.600355 h -3.99257 3.99257 m -3.99257,0 c 0,10.930688 8.17121,20.062883 17.95255,20.062883 H 304.8561 c 9.78205,0 17.95253,-9.131374 17.95253,-20.062883 V 38.375679 c 0,-10.939729 -8.17048,-20.066992 -17.95253,-20.066992 H 202.69866 c -9.78134,0 -17.95255,9.127263 -17.95255,20.066992 z"
       id="path5606"
       style="fill:#ffffff;stroke-width:0.999996" />
    <path
       d="m 286.28522,58.894454 h 4.008 v -9.307 c 0,-1.545 1.416,-2.838 2.968,-2.838 1.679,0 2.972,1.293 2.972,2.838 v 9.307 h 4.13 v -9.307 c 0,-1.545 1.293,-2.838 2.844,-2.838 1.68,0 2.973,1.293 2.973,2.838 v 9.307 h 4.13 v -9.95 c 0,-2.585 -1.809,-5.295 -4.259,-6.196 -2.58,-1.035 -5.688,-0.263 -7.494,1.674 -1.938,-2.193 -5.553,-2.843 -8.262,-1.287 v -0.778 h -4.008 l -0.002,16.537"
       id="path5610"
       style="fill:#ffffff" />
    <path
       d="M 8.28375,241.02551 V 120.35685 c 0,-15.29363 8.522,-28.113334 18.979,-28.113334 h 438.064 c 10.461,0 18.983,12.819704 18.983,28.113334 v 120.66866 c 0,15.29511 -8.522,28.10593 -18.983,28.10593 h -438.064 c -10.455,0 -18.979,-12.81082 -18.979,-28.10593 h -5.428 5.428 m -5.428,0 c 0,19.69666 11.109,36.14212 24.407,36.14212 h 438.064 c 13.304,0 24.407,-16.44546 24.407,-36.14212 V 120.35685 c 0,-19.70258 -11.104,-36.143599 -24.407,-36.143599 h -438.064 c -13.298,0 -24.407,16.439539 -24.407,36.143599 z"
       id="path5616"
       style="fill:#ffffff;stroke-width:0.999996" />
    <path
       d="m 458.33276,157.16409 -10.67686,45.27186 -11.05612,-17.94564 -29.70411,31.18732 -10.54334,-11.27871 33.26137,-27.5334 -17.31067,-12.0956 46.02973,-7.60583"
       id="polyline5618"
       style="fill:#ffffff;stroke-width:1" />
    <path
       d="m 48.531092,189.15211 h 59.421998 v 59.421 H 48.531092 Z"
       id="rect5622"
       style="fill:#ffffff" />
    <path
       d="m 71.976093,198.07111 c -1.535,0 -1.45,1.451 -1.45,1.451 v 2.561 h -2.647 c -1.364,0 -1.279,1.279 -1.279,1.279 v 16.002 l 1.11,1.836 1.621,1.194 1.365,14.423 h -12.602 v 2.902 h 43.981997 v -2.902 H 88.506093 l 1.365,-14.423 1.622,-1.194 1.109,-1.536 v -16.302 c 0,0 0.086,-1.279 -1.279,-1.279 h -2.647 v -2.561 c 0,0 0.086,-1.451 -1.45,-1.451 0,-0.086 -15.25,-0.086 -15.25,0 z"
       id="path5624"
       style="fill:#1c1c20" />
    <path
       d="m 71.976093,198.07111 c -1.535,0 -1.45,1.451 -1.45,1.451 v 2.561 h -2.647 c -1.364,0 -1.279,1.279 -1.279,1.279 v 16.002 l 1.11,1.836 1.621,1.194 1.365,14.423 h -12.602 v 2.902 h 43.981997 v -2.902 H 88.506093 l 1.365,-14.423 1.622,-1.194 1.109,-1.536 v -16.302 c 0,0 0.086,-1.279 -1.279,-1.279 h -2.647 v -2.561 c 0,0 0.086,-1.451 -1.45,-1.451 0,-0.086 -15.25,-0.086 -15.25,0 z"
       id="path5626"
       style="fill:none;stroke:#1c1c20;stroke-width:0.097;stroke-miterlimit:3.864" />
    <path
       d="m 70.441091,205.66811 h 18.321 v 11.181 h -18.321 z"
       id="rect5628"
       style="fill:#ffffff" />
    <path
       d="m 70.441091,205.66811 h 18.321 v 11.181 h -18.321 z"
       id="rect5630"
       style="fill:none;stroke:#1c1c20;stroke-width:0.097;stroke-miterlimit:3.864" />
    <path
       d="m 66.785093,218.98111 -4.608,11.777 c 0,0 -2.006,3.756 -5.334,2.176 0,0.043 -3.457,-1.109 -2.134,-5.247 -0.043,-0.043 4.609,-12.504 4.609,-12.504 v -2.561 l 2.56,-6.87 h 0.939 c 0,0 1.28,-4.48 3.371,-4.311 0.042,-0.043 0.854,0.128 0.213,0.598 0,-0.086 -2.73,1.365 -2.347,3.926 -0.043,0 1.452,2.391 1.452,2.391 v 0.596 h 1.45 z"
       id="path5632"
       style="fill:#1c1c20" />
    <path
       d="m 66.785093,218.98111 -4.608,11.777 c 0,0 -2.006,3.756 -5.334,2.176 0,0.043 -3.457,-1.109 -2.134,-5.247 -0.043,-0.043 4.609,-12.504 4.609,-12.504 v -2.561 l 2.56,-6.87 h 0.939 c 0,0 1.28,-4.48 3.371,-4.311 0.042,-0.043 0.854,0.128 0.213,0.598 0,-0.086 -2.73,1.365 -2.347,3.926 -0.043,0 1.452,2.391 1.452,2.391 v 0.596 h 1.45 z"
       id="path5634"
       style="fill:none;stroke:#1c1c20;stroke-width:0.097;stroke-miterlimit:3.864" />
    <path
       d="m 63.116093,212.58011 -0.726,1.493 -0.896,0.684 -4.907,13.526 c 0,0 -0.726,2.178 0.939,2.859 -0.086,0.042 1.878,0.896 2.731,-1.193 -0.086,0 5.931,-15.534 5.931,-15.534 0,0 -0.811,-0.768 -0.682,-1.878 0.042,0 -0.94,0 -0.94,0 0,0 -1.322,0.811 -1.237,5.206 0.042,-0.043 -0.725,0 -0.725,0 0,0 0.043,-4.01 1.109,-5.163 z"
       id="path5636"
       style="fill:#ffffff;fill-rule:evenodd" />
    <path
       d="m 63.116093,212.58011 -0.726,1.493 -0.896,0.684 -4.907,13.526 c 0,0 -0.726,2.178 0.939,2.859 -0.086,0.042 1.878,0.896 2.731,-1.193 -0.086,0 5.931,-15.534 5.931,-15.534 0,0 -0.811,-0.768 -0.682,-1.878 0.042,0 -0.94,0 -0.94,0 0,0 -1.322,0.811 -1.237,5.206 0.042,-0.043 -0.725,0 -0.725,0 0,0 0.043,-4.01 1.109,-5.163 z"
       id="path5638"
       style="fill:none;stroke:#1c1c20;stroke-width:0.097;stroke-miterlimit:3.864" />
    <path
       d="m 132.5119,188.69685 h 59.422 v 59.421 h -59.422 z"
       id="rect5640"
       style="fill:#ffffff" />
    <path
       d="m 171.8809,195.32785 c 0.758,0 0.71,0.615 0.71,0.615 0,0 -0.046,4.126 0,4.126 0,0.521 -0.521,0.521 -0.521,0.521 h -4.361 v 2.134 c 0,0 4.125,0.048 4.077,0 0.9,0 0.806,0.807 0.806,0.807 0,0 0,2.465 0,2.418 0,0.901 -0.854,0.854 -0.854,0.854 0,0 -1.043,0.095 -1.043,0 -3.318,0 -2.986,3.177 -2.986,3.177 v 6.591 l 1.517,1.517 c 0,0 0,21.242 0,21.195 0,0.758 -1.327,0.758 -1.327,0.758 -0.996,0 -1.471,0.617 -1.423,0.617 0,0.711 -1.375,0.854 -1.375,0.854 0,0 -1.375,-0.143 -1.375,-0.854 0.047,0 -0.427,-0.617 -1.422,-0.617 0,0 -1.328,0 -1.328,-0.758 0,0.047 0,-21.195 0,-21.195 l 1.517,-1.517 v -6.591 c 0,0 -0.236,-3.177 -3.888,-3.177 h -6.306 c 0,0 -0.38,0 -0.38,-0.522 0,0 0,-3.176 0,-3.128 0,-0.476 0.428,-0.428 0.428,-0.428 -0.048,0.048 10.146,0 10.146,0 v -2.134 h -10.24 c 0,0 -0.38,0 -0.38,-0.38 -0.049,-0.047 0,-2.798 0,-2.798 0,0 0,-0.425 0.427,-0.425 h 5.405 l 1.659,-1.66 c -0.001,0 12.469,-0.047 12.517,0 z"
       id="path5642"
       style="fill:#1c1c20" />
    <path
       d="m 171.8809,195.32785 c 0.758,0 0.71,0.615 0.71,0.615 0,0 -0.046,4.126 0,4.126 0,0.521 -0.521,0.521 -0.521,0.521 h -4.361 v 2.134 c 0,0 4.125,0.048 4.077,0 0.9,0 0.806,0.807 0.806,0.807 0,0 0,2.465 0,2.418 0,0.901 -0.854,0.854 -0.854,0.854 0,0 -1.043,0.095 -1.043,0 -3.318,0 -2.986,3.177 -2.986,3.177 v 6.591 l 1.517,1.517 c 0,0 0,21.242 0,21.195 0,0.758 -1.327,0.758 -1.327,0.758 -0.996,0 -1.471,0.617 -1.423,0.617 0,0.711 -1.375,0.854 -1.375,0.854 0,0 -1.375,-0.143 -1.375,-0.854 0.047,0 -0.427,-0.617 -1.422,-0.617 0,0 -1.328,0 -1.328,-0.758 0,0.047 0,-21.195 0,-21.195 l 1.517,-1.517 v -6.591 c 0,0 -0.236,-3.177 -3.888,-3.177 h -6.306 c 0,0 -0.38,0 -0.38,-0.522 0,0 0,-3.176 0,-3.128 0,-0.476 0.428,-0.428 0.428,-0.428 -0.048,0.048 10.146,0 10.146,0 v -2.134 h -10.24 c 0,0 -0.38,0 -0.38,-0.38 -0.049,-0.047 0,-2.798 0,-2.798 0,0 0,-0.425 0.427,-0.425 h 5.405 l 1.659,-1.66 c -0.001,0 12.469,-0.047 12.517,0 z"
       id="path5644"
       style="fill:none;stroke:#1c1c20;stroke-width:0.108;stroke-miterlimit:3.864" />
    <path
       d="m 297.55768,189.23611 h 59.422 v 59.421 h -59.422 z"
       id="rect5646"
       style="fill:#ffffff" />
    <path
       d="m 340.73667,232.72411 c 3.13,3.996 -1.011,6.115 -1.011,6.115 -3.273,2.649 -5.682,-1.685 -5.682,-1.685 l -6.309,-12.326 c 0,0 -7.944,12.856 -7.944,12.807 -2.744,4.622 -6.307,1.685 -6.403,1.637 -3.756,-2.794 -0.048,-6.452 -0.048,-6.452 0,0 11.074,-13.145 11.074,-13.194 1.3,-1.491 -0.723,-1.491 -0.866,-1.636 -5.634,-1.204 -7.8,-4.622 -7.8,-4.573 -4.575,-6.069 -3.468,-10.113 -3.468,-10.113 1.444,-4.767 5.73,-3.274 5.683,-3.322 5.873,1.542 7.992,7.415 8.04,7.464 0.626,1.347 1.926,8.426 1.926,8.426 0,0 0.866,-1.157 1.541,-5.49 0,0.098 0.048,-2.599 3.082,-6.212 0.048,0 1.251,-2.116 4.573,-4.091 0,0 2.263,-1.011 1.301,0.962 -0.049,0.049 -4.334,6.356 -4.334,6.356 0,0 -0.144,0.289 0.145,0.484 0.097,0 0.288,0.143 0.578,-0.098 0.047,-0.097 4.526,-6.357 4.526,-6.357 0,0 0.385,-0.578 1.107,-0.193 0.599,0.558 0.299,1.172 0.299,1.172 0,0 -4.461,6.272 -4.536,6.349 -0.134,0.35 0.064,0.487 0.097,0.577 0.275,0.211 0.502,-0.019 0.502,-0.019 0,0 4.569,-6.105 4.6,-6.167 1.553,-1.554 1.333,0.915 1.333,0.915 -0.784,3.785 -2.396,5.611 -2.381,5.658 -2.427,4.043 -4.776,5.817 -6.463,6.54 -0.048,0.046 -1.299,0.239 -1.973,1.54 -0.097,0 -1.301,2.021 -1.301,2.021 0,0 10.064,12.954 10.112,12.905 z"
       id="path5648"
       style="fill:#1c1c20" />
    <path
       d="m 215.61818,188.81985 h 59.422 v 59.421 h -59.422 z"
       id="rect5650"
       style="fill:#ffffff" />
    <path
       d="m 260.92718,211.25185 c 1.148,0 2.081,0.933 2.081,2.08 v 4.68 h -25.479 v -6.76 z"
       id="path5652"
       style="fill:#1c1c20" />
    <path
       d="m 260.92718,211.25185 c 1.148,0 2.081,0.933 2.081,2.08 v 4.68 h -25.479 v -6.76 z"
       id="path5654"
       style="fill:none;stroke:#1c1c20;stroke-width:0.104;stroke-miterlimit:3.864" />
    <path
       d="m 226.61018,219.05085 h 37.438 v -5.719 c 0,-1.147 0.931,-2.08 2.079,-2.08 1.149,0 2.08,0.933 2.08,2.08 v 16.639 h -4.159 v -6.241 h -37.438 v 6.241 h -4.159 v -20.798 c 0,-1.15 0.931,-2.079 2.08,-2.079 1.148,0 2.079,0.929 2.079,2.079 z"
       id="path5656"
       style="fill:#1c1c20" />
    <path
       d="m 226.61018,219.05085 h 37.438 v -5.719 c 0,-1.147 0.931,-2.08 2.079,-2.08 1.149,0 2.08,0.933 2.08,2.08 v 16.639 h -4.159 v -6.241 h -37.438 v 6.241 h -4.159 v -20.798 c 0,-1.15 0.931,-2.079 2.08,-2.079 1.148,0 2.079,0.929 2.079,2.079 z"
       id="path5658"
       style="fill:none;stroke:#1c1c20;stroke-width:0.104;stroke-miterlimit:3.864" />
    <path
       d="m 227.65118,218.01185 v -4.16 c 0,0 0.259,-2.6 4.42,-2.6 4.159,0 4.419,2.6 4.419,2.6 v 4.16 z"
       id="path5660"
       style="fill:#1c1c20" />
    <path
       d="m 227.65118,218.01185 v -4.16 c 0,0 0.259,-2.6 4.42,-2.6 4.159,0 4.419,2.6 4.419,2.6 v 4.16 z"
       id="path5662"
       style="fill:none;stroke:#1c1c20;stroke-width:0.104;stroke-miterlimit:3.864" />
    <path
       d="m 219.21436,52.264519 c 0,1.111 -0.261,2.216 -0.782,3.315 -0.521,1.1 -1.225,2.012 -2.107,2.737 -0.681,0.612 -1.564,1.088 -2.652,1.428 -1.088,0.34 -2.278,0.51 -3.57,0.51 -3.423,0 -6.539,-0.805 -9.35,-2.414 l 2.481,-3.91 c 1.156,0.658 2.267,1.117 3.332,1.377 1.065,0.261 2.244,0.391 3.536,0.391 3.082,0 4.624,-1.178 4.624,-3.536 0,-2.289 -1.563,-3.434 -4.692,-3.434 -0.317,0 -0.623,0.012 -0.918,0.034 -0.295,0.023 -0.601,0.068 -0.918,0.136 -0.317,0.068 -0.662,0.159 -1.037,0.272 -0.373,0.113 -0.811,0.261 -1.309,0.442 l -4.624,-1.836 0.952,-10.778 h 15.027 v 4.556 l -10.472,0.068 -0.407,2.958 c 0.611,-0.113 1.229,-0.209 1.853,-0.289 0.623,-0.079 1.263,-0.119 1.921,-0.119 1.088,0 2.04,0.097 2.855,0.289 0.816,0.192 1.564,0.47 2.244,0.833 1.246,0.726 2.228,1.706 2.941,2.941 0.713,1.235 1.072,2.579 1.072,4.029 z"
       id="path5668"
       style="fill:#ffffff" />
    <path
       d="m 271.71639,49.220774 c 0,1.813 -0.227,3.451 -0.68,4.913 -0.453,1.462 -1.094,2.703 -1.921,3.723 -0.828,1.02 -1.831,1.808 -3.009,2.363 -1.179,0.555 -2.482,0.833 -3.91,0.833 -1.723,0 -3.19,-0.335 -4.403,-1.003 -1.213,-0.668 -2.204,-1.558 -2.975,-2.669 -0.771,-1.11 -1.332,-2.374 -1.683,-3.791 -0.353,-1.416 -0.527,-2.873 -0.527,-4.369 0,-1.791 0.221,-3.411 0.663,-4.862 0.441,-1.45 1.076,-2.686 1.903,-3.706 0.827,-1.02 1.837,-1.807 3.026,-2.363 1.19,-0.555 2.521,-0.833 3.995,-0.833 1.382,0 2.652,0.284 3.808,0.85 1.156,0.567 2.159,1.366 3.01,2.397 0.85,1.032 1.513,2.267 1.988,3.706 0.478,1.439 0.715,3.043 0.715,4.811 z m -4.487,-0.102 c 0,-2.47 -0.437,-4.272 -1.31,-5.406 -0.872,-1.133 -2.113,-1.7 -3.723,-1.7 -1.632,0 -2.879,0.601 -3.74,1.802 -0.861,1.202 -1.292,3.004 -1.292,5.406 0,2.334 0.437,4.131 1.31,5.389 0.872,1.258 2.113,1.887 3.723,1.887 1.564,0 2.793,-0.668 3.689,-2.006 0.895,-1.338 1.343,-3.129 1.343,-5.372 z"
       id="path5670"
       style="fill:#ffffff" />
    <path
       d="m 245.28527,48.608542 c 0,1.813 -0.227,3.451 -0.68,4.913 -0.453,1.462 -1.094,2.703 -1.921,3.723 -0.828,1.02 -1.831,1.808 -3.009,2.363 -1.179,0.555 -2.482,0.833 -3.91,0.833 -1.723,0 -3.19,-0.335 -4.403,-1.003 -1.213,-0.668 -2.204,-1.558 -2.975,-2.669 -0.771,-1.11 -1.332,-2.374 -1.683,-3.791 -0.353,-1.416 -0.527,-2.873 -0.527,-4.369 0,-1.791 0.221,-3.411 0.663,-4.862 0.441,-1.45 1.076,-2.686 1.903,-3.706 0.827,-1.02 1.837,-1.807 3.026,-2.363 1.19,-0.555 2.521,-0.833 3.995,-0.833 1.382,0 2.652,0.284 3.808,0.85 1.156,0.567 2.159,1.366 3.01,2.397 0.85,1.032 1.513,2.267 1.988,3.706 0.478,1.439 0.715,3.043 0.715,4.811 z m -4.487,-0.102 c 0,-2.47 -0.437,-4.272 -1.31,-5.406 -0.872,-1.133 -2.113,-1.7 -3.723,-1.7 -1.632,0 -2.879,0.601 -3.74,1.802 -0.861,1.202 -1.292,3.004 -1.292,5.406 0,2.334 0.437,4.131 1.31,5.389 0.872,1.258 2.113,1.887 3.723,1.887 1.564,0 2.793,-0.668 3.689,-2.006 0.895,-1.338 1.343,-3.129 1.343,-5.372 z"
       id="path5670-8"
       style="fill:#ffffff" />
  </g>
  <g
     inkscape:groupmode="layer"
     id="layer30"
     inkscape:label="Layer 4">
    <text
       xml:space="preserve"
       style="font-size:42.6667px;line-height:25px;font-family:'Andale Mono IPA';-inkscape-font-specification:'Andale Mono IPA';letter-spacing:0px;word-spacing:0px;fill:none;stroke:#000000;stroke-width:1px;stroke-linecap:butt;stroke-linejoin:miter;stroke-opacity:1"
       x="169.35756"
       y="119.27871"
       id="text7504"><tspan
         sodipodi:role="line"
         id="tspan7502"
         x="169.35756"
         y="119.27871" /></text>
    <text
       xml:space="preserve"
       style="font-size:49.5662px;line-height:29.0427px;font-family:Ccrige;-inkscape-font-specification:Ccrige;letter-spacing:2.06526px;word-spacing:0px;display:inline;opacity:1;fill:#ffffff;stroke:#000000;stroke-width:1px;stroke-linecap:butt;stroke-linejoin:miter;stroke-opacity:1;"
       x="37.080318"
       y="167.08302"
       id="text5594"
       transform="scale(1.0326291,0.96840194)"><tspan
         sodipodi:role="line"
         id="tspan5592"
         x="37.080318"
         y="167.08302"
         style="font-style:normal;font-variant:normal;font-weight:normal;font-stretch:normal;font-size:49.5662px;font-family:'Highway Gothic';-inkscape-font-specification:'Highway Gothic';fill:#ffffff;fill-opacity:1;stroke:none;stroke-width:1px;">vía de servicio</tspan></text>
  </g>
</svg>
