<?xml version="1.0" encoding="UTF-8" standalone="no"?>
<svg
   xmlns:dc="http://purl.org/dc/elements/1.1/"
   xmlns:cc="http://creativecommons.org/ns#"
   xmlns:rdf="http://www.w3.org/1999/02/22-rdf-syntax-ns#"
   xmlns:svg="http://www.w3.org/2000/svg"
   xmlns="http://www.w3.org/2000/svg"
   xmlns:sodipodi="http://sodipodi.sourceforge.net/DTD/sodipodi-0.dtd"
   xmlns:inkscape="http://www.inkscape.org/namespaces/inkscape"
   version="1.2"
   width="500"
   height="95"
   id="svg2"
   sodipodi:docname="ES_S720.svg"
   inkscape:version="1.0.1 (3bc2e813f5, 2020-09-07)">
  <sodipodi:namedview
     pagecolor="#ffffff"
     bordercolor="#666666"
     borderopacity="1"
     objecttolerance="10"
     gridtolerance="10"
     guidetolerance="10"
     inkscape:pageopacity="0"
     inkscape:pageshadow="2"
     inkscape:window-width="1920"
     inkscape:window-height="1027"
     id="namedview906"
     showgrid="false"
     inkscape:zoom="1"
     inkscape:cx="165.69328"
     inkscape:cy="105.88541"
     inkscape:window-x="-8"
     inkscape:window-y="-8"
     inkscape:window-maximized="1"
     inkscape:current-layer="layer8"
     fit-margin-top="0"
     fit-margin-left="0"
     fit-margin-right="0"
     fit-margin-bottom="0"
     inkscape:document-rotation="0"
     inkscape:showpageshadow="false"
     inkscape:pagecheckerboard="true" />
  <metadata
     id="metadata3197">
    <rdf:RDF>
      <cc:Work
         rdf:about="">
        <dc:format>image/svg+xml</dc:format>
        <dc:type
           rdf:resource="http://purl.org/dc/dcmitype/StillImage" />
        <dc:title />
      </cc:Work>
    </rdf:RDF>
  </metadata>
  <defs
     id="defs3195" />
  <g
     inkscape:groupmode="layer"
     id="layer3"
     inkscape:label="Layer 1"
     transform="translate(0,-1.288889)"
     style="display:inline" />
  <g
     inkscape:groupmode="layer"
     id="layer5"
     inkscape:label="Layer 3"
     transform="translate(0,-1.288889)"
     style="display:inline">
    <text
       xml:space="preserve"
       style="font-size:42.6667px;line-height:25px;font-family:'Andale Mono IPA';-inkscape-font-specification:'Andale Mono IPA';letter-spacing:0px;word-spacing:0px;fill:none;stroke:#000000;stroke-width:1px;stroke-linecap:butt;stroke-linejoin:miter;stroke-opacity:1"
       x="133.73573"
       y="169.69092"
       id="text1522"><tspan
         sodipodi:role="line"
         id="tspan1520"
         x="133.73573"
         y="169.69092" /></text>
  </g>
  <g
     inkscape:groupmode="layer"
     id="layer1"
     inkscape:label="Layer 2"
     transform="translate(0,-1.288889)"
     style="display:inline" />
  <g
     inkscape:groupmode="layer"
     id="layer2"
     inkscape:label="Layer 4"
     style="display:inline;opacity:0.512528" />
  <g
     inkscape:groupmode="layer"
     id="layer4"
     inkscape:label="Layer 5"
     style="display:inline;opacity:1">
    <rect
       style="fill:#ff6600;stroke-linecap:round;stroke-linejoin:round"
       id="rect4893"
       width="499.40002"
       height="92.244446"
       x="0.04444512"
       y="1.2000033" />
  </g>
  <g
     inkscape:groupmode="layer"
     id="layer6"
     inkscape:label="Layer 6"
     style="display:inline;opacity:1">
    <text
       xml:space="preserve"
       style="font-style:normal;font-variant:normal;font-weight:normal;font-stretch:normal;font-size:29.0857px;line-height:17.0424px;font-family:'Highway Gothic Wide';-inkscape-font-specification:'Highway Gothic Wide';letter-spacing:1.25351px;word-spacing:0px;fill:#ffffff;stroke:none;stroke-width:0.999998px;stroke-linecap:butt;stroke-linejoin:miter;stroke-opacity:1"
       x="229.23706"
       y="36.356609"
       id="text4898"><tspan
         sodipodi:role="line"
         id="tspan4896"
         x="229.23706"
         y="36.356609"
         style="font-style:normal;font-variant:normal;font-weight:normal;font-stretch:normal;font-family:TrafficTypeW01-SpainD;-inkscape-font-specification:TrafficTypeW01-SpainD;fill:#ffffff;stroke-width:0.999998px">estadio</tspan></text>
  </g>
  <g
     inkscape:groupmode="layer"
     id="layer7"
     inkscape:label="Layer 7"
     style="display:inline;opacity:1" />
  <g
     inkscape:groupmode="layer"
     id="layer8"
     inkscape:label="Layer 8"
     style="display:inline;opacity:1">
    <path
       id="rect4910"
       style="fill:#ffffff;stroke:none;stroke-width:1;stroke-linecap:round;stroke-linejoin:round"
       d="M 41.530921,86.74077 8.4933199,53.50223 40.411703,20.69247 59.436804,20.893419 34.501628,46.639959 74.413484,46.33368 74.325784,59.71263 34.034401,60.16869 59.44187,86.698659 Z"
       sodipodi:nodetypes="cccccccccc" />
    <text
       xml:space="preserve"
       style="font-style:normal;font-variant:normal;font-weight:normal;font-stretch:normal;font-size:42.6667px;line-height:25px;font-family:'Highway Gothic Wide';-inkscape-font-specification:'Highway Gothic Wide';letter-spacing:1px;word-spacing:0px;fill:#000000;stroke:none;stroke-width:1px;stroke-linecap:butt;stroke-linejoin:miter;stroke-opacity:1"
       x="227.96402"
       y="77.781746"
       id="text6146"><tspan
         sodipodi:role="line"
         id="tspan6144"
         x="227.96402"
         y="77.781746"
         style="font-style:normal;font-variant:normal;font-weight:normal;font-stretch:normal;font-family:TrafficTypeW01-SpainD;-inkscape-font-specification:TrafficTypeW01-SpainD;fill:#ffffff">B. Villamarín</tspan></text>
  </g>
  <g
     inkscape:groupmode="layer"
     id="layer9"
     inkscape:label="Layer 9"
     style="opacity:1" />
  <g
     inkscape:groupmode="layer"
     id="layer10"
     inkscape:label="Layer 10"
     style="opacity:1">
    <rect
       style="fill:#ffffff;stroke:none;stroke-linecap:round;stroke-linejoin:round"
       id="rect6155"
       width="64.346718"
       height="63.63961"
       x="86.267021"
       y="16.440233" />
    <path
       d="m 128.47598,32.320544 c 0.91619,1.191554 1.53332,2.259978 1.8531,3.204643 2.76153,2.470244 4.8031,5.071576 6.12554,7.803785 0.11603,0.0149 0.26177,0.03619 0.43599,0.06561 -0.058,-0.159779 -0.1091,-0.31977 -0.15266,-0.479961 -1.49688,-4.606463 -4.25087,-8.137793 -8.26197,-10.594002 z M 114.2849,48.974947 c 2.1222,-1.075534 4.46888,-2.070885 7.04131,-2.986226 1.23512,-3.647972 1.70734,-6.757556 1.41708,-9.329986 -1.1771,-1.08998 -2.63063,-2.09266 -4.35976,-3.008211 -3.64797,-0.232443 -7.13553,1.104024 -10.46353,4.01068 -0.53776,1.540867 -0.85021,3.408192 -0.93754,5.602636 z m 5.29752,-19.531737 c 0.0869,0.07265 0.14513,0.152452 0.17403,0.239771 0.39265,-0.08735 0.74844,-0.167099 1.06843,-0.239771 -0.4358,-0.07292 -0.87913,-0.123768 -1.32977,-0.152662 0.0147,0.04377 0.0436,0.09448 0.0873,0.152662 z m -2.26732,2.746657 c 0.34868,-0.828443 0.7342,-1.445999 1.15535,-1.852888 -0.50826,-0.537767 -1.3369,-0.857537 -2.48469,-0.959313 -1.366,0.145335 -2.72468,0.443541 -4.07664,0.893988 -2.63023,0.857538 -4.91201,2.121562 -6.84509,3.792886 -0.1889,0.479752 -0.26847,0.864665 -0.23978,1.155533 v 0.06515 c 1.20622,-0.02887 2.22377,0.159991 3.05199,0.56709 2.99356,-2.41265 6.13999,-3.633106 9.43886,-3.66242 z M 99.96356,47.078719 c -0.523098,-1.192194 -0.81398,-2.412439 -0.871785,-3.662428 -1.162861,3.793096 -1.097738,7.680428 0.195808,11.662416 0.305116,0.959121 0.690641,1.932669 1.155747,2.920893 0.17444,-0.348673 0.34867,-0.653997 0.52312,-0.915762 -1.264643,-3.603993 -1.599076,-6.938893 -1.00289,-10.005119 z m 3.96712,-13.907966 c 0.0289,-0.04358 0.0511,-0.06534 0.0656,-0.06534 2.09266,-1.874874 4.58467,-3.276895 7.47667,-4.207113 1.46777,-0.479542 2.92821,-0.799321 4.38154,-0.959312 h 0.1091 c 2.54352,-0.290457 5.05021,-0.09448 7.52044,0.588663 l -0.0217,0.02174 c 1.36621,0.377777 2.72488,0.901106 4.07685,1.569559 0,0.01444 0.0141,0.02915 0.0433,0.04358 5.18842,2.659539 8.69064,6.757327 10.50689,12.294428 0.0873,0.305324 0.18177,0.610649 0.28354,0.915763 1.48224,5.246203 0.95912,10.325107 -1.56954,15.236884 -0.058,0.116652 -0.11603,0.24753 -0.17446,0.392653 -0.82842,1.52599 -1.79444,2.928212 -2.89952,4.207523 -2.41244,2.717553 -5.47866,4.679545 -9.19888,5.885343 -2.834,0.915342 -5.6171,1.257107 -8.34909,1.024455 h -0.0217 c -2.63044,-0.232241 -5.20998,-0.995351 -7.73865,-2.288899 -0.0145,0 -0.0292,-0.0073 -0.0433,-0.02174 -4.02576,-2.049109 -6.98288,-4.904868 -8.872413,-8.567087 -0.668236,-1.264015 -1.199094,-2.506885 -1.591125,-3.727551 -1.525779,-4.650643 -1.467766,-9.177314 0.174026,-13.580848 0.131088,-0.421546 0.290877,-0.842881 0.479981,-1.264024 0.188472,-0.40688 0.399761,-0.835763 0.632212,-1.286211 0.0869,-0.189093 0.181344,-0.377987 0.28334,-0.566678 1.191769,-2.20909 2.674409,-4.090882 4.447089,-5.645774 z m -0.43578,2.550243 c -0.0145,-0.02887 -0.0217,-0.05775 -0.0217,-0.0869 -0.11649,0.115801 -0.22533,0.239789 -0.32709,0.370457 0.13067,-0.101809 0.2471,-0.196221 0.34887,-0.28354 z m 20.7522,1.569751 c 0.16019,2.514013 -0.34135,5.507988 -1.50381,8.980893 2.10713,1.700637 3.80777,3.611741 5.10068,5.733303 l 6.80153,-1.613108 c 0.63955,-1.714883 0.99535,-3.393317 1.068,-5.035546 -1.14799,-3.081294 -3.25532,-5.994648 -6.32133,-8.741314 -1.86042,-0.02869 -3.57531,0.19602 -5.14507,0.675772 z m -18.13643,7.084656 c -1.70064,0.610027 -3.26976,1.584206 -4.70843,2.921111 -0.63955,3.284213 -0.13821,6.881087 1.5042,10.790414 1.16246,1.234903 2.55045,2.296209 4.16356,3.182447 2.4562,-1.046439 4.7518,-2.259987 6.88864,-3.640634 -0.53799,-1.932678 -0.69086,-4.41778 -0.458,-7.455103 z m 29.97329,12.403531 c -0.0143,-1.903977 -0.45024,-3.546207 -1.30779,-4.926854 l -6.84507,1.635303 c -0.81379,2.04889 -2.28178,4.21444 -4.40313,6.495992 l 2.07111,5.362444 c 1.36558,0.130668 3.146,-0.334016 5.34064,-1.395112 0.61003,-0.537785 1.17733,-1.1189 1.70002,-1.743785 1.03199,-1.147794 1.94042,-2.455998 2.72488,-3.923773 0.0439,-0.101808 0.10181,-0.218006 0.17445,-0.348884 0.1891,-0.392021 0.37023,-0.777756 0.54489,-1.155331 z m -11.83686,9.068421 -2.02691,-5.318885 c -2.09267,0.07273 -4.5342,-0.530649 -7.32443,-1.809749 -2.10753,1.395322 -4.37422,2.615787 -6.80152,3.662428 0.37778,1.278891 0.84289,2.368888 1.39531,3.269995 3.73467,1.365999 6.08911,2.390444 7.06287,3.073335 0.68311,0.02887 1.366,0.02887 2.04932,0 2.79002,-0.871993 4.67159,-1.831114 5.64536,-2.877124 z"
       clip-rule="evenodd"
       fill="#333333"
       fill-rule="evenodd"
       id="path6777"
       style="stroke-width:1" />
  </g>
</svg>
