<?xml version="1.0" encoding="UTF-8" standalone="no"?>
<!-- Created with Inkscape (http://www.inkscape.org/) -->

<svg
   xmlns:dc="http://purl.org/dc/elements/1.1/"
   xmlns:cc="http://creativecommons.org/ns#"
   xmlns:rdf="http://www.w3.org/1999/02/22-rdf-syntax-ns#"
   xmlns:svg="http://www.w3.org/2000/svg"
   xmlns="http://www.w3.org/2000/svg"
   version="1.2"
   width="749.21875"
   height="237.375"
   id="svg2">
  <metadata
     id="metadata4726">
    <rdf:RDF>
      <cc:Work
         rdf:about="">
        <dc:format>image/svg+xml</dc:format>
        <dc:type
           rdf:resource="http://purl.org/dc/dcmitype/StillImage" />
        <dc:title></dc:title>
      </cc:Work>
    </rdf:RDF>
  </metadata>
  <defs
     id="defs4724" />
  <g
     id="g4799">
    <path
       d="m 0.11675,210.11075 c 0,14.85 12.268,27.122 27.122,27.122 h 294.701 c 14.85,0 27.122,-12.272 27.122,-27.122 v -182.871 c 0,-14.854 -12.272,-27.122 -27.122,-27.122 h -294.7 c -14.854,0 -27.122,12.268 -27.122,27.122 l -10e-4,182.871"
       id="path4602"
       style="fill:#19408b" />
    <path
       d="m 0.11675,210.11075 c 0,14.85 12.268,27.122 27.122,27.122 h 294.701 c 14.85,0 27.122,-12.272 27.122,-27.122 v -182.871 c 0,-14.854 -12.272,-27.122 -27.122,-27.122 h -294.7 c -14.854,0 -27.122,12.268 -27.122,27.122 l -10e-4,182.871"
       id="path4604"
       style="fill:none;stroke:#ffffff;stroke-width:0.26370001;stroke-miterlimit:2.61299992" />
    <path
       d="m 8.24975,210.11075 v -182.871 c 0,-10.332 8.658,-18.984 18.99,-18.984 h 294.701 c 10.331,0 18.984,8.653 18.984,18.984 v 182.871 c 0,10.331 -8.653,18.984 -18.984,18.984 h -294.701 c -10.333,0 -18.99,-8.653 -18.99,-18.984 h -5.418 5.418 m -5.418,0 c 0,13.304 11.104,24.412 24.408,24.412 h 294.701 c 13.304,0 24.407,-11.108 24.407,-24.412 v -182.871 c 0,-13.309 -11.104,-24.413 -24.407,-24.413 h -294.701 c -13.304,0 -24.408,11.104 -24.408,24.413 v 182.871 z"
       id="path4606"
       style="fill:#ffffff" />
    <path
       d="m 138.68875,26.223749 71.807,0 0,34.353001 -71.807,0 z"
       id="rect4608"
       style="fill:#ffffff" />
    <path
       d="m 140.36275,28.03175 68.44899,0 0,30.736999 -68.44899,0 z"
       id="rect4610"
       style="fill:#19408b" />
    <path
       d="m 153.02275,45.33175 2.843,-6.968 2.709,6.968 h -5.552 l -8.004,8.916 8.004,-8.916 m -8.004,8.916 h 4.388 l 1.937,-4.774 h 8.91 l 1.937,4.774 h 4.522 l -8.781,-21.699 h -4.265 l -8.648,21.699 z"
       id="path4612"
       style="fill:#ffffff" />
    <path
       d="m 174.32974,41.463749 6.845,0 0,4.136 -6.845,0 z"
       id="rect4614"
       style="fill:#ffffff" />
    <path
       d="m 192.28375,46.10975 c 1.937,-0.901 4.774,-0.901 6.845,0 0.644,0.263 1.159,0.907 1.159,1.679 0,0.648 -0.515,1.421 -1.159,1.684 -2.071,0.896 -4.909,0.896 -6.845,0 -0.644,-0.263 -1.169,-1.036 -1.169,-1.684 0,-0.772 0.525,-1.416 1.169,-1.679 l -1.292,-4.002 1.292,4.002 m -1.293,-4.002 c 1.55,-4.13 6.067,-6.716 10.455,-5.938 v -4.136 c -4.259,-0.381 -9.039,1.679 -11.748,4.914 -2.709,3.224 -3.744,8.385 -2.452,12.526 0.386,1.545 1.808,3.101 3.358,3.739 2.972,1.422 7.36,1.422 10.46,0 2.065,-0.896 3.615,-3.224 3.615,-5.423 0,-2.323 -1.55,-4.522 -3.615,-5.424 -2.842,-1.421 -7.106,-1.421 -10.073,-0.258 z"
       id="path4616"
       style="fill:#ffffff" />
    <path
       d="m 53.191,207.002 -20.658,-20.664 16.528,3.616 0,-12.144 8.137,0 0,12.144 16.656,-3.616 -20.663,20.664"
       transform="translate(-0.15625,0.09375)"
       id="polyline4618"
       style="fill:#ffffff" />
    <path
       d="m 296.3,207.002 -20.663,-20.664 16.661,3.616 0,-12.144 8.128,0 0,12.144 16.538,-3.616 -20.664,20.664"
       transform="translate(-0.15625,0.09375)"
       id="polyline4620"
       style="fill:#ffffff" />
    <path
       d="m 0.11675,210.11075 c 0,14.85 12.268,27.122 27.122,27.122 h 294.701 c 14.85,0 27.122,-12.272 27.122,-27.122 v -182.871 c 0,-14.854 -12.272,-27.122 -27.122,-27.122 h -294.7 c -14.854,0 -27.122,12.268 -27.122,27.122 l -10e-4,182.871 0,0 z"
       id="path4622"
       style="fill:none;stroke:#1d2d28;stroke-width:0.26370001;stroke-miterlimit:2.61299992" />
    <path
       d="m 361.77175,210.11075 c 0,14.85 12.269,27.122 27.116,27.122 h 333.064 c 14.849,0 27.122,-12.272 27.122,-27.122 v -182.871 c 0,-14.854 -12.273,-27.122 -27.122,-27.122 h -333.064 c -14.849,0 -27.116,12.268 -27.116,27.122 v 182.871"
       id="path4624"
       style="fill:#19408b" />
    <path
       d="m 361.77175,210.11075 c 0,14.85 12.269,27.122 27.116,27.122 h 333.064 c 14.849,0 27.122,-12.272 27.122,-27.122 v -182.871 c 0,-14.854 -12.273,-27.122 -27.122,-27.122 h -333.064 c -14.849,0 -27.116,12.268 -27.116,27.122 v 182.871"
       id="path4626"
       style="fill:none;stroke:#ffffff;stroke-width:0.26370001;stroke-miterlimit:2.61299992" />
    <path
       d="m 369.90875,54.36175 v -27.122 c 0,-10.332 8.522,-18.984 18.979,-18.984 h 120.886 c 10.331,0 18.979,8.653 18.979,18.984 v 27.122 c 0,10.332 -8.648,18.979 -18.979,18.979 h -120.886 c -10.455,0 -18.979,-8.647 -18.979,-18.979 h -5.43 5.43 m -5.428,0 c 0,13.298 11.109,24.408 24.407,24.408 h 120.886 c 13.298,0 24.407,-11.109 24.407,-24.408 v -27.122 c 0,-13.309 -11.109,-24.413 -24.407,-24.413 h -120.886 c -13.298,0 -24.407,11.104 -24.407,24.413 v 27.122 z"
       id="path4628"
       style="fill:#ffffff" />
    <path
       d="m 544.89375,54.36175 v -27.122 c 0,-10.332 8.658,-18.984 18.99,-18.984 h 158.068 c 10.461,0 18.983,8.653 18.983,18.984 v 27.122 c 0,10.332 -8.522,18.979 -18.983,18.979 h -158.068 c -10.332,0 -18.99,-8.647 -18.99,-18.979 h -5.418 5.418 m -5.418,0 c 0,13.298 11.104,24.408 24.408,24.408 h 158.068 c 13.304,0 24.407,-11.109 24.407,-24.408 v -27.122 c 0,-13.309 -11.104,-24.413 -24.407,-24.413 h -158.068 c -13.304,0 -24.408,11.104 -24.408,24.413 v 27.122 l 0,0 z"
       id="path4630"
       style="fill:#ffffff" />
    <path
       d="m 391.60775,49.32475 c 2.58,1.288 6.711,2.328 9.684,2.328 4.136,0 7.488,-3.492 7.488,-7.499 0,-4.13 -3.354,-7.489 -7.488,-7.489 -1.421,0 -3.486,0.392 -4.779,0.901 l 0.387,-3.868 h 10.331 v -4.136 h -14.207 l -0.771,10.461 3.225,2.451 c 1.55,-1.03 4.007,-1.674 5.814,-1.674 1.807,0 3.357,1.545 3.357,3.353 0,1.813 -1.551,3.358 -3.357,3.358 -2.328,0 -5.814,-0.772 -7.88,-1.808 l -1.804,3.622"
       id="path4632"
       style="fill:#ffffff" />
    <path
       d="m 421.69775,44.66875 c -0.649,-2.452 -0.649,-5.934 0,-8.262 0.515,-1.937 2.322,-3.358 4.259,-3.358 2.07,0 3.879,1.421 4.394,3.358 0.645,2.328 0.645,5.81 0,8.262 -0.515,1.812 -2.322,3.229 -4.394,3.229 -1.937,0 -3.746,-1.416 -4.259,-3.229 l -4.003,0.648 4.003,-0.648 m -4.003,0.649 c 1.03,3.616 4.518,6.335 8.262,6.335 3.879,0 7.364,-2.719 8.396,-6.335 0.772,-2.843 0.772,-6.839 0,-9.554 -1.029,-3.621 -4.517,-6.33 -8.396,-6.33 -3.744,0 -7.23,2.709 -8.262,6.33 -0.778,2.714 -0.778,6.711 0,9.554 z"
       id="path4634"
       style="fill:#ffffff" />
    <path
       d="m 448.29775,44.66875 c -0.777,-2.452 -0.777,-5.934 0,-8.262 0.516,-1.937 2.323,-3.358 4.26,-3.358 1.938,0 3.878,1.421 4.395,3.358 0.644,2.328 0.644,5.81 0,8.262 -0.517,1.812 -2.457,3.229 -4.395,3.229 -1.937,0 -3.744,-1.416 -4.26,-3.229 l -4.002,0.648 4.002,-0.648 m -4.002,0.649 c 1.03,3.616 4.518,6.335 8.262,6.335 3.744,0 7.365,-2.719 8.396,-6.335 0.777,-2.843 0.777,-6.839 0,-9.554 -1.029,-3.621 -4.65,-6.33 -8.396,-6.33 -3.746,0 -7.23,2.709 -8.262,6.33 -0.777,2.714 -0.777,6.711 0,9.554 z"
       id="path4636"
       style="fill:#ffffff" />
    <path
       d="m 483.80975,51.65275 h 4.008 v -9.307 c 0,-1.545 1.416,-2.838 2.968,-2.838 1.679,0 2.972,1.293 2.972,2.838 v 9.307 h 4.13 v -9.307 c 0,-1.545 1.293,-2.838 2.844,-2.838 1.68,0 2.973,1.293 2.973,2.838 v 9.307 h 4.13 v -9.95 c 0,-2.585 -1.809,-5.295 -4.259,-6.196 -2.58,-1.035 -5.688,-0.263 -7.494,1.674 -1.938,-2.193 -5.553,-2.843 -8.262,-1.287 v -0.778 h -4.008 l -0.002,16.537"
       id="path4638"
       style="fill:#ffffff" />
    <path
       d="m 566.749,62.406 17.82,0 1.679,-43.398 -5.166,0 -14.333,43.398"
       transform="translate(-0.15625,0.09375)"
       id="polyline4640"
       style="fill:#ffffff" />
    <path
       d="m 590.642,62.406 17.686,0 -6.454,-20.406 13.041,-14.725 4.265,10.331 0,-18.598 -18.598,0 10.465,4.265 -12.659,7.88 -3.873,-12.145 -5.166,0 1.293,43.398"
       transform="translate(-0.15625,0.09375)"
       id="polyline4642"
       style="fill:#ffffff" />
    <path
       d="m 369.90875,210.11075 v -101.505 c 0,-10.331 8.522,-18.989 18.979,-18.989 h 333.064 c 10.461,0 18.983,8.658 18.983,18.989 v 101.505 c 0,10.331 -8.522,18.984 -18.983,18.984 h -333.064 c -10.455,0 -18.979,-8.653 -18.979,-18.984 h -5.43 5.43 m -5.428,0 c 0,13.304 11.109,24.412 24.407,24.412 h 333.064 c 13.304,0 24.407,-11.108 24.407,-24.412 v -101.505 c 0,-13.308 -11.104,-24.413 -24.407,-24.413 h -333.064 c -13.298,0 -24.407,11.104 -24.407,24.413 v 101.505 z"
       id="path4644"
       style="fill:#ffffff" />
    <path
       d="m 711.976,185.604 -39.911,-8.004 15.37,-10.199 -28.153,-25.061 9.554,-9.554 25.062,28.28 10.069,-15.497 8.009,40.035"
       transform="translate(-0.15625,0.09375)"
       id="polyline4646"
       style="fill:#ffffff" />
    <path
       d="m 361.77175,210.11075 c 0,14.85 12.269,27.122 27.116,27.122 h 333.064 c 14.849,0 27.122,-12.272 27.122,-27.122 v -182.871 c 0,-14.854 -12.273,-27.122 -27.122,-27.122 h -333.064 c -14.849,0 -27.116,12.268 -27.116,27.122 v 182.871 z"
       id="path4648"
       style="fill:none;stroke:#1d2d28;stroke-width:0.26370001;stroke-miterlimit:2.61299992" />
    <path
       d="m 233.578,127.927 11.11,0 1.679,-3.359 -11.238,0 -1.551,3.359"
       transform="translate(-0.15625,0.09375)"
       id="polyline4650"
       style="fill:#ffffff" />
    <path
       d="m 85.59175,139.57975 3.507,-8.598 3.342,8.598 h -6.849 l -9.873,10.999 9.873,-10.999 m -9.873,10.999 h 5.413 l 2.39,-5.892 h 10.991 l 2.39,5.892 h 5.578 l -10.832,-26.77 h -5.261 l -10.669,26.77 z"
       id="path4652"
       style="fill:#ffffff" />
    <path
       d="m 142.63075,141.83375 c -1.025,2.192 -3.61,3.62 -6.062,3.356 -2.462,-0.257 -4.651,-2.06 -5.429,-4.388 -0.777,-2.452 -0.777,-6.067 0,-8.652 0.778,-2.322 2.967,-4.131 5.429,-4.389 2.452,-0.258 5.037,1.159 6.062,3.354 l 4.651,-2.322 c -1.932,-4.002 -6.711,-6.582 -11.104,-6.201 -4.388,0.392 -8.652,3.744 -9.94,8.014 -1.035,3.482 -1.035,8.385 0,11.748 1.288,4.26 5.418,7.746 9.94,8.139 4.394,0.387 9.173,-2.322 11.104,-6.329 l -4.651,-2.33"
       id="path4654"
       style="fill:#ffffff" />
    <path
       d="m 165.10775,135.37975 c 1.931,2.581 1.931,6.325 0,8.91 -0.387,0.645 -1.164,1.164 -1.937,1.164 -0.778,0 -1.685,-0.521 -2.071,-1.164 -1.931,-2.585 -1.931,-6.329 0,-8.91 0.386,-0.645 1.293,-1.163 2.071,-1.163 0.773,0 1.55,0.52 1.937,1.163 l 4.13,-2.972 -4.13,2.972 m 4.13,-2.972 c -1.292,-1.804 -3.873,-3.102 -6.067,-3.102 -2.328,0 -4.914,1.298 -6.201,3.102 -3.101,4.389 -3.101,10.59 0,14.854 1.288,1.803 3.873,3.229 6.201,3.229 2.194,0 4.774,-1.428 6.067,-3.229 3.095,-4.264 3.095,-10.465 0,-14.854 z"
       id="path4656"
       style="fill:#ffffff" />
    <path
       d="m 180.73375,150.36375 h 5.166 v -11.372 c -0.129,-1.153 0.521,-2.58 1.421,-3.357 1.031,-0.639 2.452,-0.896 3.616,-0.381 l 2.452,-4.398 c -2.066,-1.153 -5.166,-1.417 -7.489,-0.382 v -0.515 h -5.166 v 20.405"
       id="path4658"
       style="fill:#ffffff" />
    <path
       d="m 202.42775,129.95675 v 12.14 c 0,2.838 1.812,5.811 4.13,7.226 2.457,1.423 5.943,1.423 8.396,0.135 v 0.906 h 5.171 v -20.405 h -5.171 v 11.36 c 0,1.938 -1.674,3.616 -3.615,3.616 -2.061,0 -3.745,-1.68 -3.745,-3.616 v -11.36 l -5.166,-0.002"
       id="path4660"
       style="fill:#ffffff" />
    <path
       d="m 230.96475,150.36375 h 5.172 v -11.372 c 0,-2.064 1.674,-3.61 3.61,-3.61 2.07,0 3.749,1.546 3.749,3.61 v 11.372 h 5.037 v -11.372 c 0.129,-2.839 -1.422,-6.066 -3.873,-7.617 -2.457,-1.674 -5.938,-1.804 -8.523,-0.521 v -0.896 h -5.172 v 20.406"
       id="path4662"
       style="fill:#ffffff" />
    <path
       d="m 268.93375,144.54775 c -1.545,0.778 -3.873,1.159 -5.68,0.906 -0.902,-0.128 -1.674,-1.035 -1.674,-1.941 0,-1.03 0.771,-1.937 1.674,-2.065 1.807,-0.263 4.135,0.13 5.68,0.906 v 2.194 l 5.172,5.814 -5.172,-5.814 m 5.172,5.816 v -12.66 c -0.263,-4.646 -4.522,-8.396 -9.302,-8.134 -2.065,0.13 -4.903,1.035 -6.587,2.194 l 2.714,4.126 c 1.03,-0.768 2.714,-1.288 3.873,-1.417 1.55,-0.129 3.229,0.521 4.002,1.808 0,0.13 0.128,0.259 0.128,0.388 v 1.035 c -1.803,-0.645 -4.512,-1.035 -6.453,-0.777 -3.1,0.521 -5.557,3.486 -5.557,6.587 0,3.102 2.457,6.072 5.557,6.587 1.941,0.265 4.65,-0.128 6.453,-0.776 v 1.041 h 5.172 v -0.002 z"
       id="path4664"
       style="fill:#ffffff" />
    <path
       d="m 654.82975,44.29175 c 0,1.002 -0.208,1.911 -0.621,2.728 -0.414,0.816 -0.997,1.519 -1.747,2.106 -0.752,0.588 -1.655,1.045 -2.711,1.372 -1.059,0.327 -2.228,0.49 -3.513,0.49 -1.371,0 -2.666,-0.212 -3.887,-0.637 -1.22,-0.425 -2.178,-1.007 -2.874,-1.748 -0.763,-0.762 -1.351,-1.748 -1.765,-2.956 -0.413,-1.209 -0.62,-2.532 -0.62,-3.969 0,-2.199 0.506,-4.257 1.519,-6.173 1.014,-1.917 2.422,-3.517 4.23,-4.802 2.308,-1.589 4.976,-2.384 8.002,-2.384 h 0.587 v 4.376 h -0.522 c -4.113,0 -7.032,1.819 -8.753,5.455 0.697,-0.196 1.39,-0.349 2.075,-0.458 0.685,-0.109 1.354,-0.163 2.008,-0.163 1.001,0 1.997,0.12 2.989,0.359 0.99,0.24 1.801,0.534 2.434,0.882 0.979,0.567 1.752,1.339 2.318,2.319 0.567,0.982 0.851,2.049 0.851,3.203 z m -4.312,-0.065 c 0,-0.697 -0.348,-1.258 -1.045,-1.683 -0.697,-0.424 -1.698,-0.637 -3.004,-0.637 -0.632,0 -1.227,0.039 -1.78,0.114 -0.556,0.077 -0.985,0.191 -1.291,0.343 -0.502,0.196 -0.881,0.457 -1.143,0.784 -0.263,0.327 -0.394,0.686 -0.394,1.078 0,0.74 0.414,1.323 1.241,1.747 0.827,0.425 1.916,0.637 3.267,0.637 1.284,0 2.298,-0.212 3.037,-0.637 0.742,-0.423 1.112,-1.006 1.112,-1.746 z"
       id="path4666"
       style="fill:#ffffff" />
    <path
       d="m 665.02075,50.59475 v -14.893 h -2.155 v -4.442 c 0.392,-0.196 0.706,-0.376 0.946,-0.54 0.239,-0.163 0.44,-0.343 0.604,-0.539 0.163,-0.196 0.31,-0.414 0.439,-0.653 0.13,-0.24 0.283,-0.533 0.457,-0.882 h 4.148 v 21.949 h -4.439 z"
       id="path4668"
       style="fill:#ffffff" />
    <path
       d="m 694.08875,50.59475 -2.09,-5.161 h -8.656 l -2.09,5.161 h -4.671 l 8.817,-21.949 h 4.54 l 8.818,21.949 h -4.668 z m -6.304,-15.677 -2.68,6.141 h 5.128 l -2.448,-6.141 z"
       id="path4670"
       style="fill:#ffffff" />
    <path
       d="m 720.41375,44.06275 c 0,1.198 -0.289,2.303 -0.865,3.315 -0.578,1.013 -1.367,1.802 -2.368,2.369 -1.023,0.566 -2.102,0.849 -3.233,0.849 h -0.979 -10.225 v -21.949 h 10.223 c 0.479,0 0.887,0.011 1.226,0.032 0.337,0.022 0.647,0.065 0.932,0.131 0.282,0.065 0.549,0.153 0.8,0.261 0.251,0.109 0.517,0.25 0.8,0.425 0.915,0.501 1.645,1.225 2.189,2.172 0.544,0.947 0.815,1.954 0.815,3.021 0,1.677 -0.588,3.092 -1.765,4.246 1.634,1.351 2.45,3.06 2.45,5.128 z m -4.997,-9.374 c 0,-1.11 -0.665,-1.666 -1.993,-1.666 h -6.368 v 3.756 h 5.978 c 0.696,0 1.269,-0.201 1.715,-0.604 0.445,-0.403 0.668,-0.898 0.668,-1.486 z m 0.686,9.374 c 0,-0.544 -0.125,-1.056 -0.376,-1.535 -0.25,-0.479 -0.615,-0.838 -1.094,-1.078 -0.239,-0.109 -0.484,-0.185 -0.734,-0.229 -0.251,-0.043 -0.561,-0.065 -0.932,-0.065 h -5.911 v 5.063 h 6.532 c 0.806,0 1.426,-0.196 1.861,-0.588 0.435,-0.392 0.654,-0.914 0.654,-1.568 z"
       id="path4672"
       style="fill:#ffffff" />
    <path
       d="m 100.34875,89.72475 v 15.137 h -3.63 v -15.137 h -5.233 v -3.77 h 14.011 v 3.77 h -5.148 z"
       id="path4674"
       style="fill:#ffffff" />
    <path
       d="m 121.16875,97.99675 c 0,0.994 -0.178,1.923 -0.534,2.786 -0.356,0.863 -0.835,1.618 -1.435,2.264 -0.601,0.647 -1.29,1.154 -2.068,1.52 -0.778,0.366 -1.59,0.55 -2.434,0.55 -0.863,0 -1.679,-0.184 -2.448,-0.55 -0.769,-0.364 -1.444,-0.871 -2.025,-1.52 -0.582,-0.646 -1.041,-1.401 -1.378,-2.264 -0.338,-0.863 -0.507,-1.792 -0.507,-2.786 0,-1.031 0.164,-1.988 0.493,-2.87 0.328,-0.881 0.778,-1.646 1.351,-2.293 0.572,-0.646 1.242,-1.153 2.011,-1.519 0.769,-0.366 1.604,-0.549 2.504,-0.549 0.825,0 1.627,0.188 2.405,0.563 0.778,0.375 1.468,0.891 2.068,1.547 0.601,0.657 1.083,1.426 1.449,2.307 0.365,0.883 0.548,1.82 0.548,2.814 z m -3.826,0 c 0,-0.506 -0.076,-0.985 -0.226,-1.435 -0.15,-0.45 -0.347,-0.839 -0.591,-1.167 -0.244,-0.328 -0.525,-0.586 -0.844,-0.774 -0.319,-0.187 -0.646,-0.281 -0.984,-0.281 -0.375,0 -0.718,0.094 -1.027,0.281 -0.31,0.188 -0.582,0.446 -0.816,0.774 -0.235,0.329 -0.417,0.718 -0.549,1.167 -0.131,0.45 -0.197,0.929 -0.197,1.435 0,0.488 0.065,0.947 0.197,1.378 0.131,0.432 0.314,0.807 0.549,1.125 0.234,0.32 0.506,0.573 0.816,0.76 0.309,0.188 0.651,0.281 1.027,0.281 0.338,0 0.666,-0.093 0.984,-0.281 0.319,-0.187 0.601,-0.44 0.844,-0.76 0.244,-0.319 0.441,-0.693 0.591,-1.125 0.15,-0.43 0.226,-0.889 0.226,-1.378 z"
       id="path4676"
       style="fill:#ffffff" />
    <path
       d="m 135.12375,95.54975 c -0.263,-0.432 -0.6,-0.741 -1.013,-0.929 -0.413,-0.187 -0.797,-0.281 -1.153,-0.281 -0.844,0 -1.421,0.244 -1.73,0.731 -0.31,0.488 -0.464,1.22 -0.464,2.195 v 7.597 h -3.771 v -13.759 h 3.771 v 0.675 c 0.469,-0.375 0.914,-0.638 1.336,-0.788 0.422,-0.15 0.877,-0.226 1.365,-0.226 0.562,0 1.073,0.075 1.533,0.226 0.459,0.15 0.923,0.413 1.393,0.788 l -1.267,3.771 z"
       id="path4678"
       style="fill:#ffffff" />
    <path
       d="m 148.14975,104.86275 v -0.675 c -0.319,0.318 -0.773,0.543 -1.365,0.675 -0.59,0.132 -1.149,0.196 -1.674,0.196 -0.788,0 -1.538,-0.191 -2.251,-0.576 -0.713,-0.385 -1.336,-0.899 -1.871,-1.547 -0.534,-0.647 -0.961,-1.407 -1.28,-2.279 -0.319,-0.873 -0.478,-1.787 -0.478,-2.744 0,-0.957 0.159,-1.866 0.478,-2.729 0.319,-0.862 0.746,-1.623 1.28,-2.279 0.535,-0.656 1.163,-1.177 1.885,-1.562 0.722,-0.384 1.486,-0.577 2.293,-0.577 0.506,0 1.031,0.075 1.575,0.226 0.544,0.15 1.013,0.385 1.407,0.703 v -4.558 l 3.517,-1.463 v 19.188 l -3.516,0.001 0,0 z m 0,-9.201 c -0.263,-0.469 -0.619,-0.807 -1.069,-1.013 -0.451,-0.207 -0.91,-0.31 -1.378,-0.31 -0.376,0 -0.728,0.094 -1.056,0.281 -0.328,0.188 -0.615,0.446 -0.858,0.774 -0.244,0.329 -0.436,0.708 -0.577,1.14 -0.141,0.432 -0.21,0.891 -0.21,1.378 0,0.506 0.07,0.976 0.21,1.407 0.141,0.432 0.333,0.807 0.577,1.125 0.243,0.319 0.539,0.572 0.886,0.76 0.347,0.188 0.718,0.281 1.111,0.281 0.431,0 0.868,-0.103 1.308,-0.309 0.44,-0.207 0.792,-0.544 1.055,-1.014 l 0.001,-4.5 0,0 z"
       id="path4680"
       style="fill:#ffffff" />
    <path
       d="m 161.31675,99.17875 c 0.206,0.788 0.562,1.402 1.069,1.842 0.506,0.441 1.059,0.662 1.66,0.662 0.788,0 1.491,-0.422 2.11,-1.267 l 2.589,2.251 c -0.713,0.844 -1.445,1.454 -2.195,1.828 -0.75,0.375 -1.585,0.562 -2.504,0.562 -0.882,0 -1.716,-0.183 -2.504,-0.548 -0.788,-0.366 -1.481,-0.867 -2.082,-1.505 -0.601,-0.638 -1.079,-1.393 -1.436,-2.264 -0.356,-0.873 -0.534,-1.815 -0.534,-2.829 0,-0.994 0.174,-1.922 0.521,-2.786 0.347,-0.862 0.811,-1.617 1.393,-2.265 0.581,-0.647 1.256,-1.158 2.025,-1.533 0.769,-0.375 1.576,-0.563 2.419,-0.563 1.125,0 2.162,0.324 3.109,0.971 0.947,0.646 1.674,1.514 2.181,2.602 0.262,0.638 0.459,1.299 0.591,1.983 0.131,0.685 0.197,1.459 0.197,2.321 v 0.535 h -8.609 v 0.003 z m 3.813,-4.6 c -0.329,-0.291 -0.755,-0.436 -1.281,-0.436 -0.506,0 -0.97,0.165 -1.392,0.492 -0.422,0.329 -0.736,0.802 -0.943,1.421 h 4.502 c -0.263,-0.694 -0.559,-1.186 -0.886,-1.477 z"
       id="path4682"
       style="fill:#ffffff" />
    <path
       d="m 186.07475,100.89475 c 0,0.601 -0.094,1.121 -0.281,1.562 -0.188,0.441 -0.498,0.849 -0.929,1.224 -0.601,0.487 -1.299,0.84 -2.096,1.055 -0.797,0.216 -1.749,0.323 -2.855,0.323 -0.657,0 -1.252,-0.022 -1.787,-0.07 -0.535,-0.047 -1.051,-0.121 -1.547,-0.225 -0.497,-0.104 -0.976,-0.239 -1.435,-0.408 -0.46,-0.168 -0.942,-0.375 -1.449,-0.619 l 1.463,-3.319 c 0.694,0.338 1.463,0.601 2.307,0.789 0.845,0.188 1.613,0.281 2.307,0.281 0.769,0 1.384,-0.066 1.843,-0.197 0.459,-0.132 0.689,-0.329 0.689,-0.591 0,-0.207 -0.084,-0.384 -0.253,-0.535 -0.168,-0.149 -0.441,-0.262 -0.816,-0.337 -0.188,-0.056 -0.413,-0.112 -0.675,-0.168 -0.263,-0.056 -0.53,-0.117 -0.802,-0.183 -0.271,-0.065 -0.529,-0.131 -0.773,-0.197 -0.244,-0.065 -0.441,-0.126 -0.59,-0.183 -1.501,-0.432 -2.594,-0.999 -3.278,-1.702 -0.684,-0.703 -1.026,-1.589 -1.026,-2.659 0,-1.237 0.506,-2.208 1.519,-2.911 1.013,-0.704 2.382,-1.056 4.107,-1.056 0.957,0 1.913,0.108 2.87,0.324 0.957,0.216 1.988,0.595 3.095,1.14 l -1.463,3.32 c -0.694,-0.375 -1.44,-0.67 -2.237,-0.886 -0.797,-0.215 -1.505,-0.324 -2.125,-0.324 -0.712,0 -1.224,0.056 -1.533,0.169 -0.31,0.112 -0.465,0.3 -0.465,0.562 0,0.131 0.024,0.244 0.071,0.338 0.046,0.094 0.15,0.173 0.309,0.239 0.159,0.066 0.389,0.131 0.689,0.197 0.3,0.066 0.694,0.136 1.182,0.211 1.988,0.413 3.479,0.999 4.474,1.758 0.993,0.757 1.49,1.784 1.49,3.078 z"
       id="path4684"
       style="fill:#ffffff" />
    <path
       d="m 191.95575,104.86275 v -13.759 h 3.77 v 13.758 l -3.77,0.001 0,0 z m 3.713,-17.332 c 0,0.488 -0.178,0.919 -0.534,1.294 -0.356,0.375 -0.797,0.562 -1.322,0.562 -0.488,0 -0.91,-0.187 -1.267,-0.562 -0.357,-0.375 -0.534,-0.807 -0.534,-1.294 0,-0.544 0.178,-0.989 0.534,-1.337 0.356,-0.347 0.778,-0.52 1.267,-0.52 0.525,0 0.966,0.173 1.322,0.52 0.356,0.348 0.534,0.793 0.534,1.337 z"
       id="path4686"
       style="fill:#ffffff" />
    <path
       d="m 203.26575,104.86275 v -17.726 l 3.771,-1.463 v 19.188 l -3.771,0.001 0,0 z"
       id="path4688"
       style="fill:#ffffff" />
    <path
       d="m 214.57575,104.86275 v -17.726 l 3.771,-1.463 v 19.188 l -3.771,0.001 0,0 z"
       id="path4690"
       style="fill:#ffffff" />
    <path
       d="m 233.03175,104.86275 v -0.449 c -0.657,0.262 -1.294,0.436 -1.913,0.521 -0.619,0.084 -1.191,0.126 -1.716,0.126 -0.77,0 -1.473,-0.11 -2.11,-0.338 -0.638,-0.225 -1.191,-0.543 -1.66,-0.956 -0.469,-0.411 -0.83,-0.905 -1.083,-1.477 -0.253,-0.572 -0.38,-1.196 -0.38,-1.872 0,-0.712 0.145,-1.369 0.436,-1.969 0.291,-0.6 0.689,-1.121 1.196,-1.562 0.506,-0.44 1.106,-0.788 1.801,-1.041 0.693,-0.253 1.444,-0.38 2.25,-0.38 0.394,0 0.882,0.038 1.463,0.112 0.582,0.076 1.154,0.216 1.716,0.422 -0.038,-0.656 -0.281,-1.129 -0.731,-1.421 -0.45,-0.291 -1.022,-0.436 -1.716,-0.436 -1.313,0 -2.617,0.357 -3.911,1.069 l -1.378,-2.982 c 0.506,-0.263 0.98,-0.487 1.421,-0.676 0.44,-0.187 0.872,-0.337 1.294,-0.45 0.422,-0.113 0.839,-0.197 1.252,-0.253 0.413,-0.056 0.854,-0.084 1.322,-0.084 1.895,0 3.372,0.464 4.432,1.393 1.059,0.928 1.589,2.359 1.589,4.291 v 8.413 h -3.574 l 0,-10e-4 z m 0,-5.543 c -0.562,-0.206 -1.139,-0.361 -1.73,-0.464 -0.591,-0.103 -1.074,-0.155 -1.449,-0.155 -0.601,0 -1.102,0.146 -1.505,0.437 -0.404,0.291 -0.605,0.652 -0.605,1.083 0,0.432 0.243,0.807 0.731,1.125 0.487,0.32 1.06,0.479 1.716,0.479 0.394,0 0.83,-0.046 1.308,-0.14 0.478,-0.094 0.989,-0.291 1.533,-0.591 l 10e-4,-1.774 0,0 z"
       id="path4692"
       style="fill:#ffffff" />
    <path
       d="m 254.47075,100.89475 c 0,0.601 -0.094,1.121 -0.281,1.562 -0.188,0.441 -0.497,0.849 -0.929,1.224 -0.601,0.487 -1.299,0.84 -2.096,1.055 -0.797,0.216 -1.749,0.323 -2.855,0.323 -0.657,0 -1.252,-0.022 -1.787,-0.07 -0.534,-0.047 -1.05,-0.121 -1.547,-0.225 -0.497,-0.104 -0.976,-0.239 -1.435,-0.408 -0.46,-0.168 -0.943,-0.375 -1.449,-0.619 l 1.463,-3.319 c 0.693,0.338 1.463,0.601 2.307,0.789 0.845,0.188 1.613,0.281 2.308,0.281 0.769,0 1.383,-0.066 1.842,-0.197 0.459,-0.132 0.69,-0.329 0.69,-0.591 0,-0.207 -0.084,-0.384 -0.253,-0.535 -0.168,-0.149 -0.441,-0.262 -0.816,-0.337 -0.188,-0.056 -0.413,-0.112 -0.674,-0.168 -0.263,-0.056 -0.531,-0.117 -0.803,-0.183 -0.272,-0.065 -0.53,-0.131 -0.773,-0.197 -0.243,-0.066 -0.441,-0.126 -0.591,-0.183 -1.501,-0.432 -2.593,-0.999 -3.277,-1.702 -0.685,-0.704 -1.027,-1.589 -1.027,-2.659 0,-1.237 0.506,-2.208 1.52,-2.911 1.013,-0.704 2.382,-1.056 4.107,-1.056 0.957,0 1.913,0.108 2.87,0.324 0.957,0.216 1.988,0.595 3.095,1.14 l -1.463,3.32 c -0.694,-0.375 -1.44,-0.67 -2.237,-0.886 -0.797,-0.215 -1.505,-0.324 -2.125,-0.324 -0.712,0 -1.224,0.056 -1.533,0.169 -0.31,0.112 -0.464,0.3 -0.464,0.562 0,0.131 0.023,0.244 0.07,0.338 0.047,0.094 0.15,0.173 0.31,0.239 0.159,0.066 0.389,0.131 0.689,0.197 0.3,0.066 0.694,0.136 1.182,0.211 1.988,0.413 3.479,0.999 4.474,1.758 0.991,0.757 1.488,1.784 1.488,3.078 z"
       id="path4694"
       style="fill:#ffffff" />
    <path
       d="m 429.68675,146.90275 -2.544,-6.279 h -10.532 l -2.544,6.279 h -5.684 l 10.73,-26.709 h 5.524 l 10.731,26.709 h -5.681 z m -2.742,-35.93 -5.565,6.121 h -4.531 l 2.583,-6.121 h 7.513 z m -4.929,16.851 -3.259,7.473 h 6.239 l -2.98,-7.473 z"
       id="path4696"
       style="fill:#ffffff" />
    <path
       d="m 452.10175,146.90275 h -5.922 l -7.271,-19.436 h 5.523 l 4.85,12.439 4.49,-12.439 h 5.604 l -7.274,19.436 z"
       id="path4698"
       style="fill:#ffffff" />
    <path
       d="m 467.04675,146.90275 v -19.436 h 5.325 v 19.436 h -5.325 z m 5.246,-24.484 c 0,0.688 -0.252,1.299 -0.756,1.829 -0.503,0.529 -1.126,0.795 -1.867,0.795 -0.689,0 -1.285,-0.266 -1.789,-0.795 -0.504,-0.53 -0.755,-1.141 -0.755,-1.829 0,-0.769 0.251,-1.396 0.755,-1.888 0.504,-0.489 1.1,-0.735 1.789,-0.735 0.741,0 1.364,0.246 1.867,0.735 0.504,0.492 0.756,1.121 0.756,1.888 z"
       id="path4700"
       style="fill:#ffffff" />
    <path
       d="m 483.02375,146.90275 v -25.039 l 5.326,-2.066 v 27.105 h -5.326 l 0,0 z"
       id="path4702"
       style="fill:#ffffff" />
    <path
       d="m 509.09675,146.90275 v -0.636 c -0.929,0.372 -1.829,0.615 -2.703,0.735 -0.874,0.119 -1.683,0.179 -2.425,0.179 -1.086,0 -2.08,-0.159 -2.98,-0.477 -0.899,-0.318 -1.683,-0.77 -2.345,-1.354 -0.663,-0.582 -1.173,-1.276 -1.53,-2.086 -0.356,-0.809 -0.536,-1.688 -0.536,-2.644 0,-1.006 0.204,-1.935 0.616,-2.781 0.41,-0.848 0.974,-1.583 1.688,-2.206 0.716,-0.622 1.562,-1.113 2.544,-1.471 0.98,-0.358 2.04,-0.536 3.18,-0.536 0.558,0 1.245,0.053 2.066,0.159 0.821,0.104 1.63,0.305 2.425,0.596 -0.054,-0.928 -0.397,-1.596 -1.033,-2.008 -0.636,-0.41 -1.443,-0.615 -2.425,-0.615 -1.854,0 -3.696,0.504 -5.523,1.51 l -1.948,-4.212 c 0.716,-0.372 1.385,-0.688 2.008,-0.955 0.622,-0.264 1.231,-0.477 1.828,-0.636 0.596,-0.159 1.186,-0.278 1.769,-0.357 0.583,-0.079 1.206,-0.118 1.868,-0.118 2.676,0 4.763,0.654 6.26,1.968 1.496,1.311 2.246,3.332 2.246,6.061 v 11.884 h -5.05 l 0,0 z m 0,-7.83 c -0.795,-0.291 -1.61,-0.51 -2.444,-0.655 -0.835,-0.146 -1.518,-0.22 -2.047,-0.22 -0.849,0 -1.557,0.206 -2.127,0.616 -0.568,0.41 -0.854,0.921 -0.854,1.53 0,0.61 0.344,1.14 1.033,1.59 0.688,0.451 1.495,0.676 2.424,0.676 0.557,0 1.173,-0.065 1.848,-0.198 0.677,-0.133 1.398,-0.41 2.167,-0.834 v -2.505 l 0,0 z"
       id="path4704"
       style="fill:#ffffff" />
    <path
       d="m 423.79675,186.75175 c 1.202,0.267 2.143,1.212 2.275,2.415 0.268,1.071 -0.4,2.413 -1.342,2.946 -3.884,2.01 -8.974,0.803 -11.382,-2.81 l -4.423,2.938 c 3.884,5.896 12.055,7.904 18.214,4.562 2.947,-1.612 4.828,-5.224 4.288,-8.438 -0.534,-3.349 -3.354,-6.163 -6.697,-6.838 l -6.966,-1.067 c -1.201,-0.127 -2.142,-1.206 -2.274,-2.274 -0.134,-1.073 0.539,-2.274 1.608,-2.682 3.081,-1.604 7.231,-0.668 9.373,2.014 l 4.155,-3.354 c -3.616,-4.546 -10.447,-6.025 -15.811,-3.479 -3.076,1.341 -4.95,4.817 -4.551,8.167 0.4,3.35 3.21,6.297 6.564,6.97 l 6.969,0.93"
       id="path4706"
       style="fill:#ffffff" />
    <path
       d="m 443.74575,184.47675 c 0.267,-0.534 0.806,-1.335 1.213,-1.735 0.533,-0.674 1.606,-1.214 2.408,-1.214 0.936,0 1.869,0.54 2.407,1.214 0.535,0.4 1.069,1.201 1.343,1.735 h -7.371 l 12.321,5.091 -12.321,-5.091 m 12.323,5.091 c 0.405,-3.082 -0.534,-6.96 -2.274,-9.642 -1.34,-1.741 -4.019,-3.081 -6.426,-3.081 -2.281,0 -4.957,1.34 -6.431,3.081 -3.479,4.423 -3.479,11.12 0.267,15.404 1.475,1.74 4.021,2.81 6.164,2.81 2.274,0 4.817,-1.068 6.158,-2.81 0.673,-0.673 1.342,-2.009 1.741,-2.949 l -5.224,-1.068 c 0,0.269 -0.134,0.663 -0.27,0.931 -0.538,0.539 -1.602,0.945 -2.407,0.945 -0.802,0 -1.741,-0.406 -2.281,-0.945 -0.667,-0.662 -1.469,-1.735 -1.735,-2.676 h 12.718 z"
       id="path4708"
       style="fill:#ffffff" />
    <path
       d="m 475.62175,191.97575 c -0.936,1.073 -2.542,1.613 -3.884,1.347 -1.201,-0.272 -2.541,-1.347 -3.074,-2.548 -0.402,-1.606 -0.402,-4.021 0,-5.625 0.533,-1.346 1.873,-2.408 3.074,-2.542 1.342,-0.272 2.948,0.269 3.884,1.196 v 8.172 l 5.361,-14.592 -5.361,14.592 m 5.363,-14.592 h -5.361 v 0.267 c -2.275,-0.673 -5.489,-0.399 -7.633,0.803 -2.142,1.206 -4.017,3.749 -4.688,6.023 -0.268,2.009 -0.268,4.957 0,6.836 0.673,2.41 2.548,4.952 4.688,6.025 2.144,1.202 5.356,1.607 7.633,0.802 v 0.266 c 0,1.337 -0.801,2.55 -1.875,3.083 -1.067,0.539 -2.542,0.401 -3.614,-0.4 l -3.078,4.284 c 2.543,1.88 6.292,2.274 9.103,0.939 2.814,-1.475 4.827,-4.688 4.827,-7.906 l -0.002,-21.022 0,0 z"
       id="path4710"
       style="fill:#ffffff" />
    <path
       d="m 500.93475,182.73975 c 1.874,2.81 1.874,6.826 0,9.502 -0.534,0.674 -1.341,1.079 -2.136,1.079 -0.941,0 -1.748,-0.405 -2.281,-1.079 -1.875,-2.676 -1.875,-6.692 0,-9.502 0.533,-0.674 1.34,-1.072 2.281,-1.072 0.795,0 1.602,0.4 2.136,1.072 l 4.15,-2.947 -4.15,2.947 m 4.15,-2.947 c -1.33,-2.009 -4.013,-3.351 -6.286,-3.351 -2.416,0 -5.092,1.342 -6.432,3.351 -3.222,4.416 -3.222,10.98 0,15.397 1.34,2.009 4.016,3.35 6.432,3.35 2.273,0 4.956,-1.341 6.286,-3.35 3.216,-4.415 3.216,-10.981 0,-15.397 z"
       id="path4712"
       style="fill:#ffffff" />
    <path
       d="m 514.486,177.018 7.366,21.294 5.625,0 7.232,-21.294 -5.625,0 -4.417,13.663 -4.558,-13.663 -5.623,0"
       transform="translate(-0.15625,0.09375)"
       id="polyline4714"
       style="fill:#ffffff" />
    <path
       d="m 544.05975,177.11575 5.224,0 0,21.288 -5.224,0 z"
       id="rect4716"
       style="fill:#ffffff" />
    <path
       d="m 546.73975,175.64175 c 1.475,0 2.815,-1.207 2.815,-2.809 0,-1.479 -1.342,-2.82 -2.815,-2.82 -1.606,0 -2.814,1.341 -2.814,2.82 0,1.602 1.208,2.809 2.814,2.809"
       id="path4718"
       style="fill:#ffffff" />
    <path
       d="m 570.44575,192.38075 c -1.606,0.808 -4.017,1.208 -5.896,0.94 -0.935,-0.134 -1.736,-1.079 -1.736,-2.01 0,-1.073 0.804,-1.879 1.736,-2.146 1.88,-0.269 4.289,0.138 5.896,0.934 v 2.282 l 5.357,6.023 -5.357,-6.023 m 5.357,6.025 v -13.122 c -0.268,-4.95 -4.689,-8.84 -9.646,-8.438 -2.141,0 -4.95,0.939 -6.831,2.274 l 2.819,4.155 c 1.074,-0.801 2.812,-1.342 4.013,-1.342 1.606,-0.266 3.349,0.541 4.154,1.742 0,0.128 0.134,0.267 0.134,0.4 v 1.205 c -1.875,-0.667 -4.685,-1.072 -6.697,-0.934 -3.21,0.528 -5.752,3.615 -5.752,6.964 0,3.345 2.542,6.292 5.752,6.96 2.014,0.133 4.822,-0.268 6.697,-0.935 v 1.066 h 5.357 v 0.005 z"
       id="path4720"
       style="fill:#ffffff" />
  </g>
</svg>
