<?xml version="1.0" encoding="UTF-8" standalone="no"?>
<!-- Created with Inkscape (http://www.inkscape.org/) -->

<svg
   xmlns:dc="http://purl.org/dc/elements/1.1/"
   xmlns:cc="http://creativecommons.org/ns#"
   xmlns:rdf="http://www.w3.org/1999/02/22-rdf-syntax-ns#"
   xmlns:svg="http://www.w3.org/2000/svg"
   xmlns="http://www.w3.org/2000/svg"
   version="1.2"
   width="387.59375"
   height="237.375"
   id="svg2">
  <metadata
     id="metadata4326">
    <rdf:RDF>
      <cc:Work
         rdf:about="">
        <dc:format>image/svg+xml</dc:format>
        <dc:type
           rdf:resource="http://purl.org/dc/dcmitype/StillImage" />
        <dc:title></dc:title>
      </cc:Work>
    </rdf:RDF>
  </metadata>
  <defs
     id="defs4324" />
  <g
     id="g4383">
    <path
       d="m 0.14675,210.11075 c 0,14.849 12.268,27.122 27.116,27.122 h 333.064 c 14.849,0 27.122,-12.273 27.122,-27.122 v -182.871 c 0,-14.854 -12.273,-27.122 -27.122,-27.122 h -333.064 c -14.849,0 -27.116,12.268 -27.116,27.122 v 182.871"
       id="path4256"
       style="fill:#19408b;fill-rule:evenodd" />
    <path
       d="m 0.14675,210.11075 c 0,14.849 12.268,27.122 27.116,27.122 h 333.064 c 14.849,0 27.122,-12.273 27.122,-27.122 v -182.871 c 0,-14.854 -12.273,-27.122 -27.122,-27.122 h -333.064 c -14.849,0 -27.116,12.268 -27.116,27.122 v 182.871"
       id="path4258"
       style="fill:none;stroke:#ffffff;stroke-width:0.26370001;stroke-miterlimit:2.61299992" />
    <path
       d="m 8.28375,54.36175 v -27.122 c 0,-10.332 8.523,-18.984 18.979,-18.984 h 120.886 c 10.331,0 18.979,8.653 18.979,18.984 v 27.122 c 0,10.332 -8.648,18.979 -18.979,18.979 h -120.886 c -10.455,0 -18.979,-8.647 -18.979,-18.979 h -5.428 5.428 m -5.428,0 c 0,13.298 11.109,24.408 24.407,24.408 h 120.886 c 13.298,0 24.407,-11.109 24.407,-24.408 v -27.122 c 0,-13.309 -11.109,-24.413 -24.407,-24.413 h -120.886 c -13.298,0 -24.407,11.104 -24.407,24.413 v 27.122 z"
       id="path4260"
       style="fill:#ffffff;fill-rule:evenodd" />
    <path
       d="m 183.26875,54.36175 v -27.122 c 0,-10.332 8.658,-18.984 18.99,-18.984 h 158.068 c 10.461,0 18.984,8.653 18.984,18.984 v 27.122 c 0,10.332 -8.523,18.979 -18.984,18.979 h -158.068 c -10.332,0 -18.99,-8.647 -18.99,-18.979 h -5.418 5.418 m -5.418,0 c 0,13.298 11.104,24.408 24.408,24.408 h 158.068 c 13.304,0 24.408,-11.109 24.408,-24.408 v -27.122 c 0,-13.309 -11.104,-24.413 -24.408,-24.413 h -158.068 c -13.304,0 -24.408,11.104 -24.408,24.413 v 27.122 z"
       id="path4262"
       style="fill:#ffffff;fill-rule:evenodd" />
    <path
       d="m 29.98275,49.32475 c 2.58,1.288 6.711,2.328 9.683,2.328 4.136,0 7.489,-3.492 7.489,-7.499 0,-4.13 -3.354,-7.489 -7.489,-7.489 -1.421,0 -3.486,0.392 -4.779,0.901 l 0.387,-3.868 h 10.331 v -4.136 h -14.206 l -0.773,10.462 3.225,2.451 c 1.55,-1.03 4.007,-1.674 5.814,-1.674 1.807,0 3.358,1.545 3.358,3.353 0,1.813 -1.551,3.358 -3.358,3.358 -2.328,0 -5.814,-0.772 -7.88,-1.808 l -1.802,3.621"
       id="path4264"
       style="fill:#ffffff;fill-rule:evenodd" />
    <path
       d="m 60.07175,44.66875 c -0.649,-2.452 -0.649,-5.934 0,-8.262 0.515,-1.937 2.323,-3.358 4.259,-3.358 2.071,0 3.879,1.421 4.394,3.358 0.644,2.328 0.644,5.81 0,8.262 -0.515,1.812 -2.322,3.229 -4.394,3.229 -1.936,0 -3.745,-1.416 -4.259,-3.229 l -4.002,0.648 4.002,-0.648 m -4.002,0.649 c 1.03,3.616 4.517,6.335 8.261,6.335 3.879,0 7.365,-2.719 8.396,-6.335 0.772,-2.843 0.772,-6.839 0,-9.554 -1.03,-3.621 -4.517,-6.33 -8.396,-6.33 -3.744,0 -7.23,2.709 -8.261,6.33 -0.778,2.714 -0.778,6.711 0,9.554 z"
       id="path4266"
       style="fill:#ffffff;fill-rule:evenodd" />
    <path
       d="m 86.67275,44.66875 c -0.777,-2.452 -0.777,-5.934 0,-8.262 0.516,-1.937 2.323,-3.358 4.26,-3.358 1.937,0 3.878,1.421 4.394,3.358 0.644,2.328 0.644,5.81 0,8.262 -0.516,1.812 -2.457,3.229 -4.394,3.229 -1.937,0 -3.744,-1.416 -4.26,-3.229 l -4.002,0.648 4.002,-0.648 m -4.002,0.649 c 1.03,3.616 4.518,6.335 8.262,6.335 3.744,0 7.365,-2.719 8.395,-6.335 0.778,-2.843 0.778,-6.839 0,-9.554 -1.029,-3.621 -4.65,-6.33 -8.395,-6.33 -3.745,0 -7.231,2.709 -8.262,6.33 -0.777,2.714 -0.777,6.711 0,9.554 z"
       id="path4268"
       style="fill:#ffffff;fill-rule:evenodd" />
    <path
       d="m 122.18475,51.65275 h 4.008 v -9.307 c 0,-1.545 1.416,-2.838 2.967,-2.838 1.679,0 2.972,1.293 2.972,2.838 v 9.307 h 4.13 v -9.307 c 0,-1.545 1.293,-2.838 2.844,-2.838 1.679,0 2.972,1.293 2.972,2.838 v 9.307 h 4.13 v -9.95 c 0,-2.585 -1.808,-5.295 -4.259,-6.196 -2.58,-1.035 -5.687,-0.263 -7.494,1.674 -1.937,-2.193 -5.552,-2.843 -8.261,-1.287 v -0.778 h -4.008 v 16.537"
       id="path4270"
       style="fill:#ffffff;fill-rule:evenodd" />
    <path
       d="m 205.749,62.406 17.82,0 1.679,-43.398 -5.166,0 -14.333,43.398"
       transform="translate(-0.78125,0.09375)"
       id="polyline4272"
       style="fill:#ffffff;fill-rule:evenodd" />
    <path
       d="m 229.642,62.406 17.686,0 -6.454,-20.406 13.041,-14.725 4.265,10.331 0,-18.598 -18.598,0 10.465,4.265 -12.659,7.88 -3.873,-12.145 -5.166,0 1.293,43.398"
       transform="translate(-0.78125,0.09375)"
       id="polyline4274"
       style="fill:#ffffff;fill-rule:evenodd" />
    <path
       d="m 8.28375,210.11075 v -101.505 c 0,-10.331 8.523,-18.989 18.979,-18.989 h 333.064 c 10.461,0 18.984,8.658 18.984,18.989 v 101.505 c 0,10.331 -8.523,18.984 -18.984,18.984 h -333.064 c -10.455,0 -18.979,-8.653 -18.979,-18.984 h -5.428 5.428 m -5.428,0 c 0,13.303 11.109,24.412 24.407,24.412 h 333.064 c 13.304,0 24.408,-11.109 24.408,-24.412 v -101.505 c 0,-13.308 -11.104,-24.413 -24.408,-24.413 h -333.064 c -13.298,0 -24.407,11.104 -24.407,24.413 v 101.505 z"
       id="path4276"
       style="fill:#ffffff;fill-rule:evenodd" />
    <path
       d="m 350.976,185.604 -39.911,-8.004 15.37,-10.199 -28.153,-25.061 9.554,-9.554 25.062,28.28 10.069,-15.497 8.009,40.035"
       transform="translate(-0.78125,0.09375)"
       id="polyline4278"
       style="fill:#ffffff;fill-rule:evenodd" />
    <path
       d="m 0.14675,210.11075 c 0,14.849 12.268,27.122 27.116,27.122 h 333.064 c 14.849,0 27.122,-12.273 27.122,-27.122 v -182.871 c 0,-14.854 -12.273,-27.122 -27.122,-27.122 h -333.064 c -14.849,0 -27.116,12.268 -27.116,27.122 v 182.871 z"
       id="path4280"
       style="fill:none;stroke:#1d2d28;stroke-width:0.26370001;stroke-miterlimit:2.61299992" />
    <path
       d="m 293.20475,44.29175 c 0,1.002 -0.208,1.911 -0.621,2.728 -0.414,0.816 -0.997,1.519 -1.747,2.106 -0.752,0.588 -1.655,1.045 -2.711,1.372 -1.058,0.327 -2.227,0.49 -3.512,0.49 -1.372,0 -2.667,-0.212 -3.887,-0.637 -1.22,-0.425 -2.178,-1.007 -2.874,-1.748 -0.763,-0.762 -1.351,-1.748 -1.765,-2.956 -0.413,-1.209 -0.62,-2.532 -0.62,-3.969 0,-2.199 0.506,-4.257 1.519,-6.173 1.013,-1.917 2.422,-3.517 4.23,-4.802 2.308,-1.589 4.976,-2.384 8.002,-2.384 h 0.587 v 4.376 h -0.522 c -4.114,0 -7.033,1.819 -8.753,5.455 0.697,-0.196 1.389,-0.349 2.075,-0.458 0.685,-0.109 1.354,-0.163 2.008,-0.163 1.001,0 1.997,0.12 2.989,0.359 0.99,0.24 1.801,0.534 2.433,0.882 0.979,0.567 1.752,1.339 2.319,2.319 0.566,0.982 0.85,2.049 0.85,3.203 z m -4.312,-0.065 c 0,-0.697 -0.348,-1.258 -1.045,-1.683 -0.697,-0.424 -1.698,-0.637 -3.004,-0.637 -0.632,0 -1.227,0.039 -1.78,0.114 -0.556,0.077 -0.986,0.191 -1.291,0.343 -0.502,0.196 -0.881,0.457 -1.143,0.784 -0.262,0.327 -0.393,0.686 -0.393,1.078 0,0.74 0.414,1.323 1.241,1.747 0.827,0.425 1.916,0.637 3.266,0.637 1.285,0 2.298,-0.212 3.038,-0.637 0.741,-0.423 1.111,-1.006 1.111,-1.746 z"
       id="path4284"
       style="fill:#ffffff" />
    <path
       d="m 303.39575,50.59475 v -14.893 h -2.156 v -4.442 c 0.392,-0.196 0.707,-0.376 0.947,-0.54 0.239,-0.163 0.44,-0.343 0.604,-0.539 0.163,-0.196 0.31,-0.414 0.44,-0.653 0.13,-0.24 0.283,-0.533 0.457,-0.882 h 4.148 v 21.949 h -4.44 z"
       id="path4286"
       style="fill:#ffffff" />
    <path
       d="m 332.46375,50.59475 -2.09,-5.161 h -8.656 l -2.09,5.161 h -4.671 l 8.818,-21.949 h 4.54 l 8.818,21.949 h -4.669 z m -6.304,-15.677 -2.679,6.141 h 5.128 l -2.449,-6.141 z"
       id="path4288"
       style="fill:#ffffff" />
    <path
       d="m 358.78875,44.06275 c 0,1.198 -0.289,2.303 -0.865,3.315 -0.578,1.013 -1.367,1.802 -2.368,2.369 -1.024,0.566 -2.102,0.849 -3.234,0.849 h -0.979 -10.224 v -21.949 h 10.223 c 0.479,0 0.887,0.011 1.226,0.032 0.337,0.022 0.647,0.065 0.931,0.131 0.282,0.065 0.549,0.153 0.8,0.261 0.251,0.109 0.517,0.25 0.8,0.425 0.915,0.501 1.644,1.225 2.189,2.172 0.544,0.947 0.816,1.954 0.816,3.021 0,1.677 -0.588,3.092 -1.765,4.246 1.634,1.351 2.45,3.06 2.45,5.128 z m -4.997,-9.374 c 0,-1.11 -0.665,-1.666 -1.993,-1.666 h -6.368 v 3.756 h 5.977 c 0.697,0 1.269,-0.201 1.715,-0.604 0.446,-0.403 0.669,-0.898 0.669,-1.486 z m 0.686,9.374 c 0,-0.544 -0.125,-1.056 -0.376,-1.535 -0.25,-0.479 -0.615,-0.838 -1.094,-1.078 -0.239,-0.109 -0.484,-0.185 -0.734,-0.229 -0.251,-0.043 -0.561,-0.065 -0.932,-0.065 h -5.911 v 5.063 h 6.532 c 0.806,0 1.426,-0.196 1.861,-0.588 0.435,-0.392 0.654,-0.914 0.654,-1.568 z"
       id="path4290"
       style="fill:#ffffff" />
    <path
       d="m 68.06175,146.90275 -2.544,-6.28 h -10.532 l -2.544,6.28 h -5.684 l 10.732,-26.709 h 5.524 l 10.731,26.709 h -5.683 z m -2.742,-35.93 -5.565,6.121 h -4.531 l 2.583,-6.121 h 7.513 z m -4.929,16.851 -3.259,7.473 h 6.239 l -2.98,-7.473 z"
       id="path4294"
       style="fill:#ffffff" />
    <path
       d="m 90.47675,146.90275 h -5.922 l -7.272,-19.436 h 5.524 l 4.849,12.44 4.491,-12.44 h 5.604 l -7.274,19.436 z"
       id="path4296"
       style="fill:#ffffff" />
    <path
       d="m 105.42175,146.90275 v -19.436 h 5.325 v 19.436 h -5.325 z m 5.246,-24.484 c 0,0.689 -0.252,1.299 -0.756,1.829 -0.503,0.53 -1.126,0.795 -1.867,0.795 -0.689,0 -1.285,-0.265 -1.789,-0.795 -0.504,-0.53 -0.755,-1.14 -0.755,-1.829 0,-0.768 0.251,-1.396 0.755,-1.888 0.504,-0.489 1.1,-0.735 1.789,-0.735 0.741,0 1.364,0.246 1.867,0.735 0.504,0.492 0.756,1.121 0.756,1.888 z"
       id="path4298"
       style="fill:#ffffff" />
    <path
       d="m 121.39875,146.90275 v -25.039 l 5.326,-2.067 v 27.106 h -5.326 z"
       id="path4300"
       style="fill:#ffffff" />
    <path
       d="m 147.47175,146.90275 v -0.636 c -0.929,0.372 -1.829,0.615 -2.703,0.735 -0.874,0.119 -1.683,0.179 -2.425,0.179 -1.086,0 -2.08,-0.159 -2.98,-0.477 -0.9,-0.318 -1.683,-0.769 -2.345,-1.353 -0.663,-0.582 -1.173,-1.277 -1.53,-2.086 -0.357,-0.809 -0.537,-1.688 -0.537,-2.644 0,-1.006 0.205,-1.934 0.617,-2.781 0.41,-0.848 0.973,-1.583 1.688,-2.206 0.716,-0.622 1.563,-1.113 2.544,-1.471 0.981,-0.358 2.04,-0.536 3.18,-0.536 0.557,0 1.245,0.053 2.066,0.159 0.821,0.105 1.63,0.305 2.425,0.596 -0.054,-0.928 -0.397,-1.596 -1.033,-2.008 -0.636,-0.41 -1.444,-0.615 -2.425,-0.615 -1.855,0 -3.696,0.504 -5.524,1.51 l -1.948,-4.212 c 0.716,-0.372 1.385,-0.689 2.008,-0.955 0.622,-0.264 1.232,-0.477 1.828,-0.636 0.596,-0.159 1.186,-0.278 1.769,-0.357 0.583,-0.079 1.206,-0.119 1.868,-0.119 2.676,0 4.763,0.655 6.26,1.968 1.496,1.311 2.246,3.332 2.246,6.061 v 11.884 h -5.049 z m 0,-7.83 c -0.795,-0.292 -1.61,-0.51 -2.444,-0.656 -0.835,-0.146 -1.518,-0.219 -2.047,-0.219 -0.849,0 -1.557,0.206 -2.127,0.616 -0.569,0.41 -0.854,0.921 -0.854,1.53 0,0.61 0.344,1.14 1.033,1.59 0.688,0.451 1.496,0.676 2.424,0.676 0.557,0 1.173,-0.066 1.848,-0.199 0.677,-0.132 1.398,-0.41 2.167,-0.834 v -2.504 z"
       id="path4302"
       style="fill:#ffffff" />
    <path
       d="m 62.17175,186.75175 c 1.202,0.267 2.143,1.212 2.275,2.415 0.268,1.072 -0.4,2.413 -1.341,2.947 -3.884,2.009 -8.974,0.802 -11.382,-2.81 l -4.423,2.938 c 3.884,5.897 12.055,7.905 18.214,4.562 2.947,-1.612 4.828,-5.224 4.288,-8.439 -0.534,-3.348 -3.353,-6.163 -6.697,-6.837 l -6.966,-1.068 c -1.201,-0.127 -2.142,-1.206 -2.275,-2.274 -0.133,-1.073 0.54,-2.275 1.609,-2.682 3.081,-1.603 7.231,-0.668 9.373,2.014 l 4.155,-3.354 c -3.616,-4.546 -10.447,-6.025 -15.81,-3.478 -3.076,1.341 -4.951,4.817 -4.551,8.167 0.4,3.349 3.21,6.297 6.564,6.97 l 6.967,0.929"
       id="path4306"
       style="fill:#ffffff;fill-rule:evenodd" />
    <path
       d="m 82.12075,184.47675 c 0.267,-0.534 0.806,-1.335 1.213,-1.736 0.533,-0.673 1.607,-1.213 2.408,-1.213 0.936,0 1.87,0.54 2.408,1.213 0.535,0.401 1.069,1.202 1.342,1.736 h -7.371 l 12.322,5.091 -12.322,-5.091 m 12.323,5.091 c 0.405,-3.082 -0.535,-6.96 -2.275,-9.642 -1.34,-1.741 -4.018,-3.081 -6.426,-3.081 -2.281,0 -4.957,1.34 -6.43,3.081 -3.479,4.423 -3.479,11.12 0.266,15.404 1.475,1.741 4.022,2.81 6.164,2.81 2.275,0 4.818,-1.068 6.159,-2.81 0.672,-0.673 1.341,-2.008 1.741,-2.949 l -5.224,-1.068 c 0,0.268 -0.134,0.663 -0.269,0.93 -0.538,0.539 -1.602,0.946 -2.408,0.946 -0.801,0 -1.741,-0.407 -2.281,-0.946 -0.667,-0.662 -1.469,-1.735 -1.735,-2.675 h 12.718 z"
       id="path4308"
       style="fill:#ffffff;fill-rule:evenodd" />
    <path
       d="m 113.99675,191.97575 c -0.935,1.073 -2.542,1.613 -3.883,1.347 -1.202,-0.273 -2.542,-1.347 -3.075,-2.548 -0.402,-1.607 -0.402,-4.022 0,-5.625 0.533,-1.346 1.873,-2.409 3.075,-2.542 1.341,-0.273 2.948,0.268 3.883,1.196 v 8.172 l 5.362,-14.592 -5.362,14.592 m 5.363,-14.592 h -5.362 v 0.267 c -2.275,-0.673 -5.489,-0.4 -7.632,0.802 -2.142,1.206 -4.017,3.749 -4.689,6.024 -0.268,2.009 -0.268,4.957 0,6.836 0.673,2.41 2.548,4.952 4.689,6.025 2.143,1.202 5.356,1.608 7.632,0.802 v 0.266 c 0,1.336 -0.801,2.549 -1.875,3.083 -1.067,0.539 -2.542,0.401 -3.614,-0.401 l -3.078,4.284 c 2.543,1.88 6.292,2.275 9.102,0.94 2.815,-1.475 4.828,-4.689 4.828,-7.906 v -21.022 z"
       id="path4310"
       style="fill:#ffffff;fill-rule:evenodd" />
    <path
       d="m 139.30975,182.73975 c 1.874,2.81 1.874,6.827 0,9.502 -0.534,0.674 -1.341,1.08 -2.136,1.08 -0.941,0 -1.748,-0.406 -2.281,-1.08 -1.875,-2.675 -1.875,-6.692 0,-9.502 0.533,-0.673 1.34,-1.072 2.281,-1.072 0.795,0 1.602,0.4 2.136,1.072 l 4.15,-2.947 -4.15,2.947 m 4.15,-2.947 c -1.33,-2.009 -4.012,-3.35 -6.286,-3.35 -2.416,0 -5.092,1.341 -6.432,3.35 -3.221,4.416 -3.221,10.981 0,15.398 1.34,2.008 4.016,3.349 6.432,3.349 2.274,0 4.956,-1.341 6.286,-3.349 3.216,-4.416 3.216,-10.982 0,-15.398 z"
       id="path4312"
       style="fill:#ffffff;fill-rule:evenodd" />
    <path
       d="m 153.486,177.018 7.366,21.294 5.625,0 7.232,-21.294 -5.625,0 -4.417,13.663 -4.558,-13.663 -5.623,0"
       transform="translate(-0.78125,0.09375)"
       id="polyline4314"
       style="fill:#ffffff;fill-rule:evenodd" />
    <path
       d="m 182.43475,177.11575 5.223,0 0,21.289 -5.223,0 z"
       id="rect4316"
       style="fill:#ffffff;fill-rule:evenodd" />
    <path
       d="m 185.11475,175.64175 c 1.475,0 2.816,-1.207 2.816,-2.809 0,-1.479 -1.342,-2.82 -2.816,-2.82 -1.606,0 -2.814,1.341 -2.814,2.82 0,1.602 1.208,2.809 2.814,2.809"
       id="path4318"
       style="fill:#ffffff;fill-rule:evenodd" />
    <path
       d="m 208.82075,192.38075 c -1.607,0.808 -4.017,1.208 -5.896,0.941 -0.934,-0.134 -1.736,-1.08 -1.736,-2.01 0,-1.073 0.803,-1.879 1.736,-2.146 1.88,-0.268 4.289,0.138 5.896,0.934 v 2.281 l 5.357,6.024 -5.357,-6.024 m 5.357,6.025 v -13.123 c -0.268,-4.95 -4.689,-8.839 -9.646,-8.438 -2.141,0 -4.951,0.939 -6.832,2.274 l 2.82,4.156 c 1.074,-0.801 2.811,-1.342 4.012,-1.342 1.607,-0.266 3.349,0.541 4.155,1.742 0,0.128 0.134,0.267 0.134,0.4 v 1.206 c -1.875,-0.667 -4.685,-1.073 -6.698,-0.934 -3.21,0.528 -5.752,3.615 -5.752,6.964 0,3.345 2.542,6.292 5.752,6.96 2.014,0.133 4.823,-0.268 6.698,-0.935 v 1.067 h 5.357 z"
       id="path4320"
       style="fill:#ffffff;fill-rule:evenodd" />
  </g>
</svg>
