<?xml version="1.0" encoding="UTF-8" standalone="no"?>
<!-- Created with Inkscape (http://www.inkscape.org/) -->

<svg
   xmlns:dc="http://purl.org/dc/elements/1.1/"
   xmlns:cc="http://creativecommons.org/ns#"
   xmlns:rdf="http://www.w3.org/1999/02/22-rdf-syntax-ns#"
   xmlns:svg="http://www.w3.org/2000/svg"
   xmlns="http://www.w3.org/2000/svg"
   version="1.2"
   width="189.375"
   height="283.65625"
   id="svg2">
  <metadata
     id="metadata3113">
    <rdf:RDF>
      <cc:Work
         rdf:about="">
        <dc:format>image/svg+xml</dc:format>
        <dc:type
           rdf:resource="http://purl.org/dc/dcmitype/StillImage" />
        <dc:title></dc:title>
      </cc:Work>
    </rdf:RDF>
  </metadata>
  <defs
     id="defs3111" />
  <g
     id="g3136">
    <path
       d="m 188.97,272.775 c 0,5.789 -4.691,10.48 -10.48,10.48 H 10.875 C 5.092,283.255 0.4,278.564 0.4,272.775 V 10.876 C 0.4,5.091 5.091,0.4 10.875,0.4 H 178.49 c 5.789,0 10.48,4.691 10.48,10.477 v 261.898 z"
       id="path3071"
       style="fill:#ffffff" />
    <path
       d="m 188.97,272.775 c 0,5.789 -4.691,10.48 -10.48,10.48 H 10.875 C 5.092,283.255 0.4,278.564 0.4,272.775 V 10.876 C 0.4,5.091 5.091,0.4 10.875,0.4 H 178.49 c 5.789,0 10.48,4.691 10.48,10.477 v 261.898 z"
       id="path3073"
       style="fill:none;stroke:#1c1d20;stroke-width:0.80000001;stroke-miterlimit:3.86400008" />
    <path
       d="m 184.357,10.876 c 0,-3.246 -2.621,-5.863 -5.867,-5.863 H 10.875 c -3.24,0 -5.863,2.617 -5.863,5.863 v 261.898 c 0,3.242 2.623,5.875 5.863,5.875 H 178.49 c 3.246,0 5.867,-2.633 5.867,-5.875 V 10.876"
       id="path3075"
       style="fill:#19408b" />
    <path
       d="m 31.832,157.541 m 125.712,0 H 31.832 V 31.83 h 125.713 v 125.711 z"
       id="path3077"
       style="fill:#ffffff" />
    <path
       d="m 92.591,98.876 m 4.188,0 H 92.591 V 84.212 h 4.188 v 14.664 z"
       id="path3079"
       style="fill:#1c1d20" />
    <path
       d="m 87.351,93.638 m 14.662,0 H 87.349 v -4.195 h 14.664 v 4.195 z"
       id="path3081"
       style="fill:#1c1d20" />
    <path
       d="m 42.302,115.638 m 41.905,0 H 42.302 V 73.736 h 41.904 v 41.902 z"
       id="path3083"
       style="fill:#19408b" />
    <path
       d="m 51.638,78.419 h 14.434 c 5.775,0 10.455,4.676 10.455,10.445 0,5.781 -4.68,10.461 -10.455,10.461 h -7.713 v 11.938 H 51.638 V 78.419"
       id="path3085"
       style="fill:#ffffff" />
    <path
       d="m 58.359,84.888 h 7.465 c 2.195,0 3.982,1.781 3.982,3.977 0,2.199 -1.787,3.988 -3.982,3.988 h -7.465 v -7.965"
       id="path3087"
       style="fill:#19408b" />
    <path
       d="m 105.162,73.736 41.902,0 0,41.902 -41.902,0 z"
       id="rect3089"
       style="fill:none;stroke:#1c1d20;stroke-width:0.80000001;stroke-miterlimit:3.86400008" />
    <path
       d="m 140.537,110.728 c 7.023,-12.102 1.477,-23.926 1.477,-23.926 -4.156,-11.086 -15.813,-10.348 -15.813,-10.348 0,0 -11.664,-0.738 -15.82,10.348 0,0 -5.539,11.824 1.477,23.926 -0.001,-0.082 28.679,-0.082 28.679,0"
       id="path3091"
       style="fill:#1c1d20" />
    <path
       d="m 137.763,106.572 c 2.406,-6.098 1.852,-11.641 1.852,-11.551 0.367,-8.871 -5.453,-12.652 -5.359,-12.563 -3.145,-2.68 -8.055,-2.551 -8.055,-2.551 0,0 -4.914,-0.129 -8.059,2.551 0.094,-0.09 -5.727,3.691 -5.355,12.563 0,-0.09 -0.555,5.453 1.844,11.551 h 23.132"
       id="path3093"
       style="fill:#ffffff" />
    <path
       d="m 121.095,84.048 c 0,0 -2.605,0.125 -2.605,2.477 -0.059,-0.063 0,11.59 0,11.59 0,0 -0.371,1.797 1.734,3.098 0,0.129 -3.961,5.824 -3.961,5.824 h 2.168 l 2.91,-4.211 h 9.336 l 2.914,4.211 h 2.168 c 0,0 -3.965,-5.695 -3.965,-5.824 2.105,-1.301 1.734,-3.098 1.734,-3.098 0,0 0.063,-11.652 0,-11.59 0,-2.352 -2.602,-2.477 -2.602,-2.477 h -9.831"
       id="path3095"
       style="fill:#1c1d20;fill-rule:evenodd" />
    <path
       d="m 124.146,83.103 c 0,-0.406 0.332,-0.734 0.742,-0.734 0.406,0 0.738,0.328 0.738,0.734 0,0.414 -0.332,0.742 -0.738,0.742 -0.41,0 -0.742,-0.328 -0.742,-0.742"
       id="path3097"
       style="fill:#1c1d20" />
    <path
       d="m 126.771,83.103 c 0,-0.406 0.332,-0.734 0.742,-0.734 0.406,0 0.738,0.328 0.738,0.734 0,0.414 -0.332,0.742 -0.738,0.742 -0.41,0 -0.742,-0.328 -0.742,-0.742"
       id="path3099"
       style="fill:#1c1d20" />
    <path
       d="m 126.119,87.646 h -4.793 c 0,0 -1.305,0.184 -1.305,1.297 v 2.945 c 0,0 -0.188,1.297 1.305,1.297 0,0.063 4.793,0 4.793,0 0,0 4.789,0.063 4.789,0 1.488,0 1.301,-1.297 1.301,-1.297 v -2.945 c 0,-1.113 -1.301,-1.297 -1.301,-1.297 h -4.789"
       id="path3101"
       style="fill:#ffffff;fill-rule:evenodd" />
    <path
       d="m 120.341,97.865 c 0,-0.703 0.582,-1.285 1.293,-1.285 0.707,0 1.289,0.582 1.289,1.285 0,0.715 -0.582,1.293 -1.289,1.293 -0.711,0 -1.293,-0.578 -1.293,-1.293"
       id="path3103"
       style="fill:#ffffff" />
    <path
       d="m 129.306,97.865 c 0,-0.703 0.582,-1.285 1.293,-1.285 0.707,0 1.289,0.582 1.289,1.285 0,0.715 -0.582,1.293 -1.289,1.293 -0.711,0 -1.293,-0.578 -1.293,-1.293"
       id="path3105"
       style="fill:#ffffff" />
    <path
       d="m 126.201,86.150002 0,-1.477005"
       id="line3107"
       style="fill:none;stroke:#ffffff;stroke-width:0.86799997;stroke-miterlimit:3.86400008" />
  </g>
</svg>
