<?xml version="1.0" encoding="UTF-8" standalone="no"?>
<!-- Created with Inkscape (http://www.inkscape.org/) -->

<svg
   xmlns:dc="http://purl.org/dc/elements/1.1/"
   xmlns:cc="http://creativecommons.org/ns#"
   xmlns:rdf="http://www.w3.org/1999/02/22-rdf-syntax-ns#"
   xmlns:svg="http://www.w3.org/2000/svg"
   xmlns="http://www.w3.org/2000/svg"
   version="1.2"
   width="271.76099"
   height="231.996"
   id="svg2">
  <metadata
     id="metadata6008">
    <rdf:RDF>
      <cc:Work
         rdf:about="">
        <dc:format>image/svg+xml</dc:format>
        <dc:type
           rdf:resource="http://purl.org/dc/dcmitype/StillImage" />
        <dc:title></dc:title>
      </cc:Work>
    </rdf:RDF>
  </metadata>
  <defs
     id="defs6006" />
  <g
     id="g6038">
    <path
       d="m 23.195,58 h 225.371 c 12.813,0 23.195,10.391 23.195,23.203 v 127.598 c 0,12.813 -10.383,23.195 -23.195,23.195 H 23.195 C 10.383,231.996 0,221.613 0,208.801 V 81.203 C 0,68.391 10.383,58 23.195,58"
       id="path5960"
       style="fill:#19408b" />
    <path
       d="m 82.855,0 h 106.051 c 9.152,0 16.574,7.422 16.574,16.578 V 41.43 c 0,9.152 -7.422,16.57 -16.574,16.57 H 82.855 C 73.703,58 66.285,50.582 66.285,41.43 V 16.578 C 66.285,7.422 73.703,0 82.855,0"
       id="path5962"
       style="fill:#19408b" />
    <path
       d="m 31.484,132.57 m 49.711,0 H 31.48 V 82.859 h 49.715 v 49.711 z"
       id="path5964"
       style="fill:#ffffff" />
    <path
       d="m 106.051,132.57 m 49.715,0 H 106.051 V 82.859 h 49.715 v 49.711 z"
       id="path5966"
       style="fill:#ffffff" />
    <path
       d="m 31.484,207.141 m 49.711,0 H 31.48 V 157.43 h 49.715 v 49.711 z"
       id="path5968"
       style="fill:#ffffff" />
    <path
       d="m 106.051,207.141 m 49.715,0 H 106.051 V 157.43 h 49.715 v 49.711 z"
       id="path5970"
       style="fill:#ffffff" />
    <path
       d="m 137.41,92.891 c 0.527,0 0.496,0.43 0.496,0.43 0,0 -0.035,2.859 0,2.859 0,0.359 -0.363,0.359 -0.363,0.359 h -3.023 v 1.484 c 0,0 2.859,0.031 2.828,0 0.625,0 0.559,0.555 0.559,0.555 0,0 0,1.711 0,1.68 0,0.621 -0.594,0.586 -0.594,0.586 0,0 -0.723,0.07 -0.723,0 -2.297,0 -2.07,2.207 -2.07,2.207 v 4.566 l 1.051,1.055 c 0,0 0,14.73 0,14.703 0,0.523 -0.918,0.523 -0.918,0.523 -0.691,0 -1.02,0.426 -0.988,0.426 0,0.496 -0.953,0.594 -0.953,0.594 0,0 -0.953,-0.098 -0.953,-0.594 0.035,0 -0.297,-0.426 -0.992,-0.426 0,0 -0.914,0 -0.914,-0.523 0,0.027 0,-14.703 0,-14.703 l 1.047,-1.055 v -4.566 c 0,0 -0.164,-2.207 -2.695,-2.207 h -4.371 c 0,0 -0.262,0 -0.262,-0.359 0,0 0,-2.199 0,-2.168 0,-0.332 0.293,-0.293 0.293,-0.293 -0.031,0.031 7.035,0 7.035,0 V 96.54 h -7.102 c 0,0 -0.258,0 -0.258,-0.266 -0.035,-0.027 0,-1.941 0,-1.941 0,0 0,-0.293 0.293,-0.293 h 3.75 l 1.148,-1.148 c -0.001,-10e-4 8.648,-0.033 8.679,-10e-4"
       id="path5972"
       style="fill:#1c1d20" />
    <path
       d="m 52.469,93.09 c -1.18,0 -1.117,1.117 -1.117,1.117 v 1.973 h -2.035 c -1.059,0 -0.988,0.984 -0.988,0.984 v 12.332 l 0.855,1.418 1.246,0.918 1.055,11.117 H 41.77 v 2.238 h 33.895 v -2.238 H 65.207 l 1.051,-11.117 1.254,-0.918 0.852,-1.184 V 97.164 c 0,0 0.063,-0.984 -0.984,-0.984 h -2.04 v -1.973 c 0,0 0.063,-1.117 -1.121,-1.117 0,-0.067 -11.75,-0.067 -11.75,0"
       id="path5974"
       style="fill:#1c1d20" />
    <path
       d="m 51.289001,103.25 14.112999,0"
       id="line5976"
       style="fill:none;stroke:#ffffff;stroke-width:2.15400004;stroke-miterlimit:3.86400008" />
    <path
       d="m 48.469,109.207 -3.551,9.07 c 0,0 -1.547,2.891 -4.113,1.676 0,0.035 -2.66,-0.855 -1.641,-4.039 -0.031,-0.031 3.551,-9.641 3.551,-9.641 V 104.3 l 1.973,-5.297 h 0.723 c 0,0 0.988,-3.449 2.598,-3.313 0.031,-0.035 0.66,0.098 0.164,0.457 0,-0.063 -2.105,1.051 -1.809,3.023 -0.031,0 1.121,1.844 1.121,1.844 v 0.461 h 1.113 l -0.129,7.732"
       id="path5978"
       style="fill:#1c1d20" />
    <path
       d="m 45.641,104.273 -0.559,1.148 -0.691,0.527 -3.781,10.426 c 0,0 -0.559,1.676 0.723,2.199 -0.066,0.035 1.453,0.691 2.102,-0.922 -0.063,0 4.574,-11.973 4.574,-11.973 0,0 -0.621,-0.59 -0.523,-1.445 0.031,0 -0.727,0 -0.727,0 0,0 -1.02,0.629 -0.953,4.012 0.035,-0.027 -0.559,0 -0.559,0 0,0 0.031,-3.094 0.852,-3.973 h -0.458"
       id="path5980"
       style="fill:#ffffff;fill-rule:evenodd" />
    <path
       d="m 67.742,176.176 c 0.824,0 1.492,0.668 1.492,1.488 v 3.363 H 50.969 v -4.852 h 16.773"
       id="path5982"
       style="fill:#1c1d20" />
    <path
       d="M 43.137,181.77 H 69.98 v -4.105 c 0,-0.82 0.668,-1.488 1.496,-1.488 0.82,0 1.488,0.668 1.488,1.488 v 11.934 H 69.98 V 185.13 H 43.137 v 4.469 h -2.98 v -14.91 c 0,-0.824 0.664,-1.492 1.488,-1.492 0.824,0 1.492,0.668 1.492,1.492 v 7.081"
       id="path5984"
       style="fill:#1c1d20" />
    <path
       d="m 43.883,181.027 v -2.984 c 0,0 0.184,-1.867 3.168,-1.867 2.98,0 3.168,1.867 3.168,1.867 v 2.984 h -6.336"
       id="path5986"
       style="fill:#1c1d20" />
    <path
       d="m 142.207,191.871 c 2.375,3.031 -0.766,4.637 -0.766,4.637 -2.484,2.012 -4.309,-1.277 -4.309,-1.277 l -4.789,-9.355 c 0,0 -6.031,9.754 -6.031,9.715 -2.082,3.516 -4.789,1.285 -4.855,1.246 -2.852,-2.113 -0.039,-4.898 -0.039,-4.898 0,0 8.406,-9.973 8.406,-10.012 0.984,-1.129 -0.551,-1.129 -0.66,-1.238 -4.277,-0.918 -5.918,-3.508 -5.918,-3.473 -3.477,-4.602 -2.633,-7.672 -2.633,-7.672 1.094,-3.621 4.352,-2.48 4.313,-2.52 4.457,1.172 6.066,5.621 6.102,5.664 0.477,1.023 1.465,6.395 1.465,6.395 0,0 0.652,-0.879 1.168,-4.172 0,0.074 0.035,-1.973 2.336,-4.707 0.035,0 0.953,-1.609 3.469,-3.105 0,0 1.723,-0.77 0.992,0.73 -0.043,0.035 -3.289,4.816 -3.289,4.816 0,0 -0.109,0.227 0.102,0.371 0.078,0 0.223,0.105 0.441,-0.078 0.035,-0.066 3.438,-4.82 3.438,-4.82 0,0 0.293,-0.438 0.84,-0.148 0.453,0.426 0.227,0.891 0.227,0.891 0,0 -3.383,4.762 -3.441,4.816 -0.102,0.27 0.051,0.375 0.074,0.441 0.211,0.16 0.379,-0.016 0.379,-0.016 0,0 3.469,-4.637 3.488,-4.68 1.184,-1.18 1.016,0.695 1.016,0.695 -0.594,2.871 -1.82,4.262 -1.809,4.293 -1.844,3.066 -3.621,4.41 -4.902,4.961 -0.035,0.031 -0.988,0.184 -1.5,1.172 -0.07,0 -0.984,1.531 -0.984,1.531 0,0 7.634,9.832 7.669,9.797"
       id="path5988"
       style="fill:#1c1d20" />
    <path
       d="m 241.305,116.965 -42.809,8.769 17.024,10.832 -30.95,26.821 10.317,10.312 26.82,-30.945 10.828,17.019 8.77,-42.808"
       id="polyline5990"
       style="fill:#ffffff" />
    <path
       d="m 94.861,18.953 h 13.358 v 3.859 h -9.795 l -0.297,3.265 c 1.346,-0.356 2.909,-0.514 4.69,-0.475 1.781,0.04 3.344,0.544 4.69,1.514 1.346,0.97 1.979,2.642 1.9,5.017 -0.079,2.375 -0.891,4.166 -2.434,5.373 -1.544,1.207 -3.632,1.84 -6.264,1.9 -2.632,0.059 -5.195,-0.703 -7.688,-2.286 l 2.434,-3.443 c 2.177,1.346 4.017,1.979 5.521,1.9 1.504,-0.079 2.622,-0.386 3.354,-0.92 0.732,-0.534 1.088,-1.385 1.069,-2.553 -0.02,-1.167 -0.376,-1.969 -1.069,-2.404 -0.693,-0.435 -1.652,-0.643 -2.879,-0.624 -1.227,0.02 -2.454,0.465 -3.681,1.336 l -3.74,-1.484 0.831,-9.975 z"
       id="path5994"
       style="fill:#ffffff" />
    <path
       d="m 119.143,18.597 c 2.098,0 4.027,0.762 5.788,2.286 1.761,1.524 2.642,4.206 2.642,8.044 0,3.839 -0.881,6.541 -2.642,8.104 -1.761,1.563 -3.69,2.355 -5.788,2.375 -2.098,0.019 -4.057,-0.812 -5.877,-2.494 -1.821,-1.682 -2.731,-4.324 -2.731,-7.926 0,-3.602 0.91,-6.234 2.731,-7.896 1.82,-1.662 3.779,-2.493 5.877,-2.493 z m 0,4.037 c -1.504,0.079 -2.622,0.683 -3.354,1.811 -0.732,1.128 -1.098,2.642 -1.098,4.542 0,1.9 0.425,3.424 1.276,4.571 0.851,1.148 1.949,1.712 3.295,1.692 1.346,-0.02 2.375,-0.604 3.087,-1.751 0.712,-1.147 1.079,-2.662 1.099,-4.542 0.02,-1.88 -0.307,-3.384 -0.979,-4.512 -0.672,-1.128 -1.782,-1.732 -3.326,-1.811 z"
       id="path5996"
       style="fill:#ffffff" />
    <path
       d="m 136.775,18.597 c 2.098,0 4.027,0.762 5.789,2.286 1.761,1.524 2.642,4.206 2.642,8.044 0,3.839 -0.881,6.541 -2.642,8.104 -1.762,1.563 -3.691,2.355 -5.789,2.375 -2.097,0.019 -4.057,-0.812 -5.877,-2.494 -1.821,-1.682 -2.731,-4.324 -2.731,-7.926 0,-3.602 0.91,-6.234 2.731,-7.896 1.821,-1.662 3.78,-2.493 5.877,-2.493 z m 0,4.037 c -1.503,0.079 -2.622,0.683 -3.354,1.811 -0.732,1.128 -1.098,2.642 -1.098,4.542 0,1.9 0.425,3.424 1.276,4.571 0.851,1.148 1.949,1.712 3.295,1.692 1.346,-0.02 2.375,-0.604 3.087,-1.751 0.712,-1.147 1.079,-2.662 1.099,-4.542 0.02,-1.88 -0.307,-3.384 -0.979,-4.512 -0.672,-1.128 -1.782,-1.732 -3.326,-1.811 z"
       id="path5998"
       style="fill:#ffffff" />
    <path
       d="m 160.924,23.94 v 0.891 c 1.266,-0.91 2.602,-1.326 4.007,-1.247 1.405,0.079 2.661,0.693 3.771,1.84 1.187,-1.306 2.73,-1.919 4.63,-1.84 1.9,0.079 3.285,0.663 4.155,1.751 0.871,1.088 1.307,2.543 1.307,4.363 v 9.321 h -3.978 v -9.202 c 0,-0.792 -0.188,-1.405 -0.563,-1.84 -0.377,-0.436 -0.961,-0.653 -1.752,-0.653 -0.792,0 -1.405,0.228 -1.84,0.683 -0.436,0.455 -0.653,1.118 -0.653,1.989 v 9.024 h -3.889 v -9.143 c -0.021,-0.633 -0.268,-1.217 -0.742,-1.751 -0.476,-0.534 -1.099,-0.802 -1.87,-0.802 -0.771,0 -1.396,0.248 -1.87,0.742 -0.476,0.495 -0.712,1.079 -0.712,1.751 v 9.202 h -3.949 l -0.029,-15.08 h 3.977 z"
       id="path6000"
       style="fill:#ffffff" />
    <path
       d="m 200.168,39.43 c 0,7.324 -5.938,13.262 -13.262,13.262 H 84.855 c -7.324,0 -13.262,-5.938 -13.262,-13.262 V 18.578 c 0,-7.328 5.938,-13.262 13.262,-13.262 h 102.051 c 7.324,0 13.262,5.934 13.262,13.262 V 39.43 z M 25.195,63.316 h 221.371 c 10.98,0 19.883,8.902 19.883,19.887 v 123.598 c 0,10.98 -8.902,19.887 -19.883,19.887 H 25.195 C 14.211,226.688 5.31,217.782 5.31,206.801 V 83.203 C 5.311,72.219 14.211,63.316 25.195,63.316 z"
       id="path6002"
       style="fill:none;stroke:#ffffff;stroke-width:4;stroke-miterlimit:3.86400008" />
  </g>
</svg>
