<?xml version="1.0" encoding="UTF-8" standalone="no"?>
<!-- Created with Inkscape (http://www.inkscape.org/) -->

<svg
   xmlns:dc="http://purl.org/dc/elements/1.1/"
   xmlns:cc="http://creativecommons.org/ns#"
   xmlns:rdf="http://www.w3.org/1999/02/22-rdf-syntax-ns#"
   xmlns:svg="http://www.w3.org/2000/svg"
   xmlns="http://www.w3.org/2000/svg"
   version="1.2"
   width="474.43301"
   height="226.36301"
   id="svg2">
  <metadata
     id="metadata3197">
    <rdf:RDF>
      <cc:Work
         rdf:about="">
        <dc:format>image/svg+xml</dc:format>
        <dc:type
           rdf:resource="http://purl.org/dc/dcmitype/StillImage" />
        <dc:title></dc:title>
      </cc:Work>
    </rdf:RDF>
  </metadata>
  <defs
     id="defs3195" />
  <g
     id="g3323">
    <path
       d="m 474.433,186.75 c 0,21.875 -17.734,39.613 -39.613,39.613 H 39.613 C 17.734,226.363 0,208.625 0,186.75 V 39.611 C 0,17.726 17.734,0 39.613,0 H 434.82 c 21.879,0 39.613,17.727 39.613,39.611 V 186.75"
       id="path3113"
       style="fill:#2b9561" />
    <path
       d="m 466.746,185.375 c 0,18.396 -15.017,33.313 -33.54,33.313 H 41.894 C 23.369,218.688 8.352,203.77 8.352,185.375 V 41.026 c 0,-18.4 15.017,-33.315 33.542,-33.315 h 391.312 c 18.523,0 33.54,14.915 33.54,33.315 v 144.349 z"
       id="path3115"
       style="fill:none;stroke:#ffffff;stroke-width:7.06290007;stroke-miterlimit:3.86400008" />
    <path
       d="m 426.443,68.479 -61.519,12.602 24.457,15.563 -44.465,38.546 14.824,14.813 38.539,-44.459 15.559,24.459 12.605,-61.524"
       transform="translate(-0.608,-0.084)"
       id="polyline3117"
       style="fill:#ffffff" />
    <path
       d="m 47.022999,47.932999 106.715001,0 0,45.271 -106.715001,0 z"
       id="rect3119"
       style="fill:none;stroke:#ffffff;stroke-width:3;stroke-miterlimit:3.86400008" />
    <path
       d="m 166.02299,47.932999 144.715,0 0,45.271 -144.715,0 z"
       id="rect3121"
       style="fill:#ef4137" />
    <path
       d="m 107.574,167.802 c -4.447,0 -8.485,-1.662 -11.996,-4.941 -4.056,-4.518 -6.095,-9.576 -6.095,-15.066 0,-2.412 0.406,-4.952 1.207,-7.549 2.816,-8.105 8.273,-12.499 16.222,-13.076 11.476,0.076 18.091,6.004 19.706,17.619 0.039,0.447 0.07,0.878 0.089,1.318 0.019,0.441 0.029,0.872 0.029,1.292 0,8.987 -3.749,15.323 -11.143,18.828 -2.885,1.051 -5.566,1.575 -8.019,1.575 l 0,0 z m -1.662,-8.873 1.052,0.25 c 6.569,-0.058 9.903,-3.366 10.192,-10.115 0.038,-0.353 0.056,-0.661 0.056,-0.959 v -0.93 c 0,-7.385 -3.27,-11.128 -9.992,-11.441 -5.489,1.098 -8.158,4.857 -8.158,11.495 v 0.876 c 0,0.259 0.019,0.525 0.052,0.806 0.22,4.59 1.981,7.716 5.392,9.592 h 0.137 0.136 l 0.12,0.062 c 0.114,0.058 0.222,0.102 0.321,0.128 0.122,0.035 0.254,0.072 0.397,0.105 l 0.066,0.015 0.062,0.031 0.167,0.085 0,0 z"
       id="path3129"
       style="fill:#ffffff" />
    <path
       d="m 149.002,167.011 h -0.399 -8.285 -0.416 l -0.122,-0.397 -0.226,-0.73 -0.729,-2.126 -0.596,-1.623 -0.073,-0.11 -0.062,-0.095 -0.023,-0.112 -0.151,-0.801 c -0.033,-0.075 -0.054,-0.147 -0.066,-0.211 -0.083,-0.092 -0.141,-0.205 -0.167,-0.334 -0.141,-0.287 -0.261,-0.575 -0.356,-0.858 -0.097,-0.292 -0.184,-0.574 -0.261,-0.841 l -0.109,-0.551 -0.317,-0.735 c -0.083,-0.209 -0.16,-0.409 -0.236,-0.621 -0.087,-0.239 -0.151,-0.461 -0.193,-0.679 l -0.145,-0.573 c -0.443,-0.824 -0.732,-1.594 -0.861,-2.296 l -0.253,-0.555 -0.199,-0.708 -0.271,-0.813 -0.114,-0.495 c -0.075,-0.151 -0.13,-0.288 -0.168,-0.405 -0.043,-0.123 -0.084,-0.27 -0.126,-0.439 v -0.002 c -0.265,-0.174 -0.298,-0.416 -0.298,-0.528 l 0.091,0.144 -0.619,-1.634 -0.025,-0.068 -0.008,-0.074 -0.043,-0.447 c -0.267,-0.486 -0.418,-0.948 -0.455,-1.373 l -0.114,-0.143 -0.122,-0.153 v -0.196 -0.087 c -0.019,-0.052 -0.031,-0.102 -0.039,-0.149 -0.116,-0.126 -0.187,-0.3 -0.187,-0.494 l -0.027,-0.135 c -0.265,-0.462 -0.435,-0.855 -0.52,-1.194 l -0.017,-0.068 v -0.068 -0.203 l -0.28,-0.561 -0.027,-0.052 -0.014,-0.059 -0.058,-0.226 -0.017,-0.07 v -0.07 -0.046 l -0.062,-0.062 -0.164,-0.166 v -0.233 -0.096 c -0.143,-0.3 -0.255,-0.586 -0.342,-0.867 -0.101,-0.321 -0.174,-0.636 -0.217,-0.932 l -0.091,-0.642 h 0.65 0.337 7.327 0.378 l 0.143,0.35 c 0.087,0.211 0.149,0.392 0.19,0.536 0.035,0.124 0.068,0.236 0.104,0.34 l 0.132,0.638 0.006,0.03 0.002,0.066 c 0.002,0.002 0.002,0.004 0.002,0.007 0.194,0.211 0.323,0.442 0.381,0.693 0.035,0.161 0.058,0.316 0.066,0.466 l 0.284,0.569 0.205,0.649 0.215,0.591 0.112,0.492 c 0.054,0.114 0.077,0.236 0.085,0.346 0.174,0.352 0.312,0.675 0.42,0.963 0.118,0.312 0.217,0.608 0.296,0.884 l 0.557,1.669 c 0.077,0.269 0.145,0.474 0.213,0.646 0.077,0.19 0.137,0.381 0.18,0.573 0.346,0.634 0.563,1.284 0.646,1.934 0.025,0.062 0.056,0.164 0.081,0.22 l 0.025,0.052 0.049,0.109 c 0.015,0.062 0.029,0.116 0.042,0.162 0.093,0.091 0.17,0.233 0.195,0.455 l 0.035,0.033 0.008,0.105 0.019,0.035 0.167,0.34 0.058,0.118 v 0.132 0.268 c 0,0.002 0,0.002 0.002,0.004 l 0.174,0.176 0.164,0.166 v 0.231 0.166 c 0.023,0.113 0.05,0.222 0.077,0.322 l 0.188,-0.472 0.033,-0.151 0.518,-1.616 0.166,-0.555 0.242,-0.609 0.279,-0.727 0.188,-0.564 c 0.05,-0.149 0.106,-0.273 0.17,-0.379 v -0.094 -0.107 l 0.039,-0.102 0.064,-0.159 0.164,-0.408 c 0.06,-0.148 0.105,-0.304 0.137,-0.459 l 0.248,-0.704 0.509,-1.358 0.145,-0.337 0.048,-0.479 0.012,-0.12 0.06,-0.104 0.19,-0.331 0.093,-0.331 0.021,-0.072 0.04,-0.066 0.17,-0.282 c -0.021,-0.08 0.004,-0.211 0.06,-0.344 l 0.101,-0.405 c 0.089,-0.236 0.139,-0.375 0.172,-0.493 0.054,-0.18 0.104,-0.312 0.151,-0.409 l 0.095,-0.147 0.203,-0.76 c 0.207,-0.472 0.34,-0.815 0.427,-1.111 0.087,-0.294 0.147,-0.562 0.18,-0.795 l 0.071,-0.484 h 0.488 6.312 0.282 1.24 0.82 l -0.294,0.766 -0.261,0.682 -0.105,0.571 -0.019,0.093 -0.045,0.085 -0.224,0.394 -0.062,0.122 -0.041,0.252 -0.128,0.46 -0.242,0.615 -0.104,0.311 c -0.083,0.207 -0.135,0.346 -0.17,0.449 -0.033,0.099 -0.066,0.186 -0.097,0.263 l -0.045,0.314 -0.017,0.105 -0.05,0.091 c -0.307,0.545 -0.493,1.048 -0.555,1.495 l -0.011,0.066 -0.024,0.062 -0.112,0.284 -0.112,0.279 c -0.064,0.159 -0.11,0.312 -0.141,0.468 l -0.022,0.112 -0.064,0.095 -0.043,0.062 -0.035,0.217 -0.012,0.077 -0.033,0.068 -0.312,0.677 c -0.046,0.203 -0.11,0.399 -0.19,0.582 -0.073,0.161 -0.143,0.312 -0.211,0.453 l -0.155,0.569 -0.164,0.71 -0.304,0.808 c -0.294,0.882 -0.571,1.586 -0.836,2.126 -0.075,0.366 -0.157,0.697 -0.25,0.995 -0.099,0.317 -0.224,0.609 -0.379,0.893 l -0.155,0.514 -0.043,0.228 -0.521,1.691 -0.025,0.076 -0.043,0.068 -0.16,0.238 -0.035,0.218 -0.528,1.66 -0.259,0.53 -0.155,0.364 -0.371,1.237 -0.045,0.232 -0.141,0.375 -0.023,0.056 -0.033,0.05 -0.13,0.194 v 0.111 0.116 l -0.045,0.105 -0.17,0.396 -0.093,0.294 -0.792,2.263 -0.138,0.373 0,0 z"
       id="path3133"
       style="fill:#ffffff" />
    <path
       d="m 170.92,167.011 h -0.563 -7.438 -0.563 v -0.563 -26.939 -0.562 h 0.563 1.745 2.48 3.213 0.563 v 0.562 26.939 0.563 l 0,0 z m -4.451,-29.476 c -1.967,0 -3.412,-1.043 -4.293,-3.104 -0.178,-0.302 -0.271,-0.892 -0.271,-1.854 0,-2.265 1.288,-3.854 3.725,-4.596 l 0.079,-0.025 h 0.085 0.167 c 2.905,0 4.737,1.334 5.449,3.967 l 0.019,0.072 v 0.075 0.226 c 0,1.898 -0.693,3.428 -2.066,4.55 l -0.043,0.035 -0.05,0.027 c -0.793,0.416 -1.735,0.627 -2.801,0.627 l 0,0 z"
       id="path3137"
       style="fill:#ffffff" />
    <path
       d="m 191.831,167.802 c -1.085,0 -2.187,-0.117 -3.275,-0.352 -6.868,-1.124 -10.836,-5.364 -11.768,-12.597 -0.042,-0.322 -0.06,-0.658 -0.06,-1.002 v -0.93 c 0,-7.925 3.805,-12.83 11.311,-14.581 l 0.064,-0.015 h 0.064 0.507 c 7.99,0 12.615,4.087 13.748,12.148 l 0.273,1.257 0.012,0.061 v 0.06 0.621 c 0.035,0.177 0.062,0.327 0.079,0.454 0.025,0.17 0.036,0.298 0.036,0.389 v 2.087 0.783 l -0.744,-0.249 -0.252,-0.085 h -16.721 c 0.437,2.23 1.723,3.547 3.913,4.015 0.547,0.104 1.1,0.157 1.629,0.157 2.348,0 4.284,-0.795 5.913,-2.426 l 0.429,-0.429 0.397,0.457 0.669,0.771 c 0.335,0.203 0.598,0.445 0.785,0.721 l 0.07,0.047 0.12,0.081 0.066,0.129 0.05,0.097 c 0.317,0.22 0.561,0.419 0.748,0.606 l 0.066,0.064 0.041,0.083 0.073,0.146 c 0.12,0.066 0.203,0.147 0.259,0.229 l 0.037,0.024 0.048,0.031 0.039,0.041 0.226,0.226 0.042,0.04 0.031,0.047 0.047,0.075 0.075,0.048 0.126,0.082 0.068,0.137 0.045,0.092 c 0.314,0.217 0.561,0.416 0.751,0.61 l 0.346,0.35 -0.302,0.392 c -2.58,3.323 -5.972,5.008 -10.081,5.008 l 0,0 z m -6.565,-18.598 h 9.245 c -0.774,-2.226 -2.296,-3.427 -4.638,-3.663 -2.504,0.39 -4.017,1.591 -4.607,3.663 l 0,0 z"
       id="path3141"
       style="fill:#ffffff" />
    <path
       d="m 220.009,167.634 h -0.677 c -3.96,0 -7.126,-1.495 -9.405,-4.447 -2.218,-3.188 -3.332,-6.654 -3.332,-10.321 0,-0.513 0.04,-1.122 0.118,-1.812 0.075,-0.691 0.19,-1.48 0.342,-2.344 1.016,-5.194 3.792,-8.616 8.258,-10.184 1.534,-0.472 3.013,-0.708 4.414,-0.708 2.27,0 4.389,0.594 6.312,1.766 V 128.8 128.237 h 0.562 1.692 5.747 0.562 v 0.563 37.535 0.563 h -0.562 -7.439 -0.562 v -0.563 -0.606 c -1.689,1.091 -3.453,1.712 -5.256,1.845 -0.256,0.036 -0.523,0.06 -0.774,0.06 l 0,0 z m -0.093,-22.096 c -2.555,0.702 -3.946,2.164 -4.251,4.473 l -0.014,0.104 -0.05,0.091 c -0.122,0.226 -0.327,0.898 -0.327,2.886 0,1.419 0.27,2.746 0.797,3.944 0.878,1.686 2.139,2.619 3.834,2.824 l 0.5,-0.004 c 2.16,0 3.801,-0.82 5.01,-2.508 0.141,-0.447 0.291,-0.849 0.455,-1.224 v -0.157 -0.07 l 0.017,-0.068 0.098,-0.385 v -5.595 c -0.878,-2.9 -2.647,-4.311 -5.412,-4.311 h -0.657 l 0,0 z"
       id="path3145"
       style="fill:#ffffff" />
    <path
       d="m 253.6,167.97 c -0.518,0 -1.128,-0.058 -1.815,-0.176 -0.665,-0.114 -1.434,-0.267 -2.305,-0.455 -5.941,-2.005 -9.18,-6.229 -9.686,-12.568 -0.037,-0.252 -0.058,-0.544 -0.058,-0.834 v -0.789 c 0,-8.65 4.155,-13.806 12.352,-15.321 l 0.05,-0.008 h 0.052 0.17 c 6.534,0 11.013,2.828 13.315,8.408 0.043,0.089 0.113,0.2 0.19,0.309 0.12,0.172 0.226,0.368 0.318,0.592 0.484,2.039 0.717,3.924 0.717,5.684 0,3.625 -0.959,6.952 -2.852,9.886 -3.075,3.521 -6.574,5.272 -10.448,5.272 l 0,0 z m -0.958,-22.431 c -2.883,1.273 -4.284,3.375 -4.284,6.425 v 0.621 c 0,0.194 0.017,0.389 0.05,0.586 l 0.006,0.484 c 0,3.647 1.526,5.766 4.667,6.477 3.536,-0.236 5.255,-2.648 5.255,-7.378 0,-0.215 -0.011,-0.435 -0.027,-0.668 -0.021,-0.249 -0.03,-0.518 -0.03,-0.798 -0.48,-3.766 -2.326,-5.668 -5.637,-5.749 l 0,0 z"
       id="path3149"
       style="fill:#ffffff" />
    <path
       d="m 76.475,55.938 0,0.426 0,5.666 0,0.427 -0.426,0 -12.4,0 0,4.855 11.207,0 0.426,0 0,0.427 0,5.325 0,0.427 -0.426,0 -11.207,0 0,5.305 13.55,0.02 0.426,0 0,0.427 0,5.665 0,0.426 0,0 -0.426,0 -19.812,0 -0.426,0 0,-0.426 0,-21.302 0,-7.242 0,-0.426 0.426,0 0.214,0 18.448,0 z"
       transform="translate(-0.608,-0.084)"
       id="polygon3157"
       style="fill:#ffffff" />
    <path
       d="m 92.534,70.381 0,4.304 0,0.425 0,0 -0.426,0 -8.86,0 -0.426,0 0,-0.425 0,-4.304 0,-0.425 0.426,0 0.426,0 8.434,0 0.426,0 z"
       transform="translate(-0.608,-0.084)"
       id="polygon3161"
       style="fill:#ffffff" />
    <path
       d="m 107.138,85.082 h -0.383 -6.391 -0.566 l 0.156,-0.543 0.086,-0.299 0.316,-0.736 0.08,-0.199 0.143,-0.291 0.051,-0.252 0.019,-0.074 0.043,-0.063 0.047,-0.07 c 0.197,-0.656 0.406,-1.146 0.637,-1.488 l 0.109,-0.399 0.287,-0.59 0.201,-0.486 0.267,-0.537 0.147,-0.49 0.094,-0.242 0.127,-0.209 0.465,-1.277 0.022,-0.058 0.037,-0.049 0.213,-0.283 c 0.215,-0.672 0.426,-1.25 0.633,-1.718 l 0.117,-0.19 c 0.072,-0.207 0.172,-0.461 0.258,-0.687 0.078,-0.207 0.166,-0.385 0.269,-0.539 v -0.119 -0.092 l 0.039,-0.084 0.596,-1.32 0.094,-0.187 0.492,-1.281 0.238,-0.437 0.139,-0.439 0.215,-0.404 0.115,-0.459 c 0.117,-0.283 0.211,-0.469 0.304,-0.625 0.061,-0.102 0.11,-0.199 0.153,-0.297 v -0.127 -0.178 l 0.127,-0.125 0.002,-0.002 v -0.035 -0.115 l 0.057,-0.099 c 0.176,-0.305 0.289,-0.566 0.336,-0.773 l 0.144,-0.397 0.176,-0.283 0.069,-0.24 0.248,-0.472 0.064,-0.168 0.301,-0.726 0.074,-0.228 0.094,-0.24 0.098,-0.199 0.234,-0.713 0.031,-0.094 0.072,-0.072 0.029,-0.028 c 0.041,-0.094 0.078,-0.185 0.112,-0.267 H 96.271 95.845 V 61.562 56.236 55.81 h 0.426 0.513 19.512 0.426 v 0.426 5.496 0.211 l -0.168,0.129 -0.067,0.051 -0.041,0.125 -0.025,0.228 -0.01,0.068 -0.031,0.061 -0.256,0.511 -0.07,0.178 -0.027,0.119 c -0.104,0.258 -0.174,0.427 -0.228,0.564 -0.049,0.121 -0.086,0.236 -0.108,0.354 l -0.012,0.056 -0.025,0.051 -0.254,0.511 -0.197,0.517 -0.603,1.418 -0.082,0.207 -0.099,0.199 -0.072,0.185 -0.414,0.869 -0.033,0.164 -0.402,1.05 -0.291,0.492 -0.09,0.267 c -0.016,0.033 -0.039,0.125 -0.084,0.215 v 0.101 l -0.021,0.026 -0.17,0.342 -0.074,0.181 -0.025,0.115 -0.067,0.176 -0.162,0.391 c -0.047,0.117 -0.082,0.234 -0.104,0.351 l -0.012,0.058 -0.027,0.051 -0.086,0.17 c -0.135,0.273 -0.254,0.523 -0.349,0.742 -0.092,0.211 -0.164,0.404 -0.215,0.586 l -0.285,0.586 -0.197,0.517 -0.088,0.219 -0.076,0.229 -0.449,0.91 -0.096,0.39 -0.189,0.474 -0.225,0.455 -0.162,0.367 -0.217,0.476 -0.195,0.592 c -0.162,0.334 -0.281,0.584 -0.375,0.804 -0.094,0.213 -0.166,0.408 -0.217,0.588 l -0.156,0.326 -0.055,0.226 -0.402,0.947 c -0.063,0.158 -0.14,0.308 -0.222,0.439 -0.047,0.076 -0.088,0.147 -0.127,0.219 v 0.154 0.176 l -0.127,0.125 -0.051,0.051 -0.183,0.619 -0.11,0.238 c -0.263,0.399 -0.328,0.625 -0.34,0.752 l -0.039,0.381 0,0 z"
       id="path3165"
       style="fill:#ffffff" />
    <path
       d="m 132.443,85.805 c -1.906,0 -3.521,-0.332 -4.795,-0.985 -4.169,-1.836 -6.562,-5.132 -7.087,-9.79 -0.146,-0.841 -0.259,-1.629 -0.341,-2.386 -0.088,-0.78 -0.133,-1.57 -0.133,-2.348 0,-2.161 0.466,-4.742 1.385,-7.668 1.916,-4.869 5.515,-7.383 10.707,-7.5 8.089,0.293 12.383,5.033 12.79,14.084 0.002,0.208 0.008,0.39 0.021,0.564 0.015,0.191 0.025,0.394 0.025,0.605 0,2.159 -0.279,4.204 -0.829,6.084 -0.548,1.877 -1.352,3.661 -2.391,5.304 l -0.055,0.084 -0.084,0.053 -0.149,0.09 c -0.045,0.051 -0.09,0.092 -0.136,0.123 -0.065,0.127 -0.144,0.234 -0.229,0.32 l -0.088,0.086 -0.121,0.121 -0.199,0.146 c -0.144,0.156 -0.332,0.329 -0.499,0.464 -0.178,0.15 -0.338,0.257 -0.486,0.329 -2.412,1.467 -4.881,2.22 -7.306,2.22 l 0,0 z m -1.775,-6.529 c 0.648,0.147 1.289,0.224 1.904,0.224 3.726,0 5.538,-2.912 5.538,-8.903 0,-0.589 -0.022,-1.211 -0.063,-1.869 -0.043,-0.667 -0.092,-1.367 -0.15,-2.104 -0.771,-3.472 -2.698,-5.187 -5.881,-5.187 h -0.281 c -3.049,0.925 -4.53,3.014 -4.53,6.39 v 0.554 0.082 l -0.031,0.078 -0.056,0.138 v 0.34 c -0.033,0.25 -0.051,0.427 -0.065,0.589 -0.015,0.158 -0.019,0.302 -0.019,0.433 0.029,0.152 0.041,0.246 0.041,0.343 v 0.975 l 0.029,0.113 0.014,0.051 v 0.053 c 0,0.218 0.006,0.423 0.019,0.612 0.015,0.174 0.033,0.326 0.06,0.456 l 0.049,1.173 -0.035,0.257 0.029,0.146 c 0.029,0.154 0.049,0.281 0.063,0.384 0.015,0.096 0.023,0.176 0.027,0.24 0.049,0.181 0.109,0.347 0.177,0.499 0.082,0.185 0.146,0.373 0.183,0.566 0.049,0.066 0.09,0.146 0.104,0.24 0.188,0.357 0.308,0.642 0.361,0.866 0.013,0.021 0.025,0.039 0.037,0.06 l 0.047,0.043 0.016,0.041 c 0.347,0.601 0.609,0.862 0.768,0.972 l 0.181,0.134 0.051,0.037 0.037,0.051 0.065,0.088 0.08,0.039 0.246,0.146 0.104,0.066 0.056,0.111 0.014,0.028 c 0.111,0.047 0.228,0.101 0.351,0.165 0.161,0.075 0.314,0.171 0.46,0.28 l 0,0 z"
       id="path3169"
       style="fill:#ffffff" />
    <path
       d="m 201.843,85.081 h -0.426 -4.772 -1.874 -0.229 l -0.126,-0.19 -0.085,-0.128 c -0.175,-0.167 -0.312,-0.358 -0.388,-0.55 -0.105,-0.089 -0.164,-0.205 -0.185,-0.314 -0.391,-0.421 -0.688,-0.862 -0.884,-1.312 -0.068,-0.083 -0.135,-0.19 -0.145,-0.325 l -0.183,-0.258 c -0.28,-0.246 -0.522,-0.574 -0.661,-0.923 l -0.341,-0.416 -0.302,-0.535 -0.272,-0.512 c -0.354,-0.386 -0.613,-0.735 -0.791,-1.066 l -0.093,-0.116 c -0.147,-0.275 -0.253,-0.461 -0.355,-0.616 -0.107,-0.161 -0.215,-0.31 -0.32,-0.444 l -0.046,-0.058 -0.022,-0.068 -0.019,-0.054 -0.126,-0.157 -0.709,-1.101 c -0.078,-0.105 -0.161,-0.228 -0.225,-0.341 -0.05,-0.087 -0.083,-0.126 -0.1,-0.141 -0.035,-0.035 -0.104,-0.105 -0.153,-0.203 l -0.062,-0.031 -0.064,-0.11 -0.299,-0.51 -0.1,-0.198 c -0.13,-0.166 -0.237,-0.331 -0.31,-0.481 -0.133,-0.124 -0.228,-0.265 -0.283,-0.419 l -0.222,-0.221 -0.043,-0.043 -0.029,-0.054 -0.256,-0.469 -0.109,-0.244 -0.089,-0.029 -0.081,-0.122 -1.022,-1.533 -0.031,-0.048 -0.019,-0.054 -0.084,-0.256 -0.104,-0.166 -0.18,-0.182 -0.222,-0.318 -0.089,-0.205 c -0.126,-0.128 -0.233,-0.244 -0.324,-0.347 -0.126,-0.145 -0.226,-0.289 -0.295,-0.434 l -0.159,-0.273 c -0.183,-0.225 -0.314,-0.458 -0.385,-0.692 -0.06,-0.045 -0.105,-0.097 -0.139,-0.153 l -0.021,-0.011 -0.176,-0.086 -0.047,-0.188 -0.029,-0.116 -0.198,-0.339 v 17.731 0.426 h -0.426 -5.835 -0.426 V 84.652 80.861 56.237 55.812 h 0.426 0.383 6.306 0.246 l 0.122,0.21 0.297,0.513 0.279,0.396 0.31,0.483 0.287,0.411 0.311,0.483 0.154,0.141 0.07,0.072 0.033,0.095 0.058,0.173 c 0.031,0.04 0.062,0.085 0.085,0.137 0.318,0.403 0.556,0.769 0.711,1.084 0.376,0.442 0.637,0.822 0.791,1.161 l 0.246,0.298 0.293,0.527 c 0.048,0.058 0.114,0.145 0.168,0.21 0.054,0.068 0.099,0.118 0.143,0.161 l 0.07,0.07 0.031,0.095 0.056,0.165 c 0.178,0.192 0.306,0.393 0.384,0.597 0.472,0.513 0.816,1.05 1.027,1.602 l 0.269,0.382 c 0.041,0.037 0.104,0.111 0.139,0.215 0.169,0.182 0.317,0.359 0.438,0.531 l 0.366,0.54 0.274,0.504 0.213,0.376 0.25,0.397 0.3,0.26 0.056,0.047 0.035,0.066 0.213,0.382 0.18,0.357 c 0.254,0.29 0.491,0.669 0.648,1.048 l 0.167,0.215 0.178,0.269 0.159,0.145 0.042,0.043 0.028,0.05 c 0.112,0.196 0.207,0.361 0.292,0.502 0.08,0.136 0.15,0.271 0.208,0.403 l 0.155,0.155 0.202,0.248 0.066,0.081 0.019,0.105 v 0.004 l 0.128,0.064 0.062,0.148 c 0.115,0.283 0.271,0.525 0.461,0.713 l 0.091,0.091 0.024,0.126 0.021,0.104 c 0.019,0.027 0.037,0.054 0.054,0.085 0.081,0.084 0.157,0.171 0.231,0.26 V 56.237 55.812 h 0.426 5.88 0.426 v 0.425 28.418 0.426 l 0.002,0 z"
       id="path3173"
       style="fill:#ffffff" />
    <path
       d="m 218.515,70.381 0,4.304 0,0.426 0,0 -0.426,0 -8.863,0 -0.426,0 0,-0.426 0,-4.304 0,-0.426 0.426,0 0.426,0 8.437,0 0.426,0 z"
       transform="translate(-0.608,-0.084)"
       id="polygon3177"
       style="fill:#ffffff" />
    <path
       d="m 235.033,85.593 c -7.106,0 -11.018,-4.578 -11.631,-13.605 v -0.326 c 0,-0.162 -0.008,-0.343 -0.022,-0.546 -0.015,-0.224 -0.021,-0.426 -0.021,-0.604 v -0.299 c 0,-9.337 3.672,-14.341 10.917,-14.869 0.191,0 0.357,-0.006 0.532,-0.019 0.193,-0.017 0.384,-0.023 0.564,-0.023 5.249,0 8.483,2.2 9.613,6.537 l 0.104,0.396 -0.391,0.119 -0.899,0.274 -0.149,0.121 -0.069,0.054 -0.083,0.023 -0.596,0.17 c -0.239,0.098 -0.507,0.185 -0.761,0.245 -0.066,0.033 -0.139,0.05 -0.209,0.058 -0.062,0.04 -0.129,0.062 -0.195,0.077 l -0.015,0.019 -0.129,0.172 h -0.214 -0.162 c -0.025,0.006 -0.048,0.012 -0.066,0.019 -0.104,0.106 -0.237,0.137 -0.341,0.147 -0.054,0.021 -0.114,0.033 -0.181,0.042 l -1.163,0.521 -0.383,0.172 -0.179,-0.38 c -0.839,-1.784 -2.037,-2.653 -3.661,-2.653 -0.366,0 -0.752,0.042 -1.153,0.121 -2.291,0.621 -3.577,2.206 -3.893,4.83 2.002,-1.164 3.999,-1.753 5.94,-1.753 2.152,0 4.24,0.684 6.205,2.034 2.237,2.227 3.34,4.807 3.34,7.721 0,0.866 -0.09,1.795 -0.264,2.763 -0.588,4.47 -2.947,7.214 -7.015,8.134 -0.601,0.118 -1.185,0.199 -1.743,0.243 -0.564,0.042 -1.107,0.065 -1.627,0.065 l 0,0 z m 0.064,-14.956 c -2.556,0.27 -4.016,1.522 -4.462,3.83 l 0.008,0.218 c 0,2.551 1.132,4.044 3.459,4.57 0.089,0.029 0.139,0.031 0.205,0.031 l 0.726,0.043 c 1.591,0 2.704,-0.754 3.402,-2.306 0.114,-0.567 0.226,-1.099 0.312,-1.51 0.104,-0.492 0.12,-0.704 0.12,-0.787 0,-1.741 -0.868,-3.024 -2.654,-3.919 h -0.114 -0.112 l -0.098,-0.054 c -0.061,-0.035 -0.259,-0.114 -0.792,-0.116 l 0,0 z"
       id="path3181"
       style="fill:#ffffff" />
    <path
       d="m 261.66,85.974 c -6.421,0 -10.345,-3.195 -11.664,-9.497 l -0.027,-0.125 0.049,-0.119 c 0.173,-0.436 0.513,-0.481 0.652,-0.481 l 0.341,-0.077 0.381,-0.009 0.156,-0.04 c 0.079,-0.017 0.14,-0.029 0.186,-0.036 0.112,-0.044 0.235,-0.052 0.34,-0.052 h 0.158 c 0.43,-0.106 0.838,-0.189 1.217,-0.244 l 0.171,-0.069 0.075,-0.029 h 0.083 0.34 c 0.398,-0.104 0.834,-0.191 1.213,-0.252 0.4,-0.061 0.742,-0.09 1.047,-0.09 h 0.348 l 0.068,0.342 c 0.534,2.643 1.979,4.108 4.418,4.479 0.015,0 0.029,-0.002 0.049,-0.002 0.074,0 0.179,0.008 0.283,0.021 0.096,0.012 0.191,0.019 0.287,0.019 2.801,0 4.155,-1.184 4.262,-3.724 -0.123,-1.015 -0.581,-1.784 -1.398,-2.284 h -0.137 -0.13 l -0.108,-0.071 -0.056,-0.038 -0.595,-0.112 -0.221,0.006 -0.475,-0.096 -0.717,0.011 h -0.099 l -0.089,-0.042 -0.086,-0.042 h -1.217 l -1.376,-0.173 -0.371,-0.048 v -0.374 -5.197 -0.425 h 0.426 0.34 c 2.011,0 3.732,-0.371 5.124,-1.1 0.188,-0.244 0.406,-0.442 0.652,-0.594 0.125,-0.438 0.189,-0.854 0.189,-1.246 0,-1.604 -1.114,-2.499 -3.407,-2.73 l -0.427,0.002 c -3.105,0 -4.779,1.232 -5.116,3.764 l -0.05,0.369 h -0.373 c -0.474,0 -0.882,-0.042 -1.247,-0.127 h -0.414 c -0.722,-0.146 -1.246,-0.229 -1.648,-0.256 l -0.327,-0.046 -0.242,0.004 h -0.083 l -0.075,-0.029 -0.14,-0.056 h -0.127 L 250.358,64.842 249.879,64.78 250,64.313 c 1.494,-5.741 5.207,-8.801 11.043,-9.094 h 0.616 c 5.108,0 8.593,2.138 10.362,6.354 0.166,0.729 0.281,1.29 0.366,1.746 0.09,0.463 0.134,0.848 0.134,1.145 0,0.723 -0.09,1.419 -0.27,2.071 -0.274,1.617 -1.066,2.82 -2.353,3.568 1.968,1.161 2.964,2.972 2.964,5.396 0,0.513 -0.044,1.038 -0.136,1.563 -0.142,3.524 -1.634,6.123 -4.429,7.671 -0.573,0.363 -1.094,0.59 -1.573,0.684 -1.132,0.369 -2.808,0.557 -5.064,0.557 l 0,0 z"
       id="path3185"
       style="fill:#ffffff" />
    <path
       d="m 299.025,85.166 h -0.427 -5.838 -0.427 v -0.427 -3.961 -0.427 h -13.077 -1.835 -0.427 v -0.427 -2.173 -0.169 -0.171 -0.127 -0.169 -0.129 -0.127 -0.171 -0.127 -0.169 -0.13 -0.169 -0.127 -0.171 -0.169 -0.128 -0.171 -0.169 -0.171 -0.127 -0.174 -0.172 -0.129 l 0.073,-0.151 0.258,-0.382 1.081,-1.387 0.306,-0.381 0.062,-0.157 0.025,-0.065 0.046,-0.052 0.255,-0.299 0.207,-0.174 0.13,-0.228 0.132,-0.222 0.037,-0.061 0.055,-0.046 0.255,-0.213 c -0.015,-0.011 0.036,-0.08 0.103,-0.146 l 0.073,-0.073 0.02,-0.119 0.031,-0.194 0.169,-0.103 0.117,-0.071 c 0.443,-0.78 0.881,-1.355 1.332,-1.747 l 0.216,-0.466 0.031,-0.071 0.055,-0.052 0.337,-0.335 0.054,-0.109 0.031,-0.062 0.049,-0.048 0.169,-0.169 0.724,-1.012 0.211,-0.222 c 0.399,-0.642 0.862,-1.236 1.322,-1.705 0.293,-0.55 0.608,-0.993 0.939,-1.324 l 0.184,-0.224 0.232,-0.35 c 0.13,-0.167 0.229,-0.292 0.313,-0.403 0.073,-0.101 0.15,-0.215 0.23,-0.345 l 0.719,-0.864 0.161,-0.205 0.611,-0.983 0.152,-0.203 c 0.213,-0.245 0.372,-0.433 0.498,-0.588 0.119,-0.142 0.202,-0.253 0.257,-0.333 0.064,-0.071 0.115,-0.117 0.159,-0.151 l 0.04,-0.123 0.062,-0.19 0.184,-0.073 0.057,-0.023 0.187,-0.401 0.817,-1.061 0.128,-0.166 h 0.207 0.299 7.201 0.427 v 0.427 17.807 h 3.237 0.427 v 0.426 5.242 0.071 l -0.023,0.067 c -0.046,0.132 -0.173,0.364 -0.521,0.446 l -3.12,0.01 v 4.39 0.427 l 10e-4,0 z M 284.836,74.088 h 7.497 v -8.776 -1.23 l -0.077,0.078 -0.224,0.45 -0.044,0.09 -0.081,0.061 c -0.195,0.146 -0.234,0.213 -0.236,0.217 l -0.005,0.009 -0.037,0.087 -0.3,0.469 -0.052,0.08 -0.079,0.05 c -0.151,0.094 -0.188,0.164 -0.19,0.176 l -0.02,0.122 -0.081,0.092 -0.299,0.341 c -0.117,0.199 -0.251,0.389 -0.364,0.515 -0.103,0.119 -0.19,0.213 -0.251,0.274 l -0.029,0.061 -0.104,0.213 -0.029,0.059 -0.046,0.046 -0.084,0.086 -0.05,0.052 -0.059,0.026 -0.015,0.055 -0.044,0.062 c -0.067,0.101 -0.141,0.169 -0.214,0.217 l -0.015,0.032 -0.108,0.171 -0.048,0.073 -0.073,0.048 -0.053,0.036 -0.462,0.732 -0.146,0.199 -0.562,0.692 -0.247,0.249 -0.2,0.316 -0.22,0.234 c -0.082,0.146 -0.194,0.343 -0.289,0.519 -0.119,0.222 -0.253,0.406 -0.396,0.548 l -0.407,0.406 -0.051,0.129 -0.022,0.061 -0.04,0.05 -0.125,0.159 c -0.053,0.129 -0.132,0.222 -0.222,0.282 l -0.02,0.048 -0.042,0.103 -0.085,0.071 -0.155,0.125 -0.255,0.437 -0.24,0.298 0,0 z"
       id="path3189"
       style="fill:#ffffff" />
    <path
       d="m 166.02299,47.932999 144.715,0 0,45.271 -144.715,0 z"
       id="rect3191"
       style="fill:none;stroke:#ffffff;stroke-width:3;stroke-miterlimit:3.86400008" />
  </g>
</svg>
