<?xml version="1.0" encoding="UTF-8" standalone="no"?>
<!-- Created with Inkscape (http://www.inkscape.org/) -->

<svg
   xmlns:dc="http://purl.org/dc/elements/1.1/"
   xmlns:cc="http://creativecommons.org/ns#"
   xmlns:rdf="http://www.w3.org/1999/02/22-rdf-syntax-ns#"
   xmlns:svg="http://www.w3.org/2000/svg"
   xmlns="http://www.w3.org/2000/svg"
   version="1.2"
   width="764.21875"
   height="237.375"
   id="svg2">
  <metadata
     id="metadata4010">
    <rdf:RDF>
      <cc:Work
         rdf:about="">
        <dc:format>image/svg+xml</dc:format>
        <dc:type
           rdf:resource="http://purl.org/dc/dcmitype/StillImage" />
        <dc:title></dc:title>
      </cc:Work>
    </rdf:RDF>
  </metadata>
  <defs
     id="defs4008" />
  <g
     id="g4071">
    <path
       d="m 0.11675,210.11075 c 0,14.851 12.268,27.122 27.122,27.122 h 294.701 c 14.851,0 27.122,-12.271 27.122,-27.122 v -182.871 c 0,-14.854 -12.271,-27.122 -27.122,-27.122 h -294.7 c -14.854,0 -27.122,12.268 -27.122,27.122 l -10e-4,182.871"
       id="path3906"
       style="fill:#19408b" />
    <path
       d="m 0.11675,210.11075 c 0,14.851 12.268,27.122 27.122,27.122 h 294.701 c 14.851,0 27.122,-12.271 27.122,-27.122 v -182.871 c 0,-14.854 -12.271,-27.122 -27.122,-27.122 h -294.7 c -14.854,0 -27.122,12.268 -27.122,27.122 l -10e-4,182.871"
       id="path3908"
       style="fill:none;stroke:#ffffff;stroke-width:0.26370001;stroke-miterlimit:2.61299992" />
    <path
       d="m 8.24975,210.11075 v -182.871 c 0,-10.332 8.658,-18.984 18.99,-18.984 h 294.701 c 10.331,0 18.984,8.653 18.984,18.984 v 182.871 c 0,10.331 -8.653,18.984 -18.984,18.984 h -294.701 c -10.333,0 -18.99,-8.653 -18.99,-18.984 h -5.418 5.418 m -5.418,0 c 0,13.305 11.104,24.412 24.408,24.412 h 294.701 c 13.305,0 24.407,-11.107 24.407,-24.412 v -182.871 c 0,-13.309 -11.104,-24.413 -24.407,-24.413 h -294.701 c -13.304,0 -24.408,11.104 -24.408,24.413 v 182.871 z"
       id="path3910"
       style="fill:#ffffff" />
    <path
       d="m 138.68875,26.223749 71.807,0 0,34.353001 -71.807,0 z"
       id="rect3912"
       style="fill:#ffffff" />
    <path
       d="m 140.36275,28.03175 68.44899,0 0,30.736999 -68.44899,0 z"
       id="rect3914"
       style="fill:#19408b" />
    <path
       d="m 153.02275,45.33175 2.843,-6.968 2.709,6.968 h -5.552 l -8.004,8.916 8.004,-8.916 m -8.004,8.916 h 4.388 l 1.937,-4.774 h 8.91 l 1.937,4.774 h 4.522 l -8.781,-21.699 h -4.265 l -8.648,21.699 z"
       id="path3916"
       style="fill:#ffffff" />
    <path
       d="m 174.32974,41.463749 6.845,0 0,4.136 -6.845,0 z"
       id="rect3918"
       style="fill:#ffffff" />
    <path
       d="m 192.28375,46.10975 c 1.937,-0.901 4.774,-0.901 6.845,0 0.644,0.263 1.159,0.907 1.159,1.679 0,0.648 -0.515,1.421 -1.159,1.684 -2.071,0.896 -4.909,0.896 -6.845,0 -0.644,-0.263 -1.169,-1.036 -1.169,-1.684 0,-0.772 0.525,-1.416 1.169,-1.679 l -1.292,-4.002 1.292,4.002 m -1.293,-4.002 c 1.55,-4.13 6.067,-6.716 10.455,-5.938 v -4.136 c -4.259,-0.381 -9.039,1.679 -11.748,4.914 -2.709,3.224 -3.744,8.385 -2.452,12.526 0.386,1.545 1.808,3.101 3.358,3.739 2.972,1.422 7.36,1.422 10.46,0 2.065,-0.896 3.615,-3.224 3.615,-5.423 0,-2.323 -1.55,-4.522 -3.615,-5.424 -2.842,-1.421 -7.106,-1.421 -10.073,-0.258 z"
       id="path3920"
       style="fill:#ffffff" />
    <path
       d="m 53.191,207.502 -20.658,-20.664 16.528,3.616 0,-12.144 8.137,0 0,12.144 16.656,-3.616 -20.663,20.664"
       transform="translate(-0.15625,-0.40625)"
       id="polyline3922"
       style="fill:#ffffff" />
    <path
       d="m 296.3,207.502 -20.663,-20.664 16.661,3.616 0,-12.144 8.128,0 0,12.144 16.538,-3.616 -20.664,20.664"
       transform="translate(-0.15625,-0.40625)"
       id="polyline3924"
       style="fill:#ffffff" />
    <path
       d="m 0.11675,210.11075 c 0,14.851 12.268,27.122 27.122,27.122 h 294.701 c 14.851,0 27.122,-12.271 27.122,-27.122 v -182.871 c 0,-14.854 -12.271,-27.122 -27.122,-27.122 h -294.7 c -14.854,0 -27.122,12.268 -27.122,27.122 l -10e-4,182.871 0,0 z"
       id="path3926"
       style="fill:none;stroke:#1d2d28;stroke-width:0.26370001;stroke-miterlimit:2.61299992" />
    <path
       d="m 389.77175,210.11075 c 0,14.851 12.27,27.122 27.116,27.122 h 320.064 c 14.849,0 27.122,-12.271 27.122,-27.122 v -182.871 c 0,-14.854 -12.273,-27.122 -27.122,-27.122 h -320.064 c -14.849,0 -27.116,12.268 -27.116,27.122 v 182.871"
       id="path3928"
       style="fill:#19408b" />
    <path
       d="m 389.77175,210.11075 c 0,14.851 12.27,27.122 27.116,27.122 h 320.064 c 14.849,0 27.122,-12.271 27.122,-27.122 v -182.871 c 0,-14.854 -12.273,-27.122 -27.122,-27.122 h -320.064 c -14.849,0 -27.116,12.268 -27.116,27.122 v 182.871"
       id="path3930"
       style="fill:none;stroke:#ffffff;stroke-width:0.26370001;stroke-miterlimit:2.61299992" />
    <path
       d="m 397.90875,54.36175 v -27.122 c 0,-10.332 8.521,-18.984 18.979,-18.984 h 120.886 c 10.331,0 18.979,8.653 18.979,18.984 v 27.122 c 0,10.332 -8.648,18.979 -18.979,18.979 h -120.886 c -10.455,0 -18.979,-8.647 -18.979,-18.979 h -5.431 5.431 m -5.428,0 c 0,13.298 11.109,24.408 24.407,24.408 h 120.886 c 13.298,0 24.407,-11.109 24.407,-24.408 v -27.122 c 0,-13.309 -11.109,-24.413 -24.407,-24.413 h -120.886 c -13.298,0 -24.407,11.104 -24.407,24.413 v 27.122 z"
       id="path3932"
       style="fill:#ffffff" />
    <path
       d="m 572.89375,54.36175 v -27.122 c 0,-10.332 8.658,-18.984 18.99,-18.984 h 145.068 c 10.461,0 18.982,8.653 18.982,18.984 v 27.122 c 0,10.332 -8.521,18.979 -18.982,18.979 h -145.068 c -10.332,0 -18.99,-8.647 -18.99,-18.979 h -5.418 5.418 m -5.418,0 c 0,13.298 11.104,24.408 24.408,24.408 h 145.068 c 13.304,0 24.406,-11.109 24.406,-24.408 v -27.122 c 0,-13.309 -11.104,-24.413 -24.406,-24.413 h -145.068 c -13.304,0 -24.408,11.104 -24.408,24.413 v 27.122 l 0,0 z"
       id="path3934"
       style="fill:#ffffff" />
    <path
       d="m 419.60775,49.32475 c 2.58,1.288 6.711,2.328 9.685,2.328 4.136,0 7.487,-3.492 7.487,-7.499 0,-4.13 -3.354,-7.489 -7.487,-7.489 -1.421,0 -3.486,0.392 -4.779,0.901 l 0.387,-3.868 h 10.331 v -4.136 h -14.208 l -0.771,10.461 3.225,2.451 c 1.55,-1.03 4.007,-1.674 5.814,-1.674 1.807,0 3.356,1.545 3.356,3.353 0,1.813 -1.551,3.358 -3.356,3.358 -2.328,0 -5.814,-0.772 -7.88,-1.808 l -1.804,3.622"
       id="path3936"
       style="fill:#ffffff" />
    <path
       d="m 449.69775,44.66875 c -0.648,-2.452 -0.648,-5.934 0,-8.262 0.516,-1.937 2.322,-3.358 4.26,-3.358 2.069,0 3.879,1.421 4.394,3.358 0.646,2.328 0.646,5.81 0,8.262 -0.515,1.812 -2.321,3.229 -4.394,3.229 -1.938,0 -3.747,-1.416 -4.26,-3.229 l -4.003,0.648 4.003,-0.648 m -4.003,0.649 c 1.03,3.616 4.519,6.335 8.263,6.335 3.879,0 7.363,-2.719 8.396,-6.335 0.772,-2.843 0.772,-6.839 0,-9.554 -1.028,-3.621 -4.517,-6.33 -8.396,-6.33 -3.744,0 -7.23,2.709 -8.263,6.33 -0.778,2.714 -0.778,6.711 0,9.554 z"
       id="path3938"
       style="fill:#ffffff" />
    <path
       d="m 476.29775,44.66875 c -0.777,-2.452 -0.777,-5.934 0,-8.262 0.516,-1.937 2.323,-3.358 4.26,-3.358 1.938,0 3.878,1.421 4.396,3.358 0.644,2.328 0.644,5.81 0,8.262 -0.518,1.812 -2.457,3.229 -4.396,3.229 -1.937,0 -3.744,-1.416 -4.26,-3.229 l -4.002,0.648 4.002,-0.648 m -4.002,0.649 c 1.03,3.616 4.518,6.335 8.262,6.335 3.744,0 7.365,-2.719 8.396,-6.335 0.776,-2.843 0.776,-6.839 0,-9.554 -1.029,-3.621 -4.65,-6.33 -8.396,-6.33 -3.746,0 -7.229,2.709 -8.262,6.33 -0.777,2.714 -0.777,6.711 0,9.554 z"
       id="path3940"
       style="fill:#ffffff" />
    <path
       d="m 511.80975,51.65275 h 4.008 v -9.307 c 0,-1.545 1.416,-2.838 2.969,-2.838 1.679,0 2.972,1.293 2.972,2.838 v 9.307 h 4.13 v -9.307 c 0,-1.545 1.293,-2.838 2.844,-2.838 1.681,0 2.974,1.293 2.974,2.838 v 9.307 h 4.13 v -9.95 c 0,-2.585 -1.81,-5.295 -4.259,-6.196 -2.58,-1.035 -5.688,-0.263 -7.494,1.674 -1.938,-2.193 -5.553,-2.843 -8.263,-1.287 v -0.778 h -4.008 l -0.003,16.537"
       id="path3942"
       style="fill:#ffffff" />
    <path
       d="m 594.749,62.906 17.82,0 1.679,-43.398 -5.166,0 -14.333,43.398"
       transform="translate(-0.15625,-0.40625)"
       id="polyline3944"
       style="fill:#ffffff" />
    <path
       d="m 618.642,62.906 17.686,0 -6.454,-20.406 13.041,-14.725 4.265,10.331 0,-18.598 -18.598,0 10.465,4.265 -12.659,7.88 -3.873,-12.145 -5.166,0 1.293,43.398"
       transform="translate(-0.15625,-0.40625)"
       id="polyline3946"
       style="fill:#ffffff" />
    <path
       d="m 397.90875,210.11075 v -101.505 c 0,-10.331 8.521,-18.989 18.979,-18.989 h 320.064 c 10.461,0 18.982,8.658 18.982,18.989 v 101.505 c 0,10.331 -8.521,18.984 -18.982,18.984 h -320.064 c -10.455,0 -18.979,-8.653 -18.979,-18.984 h -5.431 5.431 m -5.428,0 c 0,13.305 11.109,24.412 24.407,24.412 h 320.064 c 13.304,0 24.406,-11.107 24.406,-24.412 v -101.505 c 0,-13.308 -11.104,-24.413 -24.406,-24.413 h -320.064 c -13.298,0 -24.407,11.104 -24.407,24.413 v 101.505 z"
       id="path3948"
       style="fill:#ffffff" />
    <path
       d="m 728.976,186.104 -39.911,-8.004 15.37,-10.199 -28.153,-25.061 9.554,-9.554 25.062,28.28 10.069,-15.497 8.009,40.035"
       transform="translate(-0.15625,-0.40625)"
       id="polyline3950"
       style="fill:#ffffff" />
    <path
       d="m 389.77175,210.11075 c 0,14.851 12.27,27.122 27.116,27.122 h 320.064 c 14.849,0 27.122,-12.271 27.122,-27.122 v -182.871 c 0,-14.854 -12.273,-27.122 -27.122,-27.122 h -320.064 c -14.849,0 -27.116,12.268 -27.116,27.122 v 182.871 z"
       id="path3952"
       style="fill:none;stroke:#1d2d28;stroke-width:0.26370001;stroke-miterlimit:2.61299992" />
    <path
       d="m 233.578,128.427 11.11,0 1.679,-3.359 -11.238,0 -1.551,3.359"
       transform="translate(-0.15625,-0.40625)"
       id="polyline3954"
       style="fill:#ffffff" />
    <path
       d="m 85.59175,139.57975 3.507,-8.599 3.342,8.599 h -6.849 l -9.873,10.999 9.873,-10.999 m -9.873,10.999 h 5.413 l 2.39,-5.893 h 10.991 l 2.39,5.893 h 5.578 l -10.832,-26.771 h -5.261 l -10.669,26.771 z"
       id="path3956"
       style="fill:#ffffff" />
    <path
       d="m 142.63075,141.83375 c -1.025,2.191 -3.61,3.62 -6.062,3.355 -2.462,-0.257 -4.651,-2.06 -5.429,-4.388 -0.777,-2.452 -0.777,-6.067 0,-8.652 0.778,-2.321 2.967,-4.131 5.429,-4.389 2.452,-0.258 5.037,1.159 6.062,3.354 l 4.651,-2.322 c -1.932,-4.002 -6.711,-6.582 -11.104,-6.201 -4.388,0.392 -8.652,3.744 -9.94,8.014 -1.035,3.482 -1.035,8.385 0,11.748 1.288,4.26 5.418,7.746 9.94,8.14 4.394,0.387 9.173,-2.322 11.104,-6.329 l -4.651,-2.33"
       id="path3958"
       style="fill:#ffffff" />
    <path
       d="m 165.10775,135.37975 c 1.931,2.581 1.931,6.325 0,8.91 -0.387,0.645 -1.164,1.164 -1.937,1.164 -0.778,0 -1.685,-0.521 -2.071,-1.164 -1.931,-2.585 -1.931,-6.329 0,-8.91 0.386,-0.646 1.293,-1.163 2.071,-1.163 0.773,0 1.55,0.52 1.937,1.163 l 4.13,-2.972 -4.13,2.972 m 4.13,-2.972 c -1.292,-1.805 -3.873,-3.103 -6.067,-3.103 -2.328,0 -4.914,1.298 -6.201,3.103 -3.101,4.389 -3.101,10.59 0,14.854 1.288,1.803 3.873,3.229 6.201,3.229 2.194,0 4.774,-1.429 6.067,-3.229 3.095,-4.264 3.095,-10.465 0,-14.854 z"
       id="path3960"
       style="fill:#ffffff" />
    <path
       d="m 180.73375,150.36375 h 5.166 v -11.371 c -0.129,-1.153 0.521,-2.58 1.421,-3.357 1.031,-0.639 2.452,-0.896 3.616,-0.381 l 2.452,-4.398 c -2.066,-1.152 -5.166,-1.417 -7.489,-0.382 v -0.515 h -5.166 v 20.404"
       id="path3962"
       style="fill:#ffffff" />
    <path
       d="m 202.42775,129.95675 v 12.14 c 0,2.838 1.812,5.812 4.13,7.226 2.457,1.424 5.943,1.424 8.396,0.136 v 0.905 h 5.171 v -20.404 h -5.171 v 11.359 c 0,1.938 -1.674,3.616 -3.615,3.616 -2.061,0 -3.745,-1.68 -3.745,-3.616 v -11.359 l -5.166,-0.003"
       id="path3964"
       style="fill:#ffffff" />
    <path
       d="m 230.96475,150.36375 h 5.172 v -11.371 c 0,-2.064 1.674,-3.61 3.61,-3.61 2.07,0 3.749,1.546 3.749,3.61 v 11.371 h 5.037 v -11.371 c 0.129,-2.84 -1.422,-6.066 -3.873,-7.617 -2.457,-1.674 -5.938,-1.805 -8.523,-0.521 v -0.896 h -5.172 v 20.405"
       id="path3966"
       style="fill:#ffffff" />
    <path
       d="m 268.93375,144.54775 c -1.545,0.778 -3.873,1.159 -5.68,0.906 -0.902,-0.128 -1.674,-1.035 -1.674,-1.941 0,-1.03 0.771,-1.937 1.674,-2.065 1.807,-0.263 4.135,0.131 5.68,0.906 v 2.194 l 5.172,5.813 -5.172,-5.813 m 5.172,5.816 v -12.66 c -0.263,-4.646 -4.522,-8.396 -9.302,-8.135 -2.065,0.131 -4.903,1.035 -6.587,2.194 l 2.714,4.126 c 1.03,-0.768 2.714,-1.288 3.873,-1.417 1.55,-0.129 3.229,0.521 4.002,1.809 0,0.13 0.128,0.259 0.128,0.388 v 1.035 c -1.803,-0.646 -4.512,-1.035 -6.453,-0.777 -3.1,0.521 -5.557,3.486 -5.557,6.587 0,3.103 2.457,6.072 5.557,6.587 1.941,0.266 4.65,-0.128 6.453,-0.775 v 1.041 h 5.172 l 0,-0.003 0,0 z"
       id="path3968"
       style="fill:#ffffff" />
    <path
       d="m 693.34575,50.96875 c 0.042,-0.504 0.084,-0.951 0.127,-1.339 0.041,-0.389 0.089,-0.756 0.144,-1.103 0.052,-0.347 0.125,-0.678 0.22,-0.993 0.096,-0.315 0.205,-0.651 0.331,-1.008 0.439,-1.302 1.069,-2.495 1.891,-3.577 0.819,-1.082 1.796,-1.99 2.933,-2.726 0.397,-0.294 0.846,-0.556 1.339,-0.788 0.492,-0.231 1.004,-0.461 1.527,-0.693 l 0.818,-0.378 0.757,-0.221 0.727,-0.284 c 0.607,-0.272 1.08,-0.583 1.419,-0.93 0.335,-0.346 0.503,-0.708 0.503,-1.087 0,-0.63 -0.385,-1.145 -1.149,-1.544 -0.768,-0.399 -1.76,-0.599 -2.978,-0.599 -0.549,0 -1.053,0.037 -1.515,0.11 -0.463,0.074 -0.914,0.194 -1.354,0.362 -0.44,0.168 -0.883,0.389 -1.323,0.662 -0.441,0.273 -0.925,0.609 -1.449,1.008 l -2.963,-3.088 c 0.357,-0.252 0.672,-0.478 0.945,-0.677 0.271,-0.199 0.523,-0.373 0.757,-0.52 0.229,-0.146 0.452,-0.278 0.661,-0.394 0.211,-0.115 0.431,-0.225 0.662,-0.331 1.68,-0.903 3.582,-1.355 5.703,-1.355 1.345,0 2.578,0.179 3.703,0.536 1.121,0.357 2.043,0.872 2.758,1.544 0.546,0.525 0.966,1.124 1.26,1.796 0.294,0.672 0.441,1.46 0.441,2.363 0,1.555 -0.488,2.878 -1.467,3.971 -0.978,1.092 -2.494,1.985 -4.555,2.679 -0.587,0.231 -1.081,0.431 -1.479,0.599 -0.399,0.168 -0.74,0.331 -1.024,0.488 -0.283,0.158 -0.546,0.331 -0.787,0.52 -0.242,0.189 -0.499,0.42 -0.771,0.693 -0.338,0.336 -0.621,0.662 -0.854,0.977 -0.229,0.315 -0.463,0.683 -0.691,1.103 h 11.849 v 4.223 l -17.116,10e-4 0,0 z"
       id="path3970"
       style="fill:#ffffff" />
    <path
       d="m 735.69775,40.38175 c 0,1.681 -0.21,3.198 -0.631,4.553 -0.419,1.355 -1.013,2.505 -1.777,3.45 -0.77,0.946 -1.696,1.676 -2.79,2.19 -1.092,0.515 -2.299,0.772 -3.623,0.772 -1.599,0 -2.956,-0.31 -4.081,-0.93 -1.124,-0.619 -2.042,-1.444 -2.757,-2.474 -0.714,-1.029 -1.234,-2.2 -1.562,-3.514 -0.326,-1.312 -0.486,-2.663 -0.486,-4.049 0,-1.66 0.202,-3.162 0.612,-4.507 0.41,-1.344 0.997,-2.489 1.766,-3.434 0.767,-0.946 1.702,-1.675 2.806,-2.19 1.104,-0.515 2.337,-0.772 3.702,-0.772 1.281,0 2.458,0.263 3.53,0.788 1.068,0.525 2,1.266 2.788,2.222 0.785,0.956 1.4,2.101 1.843,3.435 0.44,1.335 0.66,2.82 0.66,4.46 z m -4.16,-0.095 c 0,-2.29 -0.404,-3.959 -1.214,-5.011 -0.81,-1.05 -1.961,-1.575 -3.45,-1.575 -1.515,0 -2.667,0.557 -3.466,1.67 -0.801,1.114 -1.197,2.784 -1.197,5.011 0,2.164 0.402,3.828 1.213,4.995 0.809,1.166 1.959,1.749 3.45,1.749 1.45,0 2.589,-0.62 3.419,-1.859 0.829,-1.241 1.245,-2.9 1.245,-4.98 z"
       id="path3972"
       style="fill:#ffffff" />
    <path
       d="m 121.52275,105.23575 h -4.371 l -7.502,-20.832 h 4.371 l 5.332,14.632 5.084,-14.632 h 4.309 l -7.223,20.832 z"
       id="path3974"
       style="fill:#ffffff" />
    <path
       d="m 133.76775,105.23575 v -15.16 h 4.154 v 15.159 l -4.154,10e-4 0,0 z m 4.092,-19.097 c 0,0.538 -0.197,1.013 -0.589,1.426 -0.393,0.414 -0.879,0.62 -1.457,0.62 -0.538,0 -1.003,-0.207 -1.395,-0.62 -0.393,-0.413 -0.589,-0.888 -0.589,-1.426 0,-0.599 0.196,-1.09 0.589,-1.472 0.392,-0.382 0.857,-0.574 1.395,-0.574 0.578,0 1.064,0.191 1.457,0.574 0.392,0.383 0.589,0.873 0.589,1.472 z"
       id="path3976"
       style="fill:#ffffff" />
    <path
       d="m 146.22975,105.23575 v -19.53 l 4.154,-1.612 v 21.142 h -4.154 z"
       id="path3978"
       style="fill:#ffffff" />
    <path
       d="m 158.69175,105.23575 v -19.53 l 4.154,-1.612 v 21.142 h -4.154 z"
       id="path3980"
       style="fill:#ffffff" />
    <path
       d="m 179.02775,105.23575 v -0.495 c -0.724,0.289 -1.426,0.479 -2.108,0.572 -0.682,0.094 -1.312,0.141 -1.891,0.141 -0.848,0 -1.623,-0.124 -2.325,-0.372 -0.703,-0.248 -1.313,-0.601 -1.829,-1.055 -0.517,-0.454 -0.915,-0.997 -1.193,-1.626 -0.279,-0.63 -0.418,-1.317 -0.418,-2.062 0,-0.785 0.16,-1.508 0.48,-2.17 0.32,-0.661 0.759,-1.235 1.317,-1.721 0.558,-0.485 1.219,-0.868 1.984,-1.147 0.765,-0.279 1.591,-0.418 2.48,-0.418 0.434,0 0.971,0.042 1.612,0.124 0.64,0.083 1.271,0.238 1.891,0.465 -0.042,-0.723 -0.31,-1.245 -0.806,-1.565 -0.496,-0.32 -1.127,-0.48 -1.891,-0.48 -1.447,0 -2.883,0.393 -4.309,1.178 l -1.519,-3.286 c 0.558,-0.289 1.08,-0.537 1.565,-0.744 0.485,-0.206 0.961,-0.372 1.426,-0.496 0.465,-0.124 0.924,-0.217 1.379,-0.279 0.454,-0.062 0.94,-0.093 1.457,-0.093 2.087,0 3.715,0.511 4.882,1.534 1.167,1.023 1.751,2.599 1.751,4.728 v 9.269 l -3.935,-0.002 0,0 z m 0,-6.107 c -0.62,-0.227 -1.255,-0.398 -1.906,-0.512 -0.651,-0.113 -1.184,-0.17 -1.597,-0.17 -0.662,0 -1.214,0.16 -1.658,0.48 -0.445,0.321 -0.667,0.718 -0.667,1.193 0,0.476 0.268,0.889 0.806,1.24 0.537,0.352 1.167,0.527 1.891,0.527 0.434,0 0.915,-0.051 1.441,-0.155 0.527,-0.103 1.09,-0.32 1.689,-0.651 l 0.001,-1.952 0,0 z"
       id="path3982"
       style="fill:#ffffff" />
    <path
       d="m 191.27175,105.23575 v -19.53 l 4.154,-1.612 v 21.142 h -4.154 z"
       id="path3984"
       style="fill:#ffffff" />
    <path
       d="m 217.43575,97.57775 c 0,1.054 -0.176,2.062 -0.527,3.023 -0.352,0.961 -0.822,1.798 -1.411,2.51 -0.589,0.714 -1.276,1.282 -2.062,1.705 -0.786,0.425 -1.612,0.637 -2.48,0.637 -0.6,0 -1.168,-0.072 -1.705,-0.218 -0.538,-0.145 -0.992,-0.393 -1.364,-0.743 v 0.743 h -4.154 v -19.53 l 4.154,-1.612 v 6.634 c 0.434,-0.352 0.904,-0.609 1.41,-0.775 0.506,-0.165 1.028,-0.248 1.566,-0.248 0.888,0 1.736,0.212 2.542,0.635 0.806,0.424 1.503,0.998 2.092,1.721 0.589,0.724 1.059,1.561 1.411,2.511 0.353,0.951 0.528,1.954 0.528,3.007 z m -4.154,0 c 0,-0.537 -0.078,-1.043 -0.232,-1.519 -0.155,-0.476 -0.367,-0.894 -0.636,-1.256 -0.269,-0.361 -0.584,-0.646 -0.945,-0.853 -0.362,-0.206 -0.75,-0.31 -1.163,-0.31 -0.517,0 -0.977,0.114 -1.379,0.341 -0.403,0.228 -0.75,0.6 -1.039,1.116 v 4.96 c 0.289,0.517 0.63,0.889 1.023,1.116 0.392,0.228 0.826,0.341 1.302,0.341 0.434,0 0.842,-0.103 1.225,-0.31 0.382,-0.207 0.708,-0.485 0.977,-0.837 0.269,-0.351 0.48,-0.764 0.636,-1.24 0.154,-0.473 0.231,-0.991 0.231,-1.549 z"
       id="path3986"
       style="fill:#ffffff" />
    <path
       d="m 231.72675,105.23575 v -0.495 c -0.724,0.289 -1.426,0.479 -2.108,0.572 -0.682,0.094 -1.312,0.141 -1.891,0.141 -0.848,0 -1.623,-0.124 -2.325,-0.372 -0.703,-0.248 -1.313,-0.601 -1.829,-1.055 -0.517,-0.454 -0.915,-0.997 -1.193,-1.626 -0.279,-0.63 -0.418,-1.317 -0.418,-2.062 0,-0.785 0.16,-1.508 0.48,-2.17 0.32,-0.661 0.759,-1.235 1.317,-1.721 0.558,-0.485 1.219,-0.868 1.984,-1.147 0.765,-0.279 1.591,-0.418 2.48,-0.418 0.434,0 0.971,0.042 1.612,0.124 0.64,0.083 1.271,0.238 1.891,0.465 -0.042,-0.723 -0.31,-1.245 -0.806,-1.565 -0.496,-0.32 -1.127,-0.48 -1.891,-0.48 -1.447,0 -2.883,0.393 -4.309,1.178 l -1.519,-3.286 c 0.558,-0.289 1.08,-0.537 1.565,-0.744 0.485,-0.206 0.961,-0.372 1.426,-0.496 0.465,-0.124 0.924,-0.217 1.379,-0.279 0.454,-0.062 0.94,-0.093 1.457,-0.093 2.087,0 3.715,0.511 4.882,1.534 1.167,1.023 1.751,2.599 1.751,4.728 v 9.269 l -3.935,-0.002 0,0 z m 0,-6.107 c -0.62,-0.227 -1.255,-0.398 -1.906,-0.512 -0.651,-0.113 -1.184,-0.17 -1.597,-0.17 -0.662,0 -1.214,0.16 -1.658,0.48 -0.445,0.321 -0.667,0.718 -0.667,1.193 0,0.476 0.268,0.889 0.806,1.24 0.537,0.352 1.167,0.527 1.891,0.527 0.434,0 0.915,-0.051 1.441,-0.155 0.527,-0.103 1.09,-0.32 1.689,-0.651 l 0.001,-1.952 0,0 z"
       id="path3988"
       style="fill:#ffffff" />
    <path
       d="m 428.86475,170.05475 v -27.551 h 5.411 v 22.344 h 15.007 v 5.207 h -20.418 z"
       id="path3990"
       style="fill:#ffffff" />
    <path
       d="m 465.68375,170.05475 v -0.655 c -0.958,0.384 -1.887,0.637 -2.789,0.76 -0.901,0.123 -1.735,0.184 -2.5,0.184 -1.121,0 -2.146,-0.164 -3.076,-0.492 -0.93,-0.328 -1.734,-0.792 -2.418,-1.394 -0.684,-0.602 -1.21,-1.318 -1.578,-2.152 -0.368,-0.833 -0.555,-1.743 -0.555,-2.727 0,-1.038 0.212,-1.995 0.636,-2.87 0.424,-0.875 1.006,-1.633 1.743,-2.275 0.737,-0.642 1.611,-1.147 2.623,-1.518 1.012,-0.368 2.105,-0.554 3.28,-0.554 0.574,0 1.284,0.056 2.132,0.164 0.848,0.109 1.682,0.314 2.502,0.615 -0.056,-0.957 -0.41,-1.646 -1.065,-2.07 -0.656,-0.424 -1.49,-0.637 -2.503,-0.637 -1.912,0 -3.812,0.521 -5.697,1.56 l -2.01,-4.347 c 0.738,-0.383 1.429,-0.711 2.07,-0.983 0.643,-0.273 1.271,-0.492 1.887,-0.656 0.614,-0.164 1.224,-0.287 1.824,-0.369 0.602,-0.082 1.242,-0.123 1.926,-0.123 2.763,0 4.914,0.678 6.459,2.029 1.544,1.354 2.316,3.438 2.316,6.254 v 12.258 l -5.207,-0.002 0,0 z m 0,-8.076 c -0.82,-0.301 -1.661,-0.525 -2.521,-0.677 -0.861,-0.149 -1.566,-0.226 -2.112,-0.226 -0.875,0 -1.606,0.212 -2.193,0.636 -0.589,0.424 -0.882,0.95 -0.882,1.578 0,0.63 0.355,1.176 1.066,1.64 0.711,0.466 1.544,0.697 2.501,0.697 0.573,0 1.21,-0.068 1.906,-0.205 0.696,-0.137 1.44,-0.424 2.234,-0.861 v -2.582 l 10e-4,0 z"
       id="path3992"
       style="fill:#ffffff" />
    <path
       d="m 496.92375,164.27475 c 0,0.875 -0.137,1.635 -0.41,2.275 -0.273,0.643 -0.725,1.237 -1.353,1.783 -0.875,0.712 -1.895,1.224 -3.055,1.538 -1.162,0.312 -2.55,0.471 -4.162,0.471 -0.956,0 -1.823,-0.034 -2.604,-0.103 -0.779,-0.068 -1.531,-0.179 -2.255,-0.327 -0.726,-0.15 -1.422,-0.351 -2.091,-0.596 -0.671,-0.246 -1.374,-0.547 -2.111,-0.901 l 2.131,-4.838 c 1.012,0.491 2.133,0.875 3.363,1.146 1.229,0.273 2.35,0.41 3.36,0.41 1.121,0 2.017,-0.096 2.687,-0.287 0.67,-0.19 1.004,-0.478 1.004,-0.86 0,-0.301 -0.123,-0.56 -0.368,-0.778 -0.246,-0.219 -0.643,-0.382 -1.188,-0.491 -0.273,-0.082 -0.602,-0.164 -0.983,-0.246 -0.381,-0.082 -0.773,-0.171 -1.169,-0.268 -0.396,-0.096 -0.772,-0.19 -1.128,-0.287 -0.355,-0.096 -0.643,-0.185 -0.86,-0.267 -2.187,-0.629 -3.778,-1.455 -4.775,-2.479 -0.998,-1.025 -1.496,-2.316 -1.496,-3.875 0,-1.805 0.737,-3.219 2.213,-4.243 1.477,-1.024 3.471,-1.538 5.986,-1.538 1.395,0 2.788,0.158 4.182,0.473 1.395,0.314 2.897,0.867 4.51,1.66 l -2.131,4.838 c -1.012,-0.547 -2.099,-0.977 -3.26,-1.291 -1.162,-0.313 -2.193,-0.473 -3.097,-0.473 -1.038,0 -1.782,0.082 -2.233,0.246 -0.451,0.164 -0.677,0.438 -0.677,0.82 0,0.19 0.033,0.354 0.103,0.491 0.069,0.138 0.219,0.254 0.451,0.349 0.231,0.097 0.565,0.191 1.004,0.287 0.438,0.097 1.012,0.198 1.723,0.309 2.896,0.603 5.07,1.455 6.521,2.562 1.443,1.107 2.168,2.604 2.168,4.49 z"
       id="path3994"
       style="fill:#ffffff" />
    <path
       d="m 534.80775,170.05475 -3.771,-10.332 h -7.216 v 10.332 h -5.411 v -27.551 h 12.422 c 0.573,0 1.087,0.02 1.538,0.061 0.451,0.041 0.874,0.104 1.271,0.186 0.397,0.082 0.772,0.197 1.128,0.349 0.354,0.15 0.725,0.335 1.106,0.554 1.34,0.766 2.393,1.805 3.158,3.116 0.764,1.312 1.146,2.746 1.146,4.306 0,1.504 -0.343,2.896 -1.024,4.182 -0.684,1.285 -1.653,2.338 -2.911,3.157 l 4.347,11.644 h -5.782 v -0.004 z m 0,-18.982 c 0,-0.875 -0.328,-1.604 -0.982,-2.192 -0.656,-0.588 -1.49,-0.882 -2.503,-0.882 h -7.502 v 6.23 h 7.502 c 1.013,0 1.847,-0.286 2.503,-0.859 0.654,-0.576 0.982,-1.34 0.982,-2.297 z"
       id="path3996"
       style="fill:#ffffff" />
    <path
       d="m 564.20375,160.05075 c 0,1.449 -0.262,2.803 -0.778,4.06 -0.521,1.258 -1.217,2.357 -2.092,3.301 -0.875,0.942 -1.879,1.682 -3.015,2.215 -1.135,0.533 -2.315,0.799 -3.547,0.799 -1.257,0 -2.444,-0.266 -3.565,-0.799 -1.121,-0.533 -2.105,-1.271 -2.951,-2.215 -0.848,-0.942 -1.518,-2.043 -2.01,-3.301 -0.492,-1.257 -0.738,-2.609 -0.738,-4.06 0,-1.502 0.239,-2.896 0.718,-4.182 0.479,-1.284 1.134,-2.398 1.968,-3.343 0.835,-0.943 1.812,-1.681 2.933,-2.214 1.121,-0.532 2.337,-0.8 3.647,-0.8 1.203,0 2.371,0.273 3.507,0.82 1.135,0.547 2.139,1.299 3.014,2.256 0.875,0.957 1.578,2.076 2.111,3.361 0.532,1.286 0.798,2.654 0.798,4.102 z m -5.576,0 c 0,-0.738 -0.109,-1.435 -0.327,-2.091 -0.22,-0.655 -0.507,-1.224 -0.861,-1.701 -0.354,-0.479 -0.766,-0.854 -1.229,-1.128 -0.465,-0.272 -0.943,-0.41 -1.437,-0.41 -0.547,0 -1.045,0.138 -1.496,0.41 -0.45,0.272 -0.848,0.649 -1.188,1.128 -0.343,0.479 -0.608,1.046 -0.8,1.701 -0.191,0.656 -0.287,1.353 -0.287,2.091 0,0.711 0.096,1.381 0.287,2.01 0.19,0.629 0.457,1.176 0.8,1.641 0.341,0.465 0.737,0.834 1.188,1.105 0.451,0.273 0.949,0.41 1.496,0.41 0.492,0 0.972,-0.137 1.437,-0.41 0.465,-0.271 0.875,-0.642 1.229,-1.105 0.354,-0.465 0.643,-1.012 0.861,-1.641 0.218,-0.629 0.327,-1.299 0.327,-2.01 z"
       id="path3998"
       style="fill:#ffffff" />
    <path
       d="m 570.47675,170.05475 v -4.838 l 9.717,-9.799 h -9.143 v -5.412 h 18.122 v 4.428 l -10.127,10.209 h 10.127 v 5.412 h -18.696 z"
       id="path4000"
       style="fill:#ffffff" />
    <path
       d="m 608.36175,170.05475 v -0.655 c -0.958,0.384 -1.887,0.637 -2.789,0.76 -0.901,0.123 -1.735,0.184 -2.5,0.184 -1.12,0 -2.146,-0.164 -3.075,-0.492 -0.931,-0.328 -1.735,-0.792 -2.418,-1.394 -0.685,-0.602 -1.21,-1.318 -1.579,-2.152 -0.368,-0.833 -0.555,-1.743 -0.555,-2.727 0,-1.038 0.213,-1.995 0.637,-2.87 0.423,-0.875 1.005,-1.633 1.742,-2.275 0.737,-0.642 1.611,-1.147 2.623,-1.518 1.013,-0.368 2.105,-0.554 3.28,-0.554 0.574,0 1.284,0.056 2.132,0.164 0.849,0.109 1.683,0.314 2.502,0.615 -0.056,-0.957 -0.409,-1.646 -1.065,-2.07 -0.656,-0.424 -1.49,-0.637 -2.502,-0.637 -1.913,0 -3.812,0.521 -5.698,1.56 l -2.009,-4.347 c 0.738,-0.383 1.428,-0.711 2.07,-0.983 0.642,-0.273 1.271,-0.492 1.886,-0.656 0.615,-0.164 1.224,-0.287 1.825,-0.369 0.601,-0.082 1.241,-0.123 1.926,-0.123 2.762,0 4.914,0.678 6.458,2.029 1.544,1.354 2.316,3.438 2.316,6.254 v 12.258 l -5.207,-0.002 0,0 z m 0,-8.076 c -0.819,-0.301 -1.66,-0.525 -2.521,-0.677 -0.861,-0.149 -1.566,-0.226 -2.112,-0.226 -0.875,0 -1.605,0.212 -2.192,0.636 -0.589,0.424 -0.883,0.95 -0.883,1.578 0,0.63 0.355,1.176 1.066,1.64 0.711,0.466 1.544,0.697 2.501,0.697 0.573,0 1.21,-0.068 1.906,-0.205 0.697,-0.137 1.44,-0.424 2.234,-0.861 v -2.582 l 10e-4,0 z"
       id="path4002"
       style="fill:#ffffff" />
    <path
       d="m 639.60175,164.27475 c 0,0.875 -0.137,1.635 -0.41,2.275 -0.272,0.643 -0.725,1.237 -1.353,1.783 -0.875,0.712 -1.895,1.224 -3.054,1.538 -1.162,0.312 -2.551,0.471 -4.162,0.471 -0.957,0 -1.824,-0.034 -2.604,-0.103 -0.778,-0.068 -1.531,-0.179 -2.255,-0.327 -0.725,-0.15 -1.422,-0.351 -2.091,-0.596 -0.67,-0.246 -1.374,-0.547 -2.111,-0.901 l 2.131,-4.838 c 1.013,0.491 2.134,0.875 3.363,1.146 1.229,0.273 2.35,0.41 3.361,0.41 1.121,0 2.016,-0.096 2.686,-0.287 0.67,-0.19 1.004,-0.478 1.004,-0.86 0,-0.301 -0.123,-0.56 -0.368,-0.778 -0.245,-0.218 -0.643,-0.382 -1.188,-0.491 -0.273,-0.082 -0.602,-0.164 -0.983,-0.246 -0.381,-0.082 -0.772,-0.171 -1.169,-0.268 -0.396,-0.096 -0.771,-0.19 -1.128,-0.287 -0.354,-0.096 -0.643,-0.185 -0.859,-0.267 -2.188,-0.629 -3.779,-1.455 -4.776,-2.479 -0.998,-1.025 -1.496,-2.316 -1.496,-3.875 0,-1.805 0.737,-3.219 2.213,-4.243 1.478,-1.024 3.472,-1.538 5.986,-1.538 1.395,0 2.788,0.158 4.182,0.473 1.396,0.314 2.897,0.867 4.511,1.66 l -2.132,4.838 c -1.012,-0.547 -2.099,-0.977 -3.26,-1.291 -1.162,-0.313 -2.192,-0.473 -3.096,-0.473 -1.039,0 -1.783,0.082 -2.234,0.246 -0.451,0.164 -0.677,0.438 -0.677,0.82 0,0.19 0.034,0.354 0.103,0.491 0.069,0.138 0.22,0.254 0.451,0.349 0.232,0.097 0.566,0.191 1.004,0.287 0.438,0.097 1.013,0.198 1.724,0.309 2.896,0.603 5.069,1.455 6.52,2.562 1.442,1.107 2.167,2.604 2.167,4.49 z"
       id="path4004"
       style="fill:#ffffff" />
  </g>
</svg>
