<?xml version="1.0" encoding="UTF-8" standalone="no"?>
<svg
   xmlns:dc="http://purl.org/dc/elements/1.1/"
   xmlns:cc="http://creativecommons.org/ns#"
   xmlns:rdf="http://www.w3.org/1999/02/22-rdf-syntax-ns#"
   xmlns:svg="http://www.w3.org/2000/svg"
   xmlns="http://www.w3.org/2000/svg"
   xmlns:sodipodi="http://sodipodi.sourceforge.net/DTD/sodipodi-0.dtd"
   xmlns:inkscape="http://www.inkscape.org/namespaces/inkscape"
   version="1.2"
   width="267.21875"
   height="129"
   id="svg2"
   sodipodi:docname="ES_S264.svg"
   inkscape:version="1.0.1 (3bc2e813f5, 2020-09-07)">
  <sodipodi:namedview
     pagecolor="#ffffff"
     bordercolor="#666666"
     borderopacity="1"
     objecttolerance="10"
     gridtolerance="10"
     guidetolerance="10"
     inkscape:pageopacity="0"
     inkscape:pageshadow="2"
     inkscape:window-width="1920"
     inkscape:window-height="1027"
     id="namedview4890"
     showgrid="false"
     inkscape:zoom="4"
     inkscape:cx="145.15653"
     inkscape:cy="45.921899"
     inkscape:window-x="-8"
     inkscape:window-y="-8"
     inkscape:window-maximized="1"
     inkscape:current-layer="layer22" />
  <metadata
     id="metadata5392">
    <rdf:RDF>
      <cc:Work
         rdf:about="">
        <dc:format>image/svg+xml</dc:format>
        <dc:type
           rdf:resource="http://purl.org/dc/dcmitype/StillImage" />
        <dc:title></dc:title>
      </cc:Work>
    </rdf:RDF>
  </metadata>
  <defs
     id="defs5390" />
  <path
     d="m 102.51733,0.0894983 h 58.77526 c 5.07011,0 9.18375,4.1058004 9.18375,9.177871 V 23.036436 c 0,5.070375 -4.11364,9.180131 -9.18375,9.180131 h -58.77526 c -5.072377,0 -9.183756,-4.109756 -9.183756,-9.180131 V 9.2673693 c 0,-5.0720706 4.111945,-9.177871 9.183756,-9.177871 z"
     id="path5336"
     style="fill:#ffffff;stroke-width:0.999999" />
  <path
     d="m 102.51733,0.0894983 h 58.77526 c 5.07011,0 9.18375,4.1058004 9.18375,9.177871 V 23.036436 c 0,5.070375 -4.11364,9.180131 -9.18375,9.180131 h -58.77526 c -5.072377,0 -9.183756,-4.109756 -9.183756,-9.180131 V 9.2673693 c 0,-5.0720706 4.111945,-9.177871 9.183756,-9.177871 z"
     id="path5338"
     style="fill:none;stroke:#1c1d20;stroke-width:0.799998;stroke-miterlimit:3.864" />
  <path
     d="m 167.50855,22.471366 c 0,4.054944 -3.28774,7.341392 -7.34655,7.341392 h -55.94879 c -4.05541,0 -7.346552,-3.286448 -7.911845,-7.341392 V 10.39751 C 96.866658,6.3403054 100.15667,3.0515966 104.21321,3.0515966 H 160.162 c 4.05881,0 7.34655,3.2887088 7.34655,7.3459134 z"
     id="path5340"
     style="fill:none;stroke:#1c1d20;stroke-width:3;stroke-miterlimit:3.864" />
  <path
     d="m 117.27488,18.197174 c -0.37818,1.653396 -1.71906,2.81292 -3.33297,2.916328 -1.8242,0.103973 -3.64727,-0.989438 -4.01245,-2.81179 0.72923,-0.156524 1.35444,-0.469008 2.08423,-0.573546 0.31205,0.832913 1.19843,1.562419 2.13568,1.145397 0.83381,-0.416457 1.04184,-1.353908 0.7298,-2.187387 -0.2086,-0.572981 -0.83438,-1.041424 -1.45846,-0.937451 -0.46919,0.104538 -0.88581,0.313614 -1.09554,0.729505 -0.78123,-0.05199 -1.61335,-0.20851 -2.39571,-0.312483 0.15658,-1.718944 0.46863,-3.489309 0.62578,-5.207688 2.08367,0 4.16734,0 6.25101,0 0,0.676954 0,1.353909 0,2.031428 -1.40645,0.05142 -2.86434,-0.104538 -4.27192,0.05142 0.052,0.312484 -0.15602,0.676954 -0.0531,0.989438 0.83494,-0.312484 1.66762,-0.312484 2.50142,-0.104538 1.82364,0.522125 2.70889,2.449015 2.29227,4.271366 z"
     id="path5372"
     style="fill:#1c1d20;stroke-width:0.999999" />
  <path
     d="m 149.52317,17.311144 c 0.0848,1.200209 0.0526,2.395898 0.0526,3.593847 -0.72866,0 -1.45845,0 -2.18768,0 0,-2.395333 0,-4.739244 0,-7.134577 0.67722,0.05199 1.35388,-0.156525 1.97966,0.104538 0.0526,0 0.0526,0.311919 0.15545,0.208511 1.09498,-0.729506 2.60487,-0.676954 3.43925,0.36447 0.93782,-0.937451 2.39628,-1.197949 3.59357,-0.469008 0.73036,0.469008 1.14698,1.197384 1.14698,2.030862 0.10402,1.614406 0.052,3.281363 0.052,4.895769 -0.72979,0 -1.45902,0 -2.18826,0 -0.0526,-1.562984 0.15603,-3.124274 -0.10401,-4.687258 -0.0526,-0.313049 -0.36461,-0.469008 -0.67779,-0.572981 -0.46806,-0.105103 -0.98926,0.155959 -1.0424,0.572981 -0.26003,1.614406 -0.0514,3.124274 -0.10401,4.687258 -0.72923,0 -1.45846,0 -2.18712,0 -0.0531,-1.562984 0.15545,-3.124274 -0.10571,-4.687258 -0.0514,-0.313049 -0.36462,-0.469008 -0.67553,-0.572981 -0.99039,-0.156525 -1.19842,0.937451 -1.14698,1.665827 z"
     id="path5374"
     style="fill:#1c1d20;stroke-width:0.999999" />
  <g
     id="g5378"
     transform="matrix(0.56529342,0,0,0.56507025,56.37469,-0.1365298)"
     style="stroke-width:1.76934">
    <path
       d="m 146.072,26.363 c -0.369,-2.858 -1.937,-5.622 -4.702,-6.636 -3.317,-1.198 -7.278,-0.184 -8.938,3.042 -2.396,4.792 -1.936,12.165 3.504,14.285 3.039,1.29 6.965,0.347 8.755,-2.673 1.473,-2.489 1.656,-5.253 1.381,-8.018 z m -4.148,3.87 c -0.053,1.017 -0.368,2.027 -1.198,2.673 -1.475,1.105 -3.779,0.922 -4.791,-0.737 -0.371,-0.553 -0.462,-1.197 -0.462,-1.843 -0.186,-1.752 -0.369,-3.595 0.275,-5.253 0.46,-1.198 1.752,-1.751 2.95,-1.751 1.105,-0.091 2.212,0.462 2.765,1.475 0.829,1.658 0.554,3.592 0.461,5.436 z"
       id="path5380"
       style="fill:#1c1d20;stroke-width:1.76934" />
  </g>
  <g
     id="g5384"
     transform="matrix(0.56529342,0,0,0.56507025,56.37469,-0.1365298)"
     style="stroke-width:1.76934">
    <path
       d="m 122.203,19.727 c -3.318,-1.198 -7.282,-0.184 -8.94,3.042 -2.396,4.792 -1.935,12.165 3.502,14.285 2.487,1.013 5.438,0.645 7.465,-1.106 2.028,-1.844 2.633,-4.518 2.765,-7.096 0.183,-3.596 -1.107,-7.742 -4.792,-9.125 z m -0.647,13.179 c -1.475,1.197 -3.778,0.922 -4.792,-0.737 -0.369,-0.553 -0.461,-1.197 -0.461,-1.843 -0.184,-1.752 -0.368,-3.595 0.278,-5.253 0.643,-1.567 2.485,-2.119 3.962,-1.659 1.473,0.461 2.304,2.028 2.211,3.595 -0.119,2.026 0.554,4.422 -1.198,5.897 z"
       id="path5386"
       style="fill:#1c1d20;stroke-width:1.76934" />
  </g>
  <g
     inkscape:groupmode="layer"
     id="layer24"
     inkscape:label="símbols_fletxes 1"
     style="display:inline">
    <rect
       style="display:inline;fill:#ffffff;fill-opacity:1;stroke:#000000;stroke-width:1;stroke-linecap:round;stroke-linejoin:round;stroke-miterlimit:4;stroke-dasharray:none;stroke-opacity:1"
       id="rect6405"
       width="25.25"
       height="24.75"
       x="170.625"
       y="84.375" />
    <rect
       style="display:inline;fill:#ffffff;fill-opacity:1;stroke:#000000;stroke-width:1;stroke-linecap:round;stroke-linejoin:round;stroke-miterlimit:4;stroke-dasharray:none;stroke-opacity:1"
       id="rect6405-0"
       width="25.25"
       height="24.75"
       x="121.625"
       y="83.875" />
    <rect
       style="display:inline;fill:#ffffff;fill-opacity:1;stroke:#000000;stroke-width:1;stroke-linecap:round;stroke-linejoin:round;stroke-miterlimit:4;stroke-dasharray:none;stroke-opacity:1"
       id="rect6405-02"
       width="25.25"
       height="24.75"
       x="73.875"
       y="84.125" />
    <rect
       style="display:inline;fill:#ffffff;fill-opacity:1;stroke:#000000;stroke-width:1;stroke-linecap:round;stroke-linejoin:round;stroke-miterlimit:4;stroke-dasharray:none;stroke-opacity:1"
       id="rect6405-9"
       width="25.25"
       height="24.75"
       x="25.625"
       y="83.875" />
  </g>
  <g
     inkscape:groupmode="layer"
     id="layer19"
     inkscape:label="símbols_fletxes"
     style="display:inline">
    <path
       d="m 248.70207,64.569952 -23.72197,4.856214 9.43079,5.99935 -17.14874,14.855132 5.71681,5.716816 14.86326,-17.146492 6.00002,9.429893 4.85983,-23.710913"
       id="polyline5364"
       style="fill:#1c1d20;stroke-width:0.999999" />
    <path
       d="m 188.93127,102.34002 c 1.31374,1.68222 -0.42623,2.56938 -0.42623,2.56938 -1.37819,1.11488 -2.3895,-0.7086 -2.3895,-0.7086 l -2.65179,-5.178292 c 0,0 -3.34314,5.401492 -3.34314,5.381152 -1.1549,1.94667 -2.6501,0.71086 -2.68967,0.69108 -1.58113,-1.17422 -0.0198,-2.71064 -0.0198,-2.71064 0,0 4.65463,-5.529203 4.65463,-5.546723 0.54777,-0.62892 -0.3047,-0.62892 -0.36631,-0.69108 -2.36745,-0.50574 -3.27927,-1.942713 -3.27927,-1.922371 -1.92313,-2.551857 -1.45733,-4.247068 -1.45733,-4.247068 0.60487,-2.006564 2.41154,-1.379336 2.3895,-1.397419 2.46863,0.647006 3.36067,3.114668 3.38045,3.134445 0.26512,0.567331 0.81289,3.54299 0.81289,3.54299 0,0 0.36236,-0.483135 0.64727,-2.306616 0,0.03729 0.0198,-1.092846 1.29395,-2.61119 0.0221,0 0.52799,-0.891681 1.92539,-1.719509 0,0 0.95195,-0.428323 0.54551,0.404026 -0.0221,0.01752 -1.82194,2.671087 -1.82194,2.671087 0,0 -0.0594,0.119229 0.0616,0.2006 0.0396,0 0.12154,0.06385 0.24307,-0.0373 0.0198,-0.04408 1.90335,-2.672782 1.90335,-2.672782 0,0 0.16111,-0.245241 0.4658,-0.07967 0.24929,0.231679 0.12606,0.492176 0.12606,0.492176 0,0 -1.87678,2.635488 -1.90787,2.666566 -0.0577,0.148049 0.0266,0.205121 0.0396,0.245241 0.11476,0.08815 0.20973,-0.009 0.20973,-0.009 0,0 1.92313,-2.567114 1.93443,-2.591412 0.65348,-0.655482 0.56077,0.381987 0.56077,0.381987 -0.33126,1.591238 -1.00679,2.359733 -1.00057,2.381771 -1.02261,1.699732 -2.00962,2.445624 -2.71849,2.747937 -0.0198,0.01752 -0.54551,0.09945 -0.83042,0.647001 -0.0418,0 -0.54551,0.84761 -0.54551,0.84761 0,0 4.23405,5.444443 4.25384,5.424663"
       id="path5362"
       style="fill:#1c1d20;stroke-width:0.999999" />
    <path
       d="m 91.539432,87.606731 c 0.28943,0 0.27134,0.24072 0.27134,0.24072 0,0 -0.0198,1.580501 0,1.580501 0,0.2006 -0.19898,0.2006 -0.19898,0.2006 h -1.67836 v 0.821047 c 0,0 1.58791,0.01752 1.56756,0 0.34426,0 0.30922,0.309093 0.30922,0.309093 0,0 0,0.949318 0,0.929541 0,0.346388 -0.32674,0.328871 -0.32674,0.328871 0,0 -0.40193,0.0356 -0.40193,0 -1.27643,0 -1.14811,1.220552 -1.14811,1.220552 v 2.531514 l 0.58282,0.580328 c 0,0 0,8.164692 0,8.142662 0,0.29383 -0.50763,0.29383 -0.50763,0.29383 -0.38666,0 -0.56982,0.2362 -0.55003,0.2362 0,0.27576 -0.52799,0.32661 -0.52799,0.32661 0,0 -0.53024,-0.0509 -0.53024,-0.32661 0.0198,0 -0.16337,-0.2362 -0.54325,-0.2362 0,0 -0.51216,0 -0.51216,-0.29383 0,0.022 0,-8.142662 0,-8.142662 l 0.58056,-0.580328 v -2.531514 c 0,0 -0.0882,-1.220552 -1.49068,-1.220552 h -2.42454 c 0,0 -0.14585,0 -0.14585,-0.198905 0,0 0,-1.220552 0,-1.205295 0,-0.183082 0.16563,-0.163305 0.16563,-0.163305 -0.0198,0.01752 3.89544,0 3.89544,0 v -0.821047 h -3.93275 c 0,0 -0.14584,0 -0.14584,-0.145788 -0.0175,-0.01752 0,-1.070808 0,-1.070808 0,0 0,-0.167826 0.16337,-0.167826 h 2.07802 l 0.63595,-0.637964 c 0.001,5.65e-4 4.79708,-0.01526 4.81517,5.65e-4"
       id="path5346"
       style="fill:#1c1d20;stroke-width:0.999999" />
    <g
       id="g5645"
       transform="translate(102.25391,-5.130223)">
      <path
         d="m 37.945658,97.989327 c 0.457323,0 0.825894,0.368426 0.825894,0.827828 v 1.858515 H 28.644886 v -2.686343 h 9.300772"
         id="path5356"
         style="fill:#1c1d20;stroke-width:0.999999" />
      <path
         d="m 24.307955,101.08591 h 14.876261 v -2.26932 c 0,-0.459402 0.370833,-0.827828 0.825894,-0.827828 0.457322,0 0.828155,0.368426 0.828155,0.827828 v 6.6085 h -1.654049 v -2.47897 H 24.307955 v 2.47897 h -1.654049 v -8.264156 c 0,-0.454881 0.370833,-0.825567 0.828155,-0.825567 0.455061,0 0.825894,0.370686 0.825894,0.825567 v 3.924976"
         id="path5358"
         style="fill:#1c1d20;stroke-width:0.999999" />
      <path
         d="m 24.72288,100.67567 v -1.653394 c 0,0 0.101753,-1.032949 1.75354,-1.032949 1.654049,0 1.757497,1.032949 1.757497,1.032949 v 1.653394 H 24.72288"
         id="path5360"
         style="fill:#1c1d20;stroke-width:0.999999" />
    </g>
    <g
       id="g6376"
       transform="matrix(0.47644603,0,0,0.47644603,10.829632,45.797741)"
       style="stroke-width:2.09888">
      <path
         d="m 51.841,91.65 c -1.16,0 -1.094,1.102 -1.094,1.102 v 1.926 h -2 c -1.031,0 -0.965,0.969 -0.965,0.969 v 12.09 l 0.836,1.387 1.227,0.898 1.027,10.902 h -9.52 v 2.191 h 33.23 v -2.191 H 64.33 l 1.031,-10.902 1.227,-0.898 0.84,-1.16 V 95.646 c 0,0 0.063,-0.969 -0.969,-0.969 h -2 v -1.926 c 0,0 0.063,-1.102 -1.098,-1.102 0,-0.066 -11.52,-0.066 -11.52,0.001"
         id="path5348"
         style="fill:#1c1d20;stroke-width:2.09888" />
      <path
         d="M 50.681,101.615 H 64.525002"
         id="line5350"
         style="fill:none;stroke:#ffffff;stroke-width:4.43282;stroke-miterlimit:3.864" />
      <path
         d="m 47.923,107.447 -3.484,8.898 c 0,0 -1.512,2.832 -4.027,1.641 0,0.035 -2.613,-0.836 -1.613,-3.965 -0.031,-0.031 3.48,-9.445 3.48,-9.445 v -1.934 l 1.934,-5.191 h 0.711 c 0,0 0.965,-3.379 2.547,-3.258 0.031,-0.027 0.645,0.102 0.164,0.457 0,-0.066 -2.066,1.027 -1.777,2.965 -0.035,0 1.098,1.805 1.098,1.805 v 0.449 h 1.09 l -0.123,7.578"
         id="path5352"
         style="fill:#1c1d20;stroke-width:2.09888" />
      <path
         d="m 45.15,102.611 -0.547,1.129 -0.68,0.516 -3.707,10.219 c 0,0 -0.551,1.645 0.711,2.16 -0.066,0.027 1.418,0.68 2.063,-0.902 -0.063,0 4.48,-11.734 4.48,-11.734 0,0 -0.613,-0.578 -0.516,-1.418 0.031,0 -0.715,0 -0.715,0 0,0 -0.992,0.609 -0.93,3.93 0.031,-0.031 -0.547,0 -0.547,0 0,0 0.031,-3.027 0.84,-3.898 H 45.15"
         id="path5354"
         style="fill:#ffffff;fill-rule:evenodd;stroke-width:2.09888" />
    </g>
  </g>
  <g
     inkscape:groupmode="layer"
     id="layer21"
     inkscape:label="lletres"
     style="display:inline;opacity:1"
     sodipodi:insensitive="true">
    <path
       d="M 23.127378,35.491428 H 241.98487 c 10.90751,0 19.75553,4.933063 19.75553,11.016609 v 67.861543 c 0,6.08129 -8.84802,11.01435 -18.74202,11.01435 H 24.140898 c -11.929132,0 -20.7731075,-4.93306 -20.7731075,-11.01435 V 46.508602 c 0,-6.083546 8.8439755,-11.017174 19.7595875,-11.017174 z"
       id="path5366"
       style="fill:none;stroke:#1c1d20;stroke-width:4;stroke-miterlimit:3.864" />
    <path
       d="M 23.066473,32.52707 H 243.23201 c 12.51509,0 22.66248,5.752415 22.66248,12.850828 v 70.686892 c 0,7.09446 -10.14838,12.84631 -22.66248,12.84631 H 23.066473 C 10.547397,128.9111 0.4,123.15869 0.4,116.06479 V 45.378463 C 0.4,38.279485 10.547397,32.52707 23.066473,32.52707 Z"
       id="path5344"
       style="fill:none;stroke:#1c1d20;stroke-width:0.799998;stroke-miterlimit:3.864" />
    <text
       xml:space="preserve"
       style="font-size:21.3333px;line-height:12.5px;font-family:Ccrige;-inkscape-font-specification:Ccrige;letter-spacing:2px;word-spacing:0px;fill:none;stroke:#000000;stroke-width:1px;stroke-linecap:butt;stroke-linejoin:miter;stroke-opacity:1"
       x="20.152548"
       y="71.417786"
       id="text5594"><tspan
         sodipodi:role="line"
         id="tspan5592"
         x="20.152548"
         y="71.417786"
         style="font-size:21.3333px;fill:#1c1d20;fill-opacity:1;stroke:none">via de servicio</tspan></text>
  </g>
  <g
     inkscape:groupmode="layer"
     id="layer22"
     inkscape:label="accent"
     style="display:inline"
     sodipodi:insensitive="true">
    <rect
       style="fill:#ffffff;fill-opacity:1;stroke:none;stroke-width:3;stroke-linecap:round;stroke-linejoin:round"
       id="rect5597"
       width="6.4523492"
       height="6.6291261"
       x="34.825008"
       y="53.563339" />
    <text
       xml:space="preserve"
       style="font-size:28.6937px;line-height:16.8127px;font-family:'Andale Mono IPA';-inkscape-font-specification:'Andale Mono IPA';letter-spacing:0px;word-spacing:0px;fill:none;stroke:#000000;stroke-width:0.999998px;stroke-linecap:butt;stroke-linejoin:miter;stroke-opacity:1"
       x="33.279896"
       y="76.520081"
       id="text5601"
       transform="scale(1.0087862,0.99129035)"><tspan
         sodipodi:role="line"
         id="tspan5599"
         x="33.279896"
         y="76.520081"
         style="font-style:normal;font-variant:normal;font-weight:normal;font-stretch:normal;font-family:Arial;-inkscape-font-specification:Arial;fill:#000000;fill-opacity:1;stroke:none;stroke-width:0.999998px">´</tspan></text>
  </g>
</svg>
