<?xml version="1.0" encoding="UTF-8" standalone="no"?>
<svg
   xmlns:dc="http://purl.org/dc/elements/1.1/"
   xmlns:cc="http://creativecommons.org/ns#"
   xmlns:rdf="http://www.w3.org/1999/02/22-rdf-syntax-ns#"
   xmlns:svg="http://www.w3.org/2000/svg"
   xmlns="http://www.w3.org/2000/svg"
   xmlns:sodipodi="http://sodipodi.sourceforge.net/DTD/sodipodi-0.dtd"
   xmlns:inkscape="http://www.inkscape.org/namespaces/inkscape"
   width="1086"
   height="458"
   id="svg3272"
   version="1.1"
   inkscape:version="1.0.1 (3bc2e813f5, 2020-09-07)"
   sodipodi:docname="ES_S410.svg">
  <defs
     id="defs3274" />
  <sodipodi:namedview
     id="base"
     pagecolor="#ffffff"
     bordercolor="#666666"
     borderopacity="1.0"
     inkscape:pageopacity="0.0"
     inkscape:pageshadow="2"
     inkscape:zoom="0.35"
     inkscape:cx="211.57146"
     inkscape:cy="440.42857"
     inkscape:document-units="px"
     inkscape:current-layer="E-80"
     showgrid="false"
     fit-margin-top="0"
     fit-margin-left="0"
     fit-margin-right="0"
     fit-margin-bottom="0"
     inkscape:window-width="1920"
     inkscape:window-height="1027"
     inkscape:window-x="-8"
     inkscape:window-y="-8"
     inkscape:window-maximized="1"
     inkscape:document-rotation="0" />
  <metadata
     id="metadata3277">
    <rdf:RDF>
      <cc:Work
         rdf:about="">
        <dc:format>image/svg+xml</dc:format>
        <dc:type
           rdf:resource="http://purl.org/dc/dcmitype/StillImage" />
        <dc:title></dc:title>
      </cc:Work>
    </rdf:RDF>
  </metadata>
  <g
     inkscape:label="Capa 1"
     inkscape:groupmode="layer"
     id="layer1"
     transform="translate(234.4286,-514.79075)"
     style="display:inline">
    <g
       id="E-80"
       transform="translate(642.68537,623.82607)"
       inkscape:label="E-80"
       style="display:inline">
      <path
         style="fill:#ffffff;fill-opacity:1"
         d="m -877.11397,119.96468 v -229 H 208.88608 v 229 229 H -877.11397 Z"
         id="path2390-0"
         sodipodi:nodetypes="ccccccc"
         inkscape:connector-curvature="0" />
      <path
         sodipodi:nodetypes="ccccccccccsscccsccccccccsssccccssscccccsssscccc"
         id="path2384-0"
         d="m -877.11397,119.96468 v -229 h 543 543.00005 v 229 229 h -543.00005 -543 z m 1003.5,216.1822 c 10.3419,-2.9964 25.03,-9.9577 32.9793,-15.6302 17.09135,-12.1962 30.45105,-33.6139 34.97285,-56.0677 1.4396,-7.1491 1.5786,-22.5756 1.3279,-147.4843 l -0.28,-139.500001 -2.7568,-8.7883 c -6.6607,-21.2342 -18.9214,-38.5811 -35.06505,-49.6119 -7.373,-5.0378 -22.5963,-11.9094 -31.8581,-14.3802 l -8.3201,-2.2196 h -452 -451.99999 l -8.85322,2.7756 c -32.91302,10.3184 -53.31175,30.2239 -64.27859,62.7244 l -2.8682,8.5 -0.30988,139.000001 c -0.22475,100.8121 0.004,141.012 0.83451,146.3233 1.94992,12.4782 7.88238,27.2756 15.30554,38.1767 12.23128,17.962 34.05967,31.9835 57.66984,37.0441 8.1589,1.7488 26.53839,1.8145 457.99999,1.6389 l 449.5,-0.183 z m -901.99999,-18.2033 c -36.58214,-3.9811 -61.98564,-28.4485 -66.44273,-63.9944 -1.44129,-11.4946 -1.45621,-255.355401 -0.0163,-266.838701 2.14855,-17.135 8.08154,-30.0362 19.26237,-41.8857 9.61743,-10.1926 20.98032,-16.5774 36.59985,-20.5652 l 8.59683,-2.1949 h 443.99999 444 l 8.5968,2.1949 c 10.97518,2.8021 18.57148,6.1786 26.27388,11.6785 17.44265,12.4549 27.25765,29.7645 29.68025,52.3438 0.6963,6.4892 0.9331,53.2138 0.7034,138.782801 -0.3166,117.9523 -0.4928,129.5423 -2.0579,135.3323 -7.5048,27.7636 -25.72865,45.7435 -54.19643,53.4708 l -8,2.1715 -440,0.133 c -242,0.073 -443.14999,-0.2097 -446.99999,-0.6287 z"
         style="fill:#000080;fill-opacity:1"
         inkscape:connector-curvature="0" />
    </g>
  </g>
  <g
     inkscape:groupmode="layer"
     id="layer2"
     inkscape:label="Capa 2">
    <text
       xml:space="preserve"
       style="font-size:379.886px;line-height:222.59px;font-family:'Andale Mono IPA';-inkscape-font-specification:'Andale Mono IPA';letter-spacing:0px;word-spacing:0px;fill:none;stroke:#000000;stroke-width:0.999996px;stroke-linecap:butt;stroke-linejoin:miter;stroke-opacity:1"
       x="125.65385"
       y="348.03577"
       id="text850"
       transform="scale(0.98997863,1.0101228)"><tspan
         sodipodi:role="line"
         id="tspan848"
         x="125.65385"
         y="348.03577"
         style="font-style:normal;font-variant:normal;font-weight:bold;font-stretch:normal;font-family:'Highway Gothic Wide';-inkscape-font-specification:'Highway Gothic Wide Bold';fill:#ffffff;stroke:none;stroke-width:0.999996px">A-62</tspan></text>
  </g>
</svg>
