<?xml version="1.0" encoding="UTF-8" standalone="no"?>
<!-- Created with Inkscape (http://www.inkscape.org/) -->

<svg
   xmlns:dc="http://purl.org/dc/elements/1.1/"
   xmlns:cc="http://creativecommons.org/ns#"
   xmlns:rdf="http://www.w3.org/1999/02/22-rdf-syntax-ns#"
   xmlns:svg="http://www.w3.org/2000/svg"
   xmlns="http://www.w3.org/2000/svg"
   version="1.2"
   width="484.3125"
   height="349.65625"
   id="svg2">
  <metadata
     id="metadata3453">
    <rdf:RDF>
      <cc:Work
         rdf:about="">
        <dc:format>image/svg+xml</dc:format>
        <dc:type
           rdf:resource="http://purl.org/dc/dcmitype/StillImage" />
        <dc:title></dc:title>
      </cc:Work>
    </rdf:RDF>
  </metadata>
  <defs
     id="defs3451" />
  <g
     id="g3505">
    <path
       d="m 484.246,319.55675 c 0,16.4 -13.685,30.029 -30.084,30.029 H 30.097 c -16.342,0 -30.026,-13.629 -30.026,-30.029 v -289.464 c 0,-16.4 13.685,-30.027 30.026,-30.027 h 424.065 c 16.399,0 30.084,13.627 30.084,30.027 v 289.464"
       id="path3363"
       style="fill:#ffffff;fill-rule:evenodd" />
    <path
       d="m 0.071,319.55675 c 0,16.4 13.684,30.029 30.084,30.029 H 454.22 c 16.342,0 30.026,-13.629 30.026,-30.029 v -289.464 c 0,-16.4 -13.685,-30.027 -30.026,-30.027 H 30.155 c -16.4,0 -30.084,13.627 -30.084,30.027 v 289.464"
       id="path3365"
       style="fill:none;stroke:#1d2d28;stroke-width:0.1322;stroke-miterlimit:2.61299992" />
    <path
       d="m 475.253,150.97775 h 5.997 -5.997 c 0,11.426 -9.612,20.981 -21.091,20.981 H 30.097 c -11.42,0 -21.037,-9.556 -21.037,-20.981 v -120.885 c 0,-11.479 9.617,-21.036 21.037,-21.036 h 424.065 c 11.479,0 21.091,9.558 21.091,21.036 v 120.885 m 5.997,-120.885 c 0,-14.76 -12.328,-27.03 -27.088,-27.03 H 30.097 c -14.701,0 -27.029,12.27 -27.029,27.03 v 120.885 c 0,14.705 12.328,26.979 27.029,26.979 h 424.065 c 14.76,0 27.088,-12.273 27.088,-26.979 v -120.885 z"
       id="path3367"
       style="fill-rule:evenodd" />
    <path
       d="m 133.44901,41.991749 118.81099,0 0,34.722999 -118.81099,0 z"
       id="rect3369"
       style="fill:#ef4137;fill-rule:evenodd" />
    <path
       d="m 414.922,45.956 -29.496,44.272 23.566,-4.873 -2.914,49.199 17.69,0 -2.914,-49.199 23.567,4.873 -29.499,-44.272"
       transform="translate(-0.25,-1.65625)"
       id="polyline3371"
       style="fill-rule:evenodd" />
    <path
       d="m 484.246,180.94975 v 138.606 c 0,16.4 -13.685,30.029 -30.084,30.029 H 30.097 c -16.342,0 -30.026,-13.629 -30.026,-30.029 v -138.606 h 484.175"
       id="path3373"
       style="fill:#2a945f;fill-rule:evenodd" />
    <path
       d="m 0.071,180.94975 v 138.606 c 0,16.4 13.684,30.029 30.084,30.029 H 454.22 c 16.342,0 30.026,-13.629 30.026,-30.029 v -138.606 H 0.071"
       id="path3375"
       style="fill:none;stroke:#ffffff;stroke-width:0.1322;stroke-miterlimit:2.61299992" />
    <path
       d="m 475.253,319.55675 h 5.997 -5.997 c 0,11.479 -9.612,21.036 -21.091,21.036 H 30.097 c -11.42,0 -21.037,-9.557 -21.037,-21.036 v -108.521 c 0,-11.48 9.617,-21.036 21.037,-21.036 h 424.065 c 11.479,0 21.091,9.556 21.091,21.036 v 108.521 m 5.997,-108.521 c 0,-14.76 -12.328,-27.088 -27.088,-27.088 H 30.097 c -14.701,0 -27.029,12.328 -27.029,27.088 v 108.521 c 0,14.762 12.328,27.029 27.029,27.029 h 424.065 c 14.76,0 27.088,-12.268 27.088,-27.029 v -108.521 z"
       id="path3377"
       style="fill:#ffffff;fill-rule:evenodd" />
    <path
       d="m 39.397,236.727 9.104,45.862 11.705,-17.814 28.726,32.516 11.028,-11.027 -32.518,-28.726 17.816,-11.71 -45.861,-9.101"
       transform="translate(-0.25,-1.65625)"
       id="polyline3379"
       style="fill:#ffffff;fill-rule:evenodd" />
    <path
       d="m 0.071,319.55675 c 0,16.4 13.684,30.029 30.084,30.029 H 454.22 c 16.342,0 30.026,-13.629 30.026,-30.029 v -289.464 c 0,-16.4 -13.685,-30.027 -30.026,-30.027 H 30.155 c -16.4,0 -30.084,13.627 -30.084,30.027 v 289.464 z"
       id="path3381"
       style="fill:none;stroke:#1d2d28;stroke-width:0.1322;stroke-miterlimit:2.61299992" />
    <path
       d="m 224.881,216.97176 87.663,0 0,37.188 -87.663,0 z"
       id="rect3383"
       style="fill:none;stroke:#ffffff;stroke-width:2.46440005;stroke-miterlimit:3.86400008" />
    <path
       d="m 322.63599,216.97176 118.87799,0 0,37.188 -118.87799,0 z"
       id="rect3385"
       style="fill:#ef4137" />
    <path
       d="m 290.664,289.64075 c 0.029,0.334 0.052,0.674 0.067,1.021 0.015,0.349 0.022,0.688 0.022,1.022 0,7.076 -2.903,11.992 -8.712,14.746 -2.238,0.814 -4.325,1.225 -6.261,1.225 -3.479,0 -6.595,-1.287 -9.346,-3.857 -3.178,-3.539 -4.766,-7.471 -4.766,-11.797 0,-1.906 0.318,-3.886 0.953,-5.943 2.209,-6.353 6.428,-9.756 12.659,-10.209 8.986,0.06 14.113,4.657 15.384,13.792 z m -22.143,3.312 c 0.182,3.842 1.739,6.549 4.674,8.121 h 0.227 c 0.121,0.062 0.234,0.107 0.34,0.137 0.106,0.03 0.219,0.061 0.341,0.09 l 0.182,0.09 0.952,0.229 c 5.566,-0.032 8.47,-2.888 8.713,-8.577 0.029,-0.271 0.045,-0.537 0.045,-0.793 0,-0.257 0,-0.506 0,-0.748 0,-6.201 -2.844,-9.422 -8.531,-9.664 -4.658,0.906 -6.986,4.143 -6.986,9.709 0,0.242 0,0.477 0,0.703 0,0.226 0.014,0.461 0.043,0.703 z"
       id="path3387"
       style="fill:#ffffff" />
    <path
       d="m 294.973,285.32975 h 5.898 c 0.061,0.152 0.105,0.281 0.137,0.387 0.029,0.104 0.061,0.204 0.09,0.295 l 0.092,0.453 c 0,0.061 0.007,0.105 0.021,0.136 0.016,0.031 0.023,0.062 0.023,0.091 0,0.031 0.015,0.046 0.045,0.046 0.121,0.12 0.196,0.249 0.227,0.384 0.03,0.138 0.047,0.268 0.047,0.388 l 0.271,0.544 0.137,0.454 0.181,0.499 0.091,0.409 c 0.029,0.028 0.045,0.105 0.045,0.226 0.151,0.303 0.271,0.576 0.363,0.817 0.091,0.242 0.166,0.468 0.227,0.681 l 0.455,1.359 c 0.059,0.213 0.119,0.396 0.18,0.545 0.061,0.152 0.107,0.305 0.137,0.453 0.271,0.486 0.438,0.969 0.5,1.453 0.06,0.212 0.105,0.334 0.135,0.362 0.061,0.243 0.106,0.356 0.137,0.341 0.029,-0.015 0.045,0.039 0.045,0.158 0,0.062 0.008,0.1 0.023,0.114 0.015,0.015 0.023,0.039 0.023,0.069 0,0.028 0.014,0.043 0.045,0.043 l 0.135,0.273 v 0.227 c 0,0.061 0.008,0.107 0.023,0.137 0.015,0.031 0.023,0.061 0.023,0.09 0,0.031 0.014,0.045 0.045,0.045 l 0.182,0.184 v 0.181 c 0.061,0.302 0.143,0.574 0.248,0.815 0.107,0.244 0.221,0.471 0.342,0.682 0.029,-0.12 0.06,-0.242 0.09,-0.363 0.029,-0.121 0.076,-0.256 0.137,-0.408 l 0.092,-0.271 0.18,-0.454 0.045,-0.181 0.41,-1.271 0.135,-0.453 0.182,-0.454 0.227,-0.591 c 0.061,-0.18 0.115,-0.34 0.16,-0.475 0.045,-0.137 0.098,-0.234 0.158,-0.295 v -0.229 c 0.061,-0.15 0.121,-0.301 0.182,-0.453 0.061,-0.151 0.105,-0.302 0.137,-0.453 l 0.18,-0.499 0.41,-1.089 0.135,-0.319 0.047,-0.454 0.182,-0.316 0.09,-0.316 0.137,-0.229 c 0.029,-0.059 0.045,-0.12 0.045,-0.18 0,-0.061 0.014,-0.121 0.045,-0.183 l 0.092,-0.363 c 0.059,-0.15 0.104,-0.28 0.135,-0.386 0.031,-0.105 0.061,-0.188 0.091,-0.25 l 0.091,-0.136 0.182,-0.68 c 0.151,-0.333 0.264,-0.628 0.34,-0.886 0.076,-0.256 0.129,-0.491 0.159,-0.703 h 5.081 0.229 0.998 l -0.228,0.591 -0.091,0.499 -0.182,0.317 -0.091,0.182 -0.046,0.272 -0.09,0.317 -0.182,0.452 -0.09,0.273 c -0.062,0.152 -0.107,0.272 -0.137,0.363 -0.031,0.09 -0.061,0.166 -0.092,0.227 l -0.045,0.316 c -0.271,0.486 -0.438,0.938 -0.498,1.361 -0.062,0.153 -0.121,0.304 -0.182,0.455 -0.062,0.15 -0.106,0.303 -0.137,0.455 l -0.09,0.135 -0.047,0.272 -0.271,0.589 c -0.031,0.152 -0.076,0.295 -0.136,0.432 -0.062,0.137 -0.122,0.265 -0.183,0.385 l -0.135,0.501 -0.137,0.589 -0.228,0.59 c -0.241,0.726 -0.468,1.301 -0.68,1.725 -0.062,0.303 -0.13,0.574 -0.204,0.816 -0.076,0.243 -0.176,0.469 -0.295,0.681 l -0.137,0.454 -0.045,0.227 -0.408,1.314 -0.182,0.273 -0.045,0.272 -0.409,1.271 -0.182,0.361 -0.136,0.318 -0.318,1.043 -0.045,0.227 -0.09,0.228 -0.182,0.272 v 0.227 l -0.137,0.318 -0.091,0.271 -0.635,1.815 h -6.67 l -0.181,-0.589 -0.591,-1.727 -0.499,-1.36 -0.09,-0.136 -0.137,-0.726 c -0.031,-0.03 -0.045,-0.092 -0.045,-0.183 0,-0.06 -0.023,-0.097 -0.068,-0.112 -0.045,-0.015 -0.068,-0.053 -0.068,-0.112 -0.121,-0.244 -0.22,-0.477 -0.295,-0.704 -0.076,-0.228 -0.145,-0.446 -0.205,-0.658 l -0.09,-0.454 -0.273,-0.635 c -0.06,-0.151 -0.12,-0.311 -0.18,-0.477 -0.061,-0.167 -0.107,-0.324 -0.137,-0.477 l -0.136,-0.544 c -0.362,-0.665 -0.591,-1.272 -0.681,-1.815 l -0.227,-0.5 -0.137,-0.499 -0.227,-0.68 -0.091,-0.409 c -0.061,-0.12 -0.106,-0.226 -0.136,-0.316 -0.031,-0.091 -0.062,-0.196 -0.092,-0.317 l -0.09,-0.228 c -0.092,-0.029 -0.137,-0.059 -0.137,-0.092 l 0.045,-0.045 -0.498,-1.315 -0.046,-0.452 c -0.242,-0.424 -0.362,-0.802 -0.362,-1.136 l -0.182,-0.228 v -0.182 c -0.03,-0.028 -0.045,-0.09 -0.045,-0.182 0,-0.061 -0.023,-0.096 -0.068,-0.111 -0.047,-0.016 -0.068,-0.053 -0.068,-0.114 l -0.046,-0.271 c -0.212,-0.364 -0.348,-0.667 -0.408,-0.907 v -0.273 l -0.271,-0.544 -0.046,-0.181 v -0.229 l -0.182,-0.181 v -0.182 c -0.121,-0.241 -0.221,-0.484 -0.295,-0.726 -0.076,-0.242 -0.129,-0.47 -0.158,-0.682 h 0.275 z"
       id="path3389"
       style="fill:#ffffff" />
    <path
       d="m 326.732,279.34175 v 0.182 c 0,1.391 -0.499,2.494 -1.496,3.312 -0.576,0.302 -1.256,0.453 -2.043,0.453 -1.391,0 -2.404,-0.74 -3.039,-2.223 -0.122,-0.212 -0.182,-0.651 -0.182,-1.317 0,-1.632 0.893,-2.721 2.677,-3.267 h 0.136 c 2.117,0.001 3.434,0.954 3.947,2.86 z"
       id="path3391"
       style="fill:#ffffff" />
    <path
       d="m 320.586,286.986 1.406,0 1.996,0 2.586,0 0,21.689 -5.988,0 z"
       transform="translate(-0.25,-1.65625)"
       id="polygon3393"
       style="fill:#ffffff" />
    <path
       d="m 351.688,294.22275 0.227,1.045 v 0.543 c 0.029,0.153 0.053,0.281 0.068,0.387 0.015,0.105 0.022,0.189 0.022,0.249 v 1.68 l -0.272,-0.092 h -14.064 c 0.271,2.3 1.466,3.676 3.584,4.13 0.483,0.09 0.953,0.135 1.406,0.135 1.996,0 3.689,-0.693 5.082,-2.086 l 0.59,0.68 c 0.271,0.152 0.469,0.334 0.59,0.545 l 0.136,0.091 0.091,0.182 c 0.271,0.183 0.483,0.349 0.636,0.499 l 0.136,0.272 c 0.12,0.03 0.182,0.075 0.182,0.136 l 0.136,0.091 0.181,0.181 0.092,0.139 0.137,0.088 0.09,0.183 c 0.272,0.182 0.484,0.349 0.635,0.499 -1.996,2.57 -4.582,3.857 -7.758,3.857 -0.848,0 -1.695,-0.09 -2.541,-0.273 -5.354,-0.877 -8.395,-4.129 -9.119,-9.754 -0.031,-0.242 -0.045,-0.492 -0.045,-0.749 0,-0.257 0,-0.507 0,-0.749 0,-6.172 2.918,-9.936 8.756,-11.298 h 0.408 c 6.196,-0.003 9.735,3.127 10.614,9.389 z m -13.93,-0.634 h 8.621 c -0.605,-2.361 -2.059,-3.646 -4.355,-3.858 -2.451,0.363 -3.874,1.649 -4.266,3.858 z"
       id="path3395"
       style="fill:#ffffff" />
    <path
       d="m 372.967,276.71075 h 4.628 v 30.217 h -5.989 v -1.361 c -1.514,1.15 -3.086,1.784 -4.719,1.906 -0.213,0.029 -0.408,0.045 -0.59,0.045 -0.182,0 -0.363,0 -0.545,0 -3.055,0 -5.461,-1.135 -7.213,-3.403 -1.725,-2.479 -2.587,-5.157 -2.587,-8.03 0,-0.393 0.03,-0.861 0.09,-1.407 0.062,-0.542 0.151,-1.163 0.273,-1.859 0.786,-4.022 2.903,-6.64 6.351,-7.85 1.181,-0.364 2.314,-0.546 3.404,-0.546 2.025,0 3.871,0.607 5.535,1.816 v -9.527 h 1.362 z m -10.617,17.015 c -0.212,0.394 -0.317,1.239 -0.317,2.54 0,1.209 0.227,2.329 0.681,3.357 0.785,1.513 1.936,2.359 3.447,2.541 h 0.454 c 1.905,0 3.388,-0.758 4.446,-2.269 0.121,-0.394 0.256,-0.757 0.409,-1.089 v -0.227 l 0.089,-0.363 v -4.628 c -0.756,-2.571 -2.358,-3.858 -4.808,-3.858 h -0.591 c -2.267,0.608 -3.539,1.938 -3.81,3.996 z"
       id="path3397"
       style="fill:#ffffff" />
    <path
       d="m 402.64,290.90975 c 0.06,0.123 0.128,0.236 0.204,0.342 0.075,0.105 0.143,0.234 0.205,0.385 0.362,1.543 0.543,3.01 0.543,4.4 0,2.845 -0.741,5.416 -2.223,7.715 -2.359,2.692 -5.036,4.037 -8.031,4.037 -0.393,0 -0.854,-0.044 -1.385,-0.135 -0.528,-0.09 -1.141,-0.213 -1.836,-0.363 -4.568,-1.543 -7.049,-4.779 -7.441,-9.711 -0.03,-0.21 -0.046,-0.424 -0.046,-0.635 0,-0.211 0,-0.422 0,-0.635 0,-6.744 3.192,-10.707 9.573,-11.889 h 0.137 c 5.082,10e-4 8.515,2.165 10.3,6.489 z m -13.929,5.493 v 0.316 c 0,3.177 1.391,5.068 4.174,5.671 3.145,-0.181 4.719,-2.313 4.719,-6.396 0,-0.184 -0.008,-0.371 -0.022,-0.568 -0.017,-0.197 -0.023,-0.401 -0.023,-0.612 -0.424,-3.356 -2.118,-5.052 -5.081,-5.083 -2.541,1.09 -3.812,2.967 -3.812,5.627 0,0.152 0,0.317 0,0.5 -0.002,0.179 0.014,0.363 0.045,0.545 z"
       id="path3399"
       style="fill:#ffffff" />
    <path
       d="m 233.07,223.82875 h 15.154 v 4.655 H 237.69 v 4.689 h 9.555 v 4.373 h -9.555 v 4.865 c 0.07,0.142 0.187,0.21 0.351,0.21 h 11.129 v 4.655 h -16.273 v -17.499 -5.949 h 0.173 z"
       id="path3401"
       style="fill:#ffffff" />
    <path
       d="m 254.489,235.34375 h 6.929 v 3.534 h -7.279 v -3.534 h 0.35 z"
       id="path3403"
       style="fill:#ffffff" />
    <path
       d="m 265.758,223.79475 h 16.029 v 4.514 l -0.141,0.105 -0.069,0.21 -0.036,0.246 -0.209,0.419 -0.07,0.174 -0.035,0.142 c -0.07,0.162 -0.129,0.303 -0.174,0.42 -0.048,0.116 -0.082,0.232 -0.105,0.349 l -0.21,0.42 -0.175,0.456 -0.491,1.154 -0.069,0.176 -0.07,0.14 -0.069,0.175 -0.351,0.734 -0.035,0.175 -0.314,0.806 -0.211,0.35 -0.104,0.28 c -0.023,0.023 -0.035,0.047 -0.035,0.069 0,0.024 -0.006,0.048 -0.018,0.071 -0.012,0.022 -0.018,0.058 -0.018,0.104 l -0.141,0.28 -0.069,0.175 -0.035,0.14 c -0.069,0.164 -0.128,0.305 -0.175,0.421 -0.047,0.116 -0.082,0.232 -0.105,0.349 l -0.07,0.14 c -0.117,0.235 -0.215,0.444 -0.297,0.631 -0.082,0.188 -0.146,0.362 -0.193,0.524 l -0.209,0.42 -0.174,0.455 -0.071,0.176 -0.069,0.21 -0.351,0.7 -0.104,0.385 -0.141,0.351 -0.175,0.349 -0.14,0.315 -0.176,0.385 -0.174,0.524 c -0.117,0.234 -0.217,0.445 -0.299,0.63 -0.082,0.188 -0.146,0.362 -0.192,0.525 l -0.104,0.21 -0.07,0.246 -0.314,0.735 c -0.047,0.116 -0.1,0.221 -0.158,0.313 -0.058,0.095 -0.111,0.188 -0.156,0.28 v 0.211 l -0.105,0.104 -0.176,0.596 -0.069,0.14 c -0.188,0.281 -0.292,0.525 -0.315,0.735 h -5.249 l 0.069,-0.245 0.245,-0.56 0.069,-0.175 0.105,-0.21 0.07,-0.281 0.07,-0.104 c 0.162,-0.561 0.338,-0.968 0.524,-1.227 l 0.105,-0.385 0.21,-0.42 0.175,-0.419 0.21,-0.42 0.141,-0.456 0.069,-0.175 0.069,-0.104 0.421,-1.119 0.21,-0.281 c 0.186,-0.582 0.361,-1.061 0.524,-1.434 l 0.069,-0.106 c 0.094,-0.232 0.176,-0.442 0.246,-0.629 0.07,-0.187 0.15,-0.339 0.244,-0.455 v -0.211 l 0.491,-1.084 0.069,-0.14 0.42,-1.086 0.176,-0.315 0.14,-0.419 0.175,-0.315 0.105,-0.42 c 0.069,-0.162 0.14,-0.302 0.209,-0.42 0.07,-0.117 0.129,-0.232 0.176,-0.35 v -0.176 l 0.105,-0.104 v -0.175 c 0.162,-0.279 0.268,-0.524 0.314,-0.735 l 0.105,-0.28 0.139,-0.21 0.07,-0.244 0.175,-0.315 0.069,-0.174 0.246,-0.596 0.07,-0.21 0.07,-0.176 0.069,-0.14 0.21,-0.63 0.07,-0.07 c 0.07,-0.162 0.128,-0.303 0.175,-0.42 0.046,-0.116 0.081,-0.232 0.104,-0.35 h -11.164 v -4.374 h 0.423 z"
       id="path3405"
       style="fill:#ffffff" />
    <path
       d="m 304.99,234.46875 c 0,0.163 0.006,0.321 0.018,0.473 0.012,0.152 0.018,0.309 0.018,0.472 0,1.749 -0.223,3.384 -0.664,4.9 -0.444,1.517 -1.086,2.939 -1.926,4.27 l -0.176,0.104 c -0.046,0.071 -0.093,0.105 -0.139,0.105 -0.047,0.117 -0.105,0.21 -0.176,0.279 -0.07,0.071 -0.128,0.128 -0.174,0.175 l -0.105,0.071 c -0.164,0.164 -0.311,0.298 -0.438,0.402 -0.127,0.104 -0.239,0.181 -0.331,0.228 -1.961,1.189 -3.909,1.784 -5.846,1.784 -1.517,0 -2.777,-0.256 -3.779,-0.771 -3.337,-1.47 -5.215,-4.059 -5.635,-7.769 -0.117,-0.677 -0.211,-1.331 -0.28,-1.96 -0.07,-0.631 -0.104,-1.26 -0.104,-1.89 0,-1.75 0.373,-3.815 1.119,-6.195 1.518,-3.85 4.34,-5.82 8.471,-5.913 6.437,0.233 9.821,3.979 10.147,11.235 z m -14.594,-0.7 -0.07,0.175 v 0.35 c -0.023,0.164 -0.041,0.315 -0.053,0.455 -0.012,0.141 -0.018,0.269 -0.018,0.385 0,0.048 0.006,0.095 0.018,0.141 0.012,0.048 0.018,0.095 0.018,0.14 v 0.84 l 0.035,0.14 c 0,0.188 0.006,0.362 0.018,0.526 0.012,0.164 0.029,0.304 0.053,0.42 l 0.035,0.909 -0.035,0.21 0.035,0.176 c 0.023,0.116 0.039,0.215 0.052,0.297 0.012,0.082 0.019,0.146 0.019,0.193 0.046,0.186 0.104,0.355 0.175,0.506 0.069,0.152 0.116,0.311 0.14,0.474 0.047,0.046 0.07,0.082 0.07,0.104 v 0.035 c 0.186,0.35 0.291,0.606 0.314,0.77 0.023,0.024 0.041,0.047 0.053,0.07 0.011,0.023 0.028,0.048 0.053,0.07 0.256,0.442 0.5,0.747 0.734,0.909 l 0.141,0.105 0.104,0.141 0.14,0.069 0.176,0.104 0.07,0.14 c 0.115,0.048 0.244,0.106 0.384,0.175 0.141,0.071 0.269,0.153 0.386,0.245 0.582,0.141 1.155,0.211 1.715,0.211 3.266,0 4.9,-2.555 4.9,-7.664 0,-0.491 -0.019,-1.01 -0.053,-1.558 -0.035,-0.548 -0.076,-1.125 -0.123,-1.733 -0.678,-3.056 -2.404,-4.583 -5.18,-4.583 h -0.281 c -2.683,0.793 -4.023,2.658 -4.023,5.599 v 0.454 z"
       id="path3407"
       style="fill:#ffffff" />
    <path
       d="m 331.379,223.79475 h 5.178 l 0.246,0.419 0.244,0.35 0.245,0.386 0.245,0.35 0.246,0.386 0.175,0.175 0.069,0.21 c 0.046,0.047 0.07,0.082 0.07,0.104 0.279,0.35 0.479,0.654 0.595,0.91 0.303,0.35 0.513,0.653 0.63,0.909 l 0.244,0.315 0.211,0.385 c 0.07,0.094 0.128,0.17 0.175,0.228 0.046,0.06 0.093,0.111 0.14,0.157 l 0.07,0.211 c 0.163,0.164 0.268,0.326 0.316,0.489 0.396,0.42 0.674,0.853 0.839,1.295 l 0.245,0.351 c 0.045,0.048 0.07,0.081 0.07,0.104 v 0.036 c 0.162,0.162 0.298,0.32 0.402,0.473 0.105,0.151 0.203,0.297 0.297,0.437 l 0.209,0.385 0.177,0.315 0.244,0.385 0.28,0.244 0.176,0.316 0.139,0.278 c 0.233,0.281 0.408,0.561 0.525,0.841 l 0.175,0.245 0.14,0.209 0.176,0.176 c 0.094,0.163 0.174,0.304 0.244,0.42 0.071,0.117 0.129,0.234 0.176,0.351 l 0.174,0.176 0.141,0.173 0.035,0.175 0.141,0.071 c 0.115,0.281 0.268,0.513 0.454,0.7 l 0.035,0.175 c 0.047,0.046 0.07,0.082 0.07,0.105 0.187,0.187 0.345,0.385 0.472,0.595 0.129,0.209 0.24,0.408 0.332,0.595 l 0.036,-0.455 v -15.153 h 4.829 v 23.343 h -4.023 0.104 -1.539 l -0.07,-0.104 c -0.188,-0.188 -0.291,-0.35 -0.314,-0.49 -0.07,-0.023 -0.105,-0.059 -0.105,-0.105 l 0.035,-0.035 c -0.373,-0.372 -0.642,-0.758 -0.805,-1.155 -0.047,-0.047 -0.07,-0.08 -0.07,-0.104 l 0.035,-0.036 -0.244,-0.349 c -0.259,-0.234 -0.434,-0.479 -0.525,-0.735 l -0.315,-0.386 -0.211,-0.385 -0.243,-0.456 c -0.281,-0.302 -0.491,-0.582 -0.631,-0.839 l -0.105,-0.14 c -0.094,-0.187 -0.187,-0.351 -0.279,-0.491 -0.094,-0.14 -0.188,-0.268 -0.279,-0.385 l -0.035,-0.104 -0.141,-0.176 -0.561,-0.875 c -0.069,-0.093 -0.129,-0.181 -0.175,-0.262 -0.047,-0.083 -0.093,-0.146 -0.14,-0.193 -0.047,-0.047 -0.069,-0.081 -0.069,-0.104 l 0.034,-0.035 -0.14,-0.069 -0.245,-0.422 -0.07,-0.14 c -0.14,-0.186 -0.234,-0.338 -0.28,-0.454 -0.116,-0.093 -0.187,-0.198 -0.21,-0.315 l -0.244,-0.246 -0.211,-0.385 -0.14,-0.314 -0.104,-0.033 -0.84,-1.262 -0.07,-0.209 -0.141,-0.246 -0.174,-0.175 -0.141,-0.21 -0.069,-0.175 c -0.117,-0.116 -0.217,-0.222 -0.298,-0.314 -0.082,-0.094 -0.146,-0.187 -0.193,-0.28 l -0.14,-0.245 c -0.187,-0.232 -0.292,-0.442 -0.313,-0.63 -0.096,-0.022 -0.141,-0.07 -0.141,-0.141 l -0.141,-0.069 -0.035,-0.14 -0.244,-0.421 -0.596,-0.805 v 15.645 h -4.794 v -3.114 -20.229 h 0.313 z"
       id="path3409"
       style="fill:#ffffff" />
    <path
       d="m 357.977,235.34375 h 6.93 v 3.534 h -7.279 v -3.534 h 0.349 z"
       id="path3411"
       style="fill:#ffffff" />
    <path
       d="m 387.164,228.48475 -0.805,0.245 -0.176,0.141 -0.489,0.139 c -0.233,0.093 -0.456,0.163 -0.665,0.21 -0.023,0.023 -0.082,0.035 -0.176,0.035 -0.022,0 -0.035,0.012 -0.035,0.035 -0.022,0.023 -0.082,0.034 -0.175,0.034 l -0.104,0.14 h -0.176 c -0.188,0.048 -0.273,0.083 -0.262,0.106 0.012,0.024 -0.029,0.035 -0.122,0.035 -0.024,0.022 -0.071,0.034 -0.141,0.034 l -1.015,0.455 c -0.748,-1.586 -1.854,-2.379 -3.325,-2.379 -0.326,0 -0.665,0.034 -1.015,0.104 -2.24,0.607 -3.418,2.264 -3.535,4.97 1.797,-1.165 3.558,-1.749 5.285,-1.749 1.702,0 3.336,0.537 4.899,1.609 1.726,1.727 2.591,3.744 2.591,6.054 0,0.701 -0.071,1.437 -0.211,2.206 -0.467,3.547 -2.299,5.683 -5.494,6.404 -0.468,0.093 -0.928,0.157 -1.383,0.192 -0.455,0.035 -0.893,0.053 -1.312,0.053 -5.647,0 -8.716,-3.616 -9.205,-10.85 0,-0.022 0,-0.105 0,-0.245 0,-0.14 -0.007,-0.297 -0.018,-0.472 -0.013,-0.176 -0.018,-0.332 -0.018,-0.473 0,-0.14 0,-0.222 0,-0.245 0,-7.489 2.881,-11.444 8.646,-11.864 0.139,0 0.285,-0.006 0.437,-0.017 0.151,-0.012 0.298,-0.019 0.437,-0.019 4.155,0.001 6.675,1.705 7.562,5.112 z m -11.795,10.217 v 0.246 c 0,2.263 1.039,3.628 3.115,4.094 0.022,0.023 0.105,0.036 0.246,0.036 0.021,0 0.045,0.012 0.07,0.035 h 0.524 c 1.445,0 2.483,-0.701 3.114,-2.101 0.117,-0.536 0.209,-0.974 0.279,-1.312 0.071,-0.339 0.105,-0.577 0.105,-0.718 0,-1.586 -0.816,-2.776 -2.45,-3.57 h -0.175 c -0.164,-0.092 -0.443,-0.14 -0.84,-0.14 -2.261,0.235 -3.591,1.38 -3.988,3.43 z"
       id="path3413"
       style="fill:#ffffff" />
    <path
       d="m 409.387,228.30875 c 0.117,0.538 0.211,0.993 0.281,1.364 0.07,0.374 0.104,0.666 0.104,0.876 0,0.561 -0.069,1.097 -0.21,1.609 -0.258,1.493 -1.05,2.497 -2.38,3.01 1.913,0.863 2.87,2.347 2.87,4.445 0,0.396 -0.035,0.805 -0.105,1.226 -0.117,2.822 -1.271,4.841 -3.465,6.054 -0.443,0.28 -0.84,0.455 -1.189,0.524 -0.933,0.304 -2.299,0.455 -4.095,0.455 -5.11,0 -8.188,-2.508 -9.239,-7.524 0.046,-0.115 0.116,-0.175 0.21,-0.175 l 0.349,-0.069 h 0.246 c 0.117,-0.023 0.204,-0.041 0.264,-0.053 0.057,-0.012 0.098,-0.019 0.121,-0.019 0.023,-0.022 0.082,-0.034 0.175,-0.034 h 0.175 c 0.373,-0.094 0.723,-0.163 1.051,-0.21 l 0.176,-0.07 h 0.279 c 0.396,-0.093 0.746,-0.162 1.051,-0.209 0.302,-0.047 0.569,-0.071 0.804,-0.071 0.466,2.311 1.772,3.628 3.919,3.955 0.094,0 0.188,0.007 0.28,0.018 0.093,0.013 0.187,0.018 0.281,0.018 2.472,0 3.756,-1.131 3.849,-3.396 -0.116,-1.026 -0.584,-1.771 -1.4,-2.239 h -0.209 l -0.105,-0.07 -0.56,-0.104 h -0.245 l -0.314,-0.071 h -0.666 l -0.14,-0.068 h -1.085 l -1.084,-0.14 v -4.271 h 0.279 c 1.75,0 3.23,-0.326 4.443,-0.98 0.164,-0.232 0.363,-0.408 0.597,-0.523 0.14,-0.444 0.209,-0.864 0.209,-1.261 0,-1.517 -1.038,-2.38 -3.114,-2.589 h -0.385 c -2.73,0 -4.247,1.132 -4.55,3.395 -0.374,0 -0.7,-0.036 -0.981,-0.106 h -0.384 c -0.536,-0.115 -0.979,-0.186 -1.329,-0.21 l -0.246,-0.033 h -0.244 l -0.176,-0.071 h -0.175 l -1.364,-0.175 c 1.189,-4.572 4.105,-6.976 8.75,-7.209 h 0.489 c 4.058,-0.003 6.788,1.665 8.187,5.001 z"
       id="path3415"
       style="fill:#ffffff" />
    <path
       d="m 425.625,223.82875 h 5.916 v 14.979 h 3.01 v 4.305 c -0.023,0.069 -0.082,0.116 -0.176,0.14 h -2.834 v 3.955 h -4.795 v -3.256 -0.699 h -11.094 -1.506 v -1.785 0.035 -0.104 0.069 -0.141 0.071 -0.141 0.069 -0.14 0.07 -0.104 0.034 -0.104 0.07 -0.141 0.07 -0.141 0.07 -0.104 0.034 -0.104 0.069 -0.141 0.071 -0.106 0.035 -0.104 0.069 -0.14 0.07 -0.105 0.035 -0.104 0.069 -0.14 0.07 -0.141 0.07 -0.104 0.034 -0.104 0.07 -0.141 0.07 -0.14 0.069 -0.141 0.071 -0.105 0.034 -0.104 0.069 -0.141 0.071 -0.141 0.069 -0.14 0.07 -0.104 0.034 -0.104 0.07 -0.141 0.07 -0.141 0.07 -0.105 0.035 -0.069 0.034 -0.104 0.07 -0.14 0.069 -0.14 0.07 -0.14 0.069 -0.105 0.036 -0.106 0.07 -0.14 0.069 -0.14 0.07 -0.14 0.069 -0.104 0.035 -0.035 l 0.211,-0.315 0.875,-1.119 0.28,-0.352 0.069,-0.173 0.21,-0.246 0.175,-0.14 0.14,-0.245 0.105,-0.176 0.21,-0.175 c 0.023,-0.022 0.04,-0.046 0.053,-0.069 0.011,-0.023 0.029,-0.047 0.053,-0.071 l 0.139,-0.14 0.035,-0.209 0.176,-0.105 c 0.373,-0.677 0.746,-1.165 1.119,-1.47 l 0.211,-0.455 0.314,-0.315 0.07,-0.14 0.14,-0.14 0.63,-0.875 0.141,-0.141 c 0.371,-0.583 0.746,-1.062 1.12,-1.435 0.231,-0.443 0.478,-0.793 0.733,-1.05 l 0.176,-0.21 0.21,-0.315 c 0.093,-0.115 0.175,-0.222 0.245,-0.315 0.07,-0.092 0.14,-0.197 0.21,-0.314 l 0.561,-0.664 0.14,-0.176 0.525,-0.84 0.105,-0.14 c 0.162,-0.187 0.297,-0.345 0.401,-0.473 0.104,-0.128 0.181,-0.228 0.228,-0.297 0.023,-0.023 0.047,-0.042 0.07,-0.054 0.022,-0.011 0.047,-0.028 0.069,-0.052 l 0.07,-0.211 0.175,-0.068 0.21,-0.456 0.63,-0.805 h 0.245 z m 1.052,5.46 -0.245,0.42 -0.386,0.385 -0.21,0.42 c -0.186,0.14 -0.293,0.257 -0.314,0.351 l -0.245,0.385 c -0.187,0.116 -0.292,0.244 -0.315,0.385 l -0.245,0.279 c -0.117,0.188 -0.215,0.327 -0.297,0.421 -0.081,0.093 -0.146,0.162 -0.192,0.209 l -0.07,0.105 -0.104,0.21 -0.069,0.069 -0.141,0.07 -0.036,0.141 c -0.046,0.069 -0.093,0.104 -0.14,0.104 l -0.07,0.141 -0.068,0.105 -0.105,0.069 -0.42,0.665 -0.105,0.14 -0.454,0.56 -0.177,0.175 -0.209,0.315 -0.141,0.14 c -0.117,0.188 -0.216,0.357 -0.297,0.508 -0.082,0.152 -0.169,0.274 -0.264,0.368 l -0.385,0.386 -0.069,0.173 -0.14,0.175 c -0.023,0.096 -0.07,0.142 -0.14,0.142 l -0.071,0.175 -0.175,0.14 -0.244,0.42 -0.63,0.771 h 7.244 v -7.56 -1.96 h -0.071 0.069 -0.069 z"
       id="path3417"
       style="fill:#ffffff" />
    <path
       d="m 322.63599,216.97176 118.87799,0 0,37.188 -118.87799,0 z"
       id="rect3419"
       style="fill:none;stroke:#ffffff;stroke-width:2.46440005;stroke-miterlimit:3.86400008" />
    <path
       d="m 141.348,47.14175 h 5.425 l 0.256,0.439 0.257,0.367 0.257,0.403 0.256,0.366 0.257,0.403 0.184,0.183 0.073,0.22 c 0.049,0.049 0.074,0.086 0.074,0.11 0.292,0.367 0.5,0.685 0.622,0.953 0.318,0.367 0.537,0.685 0.66,0.953 l 0.256,0.33 0.221,0.402 c 0.073,0.099 0.134,0.178 0.184,0.238 0.048,0.062 0.097,0.116 0.146,0.166 l 0.073,0.22 c 0.171,0.171 0.281,0.342 0.33,0.513 0.415,0.44 0.709,0.892 0.88,1.356 l 0.257,0.366 c 0.048,0.049 0.073,0.086 0.073,0.11 v 0.037 c 0.17,0.171 0.312,0.336 0.422,0.495 0.109,0.159 0.213,0.312 0.312,0.458 l 0.22,0.402 0.183,0.33 0.257,0.404 0.293,0.256 0.184,0.33 0.146,0.293 c 0.244,0.292 0.427,0.586 0.55,0.88 l 0.184,0.256 0.146,0.22 0.183,0.184 c 0.098,0.171 0.184,0.318 0.257,0.44 0.073,0.122 0.134,0.244 0.184,0.366 l 0.184,0.184 0.146,0.183 0.036,0.184 0.146,0.073 c 0.122,0.293 0.28,0.538 0.477,0.733 l 0.037,0.183 c 0.048,0.05 0.073,0.086 0.073,0.11 0.195,0.196 0.359,0.404 0.495,0.624 0.133,0.219 0.249,0.428 0.348,0.623 l 0.037,-0.476 v -15.87 h 5.057 v 24.445 h -4.214 0.109 -1.613 l -0.072,-0.11 c -0.196,-0.195 -0.306,-0.366 -0.33,-0.513 -0.073,-0.024 -0.11,-0.061 -0.11,-0.11 l 0.037,-0.037 c -0.392,-0.39 -0.672,-0.793 -0.843,-1.209 -0.05,-0.048 -0.073,-0.085 -0.073,-0.11 l 0.036,-0.037 -0.257,-0.366 c -0.27,-0.245 -0.451,-0.5 -0.549,-0.77 l -0.33,-0.404 -0.221,-0.403 -0.256,-0.477 c -0.293,-0.317 -0.514,-0.61 -0.66,-0.88 l -0.109,-0.146 c -0.099,-0.195 -0.196,-0.366 -0.293,-0.513 -0.099,-0.147 -0.196,-0.281 -0.294,-0.404 l -0.036,-0.11 -0.147,-0.183 -0.586,-0.916 c -0.073,-0.098 -0.134,-0.19 -0.184,-0.276 -0.049,-0.085 -0.098,-0.152 -0.146,-0.201 -0.049,-0.048 -0.073,-0.085 -0.073,-0.11 l 0.036,-0.037 -0.146,-0.073 -0.257,-0.439 -0.073,-0.146 c -0.146,-0.195 -0.244,-0.354 -0.294,-0.477 -0.122,-0.097 -0.195,-0.207 -0.22,-0.329 l -0.256,-0.257 -0.22,-0.403 -0.147,-0.33 -0.109,-0.037 -0.88,-1.32 -0.073,-0.219 -0.146,-0.257 -0.183,-0.184 -0.147,-0.22 -0.073,-0.182 c -0.122,-0.123 -0.227,-0.233 -0.312,-0.331 -0.086,-0.097 -0.152,-0.195 -0.202,-0.293 l -0.146,-0.256 c -0.196,-0.244 -0.306,-0.464 -0.33,-0.66 -0.098,-0.024 -0.146,-0.073 -0.146,-0.147 l -0.147,-0.073 -0.036,-0.146 -0.256,-0.44 -0.624,-0.843 v 16.382 h -5.021 v -3.261 -21.182 h 0.324 z"
       id="path3421"
       style="fill:#ffffff" />
    <path
       d="m 168.873,59.23675 h 7.257 v 3.702 h -7.624 v -3.702 h 0.367 z"
       id="path3423"
       style="fill:#ffffff" />
    <path
       d="m 199.107,52.05275 -0.843,0.257 -0.183,0.146 -0.514,0.147 c -0.244,0.097 -0.476,0.171 -0.696,0.22 -0.024,0.024 -0.085,0.037 -0.183,0.037 -0.024,0 -0.037,0.012 -0.037,0.037 -0.024,0.024 -0.086,0.037 -0.184,0.037 l -0.109,0.146 h -0.183 c -0.196,0.049 -0.288,0.086 -0.276,0.11 0.013,0.025 -0.03,0.037 -0.128,0.037 -0.023,0.025 -0.073,0.037 -0.146,0.037 l -1.062,0.477 c -0.782,-1.662 -1.943,-2.493 -3.482,-2.493 -0.342,0 -0.695,0.037 -1.062,0.11 -2.346,0.636 -3.579,2.37 -3.702,5.205 1.882,-1.223 3.727,-1.833 5.534,-1.833 1.784,0 3.494,0.562 5.132,1.686 1.808,1.809 2.712,3.921 2.712,6.34 0,0.733 -0.073,1.502 -0.22,2.309 -0.489,3.714 -2.407,5.95 -5.754,6.708 -0.489,0.097 -0.972,0.165 -1.448,0.201 -0.476,0.037 -0.935,0.056 -1.374,0.056 -5.913,0 -9.126,-3.788 -9.639,-11.362 0,-0.024 0,-0.11 0,-0.256 0,-0.146 -0.007,-0.312 -0.02,-0.495 -0.012,-0.183 -0.018,-0.348 -0.018,-0.495 0,-0.146 0,-0.232 0,-0.256 0,-7.844 3.018,-11.985 9.053,-12.425 0.146,0 0.299,-0.005 0.458,-0.018 0.158,-0.013 0.312,-0.019 0.458,-0.019 4.349,-0.002 6.988,1.782 7.916,5.349 z m -12.35,10.702 v 0.257 c 0,2.37 1.087,3.799 3.262,4.288 0.024,0.024 0.11,0.037 0.257,0.037 0.024,0 0.048,0.012 0.073,0.037 h 0.55 c 1.515,0 2.603,-0.733 3.262,-2.199 0.122,-0.562 0.221,-1.02 0.293,-1.375 0.073,-0.354 0.11,-0.605 0.11,-0.751 0,-1.661 -0.855,-2.907 -2.565,-3.738 h -0.184 c -0.171,-0.098 -0.465,-0.146 -0.88,-0.146 -2.371,0.243 -3.763,1.44 -4.178,3.59 z"
       id="path3425"
       style="fill:#ffffff" />
    <path
       d="m 221.281,53.48275 c 0.073,0.635 0.11,1.234 0.11,1.796 0,2.614 -0.819,4.851 -2.456,6.707 -0.049,0.098 -0.098,0.165 -0.146,0.202 -0.048,0.037 -0.086,0.067 -0.109,0.091 l -0.074,0.146 c -0.513,0.636 -0.855,1.002 -1.026,1.1 -0.342,0.439 -0.732,0.758 -1.173,0.953 l -0.036,0.146 c -0.244,0.171 -0.477,0.318 -0.696,0.439 -0.221,0.123 -0.428,0.245 -0.623,0.367 l -0.146,0.22 -0.257,0.11 -0.22,0.146 -0.183,0.11 -0.147,0.146 -0.184,0.074 c -0.049,0.049 -0.097,0.073 -0.146,0.073 l -0.073,0.146 -0.476,0.256 c -0.123,0.073 -0.238,0.146 -0.349,0.22 -0.11,0.074 -0.215,0.135 -0.312,0.184 h 2.089 6.23 v 4.068 c 0,0.195 -0.036,0.379 -0.109,0.55 H 208.748 203.8 v -4.618 l 0.77,-0.513 0.257,-0.147 0.33,-0.146 0.439,-0.293 c 0.098,-0.048 0.184,-0.104 0.257,-0.165 0.073,-0.061 0.158,-0.116 0.257,-0.165 l 0.256,-0.183 0.697,-0.404 0.183,-0.183 0.146,-0.109 0.11,-0.073 c 0.121,-0.073 0.226,-0.141 0.312,-0.202 0.086,-0.06 0.165,-0.116 0.237,-0.165 l 0.147,-0.073 c 0.073,-0.073 0.146,-0.122 0.22,-0.146 0.195,-0.17 0.379,-0.323 0.55,-0.458 0.171,-0.133 0.354,-0.25 0.55,-0.348 l 0.22,-0.184 0.257,-0.146 0.146,-0.146 c 0.098,-0.049 0.195,-0.11 0.293,-0.184 0.098,-0.074 0.195,-0.158 0.294,-0.257 l 0.219,-0.146 0.147,-0.11 0.183,-0.037 0.221,-0.183 0.184,-0.073 0.146,-0.22 0.184,-0.037 0.146,-0.147 0.403,-0.256 c 0.366,-0.366 0.721,-0.647 1.062,-0.843 l 0.11,-0.183 0.257,-0.256 1.209,-1.137 0.074,-0.22 0.329,-0.513 0.44,-0.77 c 0.22,-0.806 0.329,-1.576 0.329,-2.309 v -0.66 c 0,-0.024 -0.007,-0.067 -0.019,-0.128 -0.012,-0.061 -0.031,-0.153 -0.055,-0.275 l -0.66,-1.172 c -0.023,-0.024 -0.043,-0.049 -0.055,-0.073 -0.012,-0.024 -0.031,-0.049 -0.055,-0.073 h -0.147 l -0.108,-0.22 c -0.025,-0.024 -0.05,-0.042 -0.074,-0.055 -0.024,-0.013 -0.049,-0.03 -0.073,-0.056 -0.195,-0.097 -0.36,-0.195 -0.494,-0.292 -0.136,-0.097 -0.264,-0.196 -0.385,-0.293 -0.71,-0.146 -1.345,-0.22 -1.906,-0.22 -2.785,0 -4.179,1.686 -4.179,5.059 v 0.109 h -5.058 v -0.476 c 0,-5.619 2.614,-8.735 7.843,-9.346 0.05,0 0.093,-0.005 0.129,-0.018 0.037,-0.013 0.079,-0.019 0.128,-0.019 0.024,0 0.049,-0.012 0.073,-0.037 h 1.356 c 4.862,-10e-4 7.745,2.248 8.649,6.743 z"
       id="path3427"
       style="fill:#ffffff" />
    <path
       d="m 244.004,51.86975 c 0.123,0.562 0.221,1.039 0.294,1.429 0.073,0.391 0.11,0.696 0.11,0.917 0,0.586 -0.074,1.149 -0.221,1.686 -0.27,1.564 -1.1,2.616 -2.492,3.152 2.003,0.904 3.005,2.456 3.005,4.655 0,0.415 -0.036,0.843 -0.109,1.282 -0.122,2.957 -1.332,5.071 -3.628,6.34 -0.465,0.293 -0.881,0.477 -1.246,0.55 -0.979,0.317 -2.407,0.476 -4.288,0.476 -5.352,0 -8.576,-2.626 -9.676,-7.879 0.049,-0.122 0.121,-0.184 0.22,-0.184 l 0.366,-0.073 h 0.257 c 0.122,-0.024 0.214,-0.042 0.274,-0.055 0.061,-0.012 0.104,-0.019 0.129,-0.019 0.024,-0.024 0.085,-0.037 0.184,-0.037 h 0.183 c 0.391,-0.097 0.757,-0.17 1.1,-0.219 l 0.184,-0.074 h 0.293 c 0.415,-0.097 0.781,-0.171 1.099,-0.22 0.317,-0.049 0.599,-0.074 0.844,-0.074 0.488,2.419 1.856,3.799 4.104,4.141 0.098,0 0.195,0.006 0.294,0.019 0.097,0.012 0.194,0.018 0.292,0.018 2.59,0 3.935,-1.185 4.032,-3.555 -0.123,-1.075 -0.611,-1.857 -1.466,-2.345 h -0.22 l -0.11,-0.074 -0.586,-0.11 h -0.257 l -0.33,-0.073 h -0.696 l -0.146,-0.074 h -1.137 l -1.136,-0.146 v -4.47 h 0.293 c 1.832,0 3.384,-0.342 4.654,-1.026 0.171,-0.243 0.379,-0.427 0.624,-0.549 0.146,-0.463 0.219,-0.904 0.219,-1.32 0,-1.587 -1.087,-2.492 -3.261,-2.712 h -0.404 c -2.858,0 -4.446,1.186 -4.764,3.555 -0.392,0 -0.733,-0.036 -1.026,-0.109 h -0.403 c -0.562,-0.123 -1.026,-0.196 -1.393,-0.22 l -0.257,-0.037 h -0.257 l -0.183,-0.074 h -0.183 l -1.43,-0.183 c 1.246,-4.789 4.3,-7.305 9.162,-7.55 h 0.514 c 4.251,0 7.109,1.747 8.575,5.241 z"
       id="path3429"
       style="fill:#ffffff" />
    <path
       d="m 81.094,106.14575 -0.135,0.181 -0.809,0.629 -0.18,0.18 -0.225,0.271 -0.27,0.136 -0.495,0.494 -0.18,0.225 -0.315,0.18 c -0.09,0.12 -0.18,0.226 -0.27,0.315 -0.09,0.091 -0.165,0.165 -0.226,0.226 l -0.404,0.313 -0.09,0.136 -0.18,0.09 c -0.271,0.36 -0.54,0.615 -0.81,0.764 -2.49,-1.947 -4.979,-2.924 -7.468,-2.924 -0.419,0 -0.854,0.031 -1.303,0.091 -0.451,0.06 -0.931,0.15 -1.44,0.271 -0.18,0.18 -0.376,0.314 -0.585,0.403 -0.33,0.331 -0.6,0.556 -0.81,0.676 l -0.09,0.181 -0.404,0.943 c 0.059,1.08 0.404,1.92 1.035,2.519 l 1.349,0.45 1.26,0.271 c 0.209,0.06 0.397,0.104 0.562,0.135 0.165,0.029 0.322,0.06 0.473,0.09 l 0.315,0.09 0.27,0.089 0.315,0.045 0.359,0.045 0.405,0.181 h 0.225 l 0.675,0.225 0.315,0.09 h 0.271 c 0.118,0.061 0.231,0.099 0.337,0.112 0.104,0.016 0.187,0.038 0.247,0.068 0.03,0.03 0.09,0.045 0.18,0.045 l 0.629,0.181 c 0.119,0.061 0.233,0.105 0.338,0.133 0.104,0.031 0.202,0.062 0.292,0.09 l 0.225,0.091 1.035,0.405 0.179,0.135 c 0.48,0.241 0.885,0.51 1.215,0.81 0.029,0.03 0.06,0.053 0.09,0.068 0.029,0.015 0.061,0.037 0.09,0.067 l 0.135,0.09 c 0.271,0.15 0.45,0.314 0.54,0.494 0.36,0.24 0.629,0.466 0.81,0.676 1.26,1.769 1.889,3.568 1.889,5.396 0,0.241 -0.165,1.186 -0.494,2.836 -1.05,2.938 -2.879,4.857 -5.488,5.756 -3.059,0.78 -5.428,1.17 -7.107,1.17 -5.039,0 -9.357,-1.979 -12.956,-5.937 l 0.271,-0.315 0.315,-0.18 c 0.059,-0.09 0.165,-0.165 0.315,-0.226 0.149,-0.209 0.314,-0.374 0.495,-0.494 0.18,-0.12 0.344,-0.21 0.495,-0.271 0.06,-0.059 0.12,-0.111 0.18,-0.156 0.06,-0.046 0.105,-0.083 0.134,-0.113 l 0.18,-0.226 0.225,-0.179 0.18,-0.136 0.225,-0.18 0.225,-0.09 0.134,-0.226 0.18,-0.09 0.18,-0.135 0.135,-0.091 0.18,-0.044 1.08,-0.945 c 2.759,2.67 5.727,4.004 8.907,4.004 1.409,0 2.309,-0.105 2.699,-0.314 l 0.27,-0.18 0.225,-0.046 0.09,-0.18 1.169,-0.765 c 0.06,-0.149 0.135,-0.315 0.225,-0.494 0.09,-0.18 0.195,-0.39 0.314,-0.631 0,-0.09 0.008,-0.187 0.023,-0.291 0.014,-0.105 0.022,-0.203 0.022,-0.293 0,-1.14 -0.449,-2.07 -1.349,-2.789 l -0.315,-0.09 -0.271,-0.181 -0.315,-0.046 -0.584,-0.135 h -0.271 l -0.315,-0.089 -0.134,-0.089 c -0.241,-0.03 -0.466,-0.075 -0.676,-0.136 -0.209,-0.061 -0.404,-0.12 -0.584,-0.181 h -0.225 l -0.271,-0.09 -0.584,-0.135 c -0.69,-0.09 -1.245,-0.225 -1.665,-0.405 -5.128,-0.688 -7.962,-3.357 -8.501,-8.007 0.12,-5.877 3.599,-9.206 10.436,-9.987 h 0.585 c 5.188,10e-4 9.401,1.652 12.64,4.95 z"
       id="path3431" />
    <path
       d="m 95.894,101.96275 h 7.557 v 0.225 c 0.12,0.239 0.217,0.464 0.292,0.674 0.075,0.21 0.127,0.421 0.157,0.629 l 0.18,0.541 0.09,0.315 c 0.03,0.029 0.045,0.105 0.045,0.224 0.06,0.24 0.105,0.354 0.135,0.338 0.03,-0.016 0.045,0.038 0.045,0.158 0.149,0.24 0.226,0.434 0.226,0.585 l 0.494,1.304 v 0.18 c 0.12,0.24 0.218,0.473 0.293,0.697 0.074,0.226 0.126,0.459 0.157,0.697 0.149,0.33 0.262,0.615 0.337,0.855 0.075,0.24 0.127,0.449 0.158,0.63 0.028,0.06 0.051,0.135 0.067,0.224 0.015,0.09 0.037,0.166 0.067,0.226 l 0.18,0.315 c 0.06,0.15 0.105,0.277 0.135,0.382 0.03,0.105 0.06,0.188 0.09,0.247 v 0.27 c 0.059,0.061 0.09,0.136 0.09,0.226 0.12,0.181 0.194,0.376 0.225,0.585 l 0.449,1.26 0.09,0.314 0.09,0.18 0.135,0.72 0.18,0.315 0.18,0.36 0.045,0.269 0.09,0.315 0.18,0.45 c 0.028,0.119 0.059,0.232 0.089,0.338 0.029,0.105 0.06,0.201 0.09,0.292 v 0.225 c 0.06,0.181 0.113,0.331 0.158,0.45 0.045,0.12 0.097,0.27 0.157,0.449 l 0.496,1.26 0.09,0.451 0.224,0.449 0.18,0.494 v 0.226 l 0.135,0.269 0.09,0.315 0.089,0.36 c 0.21,0.48 0.375,0.915 0.495,1.305 0.12,0.391 0.21,0.749 0.27,1.08 0.061,0.061 0.09,0.135 0.09,0.224 0.419,0.9 0.689,1.681 0.81,2.339 l 0.09,0.226 0.09,0.315 0.09,0.359 0.09,0.225 0.045,0.314 c 0.059,0.15 0.104,0.241 0.135,0.271 0.03,0.029 0.045,0.09 0.045,0.18 0,0.061 0.007,0.098 0.022,0.112 0.015,0.014 0.023,0.038 0.023,0.067 0,0.029 0.014,0.045 0.044,0.045 l 0.136,0.27 v 0.225 c 0,0.061 0.006,0.098 0.022,0.113 0.015,0.016 0.022,0.037 0.022,0.066 0,0.031 0.015,0.046 0.045,0.046 0.149,0.241 0.239,0.449 0.269,0.63 0.06,0.21 0.119,0.389 0.18,0.539 0.06,0.15 0.105,0.286 0.135,0.404 l 0.135,0.496 h -6.837 l -0.135,-0.496 v -0.313 l -0.18,-0.226 v -0.27 c -0.061,-0.119 -0.098,-0.232 -0.112,-0.338 -0.016,-0.104 -0.039,-0.186 -0.067,-0.246 -0.031,-0.03 -0.045,-0.09 -0.045,-0.181 l -0.18,-0.226 v -0.225 l -0.09,-0.359 -0.225,-0.495 -0.541,-1.979 H 93.779 l -0.089,0.359 -0.09,0.405 -0.135,0.315 c -0.031,0.15 -0.061,0.292 -0.09,0.427 -0.031,0.136 -0.076,0.263 -0.135,0.382 l -0.135,0.541 -0.271,0.809 -0.045,0.316 -0.089,0.179 c -0.089,0.331 -0.179,0.556 -0.27,0.676 l -0.225,0.944 h -6.748 l 0.135,-0.629 0.27,-0.811 0.044,-0.27 0.09,-0.18 0.09,-0.227 0.09,-0.18 0.405,-1.26 0.09,-0.225 v -0.225 l 0.09,-0.359 0.18,-0.315 0.224,-0.854 0.18,-0.45 0.136,-0.404 c 0.09,-0.3 0.18,-0.569 0.27,-0.811 0.09,-0.239 0.165,-0.448 0.226,-0.629 l 0.224,-0.675 c 0.06,-0.3 0.135,-0.57 0.225,-0.811 0.09,-0.239 0.165,-0.449 0.225,-0.629 0.059,-0.149 0.112,-0.271 0.157,-0.36 0.045,-0.09 0.082,-0.165 0.113,-0.226 l 0.135,-0.674 0.269,-0.54 0.135,-0.63 0.09,-0.135 c 0.06,-0.3 0.127,-0.562 0.203,-0.787 0.074,-0.225 0.171,-0.441 0.292,-0.652 l 0.09,-0.63 0.674,-1.71 0.135,-0.539 0.089,-0.225 0.09,-0.271 c 0.149,-0.509 0.315,-0.913 0.494,-1.214 l 0.09,-0.494 0.09,-0.226 v -0.27 l 0.09,-0.225 0.54,-1.439 0.09,-0.45 0.179,-0.359 0.135,-0.315 c 0.12,-0.569 0.255,-0.989 0.405,-1.26 l 0.09,-0.405 0.135,-0.403 c 0.059,-0.301 0.135,-0.57 0.225,-0.811 0.089,-0.24 0.164,-0.434 0.224,-0.584 l 0.09,-0.36 0.09,-0.314 c 0.061,-0.151 0.12,-0.293 0.18,-0.429 0.059,-0.134 0.104,-0.262 0.135,-0.383 l 0.271,-0.809 0.044,-0.27 0.629,-1.799 h 0.545 z m 3.374,6.928 -0.226,0.898 -0.089,0.135 -0.405,1.395 -0.404,1.35 -0.09,0.18 -0.495,1.711 -0.09,0.313 -0.494,1.35 -0.135,0.405 c -0.061,0.42 -0.15,0.78 -0.271,1.08 -0.031,0.299 -0.12,0.584 -0.27,0.854 l -0.09,0.315 c -0.09,0.42 -0.196,0.69 -0.314,0.81 l -0.45,1.711 h 7.962 l -0.18,-0.631 -0.495,-1.485 -0.405,-1.349 c -0.09,-0.24 -0.166,-0.473 -0.225,-0.697 -0.061,-0.225 -0.12,-0.412 -0.181,-0.562 l -0.044,-0.135 c -0.061,-0.27 -0.12,-0.488 -0.18,-0.652 -0.061,-0.165 -0.105,-0.277 -0.134,-0.337 l -0.045,-0.271 -0.09,-0.315 -0.18,-0.403 -0.09,-0.496 -0.045,-0.314 -0.18,-0.181 -0.09,-0.494 -0.045,-0.315 c -0.06,-0.09 -0.098,-0.18 -0.112,-0.27 -0.015,-0.09 -0.039,-0.164 -0.068,-0.225 l -0.09,-0.27 c -0.061,-0.181 -0.127,-0.36 -0.202,-0.541 -0.075,-0.18 -0.143,-0.374 -0.202,-0.584 l -0.045,-0.27 -0.045,-0.136 -0.18,-0.675 -0.09,-0.27 -0.404,-0.99 -0.092,0.361 z"
       id="path3433" />
    <path
       d="m 120.004,101.91675 h 6.659 l 0.314,0.54 0.315,0.45 0.315,0.496 0.314,0.449 0.315,0.496 0.225,0.224 0.09,0.27 c 0.059,0.062 0.09,0.106 0.09,0.137 0.359,0.449 0.614,0.84 0.765,1.169 0.39,0.45 0.659,0.841 0.81,1.17 l 0.315,0.405 0.27,0.494 c 0.09,0.121 0.165,0.219 0.225,0.292 0.06,0.075 0.119,0.143 0.179,0.203 l 0.09,0.271 c 0.209,0.209 0.345,0.42 0.405,0.629 0.51,0.54 0.87,1.095 1.079,1.664 l 0.316,0.45 c 0.059,0.06 0.089,0.104 0.089,0.135 v 0.045 c 0.209,0.21 0.382,0.413 0.518,0.607 0.135,0.196 0.261,0.382 0.382,0.562 l 0.27,0.494 0.224,0.405 0.315,0.495 0.361,0.313 0.225,0.406 0.18,0.36 c 0.298,0.358 0.523,0.72 0.674,1.079 l 0.225,0.314 0.18,0.27 0.224,0.226 c 0.12,0.21 0.225,0.39 0.315,0.54 0.09,0.15 0.165,0.301 0.225,0.449 l 0.226,0.226 0.18,0.225 0.044,0.226 0.18,0.089 c 0.15,0.36 0.344,0.66 0.585,0.9 l 0.045,0.224 c 0.059,0.062 0.09,0.105 0.09,0.135 0.24,0.242 0.441,0.496 0.607,0.766 0.164,0.27 0.306,0.525 0.427,0.765 l 0.045,-0.583 v -19.479 h 6.207 v 30.005 h -5.173 0.136 -1.98 l -0.089,-0.136 c -0.241,-0.239 -0.375,-0.449 -0.406,-0.629 -0.089,-0.03 -0.135,-0.075 -0.135,-0.136 l 0.045,-0.045 c -0.48,-0.479 -0.825,-0.975 -1.035,-1.484 -0.06,-0.06 -0.089,-0.104 -0.089,-0.135 l 0.044,-0.045 -0.315,-0.45 c -0.331,-0.3 -0.555,-0.614 -0.675,-0.944 l -0.405,-0.495 -0.27,-0.494 -0.312,-0.588 c -0.361,-0.389 -0.63,-0.75 -0.811,-1.08 l -0.134,-0.18 c -0.121,-0.24 -0.24,-0.449 -0.36,-0.629 -0.121,-0.181 -0.24,-0.346 -0.36,-0.496 l -0.045,-0.135 -0.18,-0.225 -0.719,-1.125 c -0.09,-0.119 -0.165,-0.232 -0.225,-0.338 -0.06,-0.104 -0.12,-0.187 -0.18,-0.247 -0.06,-0.06 -0.09,-0.104 -0.09,-0.135 l 0.045,-0.045 -0.179,-0.091 -0.315,-0.539 -0.09,-0.18 c -0.18,-0.239 -0.3,-0.436 -0.36,-0.586 -0.15,-0.118 -0.24,-0.253 -0.271,-0.404 l -0.314,-0.314 -0.27,-0.494 -0.18,-0.406 -0.135,-0.044 -1.079,-1.62 -0.09,-0.27 -0.18,-0.314 -0.224,-0.226 -0.18,-0.271 -0.09,-0.223 c -0.15,-0.151 -0.277,-0.287 -0.382,-0.406 -0.105,-0.119 -0.188,-0.239 -0.248,-0.36 l -0.179,-0.313 c -0.241,-0.301 -0.376,-0.57 -0.405,-0.811 -0.12,-0.03 -0.18,-0.09 -0.18,-0.181 l -0.18,-0.09 -0.045,-0.179 -0.314,-0.541 -0.766,-1.034 v 20.108 h -6.162 v -4.004 -26.001 h 0.402 z"
       id="path3435" />
    <path
       d="m 152.393,101.91675 h 22.897 v 5.938 h -8.502 v 24.156 h -6.253 v -24.156 h -8.457 v -5.938 h 0.315 z"
       id="path3437" />
    <path
       d="m 188.29,101.96275 h 7.558 v 0.225 c 0.119,0.239 0.218,0.464 0.292,0.674 0.075,0.21 0.127,0.421 0.156,0.629 l 0.181,0.541 0.091,0.315 c 0.028,0.029 0.045,0.105 0.045,0.224 0.06,0.24 0.105,0.354 0.135,0.338 0.03,-0.016 0.045,0.038 0.045,0.158 0.149,0.24 0.226,0.434 0.226,0.585 l 0.493,1.304 v 0.18 c 0.12,0.24 0.219,0.473 0.294,0.697 0.074,0.226 0.127,0.459 0.156,0.697 0.149,0.33 0.263,0.615 0.338,0.855 0.074,0.24 0.127,0.449 0.158,0.63 0.028,0.06 0.052,0.135 0.066,0.224 0.014,0.09 0.038,0.166 0.066,0.226 l 0.181,0.315 c 0.061,0.15 0.105,0.277 0.136,0.382 0.029,0.105 0.061,0.188 0.089,0.247 v 0.27 c 0.061,0.061 0.091,0.136 0.091,0.226 0.12,0.181 0.194,0.376 0.226,0.585 l 0.448,1.26 0.091,0.314 0.09,0.18 0.136,0.72 0.18,0.315 0.18,0.36 0.046,0.269 0.089,0.315 0.181,0.45 c 0.029,0.119 0.06,0.232 0.089,0.338 0.029,0.106 0.061,0.201 0.09,0.292 v 0.225 c 0.061,0.181 0.113,0.331 0.159,0.45 0.044,0.12 0.097,0.27 0.156,0.449 l 0.495,1.26 0.09,0.451 0.225,0.449 0.18,0.494 v 0.226 l 0.136,0.269 0.09,0.315 0.09,0.36 c 0.209,0.48 0.375,0.915 0.494,1.305 0.119,0.391 0.21,0.749 0.27,1.08 0.062,0.061 0.091,0.135 0.091,0.224 0.419,0.9 0.69,1.681 0.81,2.339 l 0.09,0.226 0.091,0.315 0.089,0.359 0.091,0.225 0.045,0.314 c 0.059,0.15 0.104,0.241 0.135,0.271 0.029,0.029 0.046,0.09 0.046,0.18 0,0.061 0.006,0.098 0.021,0.112 0.015,0.015 0.022,0.038 0.022,0.067 0,0.029 0.015,0.045 0.045,0.045 l 0.136,0.27 v 0.225 c 0,0.061 0.006,0.098 0.021,0.113 0.015,0.015 0.023,0.037 0.023,0.066 0,0.031 0.014,0.046 0.045,0.046 0.149,0.241 0.239,0.449 0.269,0.63 0.061,0.21 0.12,0.389 0.181,0.539 0.061,0.15 0.105,0.286 0.135,0.404 l 0.136,0.496 h -6.839 l -0.134,-0.496 v -0.313 l -0.181,-0.226 v -0.27 c -0.061,-0.119 -0.098,-0.232 -0.112,-0.338 -0.015,-0.104 -0.038,-0.186 -0.066,-0.246 -0.031,-0.03 -0.045,-0.09 -0.045,-0.181 l -0.181,-0.226 v -0.225 l -0.089,-0.359 -0.227,-0.495 -0.539,-1.979 H 186.18 l -0.088,0.359 -0.091,0.405 -0.135,0.315 c -0.03,0.15 -0.061,0.292 -0.091,0.427 -0.03,0.136 -0.075,0.263 -0.135,0.382 l -0.135,0.541 -0.271,0.809 -0.045,0.316 -0.09,0.179 c -0.09,0.331 -0.179,0.556 -0.269,0.676 l -0.227,0.944 h -6.746 l 0.134,-0.629 0.271,-0.811 0.043,-0.27 0.09,-0.18 0.091,-0.227 0.09,-0.18 0.405,-1.26 0.09,-0.225 v -0.225 l 0.09,-0.359 0.181,-0.315 0.224,-0.854 0.181,-0.45 0.134,-0.404 c 0.091,-0.3 0.181,-0.569 0.271,-0.811 0.09,-0.239 0.164,-0.448 0.225,-0.629 l 0.225,-0.675 c 0.061,-0.3 0.135,-0.57 0.225,-0.811 0.09,-0.239 0.164,-0.449 0.225,-0.629 0.061,-0.149 0.113,-0.271 0.158,-0.36 0.044,-0.09 0.082,-0.165 0.112,-0.226 l 0.135,-0.674 0.27,-0.54 0.135,-0.63 0.09,-0.135 c 0.061,-0.3 0.128,-0.562 0.204,-0.787 0.073,-0.225 0.172,-0.441 0.292,-0.652 l 0.09,-0.63 0.675,-1.71 0.135,-0.539 0.09,-0.225 0.09,-0.271 c 0.149,-0.509 0.315,-0.913 0.495,-1.214 l 0.09,-0.494 0.089,-0.226 v -0.27 l 0.091,-0.225 0.541,-1.439 0.09,-0.45 0.179,-0.359 0.135,-0.315 c 0.12,-0.569 0.255,-0.989 0.405,-1.26 l 0.09,-0.405 0.136,-0.403 c 0.059,-0.301 0.135,-0.57 0.226,-0.811 0.088,-0.24 0.163,-0.434 0.224,-0.584 l 0.09,-0.36 0.091,-0.314 c 0.06,-0.151 0.119,-0.293 0.179,-0.429 0.06,-0.134 0.104,-0.262 0.136,-0.383 l 0.27,-0.809 0.046,-0.27 0.629,-1.799 h 0.53 z m 3.374,6.928 -0.225,0.898 -0.091,0.135 -0.405,1.395 -0.404,1.35 -0.09,0.18 -0.495,1.711 -0.09,0.313 -0.494,1.35 -0.136,0.405 c -0.061,0.42 -0.149,0.78 -0.27,1.08 -0.03,0.299 -0.12,0.584 -0.271,0.854 l -0.09,0.315 c -0.091,0.42 -0.195,0.69 -0.314,0.81 l -0.45,1.711 h 7.963 l -0.181,-0.631 -0.494,-1.485 -0.405,-1.349 c -0.09,-0.24 -0.166,-0.473 -0.225,-0.697 -0.061,-0.225 -0.12,-0.412 -0.181,-0.562 l -0.045,-0.135 c -0.061,-0.27 -0.12,-0.488 -0.18,-0.652 -0.061,-0.165 -0.105,-0.277 -0.135,-0.337 l -0.044,-0.271 -0.091,-0.315 -0.181,-0.403 -0.09,-0.496 -0.044,-0.314 -0.181,-0.181 -0.091,-0.494 -0.045,-0.315 c -0.06,-0.09 -0.098,-0.18 -0.111,-0.27 -0.016,-0.09 -0.039,-0.164 -0.068,-0.225 l -0.09,-0.27 c -0.061,-0.181 -0.127,-0.36 -0.202,-0.541 -0.074,-0.18 -0.144,-0.374 -0.202,-0.584 l -0.045,-0.27 -0.046,-0.136 -0.179,-0.675 -0.091,-0.27 -0.404,-0.99 -0.087,0.361 z"
       id="path3439" />
    <path
       d="m 212.4,101.91675 h 6.658 l 0.314,0.54 0.314,0.45 0.316,0.496 0.313,0.449 0.315,0.496 0.225,0.224 0.09,0.27 c 0.06,0.062 0.091,0.106 0.091,0.137 0.358,0.449 0.613,0.84 0.764,1.169 0.391,0.45 0.659,0.841 0.81,1.17 l 0.315,0.405 0.27,0.494 c 0.091,0.121 0.166,0.219 0.226,0.292 0.06,0.075 0.118,0.143 0.179,0.203 l 0.09,0.271 c 0.21,0.209 0.346,0.42 0.406,0.629 0.509,0.54 0.869,1.095 1.079,1.664 l 0.315,0.45 c 0.06,0.06 0.09,0.104 0.09,0.135 v 0.045 c 0.208,0.21 0.383,0.413 0.517,0.607 0.136,0.196 0.263,0.382 0.383,0.562 l 0.27,0.494 0.225,0.405 0.315,0.495 0.36,0.313 0.225,0.406 0.181,0.36 c 0.299,0.358 0.523,0.72 0.674,1.079 l 0.226,0.314 0.18,0.27 0.225,0.226 c 0.119,0.21 0.225,0.39 0.315,0.54 0.09,0.15 0.164,0.301 0.225,0.449 l 0.226,0.226 0.18,0.225 0.044,0.226 0.181,0.089 c 0.15,0.36 0.344,0.66 0.585,0.9 l 0.045,0.224 c 0.059,0.062 0.09,0.105 0.09,0.135 0.239,0.242 0.442,0.496 0.607,0.766 0.164,0.27 0.307,0.525 0.427,0.765 l 0.046,-0.583 v -19.479 h 6.207 v 30.005 h -5.173 0.135 -1.979 l -0.09,-0.136 c -0.239,-0.239 -0.375,-0.449 -0.405,-0.629 -0.089,-0.03 -0.134,-0.075 -0.134,-0.136 l 0.045,-0.045 c -0.48,-0.479 -0.826,-0.975 -1.035,-1.484 -0.061,-0.06 -0.091,-0.104 -0.091,-0.135 l 0.046,-0.045 -0.315,-0.45 c -0.33,-0.3 -0.555,-0.614 -0.674,-0.944 l -0.405,-0.495 -0.271,-0.494 -0.318,-0.588 c -0.36,-0.389 -0.63,-0.75 -0.811,-1.08 l -0.134,-0.18 c -0.12,-0.24 -0.24,-0.449 -0.359,-0.629 -0.122,-0.181 -0.241,-0.346 -0.36,-0.496 l -0.045,-0.135 -0.181,-0.225 -0.72,-1.125 c -0.09,-0.119 -0.164,-0.232 -0.225,-0.338 -0.061,-0.104 -0.12,-0.187 -0.181,-0.247 -0.06,-0.06 -0.09,-0.104 -0.09,-0.135 l 0.045,-0.045 -0.179,-0.091 -0.314,-0.539 -0.091,-0.18 c -0.181,-0.239 -0.3,-0.436 -0.36,-0.586 -0.15,-0.118 -0.24,-0.253 -0.271,-0.404 l -0.313,-0.314 -0.271,-0.494 -0.181,-0.406 -0.134,-0.044 -1.081,-1.62 -0.089,-0.27 -0.181,-0.314 -0.224,-0.226 -0.181,-0.271 -0.09,-0.223 c -0.15,-0.151 -0.277,-0.287 -0.382,-0.406 -0.105,-0.119 -0.188,-0.239 -0.248,-0.36 l -0.179,-0.313 c -0.241,-0.301 -0.376,-0.57 -0.405,-0.811 -0.12,-0.03 -0.181,-0.09 -0.181,-0.181 l -0.181,-0.09 -0.044,-0.179 -0.315,-0.541 -0.765,-1.034 v 20.108 h -6.162 v -4.004 -26.001 h 0.408 z"
       id="path3441" />
    <path
       d="m 248.702,101.96275 h 11.741 l 0.226,0.09 h 0.584 l 0.18,0.089 1.306,0.135 c 7.018,2.338 10.526,7.152 10.526,14.439 0,0.48 -0.017,0.967 -0.045,1.462 -0.03,0.494 -0.076,0.997 -0.135,1.507 -1.44,8.367 -6.657,12.551 -15.654,12.551 -0.99,0 -1.996,-0.045 -3.016,-0.135 h -2.158 -3.868 v -30.139 h 0.313 z m 5.803,23.975 h 5.624 l 0.54,-0.088 c 0.239,-0.029 0.473,-0.075 0.697,-0.136 0.224,-0.061 0.412,-0.12 0.562,-0.181 l 0.494,-0.09 c 3.089,-1.648 4.634,-4.229 4.634,-7.736 0,-0.211 0,-0.412 0,-0.607 0,-0.195 -0.016,-0.412 -0.046,-0.652 -0.449,-5.578 -3.179,-8.367 -8.188,-8.367 -0.209,0 -0.427,0 -0.652,0 -0.224,0 -0.457,0.015 -0.695,0.044 h -0.495 -2.476 v 17.813 z"
       id="path3443" />
    <path
       d="m 280.866,101.96275 h 19.477 v 5.982 h -13.54 v 6.028 h 12.28 v 5.623 h -12.28 v 6.254 c 0.09,0.179 0.24,0.269 0.45,0.269 h 14.305 v 5.983 H 280.64 v -22.492 -7.647 h 0.226 z"
       id="path3445" />
    <path
       d="m 310.689,101.91675 h 13.45 c 0.15,0.03 0.276,0.053 0.382,0.067 0.105,0.016 0.203,0.023 0.293,0.023 0.06,0 0.098,-0.007 0.112,-0.023 0.015,-0.015 0.052,-0.022 0.112,-0.022 l 0.99,0.18 0.135,0.045 h 0.225 l 0.136,0.09 1.214,0.404 c 2.399,1.26 4.004,3.014 4.813,5.263 0.359,1.26 0.54,2.444 0.54,3.554 0,3.721 -1.994,6.494 -5.982,8.322 l 0.179,0.09 c 0.12,0.241 0.232,0.473 0.338,0.698 0.104,0.225 0.218,0.411 0.338,0.562 l 0.225,0.448 c 0.119,0.181 0.194,0.331 0.225,0.451 l 0.36,0.494 c 0.149,0.24 0.276,0.458 0.382,0.652 0.105,0.195 0.218,0.398 0.338,0.607 0.299,0.391 0.495,0.766 0.585,1.124 0.148,0.212 0.292,0.405 0.427,0.585 0.136,0.181 0.231,0.346 0.293,0.495 0.18,0.331 0.314,0.601 0.405,0.811 l 0.134,0.224 0.136,0.27 0.27,0.271 0.54,1.033 c 0.18,0.271 0.314,0.496 0.405,0.676 l 0.269,0.404 0.091,0.18 0.09,0.227 c 0.24,0.358 0.441,0.696 0.607,1.011 0.164,0.315 0.308,0.606 0.427,0.878 h -7.152 l -0.089,-0.135 -0.136,-0.181 -0.09,-0.179 -0.54,-0.946 -0.044,-0.179 c -0.271,-0.24 -0.437,-0.541 -0.495,-0.9 -0.331,-0.33 -0.541,-0.675 -0.631,-1.035 -0.149,-0.209 -0.277,-0.404 -0.383,-0.584 -0.104,-0.18 -0.188,-0.36 -0.247,-0.541 l -0.225,-0.27 -0.27,-0.494 -0.135,-0.314 c -0.15,-0.211 -0.293,-0.39 -0.428,-0.54 -0.134,-0.15 -0.232,-0.3 -0.292,-0.45 -0.121,-0.24 -0.226,-0.441 -0.315,-0.607 -0.089,-0.165 -0.165,-0.307 -0.225,-0.428 l -0.09,-0.27 c -0.3,-0.299 -0.511,-0.629 -0.63,-0.99 l -0.18,-0.225 -0.046,-0.27 -0.179,-0.09 -0.181,-0.495 c -0.09,-0.029 -0.135,-0.075 -0.135,-0.135 l 0.045,-0.045 c -0.421,-0.51 -0.72,-0.974 -0.899,-1.396 h -3.959 v 11.697 h -6.162 v -30.095 h 0.629 z m 5.534,12.732 h 7.604 l 0.898,-0.271 c 1.409,-0.811 2.114,-1.919 2.114,-3.329 0,-0.09 -0.007,-0.18 -0.023,-0.27 -0.015,-0.09 -0.021,-0.195 -0.021,-0.315 -0.39,-1.2 -1.079,-2.069 -2.069,-2.608 h -0.18 l -0.181,-0.045 -1.034,-0.27 h -7.107 v 7.108 z"
       id="path3447" />
  </g>
</svg>
