<?xml version="1.0" encoding="UTF-8" standalone="no"?>
<!-- Created with Inkscape (http://www.inkscape.org/) -->

<svg
   xmlns:dc="http://purl.org/dc/elements/1.1/"
   xmlns:cc="http://creativecommons.org/ns#"
   xmlns:rdf="http://www.w3.org/1999/02/22-rdf-syntax-ns#"
   xmlns:svg="http://www.w3.org/2000/svg"
   xmlns="http://www.w3.org/2000/svg"
   version="1.2"
   width="427.4375"
   height="229.375"
   id="svg2">
  <metadata
     id="metadata3117">
    <rdf:RDF>
      <cc:Work
         rdf:about="">
        <dc:format>image/svg+xml</dc:format>
        <dc:type
           rdf:resource="http://purl.org/dc/dcmitype/StillImage" />
        <dc:title></dc:title>
      </cc:Work>
    </rdf:RDF>
  </metadata>
  <defs
     id="defs3115" />
  <g
     id="g3172">
    <path
       d="m 425.934,188.25 c 0,21.875 -17.734,39.613 -39.613,39.613 H 41.113 C 19.234,227.863 1.5,210.125 1.5,188.25 V 41.111 C 1.5,19.227 19.234,1.5 41.113,1.5 H 386.32 c 21.879,0 39.613,17.727 39.613,39.611 V 188.25"
       id="path3073"
       style="fill:#19408b;stroke:#ffffff;stroke-width:3" />
    <path
       d="m 416.746,186.043 c 0,18.188 -14.918,32.938 -33.32,32.938 H 44.675 c -18.403,0 -33.322,-14.751 -33.322,-32.938 V 43.318 c 0,-18.193 14.918,-32.94 33.322,-32.94 h 338.751 c 18.402,0 33.32,14.747 33.32,32.94 v 142.725 z"
       id="path3075"
       style="fill:none;stroke:#ffffff;stroke-width:5;stroke-miterlimit:3.86400008" />
    <path
       d="m 56.145,130.236 h 8.367 l 6.773,24.703 h 0.398 l 6.773,-24.703 h 8.766 l -10.359,38.25 h -9.961 c -0.631,0 -2.889,-7.969 -6.773,-23.906 l -3.984,-14.344 z"
       id="path3079"
       style="fill:#ffffff" />
    <path
       d="m 94.096,129.439 c 3.453,0.432 5.18,2.025 5.18,4.781 0,2.756 -1.727,4.35 -5.18,4.781 -2.922,-0.432 -4.383,-1.893 -4.383,-4.383 v -0.797 c 0.432,-2.921 1.892,-4.382 4.383,-4.382 z m -3.985,11.555 h 8.367 v 27.492 h -8.367 v -27.492 z"
       id="path3081"
       style="fill:#ffffff" />
    <path
       d="m 104.256,129.838 h 8.367 v 29.883 l 1.195,1.195 h 1.594 l 1.992,-0.398 0.797,7.57 h -0.398 l -4.781,0.398 c -5.844,0 -8.766,-2.391 -8.766,-7.172 v -31.476 z"
       id="path3083"
       style="fill:#ffffff" />
    <path
       d="m 120.492,129.838 h 8.367 v 29.883 l 1.195,1.195 h 1.594 l 1.992,-0.398 0.797,7.57 h -0.398 l -4.781,0.398 c -5.844,0 -8.766,-2.391 -8.766,-7.172 v -31.476 z"
       id="path3085"
       style="fill:#ffffff" />
    <path
       d="m 148.184,139.799 c 5.313,0 9.031,1.992 11.156,5.977 l 0.398,3.586 v 11.555 c 0.266,0.797 1.063,1.195 2.391,1.195 -1.162,4.25 -2.092,6.375 -2.789,6.375 -2.64,-0.149 -4.765,-0.946 -6.375,-2.391 -2.606,1.594 -5.13,2.391 -7.57,2.391 -6.641,-0.83 -9.961,-3.752 -9.961,-8.766 v -0.398 c 0,-5.379 5.18,-8.566 15.539,-9.563 v -1.195 c 0,-0.564 -1.195,-1.096 -3.586,-1.594 -2.357,0.183 -4.881,1.245 -7.57,3.188 l -3.586,-5.578 v -0.398 c 3.453,-2.923 7.437,-4.384 11.953,-4.384 z m -4.383,18.726 v 1.195 c 0.681,1.328 1.876,1.992 3.586,1.992 2.656,-0.747 3.984,-1.544 3.984,-2.391 v -2.391 l -0.398,-0.398 v -0.398 c -4.782,0.897 -7.172,1.694 -7.172,2.391 z"
       id="path3087"
       style="fill:#ffffff" />
    <path
       d="m 165.292,129.838 h 8.367 v 29.883 l 1.195,1.195 h 1.594 l 1.992,-0.398 0.797,7.57 h -0.398 l -4.781,0.398 c -5.844,0 -8.766,-2.391 -8.766,-7.172 v -31.476 z"
       id="path3089"
       style="fill:#ffffff" />
    <path
       d="m 181.528,129.838 h 7.969 v 11.555 h 0.398 c 1.743,-1.063 3.735,-1.594 5.977,-1.594 h 0.398 c 7.57,0 11.953,4.914 13.148,14.742 -1.345,9.297 -5.86,13.945 -13.547,13.945 -1.494,0 -3.619,-0.531 -6.375,-1.594 l -0.398,1.195 h -7.57 v -38.249 z m 7.969,24.703 c 0,3.569 1.859,5.694 5.578,6.375 h 0.797 c 2.922,0 4.648,-1.992 5.18,-5.977 v -2.391 c -0.863,-3.453 -2.59,-5.18 -5.18,-5.18 h -1.195 c -2.905,0 -4.632,2.258 -5.18,6.773 v 0.4 z"
       id="path3091"
       style="fill:#ffffff" />
    <path
       d="m 225.057,139.799 c 5.313,0 9.031,1.992 11.156,5.977 l 0.398,3.586 v 11.555 c 0.266,0.797 1.063,1.195 2.391,1.195 -1.162,4.25 -2.092,6.375 -2.789,6.375 -2.639,-0.149 -4.764,-0.946 -6.375,-2.391 -2.605,1.594 -5.129,2.391 -7.57,2.391 -6.641,-0.83 -9.96,-3.752 -9.96,-8.766 v -0.398 c 0,-5.379 5.179,-8.566 15.539,-9.563 v -1.195 c 0,-0.564 -1.195,-1.096 -3.586,-1.594 -2.357,0.183 -4.881,1.245 -7.57,3.188 l -3.585,-5.578 v -0.398 c 3.451,-2.923 7.435,-4.384 11.951,-4.384 z m -4.383,18.726 v 1.195 c 0.682,1.328 1.877,1.992 3.586,1.992 2.656,-0.747 3.984,-1.544 3.984,-2.391 v -2.391 l -0.398,-0.398 v -0.398 c -4.782,0.897 -7.172,1.694 -7.172,2.391 z"
       id="path3093"
       style="fill:#ffffff" />
    <path
       d="m 377.836,69.063 -61.52,12.601 24.457,15.563 -44.464,38.546 14.824,14.813 38.539,-44.459 15.558,24.459 12.606,-61.523"
       id="polyline3095"
       style="fill:#ffffff" />
    <path
       d="m 124.738,58.447 h 8.836 l 10.055,29.25 h -7.617 l -1.219,-4.266 h -10.664 l -1.219,4.266 h -7.313 l 9.141,-29.25 z m 4.266,8.836 -2.742,9.445 h 6.094 v -0.305 c -1.829,-6.093 -2.946,-9.14 -3.352,-9.14 z"
       id="path3099"
       style="fill:#ffffff" />
    <path
       d="m 148.175,71.809 h 10.055 v 5.18 h -10.055 v -5.18 z"
       id="path3103"
       style="fill:#ffffff" />
    <path
       d="m 109.023,49.599998 87.715,0 0,45.271 -87.715,0 z"
       id="rect3105"
       style="fill:none;stroke:#ffffff;stroke-width:2;stroke-miterlimit:3.86400008" />
    <g
       id="g3109">
      <path
         d="m 187.954,72.565 c -0.791,-2.113 -2.284,-3.958 -4.307,-5.01 -3.163,-1.582 -7.209,-1.582 -10.109,0.436 -0.352,-1.934 1.318,-3.779 2.99,-4.479 0.789,-0.267 1.583,-0.355 2.458,-0.267 1.41,0.176 2.466,1.23 2.904,2.464 2.111,-0.707 4.134,-1.673 6.152,-2.464 -0.441,-1.055 -0.879,-2.197 -1.668,-3.076 -2.289,-2.553 -5.716,-3.428 -8.965,-3.252 -3.078,0.176 -6.157,1.227 -8.179,3.955 -2.9,3.955 -2.9,8.705 -2.725,13.275 0.267,4.748 1.847,9.845 6.242,12.394 4.133,2.285 9.582,2.018 13.01,-1.406 3.253,-3.252 3.764,-8.398 2.197,-12.57 z m -7.297,8.084 c -1.227,0.967 -2.898,1.058 -4.307,0.527 -0.965,-0.436 -1.67,-1.315 -2.02,-2.282 -0.614,-2.113 -0.091,-4.748 2.02,-5.718 2.459,-1.051 5.539,0.527 5.715,3.345 0.095,1.495 -0.176,3.074 -1.408,4.128 z"
         id="path3111"
         style="fill:#ffffff" />
    </g>
  </g>
</svg>
