<?xml version="1.0" encoding="UTF-8" standalone="no"?>
<!-- Created with Inkscape (http://www.inkscape.org/) -->

<svg
   xmlns:dc="http://purl.org/dc/elements/1.1/"
   xmlns:cc="http://creativecommons.org/ns#"
   xmlns:rdf="http://www.w3.org/1999/02/22-rdf-syntax-ns#"
   xmlns:svg="http://www.w3.org/2000/svg"
   xmlns="http://www.w3.org/2000/svg"
   xmlns:xlink="http://www.w3.org/1999/xlink"
   version="1.2"
   width="301.3125"
   height="451.875"
   id="svg2">
  <metadata
     id="metadata3123">
    <rdf:RDF>
      <cc:Work
         rdf:about="">
        <dc:format>image/svg+xml</dc:format>
        <dc:type
           rdf:resource="http://purl.org/dc/dcmitype/StillImage" />
        <dc:title></dc:title>
      </cc:Work>
    </rdf:RDF>
  </metadata>
  <defs
     id="defs3121" />
  <g
     transform="translate(-21.40625,-15.21875)"
     id="Capa_1">
    <path
       d="m 322.605,450.254 c 0,9.242 -7.492,16.734 -16.719,16.734 H 38.23 c -9.238,0 -16.727,-7.492 -16.727,-16.734 V 32.059 c 0,-9.242 7.488,-16.73 16.727,-16.73 h 267.656 c 9.227,0 16.719,7.488 16.719,16.73 v 418.195 z"
       id="path3095"
       style="fill:#ffffff" />
    <path
       d="m 322.605,450.254 c 0,9.242 -7.492,16.734 -16.719,16.734 H 38.23 c -9.238,0 -16.727,-7.492 -16.727,-16.734 V 32.059 c 0,-9.242 7.488,-16.73 16.727,-16.73 h 267.656 c 9.227,0 16.719,7.488 16.719,16.73 v 418.195 z"
       id="path3097"
       style="fill:none;stroke:#1c1d20;stroke-width:0.198;stroke-miterlimit:3.86400008" />
    <path
       d="m 315.254,32.059 c 0,-5.168 -4.203,-9.363 -9.367,-9.363 H 38.23 c -5.176,0 -9.367,4.195 -9.367,9.363 v 418.195 c 0,5.18 4.191,9.375 9.367,9.375 h 267.656 c 5.164,0 9.367,-4.195 9.367,-9.375 V 32.059"
       id="path3099"
       style="fill:#19408b" />
    <g
       id="g3101">
      <defs
         id="defs3103">
        <path
           d="m 315.254,32.059 c 0,-5.168 -4.203,-9.363 -9.367,-9.363 H 38.23 c -5.176,0 -9.367,4.195 -9.367,9.363 v 418.195 c 0,5.18 4.191,9.375 9.367,9.375 h 267.656 c 5.164,0 9.367,-4.195 9.367,-9.375 V 32.059"
           id="XMLID_1_" />
      </defs>
      <clipPath
         id="XMLID_3_">
        <use
           id="use3107"
           x="0"
           y="0"
           width="450"
           height="450"
           xlink:href="#XMLID_1_" />
      </clipPath>
      <path
         d="m 225.949,180.082 c 7.93,0 8.891,5.789 8.891,5.789 0,0 12.367,34.402 12.18,34.402 13.906,0.582 12.75,9.086 12.75,9.086 0,0 0.188,18.535 0,18.535 1.156,8.313 -1.555,9.656 -1.555,9.852 -2.508,3.086 1.555,7.344 1.555,7.344 3.656,6.57 -1.555,9.258 -1.555,9.258 0,0 -5.414,1.742 -5.414,1.938 -3.672,0.969 -3.273,3.297 -3.273,3.297 0,0 0,19.898 0,20.078 0,3.297 -2.898,2.906 -2.898,2.906 0,0 -18.938,0.188 -19.125,0 -3.469,0 -3.094,-3.086 -3.094,-3.086 0,0 0,-20.867 0,-21.07 0,-3.094 -3.094,-3.094 -3.094,-3.094 h -97.75 c 0,0 -3.09,0 -3.09,3.094 0,0.203 0,21.07 0,21.07 0,0 0.395,3.086 -3.086,3.086 -0.191,0.188 -19.129,0 -19.129,0 0,0 -2.895,0.391 -2.895,-2.906 0,-0.18 0,-20.078 0,-20.078 0,0 0.383,-2.328 -3.289,-3.297 0,-0.195 -5.398,-1.938 -5.398,-1.938 0,0 -5.219,-2.688 -1.555,-9.258 0,0 4.059,-4.258 1.555,-7.344 0,-0.195 -2.715,-1.539 -1.555,-9.852 -0.191,0 0,-18.535 0,-18.535 0,0 -1.16,-8.504 12.754,-9.086 -0.191,0 12.168,-34.402 12.168,-34.402 0,0 0.969,-5.789 8.887,-5.789 0,-0.191 107.015,-0.191 107.015,0"
         clip-path="url(#XMLID_3_)"
         id="path3109"
         style="fill:#ffffff" />
      <path
         d="m 102.52,247.895 c 0,-5.117 4.145,-9.266 9.27,-9.266 5.121,0 9.273,4.148 9.273,9.266 0,5.109 -4.152,9.266 -9.273,9.266 -5.126,-10e-4 -9.27,-4.157 -9.27,-9.266"
         clip-path="url(#XMLID_3_)"
         id="path3111"
         style="fill:#19408b" />
      <path
         d="m 223.832,247.895 c 0,-5.117 4.148,-9.266 9.266,-9.266 5.133,0 9.281,4.148 9.281,9.266 0,5.109 -4.148,9.266 -9.281,9.266 -5.118,-10e-4 -9.266,-4.157 -9.266,-9.266"
         clip-path="url(#XMLID_3_)"
         id="path3113"
         style="fill:#19408b" />
      <path
         d="m 120.285,187.043 c 0,0 -3.672,-0.762 -5.406,3.672 0,-0.395 -8.113,28.582 -8.113,28.582 0,0 25.305,-2.887 65.871,-2.887 40.57,0 65.492,2.887 65.492,2.887 0,0 -8.109,-28.977 -8.109,-28.582 -1.742,-4.434 -5.414,-3.672 -5.414,-3.672 H 120.285"
         clip-path="url(#XMLID_3_)"
         id="path3115"
         style="fill:#19408b" />
      <path
         d="M 0,460.301 310.426,0 343.723,22.426 33.285,482.754 0,460.301"
         clip-path="url(#XMLID_3_)"
         id="polyline3117"
         style="fill:#e41408" />
    </g>
  </g>
</svg>
