<?xml version="1.0" encoding="UTF-8" standalone="no"?>
<!-- Created with Inkscape (http://www.inkscape.org/) -->

<svg
   xmlns:dc="http://purl.org/dc/elements/1.1/"
   xmlns:cc="http://creativecommons.org/ns#"
   xmlns:rdf="http://www.w3.org/1999/02/22-rdf-syntax-ns#"
   xmlns:svg="http://www.w3.org/2000/svg"
   xmlns="http://www.w3.org/2000/svg"
   version="1.2"
   width="465.25"
   height="225.71875"
   id="svg2">
  <metadata
     id="metadata3181">
    <rdf:RDF>
      <cc:Work
         rdf:about="">
        <dc:format>image/svg+xml</dc:format>
        <dc:type
           rdf:resource="http://purl.org/dc/dcmitype/StillImage" />
        <dc:title></dc:title>
      </cc:Work>
    </rdf:RDF>
  </metadata>
  <defs
     id="defs3179" />
  <g
     id="g3222">
    <path
       d="m 0.11625,199.807 c 0,14.121 11.666,25.793 25.785,25.793 h 413.428 c 14.12,0 25.79,-11.672 25.79,-25.793 V 25.919 c 0,-14.122 -11.67,-25.79 -25.79,-25.79 h -413.428 c -14.119,0 -25.785,11.668 -25.785,25.79 v 173.888"
       id="path3105"
       style="fill:#19408b;fill-rule:evenodd" />
    <path
       d="m 0.11625,199.807 c 0,14.121 11.666,25.793 25.785,25.793 h 413.428 c 14.12,0 25.79,-11.672 25.79,-25.793 V 25.919 c 0,-14.122 -11.67,-25.79 -25.79,-25.79 h -413.428 c -14.119,0 -25.785,11.668 -25.785,25.79 v 173.888"
       id="path3107"
       style="fill:none;stroke:#ffffff;stroke-width:0.25080001;stroke-miterlimit:2.61299992" />
    <path
       d="M 7.85425,51.707 V 25.919 c 0,-9.824 8.105,-18.052 18.047,-18.052 h 114.949 c 9.824,0 18.047,8.228 18.047,18.052 v 25.788 c 0,9.825 -8.223,18.05 -18.047,18.05 h -114.949 c -9.942,0 -18.047,-8.225 -18.047,-18.05 h -5.162 5.162 m -5.162,0 c 0,12.648 10.564,23.212 23.209,23.212 h 114.949 c 12.645,0 23.209,-10.564 23.209,-23.212 V 25.919 c 0,-12.652 -10.564,-23.214 -23.209,-23.214 h -114.949 c -12.645,0 -23.209,10.562 -23.209,23.214 v 25.788 z"
       id="path3109"
       style="fill:#ffffff;fill-rule:evenodd" />
    <path
       d="M 174.24625,51.707 V 25.919 c 0,-9.824 8.232,-18.052 18.057,-18.052 h 247.026 c 9.945,0 18.052,8.228 18.052,18.052 v 25.788 c 0,9.825 -8.106,18.05 -18.052,18.05 h -247.026 c -9.824,0 -18.057,-8.225 -18.057,-18.05 h -5.152 5.152 m -5.152,0 c 0,12.648 10.559,23.212 23.209,23.212 h 247.026 c 12.649,0 23.208,-10.564 23.208,-23.212 V 25.919 c 0,-12.652 -10.559,-23.214 -23.208,-23.214 h -247.026 c -12.65,0 -23.209,10.562 -23.209,23.214 v 25.788 z"
       id="path3111"
       style="fill:#ffffff;fill-rule:evenodd" />
    <path
       d="m 28.48725,46.92 c 2.454,1.227 6.381,2.211 9.207,2.211 3.933,0 7.122,-3.315 7.122,-7.128 0,-3.925 -3.188,-7.121 -7.122,-7.121 -1.352,0 -3.315,0.372 -4.544,0.857 l 0.367,-3.68 h 9.825 v -3.93 h -13.508 l -0.735,9.949 3.066,2.331 c 1.474,-0.982 3.81,-1.594 5.529,-1.594 1.719,0 3.194,1.469 3.194,3.188 0,1.722 -1.475,3.196 -3.194,3.196 -2.213,0 -5.529,-0.737 -7.493,-1.721 l -1.714,3.442"
       id="path3113"
       style="fill:#ffffff;fill-rule:evenodd" />
    <path
       d="m 57.09825,42.495 c -0.617,-2.331 -0.617,-5.646 0,-7.857 0.49,-1.842 2.209,-3.195 4.05,-3.195 1.969,0 3.688,1.354 4.177,3.195 0.612,2.211 0.612,5.526 0,7.857 -0.49,1.722 -2.208,3.069 -4.177,3.069 -1.841,-10e-4 -3.56,-1.347 -4.05,-3.069 l -3.806,0.618 3.806,-0.618 m -3.805,0.617 c 0.979,3.436 4.295,6.019 7.856,6.019 3.688,0 7.003,-2.583 7.982,-6.019 0.735,-2.704 0.735,-6.509 0,-9.087 -0.979,-3.44 -4.295,-6.019 -7.982,-6.019 -3.561,0 -6.876,2.579 -7.856,6.019 -0.74,2.578 -0.74,6.384 0,9.087 z"
       id="path3115"
       style="fill:#ffffff;fill-rule:evenodd" />
    <path
       d="m 82.39425,42.495 c -0.739,-2.331 -0.739,-5.646 0,-7.857 0.49,-1.842 2.209,-3.195 4.05,-3.195 1.841,0 3.688,1.354 4.177,3.195 0.612,2.211 0.612,5.526 0,7.857 -0.489,1.722 -2.336,3.069 -4.177,3.069 -1.841,0 -3.56,-1.347 -4.05,-3.069 l -3.805,0.618 3.805,-0.618 m -3.805,0.617 c 0.979,3.436 4.295,6.019 7.855,6.019 3.56,0 7.003,-2.583 7.983,-6.019 0.74,-2.704 0.74,-6.509 0,-9.087 -0.979,-3.44 -4.423,-6.019 -7.983,-6.019 -3.561,0 -6.876,2.579 -7.855,6.019 -0.74,2.578 -0.74,6.384 0,9.087 z"
       id="path3117"
       style="fill:#ffffff;fill-rule:evenodd" />
    <path
       d="m 116.16225,49.131 h 3.81 v -8.847 c 0,-1.469 1.347,-2.698 2.821,-2.698 1.596,0 2.826,1.229 2.826,2.698 v 8.847 h 3.928 v -8.847 c 0,-1.469 1.229,-2.698 2.703,-2.698 1.597,0 2.826,1.229 2.826,2.698 v 8.847 h 3.928 v -9.459 c 0,-2.456 -1.719,-5.034 -4.05,-5.892 -2.454,-0.984 -5.406,-0.247 -7.126,1.594 -1.841,-2.086 -5.279,-2.704 -7.855,-1.229 v -0.737 h -3.81 v 15.723"
       id="path3119"
       style="fill:#ffffff;fill-rule:evenodd" />
    <path
       d="m 195.349,59.695 16.945,0 1.597,-41.263 -4.913,0 -13.629,41.263"
       transform="translate(-0.46875,-0.25)"
       id="polyline3121"
       style="fill:#ffffff;fill-rule:evenodd" />
    <path
       d="m 218.068,59.695 16.817,0 -6.135,-19.401 12.4,-14.002 4.055,9.824 0,-17.684 -17.685,0 9.952,4.052 -12.038,7.493 -3.684,-11.545 -4.912,0 1.23,41.263"
       transform="translate(-0.46875,-0.25)"
       id="polyline3123"
       style="fill:#ffffff;fill-rule:evenodd" />
    <path
       d="m 7.85425,199.807 v -96.519 c 0,-9.824 8.105,-18.055 18.047,-18.055 h 413.428 c 9.945,0 18.052,8.23 18.052,18.055 v 96.519 c 0,9.824 -8.106,18.057 -18.052,18.057 h -413.428 c -9.942,-0.001 -18.047,-8.233 -18.047,-18.057 h -5.162 5.162 m -5.162,0 c 0,12.654 10.564,23.215 23.209,23.215 h 413.428 c 12.649,0 23.208,-10.561 23.208,-23.215 v -96.519 c 0,-12.652 -10.559,-23.214 -23.208,-23.214 h -413.428 c -12.645,0 -23.209,10.562 -23.209,23.214 v 96.519 z"
       id="path3125"
       style="fill:#ffffff;fill-rule:evenodd" />
    <path
       d="m 432.124,126.682 -7.612,37.95 -9.699,-14.613 -23.826,26.768 -9.088,-9.085 26.894,-23.831 -14.738,-9.574 38.069,-7.615"
       transform="translate(-0.46875,-0.25)"
       id="polyline3127"
       style="fill:#ffffff;fill-rule:evenodd" />
    <path
       d="m 35.04825,142.24 v -24.99 h 4.909 v 20.267 h 13.611 v 4.724 h -18.52 z"
       id="path3129"
       style="fill:#ffffff" />
    <path
       d="m 68.44225,142.24 v -0.596 c -0.867,0.349 -1.71,0.578 -2.528,0.691 -0.817,0.107 -1.574,0.165 -2.269,0.165 -1.017,0 -1.946,-0.147 -2.789,-0.445 -0.843,-0.296 -1.575,-0.72 -2.194,-1.265 -0.621,-0.544 -1.097,-1.198 -1.432,-1.955 -0.334,-0.753 -0.502,-1.58 -0.502,-2.469 0,-0.944 0.192,-1.81 0.576,-2.604 0.385,-0.792 0.911,-1.482 1.58,-2.064 0.67,-0.584 1.463,-1.04 2.38,-1.379 0.917,-0.333 1.91,-0.5 2.975,-0.5 0.521,0 1.166,0.051 1.934,0.148 0.769,0.101 1.525,0.284 2.268,0.557 -0.049,-0.866 -0.371,-1.492 -0.965,-1.876 -0.596,-0.384 -1.353,-0.575 -2.27,-0.575 -1.735,0 -3.458,0.47 -5.168,1.41 l -1.822,-3.94 c 0.669,-0.348 1.296,-0.645 1.878,-0.893 0.583,-0.248 1.153,-0.444 1.712,-0.596 0.556,-0.148 1.108,-0.26 1.654,-0.333 0.544,-0.076 1.129,-0.116 1.747,-0.116 2.504,0 4.457,0.618 5.858,1.844 1.401,1.225 2.102,3.117 2.102,5.67 v 11.119 h -4.725 z m 0,-7.327 c -0.743,-0.271 -1.505,-0.478 -2.286,-0.61 -0.781,-0.139 -1.419,-0.205 -1.916,-0.205 -0.793,0 -1.455,0.193 -1.988,0.574 -0.534,0.388 -0.8,0.863 -0.8,1.435 0,0.569 0.322,1.065 0.967,1.485 0.644,0.422 1.401,0.633 2.268,0.633 0.52,0 1.097,-0.062 1.729,-0.188 0.633,-0.121 1.308,-0.382 2.026,-0.781 v -2.343 z"
       id="path3131"
       style="fill:#ffffff" />
    <path
       d="m 96.78125,136.996 c 0,0.793 -0.125,1.482 -0.372,2.063 -0.248,0.585 -0.657,1.124 -1.227,1.62 -0.794,0.645 -1.718,1.109 -2.771,1.395 -1.054,0.285 -2.312,0.427 -3.775,0.427 -0.867,0 -1.654,-0.033 -2.36,-0.094 -0.707,-0.06 -1.389,-0.161 -2.045,-0.296 -0.657,-0.136 -1.29,-0.316 -1.896,-0.539 -0.608,-0.225 -1.245,-0.497 -1.916,-0.817 l 1.934,-4.388 c 0.917,0.443 1.934,0.792 3.049,1.04 1.117,0.248 2.132,0.37 3.05,0.37 1.016,0 1.828,-0.086 2.435,-0.261 0.609,-0.173 0.911,-0.434 0.911,-0.781 0,-0.271 -0.11,-0.509 -0.334,-0.704 -0.223,-0.197 -0.583,-0.348 -1.078,-0.445 -0.249,-0.076 -0.546,-0.151 -0.894,-0.225 -0.347,-0.076 -0.7,-0.158 -1.06,-0.242 -0.359,-0.087 -0.7,-0.175 -1.022,-0.26 -0.323,-0.088 -0.583,-0.17 -0.781,-0.242 -1.983,-0.569 -3.427,-1.319 -4.332,-2.251 -0.905,-0.926 -1.358,-2.1 -1.358,-3.511 0,-1.64 0.671,-2.923 2.008,-3.85 1.339,-0.932 3.149,-1.398 5.429,-1.398 1.265,0 2.53,0.146 3.793,0.431 1.265,0.284 2.628,0.786 4.092,1.507 l -1.934,4.388 c -0.918,-0.497 -1.904,-0.887 -2.957,-1.174 -1.054,-0.285 -1.99,-0.424 -2.808,-0.424 -0.943,0 -1.618,0.072 -2.026,0.221 -0.408,0.149 -0.615,0.396 -0.615,0.744 0,0.173 0.032,0.324 0.094,0.445 0.062,0.126 0.198,0.23 0.409,0.314 0.21,0.091 0.515,0.176 0.911,0.26 0.396,0.092 0.917,0.182 1.562,0.282 2.628,0.545 4.598,1.319 5.913,2.324 1.313,1.002 1.971,2.36 1.971,4.071 z"
       id="path3133"
       style="fill:#ffffff" />
    <path
       d="m 134.63725,142.24 v -13.536 l -6.656,13.536 -6.806,-13.536 v 13.536 h -4.909 v -24.99 h 4.909 l 6.806,13.723 6.656,-13.723 h 4.871 v 24.99 h -4.871 z"
       id="path3135"
       style="fill:#ffffff" />
    <path
       d="m 157.43125,142.24 v -0.596 c -0.867,0.349 -1.71,0.578 -2.528,0.691 -0.817,0.107 -1.573,0.165 -2.269,0.165 -1.017,0 -1.945,-0.147 -2.789,-0.445 -0.843,-0.296 -1.575,-0.72 -2.194,-1.265 -0.62,-0.544 -1.097,-1.198 -1.431,-1.955 -0.334,-0.753 -0.503,-1.58 -0.503,-2.469 0,-0.944 0.192,-1.81 0.577,-2.604 0.384,-0.792 0.911,-1.482 1.58,-2.064 0.67,-0.584 1.463,-1.04 2.38,-1.379 0.917,-0.333 1.909,-0.5 2.975,-0.5 0.52,0 1.165,0.051 1.934,0.148 0.769,0.101 1.525,0.284 2.268,0.557 -0.049,-0.866 -0.37,-1.492 -0.965,-1.876 -0.596,-0.384 -1.353,-0.575 -2.27,-0.575 -1.736,0 -3.458,0.47 -5.168,1.41 l -1.822,-3.94 c 0.669,-0.348 1.295,-0.645 1.878,-0.893 0.582,-0.248 1.153,-0.444 1.711,-0.596 0.557,-0.148 1.109,-0.26 1.654,-0.333 0.545,-0.076 1.13,-0.116 1.748,-0.116 2.504,0 4.456,0.618 5.857,1.844 1.401,1.225 2.102,3.117 2.102,5.67 v 11.119 h -4.725 z m 0,-7.327 c -0.743,-0.271 -1.505,-0.478 -2.286,-0.61 -0.781,-0.139 -1.419,-0.205 -1.916,-0.205 -0.793,0 -1.456,0.193 -1.989,0.574 -0.534,0.388 -0.8,0.863 -0.8,1.435 0,0.569 0.322,1.065 0.967,1.485 0.645,0.422 1.4,0.633 2.268,0.633 0.521,0 1.098,-0.062 1.73,-0.188 0.632,-0.121 1.308,-0.382 2.026,-0.781 v -2.343 z"
       id="path3137"
       style="fill:#ffffff" />
    <path
       d="m 177.70025,128.443 v 6.807 c 0,0.844 0.135,1.479 0.409,1.915 0.271,0.434 0.867,0.612 1.785,0.539 0.644,-0.049 1.11,-0.175 1.394,-0.372 0.285,-0.197 0.638,-0.521 1.061,-0.965 l -1.303,5.169 c -0.421,0.172 -0.744,0.319 -0.967,0.445 -0.223,0.123 -0.427,0.22 -0.613,0.298 -0.186,0.074 -0.396,0.128 -0.632,0.164 -0.237,0.04 -0.577,0.058 -1.023,0.058 -1.71,0 -2.969,-0.481 -3.774,-1.45 -0.807,-0.968 -1.209,-2.342 -1.209,-4.127 v -8.48 h -3.421 v -4.315 h 3.421 v -5.314 l 4.872,-1.936 v 7.177 h 4.649 v 4.388 h -4.649 z"
       id="path3139"
       style="fill:#ffffff" />
    <path
       d="m 199.75325,142.24 v -0.596 c -0.867,0.349 -1.71,0.578 -2.529,0.691 -0.817,0.107 -1.574,0.165 -2.268,0.165 -1.017,0 -1.946,-0.147 -2.789,-0.445 -0.843,-0.296 -1.575,-0.72 -2.194,-1.265 -0.62,-0.544 -1.097,-1.198 -1.431,-1.955 -0.335,-0.753 -0.502,-1.58 -0.502,-2.469 0,-0.944 0.191,-1.81 0.576,-2.604 0.384,-0.792 0.911,-1.482 1.579,-2.064 0.671,-0.584 1.464,-1.04 2.38,-1.379 0.917,-0.333 1.91,-0.5 2.975,-0.5 0.521,0 1.166,0.051 1.934,0.148 0.769,0.101 1.525,0.284 2.269,0.557 -0.05,-0.866 -0.372,-1.492 -0.966,-1.876 -0.596,-0.384 -1.353,-0.575 -2.27,-0.575 -1.736,0 -3.458,0.47 -5.169,1.41 l -1.822,-3.94 c 0.668,-0.348 1.295,-0.645 1.878,-0.893 0.583,-0.248 1.153,-0.444 1.711,-0.596 0.557,-0.148 1.11,-0.26 1.655,-0.333 0.544,-0.076 1.128,-0.116 1.748,-0.116 2.504,0 4.457,0.618 5.857,1.844 1.401,1.225 2.102,3.117 2.102,5.67 v 11.119 h -4.724 z m 0,-7.327 c -0.743,-0.271 -1.506,-0.478 -2.288,-0.61 -0.78,-0.139 -1.419,-0.205 -1.915,-0.205 -0.793,0 -1.456,0.193 -1.989,0.574 -0.534,0.388 -0.8,0.863 -0.8,1.435 0,0.569 0.322,1.065 0.967,1.485 0.645,0.422 1.401,0.633 2.268,0.633 0.521,0 1.097,-0.062 1.73,-0.188 0.632,-0.121 1.307,-0.382 2.026,-0.781 v -2.343 z"
       id="path3141"
       style="fill:#ffffff" />
    <path
       d="m 228.09025,136.996 c 0,0.793 -0.125,1.482 -0.372,2.063 -0.248,0.585 -0.656,1.124 -1.227,1.62 -0.795,0.645 -1.718,1.109 -2.771,1.395 -1.054,0.285 -2.312,0.427 -3.774,0.427 -0.868,0 -1.654,-0.033 -2.362,-0.094 -0.706,-0.06 -1.388,-0.161 -2.045,-0.296 -0.656,-0.136 -1.289,-0.316 -1.896,-0.539 -0.608,-0.225 -1.245,-0.497 -1.915,-0.817 l 1.933,-4.388 c 0.917,0.443 1.934,0.792 3.049,1.04 1.116,0.248 2.132,0.37 3.05,0.37 1.016,0 1.828,-0.086 2.436,-0.261 0.608,-0.173 0.91,-0.434 0.91,-0.781 0,-0.271 -0.11,-0.509 -0.334,-0.704 -0.222,-0.197 -0.582,-0.348 -1.078,-0.445 -0.248,-0.076 -0.546,-0.151 -0.892,-0.225 -0.348,-0.076 -0.701,-0.158 -1.062,-0.242 -0.358,-0.087 -0.701,-0.175 -1.022,-0.26 -0.322,-0.088 -0.583,-0.17 -0.781,-0.242 -1.984,-0.569 -3.428,-1.319 -4.333,-2.251 -0.904,-0.926 -1.356,-2.1 -1.356,-3.511 0,-1.64 0.67,-2.923 2.007,-3.85 1.339,-0.932 3.149,-1.398 5.429,-1.398 1.266,0 2.53,0.146 3.793,0.431 1.266,0.284 2.628,0.786 4.091,1.507 l -1.934,4.388 c -0.918,-0.497 -1.903,-0.887 -2.956,-1.174 -1.056,-0.285 -1.99,-0.424 -2.809,-0.424 -0.943,0 -1.618,0.072 -2.026,0.221 -0.409,0.148 -0.615,0.396 -0.615,0.744 0,0.173 0.032,0.324 0.094,0.445 0.062,0.126 0.198,0.23 0.408,0.314 0.211,0.091 0.515,0.176 0.912,0.26 0.396,0.092 0.916,0.182 1.562,0.282 2.629,0.545 4.599,1.319 5.913,2.324 1.316,1.002 1.973,2.36 1.973,4.071 z"
       id="path3143"
       style="fill:#ffffff" />
    <path
       d="m 35.04825,186.865 v -24.989 h 4.909 v 20.268 h 13.611 v 4.722 h -18.52 z"
       id="path3145"
       style="fill:#ffffff" />
    <path
       d="m 73.68725,177.791 c 0,1.313 -0.237,2.543 -0.707,3.68 -0.472,1.145 -1.103,2.145 -1.897,2.997 -0.793,0.853 -1.704,1.525 -2.733,2.009 -1.029,0.482 -2.1,0.725 -3.217,0.725 -1.141,0 -2.219,-0.242 -3.235,-0.725 -1.017,-0.483 -1.91,-1.156 -2.677,-2.009 -0.769,-0.853 -1.377,-1.853 -1.823,-2.997 -0.445,-1.137 -0.669,-2.366 -0.669,-3.68 0,-1.361 0.216,-2.627 0.651,-3.792 0.434,-1.165 1.029,-2.177 1.785,-3.029 0.755,-0.856 1.642,-1.524 2.659,-2.009 1.017,-0.485 2.121,-0.727 3.31,-0.727 1.091,0 2.149,0.248 3.179,0.744 1.028,0.496 1.94,1.177 2.734,2.046 0.793,0.865 1.431,1.882 1.915,3.052 0.482,1.16 0.725,2.403 0.725,3.715 z m -5.059,0 c 0,-0.668 -0.099,-1.301 -0.297,-1.895 -0.2,-0.596 -0.459,-1.11 -0.781,-1.544 -0.322,-0.436 -0.694,-0.773 -1.117,-1.022 -0.42,-0.248 -0.854,-0.371 -1.301,-0.371 -0.496,0 -0.947,0.123 -1.357,0.371 -0.409,0.249 -0.769,0.587 -1.079,1.022 -0.31,0.434 -0.551,0.948 -0.725,1.544 -0.173,0.594 -0.26,1.227 -0.26,1.895 0,0.648 0.086,1.254 0.26,1.822 0.174,0.572 0.415,1.065 0.725,1.488 0.311,0.424 0.67,0.758 1.079,1.006 0.411,0.248 0.861,0.368 1.357,0.368 0.447,0 0.881,-0.12 1.301,-0.368 0.422,-0.248 0.794,-0.582 1.117,-1.006 0.321,-0.423 0.581,-0.916 0.781,-1.488 0.199,-0.568 0.297,-1.174 0.297,-1.822 z"
       id="path3147"
       style="fill:#ffffff" />
    <path
       d="m 95.03125,181.622 c 0,0.793 -0.126,1.483 -0.373,2.065 -0.248,0.58 -0.657,1.119 -1.227,1.615 -0.795,0.647 -1.717,1.11 -2.771,1.395 -1.055,0.287 -2.312,0.428 -3.775,0.428 -0.867,0 -1.654,-0.031 -2.36,-0.092 -0.706,-0.061 -1.389,-0.162 -2.046,-0.297 -0.656,-0.138 -1.29,-0.317 -1.896,-0.537 -0.608,-0.225 -1.246,-0.496 -1.916,-0.82 l 1.933,-4.388 c 0.917,0.444 1.934,0.796 3.05,1.04 1.117,0.248 2.132,0.371 3.05,0.371 1.015,0 1.828,-0.084 2.435,-0.259 0.608,-0.177 0.911,-0.437 0.911,-0.78 0,-0.273 -0.111,-0.509 -0.335,-0.709 -0.222,-0.197 -0.582,-0.346 -1.077,-0.445 -0.248,-0.075 -0.546,-0.148 -0.893,-0.224 -0.348,-0.076 -0.701,-0.153 -1.062,-0.238 -0.357,-0.092 -0.7,-0.177 -1.022,-0.261 -0.323,-0.092 -0.583,-0.169 -0.78,-0.242 -1.984,-0.572 -3.428,-1.323 -4.333,-2.252 -0.905,-0.929 -1.357,-2.101 -1.357,-3.514 0,-1.637 0.671,-2.92 2.008,-3.85 1.339,-0.929 3.149,-1.395 5.429,-1.395 1.265,0 2.53,0.145 3.793,0.43 1.265,0.285 2.628,0.787 4.092,1.504 l -1.934,4.388 c -0.919,-0.492 -1.904,-0.886 -2.958,-1.171 -1.054,-0.283 -1.989,-0.426 -2.808,-0.426 -0.943,0 -1.618,0.074 -2.027,0.221 -0.408,0.15 -0.614,0.399 -0.614,0.743 0,0.177 0.032,0.324 0.094,0.448 0.062,0.124 0.198,0.23 0.408,0.315 0.211,0.088 0.515,0.175 0.911,0.261 0.397,0.088 0.917,0.18 1.562,0.277 2.628,0.544 4.599,1.32 5.913,2.324 1.317,1.007 1.975,2.362 1.975,4.075 z"
       id="path3149"
       style="fill:#ffffff" />
    <path
       d="m 134.63625,169.646 c 0,1.438 -0.348,2.77 -1.042,3.998 -0.694,1.229 -1.637,2.164 -2.827,2.809 -0.372,0.2 -0.725,0.366 -1.061,0.502 -0.334,0.137 -0.681,0.244 -1.041,0.315 -0.359,0.077 -0.756,0.13 -1.189,0.171 -0.435,0.035 -0.937,0.054 -1.506,0.054 h -6.546 v 9.37 h -4.908 v -24.989 h 11.715 c 1.042,0 1.884,0.075 2.529,0.221 0.645,0.151 1.314,0.424 2.008,0.821 1.189,0.691 2.132,1.637 2.827,2.826 0.693,1.19 1.041,2.49 1.041,3.902 z m -4.909,0 c 0,-0.791 -0.292,-1.455 -0.875,-1.988 -0.582,-0.531 -1.345,-0.799 -2.286,-0.799 h -7.141 v 5.653 h 7.141 c 0.966,0 1.734,-0.259 2.305,-0.78 0.57,-0.521 0.856,-1.216 0.856,-2.086 z"
       id="path3151"
       style="fill:#ffffff" />
    <path
       d="m 143.44825,179.354 c 0.273,1.041 0.745,1.854 1.413,2.436 0.67,0.584 1.401,0.875 2.194,0.875 1.041,0 1.972,-0.557 2.789,-1.673 l 3.421,2.974 c -0.941,1.114 -1.908,1.922 -2.899,2.418 -0.993,0.494 -2.096,0.742 -3.311,0.742 -1.165,0 -2.269,-0.242 -3.309,-0.725 -1.042,-0.484 -1.958,-1.146 -2.753,-1.987 -0.793,-0.845 -1.425,-1.844 -1.896,-2.997 -0.47,-1.148 -0.708,-2.396 -0.708,-3.733 0,-1.313 0.229,-2.543 0.689,-3.684 0.459,-1.14 1.071,-2.14 1.84,-2.993 0.769,-0.856 1.661,-1.531 2.678,-2.027 1.015,-0.496 2.083,-0.744 3.197,-0.744 1.487,0 2.857,0.43 4.11,1.283 1.25,0.856 2.211,2.003 2.882,3.441 0.347,0.844 0.607,1.716 0.781,2.62 0.172,0.905 0.26,1.929 0.26,3.067 v 0.707 h -11.378 z m 5.04,-6.082 c -0.433,-0.384 -0.998,-0.574 -1.692,-0.574 -0.669,0 -1.283,0.214 -1.84,0.65 -0.559,0.433 -0.973,1.06 -1.248,1.876 h 5.952 c -0.348,-0.913 -0.738,-1.566 -1.172,-1.952 z"
       id="path3153"
       style="fill:#ffffff" />
    <path
       d="m 174.05525,186.865 v -10.932 c 0,-0.842 -0.268,-1.551 -0.8,-2.119 -0.533,-0.571 -1.283,-0.855 -2.249,-0.855 -0.446,0 -0.875,0.081 -1.283,0.238 -0.41,0.164 -0.78,0.382 -1.116,0.653 -0.335,0.272 -0.601,0.581 -0.799,0.929 -0.198,0.348 -0.298,0.707 -0.298,1.081 v 11.005 h -4.983 v -18.184 h 4.983 v 0.965 c 0.843,-0.52 1.661,-0.886 2.454,-1.098 0.794,-0.209 1.612,-0.314 2.455,-0.314 0.942,0 1.81,0.156 2.604,0.466 0.793,0.31 1.481,0.739 2.064,1.282 0.581,0.545 1.041,1.195 1.375,1.953 0.335,0.756 0.502,1.568 0.502,2.436 v 12.494 h -4.909 z"
       id="path3155"
       style="fill:#ffffff" />
    <path
       d="m 177.69925,160.202 c 0,1.608 -0.39,2.944 -1.171,3.998 -0.78,1.055 -1.828,1.579 -3.143,1.579 -1.041,0 -2.032,-0.297 -2.975,-0.893 -1.065,-0.668 -1.736,-1.004 -2.008,-1.004 -0.669,0 -1.079,0.61 -1.227,1.82 h -3.383 c 0,-1.633 0.39,-2.977 1.171,-4.03 0.78,-1.053 1.827,-1.582 3.143,-1.582 1.041,0 2.02,0.298 2.937,0.892 1.091,0.696 1.772,1.041 2.046,1.041 0.668,0 1.077,-0.605 1.227,-1.821 h 3.383 z"
       id="path3157"
       style="fill:#ffffff" />
    <path
       d="m 198.37625,186.865 v -0.595 c -0.867,0.345 -1.71,0.576 -2.529,0.688 -0.817,0.111 -1.574,0.166 -2.268,0.166 -1.017,0 -1.946,-0.146 -2.789,-0.445 -0.843,-0.297 -1.576,-0.717 -2.194,-1.262 -0.621,-0.548 -1.097,-1.199 -1.432,-1.955 -0.334,-0.757 -0.502,-1.58 -0.502,-2.472 0,-0.942 0.193,-1.81 0.577,-2.604 0.385,-0.793 0.911,-1.479 1.58,-2.065 0.67,-0.583 1.463,-1.039 2.38,-1.375 0.917,-0.334 1.909,-0.504 2.975,-0.504 0.521,0 1.166,0.052 1.934,0.152 0.769,0.098 1.525,0.284 2.269,0.557 -0.051,-0.869 -0.372,-1.494 -0.966,-1.88 -0.596,-0.384 -1.353,-0.574 -2.27,-0.574 -1.735,0 -3.458,0.469 -5.169,1.413 l -1.821,-3.943 c 0.669,-0.348 1.295,-0.645 1.878,-0.893 0.583,-0.248 1.153,-0.445 1.711,-0.594 0.557,-0.15 1.109,-0.26 1.654,-0.336 0.545,-0.075 1.129,-0.111 1.748,-0.111 2.505,0 4.456,0.614 5.857,1.84 1.401,1.229 2.102,3.117 2.102,5.671 v 11.12 h -4.725 z m 0,-7.324 c -0.744,-0.273 -1.506,-0.479 -2.287,-0.615 -0.781,-0.136 -1.419,-0.203 -1.916,-0.203 -0.793,0 -1.456,0.191 -1.988,0.576 -0.534,0.385 -0.801,0.859 -0.801,1.431 0,0.572 0.322,1.069 0.967,1.485 0.645,0.424 1.401,0.637 2.268,0.637 0.521,0 1.097,-0.064 1.73,-0.188 0.632,-0.125 1.307,-0.385 2.026,-0.781 v -2.342 z"
       id="path3159"
       style="fill:#ffffff" />
    <path
       d="m 226.71425,181.622 c 0,0.793 -0.126,1.483 -0.372,2.065 -0.248,0.58 -0.657,1.119 -1.228,1.615 -0.794,0.647 -1.718,1.11 -2.771,1.395 -1.055,0.287 -2.312,0.428 -3.775,0.428 -0.867,0 -1.654,-0.031 -2.361,-0.092 -0.707,-0.061 -1.389,-0.162 -2.045,-0.297 -0.657,-0.138 -1.29,-0.317 -1.897,-0.537 -0.608,-0.225 -1.245,-0.496 -1.916,-0.82 l 1.934,-4.388 c 0.917,0.444 1.934,0.796 3.048,1.04 1.118,0.248 2.133,0.371 3.051,0.371 1.015,0 1.828,-0.084 2.435,-0.259 0.608,-0.177 0.911,-0.437 0.911,-0.78 0,-0.273 -0.111,-0.509 -0.335,-0.709 -0.222,-0.197 -0.582,-0.346 -1.077,-0.445 -0.248,-0.075 -0.546,-0.148 -0.893,-0.224 -0.348,-0.076 -0.701,-0.153 -1.061,-0.238 -0.358,-0.092 -0.7,-0.177 -1.023,-0.261 -0.322,-0.092 -0.583,-0.169 -0.781,-0.242 -1.984,-0.572 -3.428,-1.323 -4.332,-2.252 -0.905,-0.929 -1.357,-2.101 -1.357,-3.514 0,-1.637 0.67,-2.92 2.008,-3.85 1.339,-0.929 3.149,-1.395 5.43,-1.395 1.264,0 2.53,0.145 3.793,0.43 1.264,0.285 2.628,0.787 4.091,1.504 l -1.934,4.388 c -0.919,-0.492 -1.904,-0.886 -2.958,-1.171 -1.054,-0.283 -1.989,-0.426 -2.807,-0.426 -0.943,0 -1.618,0.074 -2.026,0.221 -0.409,0.15 -0.614,0.399 -0.614,0.743 0,0.177 0.032,0.324 0.094,0.448 0.062,0.124 0.198,0.23 0.409,0.315 0.21,0.088 0.514,0.175 0.91,0.261 0.397,0.088 0.917,0.18 1.562,0.277 2.628,0.544 4.599,1.32 5.914,2.324 1.315,1.007 1.973,2.362 1.973,4.075 z"
       id="path3161"
       style="fill:#ffffff" />
    <path
       d="m 247.68825,184.674 c -0.248,0.248 -0.57,0.508 -0.967,0.781 -1.537,1.111 -3.261,1.67 -5.17,1.67 -1.288,0 -2.496,-0.236 -3.627,-0.706 -1.126,-0.469 -2.113,-1.122 -2.954,-1.951 -0.844,-0.829 -1.514,-1.821 -2.007,-2.975 -0.497,-1.153 -0.745,-2.425 -0.745,-3.811 0,-1.366 0.248,-2.624 0.745,-3.777 0.493,-1.152 1.163,-2.148 2.007,-2.993 0.841,-0.844 1.828,-1.496 2.954,-1.97 1.131,-0.472 2.339,-0.708 3.627,-0.708 1.066,0 2.113,0.188 3.143,0.557 1.028,0.375 1.917,0.92 2.658,1.637 0.199,0.173 0.384,0.367 0.56,0.578 0.173,0.212 0.421,0.49 0.743,0.836 l -3.31,4.092 c -0.348,-0.969 -0.855,-1.707 -1.524,-2.217 -0.671,-0.504 -1.427,-0.758 -2.27,-0.758 -0.596,0 -1.158,0.117 -1.692,0.354 -0.532,0.236 -1.004,0.562 -1.411,0.982 -0.41,0.422 -0.733,0.924 -0.967,1.508 -0.236,0.585 -0.354,1.209 -0.354,1.88 0,0.665 0.118,1.294 0.354,1.876 0.233,0.581 0.557,1.084 0.967,1.507 0.407,0.422 0.879,0.751 1.411,0.983 0.534,0.236 1.097,0.354 1.692,0.354 0.743,0 1.406,-0.188 1.99,-0.555 0.581,-0.377 1.123,-0.969 1.616,-1.787 l 3.497,3.496 c -0.397,0.496 -0.719,0.868 -0.966,1.117 z"
       id="path3163"
       style="fill:#ffffff" />
    <path
       d="m 265.79725,186.865 v -0.595 c -0.867,0.345 -1.709,0.576 -2.527,0.688 -0.817,0.111 -1.573,0.166 -2.27,0.166 -1.016,0 -1.945,-0.146 -2.789,-0.445 -0.84,-0.297 -1.575,-0.717 -2.193,-1.262 -0.621,-0.548 -1.098,-1.199 -1.432,-1.955 -0.335,-0.757 -0.502,-1.58 -0.502,-2.472 0,-0.942 0.191,-1.81 0.577,-2.604 0.384,-0.793 0.911,-1.479 1.579,-2.065 0.67,-0.583 1.464,-1.039 2.379,-1.375 0.92,-0.334 1.911,-0.504 2.976,-0.504 0.521,0 1.165,0.052 1.936,0.152 0.768,0.098 1.523,0.284 2.267,0.557 -0.05,-0.869 -0.369,-1.494 -0.964,-1.88 -0.597,-0.384 -1.353,-0.574 -2.271,-0.574 -1.734,0 -3.456,0.469 -5.167,1.413 l -1.822,-3.943 c 0.668,-0.348 1.295,-0.645 1.878,-0.893 0.583,-0.248 1.151,-0.445 1.71,-0.594 0.557,-0.15 1.11,-0.26 1.654,-0.336 0.546,-0.075 1.129,-0.111 1.747,-0.111 2.504,0 4.457,0.614 5.857,1.84 1.402,1.229 2.103,3.117 2.103,5.671 v 11.12 h -4.726 z m 0,-7.324 c -0.743,-0.273 -1.505,-0.479 -2.285,-0.615 -0.781,-0.136 -1.42,-0.203 -1.917,-0.203 -0.792,0 -1.456,0.191 -1.987,0.576 -0.535,0.385 -0.802,0.859 -0.802,1.431 0,0.572 0.323,1.069 0.968,1.485 0.645,0.424 1.401,0.637 2.269,0.637 0.52,0 1.098,-0.064 1.729,-0.188 0.633,-0.125 1.307,-0.385 2.026,-0.781 v -2.342 z"
       id="path3165"
       style="fill:#ffffff" />
    <path
       d="m 280.48625,186.865 v -23.428 l 4.982,-1.935 v 25.362 h -4.982 z"
       id="path3167"
       style="fill:#ffffff" />
    <path
       d="m 298.22425,179.354 c 0.272,1.041 0.743,1.854 1.415,2.436 0.67,0.584 1.399,0.875 2.193,0.875 1.039,0 1.971,-0.557 2.789,-1.673 l 3.42,2.974 c -0.94,1.114 -1.906,1.922 -2.899,2.418 -0.993,0.494 -2.097,0.742 -3.31,0.742 -1.166,0 -2.27,-0.242 -3.311,-0.725 -1.041,-0.484 -1.959,-1.146 -2.752,-1.987 -0.794,-0.845 -1.427,-1.844 -1.896,-2.997 -0.472,-1.148 -0.708,-2.396 -0.708,-3.733 0,-1.313 0.229,-2.543 0.69,-3.684 0.457,-1.14 1.069,-2.14 1.839,-2.993 0.769,-0.856 1.661,-1.531 2.678,-2.027 1.014,-0.496 2.082,-0.744 3.195,-0.744 1.488,0 2.859,0.43 4.111,1.283 1.252,0.856 2.213,2.003 2.883,3.441 0.346,0.844 0.607,1.716 0.781,2.62 0.171,0.905 0.262,1.929 0.262,3.067 v 0.707 h -11.38 z m 5.038,-6.082 c -0.432,-0.384 -0.996,-0.574 -1.693,-0.574 -0.668,0 -1.279,0.214 -1.839,0.65 -0.558,0.433 -0.974,1.06 -1.245,1.876 h 5.951 c -0.349,-0.913 -0.74,-1.566 -1.174,-1.952 z"
       id="path3169"
       style="fill:#ffffff" />
    <path
       d="m 330.95025,181.622 c 0,0.793 -0.126,1.483 -0.372,2.065 -0.249,0.58 -0.656,1.119 -1.227,1.615 -0.794,0.647 -1.719,1.11 -2.771,1.395 -1.054,0.287 -2.312,0.428 -3.775,0.428 -0.867,0 -1.654,-0.031 -2.359,-0.092 -0.707,-0.061 -1.39,-0.162 -2.046,-0.297 -0.658,-0.138 -1.291,-0.317 -1.897,-0.537 -0.607,-0.225 -1.244,-0.496 -1.914,-0.82 l 1.932,-4.388 c 0.918,0.444 1.936,0.796 3.049,1.04 1.119,0.248 2.133,0.371 3.053,0.371 1.014,0 1.827,-0.084 2.434,-0.259 0.609,-0.177 0.911,-0.437 0.911,-0.78 0,-0.273 -0.11,-0.509 -0.335,-0.709 -0.223,-0.197 -0.582,-0.346 -1.076,-0.445 -0.25,-0.075 -0.548,-0.148 -0.895,-0.224 -0.348,-0.076 -0.7,-0.153 -1.061,-0.238 -0.357,-0.092 -0.699,-0.177 -1.021,-0.261 -0.322,-0.092 -0.583,-0.169 -0.782,-0.242 -1.982,-0.572 -3.427,-1.323 -4.331,-2.252 -0.905,-0.929 -1.356,-2.101 -1.356,-3.514 0,-1.637 0.67,-2.92 2.007,-3.85 1.34,-0.929 3.148,-1.395 5.43,-1.395 1.265,0 2.53,0.145 3.793,0.43 1.266,0.285 2.63,0.787 4.092,1.504 l -1.934,4.388 c -0.92,-0.492 -1.903,-0.886 -2.956,-1.171 -1.056,-0.283 -1.99,-0.426 -2.809,-0.426 -0.944,0 -1.618,0.074 -2.026,0.221 -0.41,0.15 -0.614,0.399 -0.614,0.743 0,0.177 0.031,0.324 0.093,0.448 0.062,0.124 0.199,0.23 0.41,0.315 0.209,0.088 0.514,0.175 0.908,0.261 0.398,0.088 0.92,0.18 1.564,0.277 2.627,0.544 4.599,1.32 5.913,2.324 1.31,1.007 1.968,2.362 1.968,4.075 z"
       id="path3171"
       style="fill:#ffffff" />
    <path
       d="m 396.38625,49.354 c 0.04,-0.493 0.081,-0.928 0.124,-1.309 0.037,-0.38 0.088,-0.74 0.135,-1.08 0.055,-0.339 0.126,-0.662 0.217,-0.971 0.093,-0.308 0.202,-0.635 0.328,-0.984 0.432,-1.275 1.044,-2.44 1.846,-3.499 0.8,-1.057 1.757,-1.946 2.868,-2.664 0.388,-0.288 0.823,-0.544 1.309,-0.771 0.48,-0.226 0.979,-0.451 1.493,-0.677 l 0.799,-0.37 0.741,-0.216 0.71,-0.278 c 0.594,-0.267 1.058,-0.569 1.388,-0.909 0.327,-0.338 0.49,-0.693 0.49,-1.062 0,-0.616 -0.374,-1.119 -1.123,-1.51 -0.75,-0.391 -1.723,-0.585 -2.911,-0.585 -0.534,0 -1.028,0.036 -1.48,0.108 -0.451,0.073 -0.896,0.19 -1.325,0.354 -0.431,0.165 -0.864,0.38 -1.296,0.647 -0.43,0.267 -0.902,0.596 -1.416,0.986 l -2.896,-3.02 c 0.35,-0.248 0.658,-0.467 0.924,-0.662 0.267,-0.196 0.514,-0.366 0.739,-0.51 0.225,-0.142 0.443,-0.271 0.648,-0.384 0.204,-0.113 0.419,-0.221 0.647,-0.323 1.642,-0.882 3.5,-1.325 5.575,-1.325 1.315,0 2.522,0.175 3.622,0.523 1.098,0.35 1.994,0.852 2.696,1.509 0.534,0.515 0.943,1.1 1.232,1.757 0.287,0.659 0.43,1.429 0.43,2.311 0,1.521 -0.478,2.815 -1.431,3.883 -0.957,1.069 -2.44,1.941 -4.456,2.619 -0.574,0.226 -1.058,0.421 -1.445,0.586 -0.393,0.163 -0.728,0.322 -1.004,0.477 -0.274,0.154 -0.534,0.324 -0.771,0.508 -0.235,0.186 -0.487,0.412 -0.753,0.678 -0.33,0.33 -0.605,0.647 -0.834,0.956 -0.226,0.307 -0.45,0.667 -0.676,1.079 h 11.584 v 4.128 h -16.728 z"
       id="path3173"
       style="fill:#ffffff" />
    <path
       d="m 437.12825,43.407 c 0,0.945 -0.194,1.803 -0.585,2.572 -0.39,0.77 -0.939,1.432 -1.646,1.987 -0.71,0.554 -1.563,0.986 -2.56,1.293 -0.997,0.308 -2.101,0.463 -3.311,0.463 -1.293,0 -2.519,-0.201 -3.669,-0.6 -1.149,-0.401 -2.056,-0.951 -2.711,-1.649 -0.72,-0.718 -1.273,-1.649 -1.664,-2.789 -0.39,-1.141 -0.586,-2.388 -0.586,-3.744 0,-2.075 0.479,-4.016 1.433,-5.823 0.955,-1.809 2.287,-3.317 3.993,-4.53 2.176,-1.5 4.691,-2.249 7.545,-2.249 h 0.556 v 4.128 h -0.492 c -3.882,0 -6.634,1.716 -8.257,5.146 0.657,-0.186 1.31,-0.328 1.957,-0.433 0.645,-0.101 1.277,-0.152 1.896,-0.152 0.942,0 1.882,0.113 2.818,0.338 0.935,0.226 1.701,0.504 2.294,0.831 0.925,0.537 1.654,1.264 2.189,2.188 0.536,0.928 0.8,1.935 0.8,3.023 z m -4.067,-0.061 c 0,-0.657 -0.328,-1.187 -0.985,-1.587 -0.656,-0.4 -1.603,-0.601 -2.833,-0.601 -0.598,0 -1.156,0.037 -1.681,0.108 -0.523,0.071 -0.929,0.18 -1.214,0.323 -0.477,0.185 -0.834,0.432 -1.08,0.741 -0.247,0.307 -0.371,0.646 -0.371,1.017 0,0.698 0.392,1.248 1.171,1.646 0.782,0.402 1.809,0.602 3.082,0.602 1.211,0 2.166,-0.2 2.868,-0.602 0.695,-0.4 1.043,-0.95 1.043,-1.647 z"
       id="path3175"
       style="fill:#ffffff" />
  </g>
</svg>
