<?xml version="1.0" encoding="UTF-8" standalone="no"?>
<!-- Created with Inkscape (http://www.inkscape.org/) -->

<svg
   xmlns:dc="http://purl.org/dc/elements/1.1/"
   xmlns:cc="http://creativecommons.org/ns#"
   xmlns:rdf="http://www.w3.org/1999/02/22-rdf-syntax-ns#"
   xmlns:svg="http://www.w3.org/2000/svg"
   xmlns="http://www.w3.org/2000/svg"
   version="1.2"
   width="188.9375"
   height="283.03125"
   id="svg2">
  <metadata
     id="metadata3077">
    <rdf:RDF>
      <cc:Work
         rdf:about="">
        <dc:format>image/svg+xml</dc:format>
        <dc:type
           rdf:resource="http://purl.org/dc/dcmitype/StillImage" />
        <dc:title></dc:title>
      </cc:Work>
    </rdf:RDF>
  </metadata>
  <defs
     id="defs3075" />
  <g
     id="g3089">
    <path
       d="m 188.542,272.167 c 0,5.773 -4.68,10.453 -10.453,10.453 H 10.851 C 5.08,282.62 0.4,277.94 0.4,272.167 V 10.855 C 0.4,5.08 5.08,0.4 10.851,0.4 h 167.238 c 5.773,0 10.453,4.68 10.453,10.455 v 261.312 z"
       id="path3053"
       style="fill:#ffffff" />
    <path
       d="m 188.542,272.167 c 0,5.773 -4.68,10.453 -10.453,10.453 H 10.851 C 5.08,282.62 0.4,277.94 0.4,272.167 V 10.855 C 0.4,5.08 5.08,0.4 10.851,0.4 h 167.238 c 5.773,0 10.453,4.68 10.453,10.455 v 261.312 z"
       id="path3055"
       style="fill:none;stroke:#1c1d20;stroke-width:0.80000001;stroke-miterlimit:3.86400008" />
    <path
       d="m 183.945,10.855 c 0,-3.236 -2.621,-5.859 -5.855,-5.859 H 10.851 C 7.621,4.996 5,7.619 5,10.855 v 261.313 c 0,3.234 2.621,5.855 5.852,5.855 H 178.09 c 3.234,0 5.855,-2.621 5.855,-5.855 V 10.855"
       id="path3057"
       style="fill:#19408b" />
    <path
       d="m 31.755,156.98 m 125.432,0 H 31.755 V 99.5 h 125.432 v 57.48 z"
       id="path3059"
       style="fill:#ffffff" />
    <path
       d="m 31.755,89.035 m 125.432,0 H 31.755 V 31.556 h 125.432 v 57.479 z"
       id="path3061"
       style="fill:#ffffff" />
    <path
       d="m 86.732,105.05 c -1.729,0 -1.633,1.633 -1.633,1.633 v 2.873 h -2.967 c -1.533,0 -1.436,1.432 -1.436,1.432 v 17.967 l 1.244,2.057 1.818,1.344 1.533,16.188 H 71.144 v 3.254 h 49.371 v -3.254 h -15.23 l 1.535,-16.188 1.816,-1.344 1.242,-1.721 v -18.303 c 0,0 0.098,-1.432 -1.43,-1.432 h -2.973 v -2.873 c 0,0 0.098,-1.633 -1.629,-1.633 10e-4,-0.099 -17.114,-0.099 -17.114,0"
       id="path3063"
       style="fill:#1c1d20" />
    <path
       d="m 85.003,126.123 m 20.563,0 H 85.005 v -12.549 h 20.561 v 12.549 z"
       id="path3065"
       style="fill:#ffffff" />
    <path
       d="m 80.904,128.519 -5.176,13.219 c 0,0 -2.252,4.219 -5.984,2.441 0,0.051 -3.879,-1.238 -2.396,-5.887 -0.047,-0.047 5.172,-14.033 5.172,-14.033 v -2.877 l 2.877,-7.707 h 1.053 c 0,0 1.436,-5.031 3.783,-4.844 0.049,-0.049 0.961,0.148 0.24,0.672 0,-0.088 -3.064,1.535 -2.637,4.412 -0.047,0 1.633,2.68 1.633,2.68 v 0.664 h 1.627 l -0.192,11.26"
       id="path3067"
       style="fill:#1c1d20" />
    <path
       d="m 76.785,121.332 -0.816,1.68 -1.004,0.768 -5.508,15.189 c 0,0 -0.813,2.434 1.055,3.207 -0.096,0.043 2.105,1.004 3.061,-1.348 -0.096,0 6.66,-17.432 6.66,-17.432 0,0 -0.908,-0.857 -0.764,-2.109 0.047,0 -1.057,0 -1.057,0 0,0 -1.484,0.912 -1.389,5.85 0.049,-0.053 -0.814,0 -0.814,0 0,0 0.047,-4.508 1.248,-5.797 l -0.672,-0.008"
       id="path3069"
       style="fill:#ffffff;fill-rule:evenodd" />
    <path
       d="m 101.214,37.087 c 0.77,0 0.719,0.619 0.719,0.619 0,0 -0.047,4.176 0,4.176 0,0.533 -0.531,0.533 -0.531,0.533 h -4.414 v 2.16 c 0,0 4.176,0.043 4.129,0 0.918,0 0.816,0.813 0.816,0.813 0,0 0,2.49 0,2.447 0,0.908 -0.867,0.863 -0.867,0.863 0,0 -1.051,0.098 -1.051,0 -3.363,0 -3.027,3.217 -3.027,3.217 v 6.664 l 1.535,1.543 c 0,0 0,21.5 0,21.449 0,0.771 -1.34,0.771 -1.34,0.771 -1.012,0 -1.486,0.625 -1.439,0.625 0,0.719 -1.396,0.863 -1.396,0.863 0,0 -1.387,-0.145 -1.387,-0.863 0.047,0 -0.432,-0.625 -1.445,-0.625 0,0 -1.34,0 -1.34,-0.771 0,0.051 0,-21.449 0,-21.449 l 1.533,-1.543 v -6.664 c 0,0 -0.24,-3.217 -3.932,-3.217 h -6.385 c 0,0 -0.385,0 -0.385,-0.527 0,0 0,-3.221 0,-3.172 0,-0.48 0.434,-0.424 0.434,-0.424 -0.049,0.043 10.268,0 10.268,0 v -2.16 H 81.343 c 0,0 -0.383,0 -0.383,-0.389 -0.049,-0.043 0,-2.832 0,-2.832 0,0 0,-0.436 0.432,-0.436 h 5.469 l 1.684,-1.672 c -0.001,0.001 12.619,-0.055 12.669,0.001"
       id="path3071"
       style="fill:#1c1d20" />
  </g>
</svg>
