<?xml version="1.0" encoding="UTF-8" standalone="no"?>
<!-- Created with Inkscape (http://www.inkscape.org/) -->

<svg
   xmlns:dc="http://purl.org/dc/elements/1.1/"
   xmlns:cc="http://creativecommons.org/ns#"
   xmlns:rdf="http://www.w3.org/1999/02/22-rdf-syntax-ns#"
   xmlns:svg="http://www.w3.org/2000/svg"
   xmlns="http://www.w3.org/2000/svg"
   version="1.2"
   width="493.21875"
   height="226.28125"
   id="svg2">
  <metadata
     id="metadata3303">
    <rdf:RDF>
      <cc:Work
         rdf:about="">
        <dc:format>image/svg+xml</dc:format>
        <dc:type
           rdf:resource="http://purl.org/dc/dcmitype/StillImage" />
        <dc:title></dc:title>
      </cc:Work>
    </rdf:RDF>
  </metadata>
  <defs
     id="defs3301" />
  <g
     id="g3404">
    <path
       d="m 492.832,199.976 c 0,14.313 -11.598,25.914 -25.918,25.914 H 249.21 c -14.318,0 -25.918,-11.602 -25.918,-25.914 V 70.38 c 0,-14.313 11.6,-25.92 25.918,-25.92 h 217.703 c 14.32,0 25.918,11.607 25.918,25.92 v 129.596 z"
       id="path3213"
       style="fill:#ffffff;stroke:#1c1d20;stroke-width:0.80000001" />
    <path
       d="m 492.832,199.976 c 0,14.313 -11.598,25.914 -25.918,25.914 H 249.21 c -14.318,0 -25.918,-11.602 -25.918,-25.914 V 70.38 c 0,-14.313 11.6,-25.92 25.918,-25.92 h 217.703 c 14.32,0 25.918,11.607 25.918,25.92 v 129.596 z"
       id="path3215"
       style="fill:none;stroke:#1c1d20;stroke-width:0.198;stroke-miterlimit:3.86400008" />
    <path
       d="m 218.109,199.976 c 0,14.313 -11.605,25.914 -25.92,25.914 H 26.316 C 12.003,225.89 0.4,214.288 0.4,199.976 V 70.38 C 0.4,56.067 12.004,44.46 26.316,44.46 h 165.873 c 14.314,0 25.92,11.607 25.92,25.92 v 129.596 z"
       id="path3217"
       style="fill:#ffffff" />
    <path
       d="m 218.109,199.976 c 0,14.313 -11.605,25.914 -25.92,25.914 H 26.316 C 12.003,225.89 0.4,214.288 0.4,199.976 V 70.38 C 0.4,56.067 12.004,44.46 26.316,44.46 h 165.873 c 14.314,0 25.92,11.607 25.92,25.92 v 129.596 z"
       id="path3219"
       style="fill:none;stroke:#1c1d20;stroke-width:0.80000001;stroke-miterlimit:3.86400008" />
    <path
       d="m 420.265,31.511 c 0,7.152 -5.805,12.949 -12.961,12.949 h -98.488 c -7.152,0 -12.957,-5.797 -12.957,-12.949 V 13.373 c 0,-7.168 5.805,-12.973 12.957,-12.973 h 98.488 c 7.156,0 12.961,5.805 12.961,12.973 v 18.138 z"
       id="path3221"
       style="fill:#ffffff" />
    <path
       d="m 420.265,31.511 c 0,7.152 -5.805,12.949 -12.961,12.949 h -98.488 c -7.152,0 -12.957,-5.797 -12.957,-12.949 V 13.373 c 0,-7.168 5.805,-12.973 12.957,-12.973 h 98.488 c 7.156,0 12.961,5.805 12.961,12.973 v 18.138 z"
       id="path3223"
       style="fill:none;stroke:#1c1d20;stroke-width:0.80000001;stroke-miterlimit:3.86400008" />
    <path
       d="m 60.007,101.48 m 101.08,0 H 60.007 V 70.378 h 101.08 v 31.102 z"
       id="path3225"
       style="fill:#e41408" />
    <path
       d="m 464.203,157.734 -5.414,-26.469 -6.704,10.524 -16.578,-19.133 -6.379,6.375 19.129,16.582 -10.515,6.703 26.461,5.418"
       id="polyline3227"
       style="fill:#1c1d20" />
    <path
       d="m 48.087,125.595 h 19.25 v 5 h -7 v 19 h -5.25 v -19 h -7 v -5 z"
       id="path3231"
       style="fill:#1c1d20" />
    <path
       d="m 70.28,125.595 h 16.5 v 4.75 h -11 v 4.5 h 9.75 v 4.75 h -9.75 v 4.75 h 12 v 5.25 h -17.5 v -24 z"
       id="path3233"
       style="fill:#1c1d20" />
    <path
       d="m 91.661,125.595 h 9.5 c 4.322,0 7.156,1.5 8.5,4.5 l 0.5,3.25 c 0,2.542 -1.584,4.792 -4.75,6.75 1.833,2.49 3.75,5.656 5.75,9.5 h -5.75 c -2.719,-4.885 -4.636,-7.969 -5.75,-9.25 h -2.25 l -0.5,0.5 v 8.75 h -5.25 v -24 z m 5.25,5.25 v 4.75 h 5.25 c 1.5,-0.219 2.25,-0.969 2.25,-2.25 v -0.5 c 0,-1.5 -1,-2.333 -3,-2.5 h -4 l -0.5,0.5 z"
       id="path3235"
       style="fill:#1c1d20" />
    <path
       d="m 115.666,125.095 h 5.25 v 14.5 c 0,2.823 1.75,4.406 5.25,4.75 2.438,-0.51 3.854,-1.844 4.25,-4 v -15.25 h 5.5 v 12 c 0,8.334 -3.5,12.5 -10.5,12.5 -5.084,0 -8.334,-2.916 -9.75,-8.75 v -15.75 z"
       id="path3237"
       style="fill:#1c1d20" />
    <path
       d="m 139.671,125.595 h 16.5 v 4.75 h -11 v 4.5 h 9.75 v 4.75 h -9.75 v 4.75 h 12 v 5.25 h -17.5 v -24 z"
       id="path3239"
       style="fill:#1c1d20" />
    <path
       d="m 161.052,125.595 h 5.25 v 19 h 10.25 v 5 h -15.5 v -24 z"
       id="path3241"
       style="fill:#1c1d20" />
    <path
       d="m 212.923,199.976 c 0,11.445 -9.283,20.727 -20.734,20.727 H 26.316 c -11.451,0 -20.732,-9.281 -20.732,-20.727 V 70.38 c 0,-11.449 9.281,-20.729 20.732,-20.729 h 165.873 c 11.451,0 20.734,9.279 20.734,20.729 v 129.596 z"
       id="path3243"
       style="fill:none;stroke:#1c1d20;stroke-width:4;stroke-miterlimit:3.86400008" />
    <path
       d="m 113.269,173.949 0,11.898 16.188,-3.644 -20.157,20.156 -20.16,-20.156 16.195,3.644 0,-11.898 7.934,0"
       id="polyline3245"
       style="fill:#1c1d20" />
    <path
       d="m 415.078,31.511 c 0,4.289 -3.477,7.77 -7.773,7.77 h -98.488 c -4.293,0 -7.77,-3.48 -7.77,-7.77 V 13.373 c 0,-4.301 3.477,-7.785 7.77,-7.785 h 98.488 c 4.297,0 7.773,3.484 7.773,7.785 v 18.138 z m 72.574,168.465 c 0,11.445 -9.285,20.727 -20.738,20.727 H 249.21 c -11.455,0 -20.738,-9.281 -20.738,-20.727 V 70.38 c 0,-11.449 9.283,-20.729 20.738,-20.729 h 217.703 c 11.453,0 20.738,9.279 20.738,20.729 v 129.596 z"
       id="path3247"
       style="fill:none;stroke:#1c1d20;stroke-width:4;stroke-miterlimit:3.86400008" />
    <path
       d="m 270.257,127.595 h 6.344 l 7.219,21 h -5.469 l -0.875,-3.063 h -7.656 l -0.875,3.063 h -5.25 l 6.562,-21 z m 3.063,6.344 -1.969,6.781 h 4.375 v -0.219 c -1.312,-4.375 -2.115,-6.562 -2.406,-6.562 z"
       id="path3251"
       style="fill:#1c1d20" />
    <path
       d="m 288.792,127.595 h 6.781 c 7.438,0 11.156,3.573 11.156,10.719 0,4.621 -2.042,7.83 -6.125,9.625 -1.495,0.438 -3.537,0.656 -6.125,0.656 h -5.688 v -21 z m 4.813,4.375 v 12.25 h 3.719 c 2.57,0 4.102,-1.896 4.594,-5.688 v -0.656 c 0,-3.181 -1.386,-5.149 -4.156,-5.906 h -4.157 z"
       id="path3253"
       style="fill:#1c1d20" />
    <path
       d="m 311.688,127.595 h 14.438 v 4.156 H 316.5 v 3.938 h 8.531 v 4.156 H 316.5 v 4.156 H 327 v 4.594 h -15.313 v -21 z"
       id="path3255"
       style="fill:#1c1d20" />
    <path
       d="m 331.768,127.595 h 5.031 l 5.469,7.438 5.688,-7.438 h 4.813 v 21 h -4.375 v -13.563 l -6.125,8.094 c -3.063,-4.521 -5.031,-7.219 -5.906,-8.094 v 13.563 h -4.594 v -21 z"
       id="path3257"
       style="fill:#1c1d20" />
    <path
       d="m 358.506,127.158 h 4.594 v 12.688 c 0,2.471 1.531,3.855 4.594,4.156 2.133,-0.446 3.372,-1.613 3.719,-3.5 v -13.344 h 4.813 v 10.5 c 0,7.292 -3.063,10.938 -9.188,10.938 -4.448,0 -7.292,-2.552 -8.531,-7.656 v -13.782 z"
       id="path3259"
       style="fill:#1c1d20" />
    <path
       d="m 381.102,127.595 h 14.219 v 4.156 l -8.313,11.813 v 0.219 h 8.969 v 4.813 h -15.094 v -3.938 c 0,-0.646 2.406,-4.22 7.219,-10.719 l 1.094,-1.75 v -0.219 h -8.094 v -4.375 z"
       id="path3261"
       style="fill:#1c1d20" />
    <path
       d="m 328.936,26.25 c -0.696,3.047 -3.167,5.185 -6.143,5.376 -3.36,0.191 -6.721,-1.824 -7.394,-5.184 1.344,-0.288 2.496,-0.865 3.841,-1.057 0.575,1.536 2.208,2.88 3.936,2.112 1.536,-0.768 1.92,-2.496 1.345,-4.032 -0.385,-1.056 -1.536,-1.92 -2.688,-1.729 -0.864,0.193 -1.633,0.577 -2.018,1.345 -1.439,-0.096 -2.975,-0.384 -4.416,-0.576 0.289,-3.168 0.864,-6.432 1.153,-9.6 3.84,0 7.68,0 11.52,0 0,1.248 0,2.496 0,3.744 -2.592,0.096 -5.279,-0.192 -7.872,0.096 0.096,0.576 -0.288,1.248 -0.097,1.824 1.537,-0.577 3.072,-0.577 4.608,-0.192 3.362,0.96 4.994,4.513 4.225,7.873 z"
       id="path3265"
       style="fill:#1c1d20" />
    <path
       d="m 388.36,24.617 c 0.157,2.212 0.097,4.417 0.097,6.625 -1.343,0 -2.688,0 -4.031,0 0,-4.417 0,-8.736 0,-13.152 1.248,0.096 2.494,-0.289 3.648,0.192 0.096,0 0.096,0.576 0.286,0.384 2.017,-1.344 4.8,-1.249 6.337,0.671 1.729,-1.727 4.417,-2.208 6.623,-0.864 1.346,0.864 2.114,2.208 2.114,3.744 0.191,2.977 0.095,6.048 0.095,9.024 -1.344,0 -2.688,0 -4.032,0 -0.097,-2.88 0.288,-5.76 -0.191,-8.64 -0.097,-0.576 -0.671,-0.865 -1.249,-1.056 -0.862,-0.192 -1.822,0.288 -1.92,1.056 -0.479,2.976 -0.096,5.76 -0.191,8.64 -1.345,0 -2.688,0 -4.031,0 -0.098,-2.88 0.287,-5.76 -0.193,-8.64 -0.095,-0.576 -0.672,-0.865 -1.246,-1.056 -1.827,-0.288 -2.211,1.729 -2.116,3.072 z"
       id="path3267"
       style="fill:#1c1d20" />
    <g
       id="g3271">
      <path
         d="m 368.874,19.914 c -0.385,-2.977 -2.017,-5.856 -4.897,-6.912 -3.456,-1.248 -7.582,-0.192 -9.312,3.168 -2.495,4.992 -2.016,12.672 3.649,14.879 3.166,1.345 7.256,0.361 9.12,-2.784 1.535,-2.591 1.726,-5.471 1.44,-8.351 z m -4.321,4.031 c -0.055,1.059 -0.384,2.112 -1.248,2.784 -1.536,1.152 -3.937,0.96 -4.991,-0.768 -0.386,-0.576 -0.48,-1.248 -0.48,-1.92 -0.193,-1.824 -0.385,-3.744 0.286,-5.472 0.48,-1.249 1.825,-1.824 3.074,-1.824 1.151,-0.096 2.303,0.48 2.88,1.536 0.862,1.729 0.575,3.744 0.479,5.664 z"
         id="path3273"
         style="fill:#1c1d20" />
    </g>
    <g
       id="g3277">
      <path
         d="m 344.009,13.001 c -3.456,-1.248 -7.585,-0.192 -9.313,3.168 -2.496,4.992 -2.016,12.672 3.647,14.879 2.592,1.056 5.665,0.672 7.776,-1.152 2.112,-1.92 2.742,-4.705 2.88,-7.392 0.194,-3.742 -1.15,-8.062 -4.99,-9.503 z m -0.673,13.728 c -1.536,1.248 -3.937,0.96 -4.992,-0.768 -0.384,-0.576 -0.479,-1.248 -0.479,-1.92 -0.191,-1.824 -0.384,-3.744 0.289,-5.472 0.671,-1.633 2.59,-2.208 4.127,-1.728 1.535,0.479 2.4,2.112 2.304,3.744 -0.125,2.111 0.576,4.609 -1.249,6.144 z"
         id="path3279"
         style="fill:#1c1d20" />
    </g>
    <path
       d="m 67.263,76.619 h 4.133 c 1.969,2.979 4.425,7.106 7.367,12.382 h 0.18 V 76.619 h 3.773 V 95.791 H 78.403 C 74.046,88.152 71.59,84.092 71.036,83.609 V 95.791 H 67.263 V 76.619 z"
       id="path3283"
       style="fill:#ffffff" />
    <path
       d="m 89.541,83.715 h 5.93 v 3.395 h -5.93 v -3.395 z"
       id="path3287"
       style="fill:#ffffff" />
    <path
       d="m 133.21,82.075 c -0.047,1.487 -0.72,2.976 -2.016,3.744 2.976,1.296 2.735,5.328 1.439,7.775 -1.056,1.969 -3.264,2.785 -5.327,2.88 -2.161,0.096 -4.513,-0.384 -6.048,-2.111 -1.056,-1.2 -1.488,-2.688 -1.729,-4.225 1.392,-0.192 2.833,-0.48 4.224,-0.72 0.048,1.104 0.624,2.16 1.68,2.544 0.864,0.287 1.777,0.239 2.641,-0.096 1.008,-0.433 1.488,-1.681 1.056,-2.688 -0.671,-1.488 -2.543,-1.296 -3.888,-1.296 0,-1.296 0,-2.641 0,-3.937 1.008,0 2.016,0.144 2.928,-0.431 0.672,-0.433 0.912,-1.2 0.816,-1.969 -0.144,-0.912 -0.96,-1.535 -1.824,-1.631 -0.864,-0.096 -1.824,0 -2.544,0.575 -0.624,0.529 -0.816,1.296 -0.912,2.064 -1.344,-0.096 -2.688,-0.383 -4.033,-0.479 -0.192,-2.736 1.728,-5.232 4.368,-5.952 2.688,-0.769 5.76,-0.433 7.728,1.727 1.008,1.153 1.489,2.69 1.441,4.226 z"
       id="path3289"
       style="fill:#ffffff" />
    <g
       id="g3293">
      <path
         d="m 152.986,80.923 c -0.864,-2.64 -2.976,-4.8 -5.809,-5.185 -1.776,-0.24 -3.504,-0.048 -5.04,1.008 -1.248,0.865 -2.112,1.969 -2.736,3.312 -1.008,2.257 -1.2,4.753 -1.104,7.2 0.134,3.408 1.44,7.2 4.704,8.736 2.832,1.296 6.336,0.673 8.352,-1.823 1.536,-1.873 2.208,-4.128 2.353,-6.433 0.144,-2.303 0,-4.607 -0.72,-6.815 z m -3.553,6.864 c 0,0.719 -0.095,1.44 -0.335,2.16 -0.528,1.344 -1.872,2.256 -3.312,2.16 -1.248,-0.095 -2.353,-0.912 -2.832,-2.063 -0.336,-0.912 -0.432,-1.919 -0.432,-2.879 0,-2.257 -0.432,-5.136 1.872,-6.577 1.776,-1.104 4.128,-0.048 4.704,1.825 0.575,1.774 0.431,3.599 0.335,5.374 z"
         id="path3295"
         style="fill:#ffffff" />
    </g>
    <path
       d="m 114.297,82.075 c -0.046,1.487 -0.72,2.976 -2.016,3.744 2.977,1.296 2.736,5.328 1.44,7.775 -1.056,1.969 -3.264,2.785 -5.328,2.88 -2.16,0.096 -4.512,-0.384 -6.048,-2.111 -1.056,-1.2 -1.488,-2.688 -1.728,-4.225 1.392,-0.192 2.832,-0.48 4.224,-0.72 0.048,1.104 0.624,2.16 1.68,2.544 0.864,0.287 1.776,0.239 2.64,-0.096 1.008,-0.433 1.488,-1.681 1.056,-2.688 -0.672,-1.488 -2.544,-1.296 -3.888,-1.296 0,-1.296 0,-2.641 0,-3.937 1.008,0 2.016,0.144 2.928,-0.431 0.671,-0.433 0.912,-1.2 0.816,-1.969 -0.145,-0.912 -0.96,-1.535 -1.824,-1.631 -0.864,-0.096 -1.824,0 -2.544,0.575 -0.624,0.529 -0.816,1.296 -0.912,2.064 -1.344,-0.096 -2.688,-0.383 -4.032,-0.479 -0.192,-2.736 1.728,-5.232 4.368,-5.952 2.688,-0.769 5.76,-0.433 7.729,1.727 1.008,1.153 1.488,2.69 1.439,4.226 z"
       id="path3297"
       style="fill:#ffffff" />
  </g>
</svg>
