<?xml version="1.0" encoding="UTF-8" standalone="no"?>
<!-- Created with Inkscape (http://www.inkscape.org/) -->

<svg
   xmlns:dc="http://purl.org/dc/elements/1.1/"
   xmlns:cc="http://creativecommons.org/ns#"
   xmlns:rdf="http://www.w3.org/1999/02/22-rdf-syntax-ns#"
   xmlns:svg="http://www.w3.org/2000/svg"
   xmlns="http://www.w3.org/2000/svg"
   version="1.2"
   width="188.6875"
   height="282.625"
   id="svg2">
  <metadata
     id="metadata3075">
    <rdf:RDF>
      <cc:Work
         rdf:about="">
        <dc:format>image/svg+xml</dc:format>
        <dc:type
           rdf:resource="http://purl.org/dc/dcmitype/StillImage" />
        <dc:title></dc:title>
      </cc:Work>
    </rdf:RDF>
  </metadata>
  <defs
     id="defs3073" />
  <g
     id="g3082">
    <path
       d="m 188.279,271.785 c 0,5.766 -4.672,10.438 -10.438,10.438 H 10.833 c -5.758,0 -10.434,-4.672 -10.434,-10.438 V 10.835 C 0.4,5.072 5.076,0.4 10.833,0.4 h 167.008 c 5.766,0 10.438,4.672 10.438,10.436 v 260.949 z"
       id="path3061"
       style="fill:#ffffff" />
    <path
       d="m 188.279,271.785 c 0,5.766 -4.672,10.438 -10.438,10.438 H 10.833 c -5.758,0 -10.434,-4.672 -10.434,-10.438 V 10.835 C 0.4,5.072 5.076,0.4 10.833,0.4 h 167.008 c 5.766,0 10.438,4.672 10.438,10.436 v 260.949 z"
       id="path3063"
       style="fill:none;stroke:#1c1d20;stroke-width:0.80000001;stroke-miterlimit:3.86400008" />
    <path
       d="m 183.689,10.835 c 0,-3.223 -2.617,-5.844 -5.848,-5.844 H 10.833 c -3.223,0 -5.844,2.621 -5.844,5.844 v 260.949 c 0,3.227 2.621,5.852 5.844,5.852 h 167.008 c 3.23,0 5.848,-2.625 5.848,-5.852 V 10.835"
       id="path3065"
       style="fill:#19408b" />
    <path
       d="m 31.712,156.972 m 125.25,0 H 31.712 V 31.712 h 125.25 v 125.26 z"
       id="path3067"
       style="fill:#ffffff" />
    <path
       d="m 110.74,52.628 c 1.469,0 1.375,1.195 1.375,1.195 0,0 -0.09,8.016 0,8.016 0,1.016 -1.008,1.016 -1.008,1.016 h -8.473 v 4.137 c 0,0 8.012,0.092 7.918,0 1.746,0 1.563,1.568 1.563,1.568 0,0 0,4.787 0,4.695 0,1.744 -1.656,1.652 -1.656,1.652 0,0 -2.023,0.188 -2.023,0 -6.445,0 -5.801,6.168 -5.801,6.168 v 12.801 l 2.945,2.947 c 0,0 0,41.236 0,41.145 0,1.477 -2.578,1.477 -2.578,1.477 -1.93,0 -2.852,1.199 -2.758,1.199 0,1.375 -2.668,1.652 -2.668,1.652 0,0 -2.672,-0.277 -2.672,-1.652 0.09,0 -0.828,-1.199 -2.766,-1.199 0,0 -2.574,0 -2.574,-1.477 0,0.092 0,-41.145 0,-41.145 l 2.945,-2.947 v -12.8 c 0,0 -0.461,-6.168 -7.551,-6.168 H 72.72 c 0,0 -0.742,0 -0.742,-1.012 0,0 0,-6.168 0,-6.068 0,-0.932 0.832,-0.836 0.832,-0.836 -0.09,0.092 19.699,0 19.699,0 V 62.855 H 72.626 c 0,0 -0.738,0 -0.738,-0.738 -0.094,-0.094 0,-5.43 0,-5.43 0,0 0,-0.832 0.832,-0.832 h 10.492 l 3.223,-3.227 c 0,0 24.211,-0.087 24.305,0"
       id="path3069"
       style="fill:#1c1d20" />
  </g>
</svg>
