<?xml version="1.0" encoding="UTF-8" standalone="no"?>
<svg
   xmlns:dc="http://purl.org/dc/elements/1.1/"
   xmlns:cc="http://creativecommons.org/ns#"
   xmlns:rdf="http://www.w3.org/1999/02/22-rdf-syntax-ns#"
   xmlns:svg="http://www.w3.org/2000/svg"
   xmlns="http://www.w3.org/2000/svg"
   xmlns:sodipodi="http://sodipodi.sourceforge.net/DTD/sodipodi-0.dtd"
   xmlns:inkscape="http://www.inkscape.org/namespaces/inkscape"
   version="1.2"
   width="500"
   height="95"
   id="svg2"
   sodipodi:docname="ES_S750.svg"
   inkscape:version="1.0.1 (3bc2e813f5, 2020-09-07)">
  <sodipodi:namedview
     pagecolor="#ffffff"
     bordercolor="#666666"
     borderopacity="1"
     objecttolerance="10"
     gridtolerance="10"
     guidetolerance="10"
     inkscape:pageopacity="0"
     inkscape:pageshadow="2"
     inkscape:window-width="1920"
     inkscape:window-height="1027"
     id="namedview906"
     showgrid="false"
     inkscape:zoom="5.6568542"
     inkscape:cx="377.2538"
     inkscape:cy="45.787216"
     inkscape:window-x="-8"
     inkscape:window-y="-8"
     inkscape:window-maximized="1"
     inkscape:current-layer="layer10"
     fit-margin-top="0"
     fit-margin-left="0"
     fit-margin-right="0"
     fit-margin-bottom="0"
     inkscape:document-rotation="0"
     inkscape:showpageshadow="false"
     inkscape:pagecheckerboard="true" />
  <metadata
     id="metadata3197">
    <rdf:RDF>
      <cc:Work
         rdf:about="">
        <dc:format>image/svg+xml</dc:format>
        <dc:type
           rdf:resource="http://purl.org/dc/dcmitype/StillImage" />
        <dc:title />
      </cc:Work>
    </rdf:RDF>
  </metadata>
  <defs
     id="defs3195" />
  <g
     inkscape:groupmode="layer"
     id="layer3"
     inkscape:label="Layer 1"
     transform="translate(0,-1.288889)"
     style="display:inline" />
  <g
     inkscape:groupmode="layer"
     id="layer5"
     inkscape:label="Layer 3"
     transform="translate(0,-1.288889)"
     style="display:inline">
    <text
       xml:space="preserve"
       style="font-size:42.6667px;line-height:25px;font-family:'Andale Mono IPA';-inkscape-font-specification:'Andale Mono IPA';letter-spacing:0px;word-spacing:0px;fill:none;stroke:#000000;stroke-width:1px;stroke-linecap:butt;stroke-linejoin:miter;stroke-opacity:1"
       x="133.73573"
       y="169.69092"
       id="text1522"><tspan
         sodipodi:role="line"
         id="tspan1520"
         x="133.73573"
         y="169.69092" /></text>
  </g>
  <g
     inkscape:groupmode="layer"
     id="layer1"
     inkscape:label="Layer 2"
     transform="translate(0,-1.288889)"
     style="display:inline" />
  <g
     inkscape:groupmode="layer"
     id="layer2"
     inkscape:label="Layer 4"
     style="display:inline;opacity:1" />
  <g
     inkscape:groupmode="layer"
     id="layer4"
     inkscape:label="Layer 5"
     style="display:inline;opacity:1">
    <rect
       style="fill:#b3b3b3;fill-opacity:1;stroke-linecap:round;stroke-linejoin:round"
       id="rect4893"
       width="499.40002"
       height="92.244446"
       x="0.04444512"
       y="1.2000033" />
  </g>
  <g
     inkscape:groupmode="layer"
     id="layer6"
     inkscape:label="Layer 6"
     style="display:inline;opacity:1">
    <text
       xml:space="preserve"
       style="font-style:normal;font-variant:normal;font-weight:normal;font-stretch:normal;font-size:32.6231px;line-height:19.1151px;font-family:'Highway Gothic Wide';-inkscape-font-specification:'Highway Gothic Wide';letter-spacing:1.40596px;word-spacing:0px;fill:#ffffff;stroke:none;stroke-width:1px;stroke-linecap:butt;stroke-linejoin:miter;stroke-opacity:1"
       x="17.073639"
       y="60.961712"
       id="text4898"><tspan
         sodipodi:role="line"
         id="tspan4896"
         x="17.073639"
         y="60.961712"
         style="font-style:normal;font-variant:normal;font-weight:normal;font-stretch:normal;font-family:'Highway Gothic Wide';-inkscape-font-specification:'Highway Gothic Wide';fill:#ffffff;stroke-width:1px"><tspan
   style="font-style:normal;font-variant:normal;font-weight:normal;font-stretch:normal;font-family:TrafficTypeW01-SpainD;-inkscape-font-specification:TrafficTypeW01-SpainD;letter-spacing:3px"
   id="tspan201570">zona industrial</tspan> </tspan></text>
  </g>
  <g
     inkscape:groupmode="layer"
     id="layer7"
     inkscape:label="Layer 7"
     style="display:inline;opacity:1" />
  <g
     inkscape:groupmode="layer"
     id="layer8"
     inkscape:label="Layer 8"
     style="display:inline;opacity:1">
    <path
       id="rect4910"
       style="fill:#ffffff;stroke:none;stroke-width:1;stroke-linecap:round;stroke-linejoin:round"
       d="m 455.87588,14.19247 33.0376,33.23854 -31.91838,32.80976 -19.0251,-0.200949 24.93517,-25.74654 -39.91185,0.306279 0.0877,-13.37895 40.29138,-0.45606 -25.40747,-26.529969 z"
       sodipodi:nodetypes="cccccccccc" />
  </g>
  <g
     inkscape:groupmode="layer"
     id="layer9"
     inkscape:label="Layer 9"
     style="opacity:1" />
  <g
     inkscape:groupmode="layer"
     id="layer10"
     inkscape:label="Layer 10"
     style="display:inline;opacity:1">
    <rect
       style="display:inline;fill:#ffffff;stroke:none;stroke-linecap:round;stroke-linejoin:round"
       id="rect6155"
       width="64.346718"
       height="63.63961"
       x="347.76703"
       y="16.440233" />
    <path
       style="display:inline;opacity:0.70324;fill:#000000;stroke-width:0.999999;stroke-linecap:round;stroke-linejoin:round"
       d="m 356.22555,45.618723 v 20.000013 h 45 2.82843 l -1.41422,-36.591005 -4.29289,0.353385 -2.12132,26.237481 -11.46447,-9.823257 1.46447,9.823257 -15,-10.000025 v 10.000025 z"
       id="path201594"
       sodipodi:nodetypes="cccccccccccc" />
    <rect
       style="display:inline;opacity:0.70324;fill:#000000;stroke-width:0.999999;stroke-linecap:round;stroke-linejoin:round"
       id="rect201596"
       width="53.916897"
       height="1.767767"
       x="353.73538"
       y="66.179642" />
    <path
       style="display:inline;opacity:0.70324;fill:#000000;stroke-width:0.999999;stroke-linecap:round;stroke-linejoin:round"
       d="m 380.42865,26.404927 -15.73312,-2.65164 v 0"
       id="path201600" />
    <path
       style="display:inline;opacity:0.70324;fill:#000000;stroke-width:0.999999;stroke-linecap:round;stroke-linejoin:round"
       d="m 364.69553,23.753287 v 0"
       id="path201602" />
    <g
       aria-label="("
       transform="matrix(0,3.5444789,3.0209071,0,223.6078,-380.20716)"
       id="text100862-1"
       style="font-style:normal;font-variant:normal;font-weight:normal;font-stretch:normal;font-size:4.93889px;line-height:2.89388px;font-family:sans-serif;-inkscape-font-specification:sans-serif;letter-spacing:0px;word-spacing:0px;display:inline;opacity:0.70324;fill:#000000;stroke:#000000;stroke-width:0.305601px;stroke-linecap:butt;stroke-linejoin:miter;stroke-opacity:1">
      <path
         d="m 114.1948,58.621275 -0.48209,-0.187089 c -0.28457,-0.326365 -0.50563,-0.682473 -0.66318,-1.068324 -0.15755,-0.385851 -0.23633,-0.820737 -0.23633,-1.304658 0,-0.483921 0.0788,-0.918807 0.23633,-1.304658 0.15755,-0.385851 0.37861,-0.741959 0.66318,-1.068324 l 0.15469,-0.08185 0.0819,0.14104 c -0.13023,0.117363 -0.25482,0.253215 -0.37379,0.407555 -0.11737,0.152733 -0.23242,0.336689 -0.32798,0.535368 -0.0956,0.198679 -0.17524,0.415594 -0.23633,0.653535 -0.0595,0.237941 -0.0892,0.488744 -0.0892,0.752409 0,0.274919 0.0289,0.526525 0.0868,0.75482 0.0595,0.228295 0.14242,0.452842 0.23874,0.651124 0.0963,0.198282 0.21195,0.378259 0.33039,0.535368 0.11843,0.157109 0.24759,0.296622 0.37138,0.407555 z"
         style="font-style:normal;font-variant:normal;font-weight:normal;font-stretch:normal;font-size:4.93889px;font-family:sans-serif;-inkscape-font-specification:sans-serif;fill:#000000;stroke-width:0.305601px"
         id="path100864-3"
         sodipodi:nodetypes="ccsssccccccsccccc" />
    </g>
    <g
       aria-label="("
       transform="matrix(0,-3.5444789,3.0209071,0,204.46587,428.95804)"
       id="text100862-1-3"
       style="font-style:normal;font-variant:normal;font-weight:normal;font-stretch:normal;font-size:4.93889px;line-height:2.89388px;font-family:sans-serif;-inkscape-font-specification:sans-serif;letter-spacing:0px;word-spacing:0px;display:inline;opacity:0.70324;fill:#000000;stroke:#000000;stroke-width:0.305601px;stroke-linecap:butt;stroke-linejoin:miter;stroke-opacity:1">
      <path
         d="m 114.1948,58.621275 -0.48209,-0.187089 c -0.28457,-0.326365 -0.50563,-0.682473 -0.66318,-1.068324 -0.15755,-0.385851 -0.23633,-0.820737 -0.23633,-1.304658 0,-0.483921 0.0788,-0.918807 0.23633,-1.304658 0.15755,-0.385851 0.37861,-0.741959 0.66318,-1.068324 l 0.15469,-0.08185 0.0819,0.14104 c -0.13023,0.117363 -0.25482,0.253215 -0.37379,0.407555 -0.11737,0.152733 -0.23242,0.336689 -0.32798,0.535368 -0.0956,0.198679 -0.17524,0.415594 -0.23633,0.653535 -0.0595,0.237941 -0.0892,0.488744 -0.0892,0.752409 0,0.274919 0.0289,0.526525 0.0868,0.75482 0.0595,0.228295 0.14242,0.452842 0.23874,0.651124 0.0963,0.198282 0.21195,0.378259 0.33039,0.535368 0.11843,0.157109 0.24759,0.296622 0.37138,0.407555 z"
         style="font-style:normal;font-variant:normal;font-weight:normal;font-stretch:normal;font-size:4.93889px;font-family:sans-serif;-inkscape-font-specification:sans-serif;fill:#000000;stroke-width:0.305601px"
         id="path100864-3-4"
         sodipodi:nodetypes="ccsssccccccsccccc" />
    </g>
    <rect
       style="opacity:1;fill:#ffffff;fill-opacity:1;stroke-width:50.0001;stroke-linecap:round;stroke-linejoin:round"
       id="rect100935"
       width="9.0156116"
       height="4.2868347"
       x="359.61322"
       y="55.970806" />
    <rect
       style="display:inline;opacity:1;fill:#ffffff;fill-opacity:0.99734747;stroke-width:50.0001;stroke-linecap:round;stroke-linejoin:round"
       id="rect100935-2"
       width="9.0156116"
       height="4.2868347"
       x="373.57855"
       y="55.948692" />
    <rect
       style="display:inline;opacity:1;fill:#ffffff;fill-opacity:1;stroke-width:50.0001;stroke-linecap:round;stroke-linejoin:round"
       id="rect100935-2-6"
       width="9.0156116"
       height="4.2868347"
       x="387.67648"
       y="56.125511" />
  </g>
</svg>
