<?xml version="1.0" encoding="UTF-8" standalone="no"?>
<!-- Created with Inkscape (http://www.inkscape.org/) -->

<svg
   xmlns:dc="http://purl.org/dc/elements/1.1/"
   xmlns:cc="http://creativecommons.org/ns#"
   xmlns:rdf="http://www.w3.org/1999/02/22-rdf-syntax-ns#"
   xmlns:svg="http://www.w3.org/2000/svg"
   xmlns="http://www.w3.org/2000/svg"
   version="1.2"
   width="188.9375"
   height="283.03125"
   id="svg2">
  <metadata
     id="metadata3111">
    <rdf:RDF>
      <cc:Work
         rdf:about="">
        <dc:format>image/svg+xml</dc:format>
        <dc:type
           rdf:resource="http://purl.org/dc/dcmitype/StillImage" />
        <dc:title></dc:title>
      </cc:Work>
    </rdf:RDF>
  </metadata>
  <defs
     id="defs3109" />
  <g
     id="g3141">
    <path
       d="m 188.548,272.167 c 0,5.773 -4.68,10.457 -10.453,10.457 H 10.853 C 5.08,282.624 0.4,277.94 0.4,272.167 V 10.853 C 0.4,5.08 5.08,0.4 10.853,0.4 h 167.242 c 5.773,0 10.453,4.68 10.453,10.453 v 261.314 z"
       id="path3089"
       style="fill:#ffffff" />
    <path
       d="m 188.548,272.167 c 0,5.773 -4.68,10.457 -10.453,10.457 H 10.853 C 5.08,282.624 0.4,277.94 0.4,272.167 V 10.853 C 0.4,5.08 5.08,0.4 10.853,0.4 h 167.242 c 5.773,0 10.453,4.68 10.453,10.453 v 261.314 z"
       id="path3091"
       style="fill:none;stroke:#1c1d20;stroke-width:0.80000001;stroke-miterlimit:3.86400008" />
    <path
       d="m 183.947,10.853 c 0,-3.232 -2.621,-5.857 -5.852,-5.857 H 10.853 c -3.23,0 -5.855,2.625 -5.855,5.857 v 261.314 c 0,3.23 2.625,5.855 5.855,5.855 h 167.242 c 3.23,0 5.852,-2.625 5.852,-5.855 V 10.853"
       id="path3093"
       style="fill:#19408b" />
    <path
       d="m 31.759,157.187 m 125.43,0 H 31.759 V 31.751 h 125.43 v 125.436 z"
       id="path3095"
       style="fill:#ffffff" />
    <path
       d="m 137.326,128.445 c 0,-2.02 1.641,-3.66 3.66,-3.66 2.019,0 3.66,1.641 3.66,3.66 0,2.019 -1.641,3.664 -3.66,3.664 -2.019,0 -3.66,-1.645 -3.66,-3.664"
       id="path3097"
       style="fill:#1c1d20" />
    <path
       d="m 70.435,123.736 c 0,-4.611 3.738,-8.355 8.359,-8.355 4.617,0 8.359,3.744 8.359,8.355 0,4.625 -3.742,8.373 -8.359,8.373 -4.621,0 -8.359,-3.748 -8.359,-8.373"
       id="path3099"
       style="fill:#1c1d20" />
    <path
       d="m 145.626,124.021 v -2.76 c 0,0 -23.227,0 -23.043,0 6.082,-2.033 3.5,-9.781 3.5,-9.781 0,0 -3.867,-23.779 -3.5,-23.779 -0.742,-3.5 -4.246,-5.16 -4.059,-4.973 -17.332,-8.309 -35.586,-7.012 -35.953,-7.012 -30.789,0 -36.688,8.852 -36.871,9.039 -3.32,2.576 -2.398,4.98 -2.398,4.98 v 27.832 l 2.211,3.869 4.242,2.395 17.016,0.43 c 0,-6.633 5.383,-12.025 12.023,-12.025 6.637,0 12.02,5.393 12.02,12.025 l 54.812,-0.24"
       id="path3101"
       style="fill:#1c1d20" />
    <path
       d="m 113.365,86.041 c 1.473,0 1.473,1.48 1.473,1.48 v 28.947 H 99.904 V 87.521 c 0,0 0,-1.48 1.477,-1.48 -0.001,-0.18 11.984,-0.18 11.984,0"
       id="path3103"
       style="fill:#ffffff" />
    <path
       d="m 77.595,86.22 c 1.66,0 1.66,1.66 1.66,1.66 v 13.1 H 48.279 v -13.1 c 0,0 0,-1.66 1.66,-1.66 0.184,-0.179 27.473,-0.179 27.656,0"
       id="path3105"
       style="fill:#ffffff" />
  </g>
</svg>
