<?xml version="1.0" encoding="UTF-8" standalone="no"?>
<svg
   xmlns:dc="http://purl.org/dc/elements/1.1/"
   xmlns:cc="http://creativecommons.org/ns#"
   xmlns:rdf="http://www.w3.org/1999/02/22-rdf-syntax-ns#"
   xmlns:svg="http://www.w3.org/2000/svg"
   xmlns="http://www.w3.org/2000/svg"
   xmlns:sodipodi="http://sodipodi.sourceforge.net/DTD/sodipodi-0.dtd"
   xmlns:inkscape="http://www.inkscape.org/namespaces/inkscape"
   version="1.2"
   width="378.41077"
   height="180.22069"
   id="svg2"
   sodipodi:docname="ES_S860-bicycle.svg"
   inkscape:version="1.0.1 (3bc2e813f5, 2020-09-07)">
  <sodipodi:namedview
     pagecolor="#ffffff"
     bordercolor="#666666"
     borderopacity="1"
     objecttolerance="10"
     gridtolerance="10"
     guidetolerance="10"
     inkscape:pageopacity="0"
     inkscape:pageshadow="2"
     inkscape:window-width="1920"
     inkscape:window-height="1027"
     id="namedview906"
     showgrid="false"
     inkscape:zoom="1"
     inkscape:cx="154.85441"
     inkscape:cy="88.440896"
     inkscape:window-x="-8"
     inkscape:window-y="-8"
     inkscape:window-maximized="1"
     inkscape:current-layer="layer11"
     fit-margin-top="0"
     fit-margin-left="0"
     fit-margin-right="0"
     fit-margin-bottom="0"
     inkscape:document-rotation="0"
     inkscape:showpageshadow="false"
     inkscape:pagecheckerboard="true" />
  <metadata
     id="metadata3197">
    <rdf:RDF>
      <cc:Work
         rdf:about="">
        <dc:format>image/svg+xml</dc:format>
        <dc:type
           rdf:resource="http://purl.org/dc/dcmitype/StillImage" />
        <dc:title></dc:title>
      </cc:Work>
    </rdf:RDF>
  </metadata>
  <defs
     id="defs3195" />
  <path
     d="m 378.41078,148.68248 c 0,17.41595 -17.734,31.5382 -39.613,31.5382 H 39.613 C 17.734,180.22068 0,166.09843 0,148.68248 V 31.536609 C 0,14.112694 17.734,0 39.613,0 h 299.18478 c 21.879,0 39.613,14.11349 39.613,31.536609 V 148.68248"
     id="path3113"
     style="display:inline;fill:#ffffff;stroke-width:1"
     sodipodi:nodetypes="csssssssc" />
  <path
     d="m 371.36822,139.77331 c 0,18.396 -15.017,33.313 -33.54,33.313 H 41.894 c -18.525,0 -33.542,-14.918 -33.542,-33.313 V 41.026 c 0,-18.4 15.017,-33.315 33.542,-33.315 h 295.93422 c 18.523,0 33.54,14.915 33.54,33.315 z"
     id="path3115"
     style="display:inline;fill:#ffffff;stroke:#000000;stroke-width:14;stroke-miterlimit:3.864;stroke-dasharray:none"
     sodipodi:nodetypes="sssssssss" />
  <g
     inkscape:groupmode="layer"
     id="layer3"
     inkscape:label="Layer 1"
     transform="translate(0,-1.288889)"
     style="display:inline" />
  <g
     inkscape:groupmode="layer"
     id="layer5"
     inkscape:label="Layer 3"
     transform="translate(0,-1.288889)"
     style="display:inline">
    <text
       xml:space="preserve"
       style="font-size:42.6667px;line-height:25px;font-family:'Andale Mono IPA';-inkscape-font-specification:'Andale Mono IPA';letter-spacing:0px;word-spacing:0px;fill:none;stroke:#000000;stroke-width:1px;stroke-linecap:butt;stroke-linejoin:miter;stroke-opacity:1"
       x="133.73573"
       y="169.69092"
       id="text1522"><tspan
         sodipodi:role="line"
         id="tspan1520"
         x="133.73573"
         y="169.69092" /></text>
  </g>
  <g
     inkscape:groupmode="layer"
     id="layer1"
     inkscape:label="Layer 2"
     transform="translate(0,-1.288889)"
     style="display:inline" />
  <g
     inkscape:groupmode="layer"
     id="layer9"
     inkscape:label="Layer 4"
     style="opacity:0.48519362" />
  <g
     inkscape:groupmode="layer"
     id="layer10"
     inkscape:label="Layer 5"
     style="display:inline;opacity:1">
    <path
       d="m 216.65939,113.30563 c 0,-20.157295 16.33465,-36.500366 36.50037,-36.500366 20.14887,0 36.49195,16.343071 36.49195,36.500366 0,20.1573 -16.34308,36.50037 -36.49195,36.50037 -20.1573,0 -36.50037,-16.34307 -36.50037,-36.50037"
       id="path3055"
       style="fill:#1c1d20;stroke-width:1" />
    <path
       d="m 80.585003,113.02777 c 0,-20.157292 16.334652,-36.500364 36.491947,-36.500364 20.1573,0 36.50037,16.343072 36.50037,36.500364 0,20.1573 -16.34307,36.49195 -36.50037,36.49195 -20.157295,0 -36.491947,-16.33465 -36.491947,-36.49195"
       id="path3057"
       style="fill:#1c1d20;stroke-width:1" />
    <path
       d="m 87.893497,113.02777 c 0,-16.115729 13.067723,-29.20871 29.183453,-29.20871 16.13258,0 29.2003,13.092981 29.2003,29.20871 0,16.12416 -13.06772,29.19188 -29.2003,29.19188 -16.11573,0 -29.183453,-13.06772 -29.183453,-29.19188"
       id="path3059"
       style="fill:#ffffff;stroke-width:1" />
    <path
       d="m 111.3514,111.84057 c 0,-3.54479 2.87962,-6.42441 6.42441,-6.42441 3.5532,0 6.43282,2.87962 6.43282,6.42441 0,3.5532 -2.87962,6.44124 -6.43282,6.44124 -3.54479,-0.008 -6.42441,-2.89646 -6.42441,-6.44124"
       id="path3061"
       style="fill:#1c1d20;stroke-width:1" />
    <path
       d="m 223.96788,113.30563 c 0,-16.124151 13.06772,-29.191873 29.19188,-29.191873 16.12415,0 29.19187,13.067722 29.19187,29.191873 0,16.12416 -13.06772,29.19188 -29.19187,29.19188 -16.12416,0 -29.19188,-13.06772 -29.19188,-29.19188"
       id="path3063"
       style="fill:#ffffff;stroke-width:1" />
    <path
       d="m 191.11334,121.75924 c -9.90183,0 -9.73343,-9.38822 -9.37979,-9.74186 0,-11.12271 9.55661,-10.76908 9.55661,-10.76908 l 62.38321,3.29219 c 3.55321,0 6.60964,4.03315 6.60964,7.58635 0,3.55321 -2.71121,7.36744 -6.26442,7.36744 0,0 -63.07365,2.26496 -62.90525,2.26496"
       id="path3065"
       style="fill:#1c1d20;stroke-width:1" />
    <path
       d="m 204.68626,105.69402 20.64565,-31.389474 17.73236,30.934804 11.29112,0.17681 -23.28951,-42.402731 5.04353,-8.697781 h 6.44124 c 0,0 2.43336,0.707273 2.43336,-2.593337 -0.17682,0 0,-7.485312 0,-7.485312 0,0 1.21247,-5.203513 -6.256,-2.256539 -0.17682,0 -18.42279,7.65371 -18.42279,7.65371 0,0 -5.03512,3.637407 0.69043,4.336261 0.17682,0 4.1847,0.176818 4.1847,0.176818 l -2.78699,6.432822 h -67.78039 c 0,0 3.83107,-2.963813 1.22089,-7.308494 0,0.176819 -2.77857,-4.689897 -2.77857,-4.689897 0,0 -2.61018,-3.30061 1.38928,-3.30061 h 21.72341 V 35.194001 h -22.06862 c 0,0 -15.6358,1.397707 -7.64529,17.715519 0,0.353637 1.91974,1.389288 -0.69044,5.56557 -0.35363,0.185238 -30.24436,49.71123 -30.24436,49.71123 l 7.30007,3.99104 22.59066,-36.660345 38.05805,33.182915 7.13168,-6.4244 -37.35921,-31.625231 h 63.07365 l -21.54658,32.256731 9.91867,2.78699"
       id="path3067"
       style="fill:#1c1d20;stroke-width:1" />
  </g>
  <g
     inkscape:groupmode="layer"
     id="layer11"
     inkscape:label="Layer 6"
     style="display:inline" />
</svg>
