<?xml version="1.0" encoding="UTF-8" standalone="no"?>
<svg
   xmlns:dc="http://purl.org/dc/elements/1.1/"
   xmlns:cc="http://creativecommons.org/ns#"
   xmlns:rdf="http://www.w3.org/1999/02/22-rdf-syntax-ns#"
   xmlns:svg="http://www.w3.org/2000/svg"
   xmlns="http://www.w3.org/2000/svg"
   xmlns:sodipodi="http://sodipodi.sourceforge.net/DTD/sodipodi-0.dtd"
   xmlns:inkscape="http://www.inkscape.org/namespaces/inkscape"
   version="1.2"
   width="493.23199"
   height="182.23"
   id="svg2"
   sodipodi:docname="ES_S362.svg"
   inkscape:version="1.0.1 (3bc2e813f5, 2020-09-07)">
  <sodipodi:namedview
     pagecolor="#ffffff"
     bordercolor="#666666"
     borderopacity="1"
     objecttolerance="10"
     gridtolerance="10"
     guidetolerance="10"
     inkscape:pageopacity="0"
     inkscape:pageshadow="2"
     inkscape:window-width="1920"
     inkscape:window-height="1027"
     id="namedview5751"
     showgrid="false"
     fit-margin-top="0"
     fit-margin-left="0"
     fit-margin-right="0"
     fit-margin-bottom="0"
     inkscape:zoom="2.1937528"
     inkscape:cx="245.6977"
     inkscape:cy="112.84125"
     inkscape:window-x="-8"
     inkscape:window-y="-8"
     inkscape:window-maximized="1"
     inkscape:current-layer="svg2"
     inkscape:showpageshadow="false"
     inkscape:pagecheckerboard="true" />
  <metadata
     id="metadata3303">
    <rdf:RDF>
      <cc:Work
         rdf:about="">
        <dc:format>image/svg+xml</dc:format>
        <dc:type
           rdf:resource="http://purl.org/dc/dcmitype/StillImage" />
        <dc:title></dc:title>
      </cc:Work>
    </rdf:RDF>
  </metadata>
  <defs
     id="defs3301" />
  <path
     d="m 492.832,155.916 c 0,14.313 -11.598,25.914 -25.918,25.914 H 249.21 c -14.318,0 -25.918,-11.602 -25.918,-25.914 V 26.32 c 0,-14.313 11.6,-25.91999999 25.918,-25.91999999 h 217.703 c 14.32,0 25.918,11.60699999 25.918,25.91999999 v 129.596 z"
     id="path3213"
     style="fill:#000080;stroke:#1c1d20;stroke-width:0.8" />
  <path
     d="m 492.832,155.916 c 0,14.313 -11.598,25.914 -25.918,25.914 H 249.21 c -14.318,0 -25.918,-11.602 -25.918,-25.914 V 26.32 c 0,-14.313 11.6,-25.91999999 25.918,-25.91999999 h 217.703 c 14.32,0 25.918,11.60699999 25.918,25.91999999 v 129.596 z"
     id="path3215"
     style="fill:none;stroke:#1c1d20;stroke-width:0.198;stroke-miterlimit:3.864" />
  <path
     d="m 218.109,155.916 c 0,14.313 -11.605,25.914 -25.92,25.914 H 26.316 C 12.003,181.83 0.40000001,170.228 0.40000001,155.916 V 26.32 C 0.40000001,12.007 12.004,0.40000001 26.316,0.40000001 h 165.873 c 14.314,0 25.92,11.60699999 25.92,25.91999999 z"
     id="path3217"
     style="fill:#ffffff" />
  <path
     d="m 218.109,155.916 c 0,14.313 -11.605,25.914 -25.92,25.914 H 26.316 C 12.003,181.83 0.40000001,170.228 0.40000001,155.916 V 26.32 C 0.40000001,12.007 12.004,0.40000001 26.316,0.40000001 h 165.873 c 14.314,0 25.92,11.60699999 25.92,25.91999999 z"
     id="path3219"
     style="fill:none;stroke:#1c1d20;stroke-width:0.8;stroke-miterlimit:3.864" />
  <path
     d="m 60.007,57.42 m 101.08,0 H 60.007 V 26.318 h 101.08 z"
     id="path3225"
     style="fill:#e41408" />
  <path
     d="m 48.087,81.535 h 19.25 v 5 h -7 v 19 h -5.25 v -19 h -7 z"
     id="path3231"
     style="fill:#1c1d20" />
  <path
     d="m 70.28,81.535 h 16.5 v 4.75 h -11 v 4.5 h 9.75 v 4.75 h -9.75 v 4.75 h 12 v 5.25 h -17.5 z"
     id="path3233"
     style="fill:#1c1d20" />
  <path
     d="m 91.661,81.535 h 9.5 c 4.322,0 7.156,1.5 8.5,4.5 l 0.5,3.25 c 0,2.542 -1.584,4.792 -4.75,6.75 1.833,2.49 3.75,5.656 5.75,9.5 h -5.75 c -2.719,-4.885 -4.636,-7.969 -5.75,-9.25 h -2.25 l -0.5,0.5 v 8.75 h -5.25 z m 5.25,5.25 v 4.75 h 5.25 c 1.5,-0.219 2.25,-0.969 2.25,-2.25 v -0.5 c 0,-1.5 -1,-2.333 -3,-2.5 h -4 z"
     id="path3235"
     style="fill:#1c1d20" />
  <path
     d="m 115.666,81.035 h 5.25 v 14.5 c 0,2.823 1.75,4.405998 5.25,4.75 2.438,-0.510002 3.854,-1.844 4.25,-4 v -15.25 h 5.5 v 12 c 0,8.334 -3.5,12.5 -10.5,12.5 -5.084,0 -8.334,-2.916 -9.75,-8.75 z"
     id="path3237"
     style="fill:#1c1d20" />
  <path
     d="m 139.671,81.535 h 16.5 v 4.75 h -11 v 4.5 h 9.75 v 4.75 h -9.75 v 4.75 h 12 v 5.25 h -17.5 z"
     id="path3239"
     style="fill:#1c1d20" />
  <path
     d="m 161.052,81.535 h 5.25 v 19 h 10.25 v 5 h -15.5 z"
     id="path3241"
     style="fill:#1c1d20" />
  <path
     d="m 212.923,155.916 c 0,11.445 -9.283,20.727 -20.734,20.727 H 26.316 c -11.451,0 -20.732,-9.281 -20.732,-20.727 V 26.32 c 0,-11.449 9.281,-20.729 20.732,-20.729 h 165.873 c 11.451,0 20.734,9.279 20.734,20.729 z"
     id="path3243"
     style="fill:none;stroke:#1c1d20;stroke-width:4;stroke-miterlimit:3.864" />
  <path
     d="m 113.269,129.889 v 11.898 l 16.188,-3.644 -20.157,20.156 -20.16,-20.156 16.195,3.644 v -11.898 h 7.934"
     id="polyline3245"
     style="fill:#1c1d20" />
  <path
     d="m 487.652,155.916 c 0,11.445 -9.285,20.727 -20.738,20.727 H 249.21 c -11.455,0 -20.738,-9.281 -20.738,-20.727 V 26.32 c 0,-11.449 9.283,-20.729 20.738,-20.729 h 217.703 c 11.453,0 20.738,9.279 20.738,20.729 v 129.596 z"
     id="path3247"
     style="fill:none;stroke:#ffffff;stroke-width:4;stroke-miterlimit:3.864"
     sodipodi:nodetypes="cssssssscc" />
  <path
     d="m 67.263,32.559 h 4.133 c 1.969,2.979 4.425,7.106 7.367,12.382 h 0.18 V 32.559 h 3.773 V 51.731 H 78.403 C 74.046,44.092 71.59,40.032 71.036,39.549 v 12.182 h -3.773 z"
     id="path3283"
     style="fill:#ffffff" />
  <path
     d="m 89.541,39.655 h 5.93 v 3.395 h -5.93 z"
     id="path3287"
     style="fill:#ffffff" />
  <path
     d="m 133.21,38.015 c -0.047,1.487 -0.72,2.976 -2.016,3.744 2.976,1.296 2.735,5.328 1.439,7.775 -1.056,1.969 -3.264,2.785 -5.327,2.88 -2.161,0.096 -4.513,-0.384 -6.048,-2.111 -1.056,-1.2 -1.488,-2.688 -1.729,-4.225 1.392,-0.192 2.833,-0.48 4.224,-0.72 0.048,1.104 0.624,2.16 1.68,2.544 0.864,0.287 1.777,0.239 2.641,-0.096 1.008,-0.433 1.488,-1.681 1.056,-2.688 -0.671,-1.488 -2.543,-1.296 -3.888,-1.296 0,-1.296 0,-2.641 0,-3.937 1.008,0 2.016,0.144 2.928,-0.431 0.672,-0.433 0.912,-1.2 0.816,-1.969 -0.144,-0.912 -0.96,-1.535 -1.824,-1.631 -0.864,-0.096 -1.824,0 -2.544,0.575 -0.624,0.529 -0.816,1.296 -0.912,2.064 -1.344,-0.096 -2.688,-0.383 -4.033,-0.479 -0.192,-2.736 1.728,-5.232 4.368,-5.952 2.688,-0.769 5.76,-0.433 7.728,1.727 1.008,1.153 1.489,2.69 1.441,4.226 z"
     id="path3289"
     style="fill:#ffffff" />
  <g
     id="g3293"
     transform="translate(-3.4039557e-8,-44.06)">
    <path
       d="m 152.986,80.923 c -0.864,-2.64 -2.976,-4.8 -5.809,-5.185 -1.776,-0.24 -3.504,-0.048 -5.04,1.008 -1.248,0.865 -2.112,1.969 -2.736,3.312 -1.008,2.257 -1.2,4.753 -1.104,7.2 0.134,3.408 1.44,7.2 4.704,8.736 2.832,1.296 6.336,0.673 8.352,-1.823 1.536,-1.873 2.208,-4.128 2.353,-6.433 0.144,-2.303 0,-4.607 -0.72,-6.815 z m -3.553,6.864 c 0,0.719 -0.095,1.44 -0.335,2.16 -0.528,1.344 -1.872,2.256 -3.312,2.16 -1.248,-0.095 -2.353,-0.912 -2.832,-2.063 -0.336,-0.912 -0.432,-1.919 -0.432,-2.879 0,-2.257 -0.432,-5.136 1.872,-6.577 1.776,-1.104 4.128,-0.048 4.704,1.825 0.575,1.774 0.431,3.599 0.335,5.374 z"
       id="path3295"
       style="fill:#ffffff" />
  </g>
  <path
     d="m 114.297,38.015 c -0.046,1.487 -0.72,2.976 -2.016,3.744 2.977,1.296 2.736,5.328 1.44,7.775 -1.056,1.969 -3.264,2.785 -5.328,2.88 -2.16,0.096 -4.512,-0.384 -6.048,-2.111 -1.056,-1.2 -1.488,-2.688 -1.728,-4.225 1.392,-0.192 2.832,-0.48 4.224,-0.72 0.048,1.104 0.624,2.16 1.68,2.544 0.864,0.287 1.776,0.239 2.64,-0.096 1.008,-0.433 1.488,-1.681 1.056,-2.688 -0.672,-1.488 -2.544,-1.296 -3.888,-1.296 0,-1.296 0,-2.641 0,-3.937 1.008,0 2.016,0.144 2.928,-0.431 0.671,-0.433 0.912,-1.2 0.816,-1.969 -0.145,-0.912 -0.96,-1.535 -1.824,-1.631 -0.864,-0.096 -1.824,0 -2.544,0.575 -0.624,0.529 -0.816,1.296 -0.912,2.064 -1.344,-0.096 -2.688,-0.383 -4.032,-0.479 -0.192,-2.736 1.728,-5.232 4.368,-5.952 2.688,-0.769 5.76,-0.433 7.729,1.727 1.008,1.153 1.488,2.69 1.439,4.226 z"
     id="path3297"
     style="fill:#ffffff" />
  <path
     d="m 348.84143,134.76735 8.66575,8.15274 8.43827,-14.28726 0.86839,28.49237 -28.49437,0.87199 13.75118,-9.29848 -8.66575,-8.15274 5.43653,-5.77862"
     id="polyline3245-7"
     style="fill:#ffffff" />
  <text
     xml:space="preserve"
     style="font-size:40.5476px;line-height:23.7585px;font-family:'Andale Mono IPA';-inkscape-font-specification:'Andale Mono IPA';letter-spacing:0px;word-spacing:0px;fill:#ffffff;fill-opacity:1;stroke:none;stroke-width:0.999997px;stroke-linecap:butt;stroke-linejoin:miter;stroke-opacity:1"
     x="263.43887"
     y="112.59464"
     id="text4113"
     transform="scale(1.0676671,0.93662153)"><tspan
       sodipodi:role="line"
       id="tspan4111"
       x="263.43887"
       y="112.59464"
       style="font-style:normal;font-variant:normal;font-weight:normal;font-stretch:normal;font-size:40.5476px;font-family:'Highway Gothic';-inkscape-font-specification:'Highway Gothic';fill:#ffffff;fill-opacity:1;stroke:none;stroke-width:0.999997px">València</tspan></text>
  <path
     d="m 377.21401,41.803528 h 4.82859 v 2.680285 h -4.82859 z"
     id="path3287-7"
     style="fill:#ffffff;stroke-width:1" />
  <rect
     style="display:inline;fill:#000080;stroke:#ffffff;stroke-width:1.99999;stroke-linecap:round;stroke-linejoin:round;stroke-miterlimit:2.613;stroke-dasharray:none;stroke-opacity:1"
     id="rect5280"
     width="58.806217"
     height="29.808369"
     x="372.50311"
     y="29.83687" />
  <text
     xml:space="preserve"
     style="font-size:30.0943px;line-height:17.6334px;font-family:'Highway Gothic Wide';-inkscape-font-specification:'Highway Gothic Wide';letter-spacing:0px;word-spacing:0px;display:inline;fill:none;stroke:#000000;stroke-width:1px;stroke-linecap:butt;stroke-linejoin:miter;stroke-opacity:1"
     x="373.22693"
     y="56.00927"
     id="text5284"
     transform="scale(1.0098356,0.99026017)"><tspan
       sodipodi:role="line"
       id="tspan5282"
       x="373.22693"
       y="56.00927"
       style="font-style:normal;font-variant:normal;font-weight:normal;font-stretch:normal;font-family:'Highway Gothic Wide';-inkscape-font-specification:'Highway Gothic Wide';fill:#ffffff;fill-opacity:1;stroke:none;stroke-width:1px">A-3</tspan></text>
  <path
     d="m 278.05099,42.31333 h 4.82859 v 2.680286 h -4.82859 z"
     id="path3287-6"
     style="fill:#ffffff;stroke-width:1" />
  <rect
     style="display:inline;fill:#008000;stroke:#ffffff;stroke-width:2;stroke-linecap:round;stroke-linejoin:round;stroke-miterlimit:2.613;stroke-dasharray:none;stroke-opacity:1"
     id="rect5280-7"
     width="90.778038"
     height="29.808369"
     x="273.34006"
     y="30.34667" />
  <text
     xml:space="preserve"
     style="font-size:30.0943px;line-height:17.6334px;font-family:'Highway Gothic Wide';-inkscape-font-specification:'Highway Gothic Wide';letter-spacing:0px;word-spacing:0px;display:inline;fill:none;stroke:#000000;stroke-width:1px;stroke-linecap:butt;stroke-linejoin:miter;stroke-opacity:1"
     x="275.02972"
     y="56.524113"
     id="text5284-9"
     transform="scale(1.0098356,0.99026017)"><tspan
       sodipodi:role="line"
       id="tspan5282-3"
       x="275.02972"
       y="56.524113"
       style="font-style:normal;font-variant:normal;font-weight:normal;font-stretch:normal;font-family:'Highway Gothic Wide';-inkscape-font-specification:'Highway Gothic Wide';fill:#ffffff;fill-opacity:1;stroke:none;stroke-width:1px">E-901</tspan></text>
</svg>
