# Blender v2.79 (sub 0) OBJ File: ''
# www.blender.org
mtllib s242Sign.mtl
o Cube.002
v -10.599939 7.344272 -0.396836
v -10.599939 7.344266 0.503164
v -10.599956 16.601261 0.503168
v -10.599956 16.601261 -0.396831
v 5.728044 7.344278 -0.396835
v 5.728025 16.601267 -0.396831
v 5.728025 16.601267 0.503168
v 5.728044 7.344277 0.503164
vt 0.000000 0.000000
vt 0.000000 0.000000
vt 0.000000 0.000000
vt 0.000000 0.000000
vt 0.000000 0.000000
vt 0.000000 0.000000
vt 0.000000 0.000000
vt 0.000000 0.000000
vt 1.000000 0.000000
vt 1.000000 1.000000
vt 0.000000 1.000000
vn -1.0000 -0.0000 -0.0000
vn 1.0000 0.0000 0.0000
vn 0.0000 -1.0000 -0.0000
vn -0.0000 1.0000 0.0000
vn 0.0000 0.0000 -1.0000
vn -0.0000 -0.0000 1.0000
usemtl mat_sign
s 1
f 1/1/1 2/2/1 3/3/1 4/4/1
f 5/5/2 6/6/2 7/7/2 8/8/2
f 1/1/3 5/5/3 8/8/3 2/2/3
f 3/3/4 7/7/4 6/6/4 4/4/4
f 5/5/5 1/1/5 4/4/5 6/6/5
f 2/2/6 8/9/6 7/10/6 3/11/6
o Plane
v -10.236357 7.632141 -1.453963
v 5.806529 7.710248 -1.253157
v 5.640493 16.317167 -1.229686
v -10.402392 16.239052 -1.430492
vt 0.000000 0.000000
vt 1.000000 0.000000
vt 1.000000 1.000000
vt 0.000000 1.000000
vn -0.0125 -0.0030 0.9999
usemtl 1
s 1
f 9/12/7 10/13/7 11/14/7 12/15/7
