# Blender v2.79 (sub 0) OBJ File: ''
# www.blender.org
mtllib ES_S300.mtl
o Cube.002
v -50.913124 254.384369 7.215202
v -50.979843 255.378174 30.922642
v -52.986122 349.170685 26.985138
v -52.919365 348.176849 3.277697
v 269.684204 261.266998 7.829323
v 267.677917 355.059509 3.891778
v 267.611176 356.053375 27.599180
v 269.617493 262.260803 31.536684
vt 0.000000 0.000000
vt 0.000000 0.000000
vt 0.000000 0.000000
vt 0.000000 0.000000
vt 0.000000 0.000000
vt 0.000000 0.000000
vt 0.000000 0.000000
vt 0.000000 0.000000
vt 1.000000 0.000000
vt 1.000000 1.000000
vt 0.000000 1.000000
vn -0.9998 -0.0215 -0.0019
vn 0.9998 0.0215 0.0019
vn 0.0214 -0.9989 0.0419
vn -0.0214 0.9989 -0.0419
vn 0.0028 -0.0419 -0.9991
vn -0.0028 0.0419 0.9991
usemtl mat_sign
s 1
f 1/1/1 2/2/1 3/3/1 4/4/1
f 5/5/2 6/6/2 7/7/2 8/8/2
f 1/1/3 5/5/3 8/8/3 2/2/3
f 3/3/4 7/7/4 6/6/4 4/4/4
f 5/5/5 1/1/5 4/4/5 6/6/5
f 2/2/6 8/9/6 7/10/6 3/11/6
o Plane
v -26.490681 278.578308 0.239445
v 238.282562 278.744446 0.998925
v 238.244324 342.883759 0.295016
v -26.528881 342.717590 -0.464504
vt 0.000100 0.000100
vt 0.999900 0.000100
vt 0.999900 0.999900
vt 0.000100 0.999900
vn -0.0029 0.0110 0.9999
usemtl None
s 1
f 9/12/7 10/13/7 11/14/7 12/15/7
o Cube.001
v 32.339039 313.163574 1.996847
v 32.339039 313.163574 1.211087
v 32.339039 -6.749760 1.210995
v 32.339039 -6.749760 1.996755
v 40.196682 313.163574 1.211087
v 40.196682 -6.749760 1.210995
v 40.196682 313.163574 1.996847
v 40.196682 -6.749760 1.996755
vt 0.000000 0.000000
vt 0.000000 0.000000
vt 0.000000 0.000000
vt 0.000000 0.000000
vt 0.000000 0.000000
vt 0.000000 0.000000
vt 0.000000 0.000000
vt 0.000000 0.000000
vn -1.0000 0.0000 0.0000
vn 0.0000 0.0000 -1.0000
vn 1.0000 0.0000 0.0000
vn 0.0000 -0.0000 1.0000
vn 0.0000 -1.0000 -0.0000
vn 0.0000 1.0000 0.0000
usemtl None_NONE
s 1
f 13/16/8 14/17/8 15/18/8 16/19/8
f 14/17/9 17/20/9 18/21/9 15/18/9
f 17/20/10 19/22/10 20/23/10 18/21/10
f 19/22/11 13/16/11 16/19/11 20/23/11
f 16/19/12 15/18/12 18/21/12 20/23/12
f 14/17/13 13/16/13 19/22/13 17/20/13
