# Blender v2.79 (sub 0) OBJ File: ''
# www.blender.org
mtllib ES_S300.mtl
o Cube.002
v -1.277078 12.792218 1.360760
v -1.278746 12.841908 2.546132
v -1.328903 17.531534 2.349257
v -1.327234 17.481842 1.163885
v 6.737855 13.136350 1.391466
v 6.687698 17.825975 1.194589
v 6.686029 17.875668 2.379959
v 6.736187 13.186040 2.576834
vt 0.000000 0.000000
vt 0.000000 0.000000
vt 0.000000 0.000000
vt 0.000000 0.000000
vt 0.000000 0.000000
vt 0.000000 0.000000
vt 0.000000 0.000000
vt 0.000000 0.000000
vt 1.000000 0.000000
vt 1.000000 1.000000
vt 0.000000 1.000000
vn -0.9999 -0.0107 -0.0010
vn 0.9999 0.0107 0.0010
vn 0.0427 -0.9982 0.0419
vn -0.0427 0.9982 -0.0419
vn 0.0056 -0.0419 -0.9991
vn -0.0056 0.0419 0.9991
usemtl mat_sign
s 1
f 1/1/1 2/2/1 3/3/1 4/4/1
f 5/5/2 6/6/2 7/7/2 8/8/2
f 1/1/3 5/5/3 8/8/3 2/2/3
f 3/3/4 7/7/4 6/6/4 4/4/4
f 5/5/5 1/1/5 4/4/5 6/6/5
f 2/2/6 8/9/6 7/10/6 3/11/6
o Plane
v -0.662267 6.964458 0.005986
v 5.957064 6.968611 0.024973
v 5.956108 8.572094 0.007375
v -0.663222 8.567940 -0.011613
vt 0.000100 0.000100
vt 0.999900 0.000100
vt 0.999900 0.999900
vt 0.000100 0.999900
vn -0.0029 0.0110 0.9999
usemtl None
s 1
f 9/12/7 10/13/7 11/14/7 12/15/7
o Cube.001
v 0.808476 7.829089 0.499200
v 0.808476 7.829089 0.302760
v 0.808476 -0.168744 0.302749
v 0.808476 -0.168744 0.499189
v 1.004917 7.829089 0.302760
v 1.004917 -0.168744 0.302749
v 1.004917 7.829089 0.499200
v 1.004917 -0.168744 0.499189
vt 0.000000 0.000000
vt 0.000000 0.000000
vt 0.000000 0.000000
vt 0.000000 0.000000
vt 0.000000 0.000000
vt 0.000000 0.000000
vt 0.000000 0.000000
vt 0.000000 0.000000
vn -1.0000 0.0000 0.0000
vn 0.0000 0.0000 -1.0000
vn 1.0000 0.0000 0.0000
vn 0.0000 -0.0000 1.0000
vn 0.0000 -1.0000 -0.0000
vn 0.0000 1.0000 0.0000
usemtl None_NONE
s 1
f 13/16/8 14/17/8 15/18/8 16/19/8
f 14/17/9 17/20/9 18/21/9 15/18/9
f 17/20/10 19/22/10 20/23/10 18/21/10
f 19/22/11 13/16/11 16/19/11 20/23/11
f 16/19/12 15/18/12 18/21/12 20/23/12
f 14/17/13 13/16/13 19/22/13 17/20/13
