# Blender v2.79 (sub 0) OBJ File: ''
# www.blender.org
mtllib ES_S300.mtl
o Cube.002
v -4.938312 24.124437 0.180383
v -4.944984 24.223818 0.773069
v -5.145612 33.603069 0.674633
v -5.138936 33.503685 0.081947
v 27.121420 24.812700 0.195736
v 26.920792 34.191952 0.097299
v 26.914116 34.291336 0.689984
v 27.114748 24.912081 0.788420
vt 0.000000 0.000000
vt 0.000000 0.000000
vt 0.000000 0.000000
vt 0.000000 0.000000
vt 0.000000 0.000000
vt 0.000000 0.000000
vt 0.000000 0.000000
vt 0.000000 0.000000
vt 1.000000 0.000000
vt 1.000000 1.000000
vt 0.000000 1.000000
vn -0.9997 -0.0215 -0.0077
vn 0.9997 0.0215 0.0077
vn 0.0211 -0.9860 0.1656
vn -0.0211 0.9860 -0.1656
vn 0.0007 -0.0105 -0.9999
vn -0.0007 0.0105 0.9999
usemtl mat_sign
s 1
f 1/1/1 2/2/1 3/3/1 4/4/1
f 5/5/2 6/6/2 7/7/2 8/8/2
f 1/1/3 5/5/3 8/8/3 2/2/3
f 3/3/4 7/7/4 6/6/4 4/4/4
f 5/5/5 1/1/5 4/4/5 6/6/5
f 2/2/6 8/9/6 7/10/6 3/11/6
o Plane
v -2.649068 27.857832 0.023945
v 23.828257 27.874443 0.099893
v 23.824432 34.288376 0.029502
v -2.652888 34.271759 -0.046450
vt 0.000100 0.000100
vt 0.999900 0.000100
vt 0.999900 0.999900
vt 0.000100 0.999900
vn -0.0029 0.0110 0.9999
usemtl None
s 1
f 9/12/7 10/13/7 11/14/7 12/15/7
o Cube.001
v 3.233904 31.316357 1.996801
v 3.233904 31.316357 1.211041
v 3.233904 -0.674976 1.210996
v 3.233904 -0.674976 1.996756
v 4.019668 31.316357 1.211041
v 4.019668 -0.674976 1.210996
v 4.019668 31.316357 1.996801
v 4.019668 -0.674976 1.996756
vt 0.000000 0.000000
vt 0.000000 0.000000
vt 0.000000 0.000000
vt 0.000000 0.000000
vt 0.000000 0.000000
vt 0.000000 0.000000
vt 0.000000 0.000000
vt 0.000000 0.000000
vn -1.0000 0.0000 0.0000
vn 0.0000 0.0000 -1.0000
vn 1.0000 0.0000 0.0000
vn 0.0000 -0.0000 1.0000
vn 0.0000 -1.0000 -0.0000
vn 0.0000 1.0000 0.0000
usemtl None_NONE
s 1
f 13/16/8 14/17/8 15/18/8 16/19/8
f 14/17/9 17/20/9 18/21/9 15/18/9
f 17/20/10 19/22/10 20/23/10 18/21/10
f 19/22/11 13/16/11 16/19/11 20/23/11
f 16/19/12 15/18/12 18/21/12 20/23/12
f 14/17/13 13/16/13 19/22/13 17/20/13
