# Blender v2.78 (sub 0) OBJ File: ''
# www.blender.org
mtllib name4Sign.mtl
o Cube.001
v -3.207476 9.300105 3.814417
v -3.207476 9.300105 5.210055
v -3.207484 16.550179 5.210056
v -3.207484 16.550179 3.814419
v 8.582844 9.300132 3.814417
v 8.582832 16.550179 3.814419
v 8.582832 16.550179 5.210056
v 8.582844 9.300132 5.210055
vt 0.0000 0.0000
vt 0.0000 0.0000
vt 0.0000 0.0000
vt 0.0000 0.0000
vt 0.0000 0.0000
vt 0.0000 0.0000
vt 0.0000 0.0000
vt 0.0000 0.0000
vt 1.0000 0.0000
vt 1.0000 1.0000
vt 0.0000 1.0000
vn -1.0000 -0.0000 0.0000
vn 1.0000 0.0000 0.0000
vn 0.0000 -1.0000 0.0000
vn 0.0000 1.0000 0.0000
vn -0.0000 0.0000 -1.0000
vn 0.0000 -0.0000 1.0000
usemtl mat_sign
s off
f 1/1/1 2/2/1 3/3/1 4/4/1
f 5/5/2 6/6/2 7/7/2 8/8/2
f 1/1/3 5/5/3 8/8/3 2/2/3
f 3/3/4 7/7/4 6/6/4 4/4/4
f 5/5/5 1/1/5 4/4/5 6/6/5
f 2/2/6 8/9/6 7/10/6 3/11/6
