# Blender v2.78 (sub 0) OBJ File: ''
# www.blender.org
mtllib pkeSign.mtl
o Cube_Cube.003
v -0.573999 2.881874 0.591269
v 0.549377 2.881874 0.591269
v 0.549377 0.553026 0.591268
v -0.573999 0.553026 0.591268
v 0.549377 2.881874 0.724376
v -0.573999 2.881874 0.724376
v -0.573999 0.553026 0.724375
v 0.549377 0.553026 0.724375
vt 0.0000 0.0000
vt 0.0000 0.0000
vt 0.0000 0.0000
vt 0.0000 0.0000
vt 0.0000 0.0000
vt 0.0000 0.0000
vt 0.0000 0.0000
vt 0.0000 0.0000
vt 0.0001 0.0001
vt 0.9999 0.0001
vt 0.9999 0.9999
vt 0.0001 0.9999
vn 0.0000 -0.0000 1.0000
vn -1.0000 -0.0000 0.0000
vn 1.0000 0.0000 0.0000
vn 0.0000 -1.0000 0.0000
vn 0.0000 1.0000 0.0000
vn 0.0000 0.0000 -1.0000
usemtl None__1
s off
f 5/1/1 6/2/1 7/3/1 8/4/1
usemtl None
f 6/2/2 1/5/2 4/6/2 7/3/2
f 2/7/3 5/1/3 8/4/3 3/8/3
f 7/3/4 4/6/4 3/8/4 8/4/4
f 1/5/5 6/2/5 5/1/5 2/7/5
usemtl None_negre.png
f 1/9/6 2/10/6 3/11/6 4/12/6
o Cube.001
v -0.642647 0.808288 0.600899
v -0.642647 0.808287 1.072631
v -0.642648 2.840776 1.072631
v -0.642648 2.840776 0.600900
v 0.626120 0.808290 0.600899
v 0.626119 2.840777 0.600900
v 0.626119 2.840777 1.072631
v 0.626120 0.808289 1.072631
vt 0.0000 0.0000
vt 0.0000 0.0000
vt 0.0000 0.0000
vt 0.0000 0.0000
vt 0.0000 0.0000
vt 0.0000 0.0000
vt 0.0000 0.0000
vt 0.0000 0.0000
vt 1.0000 0.0000
vt 1.0000 1.0000
vt 0.0000 1.0000
vn -1.0000 -0.0000 -0.0000
vn 1.0000 0.0000 0.0000
vn 0.0000 -1.0000 -0.0000
vn -0.0000 1.0000 0.0000
vn 0.0000 0.0000 -1.0000
vn 0.0000 -0.0000 1.0000
usemtl mat_sign
s off
f 9/13/7 10/14/7 11/15/7 12/16/7
f 13/17/8 14/18/8 15/19/8 16/20/8
f 9/13/9 13/17/9 16/20/9 10/14/9
f 11/15/10 15/19/10 14/18/10 12/16/10
f 13/17/11 9/13/11 12/16/11 14/18/11
f 10/14/12 16/21/12 15/22/12 11/23/12
o Cube.002
v -0.196225 0.737259 1.124775
v -0.196225 0.737259 0.928335
v -0.196225 -4.637257 0.928330
v -0.196225 -4.637257 1.124770
v 0.000216 0.737259 0.928335
v 0.000216 -4.637257 0.928330
v 0.000216 0.737259 1.124775
v 0.000216 -4.637257 1.124770
vt 0.0000 0.0000
vt 0.0000 0.0000
vt 0.0000 0.0000
vt 0.0000 0.0000
vt 0.0000 0.0000
vt 0.0000 0.0000
vt 0.0000 0.0000
vt 0.0000 0.0000
vn -1.0000 0.0000 0.0000
vn 0.0000 0.0000 -1.0000
vn 1.0000 0.0000 0.0000
vn 0.0000 -0.0000 1.0000
vn 0.0000 -1.0000 0.0000
vn 0.0000 1.0000 0.0000
usemtl None
s off
f 17/24/13 18/25/13 19/26/13 20/27/13
f 18/25/14 21/28/14 22/29/14 19/26/14
f 21/28/15 23/30/15 24/31/15 22/29/15
f 23/30/16 17/24/16 20/27/16 24/31/16
f 20/27/17 19/26/17 22/29/17 24/31/17
f 18/25/18 17/24/18 23/30/18 21/28/18
