# Blender v2.78 (sub 0) OBJ File: ''
# www.blender.org
mtllib pkeSign.mtl
o Cube.002
v -0.025900 0.214802 0.051826
v -0.025900 0.214802 0.021827
v -0.025900 -0.065198 0.021826
v -0.025900 -0.065198 0.051826
v 0.024100 0.214802 0.021827
v 0.024100 -0.065198 0.021826
v 0.024100 0.214802 0.051826
v 0.024100 -0.065198 0.051826
vt 0.0000 0.0000
vt 0.0000 0.0000
vt 0.0000 0.0000
vt 0.0000 0.0000
vt 0.0000 0.0000
vt 0.0000 0.0000
vt 0.0000 0.0000
vt 0.0000 0.0000
vn -1.0000 0.0000 0.0000
vn 0.0000 0.0000 -1.0000
vn 1.0000 0.0000 0.0000
vn 0.0000 -0.0000 1.0000
vn 0.0000 -1.0000 0.0000
vn 0.0000 1.0000 0.0000
usemtl None
s 1
f 1/1/1 2/2/1 3/3/1 4/4/1
f 2/2/2 5/5/2 6/6/2 3/3/2
f 5/5/3 7/7/3 8/8/3 6/6/3
f 7/7/4 1/1/4 4/4/4 8/8/4
f 4/4/5 3/3/5 6/6/5 8/8/5
f 2/2/6 1/1/6 7/7/6 5/5/6
o Cube.001
v -0.096237 0.211112 0.023414
v -0.096237 0.211111 0.073413
v -0.096238 0.521111 0.073414
v -0.096238 0.521111 0.023414
v 0.093762 0.211112 0.023414
v 0.093762 0.521111 0.023414
v 0.093762 0.521111 0.073414
v 0.093762 0.211112 0.073413
vt 0.0000 0.0000
vt 0.0000 0.0000
vt 0.0000 0.0000
vt 0.0000 0.0000
vt 0.0000 0.0000
vt 0.0000 0.0000
vt 0.0000 0.0000
vt 0.0000 0.0000
vt 1.0000 0.0000
vt 1.0000 1.0000
vt 0.0000 1.0000
vn -1.0000 -0.0000 -0.0000
vn 1.0000 0.0000 0.0000
vn 0.0000 -1.0000 -0.0000
vn -0.0000 1.0000 0.0000
vn -0.0000 0.0000 -1.0000
vn -0.0000 -0.0000 1.0000
usemtl mat_sign
s 1
f 9/9/7 10/10/7 11/11/7 12/12/7
f 13/13/8 14/14/8 15/15/8 16/16/8
f 9/9/9 13/13/9 16/16/9 10/10/9
f 11/11/10 15/15/10 14/14/10 12/12/10
f 13/13/11 9/9/11 12/12/11 14/14/11
f 10/10/12 16/17/12 15/18/12 11/19/12
o Cube_Cube.003
v -0.097082 0.516728 0.015872
v 0.092918 0.516728 0.015872
v 0.092918 0.206728 0.015872
v -0.097082 0.206728 0.015872
v 0.092918 0.516728 0.025872
v -0.097082 0.516728 0.025872
v -0.097082 0.206728 0.025872
v 0.092918 0.206728 0.025872
vt 0.0000 0.0000
vt 0.0000 0.0000
vt 0.0000 0.0000
vt 0.0000 0.0000
vt 0.0000 0.0000
vt 0.0000 0.0000
vt 0.0000 0.0000
vt 0.0000 0.0000
vt 0.0001 0.0001
vt 0.9999 0.0001
vt 0.9999 0.9999
vt 0.0001 0.9999
vn -1.0000 0.0000 0.0000
vn 1.0000 0.0000 0.0000
vn 0.0000 -1.0000 0.0000
vn 0.0000 1.0000 0.0000
vn 0.0000 0.0000 -1.0000
vn 0.0000 -0.0000 1.0000
usemtl None
s 1
f 22/20/13 17/21/13 20/22/13 23/23/13
f 18/24/14 21/25/14 24/26/14 19/27/14
f 23/23/15 20/22/15 19/27/15 24/26/15
f 17/21/16 22/20/16 21/25/16 18/24/16
usemtl None_negre.png
f 17/28/17 18/29/17 19/30/17 20/31/17
usemtl None__1
f 21/25/18 22/20/18 23/23/18 24/26/18
