# Blender v2.78 (sub 0) OBJ File: ''
# www.blender.org
mtllib pkeSign.mtl
o Cube_Cube.003
v -0.257439 0.596047 -0.670317
v -0.257439 0.596047 -0.791444
v -0.257439 -0.404567 -0.791446
v -0.257439 -0.404567 -0.670319
v 0.246396 0.596047 -0.791444
v 0.246396 0.596047 -0.670317
v 0.246396 -0.404567 -0.670319
v 0.246396 -0.404567 -0.791446
vt 0.0001 0.0001
vt 0.9999 0.0001
vt 0.9999 0.9999
vt 0.0001 0.9999
vt 0.0000 0.0000
vt 0.0000 0.0000
vt 0.0000 0.0000
vt 0.0000 0.0000
vt 0.0000 0.0000
vt 0.0000 0.0000
vt 0.0000 0.0000
vt 0.0000 0.0000
vn 0.0000 0.0000 -1.0000
vn -1.0000 0.0000 0.0000
vn 1.0000 0.0000 0.0000
vn 0.0000 -1.0000 0.0000
vn 0.0000 1.0000 0.0000
vn 0.0000 -0.0000 1.0000
usemtl None_negre.png
s 1
f 2/1/1 5/2/1 8/3/1 3/4/1
usemtl None
f 1/5/2 2/6/2 3/7/2 4/8/2
f 5/9/3 6/10/3 7/11/3 8/12/3
f 4/8/4 3/7/4 8/12/4 7/11/4
f 2/6/5 1/5/5 6/10/5 5/9/5
usemtl None__1
f 6/10/6 1/5/6 4/8/6 7/11/6
o Cube.001
v -0.288227 -0.347290 -0.765715
v -0.288227 -0.347291 -0.455477
v -0.288228 0.591719 -0.455475
v -0.288228 0.591719 -0.765713
v 0.280815 -0.347290 -0.765715
v 0.280815 0.591720 -0.765713
v 0.280815 0.591720 -0.455475
v 0.280815 -0.347290 -0.455477
vt 0.0000 0.0000
vt 0.0000 0.0000
vt 0.0000 0.0000
vt 0.0000 0.0000
vt 0.0000 0.0000
vt 0.0000 0.0000
vt 0.0000 0.0000
vt 0.0000 0.0000
vt 1.0000 0.0000
vt 1.0000 1.0000
vt 0.0000 1.0000
vn -1.0000 -0.0000 -0.0000
vn 1.0000 0.0000 0.0000
vn 0.0000 -1.0000 -0.0000
vn -0.0000 1.0000 0.0000
vn 0.0000 0.0000 -1.0000
vn -0.0000 -0.0000 1.0000
usemtl mat_sign
s 1
f 9/13/7 10/14/7 11/15/7 12/16/7
f 13/17/8 14/18/8 15/19/8 16/20/8
f 9/13/9 13/17/9 16/20/9 10/14/9
f 11/15/10 15/19/10 14/18/10 12/16/10
f 13/17/11 9/13/11 12/16/11 14/18/11
f 10/14/12 16/21/12 15/22/12 11/23/12
o Cube.002
v -0.088007 -0.043279 -0.652261
v -0.088007 -0.043279 -0.836383
v -0.088007 -0.837849 -0.836389
v -0.088007 -0.837849 -0.652265
v 0.000097 -0.043279 -0.836383
v 0.000097 -0.837849 -0.836389
v 0.000097 -0.043279 -0.652261
v 0.000097 -0.837849 -0.652265
vt 0.0000 0.0000
vt 0.0000 0.0000
vt 0.0000 0.0000
vt 0.0000 0.0000
vt 0.0000 0.0000
vt 0.0000 0.0000
vt 0.0000 0.0000
vt 0.0000 0.0000
vn -1.0000 0.0000 0.0000
vn 0.0000 0.0000 -1.0000
vn 1.0000 -0.0000 0.0000
vn 0.0000 -0.0000 1.0000
vn 0.0000 -1.0000 -0.0000
vn 0.0000 1.0000 0.0000
usemtl None
s 1
f 17/24/13 18/25/13 19/26/13 20/27/13
f 18/25/14 21/28/14 22/29/14 19/26/14
f 21/28/15 23/30/15 24/31/15 22/29/15
f 23/30/16 17/24/16 20/27/16 24/31/16
f 20/27/17 19/26/17 22/29/17 24/31/17
f 18/25/18 17/24/18 23/30/18 21/28/18
