# Blender v2.78 (sub 0) OBJ File: ''
# www.blender.org
mtllib pkeSign.mtl
o Cube_Cube.003
v -0.573999 1.290144 -2.695621
v -0.573999 1.290144 -2.828728
v -0.573999 -0.875685 -2.828731
v -0.573999 -0.875685 -2.695624
v 0.549377 1.290144 -2.828728
v 0.549377 1.290144 -2.695621
v 0.549377 -0.875685 -2.695624
v 0.549377 -0.875685 -2.828731
vt 0.0001 0.0001
vt 0.9999 0.0001
vt 0.9999 0.9999
vt 0.0001 0.9999
vt 0.0000 0.0000
vt 0.0000 0.0000
vt 0.0000 0.0000
vt 0.0000 0.0000
vt 0.0000 0.0000
vt 0.0000 0.0000
vt 0.0000 0.0000
vt 0.0000 0.0000
vn 0.0000 0.0000 -1.0000
vn -1.0000 0.0000 0.0000
vn 1.0000 0.0000 0.0000
vn 0.0000 -1.0000 0.0000
vn 0.0000 1.0000 0.0000
vn 0.0000 -0.0000 1.0000
usemtl None_negre.png
s 1
f 2/1/1 5/2/1 8/3/1 3/4/1
usemtl None
f 1/5/2 2/6/2 3/7/2 4/8/2
f 5/9/3 6/10/3 7/11/3 8/12/3
f 4/8/4 3/7/4 8/12/4 7/11/4
f 2/6/5 1/5/5 6/10/5 5/9/5
usemtl None__1
f 6/10/6 1/5/6 4/8/6 7/11/6
o Cube.001
v -0.642647 -0.751710 -3.119100
v -0.642647 -0.751712 -2.647367
v -0.642648 1.280777 -2.647365
v -0.642648 1.280777 -3.119097
v 0.626120 -0.751709 -3.119100
v 0.626119 1.280778 -3.119097
v 0.626119 1.280778 -2.647365
v 0.626120 -0.751709 -2.647367
vt 0.0000 0.0000
vt 0.0000 0.0000
vt 0.0000 0.0000
vt 0.0000 0.0000
vt 0.0000 0.0000
vt 0.0000 0.0000
vt 0.0000 0.0000
vt 0.0000 0.0000
vt 1.0000 0.0000
vt 1.0000 1.0000
vt 0.0000 1.0000
vn -1.0000 -0.0000 -0.0000
vn 1.0000 0.0000 0.0000
vn 0.0000 -1.0000 -0.0000
vn -0.0000 1.0000 0.0000
vn -0.0000 0.0000 -1.0000
vn -0.0000 -0.0000 1.0000
usemtl mat_sign
s 1
f 9/13/7 10/14/7 11/15/7 12/16/7
f 13/17/8 14/18/8 15/19/8 16/20/8
f 9/13/9 13/17/9 16/20/9 10/14/9
f 11/15/10 15/19/10 14/18/10 12/16/10
f 13/17/11 9/13/11 12/16/11 14/18/11
f 10/14/12 16/21/12 15/22/12 11/23/12
o Cube.002
v -0.196225 -0.292740 -2.655222
v -0.196225 -0.292740 -2.851662
v -0.196225 -5.667255 -2.851668
v -0.196225 -5.667256 -2.655228
v 0.000216 -0.292740 -2.851662
v 0.000216 -5.667255 -2.851668
v 0.000216 -0.292740 -2.655222
v 0.000216 -5.667256 -2.655228
vt 0.0000 0.0000
vt 0.0000 0.0000
vt 0.0000 0.0000
vt 0.0000 0.0000
vt 0.0000 0.0000
vt 0.0000 0.0000
vt 0.0000 0.0000
vt 0.0000 0.0000
vn -1.0000 0.0000 0.0000
vn 0.0000 0.0000 -1.0000
vn 1.0000 0.0000 0.0000
vn 0.0000 -0.0000 1.0000
vn 0.0000 -1.0000 -0.0000
vn 0.0000 1.0000 0.0000
usemtl None
s 1
f 17/24/13 18/25/13 19/26/13 20/27/13
f 18/25/14 21/28/14 22/29/14 19/26/14
f 21/28/15 23/30/15 24/31/15 22/29/15
f 23/30/16 17/24/16 20/27/16 24/31/16
f 20/27/17 19/26/17 22/29/17 24/31/17
f 18/25/18 17/24/18 23/30/18 21/28/18
