# Blender v2.79 (sub 0) OBJ File: ''
# www.blender.org
mtllib refSign.mtl
o Cube.007
v -2.020376 4.664489 2.974190
v -2.020376 4.664489 3.034191
v -2.020379 6.121928 3.034193
v -2.020379 6.121928 2.974191
v 1.939626 4.664494 2.974190
v 1.939624 6.121928 2.974191
v 1.939624 6.121928 3.034193
v 1.939626 4.664494 3.034191
vt 0.000000 0.000000
vt 0.000000 0.000000
vt 0.000000 0.000000
vt 0.000000 0.000000
vt 0.000000 0.000000
vt 0.000000 0.000000
vt 0.000000 0.000000
vt 0.000000 0.000000
vt 1.000000 0.000000
vt 1.000000 1.000000
vt 0.000000 1.000000
vn -1.0000 -0.0000 0.0000
vn 1.0000 0.0000 0.0000
vn 0.0000 -1.0000 0.0000
vn 0.0000 1.0000 0.0000
vn 0.0000 0.0000 -1.0000
vn 0.0000 -0.0000 1.0000
usemtl mat_sign.006
s 1
f 1/1/1 2/2/1 3/3/1 4/4/1
f 5/5/2 6/6/2 7/7/2 8/8/2
f 1/1/3 5/5/3 8/8/3 2/2/3
f 3/3/4 7/7/4 6/6/4 4/4/4
f 5/5/5 1/1/5 4/4/5 6/6/5
f 2/2/6 8/9/6 7/10/6 3/11/6
