# Blender v2.79 (sub 0) OBJ File: ''
# www.blender.org
mtllib refSign.mtl
o Cube.001
v -2.029501 4.502203 1.942949
v -2.029848 4.501512 2.098947
v -2.031020 6.187928 2.106409
v -2.030672 6.188619 1.950412
v 1.971475 4.504935 1.951878
v 1.970303 6.191350 1.959341
v 1.969955 6.190660 2.115338
v 1.971127 4.504245 2.107876
vt 0.000000 0.000000
vt 0.000000 0.000000
vt 0.000000 0.000000
vt 0.000000 0.000000
vt 0.000000 0.000000
vt 0.000000 0.000000
vt 0.000000 0.000000
vt 0.000000 0.000000
vt 1.000000 0.000000
vt 1.000000 1.000000
vt 0.000000 1.000000
vn -1.0000 -0.0007 -0.0022
vn 1.0000 0.0007 0.0022
vn 0.0007 -1.0000 -0.0044
vn -0.0007 1.0000 0.0044
vn 0.0022 0.0044 -1.0000
vn -0.0022 -0.0044 1.0000
usemtl mat_sign
s 1
f 1/1/1 2/2/1 3/3/1 4/4/1
f 5/5/2 6/6/2 7/7/2 8/8/2
f 1/1/3 5/5/3 8/8/3 2/2/3
f 3/3/4 7/7/4 6/6/4 4/4/4
f 5/5/5 1/1/5 4/4/5 6/6/5
f 2/2/6 8/9/6 7/10/6 3/11/6
