# Blender v2.79 (sub 0) OBJ File: ''
# www.blender.org
mtllib refSign.mtl
o Cube.001
v -2.026050 4.498953 2.992755
v -2.026050 4.498952 3.008355
v -2.026054 6.183753 3.008356
v -2.026054 6.183753 2.992756
v 1.973950 4.498954 2.992755
v 1.973946 6.183754 2.992756
v 1.973946 6.183754 3.008356
v 1.973950 4.498954 3.008355
vt 0.000000 0.000000
vt 0.000000 0.000000
vt 0.000000 0.000000
vt 0.000000 0.000000
vt 0.000000 0.000000
vt 0.000000 0.000000
vt 0.000000 0.000000
vt 0.000000 0.000000
vt 1.000000 0.000000
vt 1.000000 1.000000
vt 0.000000 1.000000
vn -1.0000 -0.0000 -0.0000
vn 1.0000 0.0000 0.0000
vn 0.0000 -1.0000 -0.0000
vn -0.0000 1.0000 0.0000
vn 0.0000 0.0000 -1.0000
vn 0.0000 -0.0000 1.0000
usemtl mat_sign
s 1
f 1/1/1 2/2/1 3/3/1 4/4/1
f 5/5/2 6/6/2 7/7/2 8/8/2
f 1/1/3 5/5/3 8/8/3 2/2/3
f 3/3/4 7/7/4 6/6/4 4/4/4
f 5/5/5 1/1/5 4/4/5 6/6/5
f 2/2/6 8/9/6 7/10/6 3/11/6
