# Blender v2.78 (sub 0) OBJ File: ''
# www.blender.org
mtllib s200Sign.mtl
o Cube.001
v 3.014663 15.338423 0.319304
v 3.014663 15.338423 0.122864
v 3.014663 -1.003540 0.122852
v 3.014663 -1.003540 0.319292
v 3.211103 15.338423 0.122864
v 3.211103 -1.003540 0.122852
v 3.211103 15.338423 0.319304
v 3.211103 -1.003540 0.319292
vt 0.0000 0.0000
vt 0.0000 0.0000
vt 0.0000 0.0000
vt 0.0000 0.0000
vt 0.0000 0.0000
vt 0.0000 0.0000
vt 0.0000 0.0000
vt 0.0000 0.0000
vn -1.0000 0.0000 0.0000
vn 0.0000 0.0000 -1.0000
vn 1.0000 0.0000 0.0000
vn 0.0000 -0.0000 1.0000
vn 0.0000 -1.0000 0.0000
vn 0.0000 1.0000 0.0000
usemtl None_NONE
s off
f 1/1/1 2/2/1 3/3/1 4/4/1
f 2/2/2 5/5/2 6/6/2 3/3/2
f 5/5/3 7/7/3 8/8/3 6/6/3
f 7/7/4 1/1/4 4/4/4 8/8/4
f 4/4/5 3/3/5 6/6/5 8/8/5
f 2/2/6 1/1/6 7/7/6 5/5/6
o Cube.002
v 1.657595 14.728382 1.644447
v 1.752922 14.407483 2.229449
v 1.649494 34.597511 2.375836
v 1.554172 34.918407 1.790837
v 41.870136 15.472775 1.395571
v 41.766708 35.662804 1.541958
v 41.862030 35.341908 2.126956
v 41.965458 15.151876 1.980569
vt 0.0000 0.0000
vt 0.0000 0.0000
vt 0.0000 0.0000
vt 0.0000 0.0000
vt 0.0000 0.0000
vt 0.0000 0.0000
vt 0.0000 0.0000
vt 0.0000 0.0000
vt 1.0000 0.0000
vt 1.0000 1.0000
vt 0.0000 1.0000
vn -0.9875 -0.0062 0.1575
vn 0.9875 0.0062 -0.1575
vn 0.0132 -0.8758 -0.4826
vn -0.0132 0.8758 0.4825
vn -0.0063 0.0072 -1.0000
vn 0.0063 -0.0072 1.0000
usemtl mat_sign
s off
f 9/9/7 10/10/7 11/11/7 12/12/7
f 13/13/8 14/14/8 15/15/8 16/16/8
f 9/9/9 13/13/9 16/16/9 10/10/9
f 11/11/10 15/15/10 14/14/10 12/12/10
f 13/13/11 9/9/11 12/12/11 14/14/11
f 10/10/12 16/17/12 15/18/12 11/19/12
o Plane
v 2.378355 32.453682 0.346622
v 33.531437 32.870720 0.096306
v 33.588181 15.312624 0.206222
v 2.435103 14.895594 0.456538
vt 0.0001 0.0001
vt 0.9999 0.0001
vt 0.9999 0.9999
vt 0.0001 0.9999
vn -0.0080 -0.0063 -0.9999
usemtl None
s off
f 17/20/13 18/21/13 19/22/13 20/23/13
o Cube.000_Cube.004
v 36.898518 16.500595 -2.734634
v 36.898518 16.500595 -2.931074
v 36.898518 0.158633 -2.931085
v 36.898518 0.158633 -2.734645
v 37.094959 16.500595 -2.931074
v 37.094959 0.158633 -2.931085
v 37.094959 16.500595 -2.734634
v 37.094959 0.158633 -2.734645
vt 0.0000 0.0000
vt 0.0000 0.0000
vt 0.0000 0.0000
vt 0.0000 0.0000
vt 0.0000 0.0000
vt 0.0000 0.0000
vt 0.0000 0.0000
vt 0.0000 0.0000
vn -1.0000 -0.0000 0.0000
vn 0.0000 0.0000 -1.0000
vn 1.0000 0.0000 0.0000
vn 0.0000 -0.0000 1.0000
vn 0.0000 -1.0000 0.0000
vn 0.0000 1.0000 0.0000
usemtl None_NONE
s off
f 21/24/14 22/25/14 23/26/14 24/27/14
f 22/25/15 25/28/15 26/29/15 23/26/15
f 25/28/16 27/30/16 28/31/16 26/29/16
f 27/30/17 21/24/17 24/27/17 28/31/17
f 24/27/18 23/26/18 26/29/18 28/31/18
f 22/25/19 21/24/19 27/30/19 25/28/19
o Cube
v 0.000000 -2.000000 -1.000000
v 0.000000 -2.000000 1.000000
v -2.000000 -2.000000 1.000000
v -2.000000 -2.000000 -1.000000
v 0.000000 0.000000 -0.999999
v -0.000001 0.000000 1.000001
v -2.000000 0.000000 1.000000
v -2.000000 0.000000 -1.000000
vn 0.0000 -1.0000 0.0000
vn 0.0000 1.0000 0.0000
vn 1.0000 0.0000 0.0000
vn -0.0000 -0.0000 1.0000
vn -1.0000 -0.0000 -0.0000
vn 0.0000 0.0000 -1.0000
usemtl Material
s off
f 29//20 30//20 31//20 32//20
f 33//21 36//21 35//21 34//21
f 29//22 33//22 34//22 30//22
f 30//23 34//23 35//23 31//23
f 31//24 35//24 36//24 32//24
f 33//25 29//25 32//25 36//25
