# Blender v2.78 (sub 0) OBJ File: ''
# www.blender.org
mtllib s200Sign.mtl
o Cube.000_Cube.004
v 25.898518 -3.499405 7.265368
v 25.898518 -3.499405 7.068927
v 25.898518 -19.841368 7.068913
v 25.898518 -19.841368 7.265354
v 26.094959 -3.499405 7.068927
v 26.094959 -19.841368 7.068913
v 26.094959 -3.499405 7.265368
v 26.094959 -19.841368 7.265354
vt 0.0000 0.0000
vt 0.0000 0.0000
vt 0.0000 0.0000
vt 0.0000 0.0000
vt 0.0000 0.0000
vt 0.0000 0.0000
vt 0.0000 0.0000
vt 0.0000 0.0000
vn -1.0000 0.0000 0.0000
vn 0.0000 0.0000 -1.0000
vn 1.0000 0.0000 0.0000
vn 0.0000 -0.0000 1.0000
vn 0.0000 -1.0000 0.0000
vn 0.0000 1.0000 0.0000
usemtl None_NONE
s 1
f 1/1/1 2/2/1 3/3/1 4/4/1
f 2/2/2 5/5/2 6/6/2 3/3/2
f 5/5/3 7/7/3 8/8/3 6/6/3
f 7/7/4 1/1/4 4/4/4 8/8/4
f 4/4/5 3/3/5 6/6/5 8/8/5
f 2/2/6 1/1/6 7/7/6 5/5/6
o Cube.002
v -9.342405 -5.271619 11.644447
v -9.247078 -5.592518 12.229448
v -9.350506 14.597509 12.375839
v -9.445827 14.918406 11.790841
v 30.870136 -4.527226 11.395573
v 30.766708 15.662802 11.541962
v 30.862030 15.341906 12.126961
v 30.965458 -4.848125 11.980570
vt 0.0000 0.0000
vt 0.0000 0.0000
vt 0.0000 0.0000
vt 0.0000 0.0000
vt 0.0000 0.0000
vt 0.0000 0.0000
vt 0.0000 0.0000
vt 0.0000 0.0000
vt 1.0000 0.0000
vt 1.0000 1.0000
vt 0.0000 1.0000
vn -0.9875 -0.0062 0.1575
vn 0.9875 0.0062 -0.1575
vn 0.0132 -0.8758 -0.4826
vn -0.0132 0.8758 0.4826
vn -0.0063 0.0072 -1.0000
vn 0.0063 -0.0072 1.0000
usemtl mat_sign
s 1
f 9/9/7 10/10/7 11/11/7 12/12/7
f 13/13/8 14/14/8 15/15/8 16/16/8
f 9/9/9 13/13/9 16/16/9 10/10/9
f 11/11/10 15/15/10 14/14/10 12/12/10
f 13/13/11 9/9/11 12/12/11 14/14/11
f 10/10/12 16/17/12 15/18/12 11/19/12
o Cube.001
v -7.985337 -4.661578 10.319305
v -7.985337 -4.661578 10.122865
v -7.985337 -21.003540 10.122850
v -7.985337 -21.003540 10.319290
v -7.788897 -4.661578 10.122865
v -7.788897 -21.003540 10.122850
v -7.788897 -4.661578 10.319305
v -7.788897 -21.003540 10.319290
vt 0.0000 0.0000
vt 0.0000 0.0000
vt 0.0000 0.0000
vt 0.0000 0.0000
vt 0.0000 0.0000
vt 0.0000 0.0000
vt 0.0000 0.0000
vt 0.0000 0.0000
vn -1.0000 0.0000 0.0000
vn 0.0000 0.0000 -1.0000
vn 1.0000 0.0000 0.0000
vn 0.0000 -0.0000 1.0000
vn 0.0000 -1.0000 0.0000
vn 0.0000 1.0000 0.0000
usemtl None_NONE
s 1
f 17/20/13 18/21/13 19/22/13 20/23/13
f 18/21/14 21/24/14 22/25/14 19/22/14
f 21/24/15 23/26/15 24/27/15 22/25/15
f 23/26/16 17/20/16 20/23/16 24/27/16
f 20/23/17 19/22/17 22/25/17 24/27/17
f 18/21/18 17/20/18 23/26/18 21/24/18
o Plane
v -8.621645 12.453682 10.346626
v 22.531437 12.870720 10.096309
v 22.588181 -4.687377 10.206223
v -8.564898 -5.104407 10.456539
vt 0.0001 0.0001
vt 0.9999 0.0001
vt 0.9999 0.9999
vt 0.0001 0.9999
vn -0.0080 -0.0063 -0.9999
usemtl None
s 1
f 25/28/19 26/29/19 27/30/19 28/31/19
