# Exported from Wings 3D 2.1.5
mtllib s230Sign.mtl
o Cube.002
#8 vertices, 6 faces
v -5.37011551 6.39610900 0.18037900
v -5.37349822 6.42095400 0.77306500
v -5.47521661 8.76576700 0.67462700
v -5.47183188 8.74092100 8.1941000e-2
v 10.88416861 6.56817500 0.19573200
v 10.78245022 8.91298800 9.7293000e-2
v 10.77906548 8.93783400 0.68997800
v 10.88078591 6.59302000 0.78841600
vt 0.0000000e+0 0.0000000e+0
vt 0.0000000e+0 1.00000000
vt 1.00000000 0.0000000e+0
vt 1.00000000 1.00000000
vn -0.99904584 -4.3501251e-2 -3.8800968e-3
vn 1.0536371e-2 -0.99906456 4.1940323e-2
vn 1.3870747e-3 -4.1884344e-2 -0.99912150
vn -0.99904584 -4.3501251e-2 -3.8800968e-3
vn 1.0536371e-2 -0.99906456 4.1940323e-2
vn -1.3869801e-3 4.1884116e-2 0.99912151
vn -0.99904584 -4.3501251e-2 -3.8800968e-3
vn -1.0536433e-2 0.99906449 -4.1942007e-2
vn -1.3869801e-3 4.1884116e-2 0.99912151
vn -0.99904584 -4.3501251e-2 -3.8800968e-3
vn -1.0536433e-2 0.99906449 -4.1942007e-2
vn 1.3870747e-3 -4.1884344e-2 -0.99912150
vn 0.99904580 4.3502094e-2 3.8800711e-3
vn 1.0536371e-2 -0.99906456 4.1940323e-2
vn 1.3870747e-3 -4.1884344e-2 -0.99912150
vn 0.99904580 4.3502094e-2 3.8800711e-3
vn -1.0536433e-2 0.99906449 -4.1942007e-2
vn 1.3870747e-3 -4.1884344e-2 -0.99912150
vn 0.99904580 4.3502094e-2 3.8800711e-3
vn -1.0536433e-2 0.99906449 -4.1942007e-2
vn -1.3869801e-3 4.1884116e-2 0.99912151
vn 0.99904580 4.3502094e-2 3.8800711e-3
vn 1.0536371e-2 -0.99906456 4.1940323e-2
vn -1.3869801e-3 4.1884116e-2 0.99912151
g Cube.002_mat_sign
usemtl mat_sign
s 1
f 2/1/6 8/3/24 7/4/21 3/2/9
f 4/1/12 6/1/18 5/1/15 1/1/3
s 2
f 1/1/2 5/1/14 8/1/23 2/1/5
f 3/1/8 7/1/20 6/1/17 4/1/11
s 3
f 2/1/4 3/1/7 4/1/10 1/1/1
f 6/1/16 7/1/19 8/1/22 5/1/13
