#Produced by Art of Illusion 3.0.3, Fri Aug 25 08:05:58 CEST 2017
g ES_CAT_OR32
v 0.22528 6.77288 0.31729
v 0.63049 -0.13074 0.15245
v 0.63046 -0.13543 0.34883
v 0.22525 6.76819 0.51368
v 0.42164 6.76734 0.31719
v 0.82685 -0.13628 0.15234
v 0.42161 6.76265 0.51357
v 0.82682 -0.14097 0.34873
v 5.40399 7.80565 0.04731
v -1.21289 7.9864 0.03159
v -1.28333 5.45878 -0.01119
v 5.33355 5.27803 0.00452
v -1.86895 8.27554 0.13197
v -1.92322 4.57622 0.14207
v -1.92388 4.60127 0.73552
v -1.8696 8.30059 0.72543
v 6.09552 4.64585 0.75321
v 6.09617 4.6208 0.15976
v 6.15045 8.32012 0.14966
v 6.1498 8.34518 0.74311
vn -0.99828 -0.05856 -0.00156
vn 0.00016 0.02388 -0.99971
vn 0.02823 0.99932 0.02387
vn -0.99828 -0.05856 -0.00156
vn 0.00016 0.02388 -0.99971
vn 0.00016 0.02388 -0.99971
vn -0.02823 -0.99932 -0.02387
vn -0.02823 -0.99932 -0.02387
vn -0.99828 -0.05856 -0.00156
vn -0.99828 -0.05856 -0.00156
vn -0.02823 -0.99932 -0.02387
vn -0.00016 -0.02388 0.99971
vn -0.00016 -0.02388 0.99971
vn -0.99828 -0.05856 -0.00156
vn -0.99828 -0.05856 -0.00156
vn -0.00016 -0.02388 0.99971
vn 0.02823 0.99932 0.02387
vn 0.02823 0.99932 0.02387
vn 0.00016 0.02388 -0.99971
vn 0.02823 0.99932 0.02387
vn 0.02823 0.99932 0.02387
vn 0.99828 0.05856 0.00156
vn 0.00016 0.02388 -0.99971
vn 0.00016 0.02388 -0.99971
vn 0.99828 0.05856 0.00156
vn 0.99828 0.05856 0.00156
vn -0.02823 -0.99932 -0.02387
vn 0.99828 0.05856 0.00156
vn 0.02823 0.99932 0.02387
vn -0.00016 -0.02388 0.99971
vn -0.00016 -0.02388 0.99971
vn 0.99828 0.05856 0.00156
vn 0.99828 0.05856 0.00156
vn -0.00016 -0.02388 0.99971
vn -0.02823 -0.99932 -0.02387
vn -0.02823 -0.99932 -0.02387
vn -0.00284 -0.01684 0.99985
vn -0.00284 -0.01684 0.99985
vn -0.00284 -0.01684 0.99985
vn -0.00284 -0.01684 0.99985
vn -0.00284 -0.01684 0.99985
vn -0.00284 -0.01684 0.99985
vn -0.00284 -0.01684 0.99985
vn -0.00284 -0.01684 0.99985
vn -0.99989 0.01467 -0.00172
vn 0.00222 -0.00276 -0.99999
vn -0.00546 0.99909 -0.04218
vn -0.00546 0.99909 -0.04218
vn -0.99989 0.01467 -0.00172
vn 0.00546 -0.9991 0.04218
vn 0.00546 -0.9991 0.04218
vn 0.00222 -0.00276 -0.99999
vn 0.00222 -0.00276 -0.99999
vn -0.99989 0.01467 -0.00172
vn -0.99989 0.01467 -0.00172
vn 0.00546 -0.9991 0.04218
vn -0.00222 0.00276 0.99999
vn -0.00222 0.00276 0.99999
vn -0.99989 0.01467 -0.00172
vn -0.99989 0.01467 -0.00172
vn -0.00222 0.00276 0.99999
vn -0.00546 0.99909 -0.04218
vn 0.99989 -0.01467 0.00172
vn 0.00546 -0.9991 0.04218
vn 0.00546 -0.9991 0.04218
vn -0.00222 0.00276 0.99999
vn 0.99989 -0.01467 0.00172
vn 0.00546 -0.9991 0.04218
vn 0.00222 -0.00276 -0.99999
vn 0.99989 -0.01467 0.00172
vn 0.99989 -0.01467 0.00172
vn 0.00222 -0.00276 -0.99999
vn 0.00222 -0.00276 -0.99999
vn -0.00546 0.99909 -0.04218
vn 0.99989 -0.01467 0.00172
vn 0.99989 -0.01467 0.00172
vn -0.00546 0.99909 -0.04218
vn -0.00546 0.99909 -0.04218
vn -0.00222 0.00276 0.99999
vn -0.00222 0.00276 0.99999
f 1//1 2//9 3//10
f 3//14 4//15 1//4
f 2//5 1//2 5//19
f 5//23 6//24 2//6
f 7//32 8//33 6//26
f 6//25 5//22 7//28
f 7//30 4//16 3//13
f 3//12 8//34 7//31
f 8//35 3//11 2//8
f 2//7 6//27 8//36
f 5//20 1//3 4//18
f 4//17 7//29 5//21
f 9//37 10//40 11//42
f 11//41 12//44 9//38
f 13//45 14//54 15//55
f 15//59 16//60 13//49
f 17//63 18//70 19//71
f 19//75 20//76 17//67
f 17//65 15//56 14//50
f 14//51 18//68 17//64
f 13//48 16//62 20//78
f 20//77 19//74 13//47
f 14//53 13//46 19//73
f 19//72 18//69 14//52
f 20//79 16//61 15//58
f 15//57 17//66 20//80
