# Blender v2.78 (sub 0) OBJ File: ''
# www.blender.org
mtllib s230Sign.mtl
o Cube.001
v 0.808476 7.829089 0.499200
v 0.808476 7.829089 0.302760
v 0.808476 -0.168744 0.302749
v 0.808476 -0.168744 0.499189
v 1.004917 7.829089 0.302760
v 1.004917 -0.168744 0.302749
v 1.004917 7.829089 0.499200
v 1.004917 -0.168744 0.499189
vt 0.0000 0.0000
vt 0.0000 0.0000
vt 0.0000 0.0000
vt 0.0000 0.0000
vt 0.0000 0.0000
vt 0.0000 0.0000
vt 0.0000 0.0000
vt 0.0000 0.0000
vn -1.0000 0.0000 0.0000
vn 0.0000 0.0000 -1.0000
vn 1.0000 0.0000 0.0000
vn 0.0000 -0.0000 1.0000
vn 0.0000 -1.0000 -0.0000
vn 0.0000 1.0000 0.0000
usemtl None_NONE
s 1
f 1/1/1 2/2/1 3/3/1 4/4/1
f 2/2/2 5/5/2 6/6/2 3/3/2
f 5/5/3 7/7/3 8/8/3 6/6/3
f 7/7/4 1/1/4 4/4/4 8/8/4
f 4/4/5 3/3/5 6/6/5 8/8/5
f 2/2/6 1/1/6 7/7/6 5/5/6
o Plane
v -0.662267 6.964458 0.005986
v 5.957064 6.968611 0.024973
v 5.956108 8.572094 0.007375
v -0.663222 8.567940 -0.011613
vt 0.0001 0.0001
vt 0.9999 0.0001
vt 0.9999 0.9999
vt 0.0001 0.9999
vn -0.0029 0.0110 0.9999
usemtl None
s 1
f 9/9/7 10/10/7 11/11/7 12/12/7
o Cube.002
v 1.209428 8.649584 0.371564
v 1.207760 8.696169 0.964250
v 1.157603 13.092691 0.865813
v 1.159272 13.046105 0.273127
v 9.224360 8.972206 0.386917
v 9.174203 13.368730 0.288479
v 9.172534 13.415318 0.881164
v 9.222692 9.018791 0.979601
vt 0.0000 0.0000
vt 0.0000 0.0000
vt 0.0000 0.0000
vt 0.0000 0.0000
vt 0.0000 0.0000
vt 0.0000 0.0000
vt 0.0000 0.0000
vt 0.0000 0.0000
vt 1.0000 0.0000
vt 1.0000 1.0000
vt 0.0000 1.0000
vn -0.9999 -0.0115 -0.0019
vn 0.9999 0.0115 0.0019
vn 0.0399 -0.9961 0.0784
vn -0.0399 0.9961 -0.0784
vn 0.0028 -0.0224 -0.9997
vn -0.0028 0.0224 0.9997
usemtl mat_sign
s 1
f 13/13/8 14/14/8 15/15/8 16/16/8
f 17/17/9 18/18/9 19/19/9 20/20/9
f 13/13/10 17/17/10 20/20/10 14/14/10
f 15/15/11 19/19/11 18/18/11 16/16/11
f 17/17/12 13/13/12 16/16/12 18/18/12
f 14/14/13 20/21/13 19/22/13 15/23/13
