# Blender v2.78 (sub 0) OBJ File: ''
# www.blender.org
mtllib s230Sign.mtl
o Cube.002
v -2.532561 6.024804 -0.283319
v -2.532561 6.024801 0.326683
v -2.532564 11.583694 0.326683
v -2.532564 11.583698 -0.283318
v 2.467436 6.024807 -0.283319
v 2.467429 11.583698 -0.283318
v 2.467429 11.583698 0.326683
v 2.467436 6.024807 0.326683
vt 0.0000 0.0000
vt 0.0000 0.0000
vt 0.0000 0.0000
vt 0.0000 0.0000
vt 0.0000 0.0000
vt 0.0000 0.0000
vt 0.0000 0.0000
vt 0.0000 0.0000
vt 1.0000 0.0000
vt 1.0000 1.0000
vt 0.0000 1.0000
vn -1.0000 -0.0000 -0.0000
vn 1.0000 0.0000 0.0000
vn 0.0000 -1.0000 -0.0000
vn -0.0000 1.0000 0.0000
vn 0.0000 0.0000 -1.0000
vn -0.0000 -0.0000 1.0000
usemtl mat_sign
s off
f 1/1/1 2/2/1 3/3/1 4/4/1
f 5/5/2 6/6/2 7/7/2 8/8/2
f 1/1/3 5/5/3 8/8/3 2/2/3
f 3/3/4 7/7/4 6/6/4 4/4/4
f 5/5/5 1/1/5 4/4/5 6/6/5
f 2/2/6 8/9/6 7/10/6 3/11/6
o Plane_Plane.001
v -1.568067 8.715487 0.033817
v 1.503613 8.713539 0.040464
v 1.501235 6.019769 0.005590
v -1.570443 6.021719 -0.001058
vt 0.0001 0.0001
vt 0.9999 0.0001
vt 0.9999 0.9999
vt 0.0001 0.9999
vn 0.0022 0.0129 -0.9999
usemtl None
s off
f 9/12/7 10/13/7 11/14/7 12/15/7
o Cube.001
v -0.102456 7.853387 0.307995
v -0.102456 7.853387 0.111555
v -0.102456 -0.146613 0.111552
v -0.102456 -0.146613 0.307992
v 0.093985 7.853387 0.111555
v 0.093985 -0.146613 0.111552
v 0.093985 7.853387 0.307995
v 0.093985 -0.146613 0.307992
vt 0.0000 0.0000
vt 0.0000 0.0000
vt 0.0000 0.0000
vt 0.0000 0.0000
vt 0.0000 0.0000
vt 0.0000 0.0000
vt 0.0000 0.0000
vt 0.0000 0.0000
vn -1.0000 0.0000 0.0000
vn 0.0000 0.0000 -1.0000
vn 1.0000 0.0000 0.0000
vn 0.0000 -0.0000 1.0000
vn 0.0000 -1.0000 -0.0000
vn 0.0000 1.0000 0.0000
usemtl None_NONE
s off
f 13/16/8 14/17/8 15/18/8 16/19/8
f 14/17/9 17/20/9 18/21/9 15/18/9
f 17/20/10 19/22/10 20/23/10 18/21/10
f 19/22/11 13/16/11 16/19/11 20/23/11
f 16/19/12 15/18/12 18/21/12 20/23/12
f 14/17/13 13/16/13 19/22/13 17/20/13
