# Exported from Wings 3D 2.1.5
mtllib s230Sign.mtl
o Cube.002
#8 vertices, 6 faces
v -1.27707800 6.89301100 0.18037900
v -1.27874600 6.95303652 0.77306500
v -1.32890300 12.61810473 0.67462700
v -1.32723400 12.55807679 8.1941000e-2
v 6.73785500 7.30872245 0.19573200
v 6.68769800 12.97379066 9.7293000e-2
v 6.68602900 13.03381860 0.68997800
v 6.73618700 7.36874797 0.78841600
vt 0.0000000e+0 0.0000000e+0
vt 0.0000000e+0 1.00000000
vt 1.00000000 0.0000000e+0
vt 1.00000000 1.00000000
vn -0.99995868 -8.8865564e-3 -1.9150109e-3
vn 5.1341313e-2 -0.99358396 0.10077196
vn 2.8150260e-3 -1.7348798e-2 -0.99984554
vn -0.99995868 -8.8865564e-3 -1.9150109e-3
vn 5.1341313e-2 -0.99358396 0.10077196
vn -2.8148340e-3 1.7348704e-2 0.99984554
vn -0.99995868 -8.8865564e-3 -1.9150109e-3
vn -5.1341596e-2 0.99358354 -0.10077597
vn -2.8148340e-3 1.7348704e-2 0.99984554
vn -0.99995868 -8.8865564e-3 -1.9150109e-3
vn -5.1341596e-2 0.99358354 -0.10077597
vn 2.8150260e-3 -1.7348798e-2 -0.99984554
vn 0.99995868 8.8867291e-3 1.9149983e-3
vn 5.1341313e-2 -0.99358396 0.10077196
vn 2.8150260e-3 -1.7348798e-2 -0.99984554
vn 0.99995868 8.8867291e-3 1.9149983e-3
vn -5.1341596e-2 0.99358354 -0.10077597
vn 2.8150260e-3 -1.7348798e-2 -0.99984554
vn 0.99995868 8.8867291e-3 1.9149983e-3
vn -5.1341596e-2 0.99358354 -0.10077597
vn -2.8148340e-3 1.7348704e-2 0.99984554
vn 0.99995868 8.8867291e-3 1.9149983e-3
vn 5.1341313e-2 -0.99358396 0.10077196
vn -2.8148340e-3 1.7348704e-2 0.99984554
g Cube.002_mat_sign
usemtl mat_sign
s 1
f 2/1/6 8/3/24 7/4/21 3/2/9
f 4/1/12 6/1/18 5/1/15 1/1/3
s 2
f 1/1/2 5/1/14 8/1/23 2/1/5
f 3/1/8 7/1/20 6/1/17 4/1/11
s 3
f 2/1/4 3/1/7 4/1/10 1/1/1
f 6/1/16 7/1/19 8/1/22 5/1/13
o Plane
#4 vertices, 1 faces
v -0.66226700 6.96445800 5.9850000e-3
v 5.95706400 6.96861100 2.4972000e-2
v 5.95610800 8.57209400 7.3740000e-3
v -0.66322200 8.56794000 -1.1614000e-2
vt 1.0000000e-4 1.0000000e-4
vt 1.0000000e-4 0.99990000
vt 0.99990000 1.0000000e-4
vt 0.99990000 0.99990000
vn -2.8751932e-3 1.0972755e-2 0.99993566
vn -2.8751932e-3 1.0972755e-2 0.99993566
vn -2.8751932e-3 1.0972755e-2 0.99993566
vn -2.8751932e-3 1.0972755e-2 0.99993566
g Plane_None
usemtl None
s 2
f 10/7/26 11/8/27 12/6/28 9/5/25
o Cube.001
#8 vertices, 6 faces
v 0.80847600 7.82908900 0.49919900
v 0.80847600 7.82908900 0.30275900
v 0.80847600 -0.16874400 0.30274900
v 0.80847600 -0.16874400 0.49918900
v 1.00491700 7.82908900 0.30275900
v 1.00491700 -0.16874400 0.30274900
v 1.00491700 7.82908900 0.49919900
v 1.00491700 -0.16874400 0.49918900
vt 0.0000000e+0 0.0000000e+0
vn -1.00000000 0.0000000e+0 0.0000000e+0
vn 0.0000000e+0 -1.2503387e-6 1.00000000
vn 0.0000000e+0 1.00000000 0.0000000e+0
vn -1.00000000 0.0000000e+0 0.0000000e+0
vn 0.0000000e+0 1.2503387e-6 -1.00000000
vn 0.0000000e+0 1.00000000 0.0000000e+0
vn -1.00000000 0.0000000e+0 0.0000000e+0
vn 0.0000000e+0 1.2503387e-6 -1.00000000
vn 0.0000000e+0 -1.00000000 0.0000000e+0
vn -1.00000000 0.0000000e+0 0.0000000e+0
vn 0.0000000e+0 -1.2503387e-6 1.00000000
vn 0.0000000e+0 -1.00000000 0.0000000e+0
vn 0.0000000e+0 1.2503387e-6 -1.00000000
vn 1.00000000 0.0000000e+0 0.0000000e+0
vn 0.0000000e+0 1.00000000 0.0000000e+0
vn 0.0000000e+0 1.2503387e-6 -1.00000000
vn 1.00000000 0.0000000e+0 0.0000000e+0
vn 0.0000000e+0 -1.00000000 0.0000000e+0
vn 1.00000000 0.0000000e+0 0.0000000e+0
vn 0.0000000e+0 -1.2503387e-6 1.00000000
vn 0.0000000e+0 1.00000000 0.0000000e+0
vn 1.00000000 0.0000000e+0 0.0000000e+0
vn 0.0000000e+0 -1.2503387e-6 1.00000000
vn 0.0000000e+0 -1.00000000 0.0000000e+0
g Cube.001_None_NONE
usemtl None_NONE
s 1
f 13/9/31 19/9/49 17/9/43 14/9/34
f 15/9/37 18/9/46 20/9/52 16/9/40
s 2
f 14/9/32 15/9/35 16/9/38 13/9/29
f 17/9/42 19/9/47 20/9/50 18/9/45
s 3
f 14/9/33 17/9/41 18/9/44 15/9/36
f 16/9/39 20/9/51 19/9/48 13/9/30
