# Blender v2.78 (sub 0) OBJ File: ''
# www.blender.org
mtllib s230Sign.mtl
o Cube.001
v 0.808476 7.829089 0.499200
v 0.808476 7.829089 0.302760
v 0.808476 -0.168744 0.302749
v 0.808476 -0.168744 0.499189
v 1.004917 7.829089 0.302760
v 1.004917 -0.168744 0.302749
v 1.004917 7.829089 0.499200
v 1.004917 -0.168744 0.499189
vt 0.0000 0.0000
vt 0.0000 0.0000
vt 0.0000 0.0000
vt 0.0000 0.0000
vt 0.0000 0.0000
vt 0.0000 0.0000
vt 0.0000 0.0000
vt 0.0000 0.0000
vn -1.0000 0.0000 0.0000
vn 0.0000 0.0000 -1.0000
vn 1.0000 0.0000 0.0000
vn 0.0000 -0.0000 1.0000
vn 0.0000 -1.0000 -0.0000
vn 0.0000 1.0000 0.0000
usemtl None_NONE
s 1
f 1/1/1 2/2/1 3/3/1 4/4/1
f 2/2/2 5/5/2 6/6/2 3/3/2
f 5/5/3 7/7/3 8/8/3 6/6/3
f 7/7/4 1/1/4 4/4/4 8/8/4
f 4/4/5 3/3/5 6/6/5 8/8/5
f 2/2/6 1/1/6 7/7/6 5/5/6
o Cube.002
v -0.981554 6.762109 0.145201
v -0.983222 6.791433 0.737887
v -1.033379 9.559019 0.639450
v -1.031710 9.529693 0.046764
v 7.033379 6.965198 0.160554
v 6.983222 9.732784 0.062116
v 6.981553 9.762109 0.654801
v 7.031711 6.994523 0.753238
vt 0.0000 0.0000
vt 0.0000 0.0000
vt 0.0000 0.0000
vt 0.0000 0.0000
vt 0.0000 0.0000
vt 0.0000 0.0000
vt 0.0000 0.0000
vt 0.0000 0.0000
vt 1.0000 0.0000
vt 1.0000 1.0000
vt 0.0000 1.0000
vn -0.9998 -0.0182 -0.0019
vn 0.9998 0.0182 0.0019
vn 0.0252 -0.9985 0.0495
vn -0.0252 0.9985 -0.0495
vn 0.0028 -0.0355 -0.9994
vn -0.0028 0.0355 0.9994
usemtl mat_sign
s 1
f 9/9/7 10/10/7 11/11/7 12/12/7
f 13/13/8 14/14/8 15/15/8 16/16/8
f 9/9/9 13/13/9 16/16/9 10/10/9
f 11/11/10 15/15/10 14/14/10 12/12/10
f 13/13/11 9/9/11 12/12/11 14/14/11
f 10/10/12 16/17/12 15/18/12 11/19/12
o Plane
v -0.662267 6.964458 0.005986
v 5.957064 6.968611 0.024973
v 5.956108 8.572094 0.007375
v -0.663222 8.567940 -0.011613
vt 0.0001 0.0001
vt 0.9999 0.0001
vt 0.9999 0.9999
vt 0.0001 0.9999
vn -0.0029 0.0110 0.9999
usemtl None
s 1
f 17/20/13 18/21/13 19/22/13 20/23/13
