# Blender v2.79 (sub 0) OBJ File: ''
# www.blender.org
mtllib s242Sign.mtl
o Cube.002
v -14.296378 11.090549 -0.627839
v -14.305365 11.097695 0.272133
v -14.565350 25.404827 0.155774
v -14.556363 25.397671 -0.744197
v 7.413943 11.486777 -0.414193
v 7.153954 25.793900 -0.530552
v 7.144967 25.801056 0.369419
v 7.404956 11.493932 0.485778
vt 0.000000 0.000000
vt 0.000000 0.000000
vt 0.000000 0.000000
vt 0.000000 0.000000
vt 0.000000 0.000000
vt 0.000000 0.000000
vt 0.000000 0.000000
vt 0.000000 0.000000
vt 1.000000 0.000000
vt 1.000000 1.000000
vt 0.000000 1.000000
vn -0.9998 -0.0182 -0.0098
vn 0.9998 0.0182 0.0098
vn 0.0182 -0.9998 0.0081
vn -0.0182 0.9998 -0.0081
vn 0.0100 -0.0080 -0.9999
vn -0.0100 0.0080 0.9999
usemtl mat_sign
s 1
f 1/1/1 2/2/1 3/3/1 4/4/1
f 5/5/2 6/6/2 7/7/2 8/8/2
f 1/1/3 5/5/3 8/8/3 2/2/3
f 3/3/4 7/7/4 6/6/4 4/4/4
f 5/5/5 1/1/5 4/4/5 6/6/5
f 2/2/6 8/9/6 7/10/6 3/11/6
o Plane
v -10.073151 10.105382 -1.430780
v 5.713951 10.208799 -1.233175
v 5.550562 21.604841 -1.210077
v -10.236539 21.501413 -1.407681
vt 0.000000 0.000000
vt 1.000000 0.000000
vt 1.000000 1.000000
vt 0.000000 1.000000
vn -0.0125 -0.0022 0.9999
usemtl 1
s 1
f 9/12/7 10/13/7 11/14/7 12/15/7
