# Blender v2.78 (sub 0) OBJ File: ''
# www.blender.org
mtllib s300Sign.mtl
o Plane
v -148.568069 65.364716 -0.009209
v 51.403076 65.571350 0.009778
v 51.374191 145.364716 -0.007807
v -148.596924 145.157990 -0.026795
vt 0.0001 0.0001
vt 0.9999 0.0001
vt 0.9999 0.9999
vt 0.0001 0.9999
vn -0.0001 0.0002 1.0000
usemtl None
s 1
f 1/1/1 2/2/1 3/3/1 4/4/1
o Cube.001
v 0.881239 78.290894 0.653965
v 0.881239 78.290894 0.396628
v 0.881239 -1.687440 0.396601
v 0.881239 -1.687440 0.653937
v 1.095359 78.290894 0.396628
v 1.095359 -1.687440 0.396601
v 1.095359 78.290894 0.653965
v 1.095359 -1.687440 0.653937
vt 0.0000 0.0000
vt 0.0000 0.0000
vt 0.0000 0.0000
vt 0.0000 0.0000
vt 0.0000 0.0000
vt 0.0000 0.0000
vt 0.0000 0.0000
vt 0.0000 0.0000
vn -1.0000 -0.0000 0.0000
vn 0.0000 0.0000 -1.0000
vn 1.0000 0.0000 0.0000
vn 0.0000 -0.0000 1.0000
vn 0.0000 -1.0000 0.0000
vn 0.0000 1.0000 0.0000
usemtl None_NONE
s 1
f 5/5/2 6/6/2 7/7/2 8/8/2
f 6/6/3 9/9/3 10/10/3 7/7/3
f 9/9/4 11/11/4 12/12/4 10/10/4
f 11/11/5 5/5/5 8/8/5 12/12/5
f 8/8/6 7/7/6 10/10/6 12/12/6
f 6/6/7 5/5/7 11/11/7 9/9/7
o Cube.002
v 2.972360 61.495834 2.062101
v 2.951682 61.886826 2.654809
v 2.329908 98.787956 2.556373
v 2.350597 98.396950 1.963666
v 102.329910 64.203690 2.077456
v 101.708138 101.104820 1.979019
v 101.687447 101.495827 2.571725
v 102.309235 64.594688 2.670161
vt 0.0000 0.0000
vt 0.0000 0.0000
vt 0.0000 0.0000
vt 0.0000 0.0000
vt 0.0000 0.0000
vt 0.0000 0.0000
vt 0.0000 0.0000
vt 0.0000 0.0000
vt 1.0000 0.0000
vt 1.0000 1.0000
vt 0.0000 1.0000
vn -0.9996 -0.0169 -0.0237
vn 0.9996 0.0169 0.0237
vn 0.0226 -0.8342 0.5511
vn -0.0226 0.8342 -0.5511
vn 0.0002 -0.0027 -1.0000
vn -0.0002 0.0027 1.0000
usemtl mat_sign
s 1
f 13/13/8 14/14/8 15/15/8 16/16/8
f 17/17/9 18/18/9 19/19/9 20/20/9
f 13/13/10 17/17/10 20/20/10 14/14/10
f 15/15/11 19/19/11 18/18/11 16/16/11
f 17/17/12 13/13/12 16/16/12 18/18/12
f 14/14/13 20/21/13 19/22/13 15/23/13
