# Blender v2.78 (sub 0) OBJ File: ''
# www.blender.org
mtllib s300Sign.mtl
o Plane
v -19.548162 105.619743 -1.002015
v 80.437408 105.723061 -0.619743
v 80.422966 145.619751 -0.974043
v -19.562588 145.516388 -1.356336
vt 0.0001 0.0001
vt 0.9999 0.0001
vt 0.9999 0.9999
vt 0.0001 0.9999
vn -0.0038 0.0089 1.0000
usemtl None
s 1
f 1/1/1 2/2/1 3/3/1 4/4/1
o Cube.001
v 3.350523 108.364380 2.178750
v 3.350523 108.364380 1.321398
v 3.350523 -2.335628 1.321332
v 3.350523 -2.335628 2.178684
v 4.164623 108.364380 1.321398
v 4.164623 -2.335628 1.321332
v 4.164623 108.364380 2.178750
v 4.164623 -2.335628 2.178684
vt 0.0000 0.0000
vt 0.0000 0.0000
vt 0.0000 0.0000
vt 0.0000 0.0000
vt 0.0000 0.0000
vt 0.0000 0.0000
vt 0.0000 0.0000
vt 0.0000 0.0000
vn -1.0000 0.0000 0.0000
vn 0.0000 0.0000 -1.0000
vn 1.0000 0.0000 0.0000
vn 0.0000 -0.0000 1.0000
vn 0.0000 -1.0000 0.0000
vn 0.0000 1.0000 0.0000
usemtl None_NONE
s 1
f 5/5/2 6/6/2 7/7/2 8/8/2
f 6/6/3 9/9/3 10/10/3 7/7/3
f 9/9/4 11/11/4 12/12/4 10/10/4
f 11/11/5 5/5/5 8/8/5 12/12/5
f 8/8/6 7/7/6 10/10/6 12/12/6
f 6/6/7 5/5/7 11/11/7 9/9/7
o Cube.002
v -26.848080 108.051338 3.811744
v -26.874960 108.735573 4.404451
v -27.683264 173.312561 4.306020
v -27.656368 172.628296 3.713313
v 102.316734 112.790092 3.827098
v 101.508430 177.367065 3.728666
v 101.481537 178.051331 4.321372
v 102.289856 113.474327 4.419803
vt 0.0000 0.0000
vt 0.0000 0.0000
vt 0.0000 0.0000
vt 0.0000 0.0000
vt 0.0000 0.0000
vt 0.0000 0.0000
vt 0.0000 0.0000
vt 0.0000 0.0000
vt 1.0000 0.0000
vt 1.0000 1.0000
vt 0.0000 1.0000
vn -0.9994 -0.0126 -0.0308
vn 0.9994 0.0126 0.0308
vn 0.0239 -0.6540 0.7561
vn -0.0239 0.6540 -0.7561
vn 0.0002 -0.0015 -1.0000
vn -0.0002 0.0015 1.0000
usemtl mat_sign
s 1
f 13/13/8 14/14/8 15/15/8 16/16/8
f 17/17/9 18/18/9 19/19/9 20/20/9
f 13/13/10 17/17/10 20/20/10 14/14/10
f 15/15/11 19/19/11 18/18/11 16/16/11
f 17/17/12 13/13/12 16/16/12 18/18/12
f 14/14/13 20/21/13 19/22/13 15/23/13
