# Blender v2.78 (sub 0) OBJ File: ''
# www.blender.org
mtllib squareSignUp.mtl
o Cube.002
v -1.106505 4.586316 -0.514502
v -1.106505 4.586315 0.385499
v -1.106507 6.513545 0.385499
v -1.106507 6.513546 -0.514502
v 0.893495 4.586317 -0.514502
v 0.893493 6.513546 -0.514502
v 0.893493 6.513546 0.385499
v 0.893495 4.586317 0.385499
vt 0.0000 0.0000
vt 0.0000 0.0000
vt 0.0000 0.0000
vt 0.0000 0.0000
vt 0.0000 0.0000
vt 0.0000 0.0000
vt 0.0000 0.0000
vt 0.0000 0.0000
vt 1.0000 0.0000
vt 1.0000 1.0000
vt 0.0000 1.0000
vn -1.0000 -0.0000 -0.0000
vn 1.0000 0.0000 0.0000
vn 0.0000 -1.0000 -0.0000
vn -0.0000 1.0000 0.0000
vn -0.0000 0.0000 -1.0000
vn 0.0000 -0.0000 1.0000
usemtl mat_sign
s off
f 1/1/1 2/2/1 3/3/1 4/4/1
f 5/5/2 6/6/2 7/7/2 8/8/2
f 1/1/3 5/5/3 8/8/3 2/2/3
f 3/3/4 7/7/4 6/6/4 4/4/4
f 5/5/5 1/1/5 4/4/5 6/6/5
f 2/2/6 8/9/6 7/10/6 3/11/6
o Plane_Plane.001
v -1.086975 6.563017 0.049807
v 0.861163 6.561500 0.056637
v 0.859655 4.464756 0.020806
v -1.088482 4.466273 0.013976
vt 0.0001 0.0001
vt 0.9999 0.0001
vt 0.9999 0.9999
vt 0.0001 0.9999
vn 0.0035 0.0171 -0.9998
usemtl None
s off
f 9/12/7 10/13/7 11/14/7 12/15/7
